%TF.GenerationSoftware,KiCad,Pcbnew,10.0.1-1.fc44*%
%TF.CreationDate,2026-05-01T08:25:57+02:00*%
%TF.ProjectId,poc-one,706f632d-6f6e-4652-9e6b-696361645f70,rev?*%
%TF.SameCoordinates,Original*%
%TF.FileFunction,Drillmap*%
%TF.FilePolarity,Positive*%
%FSLAX45Y45*%
G04 Gerber Fmt 4.5, Leading zero omitted, Abs format (unit mm)*
G04 Created by KiCad (PCBNEW 10.0.1-1.fc44) date 2026-05-01 08:25:57*
%MOMM*%
%LPD*%
G01*
G04 APERTURE LIST*
%ADD10C,0.050000*%
%ADD11C,0.200000*%
%ADD12C,0.100000*%
G04 APERTURE END LIST*
D10*
X6685000Y-10765000D02*
X16235000Y-10765000D01*
X16235000Y-21565000D01*
X6685000Y-21565000D01*
X6685000Y-10765000D01*
D11*
D12*
X7028500Y-19570500D02*
X7043500Y-19585500D01*
X7043500Y-19570500D02*
X7028500Y-19585500D01*
X8613500Y-17707500D02*
X8628500Y-17722500D01*
X8628500Y-17707500D02*
X8613500Y-17722500D01*
X8669500Y-17660500D02*
X8684500Y-17675500D01*
X8684500Y-17660500D02*
X8669500Y-17675500D01*
X8726500Y-17608500D02*
X8741500Y-17623500D01*
X8741500Y-17608500D02*
X8726500Y-17623500D01*
X8960500Y-18562500D02*
X8975500Y-18577500D01*
X8975500Y-18562500D02*
X8960500Y-18577500D01*
X9085500Y-18784500D02*
X9100500Y-18799500D01*
X9100500Y-18784500D02*
X9085500Y-18799500D01*
X9205500Y-19004500D02*
X9220500Y-19019500D01*
X9220500Y-19004500D02*
X9205500Y-19019500D01*
X9336500Y-19225500D02*
X9351500Y-19240500D01*
X9351500Y-19225500D02*
X9336500Y-19240500D01*
X9357500Y-17025000D02*
X9372500Y-17040000D01*
X9372500Y-17025000D02*
X9357500Y-17040000D01*
X9662500Y-16907500D02*
X9677500Y-16922500D01*
X9677500Y-16907500D02*
X9662500Y-16922500D01*
X9662500Y-17062500D02*
X9677500Y-17077500D01*
X9677500Y-17062500D02*
X9662500Y-17077500D01*
X9684500Y-18564500D02*
X9699500Y-18579500D01*
X9699500Y-18564500D02*
X9684500Y-18579500D01*
X9684500Y-18784500D02*
X9699500Y-18799500D01*
X9699500Y-18784500D02*
X9684500Y-18799500D01*
X9684500Y-19004500D02*
X9699500Y-19019500D01*
X9699500Y-19004500D02*
X9684500Y-19019500D01*
X9684500Y-19224500D02*
X9699500Y-19239500D01*
X9699500Y-19224500D02*
X9684500Y-19239500D01*
X9717500Y-16952500D02*
X9732500Y-16967500D01*
X9732500Y-16952500D02*
X9717500Y-16967500D01*
X9717500Y-17062500D02*
X9732500Y-17077500D01*
X9732500Y-17062500D02*
X9717500Y-17077500D01*
X9743500Y-18547500D02*
X9758500Y-18562500D01*
X9758500Y-18547500D02*
X9743500Y-18562500D01*
X9743500Y-18767500D02*
X9758500Y-18782500D01*
X9758500Y-18767500D02*
X9743500Y-18782500D01*
X9743500Y-18987500D02*
X9758500Y-19002500D01*
X9758500Y-18987500D02*
X9743500Y-19002500D01*
X9743500Y-19207500D02*
X9758500Y-19222500D01*
X9758500Y-19207500D02*
X9743500Y-19222500D01*
X9803500Y-18745500D02*
X9818500Y-18760500D01*
X9818500Y-18745500D02*
X9803500Y-18760500D01*
X9803500Y-18965500D02*
X9818500Y-18980500D01*
X9818500Y-18965500D02*
X9803500Y-18980500D01*
X9803500Y-19185500D02*
X9818500Y-19200500D01*
X9818500Y-19185500D02*
X9803500Y-19200500D01*
X9803500Y-19405500D02*
X9818500Y-19420500D01*
X9818500Y-19405500D02*
X9803500Y-19420500D01*
X9871500Y-16867500D02*
X9886500Y-16882500D01*
X9886500Y-16867500D02*
X9871500Y-16882500D01*
X9877500Y-12565000D02*
X9892500Y-12580000D01*
X9892500Y-12565000D02*
X9877500Y-12580000D01*
X9904500Y-18564500D02*
X9919500Y-18579500D01*
X9919500Y-18564500D02*
X9904500Y-18579500D01*
X9904500Y-18784500D02*
X9919500Y-18799500D01*
X9919500Y-18784500D02*
X9904500Y-18799500D01*
X9904500Y-19004500D02*
X9919500Y-19019500D01*
X9919500Y-19004500D02*
X9904500Y-19019500D01*
X9904500Y-19224500D02*
X9919500Y-19239500D01*
X9919500Y-19224500D02*
X9904500Y-19239500D01*
X9917500Y-12457500D02*
X9932500Y-12472500D01*
X9932500Y-12457500D02*
X9917500Y-12472500D01*
X9957500Y-12517500D02*
X9972500Y-12532500D01*
X9972500Y-12517500D02*
X9957500Y-12532500D01*
X9963500Y-18547500D02*
X9978500Y-18562500D01*
X9978500Y-18547500D02*
X9963500Y-18562500D01*
X9963500Y-18767500D02*
X9978500Y-18782500D01*
X9978500Y-18767500D02*
X9963500Y-18782500D01*
X9963500Y-18987500D02*
X9978500Y-19002500D01*
X9978500Y-18987500D02*
X9963500Y-19002500D01*
X9963500Y-19207500D02*
X9978500Y-19222500D01*
X9978500Y-19207500D02*
X9963500Y-19222500D01*
X9985500Y-16866500D02*
X10000500Y-16881500D01*
X10000500Y-16866500D02*
X9985500Y-16881500D01*
X10023500Y-18745500D02*
X10038500Y-18760500D01*
X10038500Y-18745500D02*
X10023500Y-18760500D01*
X10023500Y-18965500D02*
X10038500Y-18980500D01*
X10038500Y-18965500D02*
X10023500Y-18980500D01*
X10023500Y-19185500D02*
X10038500Y-19200500D01*
X10038500Y-19185500D02*
X10023500Y-19200500D01*
X10023500Y-19405500D02*
X10038500Y-19420500D01*
X10038500Y-19405500D02*
X10023500Y-19420500D01*
X10096500Y-18416500D02*
X10111500Y-18431500D01*
X10111500Y-18416500D02*
X10096500Y-18431500D01*
X10121500Y-16864500D02*
X10136500Y-16879500D01*
X10136500Y-16864500D02*
X10121500Y-16879500D01*
X10124500Y-18564500D02*
X10139500Y-18579500D01*
X10139500Y-18564500D02*
X10124500Y-18579500D01*
X10124500Y-18784500D02*
X10139500Y-18799500D01*
X10139500Y-18784500D02*
X10124500Y-18799500D01*
X10124500Y-19004500D02*
X10139500Y-19019500D01*
X10139500Y-19004500D02*
X10124500Y-19019500D01*
X10124500Y-19224500D02*
X10139500Y-19239500D01*
X10139500Y-19224500D02*
X10124500Y-19239500D01*
X10183500Y-18547500D02*
X10198500Y-18562500D01*
X10198500Y-18547500D02*
X10183500Y-18562500D01*
X10183500Y-18767500D02*
X10198500Y-18782500D01*
X10198500Y-18767500D02*
X10183500Y-18782500D01*
X10183500Y-18987500D02*
X10198500Y-19002500D01*
X10198500Y-18987500D02*
X10183500Y-19002500D01*
X10183500Y-19207500D02*
X10198500Y-19222500D01*
X10198500Y-19207500D02*
X10183500Y-19222500D01*
X10202500Y-12455000D02*
X10217500Y-12470000D01*
X10217500Y-12455000D02*
X10202500Y-12470000D01*
X10202500Y-12515000D02*
X10217500Y-12530000D01*
X10217500Y-12515000D02*
X10202500Y-12530000D01*
X10202500Y-12565000D02*
X10217500Y-12580000D01*
X10217500Y-12565000D02*
X10202500Y-12580000D01*
X10213500Y-18367500D02*
X10228500Y-18382500D01*
X10228500Y-18367500D02*
X10213500Y-18382500D01*
X10243500Y-18745500D02*
X10258500Y-18760500D01*
X10258500Y-18745500D02*
X10243500Y-18760500D01*
X10243500Y-18965500D02*
X10258500Y-18980500D01*
X10258500Y-18965500D02*
X10243500Y-18980500D01*
X10243500Y-19185500D02*
X10258500Y-19200500D01*
X10258500Y-19185500D02*
X10243500Y-19200500D01*
X10243500Y-19405500D02*
X10258500Y-19420500D01*
X10258500Y-19405500D02*
X10243500Y-19420500D01*
X10256500Y-16821500D02*
X10271500Y-16836500D01*
X10271500Y-16821500D02*
X10256500Y-16836500D01*
X10332500Y-18321500D02*
X10347500Y-18336500D01*
X10347500Y-18321500D02*
X10332500Y-18336500D01*
X10344500Y-18564500D02*
X10359500Y-18579500D01*
X10359500Y-18564500D02*
X10344500Y-18579500D01*
X10344500Y-18784500D02*
X10359500Y-18799500D01*
X10359500Y-18784500D02*
X10344500Y-18799500D01*
X10344500Y-19004500D02*
X10359500Y-19019500D01*
X10359500Y-19004500D02*
X10344500Y-19019500D01*
X10344500Y-19224500D02*
X10359500Y-19239500D01*
X10359500Y-19224500D02*
X10344500Y-19239500D01*
X10403500Y-18547500D02*
X10418500Y-18562500D01*
X10418500Y-18547500D02*
X10403500Y-18562500D01*
X10403500Y-18767500D02*
X10418500Y-18782500D01*
X10418500Y-18767500D02*
X10403500Y-18782500D01*
X10403500Y-18987500D02*
X10418500Y-19002500D01*
X10418500Y-18987500D02*
X10403500Y-19002500D01*
X10403500Y-19207500D02*
X10418500Y-19222500D01*
X10418500Y-19207500D02*
X10403500Y-19222500D01*
X10448500Y-18272500D02*
X10463500Y-18287500D01*
X10463500Y-18272500D02*
X10448500Y-18287500D01*
X10463500Y-18745500D02*
X10478500Y-18760500D01*
X10478500Y-18745500D02*
X10463500Y-18760500D01*
X10463500Y-18965500D02*
X10478500Y-18980500D01*
X10478500Y-18965500D02*
X10463500Y-18980500D01*
X10463500Y-19185500D02*
X10478500Y-19200500D01*
X10478500Y-19185500D02*
X10463500Y-19200500D01*
X10463500Y-19405500D02*
X10478500Y-19420500D01*
X10478500Y-19405500D02*
X10463500Y-19420500D01*
X10465000Y-17052500D02*
X10480000Y-17067500D01*
X10480000Y-17052500D02*
X10465000Y-17067500D01*
X10470000Y-16867500D02*
X10485000Y-16882500D01*
X10485000Y-16867500D02*
X10470000Y-16882500D01*
X10542500Y-12455000D02*
X10557500Y-12470000D01*
X10557500Y-12455000D02*
X10542500Y-12470000D01*
X10542500Y-12515000D02*
X10557500Y-12530000D01*
X10557500Y-12515000D02*
X10542500Y-12530000D01*
X10542500Y-12565000D02*
X10557500Y-12580000D01*
X10557500Y-12565000D02*
X10542500Y-12580000D01*
X10564500Y-18695500D02*
X10579500Y-18710500D01*
X10579500Y-18695500D02*
X10564500Y-18710500D01*
X10569500Y-19353500D02*
X10584500Y-19368500D01*
X10584500Y-19353500D02*
X10569500Y-19368500D01*
X10571500Y-18911500D02*
X10586500Y-18926500D01*
X10586500Y-18911500D02*
X10571500Y-18926500D01*
X10571500Y-19134500D02*
X10586500Y-19149500D01*
X10586500Y-19134500D02*
X10571500Y-19149500D01*
X10722500Y-16907500D02*
X10737500Y-16922500D01*
X10737500Y-16907500D02*
X10722500Y-16922500D01*
X10722500Y-17047500D02*
X10737500Y-17062500D01*
X10737500Y-17047500D02*
X10722500Y-17062500D01*
X10847500Y-16952500D02*
X10862500Y-16967500D01*
X10862500Y-16952500D02*
X10847500Y-16967500D01*
X10847500Y-17047500D02*
X10862500Y-17062500D01*
X10862500Y-17047500D02*
X10847500Y-17062500D01*
X10887500Y-12512500D02*
X10902500Y-12527500D01*
X10902500Y-12512500D02*
X10887500Y-12527500D01*
X10887500Y-12562500D02*
X10902500Y-12577500D01*
X10902500Y-12562500D02*
X10887500Y-12577500D01*
X10890000Y-12452500D02*
X10905000Y-12467500D01*
X10905000Y-12452500D02*
X10890000Y-12467500D01*
X11597500Y-16867500D02*
X11612500Y-16882500D01*
X11612500Y-16867500D02*
X11597500Y-16882500D01*
X11597500Y-17057500D02*
X11612500Y-17072500D01*
X11612500Y-17057500D02*
X11597500Y-17072500D01*
X11602500Y-12367500D02*
X11617500Y-12382500D01*
X11617500Y-12367500D02*
X11602500Y-12382500D01*
X11602500Y-12532500D02*
X11617500Y-12547500D01*
X11617500Y-12532500D02*
X11602500Y-12547500D01*
X11857500Y-16907500D02*
X11872500Y-16922500D01*
X11872500Y-16907500D02*
X11857500Y-16922500D01*
X11857500Y-17047500D02*
X11872500Y-17062500D01*
X11872500Y-17047500D02*
X11857500Y-17062500D01*
X11982500Y-16952500D02*
X11997500Y-16967500D01*
X11997500Y-16952500D02*
X11982500Y-16967500D01*
X11982500Y-17047500D02*
X11997500Y-17062500D01*
X11997500Y-17047500D02*
X11982500Y-17062500D01*
X7054500Y-19705000D02*
G75*
G02*
X7029500Y-19705000I-12500J0D01*
G01*
X7029500Y-19705000D02*
G75*
G02*
X7054500Y-19705000I12500J0D01*
G01*
X7054500Y-19840000D02*
G75*
G02*
X7029500Y-19840000I-12500J0D01*
G01*
X7029500Y-19840000D02*
G75*
G02*
X7054500Y-19840000I12500J0D01*
G01*
X7054500Y-19950000D02*
G75*
G02*
X7029500Y-19950000I-12500J0D01*
G01*
X7029500Y-19950000D02*
G75*
G02*
X7054500Y-19950000I12500J0D01*
G01*
X7949500Y-19200000D02*
G75*
G02*
X7924500Y-19200000I-12500J0D01*
G01*
X7924500Y-19200000D02*
G75*
G02*
X7949500Y-19200000I12500J0D01*
G01*
X7949500Y-19450000D02*
G75*
G02*
X7924500Y-19450000I-12500J0D01*
G01*
X7924500Y-19450000D02*
G75*
G02*
X7949500Y-19450000I12500J0D01*
G01*
X9129500Y-21090000D02*
G75*
G02*
X9104500Y-21090000I-12500J0D01*
G01*
X9104500Y-21090000D02*
G75*
G02*
X9129500Y-21090000I12500J0D01*
G01*
X9684500Y-20090000D02*
G75*
G02*
X9659500Y-20090000I-12500J0D01*
G01*
X9659500Y-20090000D02*
G75*
G02*
X9684500Y-20090000I12500J0D01*
G01*
X9987500Y-17988000D02*
G75*
G02*
X9962500Y-17988000I-12500J0D01*
G01*
X9962500Y-17988000D02*
G75*
G02*
X9987500Y-17988000I12500J0D01*
G01*
X10144500Y-20075000D02*
G75*
G02*
X10119500Y-20075000I-12500J0D01*
G01*
X10119500Y-20075000D02*
G75*
G02*
X10144500Y-20075000I12500J0D01*
G01*
X10217050Y-14757050D02*
G75*
G02*
X10192050Y-14757050I-12500J0D01*
G01*
X10192050Y-14757050D02*
G75*
G02*
X10217050Y-14757050I12500J0D01*
G01*
X10448500Y-15374000D02*
G75*
G02*
X10423500Y-15374000I-12500J0D01*
G01*
X10423500Y-15374000D02*
G75*
G02*
X10448500Y-15374000I12500J0D01*
G01*
X10532500Y-14942500D02*
G75*
G02*
X10507500Y-14942500I-12500J0D01*
G01*
X10507500Y-14942500D02*
G75*
G02*
X10532500Y-14942500I12500J0D01*
G01*
X10577500Y-12650000D02*
G75*
G02*
X10552500Y-12650000I-12500J0D01*
G01*
X10552500Y-12650000D02*
G75*
G02*
X10577500Y-12650000I12500J0D01*
G01*
X10607500Y-15226000D02*
G75*
G02*
X10582500Y-15226000I-12500J0D01*
G01*
X10582500Y-15226000D02*
G75*
G02*
X10607500Y-15226000I12500J0D01*
G01*
X10609500Y-20080000D02*
G75*
G02*
X10584500Y-20080000I-12500J0D01*
G01*
X10584500Y-20080000D02*
G75*
G02*
X10609500Y-20080000I12500J0D01*
G01*
X10677500Y-11645000D02*
G75*
G02*
X10652500Y-11645000I-12500J0D01*
G01*
X10652500Y-11645000D02*
G75*
G02*
X10677500Y-11645000I12500J0D01*
G01*
X10677500Y-11955000D02*
G75*
G02*
X10652500Y-11955000I-12500J0D01*
G01*
X10652500Y-11955000D02*
G75*
G02*
X10677500Y-11955000I12500J0D01*
G01*
X10797500Y-11695000D02*
G75*
G02*
X10772500Y-11695000I-12500J0D01*
G01*
X10772500Y-11695000D02*
G75*
G02*
X10797500Y-11695000I12500J0D01*
G01*
X10829500Y-15708000D02*
G75*
G02*
X10804500Y-15708000I-12500J0D01*
G01*
X10804500Y-15708000D02*
G75*
G02*
X10829500Y-15708000I12500J0D01*
G01*
X10887500Y-13335000D02*
G75*
G02*
X10862500Y-13335000I-12500J0D01*
G01*
X10862500Y-13335000D02*
G75*
G02*
X10887500Y-13335000I12500J0D01*
G01*
X10887500Y-13395000D02*
G75*
G02*
X10862500Y-13395000I-12500J0D01*
G01*
X10862500Y-13395000D02*
G75*
G02*
X10887500Y-13395000I12500J0D01*
G01*
X10942500Y-14940000D02*
G75*
G02*
X10917500Y-14940000I-12500J0D01*
G01*
X10917500Y-14940000D02*
G75*
G02*
X10942500Y-14940000I12500J0D01*
G01*
X10988500Y-15546000D02*
G75*
G02*
X10963500Y-15546000I-12500J0D01*
G01*
X10963500Y-15546000D02*
G75*
G02*
X10988500Y-15546000I12500J0D01*
G01*
X11064500Y-20070000D02*
G75*
G02*
X11039500Y-20070000I-12500J0D01*
G01*
X11039500Y-20070000D02*
G75*
G02*
X11064500Y-20070000I12500J0D01*
G01*
X11124500Y-17990000D02*
G75*
G02*
X11099500Y-17990000I-12500J0D01*
G01*
X11099500Y-17990000D02*
G75*
G02*
X11124500Y-17990000I12500J0D01*
G01*
X11127500Y-13360000D02*
G75*
G02*
X11102500Y-13360000I-12500J0D01*
G01*
X11102500Y-13360000D02*
G75*
G02*
X11127500Y-13360000I12500J0D01*
G01*
X11127500Y-13420000D02*
G75*
G02*
X11102500Y-13420000I-12500J0D01*
G01*
X11102500Y-13420000D02*
G75*
G02*
X11127500Y-13420000I12500J0D01*
G01*
X11207500Y-12020000D02*
G75*
G02*
X11182500Y-12020000I-12500J0D01*
G01*
X11182500Y-12020000D02*
G75*
G02*
X11207500Y-12020000I12500J0D01*
G01*
X11212123Y-13509623D02*
G75*
G02*
X11187123Y-13509623I-12500J0D01*
G01*
X11187123Y-13509623D02*
G75*
G02*
X11212123Y-13509623I12500J0D01*
G01*
X11282500Y-11690000D02*
G75*
G02*
X11257500Y-11690000I-12500J0D01*
G01*
X11257500Y-11690000D02*
G75*
G02*
X11282500Y-11690000I12500J0D01*
G01*
X11297500Y-14990000D02*
G75*
G02*
X11272500Y-14990000I-12500J0D01*
G01*
X11272500Y-14990000D02*
G75*
G02*
X11297500Y-14990000I12500J0D01*
G01*
X11392500Y-11645000D02*
G75*
G02*
X11367500Y-11645000I-12500J0D01*
G01*
X11367500Y-11645000D02*
G75*
G02*
X11392500Y-11645000I12500J0D01*
G01*
X11522500Y-14055000D02*
G75*
G02*
X11497500Y-14055000I-12500J0D01*
G01*
X11497500Y-14055000D02*
G75*
G02*
X11522500Y-14055000I12500J0D01*
G01*
X11572500Y-13615000D02*
G75*
G02*
X11547500Y-13615000I-12500J0D01*
G01*
X11547500Y-13615000D02*
G75*
G02*
X11572500Y-13615000I12500J0D01*
G01*
X11604000Y-12151500D02*
G75*
G02*
X11579000Y-12151500I-12500J0D01*
G01*
X11579000Y-12151500D02*
G75*
G02*
X11604000Y-12151500I12500J0D01*
G01*
X11627500Y-14510000D02*
G75*
G02*
X11602500Y-14510000I-12500J0D01*
G01*
X11602500Y-14510000D02*
G75*
G02*
X11627500Y-14510000I12500J0D01*
G01*
X11652000Y-12068500D02*
G75*
G02*
X11627000Y-12068500I-12500J0D01*
G01*
X11627000Y-12068500D02*
G75*
G02*
X11652000Y-12068500I12500J0D01*
G01*
X11687500Y-15175000D02*
G75*
G02*
X11662500Y-15175000I-12500J0D01*
G01*
X11662500Y-15175000D02*
G75*
G02*
X11687500Y-15175000I12500J0D01*
G01*
X11767500Y-12540000D02*
G75*
G02*
X11742500Y-12540000I-12500J0D01*
G01*
X11742500Y-12540000D02*
G75*
G02*
X11767500Y-12540000I12500J0D01*
G01*
X11882500Y-11585000D02*
G75*
G02*
X11857500Y-11585000I-12500J0D01*
G01*
X11857500Y-11585000D02*
G75*
G02*
X11882500Y-11585000I12500J0D01*
G01*
X11917500Y-12740000D02*
G75*
G02*
X11892500Y-12740000I-12500J0D01*
G01*
X11892500Y-12740000D02*
G75*
G02*
X11917500Y-12740000I12500J0D01*
G01*
X11972500Y-11585000D02*
G75*
G02*
X11947500Y-11585000I-12500J0D01*
G01*
X11947500Y-11585000D02*
G75*
G02*
X11972500Y-11585000I12500J0D01*
G01*
X12072500Y-12743000D02*
G75*
G02*
X12047500Y-12743000I-12500J0D01*
G01*
X12047500Y-12743000D02*
G75*
G02*
X12072500Y-12743000I12500J0D01*
G01*
X12137500Y-12740000D02*
G75*
G02*
X12112500Y-12740000I-12500J0D01*
G01*
X12112500Y-12740000D02*
G75*
G02*
X12137500Y-12740000I12500J0D01*
G01*
X12157500Y-11585000D02*
G75*
G02*
X12132500Y-11585000I-12500J0D01*
G01*
X12132500Y-11585000D02*
G75*
G02*
X12157500Y-11585000I12500J0D01*
G01*
X12260500Y-18006000D02*
G75*
G02*
X12235500Y-18006000I-12500J0D01*
G01*
X12235500Y-18006000D02*
G75*
G02*
X12260500Y-18006000I12500J0D01*
G01*
X12262500Y-12730000D02*
G75*
G02*
X12237500Y-12730000I-12500J0D01*
G01*
X12237500Y-12730000D02*
G75*
G02*
X12262500Y-12730000I12500J0D01*
G01*
X12297500Y-12500000D02*
G75*
G02*
X12272500Y-12500000I-12500J0D01*
G01*
X12272500Y-12500000D02*
G75*
G02*
X12297500Y-12500000I12500J0D01*
G01*
X12367500Y-12650000D02*
G75*
G02*
X12342500Y-12650000I-12500J0D01*
G01*
X12342500Y-12650000D02*
G75*
G02*
X12367500Y-12650000I12500J0D01*
G01*
X12402500Y-12080000D02*
G75*
G02*
X12377500Y-12080000I-12500J0D01*
G01*
X12377500Y-12080000D02*
G75*
G02*
X12402500Y-12080000I12500J0D01*
G01*
X12402500Y-12150000D02*
G75*
G02*
X12377500Y-12150000I-12500J0D01*
G01*
X12377500Y-12150000D02*
G75*
G02*
X12402500Y-12150000I12500J0D01*
G01*
X12482500Y-12040000D02*
G75*
G02*
X12457500Y-12040000I-12500J0D01*
G01*
X12457500Y-12040000D02*
G75*
G02*
X12482500Y-12040000I12500J0D01*
G01*
X12777500Y-12035000D02*
G75*
G02*
X12752500Y-12035000I-12500J0D01*
G01*
X12752500Y-12035000D02*
G75*
G02*
X12777500Y-12035000I12500J0D01*
G01*
X12982500Y-12281000D02*
G75*
G02*
X12957500Y-12281000I-12500J0D01*
G01*
X12957500Y-12281000D02*
G75*
G02*
X12982500Y-12281000I12500J0D01*
G01*
X13430500Y-11480000D02*
G75*
G02*
X13405500Y-11480000I-12500J0D01*
G01*
X13405500Y-11480000D02*
G75*
G02*
X13430500Y-11480000I12500J0D01*
G01*
X13812500Y-12125000D02*
G75*
G02*
X13787500Y-12125000I-12500J0D01*
G01*
X13787500Y-12125000D02*
G75*
G02*
X13812500Y-12125000I12500J0D01*
G01*
X14703500Y-11813000D02*
G75*
G02*
X14678500Y-11813000I-12500J0D01*
G01*
X14678500Y-11813000D02*
G75*
G02*
X14703500Y-11813000I12500J0D01*
G01*
X14773500Y-11738000D02*
G75*
G02*
X14748500Y-11738000I-12500J0D01*
G01*
X14748500Y-11738000D02*
G75*
G02*
X14773500Y-11738000I12500J0D01*
G01*
X14857500Y-20465000D02*
G75*
G02*
X14832500Y-20465000I-12500J0D01*
G01*
X14832500Y-20465000D02*
G75*
G02*
X14857500Y-20465000I12500J0D01*
G01*
X15584500Y-11333000D02*
G75*
G02*
X15559500Y-11333000I-12500J0D01*
G01*
X15559500Y-11333000D02*
G75*
G02*
X15584500Y-11333000I12500J0D01*
G01*
X9772500Y-14510000D02*
X9772500Y-14540000D01*
X9757500Y-14525000D02*
X9787500Y-14525000D01*
X9807500Y-13805000D02*
X9807500Y-13835000D01*
X9792500Y-13820000D02*
X9822500Y-13820000D01*
X9807500Y-14017500D02*
X9807500Y-14047500D01*
X9792500Y-14032500D02*
X9822500Y-14032500D01*
X9813211Y-14230000D02*
X9813211Y-14260000D01*
X9798211Y-14245000D02*
X9828211Y-14245000D01*
X9817500Y-13602500D02*
X9817500Y-13632500D01*
X9802500Y-13617500D02*
X9832500Y-13617500D01*
X10090000Y-14020000D02*
X10090000Y-14050000D01*
X10075000Y-14035000D02*
X10105000Y-14035000D01*
X10227500Y-14510000D02*
X10227500Y-14540000D01*
X10212500Y-14525000D02*
X10242500Y-14525000D01*
X10325000Y-13665000D02*
X10325000Y-13695000D01*
X10310000Y-13680000D02*
X10340000Y-13680000D01*
X10395000Y-14020000D02*
X10395000Y-14050000D01*
X10380000Y-14035000D02*
X10410000Y-14035000D01*
X10470000Y-13215000D02*
X10470000Y-13245000D01*
X10455000Y-13230000D02*
X10485000Y-13230000D01*
X10485000Y-13820000D02*
X10485000Y-13850000D01*
X10470000Y-13835000D02*
X10500000Y-13835000D01*
X10485000Y-13960000D02*
X10485000Y-13990000D01*
X10470000Y-13975000D02*
X10500000Y-13975000D01*
X10485000Y-14120000D02*
X10485000Y-14150000D01*
X10470000Y-14135000D02*
X10500000Y-14135000D01*
X10485000Y-14260000D02*
X10485000Y-14290000D01*
X10470000Y-14275000D02*
X10500000Y-14275000D01*
X10590000Y-13210000D02*
X10590000Y-13240000D01*
X10575000Y-13225000D02*
X10605000Y-13225000D01*
X10625000Y-13820000D02*
X10625000Y-13850000D01*
X10610000Y-13835000D02*
X10640000Y-13835000D01*
X10625000Y-14260000D02*
X10625000Y-14290000D01*
X10610000Y-14275000D02*
X10640000Y-14275000D01*
X10785000Y-13820000D02*
X10785000Y-13850000D01*
X10770000Y-13835000D02*
X10800000Y-13835000D01*
X10785000Y-14260000D02*
X10785000Y-14290000D01*
X10770000Y-14275000D02*
X10800000Y-14275000D01*
X10790000Y-14350000D02*
X10790000Y-14380000D01*
X10775000Y-14365000D02*
X10805000Y-14365000D01*
X10790000Y-14745000D02*
X10790000Y-14775000D01*
X10775000Y-14760000D02*
X10805000Y-14760000D01*
X10875000Y-13730000D02*
X10875000Y-13760000D01*
X10860000Y-13745000D02*
X10890000Y-13745000D01*
X10925000Y-13820000D02*
X10925000Y-13850000D01*
X10910000Y-13835000D02*
X10940000Y-13835000D01*
X10925000Y-13960000D02*
X10925000Y-13990000D01*
X10910000Y-13975000D02*
X10940000Y-13975000D01*
X10925000Y-14120000D02*
X10925000Y-14150000D01*
X10910000Y-14135000D02*
X10940000Y-14135000D01*
X10925000Y-14260000D02*
X10925000Y-14290000D01*
X10910000Y-14275000D02*
X10940000Y-14275000D01*
X11015000Y-14040000D02*
X11015000Y-14070000D01*
X11000000Y-14055000D02*
X11030000Y-14055000D01*
X11307500Y-14497500D02*
X11307500Y-14527500D01*
X11292500Y-14512500D02*
X11322500Y-14512500D01*
X11560000Y-13690000D02*
X11560000Y-13720000D01*
X11545000Y-13705000D02*
X11575000Y-13705000D01*
X11690000Y-14132500D02*
X11690000Y-14162500D01*
X11675000Y-14147500D02*
X11705000Y-14147500D01*
X11770000Y-14040000D02*
X11770000Y-14070000D01*
X11755000Y-14055000D02*
X11785000Y-14055000D01*
X11770000Y-14133500D02*
X11770000Y-14163500D01*
X11755000Y-14148500D02*
X11785000Y-14148500D01*
X11885000Y-14325000D02*
X11885000Y-14355000D01*
X11870000Y-14340000D02*
X11900000Y-14340000D01*
X11930000Y-13686000D02*
X11930000Y-13716000D01*
X11915000Y-13701000D02*
X11945000Y-13701000D01*
X12110000Y-13270000D02*
X12110000Y-13300000D01*
X12095000Y-13285000D02*
X12125000Y-13285000D01*
X12275000Y-13686000D02*
X12275000Y-13716000D01*
X12260000Y-13701000D02*
X12290000Y-13701000D01*
X12550000Y-13755000D02*
X12550000Y-13785000D01*
X12535000Y-13770000D02*
X12565000Y-13770000D01*
X12622500Y-13760500D02*
X12622500Y-13790500D01*
X12607500Y-13775500D02*
X12637500Y-13775500D01*
X12665000Y-13390000D02*
X12665000Y-13420000D01*
X12650000Y-13405000D02*
X12680000Y-13405000D01*
X12701127Y-13736127D02*
X12701127Y-13766127D01*
X12686127Y-13751127D02*
X12716127Y-13751127D01*
X10610678Y-11044678D02*
X10610678Y-11009322D01*
X10575322Y-11009322D01*
X10575322Y-11044678D01*
X10610678Y-11044678D01*
X10618000Y-11067000D02*
X10618000Y-10987000D01*
X10568000Y-10987000D02*
G75*
G02*
X10618000Y-10987000I25000J0D01*
G01*
X10568000Y-10987000D02*
X10568000Y-11067000D01*
X10568000Y-11067000D02*
G75*
G03*
X10618000Y-11067000I25000J0D01*
G01*
X10610678Y-11464678D02*
X10610678Y-11429322D01*
X10575322Y-11429322D01*
X10575322Y-11464678D01*
X10610678Y-11464678D01*
X10618000Y-11502000D02*
X10618000Y-11392000D01*
X10568000Y-11392000D02*
G75*
G02*
X10618000Y-11392000I25000J0D01*
G01*
X10568000Y-11392000D02*
X10568000Y-11502000D01*
X10568000Y-11502000D02*
G75*
G03*
X10618000Y-11502000I25000J0D01*
G01*
X11476678Y-11044678D02*
X11476678Y-11009322D01*
X11441322Y-11009322D01*
X11441322Y-11044678D01*
X11476678Y-11044678D01*
X11484000Y-11067000D02*
X11484000Y-10987000D01*
X11434000Y-10987000D02*
G75*
G02*
X11484000Y-10987000I25000J0D01*
G01*
X11434000Y-10987000D02*
X11434000Y-11067000D01*
X11434000Y-11067000D02*
G75*
G03*
X11484000Y-11067000I25000J0D01*
G01*
X11476678Y-11464678D02*
X11476678Y-11429322D01*
X11441322Y-11429322D01*
X11441322Y-11464678D01*
X11476678Y-11464678D01*
X11484000Y-11502000D02*
X11484000Y-11392000D01*
X11434000Y-11392000D02*
G75*
G02*
X11484000Y-11392000I25000J0D01*
G01*
X11434000Y-11392000D02*
X11434000Y-11502000D01*
X11434000Y-11502000D02*
G75*
G03*
X11484000Y-11502000I25000J0D01*
G01*
X8032000Y-11460000D02*
X8082000Y-11410000D01*
X8032000Y-11360000D01*
X7982000Y-11410000D01*
X8032000Y-11460000D01*
X8032000Y-11714000D02*
X8082000Y-11664000D01*
X8032000Y-11614000D01*
X7982000Y-11664000D01*
X8032000Y-11714000D01*
X8286000Y-11460000D02*
X8336000Y-11410000D01*
X8286000Y-11360000D01*
X8236000Y-11410000D01*
X8286000Y-11460000D01*
X8286000Y-11714000D02*
X8336000Y-11664000D01*
X8286000Y-11614000D01*
X8236000Y-11664000D01*
X8286000Y-11714000D01*
X8362500Y-13127000D02*
X8412500Y-13077000D01*
X8362500Y-13027000D01*
X8312500Y-13077000D01*
X8362500Y-13127000D01*
X8362500Y-13381000D02*
X8412500Y-13331000D01*
X8362500Y-13281000D01*
X8312500Y-13331000D01*
X8362500Y-13381000D01*
X8362500Y-13635000D02*
X8412500Y-13585000D01*
X8362500Y-13535000D01*
X8312500Y-13585000D01*
X8362500Y-13635000D01*
X8362500Y-13889000D02*
X8412500Y-13839000D01*
X8362500Y-13789000D01*
X8312500Y-13839000D01*
X8362500Y-13889000D01*
X8362500Y-14143000D02*
X8412500Y-14093000D01*
X8362500Y-14043000D01*
X8312500Y-14093000D01*
X8362500Y-14143000D01*
X8362500Y-14397000D02*
X8412500Y-14347000D01*
X8362500Y-14297000D01*
X8312500Y-14347000D01*
X8362500Y-14397000D01*
X8362500Y-14651000D02*
X8412500Y-14601000D01*
X8362500Y-14551000D01*
X8312500Y-14601000D01*
X8362500Y-14651000D01*
X8362500Y-14905000D02*
X8412500Y-14855000D01*
X8362500Y-14805000D01*
X8312500Y-14855000D01*
X8362500Y-14905000D01*
X8362500Y-15159000D02*
X8412500Y-15109000D01*
X8362500Y-15059000D01*
X8312500Y-15109000D01*
X8362500Y-15159000D01*
X8362500Y-15413000D02*
X8412500Y-15363000D01*
X8362500Y-15313000D01*
X8312500Y-15363000D01*
X8362500Y-15413000D01*
X8540000Y-11460000D02*
X8590000Y-11410000D01*
X8540000Y-11360000D01*
X8490000Y-11410000D01*
X8540000Y-11460000D01*
X8540000Y-11714000D02*
X8590000Y-11664000D01*
X8540000Y-11614000D01*
X8490000Y-11664000D01*
X8540000Y-11714000D01*
X8616500Y-13127000D02*
X8666500Y-13077000D01*
X8616500Y-13027000D01*
X8566500Y-13077000D01*
X8616500Y-13127000D01*
X8616500Y-13381000D02*
X8666500Y-13331000D01*
X8616500Y-13281000D01*
X8566500Y-13331000D01*
X8616500Y-13381000D01*
X8616500Y-13635000D02*
X8666500Y-13585000D01*
X8616500Y-13535000D01*
X8566500Y-13585000D01*
X8616500Y-13635000D01*
X8616500Y-13889000D02*
X8666500Y-13839000D01*
X8616500Y-13789000D01*
X8566500Y-13839000D01*
X8616500Y-13889000D01*
X8616500Y-14143000D02*
X8666500Y-14093000D01*
X8616500Y-14043000D01*
X8566500Y-14093000D01*
X8616500Y-14143000D01*
X8616500Y-14397000D02*
X8666500Y-14347000D01*
X8616500Y-14297000D01*
X8566500Y-14347000D01*
X8616500Y-14397000D01*
X8616500Y-14651000D02*
X8666500Y-14601000D01*
X8616500Y-14551000D01*
X8566500Y-14601000D01*
X8616500Y-14651000D01*
X8616500Y-14905000D02*
X8666500Y-14855000D01*
X8616500Y-14805000D01*
X8566500Y-14855000D01*
X8616500Y-14905000D01*
X8616500Y-15159000D02*
X8666500Y-15109000D01*
X8616500Y-15059000D01*
X8566500Y-15109000D01*
X8616500Y-15159000D01*
X8616500Y-15413000D02*
X8666500Y-15363000D01*
X8616500Y-15313000D01*
X8566500Y-15363000D01*
X8616500Y-15413000D01*
X8794000Y-11460000D02*
X8844000Y-11410000D01*
X8794000Y-11360000D01*
X8744000Y-11410000D01*
X8794000Y-11460000D01*
X8794000Y-11714000D02*
X8844000Y-11664000D01*
X8794000Y-11614000D01*
X8744000Y-11664000D01*
X8794000Y-11714000D01*
X9048000Y-11460000D02*
X9098000Y-11410000D01*
X9048000Y-11360000D01*
X8998000Y-11410000D01*
X9048000Y-11460000D01*
X9048000Y-11714000D02*
X9098000Y-11664000D01*
X9048000Y-11614000D01*
X8998000Y-11664000D01*
X9048000Y-11714000D01*
X9302000Y-11460000D02*
X9352000Y-11410000D01*
X9302000Y-11360000D01*
X9252000Y-11410000D01*
X9302000Y-11460000D01*
X9302000Y-11714000D02*
X9352000Y-11664000D01*
X9302000Y-11614000D01*
X9252000Y-11664000D01*
X9302000Y-11714000D01*
X9556000Y-11460000D02*
X9606000Y-11410000D01*
X9556000Y-11360000D01*
X9506000Y-11410000D01*
X9556000Y-11460000D01*
X9556000Y-11714000D02*
X9606000Y-11664000D01*
X9556000Y-11614000D01*
X9506000Y-11664000D01*
X9556000Y-11714000D01*
X9810000Y-11460000D02*
X9860000Y-11410000D01*
X9810000Y-11360000D01*
X9760000Y-11410000D01*
X9810000Y-11460000D01*
X9810000Y-11714000D02*
X9860000Y-11664000D01*
X9810000Y-11614000D01*
X9760000Y-11664000D01*
X9810000Y-11714000D01*
X10064000Y-11460000D02*
X10114000Y-11410000D01*
X10064000Y-11360000D01*
X10014000Y-11410000D01*
X10064000Y-11460000D01*
X10064000Y-11714000D02*
X10114000Y-11664000D01*
X10064000Y-11614000D01*
X10014000Y-11664000D01*
X10064000Y-11714000D01*
X10318000Y-11460000D02*
X10368000Y-11410000D01*
X10318000Y-11360000D01*
X10268000Y-11410000D01*
X10318000Y-11460000D01*
X10318000Y-11714000D02*
X10368000Y-11664000D01*
X10318000Y-11614000D01*
X10268000Y-11664000D01*
X10318000Y-11714000D01*
X11284500Y-15179500D02*
X11334500Y-15129500D01*
X11284500Y-15079500D01*
X11234500Y-15129500D01*
X11284500Y-15179500D01*
X11284500Y-15433500D02*
X11334500Y-15383500D01*
X11284500Y-15333500D01*
X11234500Y-15383500D01*
X11284500Y-15433500D01*
X11284500Y-15687500D02*
X11334500Y-15637500D01*
X11284500Y-15587500D01*
X11234500Y-15637500D01*
X11284500Y-15687500D01*
X12952500Y-13370000D02*
X13002500Y-13320000D01*
X12952500Y-13270000D01*
X12902500Y-13320000D01*
X12952500Y-13370000D01*
X12952500Y-13624000D02*
X13002500Y-13574000D01*
X12952500Y-13524000D01*
X12902500Y-13574000D01*
X12952500Y-13624000D01*
X12952500Y-13878000D02*
X13002500Y-13828000D01*
X12952500Y-13778000D01*
X12902500Y-13828000D01*
X12952500Y-13878000D01*
X12952500Y-14132000D02*
X13002500Y-14082000D01*
X12952500Y-14032000D01*
X12902500Y-14082000D01*
X12952500Y-14132000D01*
X12952500Y-14386000D02*
X13002500Y-14336000D01*
X12952500Y-14286000D01*
X12902500Y-14336000D01*
X12952500Y-14386000D01*
X12952500Y-14640000D02*
X13002500Y-14590000D01*
X12952500Y-14540000D01*
X12902500Y-14590000D01*
X12952500Y-14640000D01*
X12952500Y-14894000D02*
X13002500Y-14844000D01*
X12952500Y-14794000D01*
X12902500Y-14844000D01*
X12952500Y-14894000D01*
X12952500Y-15148000D02*
X13002500Y-15098000D01*
X12952500Y-15048000D01*
X12902500Y-15098000D01*
X12952500Y-15148000D01*
X13206500Y-13370000D02*
X13256500Y-13320000D01*
X13206500Y-13270000D01*
X13156500Y-13320000D01*
X13206500Y-13370000D01*
X13206500Y-13624000D02*
X13256500Y-13574000D01*
X13206500Y-13524000D01*
X13156500Y-13574000D01*
X13206500Y-13624000D01*
X13206500Y-13878000D02*
X13256500Y-13828000D01*
X13206500Y-13778000D01*
X13156500Y-13828000D01*
X13206500Y-13878000D01*
X13206500Y-14132000D02*
X13256500Y-14082000D01*
X13206500Y-14032000D01*
X13156500Y-14082000D01*
X13206500Y-14132000D01*
X13206500Y-14386000D02*
X13256500Y-14336000D01*
X13206500Y-14286000D01*
X13156500Y-14336000D01*
X13206500Y-14386000D01*
X13206500Y-14640000D02*
X13256500Y-14590000D01*
X13206500Y-14540000D01*
X13156500Y-14590000D01*
X13206500Y-14640000D01*
X13206500Y-14894000D02*
X13256500Y-14844000D01*
X13206500Y-14794000D01*
X13156500Y-14844000D01*
X13206500Y-14894000D01*
X13206500Y-15148000D02*
X13256500Y-15098000D01*
X13206500Y-15048000D01*
X13156500Y-15098000D01*
X13206500Y-15148000D01*
D11*
X6943277Y-21878984D02*
X6943277Y-21678984D01*
X6943277Y-21678984D02*
X6990896Y-21678984D01*
X6990896Y-21678984D02*
X7019467Y-21688508D01*
X7019467Y-21688508D02*
X7038515Y-21707555D01*
X7038515Y-21707555D02*
X7048039Y-21726603D01*
X7048039Y-21726603D02*
X7057562Y-21764698D01*
X7057562Y-21764698D02*
X7057562Y-21793270D01*
X7057562Y-21793270D02*
X7048039Y-21831365D01*
X7048039Y-21831365D02*
X7038515Y-21850412D01*
X7038515Y-21850412D02*
X7019467Y-21869460D01*
X7019467Y-21869460D02*
X6990896Y-21878984D01*
X6990896Y-21878984D02*
X6943277Y-21878984D01*
X7143277Y-21878984D02*
X7143277Y-21745650D01*
X7143277Y-21783746D02*
X7152801Y-21764698D01*
X7152801Y-21764698D02*
X7162324Y-21755174D01*
X7162324Y-21755174D02*
X7181372Y-21745650D01*
X7181372Y-21745650D02*
X7200420Y-21745650D01*
X7267086Y-21878984D02*
X7267086Y-21745650D01*
X7267086Y-21678984D02*
X7257562Y-21688508D01*
X7257562Y-21688508D02*
X7267086Y-21698031D01*
X7267086Y-21698031D02*
X7276610Y-21688508D01*
X7276610Y-21688508D02*
X7267086Y-21678984D01*
X7267086Y-21678984D02*
X7267086Y-21698031D01*
X7390896Y-21878984D02*
X7371848Y-21869460D01*
X7371848Y-21869460D02*
X7362324Y-21850412D01*
X7362324Y-21850412D02*
X7362324Y-21678984D01*
X7495658Y-21878984D02*
X7476610Y-21869460D01*
X7476610Y-21869460D02*
X7467086Y-21850412D01*
X7467086Y-21850412D02*
X7467086Y-21678984D01*
X7724229Y-21878984D02*
X7724229Y-21678984D01*
X7724229Y-21678984D02*
X7790896Y-21821841D01*
X7790896Y-21821841D02*
X7857562Y-21678984D01*
X7857562Y-21678984D02*
X7857562Y-21878984D01*
X8038515Y-21878984D02*
X8038515Y-21774222D01*
X8038515Y-21774222D02*
X8028991Y-21755174D01*
X8028991Y-21755174D02*
X8009943Y-21745650D01*
X8009943Y-21745650D02*
X7971848Y-21745650D01*
X7971848Y-21745650D02*
X7952801Y-21755174D01*
X8038515Y-21869460D02*
X8019467Y-21878984D01*
X8019467Y-21878984D02*
X7971848Y-21878984D01*
X7971848Y-21878984D02*
X7952801Y-21869460D01*
X7952801Y-21869460D02*
X7943277Y-21850412D01*
X7943277Y-21850412D02*
X7943277Y-21831365D01*
X7943277Y-21831365D02*
X7952801Y-21812317D01*
X7952801Y-21812317D02*
X7971848Y-21802793D01*
X7971848Y-21802793D02*
X8019467Y-21802793D01*
X8019467Y-21802793D02*
X8038515Y-21793270D01*
X8133753Y-21745650D02*
X8133753Y-21945650D01*
X8133753Y-21755174D02*
X8152801Y-21745650D01*
X8152801Y-21745650D02*
X8190896Y-21745650D01*
X8190896Y-21745650D02*
X8209943Y-21755174D01*
X8209943Y-21755174D02*
X8219467Y-21764698D01*
X8219467Y-21764698D02*
X8228991Y-21783746D01*
X8228991Y-21783746D02*
X8228991Y-21840889D01*
X8228991Y-21840889D02*
X8219467Y-21859936D01*
X8219467Y-21859936D02*
X8209943Y-21869460D01*
X8209943Y-21869460D02*
X8190896Y-21878984D01*
X8190896Y-21878984D02*
X8152801Y-21878984D01*
X8152801Y-21878984D02*
X8133753Y-21869460D01*
X8314705Y-21859936D02*
X8324229Y-21869460D01*
X8324229Y-21869460D02*
X8314705Y-21878984D01*
X8314705Y-21878984D02*
X8305182Y-21869460D01*
X8305182Y-21869460D02*
X8314705Y-21859936D01*
X8314705Y-21859936D02*
X8314705Y-21878984D01*
X8314705Y-21755174D02*
X8324229Y-21764698D01*
X8324229Y-21764698D02*
X8314705Y-21774222D01*
X8314705Y-21774222D02*
X8305182Y-21764698D01*
X8305182Y-21764698D02*
X8314705Y-21755174D01*
X8314705Y-21755174D02*
X8314705Y-21774222D01*
D12*
X6667500Y-22200000D02*
X6682500Y-22215000D01*
X6682500Y-22200000D02*
X6667500Y-22215000D01*
D11*
X6981372Y-22098984D02*
X7000420Y-22098984D01*
X7000420Y-22098984D02*
X7019467Y-22108508D01*
X7019467Y-22108508D02*
X7028991Y-22118031D01*
X7028991Y-22118031D02*
X7038515Y-22137079D01*
X7038515Y-22137079D02*
X7048039Y-22175174D01*
X7048039Y-22175174D02*
X7048039Y-22222793D01*
X7048039Y-22222793D02*
X7038515Y-22260889D01*
X7038515Y-22260889D02*
X7028991Y-22279936D01*
X7028991Y-22279936D02*
X7019467Y-22289460D01*
X7019467Y-22289460D02*
X7000420Y-22298984D01*
X7000420Y-22298984D02*
X6981372Y-22298984D01*
X6981372Y-22298984D02*
X6962324Y-22289460D01*
X6962324Y-22289460D02*
X6952801Y-22279936D01*
X6952801Y-22279936D02*
X6943277Y-22260889D01*
X6943277Y-22260889D02*
X6933753Y-22222793D01*
X6933753Y-22222793D02*
X6933753Y-22175174D01*
X6933753Y-22175174D02*
X6943277Y-22137079D01*
X6943277Y-22137079D02*
X6952801Y-22118031D01*
X6952801Y-22118031D02*
X6962324Y-22108508D01*
X6962324Y-22108508D02*
X6981372Y-22098984D01*
X7143277Y-22289460D02*
X7143277Y-22298984D01*
X7143277Y-22298984D02*
X7133753Y-22318031D01*
X7133753Y-22318031D02*
X7124229Y-22327555D01*
X7333753Y-22298984D02*
X7219467Y-22298984D01*
X7276610Y-22298984D02*
X7276610Y-22098984D01*
X7276610Y-22098984D02*
X7257562Y-22127555D01*
X7257562Y-22127555D02*
X7238515Y-22146603D01*
X7238515Y-22146603D02*
X7219467Y-22156127D01*
X7514705Y-22098984D02*
X7419467Y-22098984D01*
X7419467Y-22098984D02*
X7409943Y-22194222D01*
X7409943Y-22194222D02*
X7419467Y-22184698D01*
X7419467Y-22184698D02*
X7438515Y-22175174D01*
X7438515Y-22175174D02*
X7486134Y-22175174D01*
X7486134Y-22175174D02*
X7505182Y-22184698D01*
X7505182Y-22184698D02*
X7514705Y-22194222D01*
X7514705Y-22194222D02*
X7524229Y-22213270D01*
X7524229Y-22213270D02*
X7524229Y-22260889D01*
X7524229Y-22260889D02*
X7514705Y-22279936D01*
X7514705Y-22279936D02*
X7505182Y-22289460D01*
X7505182Y-22289460D02*
X7486134Y-22298984D01*
X7486134Y-22298984D02*
X7438515Y-22298984D01*
X7438515Y-22298984D02*
X7419467Y-22289460D01*
X7419467Y-22289460D02*
X7409943Y-22279936D01*
X7648039Y-22098984D02*
X7667086Y-22098984D01*
X7667086Y-22098984D02*
X7686134Y-22108508D01*
X7686134Y-22108508D02*
X7695658Y-22118031D01*
X7695658Y-22118031D02*
X7705182Y-22137079D01*
X7705182Y-22137079D02*
X7714705Y-22175174D01*
X7714705Y-22175174D02*
X7714705Y-22222793D01*
X7714705Y-22222793D02*
X7705182Y-22260889D01*
X7705182Y-22260889D02*
X7695658Y-22279936D01*
X7695658Y-22279936D02*
X7686134Y-22289460D01*
X7686134Y-22289460D02*
X7667086Y-22298984D01*
X7667086Y-22298984D02*
X7648039Y-22298984D01*
X7648039Y-22298984D02*
X7628991Y-22289460D01*
X7628991Y-22289460D02*
X7619467Y-22279936D01*
X7619467Y-22279936D02*
X7609943Y-22260889D01*
X7609943Y-22260889D02*
X7600420Y-22222793D01*
X7600420Y-22222793D02*
X7600420Y-22175174D01*
X7600420Y-22175174D02*
X7609943Y-22137079D01*
X7609943Y-22137079D02*
X7619467Y-22118031D01*
X7619467Y-22118031D02*
X7628991Y-22108508D01*
X7628991Y-22108508D02*
X7648039Y-22098984D01*
X7800420Y-22298984D02*
X7800420Y-22165650D01*
X7800420Y-22184698D02*
X7809943Y-22175174D01*
X7809943Y-22175174D02*
X7828991Y-22165650D01*
X7828991Y-22165650D02*
X7857563Y-22165650D01*
X7857563Y-22165650D02*
X7876610Y-22175174D01*
X7876610Y-22175174D02*
X7886134Y-22194222D01*
X7886134Y-22194222D02*
X7886134Y-22298984D01*
X7886134Y-22194222D02*
X7895658Y-22175174D01*
X7895658Y-22175174D02*
X7914705Y-22165650D01*
X7914705Y-22165650D02*
X7943277Y-22165650D01*
X7943277Y-22165650D02*
X7962324Y-22175174D01*
X7962324Y-22175174D02*
X7971848Y-22194222D01*
X7971848Y-22194222D02*
X7971848Y-22298984D01*
X8067086Y-22298984D02*
X8067086Y-22165650D01*
X8067086Y-22184698D02*
X8076610Y-22175174D01*
X8076610Y-22175174D02*
X8095658Y-22165650D01*
X8095658Y-22165650D02*
X8124229Y-22165650D01*
X8124229Y-22165650D02*
X8143277Y-22175174D01*
X8143277Y-22175174D02*
X8152801Y-22194222D01*
X8152801Y-22194222D02*
X8152801Y-22298984D01*
X8152801Y-22194222D02*
X8162324Y-22175174D01*
X8162324Y-22175174D02*
X8181372Y-22165650D01*
X8181372Y-22165650D02*
X8209943Y-22165650D01*
X8209943Y-22165650D02*
X8228991Y-22175174D01*
X8228991Y-22175174D02*
X8238515Y-22194222D01*
X8238515Y-22194222D02*
X8238515Y-22298984D01*
X8628991Y-22089460D02*
X8457563Y-22346603D01*
X8886134Y-22098984D02*
X8905182Y-22098984D01*
X8905182Y-22098984D02*
X8924229Y-22108508D01*
X8924229Y-22108508D02*
X8933753Y-22118031D01*
X8933753Y-22118031D02*
X8943277Y-22137079D01*
X8943277Y-22137079D02*
X8952801Y-22175174D01*
X8952801Y-22175174D02*
X8952801Y-22222793D01*
X8952801Y-22222793D02*
X8943277Y-22260889D01*
X8943277Y-22260889D02*
X8933753Y-22279936D01*
X8933753Y-22279936D02*
X8924229Y-22289460D01*
X8924229Y-22289460D02*
X8905182Y-22298984D01*
X8905182Y-22298984D02*
X8886134Y-22298984D01*
X8886134Y-22298984D02*
X8867087Y-22289460D01*
X8867087Y-22289460D02*
X8857563Y-22279936D01*
X8857563Y-22279936D02*
X8848039Y-22260889D01*
X8848039Y-22260889D02*
X8838515Y-22222793D01*
X8838515Y-22222793D02*
X8838515Y-22175174D01*
X8838515Y-22175174D02*
X8848039Y-22137079D01*
X8848039Y-22137079D02*
X8857563Y-22118031D01*
X8857563Y-22118031D02*
X8867087Y-22108508D01*
X8867087Y-22108508D02*
X8886134Y-22098984D01*
X9048039Y-22289460D02*
X9048039Y-22298984D01*
X9048039Y-22298984D02*
X9038515Y-22318031D01*
X9038515Y-22318031D02*
X9028991Y-22327555D01*
X9171848Y-22098984D02*
X9190896Y-22098984D01*
X9190896Y-22098984D02*
X9209944Y-22108508D01*
X9209944Y-22108508D02*
X9219468Y-22118031D01*
X9219468Y-22118031D02*
X9228991Y-22137079D01*
X9228991Y-22137079D02*
X9238515Y-22175174D01*
X9238515Y-22175174D02*
X9238515Y-22222793D01*
X9238515Y-22222793D02*
X9228991Y-22260889D01*
X9228991Y-22260889D02*
X9219468Y-22279936D01*
X9219468Y-22279936D02*
X9209944Y-22289460D01*
X9209944Y-22289460D02*
X9190896Y-22298984D01*
X9190896Y-22298984D02*
X9171848Y-22298984D01*
X9171848Y-22298984D02*
X9152801Y-22289460D01*
X9152801Y-22289460D02*
X9143277Y-22279936D01*
X9143277Y-22279936D02*
X9133753Y-22260889D01*
X9133753Y-22260889D02*
X9124229Y-22222793D01*
X9124229Y-22222793D02*
X9124229Y-22175174D01*
X9124229Y-22175174D02*
X9133753Y-22137079D01*
X9133753Y-22137079D02*
X9143277Y-22118031D01*
X9143277Y-22118031D02*
X9152801Y-22108508D01*
X9152801Y-22108508D02*
X9171848Y-22098984D01*
X9362325Y-22098984D02*
X9381372Y-22098984D01*
X9381372Y-22098984D02*
X9400420Y-22108508D01*
X9400420Y-22108508D02*
X9409944Y-22118031D01*
X9409944Y-22118031D02*
X9419468Y-22137079D01*
X9419468Y-22137079D02*
X9428991Y-22175174D01*
X9428991Y-22175174D02*
X9428991Y-22222793D01*
X9428991Y-22222793D02*
X9419468Y-22260889D01*
X9419468Y-22260889D02*
X9409944Y-22279936D01*
X9409944Y-22279936D02*
X9400420Y-22289460D01*
X9400420Y-22289460D02*
X9381372Y-22298984D01*
X9381372Y-22298984D02*
X9362325Y-22298984D01*
X9362325Y-22298984D02*
X9343277Y-22289460D01*
X9343277Y-22289460D02*
X9333753Y-22279936D01*
X9333753Y-22279936D02*
X9324229Y-22260889D01*
X9324229Y-22260889D02*
X9314706Y-22222793D01*
X9314706Y-22222793D02*
X9314706Y-22175174D01*
X9314706Y-22175174D02*
X9324229Y-22137079D01*
X9324229Y-22137079D02*
X9333753Y-22118031D01*
X9333753Y-22118031D02*
X9343277Y-22108508D01*
X9343277Y-22108508D02*
X9362325Y-22098984D01*
X9609944Y-22098984D02*
X9514706Y-22098984D01*
X9514706Y-22098984D02*
X9505182Y-22194222D01*
X9505182Y-22194222D02*
X9514706Y-22184698D01*
X9514706Y-22184698D02*
X9533753Y-22175174D01*
X9533753Y-22175174D02*
X9581372Y-22175174D01*
X9581372Y-22175174D02*
X9600420Y-22184698D01*
X9600420Y-22184698D02*
X9609944Y-22194222D01*
X9609944Y-22194222D02*
X9619468Y-22213270D01*
X9619468Y-22213270D02*
X9619468Y-22260889D01*
X9619468Y-22260889D02*
X9609944Y-22279936D01*
X9609944Y-22279936D02*
X9600420Y-22289460D01*
X9600420Y-22289460D02*
X9581372Y-22298984D01*
X9581372Y-22298984D02*
X9533753Y-22298984D01*
X9533753Y-22298984D02*
X9514706Y-22289460D01*
X9514706Y-22289460D02*
X9505182Y-22279936D01*
X9714706Y-22298984D02*
X9752801Y-22298984D01*
X9752801Y-22298984D02*
X9771849Y-22289460D01*
X9771849Y-22289460D02*
X9781372Y-22279936D01*
X9781372Y-22279936D02*
X9800420Y-22251365D01*
X9800420Y-22251365D02*
X9809944Y-22213270D01*
X9809944Y-22213270D02*
X9809944Y-22137079D01*
X9809944Y-22137079D02*
X9800420Y-22118031D01*
X9800420Y-22118031D02*
X9790896Y-22108508D01*
X9790896Y-22108508D02*
X9771849Y-22098984D01*
X9771849Y-22098984D02*
X9733753Y-22098984D01*
X9733753Y-22098984D02*
X9714706Y-22108508D01*
X9714706Y-22108508D02*
X9705182Y-22118031D01*
X9705182Y-22118031D02*
X9695658Y-22137079D01*
X9695658Y-22137079D02*
X9695658Y-22184698D01*
X9695658Y-22184698D02*
X9705182Y-22203746D01*
X9705182Y-22203746D02*
X9714706Y-22213270D01*
X9714706Y-22213270D02*
X9733753Y-22222793D01*
X9733753Y-22222793D02*
X9771849Y-22222793D01*
X9771849Y-22222793D02*
X9790896Y-22213270D01*
X9790896Y-22213270D02*
X9800420Y-22203746D01*
X9800420Y-22203746D02*
X9809944Y-22184698D01*
X9886134Y-22098984D02*
X9886134Y-22137079D01*
X9962325Y-22098984D02*
X9962325Y-22137079D01*
X10257563Y-22375174D02*
X10248039Y-22365650D01*
X10248039Y-22365650D02*
X10228991Y-22337079D01*
X10228991Y-22337079D02*
X10219468Y-22318031D01*
X10219468Y-22318031D02*
X10209944Y-22289460D01*
X10209944Y-22289460D02*
X10200420Y-22241841D01*
X10200420Y-22241841D02*
X10200420Y-22203746D01*
X10200420Y-22203746D02*
X10209944Y-22156127D01*
X10209944Y-22156127D02*
X10219468Y-22127555D01*
X10219468Y-22127555D02*
X10228991Y-22108508D01*
X10228991Y-22108508D02*
X10248039Y-22079936D01*
X10248039Y-22079936D02*
X10257563Y-22070412D01*
X10343277Y-22298984D02*
X10381372Y-22298984D01*
X10381372Y-22298984D02*
X10400420Y-22289460D01*
X10400420Y-22289460D02*
X10409944Y-22279936D01*
X10409944Y-22279936D02*
X10428991Y-22251365D01*
X10428991Y-22251365D02*
X10438515Y-22213270D01*
X10438515Y-22213270D02*
X10438515Y-22137079D01*
X10438515Y-22137079D02*
X10428991Y-22118031D01*
X10428991Y-22118031D02*
X10419468Y-22108508D01*
X10419468Y-22108508D02*
X10400420Y-22098984D01*
X10400420Y-22098984D02*
X10362325Y-22098984D01*
X10362325Y-22098984D02*
X10343277Y-22108508D01*
X10343277Y-22108508D02*
X10333753Y-22118031D01*
X10333753Y-22118031D02*
X10324230Y-22137079D01*
X10324230Y-22137079D02*
X10324230Y-22184698D01*
X10324230Y-22184698D02*
X10333753Y-22203746D01*
X10333753Y-22203746D02*
X10343277Y-22213270D01*
X10343277Y-22213270D02*
X10362325Y-22222793D01*
X10362325Y-22222793D02*
X10400420Y-22222793D01*
X10400420Y-22222793D02*
X10419468Y-22213270D01*
X10419468Y-22213270D02*
X10428991Y-22203746D01*
X10428991Y-22203746D02*
X10438515Y-22184698D01*
X10533753Y-22298984D02*
X10571849Y-22298984D01*
X10571849Y-22298984D02*
X10590896Y-22289460D01*
X10590896Y-22289460D02*
X10600420Y-22279936D01*
X10600420Y-22279936D02*
X10619468Y-22251365D01*
X10619468Y-22251365D02*
X10628991Y-22213270D01*
X10628991Y-22213270D02*
X10628991Y-22137079D01*
X10628991Y-22137079D02*
X10619468Y-22118031D01*
X10619468Y-22118031D02*
X10609944Y-22108508D01*
X10609944Y-22108508D02*
X10590896Y-22098984D01*
X10590896Y-22098984D02*
X10552801Y-22098984D01*
X10552801Y-22098984D02*
X10533753Y-22108508D01*
X10533753Y-22108508D02*
X10524230Y-22118031D01*
X10524230Y-22118031D02*
X10514706Y-22137079D01*
X10514706Y-22137079D02*
X10514706Y-22184698D01*
X10514706Y-22184698D02*
X10524230Y-22203746D01*
X10524230Y-22203746D02*
X10533753Y-22213270D01*
X10533753Y-22213270D02*
X10552801Y-22222793D01*
X10552801Y-22222793D02*
X10590896Y-22222793D01*
X10590896Y-22222793D02*
X10609944Y-22213270D01*
X10609944Y-22213270D02*
X10619468Y-22203746D01*
X10619468Y-22203746D02*
X10628991Y-22184698D01*
X10867087Y-22298984D02*
X10867087Y-22098984D01*
X10952801Y-22298984D02*
X10952801Y-22194222D01*
X10952801Y-22194222D02*
X10943277Y-22175174D01*
X10943277Y-22175174D02*
X10924230Y-22165650D01*
X10924230Y-22165650D02*
X10895658Y-22165650D01*
X10895658Y-22165650D02*
X10876611Y-22175174D01*
X10876611Y-22175174D02*
X10867087Y-22184698D01*
X11076611Y-22298984D02*
X11057563Y-22289460D01*
X11057563Y-22289460D02*
X11048039Y-22279936D01*
X11048039Y-22279936D02*
X11038515Y-22260889D01*
X11038515Y-22260889D02*
X11038515Y-22203746D01*
X11038515Y-22203746D02*
X11048039Y-22184698D01*
X11048039Y-22184698D02*
X11057563Y-22175174D01*
X11057563Y-22175174D02*
X11076611Y-22165650D01*
X11076611Y-22165650D02*
X11105182Y-22165650D01*
X11105182Y-22165650D02*
X11124230Y-22175174D01*
X11124230Y-22175174D02*
X11133753Y-22184698D01*
X11133753Y-22184698D02*
X11143277Y-22203746D01*
X11143277Y-22203746D02*
X11143277Y-22260889D01*
X11143277Y-22260889D02*
X11133753Y-22279936D01*
X11133753Y-22279936D02*
X11124230Y-22289460D01*
X11124230Y-22289460D02*
X11105182Y-22298984D01*
X11105182Y-22298984D02*
X11076611Y-22298984D01*
X11257563Y-22298984D02*
X11238515Y-22289460D01*
X11238515Y-22289460D02*
X11228991Y-22270412D01*
X11228991Y-22270412D02*
X11228991Y-22098984D01*
X11409944Y-22289460D02*
X11390896Y-22298984D01*
X11390896Y-22298984D02*
X11352801Y-22298984D01*
X11352801Y-22298984D02*
X11333753Y-22289460D01*
X11333753Y-22289460D02*
X11324230Y-22270412D01*
X11324230Y-22270412D02*
X11324230Y-22194222D01*
X11324230Y-22194222D02*
X11333753Y-22175174D01*
X11333753Y-22175174D02*
X11352801Y-22165650D01*
X11352801Y-22165650D02*
X11390896Y-22165650D01*
X11390896Y-22165650D02*
X11409944Y-22175174D01*
X11409944Y-22175174D02*
X11419468Y-22194222D01*
X11419468Y-22194222D02*
X11419468Y-22213270D01*
X11419468Y-22213270D02*
X11324230Y-22232317D01*
X11495658Y-22289460D02*
X11514706Y-22298984D01*
X11514706Y-22298984D02*
X11552801Y-22298984D01*
X11552801Y-22298984D02*
X11571849Y-22289460D01*
X11571849Y-22289460D02*
X11581372Y-22270412D01*
X11581372Y-22270412D02*
X11581372Y-22260889D01*
X11581372Y-22260889D02*
X11571849Y-22241841D01*
X11571849Y-22241841D02*
X11552801Y-22232317D01*
X11552801Y-22232317D02*
X11524230Y-22232317D01*
X11524230Y-22232317D02*
X11505182Y-22222793D01*
X11505182Y-22222793D02*
X11495658Y-22203746D01*
X11495658Y-22203746D02*
X11495658Y-22194222D01*
X11495658Y-22194222D02*
X11505182Y-22175174D01*
X11505182Y-22175174D02*
X11524230Y-22165650D01*
X11524230Y-22165650D02*
X11552801Y-22165650D01*
X11552801Y-22165650D02*
X11571849Y-22175174D01*
X11648039Y-22375174D02*
X11657563Y-22365650D01*
X11657563Y-22365650D02*
X11676611Y-22337079D01*
X11676611Y-22337079D02*
X11686134Y-22318031D01*
X11686134Y-22318031D02*
X11695658Y-22289460D01*
X11695658Y-22289460D02*
X11705182Y-22241841D01*
X11705182Y-22241841D02*
X11705182Y-22203746D01*
X11705182Y-22203746D02*
X11695658Y-22156127D01*
X11695658Y-22156127D02*
X11686134Y-22127555D01*
X11686134Y-22127555D02*
X11676611Y-22108508D01*
X11676611Y-22108508D02*
X11657563Y-22079936D01*
X11657563Y-22079936D02*
X11648039Y-22070412D01*
D12*
X6682500Y-22471500D02*
G75*
G02*
X6657500Y-22471500I-12500J0D01*
G01*
X6657500Y-22471500D02*
G75*
G02*
X6682500Y-22471500I12500J0D01*
G01*
D11*
X6981372Y-22362984D02*
X7000420Y-22362984D01*
X7000420Y-22362984D02*
X7019467Y-22372508D01*
X7019467Y-22372508D02*
X7028991Y-22382031D01*
X7028991Y-22382031D02*
X7038515Y-22401079D01*
X7038515Y-22401079D02*
X7048039Y-22439174D01*
X7048039Y-22439174D02*
X7048039Y-22486793D01*
X7048039Y-22486793D02*
X7038515Y-22524888D01*
X7038515Y-22524888D02*
X7028991Y-22543936D01*
X7028991Y-22543936D02*
X7019467Y-22553460D01*
X7019467Y-22553460D02*
X7000420Y-22562984D01*
X7000420Y-22562984D02*
X6981372Y-22562984D01*
X6981372Y-22562984D02*
X6962324Y-22553460D01*
X6962324Y-22553460D02*
X6952801Y-22543936D01*
X6952801Y-22543936D02*
X6943277Y-22524888D01*
X6943277Y-22524888D02*
X6933753Y-22486793D01*
X6933753Y-22486793D02*
X6933753Y-22439174D01*
X6933753Y-22439174D02*
X6943277Y-22401079D01*
X6943277Y-22401079D02*
X6952801Y-22382031D01*
X6952801Y-22382031D02*
X6962324Y-22372508D01*
X6962324Y-22372508D02*
X6981372Y-22362984D01*
X7143277Y-22553460D02*
X7143277Y-22562984D01*
X7143277Y-22562984D02*
X7133753Y-22582031D01*
X7133753Y-22582031D02*
X7124229Y-22591555D01*
X7219467Y-22382031D02*
X7228991Y-22372508D01*
X7228991Y-22372508D02*
X7248039Y-22362984D01*
X7248039Y-22362984D02*
X7295658Y-22362984D01*
X7295658Y-22362984D02*
X7314705Y-22372508D01*
X7314705Y-22372508D02*
X7324229Y-22382031D01*
X7324229Y-22382031D02*
X7333753Y-22401079D01*
X7333753Y-22401079D02*
X7333753Y-22420127D01*
X7333753Y-22420127D02*
X7324229Y-22448698D01*
X7324229Y-22448698D02*
X7209943Y-22562984D01*
X7209943Y-22562984D02*
X7333753Y-22562984D01*
X7514705Y-22362984D02*
X7419467Y-22362984D01*
X7419467Y-22362984D02*
X7409943Y-22458222D01*
X7409943Y-22458222D02*
X7419467Y-22448698D01*
X7419467Y-22448698D02*
X7438515Y-22439174D01*
X7438515Y-22439174D02*
X7486134Y-22439174D01*
X7486134Y-22439174D02*
X7505182Y-22448698D01*
X7505182Y-22448698D02*
X7514705Y-22458222D01*
X7514705Y-22458222D02*
X7524229Y-22477269D01*
X7524229Y-22477269D02*
X7524229Y-22524888D01*
X7524229Y-22524888D02*
X7514705Y-22543936D01*
X7514705Y-22543936D02*
X7505182Y-22553460D01*
X7505182Y-22553460D02*
X7486134Y-22562984D01*
X7486134Y-22562984D02*
X7438515Y-22562984D01*
X7438515Y-22562984D02*
X7419467Y-22553460D01*
X7419467Y-22553460D02*
X7409943Y-22543936D01*
X7648039Y-22362984D02*
X7667086Y-22362984D01*
X7667086Y-22362984D02*
X7686134Y-22372508D01*
X7686134Y-22372508D02*
X7695658Y-22382031D01*
X7695658Y-22382031D02*
X7705182Y-22401079D01*
X7705182Y-22401079D02*
X7714705Y-22439174D01*
X7714705Y-22439174D02*
X7714705Y-22486793D01*
X7714705Y-22486793D02*
X7705182Y-22524888D01*
X7705182Y-22524888D02*
X7695658Y-22543936D01*
X7695658Y-22543936D02*
X7686134Y-22553460D01*
X7686134Y-22553460D02*
X7667086Y-22562984D01*
X7667086Y-22562984D02*
X7648039Y-22562984D01*
X7648039Y-22562984D02*
X7628991Y-22553460D01*
X7628991Y-22553460D02*
X7619467Y-22543936D01*
X7619467Y-22543936D02*
X7609943Y-22524888D01*
X7609943Y-22524888D02*
X7600420Y-22486793D01*
X7600420Y-22486793D02*
X7600420Y-22439174D01*
X7600420Y-22439174D02*
X7609943Y-22401079D01*
X7609943Y-22401079D02*
X7619467Y-22382031D01*
X7619467Y-22382031D02*
X7628991Y-22372508D01*
X7628991Y-22372508D02*
X7648039Y-22362984D01*
X7800420Y-22562984D02*
X7800420Y-22429650D01*
X7800420Y-22448698D02*
X7809943Y-22439174D01*
X7809943Y-22439174D02*
X7828991Y-22429650D01*
X7828991Y-22429650D02*
X7857563Y-22429650D01*
X7857563Y-22429650D02*
X7876610Y-22439174D01*
X7876610Y-22439174D02*
X7886134Y-22458222D01*
X7886134Y-22458222D02*
X7886134Y-22562984D01*
X7886134Y-22458222D02*
X7895658Y-22439174D01*
X7895658Y-22439174D02*
X7914705Y-22429650D01*
X7914705Y-22429650D02*
X7943277Y-22429650D01*
X7943277Y-22429650D02*
X7962324Y-22439174D01*
X7962324Y-22439174D02*
X7971848Y-22458222D01*
X7971848Y-22458222D02*
X7971848Y-22562984D01*
X8067086Y-22562984D02*
X8067086Y-22429650D01*
X8067086Y-22448698D02*
X8076610Y-22439174D01*
X8076610Y-22439174D02*
X8095658Y-22429650D01*
X8095658Y-22429650D02*
X8124229Y-22429650D01*
X8124229Y-22429650D02*
X8143277Y-22439174D01*
X8143277Y-22439174D02*
X8152801Y-22458222D01*
X8152801Y-22458222D02*
X8152801Y-22562984D01*
X8152801Y-22458222D02*
X8162324Y-22439174D01*
X8162324Y-22439174D02*
X8181372Y-22429650D01*
X8181372Y-22429650D02*
X8209943Y-22429650D01*
X8209943Y-22429650D02*
X8228991Y-22439174D01*
X8228991Y-22439174D02*
X8238515Y-22458222D01*
X8238515Y-22458222D02*
X8238515Y-22562984D01*
X8628991Y-22353460D02*
X8457563Y-22610603D01*
X8886134Y-22362984D02*
X8905182Y-22362984D01*
X8905182Y-22362984D02*
X8924229Y-22372508D01*
X8924229Y-22372508D02*
X8933753Y-22382031D01*
X8933753Y-22382031D02*
X8943277Y-22401079D01*
X8943277Y-22401079D02*
X8952801Y-22439174D01*
X8952801Y-22439174D02*
X8952801Y-22486793D01*
X8952801Y-22486793D02*
X8943277Y-22524888D01*
X8943277Y-22524888D02*
X8933753Y-22543936D01*
X8933753Y-22543936D02*
X8924229Y-22553460D01*
X8924229Y-22553460D02*
X8905182Y-22562984D01*
X8905182Y-22562984D02*
X8886134Y-22562984D01*
X8886134Y-22562984D02*
X8867087Y-22553460D01*
X8867087Y-22553460D02*
X8857563Y-22543936D01*
X8857563Y-22543936D02*
X8848039Y-22524888D01*
X8848039Y-22524888D02*
X8838515Y-22486793D01*
X8838515Y-22486793D02*
X8838515Y-22439174D01*
X8838515Y-22439174D02*
X8848039Y-22401079D01*
X8848039Y-22401079D02*
X8857563Y-22382031D01*
X8857563Y-22382031D02*
X8867087Y-22372508D01*
X8867087Y-22372508D02*
X8886134Y-22362984D01*
X9048039Y-22553460D02*
X9048039Y-22562984D01*
X9048039Y-22562984D02*
X9038515Y-22582031D01*
X9038515Y-22582031D02*
X9028991Y-22591555D01*
X9171848Y-22362984D02*
X9190896Y-22362984D01*
X9190896Y-22362984D02*
X9209944Y-22372508D01*
X9209944Y-22372508D02*
X9219468Y-22382031D01*
X9219468Y-22382031D02*
X9228991Y-22401079D01*
X9228991Y-22401079D02*
X9238515Y-22439174D01*
X9238515Y-22439174D02*
X9238515Y-22486793D01*
X9238515Y-22486793D02*
X9228991Y-22524888D01*
X9228991Y-22524888D02*
X9219468Y-22543936D01*
X9219468Y-22543936D02*
X9209944Y-22553460D01*
X9209944Y-22553460D02*
X9190896Y-22562984D01*
X9190896Y-22562984D02*
X9171848Y-22562984D01*
X9171848Y-22562984D02*
X9152801Y-22553460D01*
X9152801Y-22553460D02*
X9143277Y-22543936D01*
X9143277Y-22543936D02*
X9133753Y-22524888D01*
X9133753Y-22524888D02*
X9124229Y-22486793D01*
X9124229Y-22486793D02*
X9124229Y-22439174D01*
X9124229Y-22439174D02*
X9133753Y-22401079D01*
X9133753Y-22401079D02*
X9143277Y-22382031D01*
X9143277Y-22382031D02*
X9152801Y-22372508D01*
X9152801Y-22372508D02*
X9171848Y-22362984D01*
X9362325Y-22362984D02*
X9381372Y-22362984D01*
X9381372Y-22362984D02*
X9400420Y-22372508D01*
X9400420Y-22372508D02*
X9409944Y-22382031D01*
X9409944Y-22382031D02*
X9419468Y-22401079D01*
X9419468Y-22401079D02*
X9428991Y-22439174D01*
X9428991Y-22439174D02*
X9428991Y-22486793D01*
X9428991Y-22486793D02*
X9419468Y-22524888D01*
X9419468Y-22524888D02*
X9409944Y-22543936D01*
X9409944Y-22543936D02*
X9400420Y-22553460D01*
X9400420Y-22553460D02*
X9381372Y-22562984D01*
X9381372Y-22562984D02*
X9362325Y-22562984D01*
X9362325Y-22562984D02*
X9343277Y-22553460D01*
X9343277Y-22553460D02*
X9333753Y-22543936D01*
X9333753Y-22543936D02*
X9324229Y-22524888D01*
X9324229Y-22524888D02*
X9314706Y-22486793D01*
X9314706Y-22486793D02*
X9314706Y-22439174D01*
X9314706Y-22439174D02*
X9324229Y-22401079D01*
X9324229Y-22401079D02*
X9333753Y-22382031D01*
X9333753Y-22382031D02*
X9343277Y-22372508D01*
X9343277Y-22372508D02*
X9362325Y-22362984D01*
X9524229Y-22562984D02*
X9562325Y-22562984D01*
X9562325Y-22562984D02*
X9581372Y-22553460D01*
X9581372Y-22553460D02*
X9590896Y-22543936D01*
X9590896Y-22543936D02*
X9609944Y-22515365D01*
X9609944Y-22515365D02*
X9619468Y-22477269D01*
X9619468Y-22477269D02*
X9619468Y-22401079D01*
X9619468Y-22401079D02*
X9609944Y-22382031D01*
X9609944Y-22382031D02*
X9600420Y-22372508D01*
X9600420Y-22372508D02*
X9581372Y-22362984D01*
X9581372Y-22362984D02*
X9543277Y-22362984D01*
X9543277Y-22362984D02*
X9524229Y-22372508D01*
X9524229Y-22372508D02*
X9514706Y-22382031D01*
X9514706Y-22382031D02*
X9505182Y-22401079D01*
X9505182Y-22401079D02*
X9505182Y-22448698D01*
X9505182Y-22448698D02*
X9514706Y-22467746D01*
X9514706Y-22467746D02*
X9524229Y-22477269D01*
X9524229Y-22477269D02*
X9543277Y-22486793D01*
X9543277Y-22486793D02*
X9581372Y-22486793D01*
X9581372Y-22486793D02*
X9600420Y-22477269D01*
X9600420Y-22477269D02*
X9609944Y-22467746D01*
X9609944Y-22467746D02*
X9619468Y-22448698D01*
X9733753Y-22448698D02*
X9714706Y-22439174D01*
X9714706Y-22439174D02*
X9705182Y-22429650D01*
X9705182Y-22429650D02*
X9695658Y-22410603D01*
X9695658Y-22410603D02*
X9695658Y-22401079D01*
X9695658Y-22401079D02*
X9705182Y-22382031D01*
X9705182Y-22382031D02*
X9714706Y-22372508D01*
X9714706Y-22372508D02*
X9733753Y-22362984D01*
X9733753Y-22362984D02*
X9771849Y-22362984D01*
X9771849Y-22362984D02*
X9790896Y-22372508D01*
X9790896Y-22372508D02*
X9800420Y-22382031D01*
X9800420Y-22382031D02*
X9809944Y-22401079D01*
X9809944Y-22401079D02*
X9809944Y-22410603D01*
X9809944Y-22410603D02*
X9800420Y-22429650D01*
X9800420Y-22429650D02*
X9790896Y-22439174D01*
X9790896Y-22439174D02*
X9771849Y-22448698D01*
X9771849Y-22448698D02*
X9733753Y-22448698D01*
X9733753Y-22448698D02*
X9714706Y-22458222D01*
X9714706Y-22458222D02*
X9705182Y-22467746D01*
X9705182Y-22467746D02*
X9695658Y-22486793D01*
X9695658Y-22486793D02*
X9695658Y-22524888D01*
X9695658Y-22524888D02*
X9705182Y-22543936D01*
X9705182Y-22543936D02*
X9714706Y-22553460D01*
X9714706Y-22553460D02*
X9733753Y-22562984D01*
X9733753Y-22562984D02*
X9771849Y-22562984D01*
X9771849Y-22562984D02*
X9790896Y-22553460D01*
X9790896Y-22553460D02*
X9800420Y-22543936D01*
X9800420Y-22543936D02*
X9809944Y-22524888D01*
X9809944Y-22524888D02*
X9809944Y-22486793D01*
X9809944Y-22486793D02*
X9800420Y-22467746D01*
X9800420Y-22467746D02*
X9790896Y-22458222D01*
X9790896Y-22458222D02*
X9771849Y-22448698D01*
X9886134Y-22362984D02*
X9886134Y-22401079D01*
X9962325Y-22362984D02*
X9962325Y-22401079D01*
X10257563Y-22639174D02*
X10248039Y-22629650D01*
X10248039Y-22629650D02*
X10228991Y-22601079D01*
X10228991Y-22601079D02*
X10219468Y-22582031D01*
X10219468Y-22582031D02*
X10209944Y-22553460D01*
X10209944Y-22553460D02*
X10200420Y-22505841D01*
X10200420Y-22505841D02*
X10200420Y-22467746D01*
X10200420Y-22467746D02*
X10209944Y-22420127D01*
X10209944Y-22420127D02*
X10219468Y-22391555D01*
X10219468Y-22391555D02*
X10228991Y-22372508D01*
X10228991Y-22372508D02*
X10248039Y-22343936D01*
X10248039Y-22343936D02*
X10257563Y-22334412D01*
X10419468Y-22362984D02*
X10381372Y-22362984D01*
X10381372Y-22362984D02*
X10362325Y-22372508D01*
X10362325Y-22372508D02*
X10352801Y-22382031D01*
X10352801Y-22382031D02*
X10333753Y-22410603D01*
X10333753Y-22410603D02*
X10324230Y-22448698D01*
X10324230Y-22448698D02*
X10324230Y-22524888D01*
X10324230Y-22524888D02*
X10333753Y-22543936D01*
X10333753Y-22543936D02*
X10343277Y-22553460D01*
X10343277Y-22553460D02*
X10362325Y-22562984D01*
X10362325Y-22562984D02*
X10400420Y-22562984D01*
X10400420Y-22562984D02*
X10419468Y-22553460D01*
X10419468Y-22553460D02*
X10428991Y-22543936D01*
X10428991Y-22543936D02*
X10438515Y-22524888D01*
X10438515Y-22524888D02*
X10438515Y-22477269D01*
X10438515Y-22477269D02*
X10428991Y-22458222D01*
X10428991Y-22458222D02*
X10419468Y-22448698D01*
X10419468Y-22448698D02*
X10400420Y-22439174D01*
X10400420Y-22439174D02*
X10362325Y-22439174D01*
X10362325Y-22439174D02*
X10343277Y-22448698D01*
X10343277Y-22448698D02*
X10333753Y-22458222D01*
X10333753Y-22458222D02*
X10324230Y-22477269D01*
X10562325Y-22362984D02*
X10581372Y-22362984D01*
X10581372Y-22362984D02*
X10600420Y-22372508D01*
X10600420Y-22372508D02*
X10609944Y-22382031D01*
X10609944Y-22382031D02*
X10619468Y-22401079D01*
X10619468Y-22401079D02*
X10628991Y-22439174D01*
X10628991Y-22439174D02*
X10628991Y-22486793D01*
X10628991Y-22486793D02*
X10619468Y-22524888D01*
X10619468Y-22524888D02*
X10609944Y-22543936D01*
X10609944Y-22543936D02*
X10600420Y-22553460D01*
X10600420Y-22553460D02*
X10581372Y-22562984D01*
X10581372Y-22562984D02*
X10562325Y-22562984D01*
X10562325Y-22562984D02*
X10543277Y-22553460D01*
X10543277Y-22553460D02*
X10533753Y-22543936D01*
X10533753Y-22543936D02*
X10524230Y-22524888D01*
X10524230Y-22524888D02*
X10514706Y-22486793D01*
X10514706Y-22486793D02*
X10514706Y-22439174D01*
X10514706Y-22439174D02*
X10524230Y-22401079D01*
X10524230Y-22401079D02*
X10533753Y-22382031D01*
X10533753Y-22382031D02*
X10543277Y-22372508D01*
X10543277Y-22372508D02*
X10562325Y-22362984D01*
X10867087Y-22562984D02*
X10867087Y-22362984D01*
X10952801Y-22562984D02*
X10952801Y-22458222D01*
X10952801Y-22458222D02*
X10943277Y-22439174D01*
X10943277Y-22439174D02*
X10924230Y-22429650D01*
X10924230Y-22429650D02*
X10895658Y-22429650D01*
X10895658Y-22429650D02*
X10876611Y-22439174D01*
X10876611Y-22439174D02*
X10867087Y-22448698D01*
X11076611Y-22562984D02*
X11057563Y-22553460D01*
X11057563Y-22553460D02*
X11048039Y-22543936D01*
X11048039Y-22543936D02*
X11038515Y-22524888D01*
X11038515Y-22524888D02*
X11038515Y-22467746D01*
X11038515Y-22467746D02*
X11048039Y-22448698D01*
X11048039Y-22448698D02*
X11057563Y-22439174D01*
X11057563Y-22439174D02*
X11076611Y-22429650D01*
X11076611Y-22429650D02*
X11105182Y-22429650D01*
X11105182Y-22429650D02*
X11124230Y-22439174D01*
X11124230Y-22439174D02*
X11133753Y-22448698D01*
X11133753Y-22448698D02*
X11143277Y-22467746D01*
X11143277Y-22467746D02*
X11143277Y-22524888D01*
X11143277Y-22524888D02*
X11133753Y-22543936D01*
X11133753Y-22543936D02*
X11124230Y-22553460D01*
X11124230Y-22553460D02*
X11105182Y-22562984D01*
X11105182Y-22562984D02*
X11076611Y-22562984D01*
X11257563Y-22562984D02*
X11238515Y-22553460D01*
X11238515Y-22553460D02*
X11228991Y-22534412D01*
X11228991Y-22534412D02*
X11228991Y-22362984D01*
X11409944Y-22553460D02*
X11390896Y-22562984D01*
X11390896Y-22562984D02*
X11352801Y-22562984D01*
X11352801Y-22562984D02*
X11333753Y-22553460D01*
X11333753Y-22553460D02*
X11324230Y-22534412D01*
X11324230Y-22534412D02*
X11324230Y-22458222D01*
X11324230Y-22458222D02*
X11333753Y-22439174D01*
X11333753Y-22439174D02*
X11352801Y-22429650D01*
X11352801Y-22429650D02*
X11390896Y-22429650D01*
X11390896Y-22429650D02*
X11409944Y-22439174D01*
X11409944Y-22439174D02*
X11419468Y-22458222D01*
X11419468Y-22458222D02*
X11419468Y-22477269D01*
X11419468Y-22477269D02*
X11324230Y-22496317D01*
X11495658Y-22553460D02*
X11514706Y-22562984D01*
X11514706Y-22562984D02*
X11552801Y-22562984D01*
X11552801Y-22562984D02*
X11571849Y-22553460D01*
X11571849Y-22553460D02*
X11581372Y-22534412D01*
X11581372Y-22534412D02*
X11581372Y-22524888D01*
X11581372Y-22524888D02*
X11571849Y-22505841D01*
X11571849Y-22505841D02*
X11552801Y-22496317D01*
X11552801Y-22496317D02*
X11524230Y-22496317D01*
X11524230Y-22496317D02*
X11505182Y-22486793D01*
X11505182Y-22486793D02*
X11495658Y-22467746D01*
X11495658Y-22467746D02*
X11495658Y-22458222D01*
X11495658Y-22458222D02*
X11505182Y-22439174D01*
X11505182Y-22439174D02*
X11524230Y-22429650D01*
X11524230Y-22429650D02*
X11552801Y-22429650D01*
X11552801Y-22429650D02*
X11571849Y-22439174D01*
X11648039Y-22639174D02*
X11657563Y-22629650D01*
X11657563Y-22629650D02*
X11676611Y-22601079D01*
X11676611Y-22601079D02*
X11686134Y-22582031D01*
X11686134Y-22582031D02*
X11695658Y-22553460D01*
X11695658Y-22553460D02*
X11705182Y-22505841D01*
X11705182Y-22505841D02*
X11705182Y-22467746D01*
X11705182Y-22467746D02*
X11695658Y-22420127D01*
X11695658Y-22420127D02*
X11686134Y-22391555D01*
X11686134Y-22391555D02*
X11676611Y-22372508D01*
X11676611Y-22372508D02*
X11657563Y-22343936D01*
X11657563Y-22343936D02*
X11648039Y-22334412D01*
D12*
X6667500Y-22720500D02*
X6667500Y-22750500D01*
X6652500Y-22735500D02*
X6682500Y-22735500D01*
D11*
X6981372Y-22626984D02*
X7000420Y-22626984D01*
X7000420Y-22626984D02*
X7019467Y-22636508D01*
X7019467Y-22636508D02*
X7028991Y-22646031D01*
X7028991Y-22646031D02*
X7038515Y-22665079D01*
X7038515Y-22665079D02*
X7048039Y-22703174D01*
X7048039Y-22703174D02*
X7048039Y-22750793D01*
X7048039Y-22750793D02*
X7038515Y-22788888D01*
X7038515Y-22788888D02*
X7028991Y-22807936D01*
X7028991Y-22807936D02*
X7019467Y-22817460D01*
X7019467Y-22817460D02*
X7000420Y-22826984D01*
X7000420Y-22826984D02*
X6981372Y-22826984D01*
X6981372Y-22826984D02*
X6962324Y-22817460D01*
X6962324Y-22817460D02*
X6952801Y-22807936D01*
X6952801Y-22807936D02*
X6943277Y-22788888D01*
X6943277Y-22788888D02*
X6933753Y-22750793D01*
X6933753Y-22750793D02*
X6933753Y-22703174D01*
X6933753Y-22703174D02*
X6943277Y-22665079D01*
X6943277Y-22665079D02*
X6952801Y-22646031D01*
X6952801Y-22646031D02*
X6962324Y-22636508D01*
X6962324Y-22636508D02*
X6981372Y-22626984D01*
X7143277Y-22817460D02*
X7143277Y-22826984D01*
X7143277Y-22826984D02*
X7133753Y-22846031D01*
X7133753Y-22846031D02*
X7124229Y-22855555D01*
X7209943Y-22626984D02*
X7333753Y-22626984D01*
X7333753Y-22626984D02*
X7267086Y-22703174D01*
X7267086Y-22703174D02*
X7295658Y-22703174D01*
X7295658Y-22703174D02*
X7314705Y-22712698D01*
X7314705Y-22712698D02*
X7324229Y-22722222D01*
X7324229Y-22722222D02*
X7333753Y-22741269D01*
X7333753Y-22741269D02*
X7333753Y-22788888D01*
X7333753Y-22788888D02*
X7324229Y-22807936D01*
X7324229Y-22807936D02*
X7314705Y-22817460D01*
X7314705Y-22817460D02*
X7295658Y-22826984D01*
X7295658Y-22826984D02*
X7238515Y-22826984D01*
X7238515Y-22826984D02*
X7219467Y-22817460D01*
X7219467Y-22817460D02*
X7209943Y-22807936D01*
X7457562Y-22626984D02*
X7476610Y-22626984D01*
X7476610Y-22626984D02*
X7495658Y-22636508D01*
X7495658Y-22636508D02*
X7505182Y-22646031D01*
X7505182Y-22646031D02*
X7514705Y-22665079D01*
X7514705Y-22665079D02*
X7524229Y-22703174D01*
X7524229Y-22703174D02*
X7524229Y-22750793D01*
X7524229Y-22750793D02*
X7514705Y-22788888D01*
X7514705Y-22788888D02*
X7505182Y-22807936D01*
X7505182Y-22807936D02*
X7495658Y-22817460D01*
X7495658Y-22817460D02*
X7476610Y-22826984D01*
X7476610Y-22826984D02*
X7457562Y-22826984D01*
X7457562Y-22826984D02*
X7438515Y-22817460D01*
X7438515Y-22817460D02*
X7428991Y-22807936D01*
X7428991Y-22807936D02*
X7419467Y-22788888D01*
X7419467Y-22788888D02*
X7409943Y-22750793D01*
X7409943Y-22750793D02*
X7409943Y-22703174D01*
X7409943Y-22703174D02*
X7419467Y-22665079D01*
X7419467Y-22665079D02*
X7428991Y-22646031D01*
X7428991Y-22646031D02*
X7438515Y-22636508D01*
X7438515Y-22636508D02*
X7457562Y-22626984D01*
X7648039Y-22626984D02*
X7667086Y-22626984D01*
X7667086Y-22626984D02*
X7686134Y-22636508D01*
X7686134Y-22636508D02*
X7695658Y-22646031D01*
X7695658Y-22646031D02*
X7705182Y-22665079D01*
X7705182Y-22665079D02*
X7714705Y-22703174D01*
X7714705Y-22703174D02*
X7714705Y-22750793D01*
X7714705Y-22750793D02*
X7705182Y-22788888D01*
X7705182Y-22788888D02*
X7695658Y-22807936D01*
X7695658Y-22807936D02*
X7686134Y-22817460D01*
X7686134Y-22817460D02*
X7667086Y-22826984D01*
X7667086Y-22826984D02*
X7648039Y-22826984D01*
X7648039Y-22826984D02*
X7628991Y-22817460D01*
X7628991Y-22817460D02*
X7619467Y-22807936D01*
X7619467Y-22807936D02*
X7609943Y-22788888D01*
X7609943Y-22788888D02*
X7600420Y-22750793D01*
X7600420Y-22750793D02*
X7600420Y-22703174D01*
X7600420Y-22703174D02*
X7609943Y-22665079D01*
X7609943Y-22665079D02*
X7619467Y-22646031D01*
X7619467Y-22646031D02*
X7628991Y-22636508D01*
X7628991Y-22636508D02*
X7648039Y-22626984D01*
X7800420Y-22826984D02*
X7800420Y-22693650D01*
X7800420Y-22712698D02*
X7809943Y-22703174D01*
X7809943Y-22703174D02*
X7828991Y-22693650D01*
X7828991Y-22693650D02*
X7857563Y-22693650D01*
X7857563Y-22693650D02*
X7876610Y-22703174D01*
X7876610Y-22703174D02*
X7886134Y-22722222D01*
X7886134Y-22722222D02*
X7886134Y-22826984D01*
X7886134Y-22722222D02*
X7895658Y-22703174D01*
X7895658Y-22703174D02*
X7914705Y-22693650D01*
X7914705Y-22693650D02*
X7943277Y-22693650D01*
X7943277Y-22693650D02*
X7962324Y-22703174D01*
X7962324Y-22703174D02*
X7971848Y-22722222D01*
X7971848Y-22722222D02*
X7971848Y-22826984D01*
X8067086Y-22826984D02*
X8067086Y-22693650D01*
X8067086Y-22712698D02*
X8076610Y-22703174D01*
X8076610Y-22703174D02*
X8095658Y-22693650D01*
X8095658Y-22693650D02*
X8124229Y-22693650D01*
X8124229Y-22693650D02*
X8143277Y-22703174D01*
X8143277Y-22703174D02*
X8152801Y-22722222D01*
X8152801Y-22722222D02*
X8152801Y-22826984D01*
X8152801Y-22722222D02*
X8162324Y-22703174D01*
X8162324Y-22703174D02*
X8181372Y-22693650D01*
X8181372Y-22693650D02*
X8209943Y-22693650D01*
X8209943Y-22693650D02*
X8228991Y-22703174D01*
X8228991Y-22703174D02*
X8238515Y-22722222D01*
X8238515Y-22722222D02*
X8238515Y-22826984D01*
X8628991Y-22617460D02*
X8457563Y-22874603D01*
X8886134Y-22626984D02*
X8905182Y-22626984D01*
X8905182Y-22626984D02*
X8924229Y-22636508D01*
X8924229Y-22636508D02*
X8933753Y-22646031D01*
X8933753Y-22646031D02*
X8943277Y-22665079D01*
X8943277Y-22665079D02*
X8952801Y-22703174D01*
X8952801Y-22703174D02*
X8952801Y-22750793D01*
X8952801Y-22750793D02*
X8943277Y-22788888D01*
X8943277Y-22788888D02*
X8933753Y-22807936D01*
X8933753Y-22807936D02*
X8924229Y-22817460D01*
X8924229Y-22817460D02*
X8905182Y-22826984D01*
X8905182Y-22826984D02*
X8886134Y-22826984D01*
X8886134Y-22826984D02*
X8867087Y-22817460D01*
X8867087Y-22817460D02*
X8857563Y-22807936D01*
X8857563Y-22807936D02*
X8848039Y-22788888D01*
X8848039Y-22788888D02*
X8838515Y-22750793D01*
X8838515Y-22750793D02*
X8838515Y-22703174D01*
X8838515Y-22703174D02*
X8848039Y-22665079D01*
X8848039Y-22665079D02*
X8857563Y-22646031D01*
X8857563Y-22646031D02*
X8867087Y-22636508D01*
X8867087Y-22636508D02*
X8886134Y-22626984D01*
X9048039Y-22817460D02*
X9048039Y-22826984D01*
X9048039Y-22826984D02*
X9038515Y-22846031D01*
X9038515Y-22846031D02*
X9028991Y-22855555D01*
X9171848Y-22626984D02*
X9190896Y-22626984D01*
X9190896Y-22626984D02*
X9209944Y-22636508D01*
X9209944Y-22636508D02*
X9219468Y-22646031D01*
X9219468Y-22646031D02*
X9228991Y-22665079D01*
X9228991Y-22665079D02*
X9238515Y-22703174D01*
X9238515Y-22703174D02*
X9238515Y-22750793D01*
X9238515Y-22750793D02*
X9228991Y-22788888D01*
X9228991Y-22788888D02*
X9219468Y-22807936D01*
X9219468Y-22807936D02*
X9209944Y-22817460D01*
X9209944Y-22817460D02*
X9190896Y-22826984D01*
X9190896Y-22826984D02*
X9171848Y-22826984D01*
X9171848Y-22826984D02*
X9152801Y-22817460D01*
X9152801Y-22817460D02*
X9143277Y-22807936D01*
X9143277Y-22807936D02*
X9133753Y-22788888D01*
X9133753Y-22788888D02*
X9124229Y-22750793D01*
X9124229Y-22750793D02*
X9124229Y-22703174D01*
X9124229Y-22703174D02*
X9133753Y-22665079D01*
X9133753Y-22665079D02*
X9143277Y-22646031D01*
X9143277Y-22646031D02*
X9152801Y-22636508D01*
X9152801Y-22636508D02*
X9171848Y-22626984D01*
X9428991Y-22826984D02*
X9314706Y-22826984D01*
X9371848Y-22826984D02*
X9371848Y-22626984D01*
X9371848Y-22626984D02*
X9352801Y-22655555D01*
X9352801Y-22655555D02*
X9333753Y-22674603D01*
X9333753Y-22674603D02*
X9314706Y-22684127D01*
X9619468Y-22826984D02*
X9505182Y-22826984D01*
X9562325Y-22826984D02*
X9562325Y-22626984D01*
X9562325Y-22626984D02*
X9543277Y-22655555D01*
X9543277Y-22655555D02*
X9524229Y-22674603D01*
X9524229Y-22674603D02*
X9505182Y-22684127D01*
X9733753Y-22712698D02*
X9714706Y-22703174D01*
X9714706Y-22703174D02*
X9705182Y-22693650D01*
X9705182Y-22693650D02*
X9695658Y-22674603D01*
X9695658Y-22674603D02*
X9695658Y-22665079D01*
X9695658Y-22665079D02*
X9705182Y-22646031D01*
X9705182Y-22646031D02*
X9714706Y-22636508D01*
X9714706Y-22636508D02*
X9733753Y-22626984D01*
X9733753Y-22626984D02*
X9771849Y-22626984D01*
X9771849Y-22626984D02*
X9790896Y-22636508D01*
X9790896Y-22636508D02*
X9800420Y-22646031D01*
X9800420Y-22646031D02*
X9809944Y-22665079D01*
X9809944Y-22665079D02*
X9809944Y-22674603D01*
X9809944Y-22674603D02*
X9800420Y-22693650D01*
X9800420Y-22693650D02*
X9790896Y-22703174D01*
X9790896Y-22703174D02*
X9771849Y-22712698D01*
X9771849Y-22712698D02*
X9733753Y-22712698D01*
X9733753Y-22712698D02*
X9714706Y-22722222D01*
X9714706Y-22722222D02*
X9705182Y-22731746D01*
X9705182Y-22731746D02*
X9695658Y-22750793D01*
X9695658Y-22750793D02*
X9695658Y-22788888D01*
X9695658Y-22788888D02*
X9705182Y-22807936D01*
X9705182Y-22807936D02*
X9714706Y-22817460D01*
X9714706Y-22817460D02*
X9733753Y-22826984D01*
X9733753Y-22826984D02*
X9771849Y-22826984D01*
X9771849Y-22826984D02*
X9790896Y-22817460D01*
X9790896Y-22817460D02*
X9800420Y-22807936D01*
X9800420Y-22807936D02*
X9809944Y-22788888D01*
X9809944Y-22788888D02*
X9809944Y-22750793D01*
X9809944Y-22750793D02*
X9800420Y-22731746D01*
X9800420Y-22731746D02*
X9790896Y-22722222D01*
X9790896Y-22722222D02*
X9771849Y-22712698D01*
X9886134Y-22626984D02*
X9886134Y-22665079D01*
X9962325Y-22626984D02*
X9962325Y-22665079D01*
X10257563Y-22903174D02*
X10248039Y-22893650D01*
X10248039Y-22893650D02*
X10228991Y-22865079D01*
X10228991Y-22865079D02*
X10219468Y-22846031D01*
X10219468Y-22846031D02*
X10209944Y-22817460D01*
X10209944Y-22817460D02*
X10200420Y-22769841D01*
X10200420Y-22769841D02*
X10200420Y-22731746D01*
X10200420Y-22731746D02*
X10209944Y-22684127D01*
X10209944Y-22684127D02*
X10219468Y-22655555D01*
X10219468Y-22655555D02*
X10228991Y-22636508D01*
X10228991Y-22636508D02*
X10248039Y-22607936D01*
X10248039Y-22607936D02*
X10257563Y-22598412D01*
X10419468Y-22693650D02*
X10419468Y-22826984D01*
X10371849Y-22617460D02*
X10324230Y-22760317D01*
X10324230Y-22760317D02*
X10448039Y-22760317D01*
X10562325Y-22626984D02*
X10581372Y-22626984D01*
X10581372Y-22626984D02*
X10600420Y-22636508D01*
X10600420Y-22636508D02*
X10609944Y-22646031D01*
X10609944Y-22646031D02*
X10619468Y-22665079D01*
X10619468Y-22665079D02*
X10628991Y-22703174D01*
X10628991Y-22703174D02*
X10628991Y-22750793D01*
X10628991Y-22750793D02*
X10619468Y-22788888D01*
X10619468Y-22788888D02*
X10609944Y-22807936D01*
X10609944Y-22807936D02*
X10600420Y-22817460D01*
X10600420Y-22817460D02*
X10581372Y-22826984D01*
X10581372Y-22826984D02*
X10562325Y-22826984D01*
X10562325Y-22826984D02*
X10543277Y-22817460D01*
X10543277Y-22817460D02*
X10533753Y-22807936D01*
X10533753Y-22807936D02*
X10524230Y-22788888D01*
X10524230Y-22788888D02*
X10514706Y-22750793D01*
X10514706Y-22750793D02*
X10514706Y-22703174D01*
X10514706Y-22703174D02*
X10524230Y-22665079D01*
X10524230Y-22665079D02*
X10533753Y-22646031D01*
X10533753Y-22646031D02*
X10543277Y-22636508D01*
X10543277Y-22636508D02*
X10562325Y-22626984D01*
X10867087Y-22826984D02*
X10867087Y-22626984D01*
X10952801Y-22826984D02*
X10952801Y-22722222D01*
X10952801Y-22722222D02*
X10943277Y-22703174D01*
X10943277Y-22703174D02*
X10924230Y-22693650D01*
X10924230Y-22693650D02*
X10895658Y-22693650D01*
X10895658Y-22693650D02*
X10876611Y-22703174D01*
X10876611Y-22703174D02*
X10867087Y-22712698D01*
X11076611Y-22826984D02*
X11057563Y-22817460D01*
X11057563Y-22817460D02*
X11048039Y-22807936D01*
X11048039Y-22807936D02*
X11038515Y-22788888D01*
X11038515Y-22788888D02*
X11038515Y-22731746D01*
X11038515Y-22731746D02*
X11048039Y-22712698D01*
X11048039Y-22712698D02*
X11057563Y-22703174D01*
X11057563Y-22703174D02*
X11076611Y-22693650D01*
X11076611Y-22693650D02*
X11105182Y-22693650D01*
X11105182Y-22693650D02*
X11124230Y-22703174D01*
X11124230Y-22703174D02*
X11133753Y-22712698D01*
X11133753Y-22712698D02*
X11143277Y-22731746D01*
X11143277Y-22731746D02*
X11143277Y-22788888D01*
X11143277Y-22788888D02*
X11133753Y-22807936D01*
X11133753Y-22807936D02*
X11124230Y-22817460D01*
X11124230Y-22817460D02*
X11105182Y-22826984D01*
X11105182Y-22826984D02*
X11076611Y-22826984D01*
X11257563Y-22826984D02*
X11238515Y-22817460D01*
X11238515Y-22817460D02*
X11228991Y-22798412D01*
X11228991Y-22798412D02*
X11228991Y-22626984D01*
X11409944Y-22817460D02*
X11390896Y-22826984D01*
X11390896Y-22826984D02*
X11352801Y-22826984D01*
X11352801Y-22826984D02*
X11333753Y-22817460D01*
X11333753Y-22817460D02*
X11324230Y-22798412D01*
X11324230Y-22798412D02*
X11324230Y-22722222D01*
X11324230Y-22722222D02*
X11333753Y-22703174D01*
X11333753Y-22703174D02*
X11352801Y-22693650D01*
X11352801Y-22693650D02*
X11390896Y-22693650D01*
X11390896Y-22693650D02*
X11409944Y-22703174D01*
X11409944Y-22703174D02*
X11419468Y-22722222D01*
X11419468Y-22722222D02*
X11419468Y-22741269D01*
X11419468Y-22741269D02*
X11324230Y-22760317D01*
X11495658Y-22817460D02*
X11514706Y-22826984D01*
X11514706Y-22826984D02*
X11552801Y-22826984D01*
X11552801Y-22826984D02*
X11571849Y-22817460D01*
X11571849Y-22817460D02*
X11581372Y-22798412D01*
X11581372Y-22798412D02*
X11581372Y-22788888D01*
X11581372Y-22788888D02*
X11571849Y-22769841D01*
X11571849Y-22769841D02*
X11552801Y-22760317D01*
X11552801Y-22760317D02*
X11524230Y-22760317D01*
X11524230Y-22760317D02*
X11505182Y-22750793D01*
X11505182Y-22750793D02*
X11495658Y-22731746D01*
X11495658Y-22731746D02*
X11495658Y-22722222D01*
X11495658Y-22722222D02*
X11505182Y-22703174D01*
X11505182Y-22703174D02*
X11524230Y-22693650D01*
X11524230Y-22693650D02*
X11552801Y-22693650D01*
X11552801Y-22693650D02*
X11571849Y-22703174D01*
X11648039Y-22903174D02*
X11657563Y-22893650D01*
X11657563Y-22893650D02*
X11676611Y-22865079D01*
X11676611Y-22865079D02*
X11686134Y-22846031D01*
X11686134Y-22846031D02*
X11695658Y-22817460D01*
X11695658Y-22817460D02*
X11705182Y-22769841D01*
X11705182Y-22769841D02*
X11705182Y-22731746D01*
X11705182Y-22731746D02*
X11695658Y-22684127D01*
X11695658Y-22684127D02*
X11686134Y-22655555D01*
X11686134Y-22655555D02*
X11676611Y-22636508D01*
X11676611Y-22636508D02*
X11657563Y-22607936D01*
X11657563Y-22607936D02*
X11648039Y-22598412D01*
D12*
X6675178Y-23017178D02*
X6675178Y-22981822D01*
X6639822Y-22981822D01*
X6639822Y-23017178D01*
X6675178Y-23017178D01*
D11*
X6981372Y-22890984D02*
X7000420Y-22890984D01*
X7000420Y-22890984D02*
X7019467Y-22900508D01*
X7019467Y-22900508D02*
X7028991Y-22910031D01*
X7028991Y-22910031D02*
X7038515Y-22929079D01*
X7038515Y-22929079D02*
X7048039Y-22967174D01*
X7048039Y-22967174D02*
X7048039Y-23014793D01*
X7048039Y-23014793D02*
X7038515Y-23052888D01*
X7038515Y-23052888D02*
X7028991Y-23071936D01*
X7028991Y-23071936D02*
X7019467Y-23081460D01*
X7019467Y-23081460D02*
X7000420Y-23090984D01*
X7000420Y-23090984D02*
X6981372Y-23090984D01*
X6981372Y-23090984D02*
X6962324Y-23081460D01*
X6962324Y-23081460D02*
X6952801Y-23071936D01*
X6952801Y-23071936D02*
X6943277Y-23052888D01*
X6943277Y-23052888D02*
X6933753Y-23014793D01*
X6933753Y-23014793D02*
X6933753Y-22967174D01*
X6933753Y-22967174D02*
X6943277Y-22929079D01*
X6943277Y-22929079D02*
X6952801Y-22910031D01*
X6952801Y-22910031D02*
X6962324Y-22900508D01*
X6962324Y-22900508D02*
X6981372Y-22890984D01*
X7143277Y-23081460D02*
X7143277Y-23090984D01*
X7143277Y-23090984D02*
X7133753Y-23110031D01*
X7133753Y-23110031D02*
X7124229Y-23119555D01*
X7324229Y-22890984D02*
X7228991Y-22890984D01*
X7228991Y-22890984D02*
X7219467Y-22986222D01*
X7219467Y-22986222D02*
X7228991Y-22976698D01*
X7228991Y-22976698D02*
X7248039Y-22967174D01*
X7248039Y-22967174D02*
X7295658Y-22967174D01*
X7295658Y-22967174D02*
X7314705Y-22976698D01*
X7314705Y-22976698D02*
X7324229Y-22986222D01*
X7324229Y-22986222D02*
X7333753Y-23005269D01*
X7333753Y-23005269D02*
X7333753Y-23052888D01*
X7333753Y-23052888D02*
X7324229Y-23071936D01*
X7324229Y-23071936D02*
X7314705Y-23081460D01*
X7314705Y-23081460D02*
X7295658Y-23090984D01*
X7295658Y-23090984D02*
X7248039Y-23090984D01*
X7248039Y-23090984D02*
X7228991Y-23081460D01*
X7228991Y-23081460D02*
X7219467Y-23071936D01*
X7457562Y-22890984D02*
X7476610Y-22890984D01*
X7476610Y-22890984D02*
X7495658Y-22900508D01*
X7495658Y-22900508D02*
X7505182Y-22910031D01*
X7505182Y-22910031D02*
X7514705Y-22929079D01*
X7514705Y-22929079D02*
X7524229Y-22967174D01*
X7524229Y-22967174D02*
X7524229Y-23014793D01*
X7524229Y-23014793D02*
X7514705Y-23052888D01*
X7514705Y-23052888D02*
X7505182Y-23071936D01*
X7505182Y-23071936D02*
X7495658Y-23081460D01*
X7495658Y-23081460D02*
X7476610Y-23090984D01*
X7476610Y-23090984D02*
X7457562Y-23090984D01*
X7457562Y-23090984D02*
X7438515Y-23081460D01*
X7438515Y-23081460D02*
X7428991Y-23071936D01*
X7428991Y-23071936D02*
X7419467Y-23052888D01*
X7419467Y-23052888D02*
X7409943Y-23014793D01*
X7409943Y-23014793D02*
X7409943Y-22967174D01*
X7409943Y-22967174D02*
X7419467Y-22929079D01*
X7419467Y-22929079D02*
X7428991Y-22910031D01*
X7428991Y-22910031D02*
X7438515Y-22900508D01*
X7438515Y-22900508D02*
X7457562Y-22890984D01*
X7648039Y-22890984D02*
X7667086Y-22890984D01*
X7667086Y-22890984D02*
X7686134Y-22900508D01*
X7686134Y-22900508D02*
X7695658Y-22910031D01*
X7695658Y-22910031D02*
X7705182Y-22929079D01*
X7705182Y-22929079D02*
X7714705Y-22967174D01*
X7714705Y-22967174D02*
X7714705Y-23014793D01*
X7714705Y-23014793D02*
X7705182Y-23052888D01*
X7705182Y-23052888D02*
X7695658Y-23071936D01*
X7695658Y-23071936D02*
X7686134Y-23081460D01*
X7686134Y-23081460D02*
X7667086Y-23090984D01*
X7667086Y-23090984D02*
X7648039Y-23090984D01*
X7648039Y-23090984D02*
X7628991Y-23081460D01*
X7628991Y-23081460D02*
X7619467Y-23071936D01*
X7619467Y-23071936D02*
X7609943Y-23052888D01*
X7609943Y-23052888D02*
X7600420Y-23014793D01*
X7600420Y-23014793D02*
X7600420Y-22967174D01*
X7600420Y-22967174D02*
X7609943Y-22929079D01*
X7609943Y-22929079D02*
X7619467Y-22910031D01*
X7619467Y-22910031D02*
X7628991Y-22900508D01*
X7628991Y-22900508D02*
X7648039Y-22890984D01*
X7800420Y-23090984D02*
X7800420Y-22957650D01*
X7800420Y-22976698D02*
X7809943Y-22967174D01*
X7809943Y-22967174D02*
X7828991Y-22957650D01*
X7828991Y-22957650D02*
X7857563Y-22957650D01*
X7857563Y-22957650D02*
X7876610Y-22967174D01*
X7876610Y-22967174D02*
X7886134Y-22986222D01*
X7886134Y-22986222D02*
X7886134Y-23090984D01*
X7886134Y-22986222D02*
X7895658Y-22967174D01*
X7895658Y-22967174D02*
X7914705Y-22957650D01*
X7914705Y-22957650D02*
X7943277Y-22957650D01*
X7943277Y-22957650D02*
X7962324Y-22967174D01*
X7962324Y-22967174D02*
X7971848Y-22986222D01*
X7971848Y-22986222D02*
X7971848Y-23090984D01*
X8067086Y-23090984D02*
X8067086Y-22957650D01*
X8067086Y-22976698D02*
X8076610Y-22967174D01*
X8076610Y-22967174D02*
X8095658Y-22957650D01*
X8095658Y-22957650D02*
X8124229Y-22957650D01*
X8124229Y-22957650D02*
X8143277Y-22967174D01*
X8143277Y-22967174D02*
X8152801Y-22986222D01*
X8152801Y-22986222D02*
X8152801Y-23090984D01*
X8152801Y-22986222D02*
X8162324Y-22967174D01*
X8162324Y-22967174D02*
X8181372Y-22957650D01*
X8181372Y-22957650D02*
X8209943Y-22957650D01*
X8209943Y-22957650D02*
X8228991Y-22967174D01*
X8228991Y-22967174D02*
X8238515Y-22986222D01*
X8238515Y-22986222D02*
X8238515Y-23090984D01*
X8628991Y-22881460D02*
X8457563Y-23138603D01*
X8886134Y-22890984D02*
X8905182Y-22890984D01*
X8905182Y-22890984D02*
X8924229Y-22900508D01*
X8924229Y-22900508D02*
X8933753Y-22910031D01*
X8933753Y-22910031D02*
X8943277Y-22929079D01*
X8943277Y-22929079D02*
X8952801Y-22967174D01*
X8952801Y-22967174D02*
X8952801Y-23014793D01*
X8952801Y-23014793D02*
X8943277Y-23052888D01*
X8943277Y-23052888D02*
X8933753Y-23071936D01*
X8933753Y-23071936D02*
X8924229Y-23081460D01*
X8924229Y-23081460D02*
X8905182Y-23090984D01*
X8905182Y-23090984D02*
X8886134Y-23090984D01*
X8886134Y-23090984D02*
X8867087Y-23081460D01*
X8867087Y-23081460D02*
X8857563Y-23071936D01*
X8857563Y-23071936D02*
X8848039Y-23052888D01*
X8848039Y-23052888D02*
X8838515Y-23014793D01*
X8838515Y-23014793D02*
X8838515Y-22967174D01*
X8838515Y-22967174D02*
X8848039Y-22929079D01*
X8848039Y-22929079D02*
X8857563Y-22910031D01*
X8857563Y-22910031D02*
X8867087Y-22900508D01*
X8867087Y-22900508D02*
X8886134Y-22890984D01*
X9048039Y-23081460D02*
X9048039Y-23090984D01*
X9048039Y-23090984D02*
X9038515Y-23110031D01*
X9038515Y-23110031D02*
X9028991Y-23119555D01*
X9171848Y-22890984D02*
X9190896Y-22890984D01*
X9190896Y-22890984D02*
X9209944Y-22900508D01*
X9209944Y-22900508D02*
X9219468Y-22910031D01*
X9219468Y-22910031D02*
X9228991Y-22929079D01*
X9228991Y-22929079D02*
X9238515Y-22967174D01*
X9238515Y-22967174D02*
X9238515Y-23014793D01*
X9238515Y-23014793D02*
X9228991Y-23052888D01*
X9228991Y-23052888D02*
X9219468Y-23071936D01*
X9219468Y-23071936D02*
X9209944Y-23081460D01*
X9209944Y-23081460D02*
X9190896Y-23090984D01*
X9190896Y-23090984D02*
X9171848Y-23090984D01*
X9171848Y-23090984D02*
X9152801Y-23081460D01*
X9152801Y-23081460D02*
X9143277Y-23071936D01*
X9143277Y-23071936D02*
X9133753Y-23052888D01*
X9133753Y-23052888D02*
X9124229Y-23014793D01*
X9124229Y-23014793D02*
X9124229Y-22967174D01*
X9124229Y-22967174D02*
X9133753Y-22929079D01*
X9133753Y-22929079D02*
X9143277Y-22910031D01*
X9143277Y-22910031D02*
X9152801Y-22900508D01*
X9152801Y-22900508D02*
X9171848Y-22890984D01*
X9428991Y-23090984D02*
X9314706Y-23090984D01*
X9371848Y-23090984D02*
X9371848Y-22890984D01*
X9371848Y-22890984D02*
X9352801Y-22919555D01*
X9352801Y-22919555D02*
X9333753Y-22938603D01*
X9333753Y-22938603D02*
X9314706Y-22948127D01*
X9524229Y-23090984D02*
X9562325Y-23090984D01*
X9562325Y-23090984D02*
X9581372Y-23081460D01*
X9581372Y-23081460D02*
X9590896Y-23071936D01*
X9590896Y-23071936D02*
X9609944Y-23043365D01*
X9609944Y-23043365D02*
X9619468Y-23005269D01*
X9619468Y-23005269D02*
X9619468Y-22929079D01*
X9619468Y-22929079D02*
X9609944Y-22910031D01*
X9609944Y-22910031D02*
X9600420Y-22900508D01*
X9600420Y-22900508D02*
X9581372Y-22890984D01*
X9581372Y-22890984D02*
X9543277Y-22890984D01*
X9543277Y-22890984D02*
X9524229Y-22900508D01*
X9524229Y-22900508D02*
X9514706Y-22910031D01*
X9514706Y-22910031D02*
X9505182Y-22929079D01*
X9505182Y-22929079D02*
X9505182Y-22976698D01*
X9505182Y-22976698D02*
X9514706Y-22995746D01*
X9514706Y-22995746D02*
X9524229Y-23005269D01*
X9524229Y-23005269D02*
X9543277Y-23014793D01*
X9543277Y-23014793D02*
X9581372Y-23014793D01*
X9581372Y-23014793D02*
X9600420Y-23005269D01*
X9600420Y-23005269D02*
X9609944Y-22995746D01*
X9609944Y-22995746D02*
X9619468Y-22976698D01*
X9686134Y-22890984D02*
X9819468Y-22890984D01*
X9819468Y-22890984D02*
X9733753Y-23090984D01*
X9886134Y-22890984D02*
X9886134Y-22929079D01*
X9962325Y-22890984D02*
X9962325Y-22929079D01*
X10257563Y-23167174D02*
X10248039Y-23157650D01*
X10248039Y-23157650D02*
X10228991Y-23129079D01*
X10228991Y-23129079D02*
X10219468Y-23110031D01*
X10219468Y-23110031D02*
X10209944Y-23081460D01*
X10209944Y-23081460D02*
X10200420Y-23033841D01*
X10200420Y-23033841D02*
X10200420Y-22995746D01*
X10200420Y-22995746D02*
X10209944Y-22948127D01*
X10209944Y-22948127D02*
X10219468Y-22919555D01*
X10219468Y-22919555D02*
X10228991Y-22900508D01*
X10228991Y-22900508D02*
X10248039Y-22871936D01*
X10248039Y-22871936D02*
X10257563Y-22862412D01*
X10371849Y-22890984D02*
X10390896Y-22890984D01*
X10390896Y-22890984D02*
X10409944Y-22900508D01*
X10409944Y-22900508D02*
X10419468Y-22910031D01*
X10419468Y-22910031D02*
X10428991Y-22929079D01*
X10428991Y-22929079D02*
X10438515Y-22967174D01*
X10438515Y-22967174D02*
X10438515Y-23014793D01*
X10438515Y-23014793D02*
X10428991Y-23052888D01*
X10428991Y-23052888D02*
X10419468Y-23071936D01*
X10419468Y-23071936D02*
X10409944Y-23081460D01*
X10409944Y-23081460D02*
X10390896Y-23090984D01*
X10390896Y-23090984D02*
X10371849Y-23090984D01*
X10371849Y-23090984D02*
X10352801Y-23081460D01*
X10352801Y-23081460D02*
X10343277Y-23071936D01*
X10343277Y-23071936D02*
X10333753Y-23052888D01*
X10333753Y-23052888D02*
X10324230Y-23014793D01*
X10324230Y-23014793D02*
X10324230Y-22967174D01*
X10324230Y-22967174D02*
X10333753Y-22929079D01*
X10333753Y-22929079D02*
X10343277Y-22910031D01*
X10343277Y-22910031D02*
X10352801Y-22900508D01*
X10352801Y-22900508D02*
X10371849Y-22890984D01*
X10676611Y-23090984D02*
X10676611Y-22890984D01*
X10762325Y-23090984D02*
X10762325Y-22986222D01*
X10762325Y-22986222D02*
X10752801Y-22967174D01*
X10752801Y-22967174D02*
X10733753Y-22957650D01*
X10733753Y-22957650D02*
X10705182Y-22957650D01*
X10705182Y-22957650D02*
X10686134Y-22967174D01*
X10686134Y-22967174D02*
X10676611Y-22976698D01*
X10886134Y-23090984D02*
X10867087Y-23081460D01*
X10867087Y-23081460D02*
X10857563Y-23071936D01*
X10857563Y-23071936D02*
X10848039Y-23052888D01*
X10848039Y-23052888D02*
X10848039Y-22995746D01*
X10848039Y-22995746D02*
X10857563Y-22976698D01*
X10857563Y-22976698D02*
X10867087Y-22967174D01*
X10867087Y-22967174D02*
X10886134Y-22957650D01*
X10886134Y-22957650D02*
X10914706Y-22957650D01*
X10914706Y-22957650D02*
X10933753Y-22967174D01*
X10933753Y-22967174D02*
X10943277Y-22976698D01*
X10943277Y-22976698D02*
X10952801Y-22995746D01*
X10952801Y-22995746D02*
X10952801Y-23052888D01*
X10952801Y-23052888D02*
X10943277Y-23071936D01*
X10943277Y-23071936D02*
X10933753Y-23081460D01*
X10933753Y-23081460D02*
X10914706Y-23090984D01*
X10914706Y-23090984D02*
X10886134Y-23090984D01*
X11067087Y-23090984D02*
X11048039Y-23081460D01*
X11048039Y-23081460D02*
X11038515Y-23062412D01*
X11038515Y-23062412D02*
X11038515Y-22890984D01*
X11219468Y-23081460D02*
X11200420Y-23090984D01*
X11200420Y-23090984D02*
X11162325Y-23090984D01*
X11162325Y-23090984D02*
X11143277Y-23081460D01*
X11143277Y-23081460D02*
X11133753Y-23062412D01*
X11133753Y-23062412D02*
X11133753Y-22986222D01*
X11133753Y-22986222D02*
X11143277Y-22967174D01*
X11143277Y-22967174D02*
X11162325Y-22957650D01*
X11162325Y-22957650D02*
X11200420Y-22957650D01*
X11200420Y-22957650D02*
X11219468Y-22967174D01*
X11219468Y-22967174D02*
X11228991Y-22986222D01*
X11228991Y-22986222D02*
X11228991Y-23005269D01*
X11228991Y-23005269D02*
X11133753Y-23024317D01*
X11305182Y-23081460D02*
X11324230Y-23090984D01*
X11324230Y-23090984D02*
X11362325Y-23090984D01*
X11362325Y-23090984D02*
X11381372Y-23081460D01*
X11381372Y-23081460D02*
X11390896Y-23062412D01*
X11390896Y-23062412D02*
X11390896Y-23052888D01*
X11390896Y-23052888D02*
X11381372Y-23033841D01*
X11381372Y-23033841D02*
X11362325Y-23024317D01*
X11362325Y-23024317D02*
X11333753Y-23024317D01*
X11333753Y-23024317D02*
X11314706Y-23014793D01*
X11314706Y-23014793D02*
X11305182Y-22995746D01*
X11305182Y-22995746D02*
X11305182Y-22986222D01*
X11305182Y-22986222D02*
X11314706Y-22967174D01*
X11314706Y-22967174D02*
X11333753Y-22957650D01*
X11333753Y-22957650D02*
X11362325Y-22957650D01*
X11362325Y-22957650D02*
X11381372Y-22967174D01*
X11628992Y-23014793D02*
X11781373Y-23014793D01*
X11705182Y-23090984D02*
X11705182Y-22938603D01*
X12114706Y-22957650D02*
X12114706Y-23090984D01*
X12067087Y-22881460D02*
X12019468Y-23024317D01*
X12019468Y-23024317D02*
X12143277Y-23024317D01*
X12362325Y-23081460D02*
X12381373Y-23090984D01*
X12381373Y-23090984D02*
X12419468Y-23090984D01*
X12419468Y-23090984D02*
X12438515Y-23081460D01*
X12438515Y-23081460D02*
X12448039Y-23062412D01*
X12448039Y-23062412D02*
X12448039Y-23052888D01*
X12448039Y-23052888D02*
X12438515Y-23033841D01*
X12438515Y-23033841D02*
X12419468Y-23024317D01*
X12419468Y-23024317D02*
X12390896Y-23024317D01*
X12390896Y-23024317D02*
X12371849Y-23014793D01*
X12371849Y-23014793D02*
X12362325Y-22995746D01*
X12362325Y-22995746D02*
X12362325Y-22986222D01*
X12362325Y-22986222D02*
X12371849Y-22967174D01*
X12371849Y-22967174D02*
X12390896Y-22957650D01*
X12390896Y-22957650D02*
X12419468Y-22957650D01*
X12419468Y-22957650D02*
X12438515Y-22967174D01*
X12562325Y-23090984D02*
X12543277Y-23081460D01*
X12543277Y-23081460D02*
X12533754Y-23062412D01*
X12533754Y-23062412D02*
X12533754Y-22890984D01*
X12667087Y-23090984D02*
X12648039Y-23081460D01*
X12648039Y-23081460D02*
X12638515Y-23071936D01*
X12638515Y-23071936D02*
X12628992Y-23052888D01*
X12628992Y-23052888D02*
X12628992Y-22995746D01*
X12628992Y-22995746D02*
X12638515Y-22976698D01*
X12638515Y-22976698D02*
X12648039Y-22967174D01*
X12648039Y-22967174D02*
X12667087Y-22957650D01*
X12667087Y-22957650D02*
X12695658Y-22957650D01*
X12695658Y-22957650D02*
X12714706Y-22967174D01*
X12714706Y-22967174D02*
X12724230Y-22976698D01*
X12724230Y-22976698D02*
X12733754Y-22995746D01*
X12733754Y-22995746D02*
X12733754Y-23052888D01*
X12733754Y-23052888D02*
X12724230Y-23071936D01*
X12724230Y-23071936D02*
X12714706Y-23081460D01*
X12714706Y-23081460D02*
X12695658Y-23090984D01*
X12695658Y-23090984D02*
X12667087Y-23090984D01*
X12790896Y-22957650D02*
X12867087Y-22957650D01*
X12819468Y-22890984D02*
X12819468Y-23062412D01*
X12819468Y-23062412D02*
X12828992Y-23081460D01*
X12828992Y-23081460D02*
X12848039Y-23090984D01*
X12848039Y-23090984D02*
X12867087Y-23090984D01*
X12924230Y-23081460D02*
X12943277Y-23090984D01*
X12943277Y-23090984D02*
X12981373Y-23090984D01*
X12981373Y-23090984D02*
X13000420Y-23081460D01*
X13000420Y-23081460D02*
X13009944Y-23062412D01*
X13009944Y-23062412D02*
X13009944Y-23052888D01*
X13009944Y-23052888D02*
X13000420Y-23033841D01*
X13000420Y-23033841D02*
X12981373Y-23024317D01*
X12981373Y-23024317D02*
X12952801Y-23024317D01*
X12952801Y-23024317D02*
X12933754Y-23014793D01*
X12933754Y-23014793D02*
X12924230Y-22995746D01*
X12924230Y-22995746D02*
X12924230Y-22986222D01*
X12924230Y-22986222D02*
X12933754Y-22967174D01*
X12933754Y-22967174D02*
X12952801Y-22957650D01*
X12952801Y-22957650D02*
X12981373Y-22957650D01*
X12981373Y-22957650D02*
X13000420Y-22967174D01*
X13076611Y-23167174D02*
X13086135Y-23157650D01*
X13086135Y-23157650D02*
X13105182Y-23129079D01*
X13105182Y-23129079D02*
X13114706Y-23110031D01*
X13114706Y-23110031D02*
X13124230Y-23081460D01*
X13124230Y-23081460D02*
X13133754Y-23033841D01*
X13133754Y-23033841D02*
X13133754Y-22995746D01*
X13133754Y-22995746D02*
X13124230Y-22948127D01*
X13124230Y-22948127D02*
X13114706Y-22919555D01*
X13114706Y-22919555D02*
X13105182Y-22900508D01*
X13105182Y-22900508D02*
X13086135Y-22871936D01*
X13086135Y-22871936D02*
X13076611Y-22862412D01*
D12*
X6632500Y-23313500D02*
X6682500Y-23263500D01*
X6632500Y-23213500D01*
X6582500Y-23263500D01*
X6632500Y-23313500D01*
D11*
X7048039Y-23354984D02*
X6933753Y-23354984D01*
X6990896Y-23354984D02*
X6990896Y-23154984D01*
X6990896Y-23154984D02*
X6971848Y-23183555D01*
X6971848Y-23183555D02*
X6952801Y-23202603D01*
X6952801Y-23202603D02*
X6933753Y-23212127D01*
X7143277Y-23345460D02*
X7143277Y-23354984D01*
X7143277Y-23354984D02*
X7133753Y-23374031D01*
X7133753Y-23374031D02*
X7124229Y-23383555D01*
X7267086Y-23154984D02*
X7286134Y-23154984D01*
X7286134Y-23154984D02*
X7305182Y-23164508D01*
X7305182Y-23164508D02*
X7314705Y-23174031D01*
X7314705Y-23174031D02*
X7324229Y-23193079D01*
X7324229Y-23193079D02*
X7333753Y-23231174D01*
X7333753Y-23231174D02*
X7333753Y-23278793D01*
X7333753Y-23278793D02*
X7324229Y-23316888D01*
X7324229Y-23316888D02*
X7314705Y-23335936D01*
X7314705Y-23335936D02*
X7305182Y-23345460D01*
X7305182Y-23345460D02*
X7286134Y-23354984D01*
X7286134Y-23354984D02*
X7267086Y-23354984D01*
X7267086Y-23354984D02*
X7248039Y-23345460D01*
X7248039Y-23345460D02*
X7238515Y-23335936D01*
X7238515Y-23335936D02*
X7228991Y-23316888D01*
X7228991Y-23316888D02*
X7219467Y-23278793D01*
X7219467Y-23278793D02*
X7219467Y-23231174D01*
X7219467Y-23231174D02*
X7228991Y-23193079D01*
X7228991Y-23193079D02*
X7238515Y-23174031D01*
X7238515Y-23174031D02*
X7248039Y-23164508D01*
X7248039Y-23164508D02*
X7267086Y-23154984D01*
X7457562Y-23154984D02*
X7476610Y-23154984D01*
X7476610Y-23154984D02*
X7495658Y-23164508D01*
X7495658Y-23164508D02*
X7505182Y-23174031D01*
X7505182Y-23174031D02*
X7514705Y-23193079D01*
X7514705Y-23193079D02*
X7524229Y-23231174D01*
X7524229Y-23231174D02*
X7524229Y-23278793D01*
X7524229Y-23278793D02*
X7514705Y-23316888D01*
X7514705Y-23316888D02*
X7505182Y-23335936D01*
X7505182Y-23335936D02*
X7495658Y-23345460D01*
X7495658Y-23345460D02*
X7476610Y-23354984D01*
X7476610Y-23354984D02*
X7457562Y-23354984D01*
X7457562Y-23354984D02*
X7438515Y-23345460D01*
X7438515Y-23345460D02*
X7428991Y-23335936D01*
X7428991Y-23335936D02*
X7419467Y-23316888D01*
X7419467Y-23316888D02*
X7409943Y-23278793D01*
X7409943Y-23278793D02*
X7409943Y-23231174D01*
X7409943Y-23231174D02*
X7419467Y-23193079D01*
X7419467Y-23193079D02*
X7428991Y-23174031D01*
X7428991Y-23174031D02*
X7438515Y-23164508D01*
X7438515Y-23164508D02*
X7457562Y-23154984D01*
X7648039Y-23154984D02*
X7667086Y-23154984D01*
X7667086Y-23154984D02*
X7686134Y-23164508D01*
X7686134Y-23164508D02*
X7695658Y-23174031D01*
X7695658Y-23174031D02*
X7705182Y-23193079D01*
X7705182Y-23193079D02*
X7714705Y-23231174D01*
X7714705Y-23231174D02*
X7714705Y-23278793D01*
X7714705Y-23278793D02*
X7705182Y-23316888D01*
X7705182Y-23316888D02*
X7695658Y-23335936D01*
X7695658Y-23335936D02*
X7686134Y-23345460D01*
X7686134Y-23345460D02*
X7667086Y-23354984D01*
X7667086Y-23354984D02*
X7648039Y-23354984D01*
X7648039Y-23354984D02*
X7628991Y-23345460D01*
X7628991Y-23345460D02*
X7619467Y-23335936D01*
X7619467Y-23335936D02*
X7609943Y-23316888D01*
X7609943Y-23316888D02*
X7600420Y-23278793D01*
X7600420Y-23278793D02*
X7600420Y-23231174D01*
X7600420Y-23231174D02*
X7609943Y-23193079D01*
X7609943Y-23193079D02*
X7619467Y-23174031D01*
X7619467Y-23174031D02*
X7628991Y-23164508D01*
X7628991Y-23164508D02*
X7648039Y-23154984D01*
X7800420Y-23354984D02*
X7800420Y-23221650D01*
X7800420Y-23240698D02*
X7809943Y-23231174D01*
X7809943Y-23231174D02*
X7828991Y-23221650D01*
X7828991Y-23221650D02*
X7857563Y-23221650D01*
X7857563Y-23221650D02*
X7876610Y-23231174D01*
X7876610Y-23231174D02*
X7886134Y-23250222D01*
X7886134Y-23250222D02*
X7886134Y-23354984D01*
X7886134Y-23250222D02*
X7895658Y-23231174D01*
X7895658Y-23231174D02*
X7914705Y-23221650D01*
X7914705Y-23221650D02*
X7943277Y-23221650D01*
X7943277Y-23221650D02*
X7962324Y-23231174D01*
X7962324Y-23231174D02*
X7971848Y-23250222D01*
X7971848Y-23250222D02*
X7971848Y-23354984D01*
X8067086Y-23354984D02*
X8067086Y-23221650D01*
X8067086Y-23240698D02*
X8076610Y-23231174D01*
X8076610Y-23231174D02*
X8095658Y-23221650D01*
X8095658Y-23221650D02*
X8124229Y-23221650D01*
X8124229Y-23221650D02*
X8143277Y-23231174D01*
X8143277Y-23231174D02*
X8152801Y-23250222D01*
X8152801Y-23250222D02*
X8152801Y-23354984D01*
X8152801Y-23250222D02*
X8162324Y-23231174D01*
X8162324Y-23231174D02*
X8181372Y-23221650D01*
X8181372Y-23221650D02*
X8209943Y-23221650D01*
X8209943Y-23221650D02*
X8228991Y-23231174D01*
X8228991Y-23231174D02*
X8238515Y-23250222D01*
X8238515Y-23250222D02*
X8238515Y-23354984D01*
X8628991Y-23145460D02*
X8457563Y-23402603D01*
X8886134Y-23154984D02*
X8905182Y-23154984D01*
X8905182Y-23154984D02*
X8924229Y-23164508D01*
X8924229Y-23164508D02*
X8933753Y-23174031D01*
X8933753Y-23174031D02*
X8943277Y-23193079D01*
X8943277Y-23193079D02*
X8952801Y-23231174D01*
X8952801Y-23231174D02*
X8952801Y-23278793D01*
X8952801Y-23278793D02*
X8943277Y-23316888D01*
X8943277Y-23316888D02*
X8933753Y-23335936D01*
X8933753Y-23335936D02*
X8924229Y-23345460D01*
X8924229Y-23345460D02*
X8905182Y-23354984D01*
X8905182Y-23354984D02*
X8886134Y-23354984D01*
X8886134Y-23354984D02*
X8867087Y-23345460D01*
X8867087Y-23345460D02*
X8857563Y-23335936D01*
X8857563Y-23335936D02*
X8848039Y-23316888D01*
X8848039Y-23316888D02*
X8838515Y-23278793D01*
X8838515Y-23278793D02*
X8838515Y-23231174D01*
X8838515Y-23231174D02*
X8848039Y-23193079D01*
X8848039Y-23193079D02*
X8857563Y-23174031D01*
X8857563Y-23174031D02*
X8867087Y-23164508D01*
X8867087Y-23164508D02*
X8886134Y-23154984D01*
X9048039Y-23345460D02*
X9048039Y-23354984D01*
X9048039Y-23354984D02*
X9038515Y-23374031D01*
X9038515Y-23374031D02*
X9028991Y-23383555D01*
X9171848Y-23154984D02*
X9190896Y-23154984D01*
X9190896Y-23154984D02*
X9209944Y-23164508D01*
X9209944Y-23164508D02*
X9219468Y-23174031D01*
X9219468Y-23174031D02*
X9228991Y-23193079D01*
X9228991Y-23193079D02*
X9238515Y-23231174D01*
X9238515Y-23231174D02*
X9238515Y-23278793D01*
X9238515Y-23278793D02*
X9228991Y-23316888D01*
X9228991Y-23316888D02*
X9219468Y-23335936D01*
X9219468Y-23335936D02*
X9209944Y-23345460D01*
X9209944Y-23345460D02*
X9190896Y-23354984D01*
X9190896Y-23354984D02*
X9171848Y-23354984D01*
X9171848Y-23354984D02*
X9152801Y-23345460D01*
X9152801Y-23345460D02*
X9143277Y-23335936D01*
X9143277Y-23335936D02*
X9133753Y-23316888D01*
X9133753Y-23316888D02*
X9124229Y-23278793D01*
X9124229Y-23278793D02*
X9124229Y-23231174D01*
X9124229Y-23231174D02*
X9133753Y-23193079D01*
X9133753Y-23193079D02*
X9143277Y-23174031D01*
X9143277Y-23174031D02*
X9152801Y-23164508D01*
X9152801Y-23164508D02*
X9171848Y-23154984D01*
X9305182Y-23154984D02*
X9428991Y-23154984D01*
X9428991Y-23154984D02*
X9362325Y-23231174D01*
X9362325Y-23231174D02*
X9390896Y-23231174D01*
X9390896Y-23231174D02*
X9409944Y-23240698D01*
X9409944Y-23240698D02*
X9419468Y-23250222D01*
X9419468Y-23250222D02*
X9428991Y-23269269D01*
X9428991Y-23269269D02*
X9428991Y-23316888D01*
X9428991Y-23316888D02*
X9419468Y-23335936D01*
X9419468Y-23335936D02*
X9409944Y-23345460D01*
X9409944Y-23345460D02*
X9390896Y-23354984D01*
X9390896Y-23354984D02*
X9333753Y-23354984D01*
X9333753Y-23354984D02*
X9314706Y-23345460D01*
X9314706Y-23345460D02*
X9305182Y-23335936D01*
X9524229Y-23354984D02*
X9562325Y-23354984D01*
X9562325Y-23354984D02*
X9581372Y-23345460D01*
X9581372Y-23345460D02*
X9590896Y-23335936D01*
X9590896Y-23335936D02*
X9609944Y-23307365D01*
X9609944Y-23307365D02*
X9619468Y-23269269D01*
X9619468Y-23269269D02*
X9619468Y-23193079D01*
X9619468Y-23193079D02*
X9609944Y-23174031D01*
X9609944Y-23174031D02*
X9600420Y-23164508D01*
X9600420Y-23164508D02*
X9581372Y-23154984D01*
X9581372Y-23154984D02*
X9543277Y-23154984D01*
X9543277Y-23154984D02*
X9524229Y-23164508D01*
X9524229Y-23164508D02*
X9514706Y-23174031D01*
X9514706Y-23174031D02*
X9505182Y-23193079D01*
X9505182Y-23193079D02*
X9505182Y-23240698D01*
X9505182Y-23240698D02*
X9514706Y-23259746D01*
X9514706Y-23259746D02*
X9524229Y-23269269D01*
X9524229Y-23269269D02*
X9543277Y-23278793D01*
X9543277Y-23278793D02*
X9581372Y-23278793D01*
X9581372Y-23278793D02*
X9600420Y-23269269D01*
X9600420Y-23269269D02*
X9609944Y-23259746D01*
X9609944Y-23259746D02*
X9619468Y-23240698D01*
X9790896Y-23221650D02*
X9790896Y-23354984D01*
X9743277Y-23145460D02*
X9695658Y-23288317D01*
X9695658Y-23288317D02*
X9819468Y-23288317D01*
X9886134Y-23154984D02*
X9886134Y-23193079D01*
X9962325Y-23154984D02*
X9962325Y-23193079D01*
X10257563Y-23431174D02*
X10248039Y-23421650D01*
X10248039Y-23421650D02*
X10228991Y-23393079D01*
X10228991Y-23393079D02*
X10219468Y-23374031D01*
X10219468Y-23374031D02*
X10209944Y-23345460D01*
X10209944Y-23345460D02*
X10200420Y-23297841D01*
X10200420Y-23297841D02*
X10200420Y-23259746D01*
X10200420Y-23259746D02*
X10209944Y-23212127D01*
X10209944Y-23212127D02*
X10219468Y-23183555D01*
X10219468Y-23183555D02*
X10228991Y-23164508D01*
X10228991Y-23164508D02*
X10248039Y-23135936D01*
X10248039Y-23135936D02*
X10257563Y-23126412D01*
X10428991Y-23154984D02*
X10333753Y-23154984D01*
X10333753Y-23154984D02*
X10324230Y-23250222D01*
X10324230Y-23250222D02*
X10333753Y-23240698D01*
X10333753Y-23240698D02*
X10352801Y-23231174D01*
X10352801Y-23231174D02*
X10400420Y-23231174D01*
X10400420Y-23231174D02*
X10419468Y-23240698D01*
X10419468Y-23240698D02*
X10428991Y-23250222D01*
X10428991Y-23250222D02*
X10438515Y-23269269D01*
X10438515Y-23269269D02*
X10438515Y-23316888D01*
X10438515Y-23316888D02*
X10428991Y-23335936D01*
X10428991Y-23335936D02*
X10419468Y-23345460D01*
X10419468Y-23345460D02*
X10400420Y-23354984D01*
X10400420Y-23354984D02*
X10352801Y-23354984D01*
X10352801Y-23354984D02*
X10333753Y-23345460D01*
X10333753Y-23345460D02*
X10324230Y-23335936D01*
X10533753Y-23354984D02*
X10571849Y-23354984D01*
X10571849Y-23354984D02*
X10590896Y-23345460D01*
X10590896Y-23345460D02*
X10600420Y-23335936D01*
X10600420Y-23335936D02*
X10619468Y-23307365D01*
X10619468Y-23307365D02*
X10628991Y-23269269D01*
X10628991Y-23269269D02*
X10628991Y-23193079D01*
X10628991Y-23193079D02*
X10619468Y-23174031D01*
X10619468Y-23174031D02*
X10609944Y-23164508D01*
X10609944Y-23164508D02*
X10590896Y-23154984D01*
X10590896Y-23154984D02*
X10552801Y-23154984D01*
X10552801Y-23154984D02*
X10533753Y-23164508D01*
X10533753Y-23164508D02*
X10524230Y-23174031D01*
X10524230Y-23174031D02*
X10514706Y-23193079D01*
X10514706Y-23193079D02*
X10514706Y-23240698D01*
X10514706Y-23240698D02*
X10524230Y-23259746D01*
X10524230Y-23259746D02*
X10533753Y-23269269D01*
X10533753Y-23269269D02*
X10552801Y-23278793D01*
X10552801Y-23278793D02*
X10590896Y-23278793D01*
X10590896Y-23278793D02*
X10609944Y-23269269D01*
X10609944Y-23269269D02*
X10619468Y-23259746D01*
X10619468Y-23259746D02*
X10628991Y-23240698D01*
X10867087Y-23354984D02*
X10867087Y-23154984D01*
X10952801Y-23354984D02*
X10952801Y-23250222D01*
X10952801Y-23250222D02*
X10943277Y-23231174D01*
X10943277Y-23231174D02*
X10924230Y-23221650D01*
X10924230Y-23221650D02*
X10895658Y-23221650D01*
X10895658Y-23221650D02*
X10876611Y-23231174D01*
X10876611Y-23231174D02*
X10867087Y-23240698D01*
X11076611Y-23354984D02*
X11057563Y-23345460D01*
X11057563Y-23345460D02*
X11048039Y-23335936D01*
X11048039Y-23335936D02*
X11038515Y-23316888D01*
X11038515Y-23316888D02*
X11038515Y-23259746D01*
X11038515Y-23259746D02*
X11048039Y-23240698D01*
X11048039Y-23240698D02*
X11057563Y-23231174D01*
X11057563Y-23231174D02*
X11076611Y-23221650D01*
X11076611Y-23221650D02*
X11105182Y-23221650D01*
X11105182Y-23221650D02*
X11124230Y-23231174D01*
X11124230Y-23231174D02*
X11133753Y-23240698D01*
X11133753Y-23240698D02*
X11143277Y-23259746D01*
X11143277Y-23259746D02*
X11143277Y-23316888D01*
X11143277Y-23316888D02*
X11133753Y-23335936D01*
X11133753Y-23335936D02*
X11124230Y-23345460D01*
X11124230Y-23345460D02*
X11105182Y-23354984D01*
X11105182Y-23354984D02*
X11076611Y-23354984D01*
X11257563Y-23354984D02*
X11238515Y-23345460D01*
X11238515Y-23345460D02*
X11228991Y-23326412D01*
X11228991Y-23326412D02*
X11228991Y-23154984D01*
X11409944Y-23345460D02*
X11390896Y-23354984D01*
X11390896Y-23354984D02*
X11352801Y-23354984D01*
X11352801Y-23354984D02*
X11333753Y-23345460D01*
X11333753Y-23345460D02*
X11324230Y-23326412D01*
X11324230Y-23326412D02*
X11324230Y-23250222D01*
X11324230Y-23250222D02*
X11333753Y-23231174D01*
X11333753Y-23231174D02*
X11352801Y-23221650D01*
X11352801Y-23221650D02*
X11390896Y-23221650D01*
X11390896Y-23221650D02*
X11409944Y-23231174D01*
X11409944Y-23231174D02*
X11419468Y-23250222D01*
X11419468Y-23250222D02*
X11419468Y-23269269D01*
X11419468Y-23269269D02*
X11324230Y-23288317D01*
X11495658Y-23345460D02*
X11514706Y-23354984D01*
X11514706Y-23354984D02*
X11552801Y-23354984D01*
X11552801Y-23354984D02*
X11571849Y-23345460D01*
X11571849Y-23345460D02*
X11581372Y-23326412D01*
X11581372Y-23326412D02*
X11581372Y-23316888D01*
X11581372Y-23316888D02*
X11571849Y-23297841D01*
X11571849Y-23297841D02*
X11552801Y-23288317D01*
X11552801Y-23288317D02*
X11524230Y-23288317D01*
X11524230Y-23288317D02*
X11505182Y-23278793D01*
X11505182Y-23278793D02*
X11495658Y-23259746D01*
X11495658Y-23259746D02*
X11495658Y-23250222D01*
X11495658Y-23250222D02*
X11505182Y-23231174D01*
X11505182Y-23231174D02*
X11524230Y-23221650D01*
X11524230Y-23221650D02*
X11552801Y-23221650D01*
X11552801Y-23221650D02*
X11571849Y-23231174D01*
X11648039Y-23431174D02*
X11657563Y-23421650D01*
X11657563Y-23421650D02*
X11676611Y-23393079D01*
X11676611Y-23393079D02*
X11686134Y-23374031D01*
X11686134Y-23374031D02*
X11695658Y-23345460D01*
X11695658Y-23345460D02*
X11705182Y-23297841D01*
X11705182Y-23297841D02*
X11705182Y-23259746D01*
X11705182Y-23259746D02*
X11695658Y-23212127D01*
X11695658Y-23212127D02*
X11686134Y-23183555D01*
X11686134Y-23183555D02*
X11676611Y-23164508D01*
X11676611Y-23164508D02*
X11657563Y-23135936D01*
X11657563Y-23135936D02*
X11648039Y-23126412D01*
M02*
