%TF.GenerationSoftware,KiCad,Pcbnew,10.0.1-1.fc44*%
%TF.CreationDate,2026-05-01T08:23:39+02:00*%
%TF.ProjectId,poc-one,706f632d-6f6e-4652-9e6b-696361645f70,rev?*%
%TF.SameCoordinates,Original*%
%TF.FileFunction,Legend,Top*%
%TF.FilePolarity,Positive*%
%FSLAX46Y46*%
G04 Gerber Fmt 4.6, Leading zero omitted, Abs format (unit mm)*
G04 Created by KiCad (PCBNEW 10.0.1-1.fc44) date 2026-05-01 08:23:39*
%MOMM*%
%LPD*%
G01*
G04 APERTURE LIST*
G04 Aperture macros list*
%AMRoundRect*
0 Rectangle with rounded corners*
0 $1 Rounding radius*
0 $2 $3 $4 $5 $6 $7 $8 $9 X,Y pos of 4 corners*
0 Add a 4 corners polygon primitive as box body*
4,1,4,$2,$3,$4,$5,$6,$7,$8,$9,$2,$3,0*
0 Add four circle primitives for the rounded corners*
1,1,$1+$1,$2,$3*
1,1,$1+$1,$4,$5*
1,1,$1+$1,$6,$7*
1,1,$1+$1,$8,$9*
0 Add four rect primitives between the rounded corners*
20,1,$1+$1,$2,$3,$4,$5,0*
20,1,$1+$1,$4,$5,$6,$7,0*
20,1,$1+$1,$6,$7,$8,$9,0*
20,1,$1+$1,$8,$9,$2,$3,0*%
G04 Aperture macros list end*
%ADD10C,0.150000*%
%ADD11C,0.200000*%
%ADD12C,0.120000*%
%ADD13C,0.300000*%
%ADD14C,1.700000*%
%ADD15R,1.700000X1.700000*%
%ADD16RoundRect,0.250000X0.250000X0.550000X-0.250000X0.550000X-0.250000X-0.550000X0.250000X-0.550000X0*%
%ADD17RoundRect,0.162500X0.575000X0.162500X-0.575000X0.162500X-0.575000X-0.162500X0.575000X-0.162500X0*%
%ADD18RoundRect,0.052500X0.222500X0.122500X-0.222500X0.122500X-0.222500X-0.122500X0.222500X-0.122500X0*%
%ADD19RoundRect,0.087500X0.187500X0.087500X-0.187500X0.087500X-0.187500X-0.087500X0.187500X-0.087500X0*%
%ADD20RoundRect,0.135000X0.135000X0.185000X-0.135000X0.185000X-0.135000X-0.185000X0.135000X-0.185000X0*%
%ADD21RoundRect,0.150000X0.150000X-0.590000X0.150000X0.590000X-0.150000X0.590000X-0.150000X-0.590000X0*%
%ADD22C,1.500000*%
%ADD23RoundRect,0.135000X0.185000X-0.135000X0.185000X0.135000X-0.185000X0.135000X-0.185000X-0.135000X0*%
%ADD24RoundRect,0.250000X-0.550000X1.250000X-0.550000X-1.250000X0.550000X-1.250000X0.550000X1.250000X0*%
%ADD25O,1.300000X2.100000*%
%ADD26O,1.300000X2.300000*%
%ADD27RoundRect,0.500000X2.000000X1.000000X-2.000000X1.000000X-2.000000X-1.000000X2.000000X-1.000000X0*%
%ADD28R,0.500000X1.400000*%
%ADD29R,0.300000X1.400000*%
%ADD30C,0.600000*%
%ADD31RoundRect,0.050000X-0.350000X-0.050000X0.350000X-0.050000X0.350000X0.050000X-0.350000X0.050000X0*%
%ADD32RoundRect,0.050000X-0.050000X-0.350000X0.050000X-0.350000X0.050000X0.350000X-0.050000X0.350000X0*%
%ADD33R,3.400000X3.400000*%
%ADD34RoundRect,0.062500X-0.325000X-0.062500X0.325000X-0.062500X0.325000X0.062500X-0.325000X0.062500X0*%
%ADD35RoundRect,0.062500X-0.062500X-0.325000X0.062500X-0.325000X0.062500X0.325000X-0.062500X0.325000X0*%
%ADD36R,2.450000X2.450000*%
%ADD37RoundRect,0.250000X3.500000X-2.400000X3.500000X2.400000X-3.500000X2.400000X-3.500000X-2.400000X0*%
%ADD38RoundRect,0.250000X-0.450000X-0.350000X0.450000X-0.350000X0.450000X0.350000X-0.450000X0.350000X0*%
%ADD39RoundRect,0.140000X0.140000X0.170000X-0.140000X0.170000X-0.140000X-0.170000X0.140000X-0.170000X0*%
%ADD40RoundRect,0.140000X-0.140000X-0.170000X0.140000X-0.170000X0.140000X0.170000X-0.140000X0.170000X0*%
%ADD41RoundRect,0.140000X-0.170000X0.140000X-0.170000X-0.140000X0.170000X-0.140000X0.170000X0.140000X0*%
%ADD42RoundRect,0.135000X-0.185000X0.135000X-0.185000X-0.135000X0.185000X-0.135000X0.185000X0.135000X0*%
%ADD43RoundRect,0.261500X0.261500X0.476500X-0.261500X0.476500X-0.261500X-0.476500X0.261500X-0.476500X0*%
%ADD44RoundRect,0.200000X-0.200000X-0.650000X0.200000X-0.650000X0.200000X0.650000X-0.200000X0.650000X0*%
%ADD45RoundRect,0.135000X-0.135000X-0.185000X0.135000X-0.185000X0.135000X0.185000X-0.135000X0.185000X0*%
%ADD46RoundRect,0.135000X-0.145000X0.135000X-0.145000X-0.135000X0.145000X-0.135000X0.145000X0.135000X0*%
%ADD47RoundRect,0.219000X-0.294000X0.219000X-0.294000X-0.219000X0.294000X-0.219000X0.294000X0.219000X0*%
%ADD48RoundRect,0.150000X-0.400000X-0.150000X0.400000X-0.150000X0.400000X0.150000X-0.400000X0.150000X0*%
%ADD49RoundRect,0.140000X0.170000X-0.140000X0.170000X0.140000X-0.170000X0.140000X-0.170000X-0.140000X0*%
%ADD50RoundRect,0.250000X-0.970000X-0.310000X0.970000X-0.310000X0.970000X0.310000X-0.970000X0.310000X0*%
%ADD51RoundRect,0.150000X-0.150000X0.590000X-0.150000X-0.590000X0.150000X-0.590000X0.150000X0.590000X0*%
%ADD52RoundRect,0.375000X-0.625000X-0.375000X0.625000X-0.375000X0.625000X0.375000X-0.625000X0.375000X0*%
%ADD53RoundRect,0.500000X-0.500000X-1.400000X0.500000X-1.400000X0.500000X1.400000X-0.500000X1.400000X0*%
%ADD54RoundRect,0.218750X0.256250X-0.218750X0.256250X0.218750X-0.256250X0.218750X-0.256250X-0.218750X0*%
%ADD55RoundRect,0.250000X-0.625000X0.312500X-0.625000X-0.312500X0.625000X-0.312500X0.625000X0.312500X0*%
%ADD56RoundRect,0.140000X-0.021213X0.219203X-0.219203X0.021213X0.021213X-0.219203X0.219203X-0.021213X0*%
%ADD57RoundRect,0.218750X-0.256250X0.218750X-0.256250X-0.218750X0.256250X-0.218750X0.256250X0.218750X0*%
%ADD58RoundRect,0.218750X-0.218750X-0.256250X0.218750X-0.256250X0.218750X0.256250X-0.218750X0.256250X0*%
%ADD59RoundRect,0.225000X-0.225000X-0.250000X0.225000X-0.250000X0.225000X0.250000X-0.225000X0.250000X0*%
%ADD60RoundRect,0.135000X-0.035355X0.226274X-0.226274X0.035355X0.035355X-0.226274X0.226274X-0.035355X0*%
%ADD61RoundRect,0.200000X0.650000X-0.200000X0.650000X0.200000X-0.650000X0.200000X-0.650000X-0.200000X0*%
%ADD62O,0.600000X1.970000*%
%ADD63R,1.500000X1.000000*%
G04 APERTURE END LIST*
D10*
X102381009Y-130607142D02*
X102428628Y-130464285D01*
X102428628Y-130464285D02*
X102476247Y-130416666D01*
X102476247Y-130416666D02*
X102571485Y-130369047D01*
X102571485Y-130369047D02*
X102714342Y-130369047D01*
X102714342Y-130369047D02*
X102809580Y-130416666D01*
X102809580Y-130416666D02*
X102857200Y-130464285D01*
X102857200Y-130464285D02*
X102904819Y-130559523D01*
X102904819Y-130559523D02*
X102904819Y-130940475D01*
X102904819Y-130940475D02*
X101904819Y-130940475D01*
X101904819Y-130940475D02*
X101904819Y-130607142D01*
X101904819Y-130607142D02*
X101952438Y-130511904D01*
X101952438Y-130511904D02*
X102000057Y-130464285D01*
X102000057Y-130464285D02*
X102095295Y-130416666D01*
X102095295Y-130416666D02*
X102190533Y-130416666D01*
X102190533Y-130416666D02*
X102285771Y-130464285D01*
X102285771Y-130464285D02*
X102333390Y-130511904D01*
X102333390Y-130511904D02*
X102381009Y-130607142D01*
X102381009Y-130607142D02*
X102381009Y-130940475D01*
X101904819Y-129749999D02*
X101904819Y-129559523D01*
X101904819Y-129559523D02*
X101952438Y-129464285D01*
X101952438Y-129464285D02*
X102047676Y-129369047D01*
X102047676Y-129369047D02*
X102238152Y-129321428D01*
X102238152Y-129321428D02*
X102571485Y-129321428D01*
X102571485Y-129321428D02*
X102761961Y-129369047D01*
X102761961Y-129369047D02*
X102857200Y-129464285D01*
X102857200Y-129464285D02*
X102904819Y-129559523D01*
X102904819Y-129559523D02*
X102904819Y-129749999D01*
X102904819Y-129749999D02*
X102857200Y-129845237D01*
X102857200Y-129845237D02*
X102761961Y-129940475D01*
X102761961Y-129940475D02*
X102571485Y-129988094D01*
X102571485Y-129988094D02*
X102238152Y-129988094D01*
X102238152Y-129988094D02*
X102047676Y-129940475D01*
X102047676Y-129940475D02*
X101952438Y-129845237D01*
X101952438Y-129845237D02*
X101904819Y-129749999D01*
X101904819Y-128702380D02*
X101904819Y-128511904D01*
X101904819Y-128511904D02*
X101952438Y-128416666D01*
X101952438Y-128416666D02*
X102047676Y-128321428D01*
X102047676Y-128321428D02*
X102238152Y-128273809D01*
X102238152Y-128273809D02*
X102571485Y-128273809D01*
X102571485Y-128273809D02*
X102761961Y-128321428D01*
X102761961Y-128321428D02*
X102857200Y-128416666D01*
X102857200Y-128416666D02*
X102904819Y-128511904D01*
X102904819Y-128511904D02*
X102904819Y-128702380D01*
X102904819Y-128702380D02*
X102857200Y-128797618D01*
X102857200Y-128797618D02*
X102761961Y-128892856D01*
X102761961Y-128892856D02*
X102571485Y-128940475D01*
X102571485Y-128940475D02*
X102238152Y-128940475D01*
X102238152Y-128940475D02*
X102047676Y-128892856D01*
X102047676Y-128892856D02*
X101952438Y-128797618D01*
X101952438Y-128797618D02*
X101904819Y-128702380D01*
X101904819Y-127988094D02*
X101904819Y-127416666D01*
X102904819Y-127702380D02*
X101904819Y-127702380D01*
X84561666Y-127844819D02*
X84561666Y-128559104D01*
X84561666Y-128559104D02*
X84514047Y-128701961D01*
X84514047Y-128701961D02*
X84418809Y-128797200D01*
X84418809Y-128797200D02*
X84275952Y-128844819D01*
X84275952Y-128844819D02*
X84180714Y-128844819D01*
X84990238Y-127940057D02*
X85037857Y-127892438D01*
X85037857Y-127892438D02*
X85133095Y-127844819D01*
X85133095Y-127844819D02*
X85371190Y-127844819D01*
X85371190Y-127844819D02*
X85466428Y-127892438D01*
X85466428Y-127892438D02*
X85514047Y-127940057D01*
X85514047Y-127940057D02*
X85561666Y-128035295D01*
X85561666Y-128035295D02*
X85561666Y-128130533D01*
X85561666Y-128130533D02*
X85514047Y-128273390D01*
X85514047Y-128273390D02*
X84942619Y-128844819D01*
X84942619Y-128844819D02*
X85561666Y-128844819D01*
X149018990Y-166814285D02*
X148971371Y-166957142D01*
X148971371Y-166957142D02*
X148923752Y-167004761D01*
X148923752Y-167004761D02*
X148828514Y-167052380D01*
X148828514Y-167052380D02*
X148685657Y-167052380D01*
X148685657Y-167052380D02*
X148590419Y-167004761D01*
X148590419Y-167004761D02*
X148542800Y-166957142D01*
X148542800Y-166957142D02*
X148495180Y-166861904D01*
X148495180Y-166861904D02*
X148495180Y-166480952D01*
X148495180Y-166480952D02*
X149495180Y-166480952D01*
X149495180Y-166480952D02*
X149495180Y-166814285D01*
X149495180Y-166814285D02*
X149447561Y-166909523D01*
X149447561Y-166909523D02*
X149399942Y-166957142D01*
X149399942Y-166957142D02*
X149304704Y-167004761D01*
X149304704Y-167004761D02*
X149209466Y-167004761D01*
X149209466Y-167004761D02*
X149114228Y-166957142D01*
X149114228Y-166957142D02*
X149066609Y-166909523D01*
X149066609Y-166909523D02*
X149018990Y-166814285D01*
X149018990Y-166814285D02*
X149018990Y-166480952D01*
X149495180Y-167338095D02*
X149495180Y-167909523D01*
X148495180Y-167623809D02*
X149495180Y-167623809D01*
X148495180Y-168766666D02*
X148495180Y-168195238D01*
X148495180Y-168480952D02*
X149495180Y-168480952D01*
X149495180Y-168480952D02*
X149352323Y-168385714D01*
X149352323Y-168385714D02*
X149257085Y-168290476D01*
X149257085Y-168290476D02*
X149209466Y-168195238D01*
D11*
X153882933Y-128042231D02*
X153882933Y-126518422D01*
X154644838Y-127280326D02*
X153121028Y-127280326D01*
X153932933Y-208641248D02*
X153932933Y-207117439D01*
%TO.C,J2*%
D12*
X87545000Y-129390000D02*
X87545000Y-155010000D01*
X84895000Y-132040000D02*
X84895000Y-129390000D01*
X84895000Y-129390000D02*
X87545000Y-129390000D01*
X82245000Y-155010000D02*
X87545000Y-155010000D01*
X82245000Y-132040000D02*
X84895000Y-132040000D01*
X82245000Y-132040000D02*
X82245000Y-155010000D01*
X82245000Y-130770000D02*
X82245000Y-129390000D01*
X82245000Y-129390000D02*
X83625000Y-129390000D01*
%TO.C,L1*%
D10*
X109225000Y-130850000D02*
G75*
G02*
X109075000Y-130850000I-75000J0D01*
G01*
X109075000Y-130850000D02*
G75*
G02*
X109225000Y-130850000I75000J0D01*
G01*
D12*
%TO.C,U6*%
X78067500Y-201745000D02*
X77587500Y-201745000D01*
X77827500Y-201415000D01*
X78067500Y-201745000D01*
G36*
X78067500Y-201745000D02*
G01*
X77587500Y-201745000D01*
X77827500Y-201415000D01*
X78067500Y-201745000D01*
G37*
X72897500Y-191325000D02*
X77017500Y-191325000D01*
X72897500Y-191355000D02*
X72897500Y-191325000D01*
X72897500Y-201445000D02*
X72897500Y-201415000D01*
X77017500Y-191325000D02*
X77017500Y-191355000D01*
X77017500Y-201415000D02*
X77017500Y-201445000D01*
X77017500Y-201445000D02*
X72897500Y-201445000D01*
%TO.C,R26*%
X100973641Y-200330000D02*
X100666359Y-200330000D01*
X100973641Y-199570000D02*
X100666359Y-199570000D01*
%TO.C,R24*%
X96373641Y-200380000D02*
X96066359Y-200380000D01*
X96373641Y-199620000D02*
X96066359Y-199620000D01*
%TO.C,Q4*%
D10*
X99685000Y-197560000D02*
X99685000Y-198210000D01*
X99685000Y-197560000D02*
X99685000Y-196910000D01*
X102805000Y-197560000D02*
X102805000Y-198210000D01*
X102805000Y-197560000D02*
X102805000Y-196910000D01*
D12*
X99735000Y-198722500D02*
X99405000Y-198962500D01*
X99405000Y-198482500D01*
X99735000Y-198722500D01*
G36*
X99735000Y-198722500D02*
G01*
X99405000Y-198962500D01*
X99405000Y-198482500D01*
X99735000Y-198722500D01*
G37*
%TO.C,TP8*%
X82970000Y-203200000D02*
G75*
G02*
X81070000Y-203200000I-950000J0D01*
G01*
X81070000Y-203200000D02*
G75*
G02*
X82970000Y-203200000I950000J0D01*
G01*
%TO.C,R23*%
X81413641Y-197430000D02*
X81106359Y-197430000D01*
X81413641Y-196670000D02*
X81106359Y-196670000D01*
%TO.C,R25*%
X87040000Y-204953641D02*
X87040000Y-204646359D01*
X87800000Y-204953641D02*
X87800000Y-204646359D01*
%TO.C,Q3*%
D10*
X95060000Y-197560000D02*
X95060000Y-198210000D01*
X95060000Y-197560000D02*
X95060000Y-196910000D01*
X98180000Y-197560000D02*
X98180000Y-198210000D01*
X98180000Y-197560000D02*
X98180000Y-196910000D01*
D12*
X95110000Y-198722500D02*
X94780000Y-198962500D01*
X94780000Y-198482500D01*
X95110000Y-198722500D01*
G36*
X95110000Y-198722500D02*
G01*
X94780000Y-198962500D01*
X94780000Y-198482500D01*
X95110000Y-198722500D01*
G37*
%TO.C,TP9*%
X86520000Y-203200000D02*
G75*
G02*
X84620000Y-203200000I-950000J0D01*
G01*
X84620000Y-203200000D02*
G75*
G02*
X86520000Y-203200000I950000J0D01*
G01*
%TO.C,C27*%
X92855000Y-202775000D02*
X92855000Y-203400000D01*
X93167500Y-203087500D02*
X92542500Y-203087500D01*
X92865563Y-203640000D02*
X92230000Y-203640000D01*
X92865563Y-203640000D02*
X93930000Y-204704437D01*
X89474437Y-203640000D02*
X90110000Y-203640000D01*
X89474437Y-203640000D02*
X88410000Y-204704437D01*
X93930000Y-204704437D02*
X93930000Y-209160000D01*
X88410000Y-204704437D02*
X88410000Y-209160000D01*
X93930000Y-209160000D02*
X92230000Y-209160000D01*
X88410000Y-209160000D02*
X90110000Y-209160000D01*
%TO.C,R27*%
X105623641Y-200330000D02*
X105316359Y-200330000D01*
X105623641Y-199570000D02*
X105316359Y-199570000D01*
%TO.C,Q6*%
X108985000Y-198722500D02*
X108655000Y-198962500D01*
X108655000Y-198482500D01*
X108985000Y-198722500D01*
G36*
X108985000Y-198722500D02*
G01*
X108655000Y-198962500D01*
X108655000Y-198482500D01*
X108985000Y-198722500D01*
G37*
D10*
X112055000Y-197560000D02*
X112055000Y-196910000D01*
X112055000Y-197560000D02*
X112055000Y-198210000D01*
X108935000Y-197560000D02*
X108935000Y-196910000D01*
X108935000Y-197560000D02*
X108935000Y-198210000D01*
%TO.C,R28*%
D12*
X110173641Y-200330000D02*
X109866359Y-200330000D01*
X110173641Y-199570000D02*
X109866359Y-199570000D01*
%TO.C,Q5*%
X104360000Y-198722500D02*
X104030000Y-198962500D01*
X104030000Y-198482500D01*
X104360000Y-198722500D01*
G36*
X104360000Y-198722500D02*
G01*
X104030000Y-198962500D01*
X104030000Y-198482500D01*
X104360000Y-198722500D01*
G37*
D10*
X107430000Y-197560000D02*
X107430000Y-196910000D01*
X107430000Y-197560000D02*
X107430000Y-198210000D01*
X104310000Y-197560000D02*
X104310000Y-196910000D01*
X104310000Y-197560000D02*
X104310000Y-198210000D01*
%TO.C,U2*%
D12*
X101940000Y-135440000D02*
X102890000Y-135440000D01*
X101940000Y-136390000D02*
X101940000Y-135440000D01*
X101940000Y-145660000D02*
X101940000Y-144710000D01*
X102890000Y-145660000D02*
X101940000Y-145660000D01*
X111210000Y-135440000D02*
X112160000Y-135440000D01*
X112160000Y-135440000D02*
X112160000Y-136390000D01*
X112160000Y-144710000D02*
X112160000Y-145660000D01*
X112160000Y-145660000D02*
X111210000Y-145660000D01*
X101440000Y-136750000D02*
X101110000Y-136990000D01*
X101110000Y-136510000D01*
X101440000Y-136750000D01*
G36*
X101440000Y-136750000D02*
G01*
X101110000Y-136990000D01*
X101110000Y-136510000D01*
X101440000Y-136750000D01*
G37*
%TO.C,U3*%
X118702500Y-120140000D02*
X119177500Y-120140000D01*
X118702500Y-120615000D02*
X118702500Y-120140000D01*
X118702500Y-124360000D02*
X118702500Y-123885000D01*
X119177500Y-124360000D02*
X118702500Y-124360000D01*
X122447500Y-120140000D02*
X122922500Y-120140000D01*
X122922500Y-120140000D02*
X122922500Y-120615000D01*
X122922500Y-123885000D02*
X122922500Y-124360000D01*
X122922500Y-124360000D02*
X122447500Y-124360000D01*
X118172500Y-121000000D02*
X117842500Y-121240000D01*
X117842500Y-120760000D01*
X118172500Y-121000000D01*
G36*
X118172500Y-121000000D02*
G01*
X117842500Y-121240000D01*
X117842500Y-120760000D01*
X118172500Y-121000000D01*
G37*
%TO.C,BT1*%
D13*
X158950000Y-129100000D02*
X152600000Y-129100000D01*
X137950000Y-129100000D02*
X144300000Y-129100000D01*
X158950000Y-206100000D02*
X158950000Y-129100000D01*
X152600000Y-206100000D02*
X158950000Y-206100000D01*
X144300000Y-206100000D02*
X137950000Y-206100000D01*
X137950000Y-206100000D02*
X137950000Y-129100000D01*
%TO.C,Y1*%
D12*
X104990000Y-152890000D02*
X104990000Y-156310000D01*
X104990000Y-156310000D02*
X109110000Y-156310000D01*
%TO.C,J5*%
X111465000Y-149915000D02*
X112845000Y-149915000D01*
X111465000Y-151295000D02*
X111465000Y-149915000D01*
X111465000Y-152565000D02*
X111465000Y-157755000D01*
X111465000Y-152565000D02*
X114225000Y-152565000D01*
X111465000Y-157755000D02*
X114225000Y-157755000D01*
X114225000Y-152565000D02*
X114225000Y-157755000D01*
%TO.C,C14*%
X103457836Y-147090000D02*
X103242164Y-147090000D01*
X103457836Y-147810000D02*
X103242164Y-147810000D01*
%TO.C,C1*%
X105807836Y-150640000D02*
X105592164Y-150640000D01*
X105807836Y-151360000D02*
X105592164Y-151360000D01*
%TO.C,C6*%
X99457836Y-139940000D02*
X99242164Y-139940000D01*
X99457836Y-140660000D02*
X99242164Y-140660000D01*
%TO.C,C16*%
X99457836Y-142140000D02*
X99242164Y-142140000D01*
X99457836Y-142860000D02*
X99242164Y-142860000D01*
%TO.C,C2*%
X108592164Y-150640000D02*
X108807836Y-150640000D01*
X108592164Y-151360000D02*
X108807836Y-151360000D01*
%TO.C,C8*%
X108860000Y-148792164D02*
X108860000Y-149007836D01*
X108140000Y-148792164D02*
X108140000Y-149007836D01*
%TO.C,C13*%
X106385000Y-148817164D02*
X106385000Y-149032836D01*
X105665000Y-148817164D02*
X105665000Y-149032836D01*
%TO.C,R3*%
X107530000Y-148746359D02*
X107530000Y-149053641D01*
X106770000Y-148746359D02*
X106770000Y-149053641D01*
%TO.C,Q7*%
D10*
X120150000Y-142210000D02*
X122840000Y-142210000D01*
X122840000Y-140290000D02*
X120150000Y-140290000D01*
X122840000Y-142210000D02*
X122840000Y-140290000D01*
%TO.C,R4*%
D12*
X116420000Y-150246359D02*
X116420000Y-150553641D01*
X117180000Y-150246359D02*
X117180000Y-150553641D01*
%TO.C,C9*%
X116342164Y-140190000D02*
X116557836Y-140190000D01*
X116342164Y-140910000D02*
X116557836Y-140910000D01*
%TO.C,C18*%
X115592164Y-141115000D02*
X115807836Y-141115000D01*
X115592164Y-141835000D02*
X115807836Y-141835000D01*
%TO.C,R42*%
X118395000Y-141353641D02*
X118395000Y-141046359D01*
X119155000Y-141353641D02*
X119155000Y-141046359D01*
%TO.C,C15*%
X114717164Y-144690000D02*
X114932836Y-144690000D01*
X114717164Y-145410000D02*
X114932836Y-145410000D01*
%TO.C,R41*%
X125345000Y-131028641D02*
X125345000Y-130721359D01*
X126105000Y-131028641D02*
X126105000Y-130721359D01*
%TO.C,R43*%
X126770000Y-136303641D02*
X126770000Y-135996359D01*
X127530000Y-136303641D02*
X127530000Y-135996359D01*
%TO.C,J4*%
X133445000Y-152360000D02*
X132065000Y-152360000D01*
X133445000Y-150980000D02*
X133445000Y-152360000D01*
X133445000Y-149710000D02*
X133445000Y-131820000D01*
X133445000Y-149710000D02*
X130795000Y-149710000D01*
X133445000Y-131820000D02*
X128145000Y-131820000D01*
X130795000Y-152360000D02*
X128145000Y-152360000D01*
X130795000Y-149710000D02*
X130795000Y-152360000D01*
X128145000Y-152360000D02*
X128145000Y-131820000D01*
%TO.C,R45*%
X123896359Y-131445000D02*
X124203641Y-131445000D01*
X123896359Y-132205000D02*
X124203641Y-132205000D01*
%TO.C,R5*%
X112170000Y-131971359D02*
X112170000Y-132278641D01*
X112930000Y-131971359D02*
X112930000Y-132278641D01*
%TO.C,MK1*%
D10*
X122350000Y-129225000D02*
G75*
G02*
X122200000Y-129225000I-75000J0D01*
G01*
X122200000Y-129225000D02*
G75*
G02*
X122350000Y-129225000I75000J0D01*
G01*
%TO.C,R19*%
D12*
X117956359Y-127820000D02*
X118263641Y-127820000D01*
X117956359Y-128580000D02*
X118263641Y-128580000D01*
%TO.C,TP3*%
X117290000Y-131590000D02*
G75*
G02*
X115390000Y-131590000I-950000J0D01*
G01*
X115390000Y-131590000D02*
G75*
G02*
X117290000Y-131590000I950000J0D01*
G01*
%TO.C,R46*%
X120995000Y-134503641D02*
X120995000Y-134196359D01*
X121755000Y-134503641D02*
X121755000Y-134196359D01*
%TO.C,R17*%
X121756359Y-127820000D02*
X122063641Y-127820000D01*
X121756359Y-128580000D02*
X122063641Y-128580000D01*
%TO.C,R20*%
X119856359Y-127820000D02*
X120163641Y-127820000D01*
X119856359Y-128580000D02*
X120163641Y-128580000D01*
%TO.C,C35*%
X123932164Y-129350000D02*
X124147836Y-129350000D01*
X123932164Y-130070000D02*
X124147836Y-130070000D01*
%TO.C,C11*%
X114427836Y-136740000D02*
X114212164Y-136740000D01*
X114427836Y-137460000D02*
X114212164Y-137460000D01*
%TO.C,TP11*%
X121850000Y-136900000D02*
G75*
G02*
X119950000Y-136900000I-950000J0D01*
G01*
X119950000Y-136900000D02*
G75*
G02*
X121850000Y-136900000I950000J0D01*
G01*
%TO.C,R44*%
X124453641Y-135895000D02*
X124146359Y-135895000D01*
X124453641Y-136655000D02*
X124146359Y-136655000D01*
%TO.C,C7*%
X112190000Y-133912164D02*
X112190000Y-134127836D01*
X112910000Y-133912164D02*
X112910000Y-134127836D01*
%TO.C,C38*%
X124382836Y-136940000D02*
X124167164Y-136940000D01*
X124382836Y-137660000D02*
X124167164Y-137660000D01*
%TO.C,C39*%
X114192164Y-135790000D02*
X114407836Y-135790000D01*
X114192164Y-136510000D02*
X114407836Y-136510000D01*
%TO.C,C36*%
X125640000Y-136317164D02*
X125640000Y-136532836D01*
X126360000Y-136317164D02*
X126360000Y-136532836D01*
%TO.C,C37*%
X123922164Y-130440000D02*
X124137836Y-130440000D01*
X123922164Y-131160000D02*
X124137836Y-131160000D01*
%TO.C,U22*%
D10*
X123150000Y-132450000D02*
X123150000Y-132600000D01*
X123150000Y-132450000D02*
X124950000Y-132450000D01*
X123150000Y-133500000D02*
X123150000Y-134500000D01*
X123150000Y-135400000D02*
X123150000Y-135550000D01*
X123150000Y-135550000D02*
X124950000Y-135550000D01*
X124950000Y-132450000D02*
X124950000Y-132600000D01*
X124950000Y-133500000D02*
X124950000Y-133550000D01*
X124950000Y-134450000D02*
X124950000Y-134500000D01*
X124950000Y-135400000D02*
X124950000Y-135550000D01*
X125300000Y-135500000D02*
G75*
G02*
X125240000Y-135500000I-30000J0D01*
G01*
X125240000Y-135500000D02*
G75*
G02*
X125300000Y-135500000I30000J0D01*
G01*
%TO.C,C26*%
D12*
X156060000Y-114807836D02*
X156060000Y-114592164D01*
X155340000Y-114807836D02*
X155340000Y-114592164D01*
%TO.C,R21*%
X138103641Y-113720000D02*
X137796359Y-113720000D01*
X138103641Y-114480000D02*
X137796359Y-114480000D01*
%TO.C,SW3*%
X132900000Y-127190000D02*
X142800000Y-127190000D01*
X132900000Y-125570000D02*
X132900000Y-127190000D01*
X142800000Y-125570000D02*
X142800000Y-127190000D01*
X137173333Y-124135000D02*
X137173333Y-125405000D01*
X132900000Y-123030000D02*
X132900000Y-123970000D01*
X142800000Y-123030000D02*
X142800000Y-123970000D01*
X137173333Y-121595000D02*
X137173333Y-122865000D01*
X132900000Y-119810000D02*
X132900000Y-121430000D01*
X132900000Y-119810000D02*
X142800000Y-119810000D01*
X142800000Y-119810000D02*
X142800000Y-121430000D01*
X132660000Y-119570000D02*
X132660000Y-120953000D01*
X132660000Y-119570000D02*
X134043000Y-119570000D01*
X135820000Y-124135000D02*
X137173333Y-124135000D01*
X137173333Y-125405000D01*
X135820000Y-125405000D01*
X135820000Y-124135000D01*
G36*
X135820000Y-124135000D02*
G01*
X137173333Y-124135000D01*
X137173333Y-125405000D01*
X135820000Y-125405000D01*
X135820000Y-124135000D01*
G37*
X135820000Y-124135000D02*
X139880000Y-124135000D01*
X139880000Y-125405000D01*
X135820000Y-125405000D01*
X135820000Y-124135000D01*
X135820000Y-121595000D02*
X137173333Y-121595000D01*
X137173333Y-122865000D01*
X135820000Y-122865000D01*
X135820000Y-121595000D01*
G36*
X135820000Y-121595000D02*
G01*
X137173333Y-121595000D01*
X137173333Y-122865000D01*
X135820000Y-122865000D01*
X135820000Y-121595000D01*
G37*
X135820000Y-121595000D02*
X139880000Y-121595000D01*
X139880000Y-122865000D01*
X135820000Y-122865000D01*
X135820000Y-121595000D01*
%TO.C,Q1*%
D10*
X143210000Y-114500000D02*
X143210000Y-115150000D01*
X143210000Y-114500000D02*
X143210000Y-113850000D01*
X140090000Y-114500000D02*
X140090000Y-115150000D01*
X140090000Y-114500000D02*
X140090000Y-113850000D01*
D12*
X140140000Y-115662500D02*
X139810000Y-115902500D01*
X139810000Y-115422500D01*
X140140000Y-115662500D01*
G36*
X140140000Y-115662500D02*
G01*
X139810000Y-115902500D01*
X139810000Y-115422500D01*
X140140000Y-115662500D01*
G37*
%TO.C,C25*%
X147270000Y-119687836D02*
X147270000Y-119472164D01*
X146550000Y-119687836D02*
X146550000Y-119472164D01*
%TO.C,Q2*%
D10*
X136602500Y-117600000D02*
X136602500Y-116950000D01*
X136602500Y-117600000D02*
X136602500Y-118250000D01*
X139722500Y-117600000D02*
X139722500Y-116950000D01*
X139722500Y-117600000D02*
X139722500Y-118250000D01*
D12*
X140002500Y-116677500D02*
X139672500Y-116437500D01*
X140002500Y-116197500D01*
X140002500Y-116677500D01*
G36*
X140002500Y-116677500D02*
G01*
X139672500Y-116437500D01*
X140002500Y-116197500D01*
X140002500Y-116677500D01*
G37*
%TO.C,U4*%
X149320000Y-116340000D02*
X149080000Y-116010000D01*
X149560000Y-116010000D01*
X149320000Y-116340000D01*
G36*
X149320000Y-116340000D02*
G01*
X149080000Y-116010000D01*
X149560000Y-116010000D01*
X149320000Y-116340000D01*
G37*
X154360000Y-123060000D02*
X154360000Y-121800000D01*
X154360000Y-116240000D02*
X154360000Y-117500000D01*
X150600000Y-123060000D02*
X154360000Y-123060000D01*
X150600000Y-116240000D02*
X154360000Y-116240000D01*
%TO.C,R22*%
X141030000Y-117996359D02*
X141030000Y-118303641D01*
X140270000Y-117996359D02*
X140270000Y-118303641D01*
%TO.C,D2*%
X117965000Y-113035000D02*
X119435000Y-113035000D01*
X119435000Y-113035000D02*
X119435000Y-110750000D01*
X117965000Y-110750000D02*
X117965000Y-113035000D01*
%TO.C,R9*%
X121070000Y-114503641D02*
X121070000Y-114196359D01*
X121830000Y-114503641D02*
X121830000Y-114196359D01*
%TO.C,R10*%
X119080000Y-114403641D02*
X119080000Y-114096359D01*
X118320000Y-114403641D02*
X118320000Y-114096359D01*
%TO.C,D1*%
X120715000Y-113035000D02*
X122185000Y-113035000D01*
X122185000Y-113035000D02*
X122185000Y-110750000D01*
X120715000Y-110750000D02*
X120715000Y-113035000D01*
%TO.C,R12*%
X112330000Y-118646359D02*
X112330000Y-118953641D01*
X111570000Y-118646359D02*
X111570000Y-118953641D01*
%TO.C,C23*%
X125060000Y-121612164D02*
X125060000Y-121827836D01*
X124340000Y-121612164D02*
X124340000Y-121827836D01*
%TO.C,C4*%
X109933943Y-134835000D02*
X110149615Y-134835000D01*
X109933943Y-134115000D02*
X110149615Y-134115000D01*
%TO.C,R14*%
X114710000Y-119122936D02*
X114710000Y-120577064D01*
X112890000Y-119122936D02*
X112890000Y-120577064D01*
%TO.C,C22*%
X119960000Y-117357836D02*
X119960000Y-117142164D01*
X119240000Y-117357836D02*
X119240000Y-117142164D01*
%TO.C,C21*%
X123440000Y-125042164D02*
X123440000Y-125257836D01*
X124160000Y-125042164D02*
X124160000Y-125257836D01*
%TO.C,R18*%
X121170000Y-125996359D02*
X121170000Y-126303641D01*
X121930000Y-125996359D02*
X121930000Y-126303641D01*
%TO.C,R8*%
X108330000Y-133346359D02*
X108330000Y-133653641D01*
X107570000Y-133346359D02*
X107570000Y-133653641D01*
%TO.C,C19*%
X117111693Y-119369190D02*
X116959190Y-119521693D01*
X117620810Y-119878307D02*
X117468307Y-120030810D01*
%TO.C,L2*%
X126800000Y-121077221D02*
X126800000Y-121402779D01*
X125780000Y-121077221D02*
X125780000Y-121402779D01*
%TO.C,TP4*%
X112100000Y-122750000D02*
G75*
G02*
X110200000Y-122750000I-950000J0D01*
G01*
X110200000Y-122750000D02*
G75*
G02*
X112100000Y-122750000I950000J0D01*
G01*
%TO.C,C5*%
X109928943Y-133910000D02*
X110144615Y-133910000D01*
X109928943Y-133190000D02*
X110144615Y-133190000D01*
%TO.C,TP2*%
X130650000Y-119800000D02*
G75*
G02*
X128750000Y-119800000I-950000J0D01*
G01*
X128750000Y-119800000D02*
G75*
G02*
X130650000Y-119800000I950000J0D01*
G01*
%TO.C,TP6*%
X130650000Y-116200000D02*
G75*
G02*
X128750000Y-116200000I-950000J0D01*
G01*
X128750000Y-116200000D02*
G75*
G02*
X130650000Y-116200000I950000J0D01*
G01*
%TO.C,TP10*%
X127225000Y-128375000D02*
G75*
G02*
X125325000Y-128375000I-950000J0D01*
G01*
X125325000Y-128375000D02*
G75*
G02*
X127225000Y-128375000I950000J0D01*
G01*
%TO.C,D3*%
X118250000Y-125965000D02*
X115965000Y-125965000D01*
X115965000Y-127435000D02*
X118250000Y-127435000D01*
X115965000Y-125965000D02*
X115965000Y-127435000D01*
%TO.C,C20*%
X121459420Y-117660000D02*
X121740580Y-117660000D01*
X121459420Y-116640000D02*
X121740580Y-116640000D01*
%TO.C,C24*%
X128010000Y-121572164D02*
X128010000Y-121787836D01*
X127290000Y-121572164D02*
X127290000Y-121787836D01*
%TO.C,R16*%
X120930000Y-125996359D02*
X120930000Y-126303641D01*
X120170000Y-125996359D02*
X120170000Y-126303641D01*
%TO.C,R13*%
X116789940Y-122522659D02*
X116572659Y-122739940D01*
X117327341Y-123060060D02*
X117110060Y-123277341D01*
%TO.C,TP5*%
X111360000Y-128870000D02*
G75*
G02*
X109460000Y-128870000I-950000J0D01*
G01*
X109460000Y-128870000D02*
G75*
G02*
X111360000Y-128870000I950000J0D01*
G01*
%TO.C,TP7*%
X130650000Y-125300000D02*
G75*
G02*
X128750000Y-125300000I-950000J0D01*
G01*
X128750000Y-125300000D02*
G75*
G02*
X130650000Y-125300000I950000J0D01*
G01*
%TO.C,R15*%
X119880000Y-126303641D02*
X119880000Y-125996359D01*
X119120000Y-126303641D02*
X119120000Y-125996359D01*
%TO.C,R7*%
X106570000Y-133346359D02*
X106570000Y-133653641D01*
X107330000Y-133346359D02*
X107330000Y-133653641D01*
%TO.C,R11*%
X107389940Y-118272659D02*
X107172659Y-118489940D01*
X107927341Y-118810060D02*
X107710060Y-119027341D01*
%TO.C,C10*%
X105540000Y-133607836D02*
X105540000Y-133392164D01*
X106260000Y-133607836D02*
X106260000Y-133392164D01*
%TO.C,C17*%
X105035000Y-133632836D02*
X105035000Y-133417164D01*
X104315000Y-133632836D02*
X104315000Y-133417164D01*
%TO.C,J1*%
X104560000Y-118020000D02*
X78940000Y-118020000D01*
X104560000Y-115370000D02*
X104560000Y-118020000D01*
X104560000Y-112720000D02*
X104560000Y-114100000D01*
X103180000Y-112720000D02*
X104560000Y-112720000D01*
X101910000Y-115370000D02*
X104560000Y-115370000D01*
X101910000Y-112720000D02*
X101910000Y-115370000D01*
X101910000Y-112720000D02*
X78940000Y-112720000D01*
X78940000Y-112720000D02*
X78940000Y-118020000D01*
%TO.C,R6*%
X104146359Y-126880000D02*
X104453641Y-126880000D01*
X104146359Y-126120000D02*
X104453641Y-126120000D01*
%TO.C,C12*%
X99457836Y-138560000D02*
X99242164Y-138560000D01*
X99457836Y-137840000D02*
X99242164Y-137840000D01*
%TO.C,TP1*%
X104800000Y-122950000D02*
G75*
G02*
X102900000Y-122950000I-950000J0D01*
G01*
X102900000Y-122950000D02*
G75*
G02*
X104800000Y-122950000I950000J0D01*
G01*
%TO.C,R29*%
X89980000Y-181088641D02*
X89980000Y-180781359D01*
X89220000Y-181088641D02*
X89220000Y-180781359D01*
%TO.C,U10*%
D10*
X90330000Y-177110000D02*
G75*
G02*
X90270000Y-177110000I-30000J0D01*
G01*
X90270000Y-177110000D02*
G75*
G02*
X90330000Y-177110000I30000J0D01*
G01*
X100330000Y-176880000D02*
X90270000Y-176880000D01*
X100330000Y-173840000D02*
X100330000Y-176880000D01*
X90270000Y-176880000D02*
X90270000Y-173840000D01*
X90270000Y-173840000D02*
X100330000Y-173840000D01*
%TO.C,JP5*%
D12*
X98910000Y-161150000D02*
X100910000Y-161150000D01*
X98910000Y-163950000D02*
X98910000Y-161150000D01*
X100910000Y-161150000D02*
X100910000Y-163950000D01*
X100910000Y-163950000D02*
X98910000Y-163950000D01*
%TO.C,U14*%
D10*
X112950000Y-174040000D02*
X123010000Y-174040000D01*
X112950000Y-177080000D02*
X112950000Y-174040000D01*
X123010000Y-174040000D02*
X123010000Y-177080000D01*
X123010000Y-177080000D02*
X112950000Y-177080000D01*
X113010000Y-177310000D02*
G75*
G02*
X112950000Y-177310000I-30000J0D01*
G01*
X112950000Y-177310000D02*
G75*
G02*
X113010000Y-177310000I30000J0D01*
G01*
%TO.C,JP10*%
D12*
X106216081Y-164870810D02*
X108216081Y-164870810D01*
X106216081Y-167670810D02*
X106216081Y-164870810D01*
X108216081Y-164870810D02*
X108216081Y-167670810D01*
X108216081Y-167670810D02*
X106216081Y-167670810D01*
%TO.C,JP7*%
X101450000Y-161150000D02*
X103450000Y-161150000D01*
X101450000Y-163950000D02*
X101450000Y-161150000D01*
X103450000Y-161150000D02*
X103450000Y-163950000D01*
X103450000Y-163950000D02*
X101450000Y-163950000D01*
%TO.C,R33*%
X100695000Y-181003641D02*
X100695000Y-180696359D01*
X101455000Y-181003641D02*
X101455000Y-180696359D01*
%TO.C,JP14*%
X111980000Y-164900000D02*
X113980000Y-164900000D01*
X111980000Y-167700000D02*
X111980000Y-164900000D01*
X113980000Y-164900000D02*
X113980000Y-167700000D01*
X113980000Y-167700000D02*
X111980000Y-167700000D01*
%TO.C,R38*%
X103045000Y-181003641D02*
X103045000Y-180696359D01*
X103805000Y-181003641D02*
X103805000Y-180696359D01*
%TO.C,JP9*%
X103990000Y-161150000D02*
X105990000Y-161150000D01*
X103990000Y-163950000D02*
X103990000Y-161150000D01*
X105990000Y-161150000D02*
X105990000Y-163950000D01*
X105990000Y-163950000D02*
X103990000Y-163950000D01*
%TO.C,JP3*%
X95350000Y-161200000D02*
X97350000Y-161200000D01*
X95350000Y-164000000D02*
X95350000Y-161200000D01*
X97350000Y-161200000D02*
X97350000Y-164000000D01*
X97350000Y-164000000D02*
X95350000Y-164000000D01*
%TO.C,JP15*%
X113120000Y-161200000D02*
X115120000Y-161200000D01*
X113120000Y-164000000D02*
X113120000Y-161200000D01*
X115120000Y-161200000D02*
X115120000Y-164000000D01*
X115120000Y-164000000D02*
X113120000Y-164000000D01*
%TO.C,JP12*%
X108756081Y-164870810D02*
X110756081Y-164870810D01*
X108756081Y-167670810D02*
X108756081Y-164870810D01*
X110756081Y-164870810D02*
X110756081Y-167670810D01*
X110756081Y-167670810D02*
X108756081Y-167670810D01*
%TO.C,JP2*%
X94210000Y-164900000D02*
X96210000Y-164900000D01*
X94210000Y-167700000D02*
X94210000Y-164900000D01*
X96210000Y-164900000D02*
X96210000Y-167700000D01*
X96210000Y-167700000D02*
X94210000Y-167700000D01*
%TO.C,JP6*%
X100310000Y-164850000D02*
X102310000Y-164850000D01*
X100310000Y-167650000D02*
X100310000Y-164850000D01*
X102310000Y-164850000D02*
X102310000Y-167650000D01*
X102310000Y-167650000D02*
X100310000Y-167650000D01*
%TO.C,JP1*%
X92810000Y-161200000D02*
X94810000Y-161200000D01*
X92810000Y-164000000D02*
X92810000Y-161200000D01*
X94810000Y-161200000D02*
X94810000Y-164000000D01*
X94810000Y-164000000D02*
X92810000Y-164000000D01*
%TO.C,R39*%
X115695000Y-181178641D02*
X115695000Y-180871359D01*
X116455000Y-181178641D02*
X116455000Y-180871359D01*
%TO.C,JP18*%
X117910000Y-164900000D02*
X119910000Y-164900000D01*
X117910000Y-167700000D02*
X117910000Y-164900000D01*
X119910000Y-164900000D02*
X119910000Y-167700000D01*
X119910000Y-167700000D02*
X117910000Y-167700000D01*
%TO.C,JP21*%
X121590000Y-161200000D02*
X123590000Y-161200000D01*
X121590000Y-164000000D02*
X121590000Y-161200000D01*
X123590000Y-161200000D02*
X123590000Y-164000000D01*
X123590000Y-164000000D02*
X121590000Y-164000000D01*
%TO.C,R31*%
X112020000Y-181128641D02*
X112020000Y-180821359D01*
X112780000Y-181128641D02*
X112780000Y-180821359D01*
%TO.C,R37*%
X114420000Y-181153641D02*
X114420000Y-180846359D01*
X115180000Y-181153641D02*
X115180000Y-180846359D01*
%TO.C,R34*%
X113095000Y-181143641D02*
X113095000Y-180836359D01*
X113855000Y-181143641D02*
X113855000Y-180836359D01*
%TO.C,R30*%
X90520000Y-181078641D02*
X90520000Y-180771359D01*
X91280000Y-181078641D02*
X91280000Y-180771359D01*
%TO.C,JP17*%
X115660000Y-161200000D02*
X117660000Y-161200000D01*
X115660000Y-164000000D02*
X115660000Y-161200000D01*
X117660000Y-161200000D02*
X117660000Y-164000000D01*
X117660000Y-164000000D02*
X115660000Y-164000000D01*
%TO.C,JP8*%
X102850000Y-164850000D02*
X104850000Y-164850000D01*
X102850000Y-167650000D02*
X102850000Y-164850000D01*
X104850000Y-164850000D02*
X104850000Y-167650000D01*
X104850000Y-167650000D02*
X102850000Y-167650000D01*
%TO.C,JP11*%
X107356081Y-161170810D02*
X109356081Y-161170810D01*
X107356081Y-163970810D02*
X107356081Y-161170810D01*
X109356081Y-161170810D02*
X109356081Y-163970810D01*
X109356081Y-163970810D02*
X107356081Y-163970810D01*
%TO.C,JP20*%
X120450000Y-164900000D02*
X122450000Y-164900000D01*
X120450000Y-167700000D02*
X120450000Y-164900000D01*
X122450000Y-164900000D02*
X122450000Y-167700000D01*
X122450000Y-167700000D02*
X120450000Y-167700000D01*
%TO.C,JP16*%
X114520000Y-164900000D02*
X116520000Y-164900000D01*
X114520000Y-167700000D02*
X114520000Y-164900000D01*
X116520000Y-164900000D02*
X116520000Y-167700000D01*
X116520000Y-167700000D02*
X114520000Y-167700000D01*
%TO.C,JP19*%
X119050000Y-161200000D02*
X121050000Y-161200000D01*
X119050000Y-164000000D02*
X119050000Y-161200000D01*
X121050000Y-161200000D02*
X121050000Y-164000000D01*
X121050000Y-164000000D02*
X119050000Y-164000000D01*
%TO.C,JP13*%
X109896081Y-161170810D02*
X111896081Y-161170810D01*
X109896081Y-163970810D02*
X109896081Y-161170810D01*
X111896081Y-161170810D02*
X111896081Y-163970810D01*
X111896081Y-163970810D02*
X109896081Y-163970810D01*
%TO.C,R32*%
X91745000Y-181078641D02*
X91745000Y-180771359D01*
X92505000Y-181078641D02*
X92505000Y-180771359D01*
%TO.C,JP4*%
X97770000Y-164850000D02*
X99770000Y-164850000D01*
X97770000Y-167650000D02*
X97770000Y-164850000D01*
X99770000Y-164850000D02*
X99770000Y-167650000D01*
X99770000Y-167650000D02*
X97770000Y-167650000D01*
%TO.C,U12*%
D10*
X101630000Y-174030000D02*
X111690000Y-174030000D01*
X101630000Y-177070000D02*
X101630000Y-174030000D01*
X111690000Y-174030000D02*
X111690000Y-177070000D01*
X111690000Y-177070000D02*
X101630000Y-177070000D01*
X101690000Y-177300000D02*
G75*
G02*
X101630000Y-177300000I-30000J0D01*
G01*
X101630000Y-177300000D02*
G75*
G02*
X101690000Y-177300000I30000J0D01*
G01*
%TO.C,R35*%
D12*
X93830000Y-181103641D02*
X93830000Y-180796359D01*
X93070000Y-181103641D02*
X93070000Y-180796359D01*
%TO.C,R36*%
X101845000Y-181003641D02*
X101845000Y-180696359D01*
X102605000Y-181003641D02*
X102605000Y-180696359D01*
%TO.C,R40*%
X104955000Y-181003641D02*
X104955000Y-180696359D01*
X104195000Y-181003641D02*
X104195000Y-180696359D01*
%TD*%
%LPC*%
%TO.C,JP5*%
G36*
X99160000Y-162400000D02*
G01*
X100660000Y-162400000D01*
X100660000Y-162700000D01*
X99160000Y-162700000D01*
X99160000Y-162400000D01*
G37*
%TO.C,JP10*%
G36*
X106466081Y-166120810D02*
G01*
X107966081Y-166120810D01*
X107966081Y-166420810D01*
X106466081Y-166420810D01*
X106466081Y-166120810D01*
G37*
%TO.C,JP7*%
G36*
X101700000Y-162400000D02*
G01*
X103200000Y-162400000D01*
X103200000Y-162700000D01*
X101700000Y-162700000D01*
X101700000Y-162400000D01*
G37*
%TO.C,JP14*%
G36*
X112230000Y-166150000D02*
G01*
X113730000Y-166150000D01*
X113730000Y-166450000D01*
X112230000Y-166450000D01*
X112230000Y-166150000D01*
G37*
%TO.C,JP9*%
G36*
X104240000Y-162400000D02*
G01*
X105740000Y-162400000D01*
X105740000Y-162700000D01*
X104240000Y-162700000D01*
X104240000Y-162400000D01*
G37*
%TO.C,JP3*%
G36*
X95600000Y-162450000D02*
G01*
X97100000Y-162450000D01*
X97100000Y-162750000D01*
X95600000Y-162750000D01*
X95600000Y-162450000D01*
G37*
%TO.C,JP15*%
G36*
X113370000Y-162450000D02*
G01*
X114870000Y-162450000D01*
X114870000Y-162750000D01*
X113370000Y-162750000D01*
X113370000Y-162450000D01*
G37*
%TO.C,JP12*%
G36*
X109006081Y-166120810D02*
G01*
X110506081Y-166120810D01*
X110506081Y-166420810D01*
X109006081Y-166420810D01*
X109006081Y-166120810D01*
G37*
%TO.C,JP2*%
G36*
X94460000Y-166150000D02*
G01*
X95960000Y-166150000D01*
X95960000Y-166450000D01*
X94460000Y-166450000D01*
X94460000Y-166150000D01*
G37*
%TO.C,JP6*%
G36*
X100560000Y-166100000D02*
G01*
X102060000Y-166100000D01*
X102060000Y-166400000D01*
X100560000Y-166400000D01*
X100560000Y-166100000D01*
G37*
%TO.C,JP1*%
G36*
X93060000Y-162450000D02*
G01*
X94560000Y-162450000D01*
X94560000Y-162750000D01*
X93060000Y-162750000D01*
X93060000Y-162450000D01*
G37*
%TO.C,JP18*%
G36*
X118160000Y-166150000D02*
G01*
X119660000Y-166150000D01*
X119660000Y-166450000D01*
X118160000Y-166450000D01*
X118160000Y-166150000D01*
G37*
%TO.C,JP21*%
G36*
X121840000Y-162450000D02*
G01*
X123340000Y-162450000D01*
X123340000Y-162750000D01*
X121840000Y-162750000D01*
X121840000Y-162450000D01*
G37*
%TO.C,JP17*%
G36*
X115910000Y-162450000D02*
G01*
X117410000Y-162450000D01*
X117410000Y-162750000D01*
X115910000Y-162750000D01*
X115910000Y-162450000D01*
G37*
%TO.C,JP8*%
G36*
X103100000Y-166100000D02*
G01*
X104600000Y-166100000D01*
X104600000Y-166400000D01*
X103100000Y-166400000D01*
X103100000Y-166100000D01*
G37*
%TO.C,JP11*%
G36*
X107606081Y-162420810D02*
G01*
X109106081Y-162420810D01*
X109106081Y-162720810D01*
X107606081Y-162720810D01*
X107606081Y-162420810D01*
G37*
%TO.C,JP20*%
G36*
X120700000Y-166150000D02*
G01*
X122200000Y-166150000D01*
X122200000Y-166450000D01*
X120700000Y-166450000D01*
X120700000Y-166150000D01*
G37*
%TO.C,JP16*%
G36*
X114770000Y-166150000D02*
G01*
X116270000Y-166150000D01*
X116270000Y-166450000D01*
X114770000Y-166450000D01*
X114770000Y-166150000D01*
G37*
%TO.C,JP19*%
G36*
X119300000Y-162450000D02*
G01*
X120800000Y-162450000D01*
X120800000Y-162750000D01*
X119300000Y-162750000D01*
X119300000Y-162450000D01*
G37*
%TO.C,JP13*%
G36*
X110146081Y-162420810D02*
G01*
X111646081Y-162420810D01*
X111646081Y-162720810D01*
X110146081Y-162720810D01*
X110146081Y-162420810D01*
G37*
%TO.C,JP4*%
G36*
X98020000Y-166100000D02*
G01*
X99520000Y-166100000D01*
X99520000Y-166400000D01*
X98020000Y-166400000D01*
X98020000Y-166100000D01*
G37*
%TD*%
D14*
%TO.C,J2*%
X86165000Y-153630000D03*
X83625000Y-153630000D03*
X86165000Y-151090000D03*
X83625000Y-151090000D03*
X86165000Y-148550000D03*
X83625000Y-148550000D03*
X86165000Y-146010000D03*
X83625000Y-146010000D03*
X86165000Y-143470000D03*
X83625000Y-143470000D03*
X86165000Y-140930000D03*
X83625000Y-140930000D03*
X86165000Y-138390000D03*
X83625000Y-138390000D03*
X86165000Y-135850000D03*
X83625000Y-135850000D03*
X86165000Y-133310000D03*
X83625000Y-133310000D03*
X86165000Y-130770000D03*
D15*
X83625000Y-130770000D03*
%TD*%
D16*
%TO.C,L1*%
X109200000Y-131900000D03*
X111200000Y-131900000D03*
%TD*%
D17*
%TO.C,U6*%
X72095000Y-200830000D03*
X72095000Y-199560000D03*
X72095000Y-198290000D03*
X72095000Y-197020000D03*
X72095000Y-195750000D03*
X72095000Y-194480000D03*
X72095000Y-193210000D03*
X72095000Y-191940000D03*
X77820000Y-191940000D03*
X77820000Y-193210000D03*
X77820000Y-194480000D03*
X77820000Y-195750000D03*
X77820000Y-197020000D03*
X77820000Y-198290000D03*
X77820000Y-199560000D03*
X77820000Y-200830000D03*
%TD*%
D18*
%TO.C,D18*%
X101435000Y-192950000D03*
X101435000Y-193550000D03*
D19*
X102385000Y-193550000D03*
D18*
X102385000Y-192950000D03*
%TD*%
%TO.C,D17*%
X99235000Y-192950000D03*
X99235000Y-193550000D03*
D19*
X100185000Y-193550000D03*
D18*
X100185000Y-192950000D03*
%TD*%
%TO.C,D16*%
X97035000Y-192950000D03*
X97035000Y-193550000D03*
D19*
X97985000Y-193550000D03*
D18*
X97985000Y-192950000D03*
%TD*%
%TO.C,D15*%
X103635000Y-190750000D03*
X103635000Y-191350000D03*
D19*
X104585000Y-191350000D03*
D18*
X104585000Y-190750000D03*
%TD*%
%TO.C,D14*%
X101435000Y-190750000D03*
X101435000Y-191350000D03*
D19*
X102385000Y-191350000D03*
D18*
X102385000Y-190750000D03*
%TD*%
%TO.C,D13*%
X99235000Y-190750000D03*
X99235000Y-191350000D03*
D19*
X100185000Y-191350000D03*
D18*
X100185000Y-190750000D03*
%TD*%
%TO.C,D12*%
X97035000Y-190750000D03*
X97035000Y-191350000D03*
D19*
X97985000Y-191350000D03*
D18*
X97985000Y-190750000D03*
%TD*%
%TO.C,D11*%
X103635000Y-188550000D03*
X103635000Y-189150000D03*
D19*
X104585000Y-189150000D03*
D18*
X104585000Y-188550000D03*
%TD*%
%TO.C,D10*%
X101435000Y-188550000D03*
X101435000Y-189150000D03*
D19*
X102385000Y-189150000D03*
D18*
X102385000Y-188550000D03*
%TD*%
%TO.C,D9*%
X99235000Y-188550000D03*
X99235000Y-189150000D03*
D19*
X100185000Y-189150000D03*
D18*
X100185000Y-188550000D03*
%TD*%
%TO.C,D8*%
X97035000Y-188550000D03*
X97035000Y-189150000D03*
D19*
X97985000Y-189150000D03*
D18*
X97985000Y-188550000D03*
%TD*%
%TO.C,D7*%
X103635000Y-186350000D03*
X103635000Y-186950000D03*
D19*
X104585000Y-186950000D03*
D18*
X104585000Y-186350000D03*
%TD*%
%TO.C,D6*%
X101435000Y-186350000D03*
X101435000Y-186950000D03*
D19*
X102385000Y-186950000D03*
D18*
X102385000Y-186350000D03*
%TD*%
%TO.C,D5*%
X99235000Y-186350000D03*
X99235000Y-186950000D03*
D19*
X100185000Y-186950000D03*
D18*
X100185000Y-186350000D03*
%TD*%
%TO.C,D4*%
X97035000Y-186350000D03*
X97035000Y-186950000D03*
D19*
X97985000Y-186950000D03*
D18*
X97985000Y-186350000D03*
%TD*%
%TO.C,D19*%
X103635000Y-192950000D03*
X103635000Y-193550000D03*
D19*
X104585000Y-193550000D03*
D18*
X104585000Y-192950000D03*
%TD*%
D20*
%TO.C,R26*%
X101330000Y-199950000D03*
X100310000Y-199950000D03*
%TD*%
%TO.C,R24*%
X96730000Y-200000000D03*
X95710000Y-200000000D03*
%TD*%
D21*
%TO.C,Q4*%
X100295000Y-198500000D03*
X102195000Y-198500000D03*
X101245000Y-196620000D03*
%TD*%
D22*
%TO.C,TP8*%
X82020000Y-203200000D03*
%TD*%
D20*
%TO.C,R23*%
X81770000Y-197050000D03*
X80750000Y-197050000D03*
%TD*%
D23*
%TO.C,R25*%
X87420000Y-205310000D03*
X87420000Y-204290000D03*
%TD*%
D21*
%TO.C,Q3*%
X95670000Y-198500000D03*
X97570000Y-198500000D03*
X96620000Y-196620000D03*
%TD*%
D22*
%TO.C,TP9*%
X85570000Y-203200000D03*
%TD*%
D24*
%TO.C,C27*%
X91170000Y-204200000D03*
X91170000Y-208600000D03*
%TD*%
D20*
%TO.C,R27*%
X105980000Y-199950000D03*
X104960000Y-199950000D03*
%TD*%
D21*
%TO.C,Q6*%
X110495000Y-196620000D03*
X111445000Y-198500000D03*
X109545000Y-198500000D03*
%TD*%
D20*
%TO.C,R28*%
X110530000Y-199950000D03*
X109510000Y-199950000D03*
%TD*%
D21*
%TO.C,Q5*%
X105870000Y-196620000D03*
X106820000Y-198500000D03*
X104920000Y-198500000D03*
%TD*%
D25*
%TO.C,J3*%
X105930000Y-110270000D03*
D26*
X105930000Y-114470000D03*
D27*
X110260000Y-110650000D03*
D25*
X114590000Y-110270000D03*
D26*
X114590000Y-114470000D03*
D28*
X113460000Y-115150000D03*
X112660000Y-115150000D03*
D29*
X112010000Y-115150000D03*
X111010000Y-115150000D03*
X109510000Y-115150000D03*
X108510000Y-115150000D03*
D28*
X107060000Y-115150000D03*
X107860000Y-115150000D03*
D29*
X109010000Y-115150000D03*
X110010000Y-115150000D03*
X110510000Y-115150000D03*
X111510000Y-115150000D03*
D30*
X107370000Y-113950000D03*
X113150000Y-113950000D03*
%TD*%
D31*
%TO.C,U2*%
X102100000Y-136750000D03*
X102100000Y-137150000D03*
X102100000Y-137550000D03*
X102100000Y-137950000D03*
X102100000Y-138350000D03*
X102100000Y-138750000D03*
X102100000Y-139150000D03*
X102100000Y-139550000D03*
X102100000Y-139950000D03*
X102100000Y-140350000D03*
X102100000Y-140750000D03*
X102100000Y-141150000D03*
X102100000Y-141550000D03*
X102100000Y-141950000D03*
X102100000Y-142350000D03*
X102100000Y-142750000D03*
X102100000Y-143150000D03*
X102100000Y-143550000D03*
X102100000Y-143950000D03*
X102100000Y-144350000D03*
D32*
X103250000Y-145500000D03*
X103650000Y-145500000D03*
X104050000Y-145500000D03*
X104450000Y-145500000D03*
X104850000Y-145500000D03*
X105250000Y-145500000D03*
X105650000Y-145500000D03*
X106050000Y-145500000D03*
X106450000Y-145500000D03*
X106850000Y-145500000D03*
X107250000Y-145500000D03*
X107650000Y-145500000D03*
X108050000Y-145500000D03*
X108450000Y-145500000D03*
X108850000Y-145500000D03*
X109250000Y-145500000D03*
X109650000Y-145500000D03*
X110050000Y-145500000D03*
X110450000Y-145500000D03*
X110850000Y-145500000D03*
D31*
X112000000Y-144350000D03*
X112000000Y-143950000D03*
X112000000Y-143550000D03*
X112000000Y-143150000D03*
X112000000Y-142750000D03*
X112000000Y-142350000D03*
X112000000Y-141950000D03*
X112000000Y-141550000D03*
X112000000Y-141150000D03*
X112000000Y-140750000D03*
X112000000Y-140350000D03*
X112000000Y-139950000D03*
X112000000Y-139550000D03*
X112000000Y-139150000D03*
X112000000Y-138750000D03*
X112000000Y-138350000D03*
X112000000Y-137950000D03*
X112000000Y-137550000D03*
X112000000Y-137150000D03*
X112000000Y-136750000D03*
D32*
X110850000Y-135600000D03*
X110450000Y-135600000D03*
X110050000Y-135600000D03*
X109650000Y-135600000D03*
X109250000Y-135600000D03*
X108850000Y-135600000D03*
X108450000Y-135600000D03*
X108050000Y-135600000D03*
X107650000Y-135600000D03*
X107250000Y-135600000D03*
X106850000Y-135600000D03*
X106450000Y-135600000D03*
X106050000Y-135600000D03*
X105650000Y-135600000D03*
X105250000Y-135600000D03*
X104850000Y-135600000D03*
X104450000Y-135600000D03*
X104050000Y-135600000D03*
X103650000Y-135600000D03*
X103250000Y-135600000D03*
D33*
X107050000Y-140550000D03*
%TD*%
D34*
%TO.C,U3*%
X118825000Y-121000000D03*
X118825000Y-121500000D03*
X118825000Y-122000000D03*
X118825000Y-122500000D03*
X118825000Y-123000000D03*
X118825000Y-123500000D03*
D35*
X119562500Y-124237500D03*
X120062500Y-124237500D03*
X120562500Y-124237500D03*
X121062500Y-124237500D03*
X121562500Y-124237500D03*
X122062500Y-124237500D03*
D34*
X122800000Y-123500000D03*
X122800000Y-123000000D03*
X122800000Y-122500000D03*
X122800000Y-122000000D03*
X122800000Y-121500000D03*
X122800000Y-121000000D03*
D35*
X122062500Y-120262500D03*
X121562500Y-120262500D03*
X121062500Y-120262500D03*
X120562500Y-120262500D03*
X120062500Y-120262500D03*
X119562500Y-120262500D03*
D36*
X120812500Y-122250000D03*
%TD*%
D37*
%TO.C,BT1*%
X148450000Y-208250000D03*
X148450000Y-126950000D03*
%TD*%
D38*
%TO.C,Y1*%
X105950000Y-155450000D03*
X108150000Y-155450000D03*
X108150000Y-153750000D03*
X105950000Y-153750000D03*
%TD*%
D15*
%TO.C,J5*%
X112845000Y-151295000D03*
D14*
X112845000Y-153835000D03*
X112845000Y-156375000D03*
%TD*%
D39*
%TO.C,C14*%
X103830000Y-147450000D03*
X102870000Y-147450000D03*
%TD*%
%TO.C,C1*%
X106180000Y-151000000D03*
X105220000Y-151000000D03*
%TD*%
%TO.C,C6*%
X99830000Y-140300000D03*
X98870000Y-140300000D03*
%TD*%
%TO.C,C16*%
X99830000Y-142500000D03*
X98870000Y-142500000D03*
%TD*%
D40*
%TO.C,C2*%
X108220000Y-151000000D03*
X109180000Y-151000000D03*
%TD*%
D41*
%TO.C,C8*%
X108500000Y-149380000D03*
X108500000Y-148420000D03*
%TD*%
%TO.C,C13*%
X106025000Y-149405000D03*
X106025000Y-148445000D03*
%TD*%
D42*
%TO.C,R3*%
X107150000Y-149410000D03*
X107150000Y-148390000D03*
%TD*%
D43*
%TO.C,Q7*%
X122090000Y-141250000D03*
X120210000Y-141250000D03*
%TD*%
D44*
%TO.C,SW2*%
X116750000Y-148112500D03*
X113350000Y-148112500D03*
%TD*%
D42*
%TO.C,R4*%
X116800000Y-149890000D03*
X116800000Y-150910000D03*
%TD*%
D40*
%TO.C,C9*%
X115970000Y-140550000D03*
X116930000Y-140550000D03*
%TD*%
%TO.C,C18*%
X115220000Y-141475000D03*
X116180000Y-141475000D03*
%TD*%
D23*
%TO.C,R42*%
X118775000Y-141710000D03*
X118775000Y-140690000D03*
%TD*%
D40*
%TO.C,C15*%
X114345000Y-145050000D03*
X115305000Y-145050000D03*
%TD*%
D23*
%TO.C,R41*%
X125725000Y-131385000D03*
X125725000Y-130365000D03*
%TD*%
%TO.C,R43*%
X127150000Y-136659999D03*
X127150000Y-135640001D03*
%TD*%
D14*
%TO.C,J4*%
X129525000Y-133200000D03*
X132065000Y-133200000D03*
X129525000Y-135740000D03*
X132065000Y-135740000D03*
X129525000Y-138280000D03*
X132065000Y-138280000D03*
X129525000Y-140820000D03*
X132065000Y-140820000D03*
X129525000Y-143360000D03*
X132065000Y-143360000D03*
X129525000Y-145900000D03*
X132065000Y-145900000D03*
X129525000Y-148440000D03*
X132065000Y-148440000D03*
X129525000Y-150980000D03*
D15*
X132065000Y-150980000D03*
%TD*%
D45*
%TO.C,R45*%
X123540000Y-131825000D03*
X124560000Y-131825000D03*
%TD*%
D42*
%TO.C,R5*%
X112550000Y-131615000D03*
X112550000Y-132635000D03*
%TD*%
D46*
%TO.C,MK1*%
X121780000Y-129760000D03*
X121780000Y-131690000D03*
X120770000Y-131690000D03*
X120770000Y-129760000D03*
%TD*%
D47*
%TO.C,R1*%
X116850000Y-135580000D03*
X116850000Y-137220000D03*
%TD*%
D45*
%TO.C,R19*%
X117600000Y-128200000D03*
X118620000Y-128200000D03*
%TD*%
D22*
%TO.C,TP3*%
X116340000Y-131590000D03*
%TD*%
D23*
%TO.C,R46*%
X121375000Y-134860000D03*
X121375000Y-133840000D03*
%TD*%
D45*
%TO.C,R17*%
X121400000Y-128200000D03*
X122420000Y-128200000D03*
%TD*%
%TO.C,R20*%
X119500000Y-128200000D03*
X120520000Y-128200000D03*
%TD*%
D40*
%TO.C,C35*%
X123560000Y-129710000D03*
X124520000Y-129710000D03*
%TD*%
D39*
%TO.C,C11*%
X114800000Y-137100000D03*
X113840000Y-137100000D03*
%TD*%
D22*
%TO.C,TP11*%
X120900000Y-136900000D03*
%TD*%
D20*
%TO.C,R44*%
X124810000Y-136275000D03*
X123790000Y-136275000D03*
%TD*%
D41*
%TO.C,C7*%
X112550000Y-133540000D03*
X112550000Y-134500000D03*
%TD*%
D39*
%TO.C,C38*%
X124755000Y-137300000D03*
X123795000Y-137300000D03*
%TD*%
D40*
%TO.C,C39*%
X113820000Y-136150000D03*
X114780000Y-136150000D03*
%TD*%
D41*
%TO.C,C36*%
X126000000Y-135945000D03*
X126000000Y-136905000D03*
%TD*%
D40*
%TO.C,C37*%
X123550000Y-130800000D03*
X124510000Y-130800000D03*
%TD*%
D48*
%TO.C,U22*%
X125350000Y-134950000D03*
X125350000Y-134000000D03*
X125350000Y-133050000D03*
X122750000Y-133050000D03*
X122750000Y-134950000D03*
%TD*%
D49*
%TO.C,C26*%
X155700000Y-114220000D03*
X155700000Y-115180000D03*
%TD*%
D20*
%TO.C,R21*%
X138460000Y-114100000D03*
X137440000Y-114100000D03*
%TD*%
D50*
%TO.C,SW3*%
X133545000Y-122230000D03*
X133545000Y-124770000D03*
X142155000Y-124770000D03*
X142155000Y-122230000D03*
%TD*%
D21*
%TO.C,Q1*%
X140700000Y-115440000D03*
X142600000Y-115440000D03*
X141650000Y-113560000D03*
%TD*%
D49*
%TO.C,C25*%
X146910000Y-119100000D03*
X146910000Y-120060000D03*
%TD*%
D51*
%TO.C,Q2*%
X139112500Y-116660000D03*
X137212500Y-116660000D03*
X138162500Y-118540000D03*
%TD*%
D52*
%TO.C,U4*%
X149300000Y-121950000D03*
D53*
X155600000Y-119650000D03*
D52*
X149300000Y-119650000D03*
X149300000Y-117350000D03*
%TD*%
D42*
%TO.C,R22*%
X140650000Y-118660000D03*
X140650000Y-117640000D03*
%TD*%
D54*
%TO.C,D2*%
X118700000Y-112337500D03*
X118700000Y-110762500D03*
%TD*%
D23*
%TO.C,R9*%
X121450000Y-114860000D03*
X121450000Y-113840000D03*
%TD*%
%TO.C,R10*%
X118700000Y-113740000D03*
X118700000Y-114760000D03*
%TD*%
D54*
%TO.C,D1*%
X121450000Y-112337500D03*
X121450000Y-110762500D03*
%TD*%
D42*
%TO.C,R12*%
X111950000Y-119310000D03*
X111950000Y-118290000D03*
%TD*%
D41*
%TO.C,C23*%
X124700000Y-122200000D03*
X124700000Y-121240000D03*
%TD*%
D40*
%TO.C,C4*%
X110521779Y-134475000D03*
X109561779Y-134475000D03*
%TD*%
D55*
%TO.C,R14*%
X113800000Y-121312500D03*
X113800000Y-118387500D03*
%TD*%
D49*
%TO.C,C22*%
X119600000Y-116770000D03*
X119600000Y-117730000D03*
%TD*%
D41*
%TO.C,C21*%
X123800000Y-125630000D03*
X123800000Y-124670000D03*
%TD*%
D42*
%TO.C,R18*%
X121550000Y-126660000D03*
X121550000Y-125640000D03*
%TD*%
%TO.C,R8*%
X107950000Y-134010000D03*
X107950000Y-132990000D03*
%TD*%
D56*
%TO.C,C19*%
X116950589Y-120039411D03*
X117629411Y-119360589D03*
%TD*%
D57*
%TO.C,L2*%
X126290000Y-122027500D03*
X126290000Y-120452500D03*
%TD*%
D22*
%TO.C,TP4*%
X111150000Y-122750000D03*
%TD*%
D40*
%TO.C,C5*%
X110516779Y-133550000D03*
X109556779Y-133550000D03*
%TD*%
D22*
%TO.C,TP2*%
X129700000Y-119800000D03*
%TD*%
%TO.C,TP6*%
X129700000Y-116200000D03*
%TD*%
%TO.C,TP10*%
X126275000Y-128375000D03*
%TD*%
D58*
%TO.C,D3*%
X118237500Y-126700000D03*
X116662500Y-126700000D03*
%TD*%
D59*
%TO.C,C20*%
X122375000Y-117150000D03*
X120825000Y-117150000D03*
%TD*%
D41*
%TO.C,C24*%
X127650000Y-122160000D03*
X127650000Y-121200000D03*
%TD*%
D42*
%TO.C,R16*%
X120550000Y-126660000D03*
X120550000Y-125640000D03*
%TD*%
D60*
%TO.C,R13*%
X116589376Y-123260624D03*
X117310624Y-122539376D03*
%TD*%
D22*
%TO.C,TP5*%
X110410000Y-128870000D03*
%TD*%
%TO.C,TP7*%
X129700000Y-125300000D03*
%TD*%
D23*
%TO.C,R15*%
X119500000Y-125640000D03*
X119500000Y-126660000D03*
%TD*%
D42*
%TO.C,R7*%
X106950000Y-132990000D03*
X106950000Y-134010000D03*
%TD*%
D60*
%TO.C,R11*%
X107910624Y-118289376D03*
X107189376Y-119010624D03*
%TD*%
D49*
%TO.C,C10*%
X105900000Y-133980000D03*
X105900000Y-133020000D03*
%TD*%
%TO.C,C17*%
X104675000Y-133045000D03*
X104675000Y-134005000D03*
%TD*%
D14*
%TO.C,J1*%
X80320000Y-116640000D03*
X80320000Y-114100000D03*
X82860000Y-116640000D03*
X82860000Y-114100000D03*
X85400000Y-116640000D03*
X85400000Y-114100000D03*
X87940000Y-116640000D03*
X87940000Y-114100000D03*
X90480000Y-116640000D03*
X90480000Y-114100000D03*
X93020000Y-116640000D03*
X93020000Y-114100000D03*
X95560000Y-116640000D03*
X95560000Y-114100000D03*
X98100000Y-116640000D03*
X98100000Y-114100000D03*
X100640000Y-116640000D03*
X100640000Y-114100000D03*
X103180000Y-116640000D03*
D15*
X103180000Y-114100000D03*
%TD*%
D61*
%TO.C,SW1*%
X104162500Y-131100000D03*
X104162500Y-127700000D03*
%TD*%
D45*
%TO.C,R6*%
X104810000Y-126500000D03*
X103790000Y-126500000D03*
%TD*%
D39*
%TO.C,C12*%
X98870000Y-138200000D03*
X99830000Y-138200000D03*
%TD*%
D22*
%TO.C,TP1*%
X103850000Y-122950000D03*
%TD*%
D23*
%TO.C,R29*%
X89600000Y-180425000D03*
X89600000Y-181445000D03*
%TD*%
D62*
%TO.C,U10*%
X90850000Y-172620000D03*
X92130000Y-172620000D03*
X93390000Y-172620000D03*
X94660000Y-172620000D03*
X95940000Y-172620000D03*
X97210000Y-172620000D03*
X98470000Y-172620000D03*
X99750000Y-172620000D03*
X99750000Y-178100000D03*
X98470000Y-178100000D03*
X97210000Y-178100000D03*
X95940000Y-178100000D03*
X94660000Y-178100000D03*
X93390000Y-178100000D03*
X92130000Y-178100000D03*
X90850000Y-178100000D03*
%TD*%
D63*
%TO.C,JP5*%
X99910000Y-161900000D03*
X99910000Y-163200000D03*
%TD*%
D62*
%TO.C,U14*%
X113530000Y-178300000D03*
X114810000Y-178300000D03*
X116070000Y-178300000D03*
X117340000Y-178300000D03*
X118620000Y-178300000D03*
X119890000Y-178300000D03*
X121150000Y-178300000D03*
X122430000Y-178300000D03*
X122430000Y-172820000D03*
X121150000Y-172820000D03*
X119890000Y-172820000D03*
X118620000Y-172820000D03*
X117340000Y-172820000D03*
X116070000Y-172820000D03*
X114810000Y-172820000D03*
X113530000Y-172820000D03*
%TD*%
D63*
%TO.C,JP10*%
X107216081Y-165620810D03*
X107216081Y-166920810D03*
%TD*%
%TO.C,JP7*%
X102450000Y-161900000D03*
X102450000Y-163200000D03*
%TD*%
D23*
%TO.C,R33*%
X101075000Y-181360000D03*
X101075000Y-180340000D03*
%TD*%
D63*
%TO.C,JP14*%
X112980000Y-165650000D03*
X112980000Y-166950000D03*
%TD*%
D23*
%TO.C,R38*%
X103425000Y-181360000D03*
X103425000Y-180340000D03*
%TD*%
D63*
%TO.C,JP9*%
X104990000Y-161900000D03*
X104990000Y-163200000D03*
%TD*%
%TO.C,JP3*%
X96350000Y-161950000D03*
X96350000Y-163250000D03*
%TD*%
%TO.C,JP15*%
X114120000Y-161950000D03*
X114120000Y-163250000D03*
%TD*%
%TO.C,JP12*%
X109756081Y-165620810D03*
X109756081Y-166920810D03*
%TD*%
%TO.C,JP2*%
X95210000Y-165650000D03*
X95210000Y-166950000D03*
%TD*%
%TO.C,JP6*%
X101310000Y-165600000D03*
X101310000Y-166900000D03*
%TD*%
%TO.C,JP1*%
X93810000Y-161950000D03*
X93810000Y-163250000D03*
%TD*%
D23*
%TO.C,R39*%
X116075000Y-181535000D03*
X116075000Y-180515000D03*
%TD*%
D63*
%TO.C,JP18*%
X118910000Y-165650000D03*
X118910000Y-166950000D03*
%TD*%
%TO.C,JP21*%
X122590000Y-161950000D03*
X122590000Y-163250000D03*
%TD*%
D23*
%TO.C,R31*%
X112400000Y-181485000D03*
X112400000Y-180465000D03*
%TD*%
%TO.C,R37*%
X114800000Y-181510000D03*
X114800000Y-180490000D03*
%TD*%
%TO.C,R34*%
X113475000Y-181500000D03*
X113475000Y-180480000D03*
%TD*%
%TO.C,R30*%
X90900000Y-181435000D03*
X90900000Y-180415000D03*
%TD*%
D63*
%TO.C,JP17*%
X116660000Y-161950000D03*
X116660000Y-163250000D03*
%TD*%
%TO.C,JP8*%
X103850000Y-165600000D03*
X103850000Y-166900000D03*
%TD*%
%TO.C,JP11*%
X108356081Y-161920810D03*
X108356081Y-163220810D03*
%TD*%
%TO.C,JP20*%
X121450000Y-165650000D03*
X121450000Y-166950000D03*
%TD*%
%TO.C,JP16*%
X115520000Y-165650000D03*
X115520000Y-166950000D03*
%TD*%
%TO.C,JP19*%
X120050000Y-161950000D03*
X120050000Y-163250000D03*
%TD*%
%TO.C,JP13*%
X110896081Y-161920810D03*
X110896081Y-163220810D03*
%TD*%
D23*
%TO.C,R32*%
X92125000Y-181435000D03*
X92125000Y-180415000D03*
%TD*%
D63*
%TO.C,JP4*%
X98770000Y-165600000D03*
X98770000Y-166900000D03*
%TD*%
D62*
%TO.C,U12*%
X102210000Y-178290000D03*
X103490000Y-178290000D03*
X104750000Y-178290000D03*
X106020000Y-178290000D03*
X107300000Y-178290000D03*
X108570000Y-178290000D03*
X109830000Y-178290000D03*
X111110000Y-178290000D03*
X111110000Y-172810000D03*
X109830000Y-172810000D03*
X108570000Y-172810000D03*
X107300000Y-172810000D03*
X106020000Y-172810000D03*
X104750000Y-172810000D03*
X103490000Y-172810000D03*
X102210000Y-172810000D03*
%TD*%
D23*
%TO.C,R35*%
X93450000Y-180440000D03*
X93450000Y-181460000D03*
%TD*%
%TO.C,R36*%
X102225000Y-181360000D03*
X102225000Y-180340000D03*
%TD*%
%TO.C,R40*%
X104575000Y-180340000D03*
X104575000Y-181360000D03*
%TD*%
%LPD*%
M02*
