%TF.GenerationSoftware,KiCad,Pcbnew,10.0.3-2.fc44*%
%TF.CreationDate,2026-08-18T12:23:17+02:00*%
%TF.ProjectId,panel,70616e65-6c2e-46b6-9963-61645f706362,rev?*%
%TF.SameCoordinates,Original*%
%TF.FileFunction,Drillmap*%
%TF.FilePolarity,Positive*%
%FSLAX45Y45*%
G04 Gerber Fmt 4.5, Leading zero omitted, Abs format (unit mm)*
G04 Created by KiCad (PCBNEW 10.0.3-2.fc44) date 2026-08-18 12:23:17*
%MOMM*%
%LPD*%
G01*
G04 APERTURE LIST*
%ADD10C,0.100000*%
%ADD11C,0.200000*%
%ADD12C,0.115200*%
G04 APERTURE END LIST*
D10*
X27Y-18399875D02*
X1227Y-18400000D01*
X62Y-51D02*
X27Y-18399875D01*
X1227Y-18400000D02*
X20399938Y-18399949D01*
X500000Y-1549901D02*
X500120Y-1544998D01*
X500000Y-2100099D02*
X500000Y-1549901D01*
X500000Y-7299901D02*
X500120Y-7294998D01*
X500000Y-7850099D02*
X500000Y-7299901D01*
X500000Y-10549901D02*
X500120Y-10544998D01*
X500000Y-11100099D02*
X500000Y-10549901D01*
X500000Y-16299901D02*
X500120Y-16294998D01*
X500000Y-16850099D02*
X500000Y-16299901D01*
X500120Y-1544998D02*
X500481Y-1540108D01*
X500120Y-2105002D02*
X500000Y-2100099D01*
X500120Y-7294998D02*
X500481Y-7290108D01*
X500120Y-7855002D02*
X500000Y-7850099D01*
X500120Y-10544998D02*
X500481Y-10540108D01*
X500120Y-11105002D02*
X500000Y-11100099D01*
X500120Y-16294998D02*
X500481Y-16290108D01*
X500120Y-16855002D02*
X500000Y-16850099D01*
X500481Y-1540108D02*
X501081Y-1535242D01*
X500481Y-2109892D02*
X500120Y-2105002D01*
X500481Y-7290108D02*
X501081Y-7285242D01*
X500481Y-7859892D02*
X500120Y-7855002D01*
X500481Y-10540108D02*
X501081Y-10535242D01*
X500481Y-11109892D02*
X500120Y-11105002D01*
X500481Y-16290108D02*
X501081Y-16285242D01*
X500481Y-16859892D02*
X500120Y-16855002D01*
X501081Y-1535242D02*
X501919Y-1530410D01*
X501081Y-2114758D02*
X500481Y-2109892D01*
X501081Y-7285242D02*
X501919Y-7280410D01*
X501081Y-7864758D02*
X500481Y-7859892D01*
X501081Y-10535242D02*
X501919Y-10530410D01*
X501081Y-11114758D02*
X500481Y-11109892D01*
X501081Y-16285242D02*
X501919Y-16280410D01*
X501081Y-16864758D02*
X500481Y-16859892D01*
X501919Y-1530410D02*
X502994Y-1525626D01*
X501919Y-2119590D02*
X501081Y-2114758D01*
X501919Y-7280410D02*
X502994Y-7275626D01*
X501919Y-7869589D02*
X501081Y-7864758D01*
X501919Y-10530410D02*
X502994Y-10525626D01*
X501919Y-11119590D02*
X501081Y-11114758D01*
X501919Y-16280410D02*
X502994Y-16275626D01*
X501919Y-16869590D02*
X501081Y-16864758D01*
X502994Y-1525626D02*
X504302Y-1520900D01*
X502994Y-2124374D02*
X501919Y-2119590D01*
X502994Y-7275626D02*
X504302Y-7270900D01*
X502994Y-7874374D02*
X501919Y-7869589D01*
X502994Y-10525626D02*
X504302Y-10520901D01*
X502994Y-11124374D02*
X501919Y-11119590D01*
X502994Y-16275626D02*
X504302Y-16270900D01*
X502994Y-16874374D02*
X501919Y-16869590D01*
X504302Y-1520900D02*
X505840Y-1516245D01*
X504302Y-2129099D02*
X502994Y-2124374D01*
X504302Y-7270900D02*
X505840Y-7266245D01*
X504302Y-7879099D02*
X502994Y-7874374D01*
X504302Y-10520901D02*
X505840Y-10516245D01*
X504302Y-11129099D02*
X502994Y-11124374D01*
X504302Y-16270900D02*
X505840Y-16266245D01*
X504302Y-16879099D02*
X502994Y-16874374D01*
X505840Y-1516245D02*
X507604Y-1511670D01*
X505840Y-2133755D02*
X504302Y-2129099D01*
X505840Y-7266245D02*
X507604Y-7261670D01*
X505840Y-7883755D02*
X504302Y-7879099D01*
X505840Y-10516245D02*
X507604Y-10511670D01*
X505840Y-11133755D02*
X504302Y-11129099D01*
X505840Y-16266245D02*
X507604Y-16261670D01*
X505840Y-16883755D02*
X504302Y-16879099D01*
X507604Y-1511670D02*
X509591Y-1507187D01*
X507604Y-2138330D02*
X505840Y-2133755D01*
X507604Y-7261670D02*
X509591Y-7257187D01*
X507604Y-7888330D02*
X505840Y-7883755D01*
X507604Y-10511670D02*
X509591Y-10507187D01*
X507604Y-11138330D02*
X505840Y-11133755D01*
X507604Y-16261670D02*
X509591Y-16257187D01*
X507604Y-16888330D02*
X505840Y-16883755D01*
X509591Y-1507187D02*
X511796Y-1502807D01*
X509591Y-2142813D02*
X507604Y-2138330D01*
X509591Y-7257187D02*
X511796Y-7252807D01*
X509591Y-7892813D02*
X507604Y-7888330D01*
X509591Y-10507187D02*
X511796Y-10502807D01*
X509591Y-11142813D02*
X507604Y-11138330D01*
X509591Y-16257187D02*
X511796Y-16252807D01*
X509591Y-16892813D02*
X507604Y-16888330D01*
X511796Y-1502807D02*
X514213Y-1498541D01*
X511796Y-2147193D02*
X509591Y-2142813D01*
X511796Y-7252807D02*
X514213Y-7248541D01*
X511796Y-7897192D02*
X509591Y-7892813D01*
X511796Y-10502807D02*
X514213Y-10498541D01*
X511796Y-11147193D02*
X509591Y-11142813D01*
X511796Y-16252807D02*
X514213Y-16248541D01*
X511796Y-16897193D02*
X509591Y-16892813D01*
X514213Y-1498541D02*
X516836Y-1494398D01*
X514213Y-2151459D02*
X511796Y-2147193D01*
X514213Y-7248541D02*
X516836Y-7244398D01*
X514213Y-7901459D02*
X511796Y-7897192D01*
X514213Y-10498541D02*
X516836Y-10494399D01*
X514213Y-11151459D02*
X511796Y-11147193D01*
X514213Y-16248541D02*
X516836Y-16244398D01*
X514213Y-16901459D02*
X511796Y-16897193D01*
X516836Y-1494398D02*
X519659Y-1490390D01*
X516836Y-2155601D02*
X514213Y-2151459D01*
X516836Y-7244398D02*
X519659Y-7240390D01*
X516836Y-7905601D02*
X514213Y-7901459D01*
X516836Y-10494399D02*
X519659Y-10490390D01*
X516836Y-11155601D02*
X514213Y-11151459D01*
X516836Y-16244398D02*
X519659Y-16240390D01*
X516836Y-16905601D02*
X514213Y-16901459D01*
X519659Y-1490390D02*
X522676Y-1486524D01*
X519659Y-2159610D02*
X516836Y-2155601D01*
X519659Y-7240390D02*
X522676Y-7236524D01*
X519659Y-7909610D02*
X516836Y-7905601D01*
X519659Y-10490390D02*
X522676Y-10486524D01*
X519659Y-11159610D02*
X516836Y-11155601D01*
X519659Y-16240390D02*
X522676Y-16236524D01*
X519659Y-16909610D02*
X516836Y-16905601D01*
X522676Y-1486524D02*
X525879Y-1482811D01*
X522676Y-2163476D02*
X519659Y-2159610D01*
X522676Y-7236524D02*
X525879Y-7232811D01*
X522676Y-7913476D02*
X519659Y-7909610D01*
X522676Y-10486524D02*
X525879Y-10482811D01*
X522676Y-11163476D02*
X519659Y-11159610D01*
X522676Y-16236524D02*
X525879Y-16232811D01*
X522676Y-16913476D02*
X519659Y-16909610D01*
X525879Y-1482811D02*
X529260Y-1479260D01*
X525879Y-2167189D02*
X522676Y-2163476D01*
X525879Y-7232811D02*
X529260Y-7229260D01*
X525879Y-7917189D02*
X522676Y-7913476D01*
X525879Y-10482811D02*
X529260Y-10479260D01*
X525879Y-11167189D02*
X522676Y-11163476D01*
X525879Y-16232811D02*
X529260Y-16229260D01*
X525879Y-16917189D02*
X522676Y-16913476D01*
X529260Y-1479260D02*
X532811Y-1475879D01*
X529260Y-2170740D02*
X525879Y-2167189D01*
X529260Y-7229260D02*
X532811Y-7225879D01*
X529260Y-7920740D02*
X525879Y-7917189D01*
X529260Y-10479260D02*
X532811Y-10475879D01*
X529260Y-11170740D02*
X525879Y-11167189D01*
X529260Y-16229260D02*
X532811Y-16225879D01*
X529260Y-16920740D02*
X525879Y-16917189D01*
X532811Y-1475879D02*
X536524Y-1472676D01*
X532811Y-2174121D02*
X529260Y-2170740D01*
X532811Y-7225879D02*
X536524Y-7222676D01*
X532811Y-7924121D02*
X529260Y-7920740D01*
X532811Y-10475879D02*
X536524Y-10472676D01*
X532811Y-11174121D02*
X529260Y-11170740D01*
X532811Y-16225879D02*
X536524Y-16222676D01*
X532811Y-16924121D02*
X529260Y-16920740D01*
X536524Y-1472676D02*
X540390Y-1469659D01*
X536524Y-2177324D02*
X532811Y-2174121D01*
X536524Y-7222676D02*
X540390Y-7219659D01*
X536524Y-7927324D02*
X532811Y-7924121D01*
X536524Y-10472676D02*
X540390Y-10469660D01*
X536524Y-11177324D02*
X532811Y-11174121D01*
X536524Y-16222676D02*
X540390Y-16219659D01*
X536524Y-16927324D02*
X532811Y-16924121D01*
X540390Y-1469659D02*
X544399Y-1466836D01*
X540390Y-2180340D02*
X536524Y-2177324D01*
X540390Y-7219659D02*
X544399Y-7216836D01*
X540390Y-7930340D02*
X536524Y-7927324D01*
X540390Y-10469660D02*
X544399Y-10466836D01*
X540390Y-11180340D02*
X536524Y-11177324D01*
X540390Y-16219659D02*
X544399Y-16216836D01*
X540390Y-16930340D02*
X536524Y-16927324D01*
X544399Y-1466836D02*
X548541Y-1464213D01*
X544399Y-2183164D02*
X540390Y-2180340D01*
X544399Y-7216836D02*
X548541Y-7214213D01*
X544399Y-7933164D02*
X540390Y-7930340D01*
X544399Y-10466836D02*
X548541Y-10464213D01*
X544399Y-11183164D02*
X540390Y-11180340D01*
X544399Y-16216836D02*
X548541Y-16214213D01*
X544399Y-16933164D02*
X540390Y-16930340D01*
X548541Y-1464213D02*
X552807Y-1461796D01*
X548541Y-2185787D02*
X544399Y-2183164D01*
X548541Y-7214213D02*
X552807Y-7211796D01*
X548541Y-7935787D02*
X544399Y-7933164D01*
X548541Y-10464213D02*
X552807Y-10461796D01*
X548541Y-11185787D02*
X544399Y-11183164D01*
X548541Y-16214213D02*
X552807Y-16211796D01*
X548541Y-16935787D02*
X544399Y-16933164D01*
X552807Y-1461796D02*
X557187Y-1459591D01*
X552807Y-2188204D02*
X548541Y-2185787D01*
X552807Y-7211796D02*
X557187Y-7209591D01*
X552807Y-7938204D02*
X548541Y-7935787D01*
X552807Y-10461796D02*
X557187Y-10459591D01*
X552807Y-11188204D02*
X548541Y-11185787D01*
X552807Y-16211796D02*
X557187Y-16209591D01*
X552807Y-16938204D02*
X548541Y-16935787D01*
X557187Y-1459591D02*
X561670Y-1457604D01*
X557187Y-2190409D02*
X552807Y-2188204D01*
X557187Y-7209591D02*
X561670Y-7207604D01*
X557187Y-7940408D02*
X552807Y-7938204D01*
X557187Y-10459591D02*
X561670Y-10457604D01*
X557187Y-11190408D02*
X552807Y-11188204D01*
X557187Y-16209591D02*
X561670Y-16207604D01*
X557187Y-16940409D02*
X552807Y-16938204D01*
X561670Y-1457604D02*
X566245Y-1455840D01*
X561670Y-2192396D02*
X557187Y-2190409D01*
X561670Y-7207604D02*
X566245Y-7205840D01*
X561670Y-7942395D02*
X557187Y-7940408D01*
X561670Y-10457604D02*
X566245Y-10455840D01*
X561670Y-11192395D02*
X557187Y-11190408D01*
X561670Y-16207604D02*
X566245Y-16205840D01*
X561670Y-16942396D02*
X557187Y-16940409D01*
X566245Y-1455840D02*
X570901Y-1454302D01*
X566245Y-2194160D02*
X561670Y-2192396D01*
X566245Y-7205840D02*
X570901Y-7204302D01*
X566245Y-7944160D02*
X561670Y-7942395D01*
X566245Y-10455840D02*
X570901Y-10454302D01*
X566245Y-11194160D02*
X561670Y-11192395D01*
X566245Y-16205840D02*
X570901Y-16204302D01*
X566245Y-16944160D02*
X561670Y-16942396D01*
X570901Y-1454302D02*
X575626Y-1452994D01*
X570901Y-2195698D02*
X566245Y-2194160D01*
X570901Y-7204302D02*
X575626Y-7202994D01*
X570901Y-7945698D02*
X566245Y-7944160D01*
X570901Y-10454302D02*
X575626Y-10452994D01*
X570901Y-11195698D02*
X566245Y-11194160D01*
X570901Y-16204302D02*
X575626Y-16202994D01*
X570901Y-16945698D02*
X566245Y-16944160D01*
X575626Y-1452994D02*
X580410Y-1451919D01*
X575626Y-2197006D02*
X570901Y-2195698D01*
X575626Y-7202994D02*
X580410Y-7201919D01*
X575626Y-7947006D02*
X570901Y-7945698D01*
X575626Y-10452994D02*
X580410Y-10451920D01*
X575626Y-11197006D02*
X570901Y-11195698D01*
X575626Y-16202994D02*
X580410Y-16201919D01*
X575626Y-16947006D02*
X570901Y-16945698D01*
X580410Y-1451919D02*
X585242Y-1451081D01*
X580410Y-2198080D02*
X575626Y-2197006D01*
X580410Y-7201919D02*
X585242Y-7201081D01*
X580410Y-7948080D02*
X575626Y-7947006D01*
X580410Y-10451920D02*
X585242Y-10451081D01*
X580410Y-11198080D02*
X575626Y-11197006D01*
X580410Y-16201919D02*
X585242Y-16201081D01*
X580410Y-16948080D02*
X575626Y-16947006D01*
X585242Y-1451081D02*
X590108Y-1450481D01*
X585242Y-2198919D02*
X580410Y-2198080D01*
X585242Y-7201081D02*
X590108Y-7200481D01*
X585242Y-7948919D02*
X580410Y-7948080D01*
X585242Y-10451081D02*
X590108Y-10450481D01*
X585242Y-11198919D02*
X580410Y-11198080D01*
X585242Y-16201081D02*
X590108Y-16200481D01*
X585242Y-16948919D02*
X580410Y-16948080D01*
X590108Y-1450481D02*
X594998Y-1450120D01*
X590108Y-2199519D02*
X585242Y-2198919D01*
X590108Y-7200481D02*
X594998Y-7200120D01*
X590108Y-7949519D02*
X585242Y-7948919D01*
X590108Y-10450481D02*
X594998Y-10450120D01*
X590108Y-11199519D02*
X585242Y-11198919D01*
X590108Y-16200481D02*
X594998Y-16200120D01*
X590108Y-16949519D02*
X585242Y-16948919D01*
X594998Y-1450120D02*
X599901Y-1450000D01*
X594998Y-2199880D02*
X590108Y-2199519D01*
X594998Y-7200120D02*
X600099Y-7200000D01*
X594998Y-7949880D02*
X590108Y-7949519D01*
X594998Y-10450120D02*
X599901Y-10450000D01*
X594998Y-11199880D02*
X590108Y-11199519D01*
X594998Y-16200120D02*
X600099Y-16200000D01*
X594998Y-16949880D02*
X590108Y-16949519D01*
X599901Y-1450000D02*
X6449890Y-1449971D01*
X599901Y-7950000D02*
X594998Y-7949880D01*
X599901Y-10450000D02*
X6449890Y-10449972D01*
X599901Y-16950000D02*
X594998Y-16949880D01*
X600099Y-2200000D02*
X594998Y-2199880D01*
X600099Y-7200000D02*
X605002Y-7200120D01*
X600099Y-11200000D02*
X594998Y-11199880D01*
X600099Y-16200000D02*
X605002Y-16200120D01*
X605002Y-2199880D02*
X600099Y-2200000D01*
X605002Y-7200120D02*
X609892Y-7200481D01*
X605002Y-11199880D02*
X600099Y-11200000D01*
X605002Y-16200120D02*
X609892Y-16200481D01*
X609892Y-2199519D02*
X605002Y-2199880D01*
X609892Y-7200481D02*
X614758Y-7201081D01*
X609892Y-11199519D02*
X605002Y-11199880D01*
X609892Y-16200481D02*
X614758Y-16201081D01*
X614758Y-2198919D02*
X609892Y-2199519D01*
X614758Y-7201081D02*
X619590Y-7201919D01*
X614758Y-11198919D02*
X609892Y-11199519D01*
X614758Y-16201081D02*
X619590Y-16201919D01*
X619590Y-2198080D02*
X614758Y-2198919D01*
X619590Y-7201919D02*
X624374Y-7202994D01*
X619590Y-11198080D02*
X614758Y-11198919D01*
X619590Y-16201919D02*
X624374Y-16202994D01*
X624374Y-2197006D02*
X619590Y-2198080D01*
X624374Y-7202994D02*
X629099Y-7204302D01*
X624374Y-11197006D02*
X619590Y-11198080D01*
X624374Y-16202994D02*
X629099Y-16204302D01*
X629099Y-2195698D02*
X624374Y-2197006D01*
X629099Y-7204302D02*
X633755Y-7205840D01*
X629099Y-11195698D02*
X624374Y-11197006D01*
X629099Y-16204302D02*
X633755Y-16205840D01*
X633755Y-2194160D02*
X629099Y-2195698D01*
X633755Y-7205840D02*
X638330Y-7207604D01*
X633755Y-11194160D02*
X629099Y-11195698D01*
X633755Y-16205840D02*
X638330Y-16207604D01*
X638330Y-2192396D02*
X633755Y-2194160D01*
X638330Y-7207604D02*
X642813Y-7209591D01*
X638330Y-11192395D02*
X633755Y-11194160D01*
X638330Y-16207604D02*
X642813Y-16209591D01*
X642813Y-2190409D02*
X638330Y-2192396D01*
X642813Y-7209591D02*
X647193Y-7211796D01*
X642813Y-11190408D02*
X638330Y-11192395D01*
X642813Y-16209591D02*
X647193Y-16211796D01*
X647193Y-2188204D02*
X642813Y-2190409D01*
X647193Y-7211796D02*
X651459Y-7214213D01*
X647193Y-11188204D02*
X642813Y-11190408D01*
X647193Y-16211796D02*
X651459Y-16214213D01*
X651459Y-2185787D02*
X647193Y-2188204D01*
X651459Y-7214213D02*
X655601Y-7216836D01*
X651459Y-11185787D02*
X647193Y-11188204D01*
X651459Y-16214213D02*
X655601Y-16216836D01*
X655601Y-2183164D02*
X651459Y-2185787D01*
X655601Y-7216836D02*
X659610Y-7219659D01*
X655601Y-11183164D02*
X651459Y-11185787D01*
X655601Y-16216836D02*
X659610Y-16219659D01*
X659610Y-2180340D02*
X655601Y-2183164D01*
X659610Y-7219659D02*
X663476Y-7222676D01*
X659610Y-11180340D02*
X655601Y-11183164D01*
X659610Y-16219659D02*
X663476Y-16222676D01*
X663476Y-2177324D02*
X659610Y-2180340D01*
X663476Y-7222676D02*
X667189Y-7225879D01*
X663476Y-11177324D02*
X659610Y-11180340D01*
X663476Y-16222676D02*
X667189Y-16225879D01*
X667189Y-2174121D02*
X663476Y-2177324D01*
X667189Y-7225879D02*
X670740Y-7229260D01*
X667189Y-11174121D02*
X663476Y-11177324D01*
X667189Y-16225879D02*
X670740Y-16229260D01*
X670740Y-2170740D02*
X667189Y-2174121D01*
X670740Y-7229260D02*
X674121Y-7232811D01*
X670740Y-11170740D02*
X667189Y-11174121D01*
X670740Y-16229260D02*
X674121Y-16232811D01*
X674121Y-2167189D02*
X670740Y-2170740D01*
X674121Y-7232811D02*
X677324Y-7236524D01*
X674121Y-11167189D02*
X670740Y-11170740D01*
X674121Y-16232811D02*
X677324Y-16236524D01*
X677324Y-2163476D02*
X674121Y-2167189D01*
X677324Y-7236524D02*
X680340Y-7240390D01*
X677324Y-11163476D02*
X674121Y-11167189D01*
X677324Y-16236524D02*
X680340Y-16240390D01*
X680340Y-2159610D02*
X677324Y-2163476D01*
X680340Y-7240390D02*
X683164Y-7244398D01*
X680340Y-11159610D02*
X677324Y-11163476D01*
X680340Y-16240390D02*
X683164Y-16244398D01*
X683164Y-2155601D02*
X680340Y-2159610D01*
X683164Y-7244398D02*
X685787Y-7248541D01*
X683164Y-11155601D02*
X680340Y-11159610D01*
X683164Y-16244398D02*
X685787Y-16248541D01*
X685787Y-2151459D02*
X683164Y-2155601D01*
X685787Y-7248541D02*
X688204Y-7252807D01*
X685787Y-11151459D02*
X683164Y-11155601D01*
X685787Y-16248541D02*
X688204Y-16252807D01*
X688204Y-2147193D02*
X685787Y-2151459D01*
X688204Y-7252807D02*
X690409Y-7257187D01*
X688204Y-11147193D02*
X685787Y-11151459D01*
X688204Y-16252807D02*
X690409Y-16257187D01*
X690409Y-2142813D02*
X688204Y-2147193D01*
X690409Y-7257187D02*
X692396Y-7261670D01*
X690409Y-11142813D02*
X688204Y-11147193D01*
X690409Y-16257187D02*
X692396Y-16261670D01*
X692396Y-2138330D02*
X690409Y-2142813D01*
X692396Y-7261670D02*
X694160Y-7266245D01*
X692396Y-11138330D02*
X690409Y-11142813D01*
X692396Y-16261670D02*
X694160Y-16266245D01*
X694160Y-2133755D02*
X692396Y-2138330D01*
X694160Y-7266245D02*
X695698Y-7270900D01*
X694160Y-11133755D02*
X692396Y-11138330D01*
X694160Y-16266245D02*
X695698Y-16270900D01*
X695698Y-2129099D02*
X694160Y-2133755D01*
X695698Y-7270900D02*
X697006Y-7275626D01*
X695698Y-11129099D02*
X694160Y-11133755D01*
X695698Y-16270900D02*
X697006Y-16275626D01*
X697006Y-2124374D02*
X695698Y-2129099D01*
X697006Y-7275626D02*
X698080Y-7280410D01*
X697006Y-11124374D02*
X695698Y-11129099D01*
X697006Y-16275626D02*
X698080Y-16280410D01*
X698080Y-2119590D02*
X697006Y-2124374D01*
X698080Y-7280410D02*
X698919Y-7285242D01*
X698080Y-11119590D02*
X697006Y-11124374D01*
X698080Y-16280410D02*
X698919Y-16285242D01*
X698919Y-2114758D02*
X698080Y-2119590D01*
X698919Y-7285242D02*
X699519Y-7290108D01*
X698919Y-11114758D02*
X698080Y-11119590D01*
X698919Y-16285242D02*
X699519Y-16290108D01*
X699519Y-2109892D02*
X698919Y-2114758D01*
X699519Y-7290108D02*
X699880Y-7294998D01*
X699519Y-11109892D02*
X698919Y-11114758D01*
X699519Y-16290108D02*
X699880Y-16294998D01*
X699880Y-2105002D02*
X699519Y-2109892D01*
X699880Y-7294998D02*
X700000Y-7299901D01*
X699880Y-11105002D02*
X699519Y-11109892D01*
X699880Y-16294998D02*
X700000Y-16299901D01*
X700000Y-1701227D02*
X700000Y-2100099D01*
X700000Y-2100099D02*
X699880Y-2105002D01*
X700000Y-7299901D02*
X700000Y-7698773D01*
X700000Y-7698773D02*
X700120Y-7699973D01*
X700000Y-10701227D02*
X700000Y-11100099D01*
X700000Y-11100099D02*
X699880Y-11105002D01*
X700000Y-16299901D02*
X700000Y-16698773D01*
X700000Y-16698773D02*
X700120Y-16699973D01*
X700120Y-7699973D02*
X6600099Y-7700000D01*
X700120Y-16699973D02*
X6600099Y-16700000D01*
X700124Y-1700027D02*
X700000Y-1701227D01*
X700124Y-10700027D02*
X700000Y-10701227D01*
X6449890Y-1449971D02*
X6450000Y-1448773D01*
X6449890Y-10449972D02*
X6450000Y-10448773D01*
X6449895Y-16950029D02*
X599901Y-16950000D01*
X6449900Y-7950031D02*
X599901Y-7950000D01*
X6450000Y-599901D02*
X6450120Y-594998D01*
X6450000Y-1448773D02*
X6450000Y-599901D01*
X6450000Y-7951227D02*
X6449900Y-7950031D01*
X6450000Y-8850099D02*
X6450000Y-7951227D01*
X6450000Y-9549901D02*
X6450120Y-9544998D01*
X6450000Y-10448773D02*
X6450000Y-9549901D01*
X6450000Y-16951227D02*
X6449895Y-16950029D01*
X6450000Y-17800099D02*
X6450000Y-16951227D01*
X6450120Y-594998D02*
X6450481Y-590108D01*
X6450120Y-8855002D02*
X6450000Y-8850099D01*
X6450120Y-9544998D02*
X6450481Y-9540108D01*
X6450120Y-17805002D02*
X6450000Y-17800099D01*
X6450481Y-590108D02*
X6451081Y-585242D01*
X6450481Y-8859892D02*
X6450120Y-8855002D01*
X6450481Y-9540108D02*
X6451081Y-9535242D01*
X6450481Y-17809892D02*
X6450120Y-17805002D01*
X6451081Y-585242D02*
X6451919Y-580410D01*
X6451081Y-8864758D02*
X6450481Y-8859892D01*
X6451081Y-9535242D02*
X6451919Y-9530410D01*
X6451081Y-17814758D02*
X6450481Y-17809892D01*
X6451919Y-580410D02*
X6452994Y-575626D01*
X6451919Y-8869590D02*
X6451081Y-8864758D01*
X6451919Y-9530410D02*
X6452994Y-9525626D01*
X6451919Y-17819590D02*
X6451081Y-17814758D01*
X6452994Y-575626D02*
X6454302Y-570901D01*
X6452994Y-8874374D02*
X6451919Y-8869590D01*
X6452994Y-9525626D02*
X6454302Y-9520901D01*
X6452994Y-17824374D02*
X6451919Y-17819590D01*
X6454302Y-570901D02*
X6455840Y-566245D01*
X6454302Y-8879099D02*
X6452994Y-8874374D01*
X6454302Y-9520901D02*
X6455840Y-9516245D01*
X6454302Y-17829099D02*
X6452994Y-17824374D01*
X6455840Y-566245D02*
X6457604Y-561670D01*
X6455840Y-8883755D02*
X6454302Y-8879099D01*
X6455840Y-9516245D02*
X6457604Y-9511670D01*
X6455840Y-17833755D02*
X6454302Y-17829099D01*
X6457604Y-561670D02*
X6459591Y-557187D01*
X6457604Y-8888330D02*
X6455840Y-8883755D01*
X6457604Y-9511670D02*
X6459591Y-9507187D01*
X6457604Y-17838330D02*
X6455840Y-17833755D01*
X6459591Y-557187D02*
X6461796Y-552807D01*
X6459591Y-8892813D02*
X6457604Y-8888330D01*
X6459591Y-9507187D02*
X6461796Y-9502807D01*
X6459591Y-17842813D02*
X6457604Y-17838330D01*
X6461796Y-552807D02*
X6464213Y-548541D01*
X6461796Y-8897193D02*
X6459591Y-8892813D01*
X6461796Y-9502807D02*
X6464213Y-9498541D01*
X6461796Y-17847193D02*
X6459591Y-17842813D01*
X6464213Y-548541D02*
X6466836Y-544399D01*
X6464213Y-8901459D02*
X6461796Y-8897193D01*
X6464213Y-9498541D02*
X6466836Y-9494399D01*
X6464213Y-17851459D02*
X6461796Y-17847193D01*
X6466836Y-544399D02*
X6469659Y-540390D01*
X6466836Y-8905601D02*
X6464213Y-8901459D01*
X6466836Y-9494399D02*
X6469659Y-9490390D01*
X6466836Y-17855601D02*
X6464213Y-17851459D01*
X6469659Y-540390D02*
X6472676Y-536524D01*
X6469659Y-8909610D02*
X6466836Y-8905601D01*
X6469659Y-9490390D02*
X6472676Y-9486524D01*
X6469659Y-17859610D02*
X6466836Y-17855601D01*
X6472676Y-536524D02*
X6475879Y-532811D01*
X6472676Y-8913476D02*
X6469659Y-8909610D01*
X6472676Y-9486524D02*
X6475879Y-9482811D01*
X6472676Y-17863476D02*
X6469659Y-17859610D01*
X6475879Y-532811D02*
X6479260Y-529260D01*
X6475879Y-8917189D02*
X6472676Y-8913476D01*
X6475879Y-9482811D02*
X6479260Y-9479260D01*
X6475879Y-17867189D02*
X6472676Y-17863476D01*
X6479260Y-529260D02*
X6482811Y-525879D01*
X6479260Y-8920740D02*
X6475879Y-8917189D01*
X6479260Y-9479260D02*
X6482811Y-9475879D01*
X6479260Y-17870740D02*
X6475879Y-17867189D01*
X6482811Y-525879D02*
X6486524Y-522676D01*
X6482811Y-8924121D02*
X6479260Y-8920740D01*
X6482811Y-9475879D02*
X6486524Y-9472676D01*
X6482811Y-17874121D02*
X6479260Y-17870740D01*
X6486524Y-522676D02*
X6490390Y-519659D01*
X6486524Y-8927324D02*
X6482811Y-8924121D01*
X6486524Y-9472676D02*
X6490390Y-9469660D01*
X6486524Y-17877324D02*
X6482811Y-17874121D01*
X6490390Y-519659D02*
X6494398Y-516836D01*
X6490390Y-8930340D02*
X6486524Y-8927324D01*
X6490390Y-9469660D02*
X6494398Y-9466836D01*
X6490390Y-17880340D02*
X6486524Y-17877324D01*
X6494398Y-516836D02*
X6498541Y-514213D01*
X6494398Y-8933164D02*
X6490390Y-8930340D01*
X6494398Y-9466836D02*
X6498541Y-9464213D01*
X6494398Y-17883164D02*
X6490390Y-17880340D01*
X6498541Y-514213D02*
X6502807Y-511796D01*
X6498541Y-8935787D02*
X6494398Y-8933164D01*
X6498541Y-9464213D02*
X6502807Y-9461796D01*
X6498541Y-17885787D02*
X6494398Y-17883164D01*
X6502807Y-511796D02*
X6507187Y-509591D01*
X6502807Y-8938204D02*
X6498541Y-8935787D01*
X6502807Y-9461796D02*
X6507187Y-9459591D01*
X6502807Y-17888204D02*
X6498541Y-17885787D01*
X6507187Y-509591D02*
X6511670Y-507604D01*
X6507187Y-8940409D02*
X6502807Y-8938204D01*
X6507187Y-9459591D02*
X6511670Y-9457604D01*
X6507187Y-17890409D02*
X6502807Y-17888204D01*
X6511670Y-507604D02*
X6516245Y-505840D01*
X6511670Y-8942396D02*
X6507187Y-8940409D01*
X6511670Y-9457604D02*
X6516245Y-9455840D01*
X6511670Y-17892396D02*
X6507187Y-17890409D01*
X6516245Y-505840D02*
X6520900Y-504302D01*
X6516245Y-8944160D02*
X6511670Y-8942396D01*
X6516245Y-9455840D02*
X6520900Y-9454302D01*
X6516245Y-17894160D02*
X6511670Y-17892396D01*
X6520900Y-504302D02*
X6525626Y-502994D01*
X6520900Y-8945698D02*
X6516245Y-8944160D01*
X6520900Y-9454302D02*
X6525626Y-9452994D01*
X6520900Y-17895698D02*
X6516245Y-17894160D01*
X6525626Y-502994D02*
X6530410Y-501919D01*
X6525626Y-8947006D02*
X6520900Y-8945698D01*
X6525626Y-9452994D02*
X6530410Y-9451920D01*
X6525626Y-17897006D02*
X6520900Y-17895698D01*
X6530410Y-501919D02*
X6535242Y-501081D01*
X6530410Y-8948080D02*
X6525626Y-8947006D01*
X6530410Y-9451920D02*
X6535242Y-9451081D01*
X6530410Y-17898080D02*
X6525626Y-17897006D01*
X6535242Y-501081D02*
X6540108Y-500481D01*
X6535242Y-8948919D02*
X6530410Y-8948080D01*
X6535242Y-9451081D02*
X6540108Y-9450481D01*
X6535242Y-17898919D02*
X6530410Y-17898080D01*
X6540108Y-500481D02*
X6544998Y-500120D01*
X6540108Y-8949519D02*
X6535242Y-8948919D01*
X6540108Y-9450481D02*
X6544998Y-9450120D01*
X6540108Y-17899519D02*
X6535242Y-17898919D01*
X6544998Y-500120D02*
X6549901Y-500000D01*
X6544998Y-8949880D02*
X6540108Y-8949519D01*
X6544998Y-9450120D02*
X6549901Y-9450000D01*
X6544998Y-17899880D02*
X6540108Y-17899519D01*
X6549901Y-500000D02*
X6600099Y-500000D01*
X6549901Y-8950000D02*
X6544998Y-8949880D01*
X6549901Y-9450000D02*
X6600099Y-9450000D01*
X6549901Y-17900000D02*
X6544998Y-17899880D01*
X6600099Y-500000D02*
X6605002Y-500120D01*
X6600099Y-1700000D02*
X700124Y-1700027D01*
X6600099Y-7700000D02*
X6605002Y-7700120D01*
X6600099Y-8950000D02*
X6549901Y-8950000D01*
X6600099Y-9450000D02*
X6605002Y-9450120D01*
X6600099Y-10700000D02*
X700124Y-10700027D01*
X6600099Y-16700000D02*
X6605002Y-16700120D01*
X6600099Y-17900000D02*
X6549901Y-17900000D01*
X6605002Y-500120D02*
X6609892Y-500481D01*
X6605002Y-1699880D02*
X6600099Y-1700000D01*
X6605002Y-7700120D02*
X6609892Y-7700481D01*
X6605002Y-8949880D02*
X6600099Y-8950000D01*
X6605002Y-9450120D02*
X6609892Y-9450481D01*
X6605002Y-10699880D02*
X6600099Y-10700000D01*
X6605002Y-16700120D02*
X6609892Y-16700481D01*
X6605002Y-17899880D02*
X6600099Y-17900000D01*
X6609892Y-500481D02*
X6614758Y-501081D01*
X6609892Y-1699519D02*
X6605002Y-1699880D01*
X6609892Y-7700481D02*
X6614758Y-7701081D01*
X6609892Y-8949519D02*
X6605002Y-8949880D01*
X6609892Y-9450481D02*
X6614758Y-9451081D01*
X6609892Y-10699519D02*
X6605002Y-10699880D01*
X6609892Y-16700481D02*
X6614758Y-16701081D01*
X6609892Y-17899519D02*
X6605002Y-17899880D01*
X6614758Y-501081D02*
X6619589Y-501919D01*
X6614758Y-1698919D02*
X6609892Y-1699519D01*
X6614758Y-7701081D02*
X6619589Y-7701919D01*
X6614758Y-8948919D02*
X6609892Y-8949519D01*
X6614758Y-9451081D02*
X6619589Y-9451920D01*
X6614758Y-10698919D02*
X6609892Y-10699519D01*
X6614758Y-16701081D02*
X6619589Y-16701919D01*
X6614758Y-17898919D02*
X6609892Y-17899519D01*
X6619589Y-501919D02*
X6624374Y-502994D01*
X6619589Y-1698080D02*
X6614758Y-1698919D01*
X6619589Y-7701919D02*
X6624374Y-7702994D01*
X6619589Y-8948080D02*
X6614758Y-8948919D01*
X6619589Y-9451920D02*
X6624374Y-9452994D01*
X6619589Y-10698080D02*
X6614758Y-10698919D01*
X6619589Y-16701919D02*
X6624374Y-16702994D01*
X6619589Y-17898080D02*
X6614758Y-17898919D01*
X6624374Y-502994D02*
X6629099Y-504302D01*
X6624374Y-1697006D02*
X6619589Y-1698080D01*
X6624374Y-7702994D02*
X6629099Y-7704302D01*
X6624374Y-8947006D02*
X6619589Y-8948080D01*
X6624374Y-9452994D02*
X6629099Y-9454302D01*
X6624374Y-10697006D02*
X6619589Y-10698080D01*
X6624374Y-16702994D02*
X6629099Y-16704302D01*
X6624374Y-17897006D02*
X6619589Y-17898080D01*
X6629099Y-504302D02*
X6633755Y-505840D01*
X6629099Y-1695698D02*
X6624374Y-1697006D01*
X6629099Y-7704302D02*
X6633755Y-7705840D01*
X6629099Y-8945698D02*
X6624374Y-8947006D01*
X6629099Y-9454302D02*
X6633755Y-9455840D01*
X6629099Y-10695698D02*
X6624374Y-10697006D01*
X6629099Y-16704302D02*
X6633755Y-16705840D01*
X6629099Y-17895698D02*
X6624374Y-17897006D01*
X6633755Y-505840D02*
X6638330Y-507604D01*
X6633755Y-1694160D02*
X6629099Y-1695698D01*
X6633755Y-7705840D02*
X6638330Y-7707604D01*
X6633755Y-8944160D02*
X6629099Y-8945698D01*
X6633755Y-9455840D02*
X6638330Y-9457604D01*
X6633755Y-10694160D02*
X6629099Y-10695698D01*
X6633755Y-16705840D02*
X6638330Y-16707604D01*
X6633755Y-17894160D02*
X6629099Y-17895698D01*
X6638330Y-507604D02*
X6642813Y-509591D01*
X6638330Y-1692395D02*
X6633755Y-1694160D01*
X6638330Y-7707604D02*
X6642813Y-7709591D01*
X6638330Y-8942396D02*
X6633755Y-8944160D01*
X6638330Y-9457604D02*
X6642813Y-9459591D01*
X6638330Y-10692396D02*
X6633755Y-10694160D01*
X6638330Y-16707604D02*
X6642813Y-16709591D01*
X6638330Y-17892396D02*
X6633755Y-17894160D01*
X6642813Y-509591D02*
X6647192Y-511796D01*
X6642813Y-1690408D02*
X6638330Y-1692395D01*
X6642813Y-7709591D02*
X6647192Y-7711796D01*
X6642813Y-8940409D02*
X6638330Y-8942396D01*
X6642813Y-9459591D02*
X6647192Y-9461796D01*
X6642813Y-10690409D02*
X6638330Y-10692396D01*
X6642813Y-16709591D02*
X6647192Y-16711796D01*
X6642813Y-17890409D02*
X6638330Y-17892396D01*
X6647192Y-511796D02*
X6651459Y-514213D01*
X6647192Y-1688204D02*
X6642813Y-1690408D01*
X6647192Y-7711796D02*
X6651459Y-7714213D01*
X6647192Y-8938204D02*
X6642813Y-8940409D01*
X6647192Y-9461796D02*
X6651459Y-9464213D01*
X6647192Y-10688204D02*
X6642813Y-10690409D01*
X6647192Y-16711796D02*
X6651459Y-16714213D01*
X6647192Y-17888204D02*
X6642813Y-17890409D01*
X6651459Y-514213D02*
X6655601Y-516836D01*
X6651459Y-1685787D02*
X6647192Y-1688204D01*
X6651459Y-7714213D02*
X6655601Y-7716836D01*
X6651459Y-8935787D02*
X6647192Y-8938204D01*
X6651459Y-9464213D02*
X6655601Y-9466836D01*
X6651459Y-10685787D02*
X6647192Y-10688204D01*
X6651459Y-16714213D02*
X6655601Y-16716836D01*
X6651459Y-17885787D02*
X6647192Y-17888204D01*
X6655601Y-516836D02*
X6659610Y-519659D01*
X6655601Y-1683164D02*
X6651459Y-1685787D01*
X6655601Y-7716836D02*
X6659610Y-7719659D01*
X6655601Y-8933164D02*
X6651459Y-8935787D01*
X6655601Y-9466836D02*
X6659610Y-9469660D01*
X6655601Y-10683164D02*
X6651459Y-10685787D01*
X6655601Y-16716836D02*
X6659610Y-16719659D01*
X6655601Y-17883164D02*
X6651459Y-17885787D01*
X6659610Y-519659D02*
X6663476Y-522676D01*
X6659610Y-1680340D02*
X6655601Y-1683164D01*
X6659610Y-7719659D02*
X6663476Y-7722676D01*
X6659610Y-8930340D02*
X6655601Y-8933164D01*
X6659610Y-9469660D02*
X6663476Y-9472676D01*
X6659610Y-10680340D02*
X6655601Y-10683164D01*
X6659610Y-16719659D02*
X6663476Y-16722676D01*
X6659610Y-17880340D02*
X6655601Y-17883164D01*
X6663476Y-522676D02*
X6667189Y-525879D01*
X6663476Y-1677324D02*
X6659610Y-1680340D01*
X6663476Y-7722676D02*
X6667189Y-7725879D01*
X6663476Y-8927324D02*
X6659610Y-8930340D01*
X6663476Y-9472676D02*
X6667189Y-9475879D01*
X6663476Y-10677324D02*
X6659610Y-10680340D01*
X6663476Y-16722676D02*
X6667189Y-16725879D01*
X6663476Y-17877324D02*
X6659610Y-17880340D01*
X6667189Y-525879D02*
X6670740Y-529260D01*
X6667189Y-1674121D02*
X6663476Y-1677324D01*
X6667189Y-7725879D02*
X6670740Y-7729260D01*
X6667189Y-8924121D02*
X6663476Y-8927324D01*
X6667189Y-9475879D02*
X6670740Y-9479260D01*
X6667189Y-10674121D02*
X6663476Y-10677324D01*
X6667189Y-16725879D02*
X6670740Y-16729260D01*
X6667189Y-17874121D02*
X6663476Y-17877324D01*
X6670740Y-529260D02*
X6674121Y-532811D01*
X6670740Y-1670740D02*
X6667189Y-1674121D01*
X6670740Y-7729260D02*
X6674121Y-7732811D01*
X6670740Y-8920740D02*
X6667189Y-8924121D01*
X6670740Y-9479260D02*
X6674121Y-9482811D01*
X6670740Y-10670740D02*
X6667189Y-10674121D01*
X6670740Y-16729260D02*
X6674121Y-16732811D01*
X6670740Y-17870740D02*
X6667189Y-17874121D01*
X6674121Y-532811D02*
X6677324Y-536524D01*
X6674121Y-1667189D02*
X6670740Y-1670740D01*
X6674121Y-7732811D02*
X6677324Y-7736524D01*
X6674121Y-8917189D02*
X6670740Y-8920740D01*
X6674121Y-9482811D02*
X6677324Y-9486524D01*
X6674121Y-10667189D02*
X6670740Y-10670740D01*
X6674121Y-16732811D02*
X6677324Y-16736524D01*
X6674121Y-17867189D02*
X6670740Y-17870740D01*
X6677324Y-536524D02*
X6680340Y-540390D01*
X6677324Y-1663476D02*
X6674121Y-1667189D01*
X6677324Y-7736524D02*
X6680340Y-7740390D01*
X6677324Y-8913476D02*
X6674121Y-8917189D01*
X6677324Y-9486524D02*
X6680340Y-9490390D01*
X6677324Y-10663476D02*
X6674121Y-10667189D01*
X6677324Y-16736524D02*
X6680340Y-16740390D01*
X6677324Y-17863476D02*
X6674121Y-17867189D01*
X6680340Y-540390D02*
X6683164Y-544399D01*
X6680340Y-1659610D02*
X6677324Y-1663476D01*
X6680340Y-7740390D02*
X6683164Y-7744398D01*
X6680340Y-8909610D02*
X6677324Y-8913476D01*
X6680340Y-9490390D02*
X6683164Y-9494399D01*
X6680340Y-10659610D02*
X6677324Y-10663476D01*
X6680340Y-16740390D02*
X6683164Y-16744398D01*
X6680340Y-17859610D02*
X6677324Y-17863476D01*
X6683164Y-544399D02*
X6685787Y-548541D01*
X6683164Y-1655601D02*
X6680340Y-1659610D01*
X6683164Y-7744398D02*
X6685787Y-7748541D01*
X6683164Y-8905601D02*
X6680340Y-8909610D01*
X6683164Y-9494399D02*
X6685787Y-9498541D01*
X6683164Y-10655601D02*
X6680340Y-10659610D01*
X6683164Y-16744398D02*
X6685787Y-16748541D01*
X6683164Y-17855601D02*
X6680340Y-17859610D01*
X6685787Y-548541D02*
X6688204Y-552807D01*
X6685787Y-1651459D02*
X6683164Y-1655601D01*
X6685787Y-7748541D02*
X6688204Y-7752807D01*
X6685787Y-8901459D02*
X6683164Y-8905601D01*
X6685787Y-9498541D02*
X6688204Y-9502807D01*
X6685787Y-10651459D02*
X6683164Y-10655601D01*
X6685787Y-16748541D02*
X6688204Y-16752807D01*
X6685787Y-17851459D02*
X6683164Y-17855601D01*
X6688204Y-552807D02*
X6690408Y-557187D01*
X6688204Y-1647192D02*
X6685787Y-1651459D01*
X6688204Y-7752807D02*
X6690408Y-7757187D01*
X6688204Y-8897193D02*
X6685787Y-8901459D01*
X6688204Y-9502807D02*
X6690408Y-9507187D01*
X6688204Y-10647193D02*
X6685787Y-10651459D01*
X6688204Y-16752807D02*
X6690408Y-16757187D01*
X6688204Y-17847193D02*
X6685787Y-17851459D01*
X6690408Y-557187D02*
X6692395Y-561670D01*
X6690408Y-1642813D02*
X6688204Y-1647192D01*
X6690408Y-7757187D02*
X6692395Y-7761670D01*
X6690408Y-8892813D02*
X6688204Y-8897193D01*
X6690408Y-9507187D02*
X6692395Y-9511670D01*
X6690408Y-10642813D02*
X6688204Y-10647193D01*
X6690408Y-16757187D02*
X6692395Y-16761670D01*
X6690408Y-17842813D02*
X6688204Y-17847193D01*
X6692395Y-561670D02*
X6694160Y-566245D01*
X6692395Y-1638330D02*
X6690408Y-1642813D01*
X6692395Y-7761670D02*
X6694160Y-7766245D01*
X6692395Y-8888330D02*
X6690408Y-8892813D01*
X6692395Y-9511670D02*
X6694160Y-9516245D01*
X6692395Y-10638330D02*
X6690408Y-10642813D01*
X6692395Y-16761670D02*
X6694160Y-16766245D01*
X6692395Y-17838330D02*
X6690408Y-17842813D01*
X6694160Y-566245D02*
X6695698Y-570901D01*
X6694160Y-1633755D02*
X6692395Y-1638330D01*
X6694160Y-7766245D02*
X6695698Y-7770900D01*
X6694160Y-8883755D02*
X6692395Y-8888330D01*
X6694160Y-9516245D02*
X6695698Y-9520901D01*
X6694160Y-10633755D02*
X6692395Y-10638330D01*
X6694160Y-16766245D02*
X6695698Y-16770900D01*
X6694160Y-17833755D02*
X6692395Y-17838330D01*
X6695698Y-570901D02*
X6697006Y-575626D01*
X6695698Y-1629099D02*
X6694160Y-1633755D01*
X6695698Y-7770900D02*
X6697006Y-7775626D01*
X6695698Y-8879099D02*
X6694160Y-8883755D01*
X6695698Y-9520901D02*
X6697006Y-9525626D01*
X6695698Y-10629099D02*
X6694160Y-10633755D01*
X6695698Y-16770900D02*
X6697006Y-16775626D01*
X6695698Y-17829099D02*
X6694160Y-17833755D01*
X6697006Y-575626D02*
X6698080Y-580410D01*
X6697006Y-1624374D02*
X6695698Y-1629099D01*
X6697006Y-7775626D02*
X6698080Y-7780410D01*
X6697006Y-8874374D02*
X6695698Y-8879099D01*
X6697006Y-9525626D02*
X6698080Y-9530410D01*
X6697006Y-10624374D02*
X6695698Y-10629099D01*
X6697006Y-16775626D02*
X6698080Y-16780410D01*
X6697006Y-17824374D02*
X6695698Y-17829099D01*
X6698080Y-580410D02*
X6698919Y-585242D01*
X6698080Y-1619589D02*
X6697006Y-1624374D01*
X6698080Y-7780410D02*
X6698919Y-7785242D01*
X6698080Y-8869590D02*
X6697006Y-8874374D01*
X6698080Y-9530410D02*
X6698919Y-9535242D01*
X6698080Y-10619590D02*
X6697006Y-10624374D01*
X6698080Y-16780410D02*
X6698919Y-16785242D01*
X6698080Y-17819590D02*
X6697006Y-17824374D01*
X6698919Y-585242D02*
X6699519Y-590108D01*
X6698919Y-1614758D02*
X6698080Y-1619589D01*
X6698919Y-7785242D02*
X6699519Y-7790108D01*
X6698919Y-8864758D02*
X6698080Y-8869590D01*
X6698919Y-9535242D02*
X6699519Y-9540108D01*
X6698919Y-10614758D02*
X6698080Y-10619590D01*
X6698919Y-16785242D02*
X6699519Y-16790108D01*
X6698919Y-17814758D02*
X6698080Y-17819590D01*
X6699519Y-590108D02*
X6699880Y-594998D01*
X6699519Y-1609892D02*
X6698919Y-1614758D01*
X6699519Y-7790108D02*
X6699880Y-7794998D01*
X6699519Y-8859892D02*
X6698919Y-8864758D01*
X6699519Y-9540108D02*
X6699880Y-9544998D01*
X6699519Y-10609892D02*
X6698919Y-10614758D01*
X6699519Y-16790108D02*
X6699880Y-16794998D01*
X6699519Y-17809892D02*
X6698919Y-17814758D01*
X6699880Y-594998D02*
X6700000Y-599901D01*
X6699880Y-1605002D02*
X6699519Y-1609892D01*
X6699880Y-7794998D02*
X6700000Y-7799901D01*
X6699880Y-8855002D02*
X6699519Y-8859892D01*
X6699880Y-9544998D02*
X6700000Y-9549901D01*
X6699880Y-10605002D02*
X6699519Y-10609892D01*
X6699880Y-16794998D02*
X6700000Y-16799901D01*
X6699880Y-17805002D02*
X6699519Y-17809892D01*
X6700000Y-599901D02*
X6700000Y-1600099D01*
X6700000Y-1600099D02*
X6699880Y-1605002D01*
X6700000Y-7799901D02*
X6700000Y-8850099D01*
X6700000Y-8850099D02*
X6699880Y-8855002D01*
X6700000Y-9549901D02*
X6700000Y-10600099D01*
X6700000Y-10600099D02*
X6699880Y-10605002D01*
X6700000Y-16799901D02*
X6700000Y-17800099D01*
X6700000Y-17800099D02*
X6699880Y-17805002D01*
X13700000Y-599901D02*
X13700120Y-594998D01*
X13700000Y-8799901D02*
X13700120Y-8794998D01*
X13700000Y-8850099D02*
X13700000Y-8799901D01*
X13700000Y-9549901D02*
X13700120Y-9544998D01*
X13700000Y-9600099D02*
X13700000Y-9549901D01*
X13700000Y-17800099D02*
X13700120Y-17794998D01*
X13700120Y-594998D02*
X13700481Y-590108D01*
X13700120Y-605002D02*
X13700000Y-599901D01*
X13700120Y-8794998D02*
X13700481Y-8790108D01*
X13700120Y-8855002D02*
X13700000Y-8850099D01*
X13700120Y-9544998D02*
X13700481Y-9540108D01*
X13700120Y-9605002D02*
X13700000Y-9600099D01*
X13700120Y-17794998D02*
X13700481Y-17790108D01*
X13700120Y-17805002D02*
X13700000Y-17800099D01*
X13700481Y-590108D02*
X13701081Y-585242D01*
X13700481Y-609892D02*
X13700120Y-605002D01*
X13700481Y-8790108D02*
X13701081Y-8785242D01*
X13700481Y-8859892D02*
X13700120Y-8855002D01*
X13700481Y-9540108D02*
X13701081Y-9535242D01*
X13700481Y-9609892D02*
X13700120Y-9605002D01*
X13700481Y-17790108D02*
X13701081Y-17785242D01*
X13700481Y-17809892D02*
X13700120Y-17805002D01*
X13701081Y-585242D02*
X13701919Y-580410D01*
X13701081Y-614758D02*
X13700481Y-609892D01*
X13701081Y-8785242D02*
X13701919Y-8780410D01*
X13701081Y-8864758D02*
X13700481Y-8859892D01*
X13701081Y-9535242D02*
X13701919Y-9530410D01*
X13701081Y-9614758D02*
X13700481Y-9609892D01*
X13701081Y-17785242D02*
X13701919Y-17780410D01*
X13701081Y-17814758D02*
X13700481Y-17809892D01*
X13701919Y-580410D02*
X13702994Y-575626D01*
X13701919Y-619590D02*
X13701081Y-614758D01*
X13701919Y-8780410D02*
X13702994Y-8775626D01*
X13701919Y-8869590D02*
X13701081Y-8864758D01*
X13701919Y-9530410D02*
X13702994Y-9525626D01*
X13701919Y-9619590D02*
X13701081Y-9614758D01*
X13701919Y-17780410D02*
X13702994Y-17775626D01*
X13701919Y-17819590D02*
X13701081Y-17814758D01*
X13702994Y-575626D02*
X13704302Y-570901D01*
X13702994Y-624374D02*
X13701919Y-619590D01*
X13702994Y-8775626D02*
X13704302Y-8770901D01*
X13702994Y-8874374D02*
X13701919Y-8869590D01*
X13702994Y-9525626D02*
X13704302Y-9520901D01*
X13702994Y-9624374D02*
X13701919Y-9619590D01*
X13702994Y-17775626D02*
X13704302Y-17770901D01*
X13702994Y-17824374D02*
X13701919Y-17819590D01*
X13704302Y-570901D02*
X13705840Y-566245D01*
X13704302Y-629099D02*
X13702994Y-624374D01*
X13704302Y-8770901D02*
X13705840Y-8766245D01*
X13704302Y-8879099D02*
X13702994Y-8874374D01*
X13704302Y-9520901D02*
X13705840Y-9516245D01*
X13704302Y-9629099D02*
X13702994Y-9624374D01*
X13704302Y-17770901D02*
X13705840Y-17766245D01*
X13704302Y-17829099D02*
X13702994Y-17824374D01*
X13705840Y-566245D02*
X13707604Y-561670D01*
X13705840Y-633755D02*
X13704302Y-629099D01*
X13705840Y-8766245D02*
X13707604Y-8761670D01*
X13705840Y-8883755D02*
X13704302Y-8879099D01*
X13705840Y-9516245D02*
X13707604Y-9511670D01*
X13705840Y-9633755D02*
X13704302Y-9629099D01*
X13705840Y-17766245D02*
X13707604Y-17761670D01*
X13705840Y-17833755D02*
X13704302Y-17829099D01*
X13707604Y-561670D02*
X13709591Y-557187D01*
X13707604Y-638330D02*
X13705840Y-633755D01*
X13707604Y-8761670D02*
X13709591Y-8757187D01*
X13707604Y-8888330D02*
X13705840Y-8883755D01*
X13707604Y-9511670D02*
X13709591Y-9507187D01*
X13707604Y-9638330D02*
X13705840Y-9633755D01*
X13707604Y-17761670D02*
X13709591Y-17757187D01*
X13707604Y-17838330D02*
X13705840Y-17833755D01*
X13709591Y-557187D02*
X13711796Y-552807D01*
X13709591Y-642813D02*
X13707604Y-638330D01*
X13709591Y-8757187D02*
X13711796Y-8752807D01*
X13709591Y-8892813D02*
X13707604Y-8888330D01*
X13709591Y-9507187D02*
X13711796Y-9502807D01*
X13709591Y-9642813D02*
X13707604Y-9638330D01*
X13709591Y-17757187D02*
X13711796Y-17752807D01*
X13709591Y-17842813D02*
X13707604Y-17838330D01*
X13711796Y-552807D02*
X13714213Y-548541D01*
X13711796Y-647193D02*
X13709591Y-642813D01*
X13711796Y-8752807D02*
X13714213Y-8748541D01*
X13711796Y-8897193D02*
X13709591Y-8892813D01*
X13711796Y-9502807D02*
X13714213Y-9498541D01*
X13711796Y-9647193D02*
X13709591Y-9642813D01*
X13711796Y-17752807D02*
X13714213Y-17748541D01*
X13711796Y-17847193D02*
X13709591Y-17842813D01*
X13714213Y-548541D02*
X13716836Y-544399D01*
X13714213Y-651459D02*
X13711796Y-647193D01*
X13714213Y-8748541D02*
X13716836Y-8744399D01*
X13714213Y-8901459D02*
X13711796Y-8897193D01*
X13714213Y-9498541D02*
X13716836Y-9494399D01*
X13714213Y-9651459D02*
X13711796Y-9647193D01*
X13714213Y-17748541D02*
X13716836Y-17744399D01*
X13714213Y-17851459D02*
X13711796Y-17847193D01*
X13716836Y-544399D02*
X13719659Y-540390D01*
X13716836Y-655601D02*
X13714213Y-651459D01*
X13716836Y-8744399D02*
X13719659Y-8740390D01*
X13716836Y-8905601D02*
X13714213Y-8901459D01*
X13716836Y-9494399D02*
X13719659Y-9490390D01*
X13716836Y-9655601D02*
X13714213Y-9651459D01*
X13716836Y-17744399D02*
X13719659Y-17740390D01*
X13716836Y-17855601D02*
X13714213Y-17851459D01*
X13719659Y-540390D02*
X13722676Y-536524D01*
X13719659Y-659610D02*
X13716836Y-655601D01*
X13719659Y-8740390D02*
X13722676Y-8736524D01*
X13719659Y-8909610D02*
X13716836Y-8905601D01*
X13719659Y-9490390D02*
X13722676Y-9486524D01*
X13719659Y-9659610D02*
X13716836Y-9655601D01*
X13719659Y-17740390D02*
X13722676Y-17736524D01*
X13719659Y-17859610D02*
X13716836Y-17855601D01*
X13722676Y-536524D02*
X13725879Y-532811D01*
X13722676Y-663476D02*
X13719659Y-659610D01*
X13722676Y-8736524D02*
X13725879Y-8732811D01*
X13722676Y-8913476D02*
X13719659Y-8909610D01*
X13722676Y-9486524D02*
X13725879Y-9482811D01*
X13722676Y-9663476D02*
X13719659Y-9659610D01*
X13722676Y-17736524D02*
X13725879Y-17732811D01*
X13722676Y-17863476D02*
X13719659Y-17859610D01*
X13725879Y-532811D02*
X13729260Y-529260D01*
X13725879Y-667189D02*
X13722676Y-663476D01*
X13725879Y-8732811D02*
X13729260Y-8729260D01*
X13725879Y-8917189D02*
X13722676Y-8913476D01*
X13725879Y-9482811D02*
X13729260Y-9479260D01*
X13725879Y-9667189D02*
X13722676Y-9663476D01*
X13725879Y-17732811D02*
X13729260Y-17729260D01*
X13725879Y-17867189D02*
X13722676Y-17863476D01*
X13729260Y-529260D02*
X13732811Y-525879D01*
X13729260Y-670740D02*
X13725879Y-667189D01*
X13729260Y-8729260D02*
X13732811Y-8725879D01*
X13729260Y-8920740D02*
X13725879Y-8917189D01*
X13729260Y-9479260D02*
X13732811Y-9475879D01*
X13729260Y-9670740D02*
X13725879Y-9667189D01*
X13729260Y-17729260D02*
X13732811Y-17725879D01*
X13729260Y-17870740D02*
X13725879Y-17867189D01*
X13732811Y-525879D02*
X13736524Y-522676D01*
X13732811Y-674121D02*
X13729260Y-670740D01*
X13732811Y-8725879D02*
X13736524Y-8722676D01*
X13732811Y-8924121D02*
X13729260Y-8920740D01*
X13732811Y-9475879D02*
X13736524Y-9472676D01*
X13732811Y-9674121D02*
X13729260Y-9670740D01*
X13732811Y-17725879D02*
X13736524Y-17722676D01*
X13732811Y-17874121D02*
X13729260Y-17870740D01*
X13736524Y-522676D02*
X13740390Y-519659D01*
X13736524Y-677324D02*
X13732811Y-674121D01*
X13736524Y-8722676D02*
X13740390Y-8719660D01*
X13736524Y-8927324D02*
X13732811Y-8924121D01*
X13736524Y-9472676D02*
X13740390Y-9469660D01*
X13736524Y-9677324D02*
X13732811Y-9674121D01*
X13736524Y-17722676D02*
X13740390Y-17719660D01*
X13736524Y-17877324D02*
X13732811Y-17874121D01*
X13740390Y-519659D02*
X13744398Y-516836D01*
X13740390Y-680340D02*
X13736524Y-677324D01*
X13740390Y-8719660D02*
X13744398Y-8716836D01*
X13740390Y-8930340D02*
X13736524Y-8927324D01*
X13740390Y-9469660D02*
X13744398Y-9466836D01*
X13740390Y-9680340D02*
X13736524Y-9677324D01*
X13740390Y-17719660D02*
X13744398Y-17716836D01*
X13740390Y-17880340D02*
X13736524Y-17877324D01*
X13744398Y-516836D02*
X13748541Y-514213D01*
X13744398Y-683164D02*
X13740390Y-680340D01*
X13744398Y-8716836D02*
X13748541Y-8714213D01*
X13744398Y-8933164D02*
X13740390Y-8930340D01*
X13744398Y-9466836D02*
X13748541Y-9464213D01*
X13744398Y-9683164D02*
X13740390Y-9680340D01*
X13744398Y-17716836D02*
X13748541Y-17714213D01*
X13744398Y-17883164D02*
X13740390Y-17880340D01*
X13748541Y-514213D02*
X13752807Y-511796D01*
X13748541Y-685787D02*
X13744398Y-683164D01*
X13748541Y-8714213D02*
X13752807Y-8711796D01*
X13748541Y-8935787D02*
X13744398Y-8933164D01*
X13748541Y-9464213D02*
X13752807Y-9461796D01*
X13748541Y-9685787D02*
X13744398Y-9683164D01*
X13748541Y-17714213D02*
X13752807Y-17711796D01*
X13748541Y-17885787D02*
X13744398Y-17883164D01*
X13752807Y-511796D02*
X13757187Y-509591D01*
X13752807Y-688204D02*
X13748541Y-685787D01*
X13752807Y-8711796D02*
X13757187Y-8709591D01*
X13752807Y-8938204D02*
X13748541Y-8935787D01*
X13752807Y-9461796D02*
X13757187Y-9459591D01*
X13752807Y-9688204D02*
X13748541Y-9685787D01*
X13752807Y-17711796D02*
X13757187Y-17709591D01*
X13752807Y-17888204D02*
X13748541Y-17885787D01*
X13757187Y-509591D02*
X13761670Y-507604D01*
X13757187Y-690409D02*
X13752807Y-688204D01*
X13757187Y-8709591D02*
X13761670Y-8707604D01*
X13757187Y-8940409D02*
X13752807Y-8938204D01*
X13757187Y-9459591D02*
X13761670Y-9457604D01*
X13757187Y-9690409D02*
X13752807Y-9688204D01*
X13757187Y-17709591D02*
X13761670Y-17707604D01*
X13757187Y-17890409D02*
X13752807Y-17888204D01*
X13761670Y-507604D02*
X13766245Y-505840D01*
X13761670Y-692396D02*
X13757187Y-690409D01*
X13761670Y-8707604D02*
X13766245Y-8705840D01*
X13761670Y-8942396D02*
X13757187Y-8940409D01*
X13761670Y-9457604D02*
X13766245Y-9455840D01*
X13761670Y-9692396D02*
X13757187Y-9690409D01*
X13761670Y-17707604D02*
X13766245Y-17705840D01*
X13761670Y-17892396D02*
X13757187Y-17890409D01*
X13766245Y-505840D02*
X13770900Y-504302D01*
X13766245Y-694160D02*
X13761670Y-692396D01*
X13766245Y-8705840D02*
X13770900Y-8704302D01*
X13766245Y-8944160D02*
X13761670Y-8942396D01*
X13766245Y-9455840D02*
X13770900Y-9454302D01*
X13766245Y-9694160D02*
X13761670Y-9692396D01*
X13766245Y-17705840D02*
X13770900Y-17704302D01*
X13766245Y-17894160D02*
X13761670Y-17892396D01*
X13770900Y-504302D02*
X13775626Y-502994D01*
X13770900Y-695698D02*
X13766245Y-694160D01*
X13770900Y-8704302D02*
X13775626Y-8702994D01*
X13770900Y-8945698D02*
X13766245Y-8944160D01*
X13770900Y-9454302D02*
X13775626Y-9452994D01*
X13770900Y-9695698D02*
X13766245Y-9694160D01*
X13770900Y-17704302D02*
X13775626Y-17702994D01*
X13770900Y-17895698D02*
X13766245Y-17894160D01*
X13775626Y-502994D02*
X13780410Y-501919D01*
X13775626Y-697006D02*
X13770900Y-695698D01*
X13775626Y-8702994D02*
X13780410Y-8701920D01*
X13775626Y-8947006D02*
X13770900Y-8945698D01*
X13775626Y-9452994D02*
X13780410Y-9451920D01*
X13775626Y-9697006D02*
X13770900Y-9695698D01*
X13775626Y-17702994D02*
X13780410Y-17701920D01*
X13775626Y-17897006D02*
X13770900Y-17895698D01*
X13780410Y-501919D02*
X13785242Y-501081D01*
X13780410Y-698080D02*
X13775626Y-697006D01*
X13780410Y-8701920D02*
X13785242Y-8701081D01*
X13780410Y-8948080D02*
X13775626Y-8947006D01*
X13780410Y-9451920D02*
X13785242Y-9451081D01*
X13780410Y-9698080D02*
X13775626Y-9697006D01*
X13780410Y-17701920D02*
X13785242Y-17701081D01*
X13780410Y-17898080D02*
X13775626Y-17897006D01*
X13785242Y-501081D02*
X13790108Y-500481D01*
X13785242Y-698919D02*
X13780410Y-698080D01*
X13785242Y-8701081D02*
X13790108Y-8700481D01*
X13785242Y-8948919D02*
X13780410Y-8948080D01*
X13785242Y-9451081D02*
X13790108Y-9450481D01*
X13785242Y-9698919D02*
X13780410Y-9698080D01*
X13785242Y-17701081D02*
X13790108Y-17700481D01*
X13785242Y-17898919D02*
X13780410Y-17898080D01*
X13790108Y-500481D02*
X13794998Y-500120D01*
X13790108Y-699519D02*
X13785242Y-698919D01*
X13790108Y-8700481D02*
X13794998Y-8700120D01*
X13790108Y-8949519D02*
X13785242Y-8948919D01*
X13790108Y-9450481D02*
X13794998Y-9450120D01*
X13790108Y-9699519D02*
X13785242Y-9698919D01*
X13790108Y-17700481D02*
X13794998Y-17700120D01*
X13790108Y-17899519D02*
X13785242Y-17898919D01*
X13794998Y-500120D02*
X13799901Y-500000D01*
X13794998Y-699880D02*
X13790108Y-699519D01*
X13794998Y-8700120D02*
X13799901Y-8700000D01*
X13794998Y-8949880D02*
X13790108Y-8949519D01*
X13794998Y-9450120D02*
X13799901Y-9450000D01*
X13794998Y-9699880D02*
X13790108Y-9699519D01*
X13794998Y-17700120D02*
X13799901Y-17700000D01*
X13794998Y-17899880D02*
X13790108Y-17899519D01*
X13799901Y-500000D02*
X19800099Y-500000D01*
X13799901Y-700000D02*
X13794998Y-699880D01*
X13799901Y-8700000D02*
X19699895Y-8699971D01*
X13799901Y-8950000D02*
X13794998Y-8949880D01*
X13799901Y-9450000D02*
X19800099Y-9450000D01*
X13799901Y-9700000D02*
X13794998Y-9699880D01*
X13799901Y-17700000D02*
X19699900Y-17699969D01*
X13799901Y-17900000D02*
X13794998Y-17899880D01*
X19698773Y-700000D02*
X13799901Y-700000D01*
X19698773Y-9700000D02*
X13799901Y-9700000D01*
X19699895Y-8699971D02*
X19700000Y-8698773D01*
X19699900Y-17699969D02*
X19700000Y-17698773D01*
X19699973Y-700124D02*
X19698773Y-700000D01*
X19699973Y-9700125D02*
X19698773Y-9700000D01*
X19700000Y-2100099D02*
X19699973Y-700124D01*
X19700000Y-7299901D02*
X19700120Y-7294998D01*
X19700000Y-8698773D02*
X19700000Y-7299901D01*
X19700000Y-11100099D02*
X19699973Y-9700125D01*
X19700000Y-16299901D02*
X19700120Y-16294998D01*
X19700000Y-17698773D02*
X19700000Y-16299901D01*
X19700120Y-2105002D02*
X19700000Y-2100099D01*
X19700120Y-7294998D02*
X19700481Y-7290108D01*
X19700120Y-11105002D02*
X19700000Y-11100099D01*
X19700120Y-16294998D02*
X19700481Y-16290108D01*
X19700481Y-2109892D02*
X19700120Y-2105002D01*
X19700481Y-7290108D02*
X19701081Y-7285242D01*
X19700481Y-11109892D02*
X19700120Y-11105002D01*
X19700481Y-16290108D02*
X19701081Y-16285242D01*
X19701081Y-2114758D02*
X19700481Y-2109892D01*
X19701081Y-7285242D02*
X19701920Y-7280410D01*
X19701081Y-11114758D02*
X19700481Y-11109892D01*
X19701081Y-16285242D02*
X19701920Y-16280410D01*
X19701920Y-2119590D02*
X19701081Y-2114758D01*
X19701920Y-7280410D02*
X19702994Y-7275626D01*
X19701920Y-11119590D02*
X19701081Y-11114758D01*
X19701920Y-16280410D02*
X19702994Y-16275626D01*
X19702994Y-2124374D02*
X19701920Y-2119590D01*
X19702994Y-7275626D02*
X19704302Y-7270900D01*
X19702994Y-11124374D02*
X19701920Y-11119590D01*
X19702994Y-16275626D02*
X19704302Y-16270900D01*
X19704302Y-2129099D02*
X19702994Y-2124374D01*
X19704302Y-7270900D02*
X19705840Y-7266245D01*
X19704302Y-11129099D02*
X19702994Y-11124374D01*
X19704302Y-16270900D02*
X19705840Y-16266245D01*
X19705840Y-2133755D02*
X19704302Y-2129099D01*
X19705840Y-7266245D02*
X19707604Y-7261670D01*
X19705840Y-11133755D02*
X19704302Y-11129099D01*
X19705840Y-16266245D02*
X19707604Y-16261670D01*
X19707604Y-2138330D02*
X19705840Y-2133755D01*
X19707604Y-7261670D02*
X19709591Y-7257187D01*
X19707604Y-11138330D02*
X19705840Y-11133755D01*
X19707604Y-16261670D02*
X19709591Y-16257187D01*
X19709591Y-2142813D02*
X19707604Y-2138330D01*
X19709591Y-7257187D02*
X19711796Y-7252807D01*
X19709591Y-11142813D02*
X19707604Y-11138330D01*
X19709591Y-16257187D02*
X19711796Y-16252807D01*
X19711796Y-2147193D02*
X19709591Y-2142813D01*
X19711796Y-7252807D02*
X19714213Y-7248541D01*
X19711796Y-11147193D02*
X19709591Y-11142813D01*
X19711796Y-16252807D02*
X19714213Y-16248541D01*
X19714213Y-2151459D02*
X19711796Y-2147193D01*
X19714213Y-7248541D02*
X19716836Y-7244398D01*
X19714213Y-11151459D02*
X19711796Y-11147193D01*
X19714213Y-16248541D02*
X19716836Y-16244398D01*
X19716836Y-2155601D02*
X19714213Y-2151459D01*
X19716836Y-7244398D02*
X19719660Y-7240390D01*
X19716836Y-11155601D02*
X19714213Y-11151459D01*
X19716836Y-16244398D02*
X19719660Y-16240390D01*
X19719660Y-2159610D02*
X19716836Y-2155601D01*
X19719660Y-7240390D02*
X19722676Y-7236524D01*
X19719660Y-11159610D02*
X19716836Y-11155601D01*
X19719660Y-16240390D02*
X19722676Y-16236524D01*
X19722676Y-2163476D02*
X19719660Y-2159610D01*
X19722676Y-7236524D02*
X19725879Y-7232811D01*
X19722676Y-11163476D02*
X19719660Y-11159610D01*
X19722676Y-16236524D02*
X19725879Y-16232811D01*
X19725879Y-2167189D02*
X19722676Y-2163476D01*
X19725879Y-7232811D02*
X19729260Y-7229260D01*
X19725879Y-11167189D02*
X19722676Y-11163476D01*
X19725879Y-16232811D02*
X19729260Y-16229260D01*
X19729260Y-2170740D02*
X19725879Y-2167189D01*
X19729260Y-7229260D02*
X19732811Y-7225879D01*
X19729260Y-11170740D02*
X19725879Y-11167189D01*
X19729260Y-16229260D02*
X19732811Y-16225879D01*
X19732811Y-2174121D02*
X19729260Y-2170740D01*
X19732811Y-7225879D02*
X19736524Y-7222676D01*
X19732811Y-11174121D02*
X19729260Y-11170740D01*
X19732811Y-16225879D02*
X19736524Y-16222676D01*
X19736524Y-2177324D02*
X19732811Y-2174121D01*
X19736524Y-7222676D02*
X19740390Y-7219659D01*
X19736524Y-11177324D02*
X19732811Y-11174121D01*
X19736524Y-16222676D02*
X19740390Y-16219659D01*
X19740390Y-2180340D02*
X19736524Y-2177324D01*
X19740390Y-7219659D02*
X19744399Y-7216836D01*
X19740390Y-11180340D02*
X19736524Y-11177324D01*
X19740390Y-16219659D02*
X19744399Y-16216836D01*
X19744399Y-2183164D02*
X19740390Y-2180340D01*
X19744399Y-7216836D02*
X19748541Y-7214213D01*
X19744399Y-11183164D02*
X19740390Y-11180340D01*
X19744399Y-16216836D02*
X19748541Y-16214213D01*
X19748541Y-2185787D02*
X19744399Y-2183164D01*
X19748541Y-7214213D02*
X19752807Y-7211796D01*
X19748541Y-11185787D02*
X19744399Y-11183164D01*
X19748541Y-16214213D02*
X19752807Y-16211796D01*
X19752807Y-2188204D02*
X19748541Y-2185787D01*
X19752807Y-7211796D02*
X19757187Y-7209591D01*
X19752807Y-11188204D02*
X19748541Y-11185787D01*
X19752807Y-16211796D02*
X19757187Y-16209591D01*
X19757187Y-2190409D02*
X19752807Y-2188204D01*
X19757187Y-7209591D02*
X19761670Y-7207604D01*
X19757187Y-11190408D02*
X19752807Y-11188204D01*
X19757187Y-16209591D02*
X19761670Y-16207604D01*
X19761670Y-2192396D02*
X19757187Y-2190409D01*
X19761670Y-7207604D02*
X19766245Y-7205840D01*
X19761670Y-11192395D02*
X19757187Y-11190408D01*
X19761670Y-16207604D02*
X19766245Y-16205840D01*
X19766245Y-2194160D02*
X19761670Y-2192396D01*
X19766245Y-7205840D02*
X19770901Y-7204302D01*
X19766245Y-11194160D02*
X19761670Y-11192395D01*
X19766245Y-16205840D02*
X19770901Y-16204302D01*
X19770901Y-2195698D02*
X19766245Y-2194160D01*
X19770901Y-7204302D02*
X19775626Y-7202994D01*
X19770901Y-11195698D02*
X19766245Y-11194160D01*
X19770901Y-16204302D02*
X19775626Y-16202994D01*
X19775626Y-2197006D02*
X19770901Y-2195698D01*
X19775626Y-7202994D02*
X19780410Y-7201919D01*
X19775626Y-11197006D02*
X19770901Y-11195698D01*
X19775626Y-16202994D02*
X19780410Y-16201919D01*
X19780410Y-2198080D02*
X19775626Y-2197006D01*
X19780410Y-7201919D02*
X19785242Y-7201081D01*
X19780410Y-11198080D02*
X19775626Y-11197006D01*
X19780410Y-16201919D02*
X19785242Y-16201081D01*
X19785242Y-2198919D02*
X19780410Y-2198080D01*
X19785242Y-7201081D02*
X19790108Y-7200481D01*
X19785242Y-11198919D02*
X19780410Y-11198080D01*
X19785242Y-16201081D02*
X19790108Y-16200481D01*
X19790108Y-2199519D02*
X19785242Y-2198919D01*
X19790108Y-7200481D02*
X19794998Y-7200120D01*
X19790108Y-11199519D02*
X19785242Y-11198919D01*
X19790108Y-16200481D02*
X19794998Y-16200120D01*
X19794998Y-2199880D02*
X19790108Y-2199519D01*
X19794998Y-7200120D02*
X19800099Y-7200000D01*
X19794998Y-11199880D02*
X19790108Y-11199519D01*
X19794998Y-16200120D02*
X19800099Y-16200000D01*
X19800099Y-500000D02*
X19805002Y-500120D01*
X19800099Y-2200000D02*
X19794998Y-2199880D01*
X19800099Y-7200000D02*
X19805002Y-7200120D01*
X19800099Y-8950000D02*
X13799901Y-8950000D01*
X19800099Y-9450000D02*
X19805002Y-9450120D01*
X19800099Y-11200000D02*
X19794998Y-11199880D01*
X19800099Y-16200000D02*
X19805002Y-16200120D01*
X19800099Y-17900000D02*
X13799901Y-17900000D01*
X19805002Y-500120D02*
X19809892Y-500481D01*
X19805002Y-2199880D02*
X19800099Y-2200000D01*
X19805002Y-7200120D02*
X19809892Y-7200481D01*
X19805002Y-8949880D02*
X19800099Y-8950000D01*
X19805002Y-9450120D02*
X19809892Y-9450481D01*
X19805002Y-11199880D02*
X19800099Y-11200000D01*
X19805002Y-16200120D02*
X19809892Y-16200481D01*
X19805002Y-17899880D02*
X19800099Y-17900000D01*
X19809892Y-500481D02*
X19814758Y-501081D01*
X19809892Y-2199519D02*
X19805002Y-2199880D01*
X19809892Y-7200481D02*
X19814758Y-7201081D01*
X19809892Y-8949519D02*
X19805002Y-8949880D01*
X19809892Y-9450481D02*
X19814758Y-9451081D01*
X19809892Y-11199519D02*
X19805002Y-11199880D01*
X19809892Y-16200481D02*
X19814758Y-16201081D01*
X19809892Y-17899519D02*
X19805002Y-17899880D01*
X19814758Y-501081D02*
X19819590Y-501919D01*
X19814758Y-2198919D02*
X19809892Y-2199519D01*
X19814758Y-7201081D02*
X19819590Y-7201919D01*
X19814758Y-8948919D02*
X19809892Y-8949519D01*
X19814758Y-9451081D02*
X19819590Y-9451920D01*
X19814758Y-11198919D02*
X19809892Y-11199519D01*
X19814758Y-16201081D02*
X19819590Y-16201919D01*
X19814758Y-17898919D02*
X19809892Y-17899519D01*
X19819590Y-501919D02*
X19824374Y-502994D01*
X19819590Y-2198080D02*
X19814758Y-2198919D01*
X19819590Y-7201919D02*
X19824374Y-7202994D01*
X19819590Y-8948080D02*
X19814758Y-8948919D01*
X19819590Y-9451920D02*
X19824374Y-9452994D01*
X19819590Y-11198080D02*
X19814758Y-11198919D01*
X19819590Y-16201919D02*
X19824374Y-16202994D01*
X19819590Y-17898080D02*
X19814758Y-17898919D01*
X19824374Y-502994D02*
X19829099Y-504302D01*
X19824374Y-2197006D02*
X19819590Y-2198080D01*
X19824374Y-7202994D02*
X19829099Y-7204302D01*
X19824374Y-8947006D02*
X19819590Y-8948080D01*
X19824374Y-9452994D02*
X19829099Y-9454302D01*
X19824374Y-11197006D02*
X19819590Y-11198080D01*
X19824374Y-16202994D02*
X19829099Y-16204302D01*
X19824374Y-17897006D02*
X19819590Y-17898080D01*
X19829099Y-504302D02*
X19833755Y-505840D01*
X19829099Y-2195698D02*
X19824374Y-2197006D01*
X19829099Y-7204302D02*
X19833755Y-7205840D01*
X19829099Y-8945698D02*
X19824374Y-8947006D01*
X19829099Y-9454302D02*
X19833755Y-9455840D01*
X19829099Y-11195698D02*
X19824374Y-11197006D01*
X19829099Y-16204302D02*
X19833755Y-16205840D01*
X19829099Y-17895698D02*
X19824374Y-17897006D01*
X19833755Y-505840D02*
X19838330Y-507604D01*
X19833755Y-2194160D02*
X19829099Y-2195698D01*
X19833755Y-7205840D02*
X19838330Y-7207604D01*
X19833755Y-8944160D02*
X19829099Y-8945698D01*
X19833755Y-9455840D02*
X19838330Y-9457604D01*
X19833755Y-11194160D02*
X19829099Y-11195698D01*
X19833755Y-16205840D02*
X19838330Y-16207604D01*
X19833755Y-17894160D02*
X19829099Y-17895698D01*
X19838330Y-507604D02*
X19842813Y-509591D01*
X19838330Y-2192396D02*
X19833755Y-2194160D01*
X19838330Y-7207604D02*
X19842813Y-7209591D01*
X19838330Y-8942396D02*
X19833755Y-8944160D01*
X19838330Y-9457604D02*
X19842813Y-9459591D01*
X19838330Y-11192395D02*
X19833755Y-11194160D01*
X19838330Y-16207604D02*
X19842813Y-16209591D01*
X19838330Y-17892396D02*
X19833755Y-17894160D01*
X19842813Y-509591D02*
X19847193Y-511796D01*
X19842813Y-2190409D02*
X19838330Y-2192396D01*
X19842813Y-7209591D02*
X19847193Y-7211796D01*
X19842813Y-8940409D02*
X19838330Y-8942396D01*
X19842813Y-9459591D02*
X19847193Y-9461796D01*
X19842813Y-11190408D02*
X19838330Y-11192395D01*
X19842813Y-16209591D02*
X19847193Y-16211796D01*
X19842813Y-17890409D02*
X19838330Y-17892396D01*
X19847193Y-511796D02*
X19851459Y-514213D01*
X19847193Y-2188204D02*
X19842813Y-2190409D01*
X19847193Y-7211796D02*
X19851459Y-7214213D01*
X19847193Y-8938204D02*
X19842813Y-8940409D01*
X19847193Y-9461796D02*
X19851459Y-9464213D01*
X19847193Y-11188204D02*
X19842813Y-11190408D01*
X19847193Y-16211796D02*
X19851459Y-16214213D01*
X19847193Y-17888204D02*
X19842813Y-17890409D01*
X19851459Y-514213D02*
X19855601Y-516836D01*
X19851459Y-2185787D02*
X19847193Y-2188204D01*
X19851459Y-7214213D02*
X19855601Y-7216836D01*
X19851459Y-8935787D02*
X19847193Y-8938204D01*
X19851459Y-9464213D02*
X19855601Y-9466836D01*
X19851459Y-11185787D02*
X19847193Y-11188204D01*
X19851459Y-16214213D02*
X19855601Y-16216836D01*
X19851459Y-17885787D02*
X19847193Y-17888204D01*
X19855601Y-516836D02*
X19859610Y-519659D01*
X19855601Y-2183164D02*
X19851459Y-2185787D01*
X19855601Y-7216836D02*
X19859610Y-7219659D01*
X19855601Y-8933164D02*
X19851459Y-8935787D01*
X19855601Y-9466836D02*
X19859610Y-9469660D01*
X19855601Y-11183164D02*
X19851459Y-11185787D01*
X19855601Y-16216836D02*
X19859610Y-16219659D01*
X19855601Y-17883164D02*
X19851459Y-17885787D01*
X19859610Y-519659D02*
X19863476Y-522676D01*
X19859610Y-2180340D02*
X19855601Y-2183164D01*
X19859610Y-7219659D02*
X19863476Y-7222676D01*
X19859610Y-8930340D02*
X19855601Y-8933164D01*
X19859610Y-9469660D02*
X19863476Y-9472676D01*
X19859610Y-11180340D02*
X19855601Y-11183164D01*
X19859610Y-16219659D02*
X19863476Y-16222676D01*
X19859610Y-17880340D02*
X19855601Y-17883164D01*
X19863476Y-522676D02*
X19867189Y-525879D01*
X19863476Y-2177324D02*
X19859610Y-2180340D01*
X19863476Y-7222676D02*
X19867189Y-7225879D01*
X19863476Y-8927324D02*
X19859610Y-8930340D01*
X19863476Y-9472676D02*
X19867189Y-9475879D01*
X19863476Y-11177324D02*
X19859610Y-11180340D01*
X19863476Y-16222676D02*
X19867189Y-16225879D01*
X19863476Y-17877324D02*
X19859610Y-17880340D01*
X19867189Y-525879D02*
X19870740Y-529260D01*
X19867189Y-2174121D02*
X19863476Y-2177324D01*
X19867189Y-7225879D02*
X19870740Y-7229260D01*
X19867189Y-8924121D02*
X19863476Y-8927324D01*
X19867189Y-9475879D02*
X19870740Y-9479260D01*
X19867189Y-11174121D02*
X19863476Y-11177324D01*
X19867189Y-16225879D02*
X19870740Y-16229260D01*
X19867189Y-17874121D02*
X19863476Y-17877324D01*
X19870740Y-529260D02*
X19874121Y-532811D01*
X19870740Y-2170740D02*
X19867189Y-2174121D01*
X19870740Y-7229260D02*
X19874121Y-7232811D01*
X19870740Y-8920740D02*
X19867189Y-8924121D01*
X19870740Y-9479260D02*
X19874121Y-9482811D01*
X19870740Y-11170740D02*
X19867189Y-11174121D01*
X19870740Y-16229260D02*
X19874121Y-16232811D01*
X19870740Y-17870740D02*
X19867189Y-17874121D01*
X19874121Y-532811D02*
X19877324Y-536524D01*
X19874121Y-2167189D02*
X19870740Y-2170740D01*
X19874121Y-7232811D02*
X19877324Y-7236524D01*
X19874121Y-8917189D02*
X19870740Y-8920740D01*
X19874121Y-9482811D02*
X19877324Y-9486524D01*
X19874121Y-11167189D02*
X19870740Y-11170740D01*
X19874121Y-16232811D02*
X19877324Y-16236524D01*
X19874121Y-17867189D02*
X19870740Y-17870740D01*
X19877324Y-536524D02*
X19880340Y-540390D01*
X19877324Y-2163476D02*
X19874121Y-2167189D01*
X19877324Y-7236524D02*
X19880340Y-7240390D01*
X19877324Y-8913476D02*
X19874121Y-8917189D01*
X19877324Y-9486524D02*
X19880340Y-9490390D01*
X19877324Y-11163476D02*
X19874121Y-11167189D01*
X19877324Y-16236524D02*
X19880340Y-16240390D01*
X19877324Y-17863476D02*
X19874121Y-17867189D01*
X19880340Y-540390D02*
X19883164Y-544399D01*
X19880340Y-2159610D02*
X19877324Y-2163476D01*
X19880340Y-7240390D02*
X19883164Y-7244398D01*
X19880340Y-8909610D02*
X19877324Y-8913476D01*
X19880340Y-9490390D02*
X19883164Y-9494399D01*
X19880340Y-11159610D02*
X19877324Y-11163476D01*
X19880340Y-16240390D02*
X19883164Y-16244398D01*
X19880340Y-17859610D02*
X19877324Y-17863476D01*
X19883164Y-544399D02*
X19885787Y-548541D01*
X19883164Y-2155601D02*
X19880340Y-2159610D01*
X19883164Y-7244398D02*
X19885787Y-7248541D01*
X19883164Y-8905601D02*
X19880340Y-8909610D01*
X19883164Y-9494399D02*
X19885787Y-9498541D01*
X19883164Y-11155601D02*
X19880340Y-11159610D01*
X19883164Y-16244398D02*
X19885787Y-16248541D01*
X19883164Y-17855601D02*
X19880340Y-17859610D01*
X19885787Y-548541D02*
X19888204Y-552807D01*
X19885787Y-2151459D02*
X19883164Y-2155601D01*
X19885787Y-7248541D02*
X19888204Y-7252807D01*
X19885787Y-8901459D02*
X19883164Y-8905601D01*
X19885787Y-9498541D02*
X19888204Y-9502807D01*
X19885787Y-11151459D02*
X19883164Y-11155601D01*
X19885787Y-16248541D02*
X19888204Y-16252807D01*
X19885787Y-17851459D02*
X19883164Y-17855601D01*
X19888204Y-552807D02*
X19890409Y-557187D01*
X19888204Y-2147193D02*
X19885787Y-2151459D01*
X19888204Y-7252807D02*
X19890409Y-7257187D01*
X19888204Y-8897193D02*
X19885787Y-8901459D01*
X19888204Y-9502807D02*
X19890409Y-9507187D01*
X19888204Y-11147193D02*
X19885787Y-11151459D01*
X19888204Y-16252807D02*
X19890409Y-16257187D01*
X19888204Y-17847193D02*
X19885787Y-17851459D01*
X19890409Y-557187D02*
X19892396Y-561670D01*
X19890409Y-2142813D02*
X19888204Y-2147193D01*
X19890409Y-7257187D02*
X19892396Y-7261670D01*
X19890409Y-8892813D02*
X19888204Y-8897193D01*
X19890409Y-9507187D02*
X19892396Y-9511670D01*
X19890409Y-11142813D02*
X19888204Y-11147193D01*
X19890409Y-16257187D02*
X19892396Y-16261670D01*
X19890409Y-17842813D02*
X19888204Y-17847193D01*
X19892396Y-561670D02*
X19894160Y-566245D01*
X19892396Y-2138330D02*
X19890409Y-2142813D01*
X19892396Y-7261670D02*
X19894160Y-7266245D01*
X19892396Y-8888330D02*
X19890409Y-8892813D01*
X19892396Y-9511670D02*
X19894160Y-9516245D01*
X19892396Y-11138330D02*
X19890409Y-11142813D01*
X19892396Y-16261670D02*
X19894160Y-16266245D01*
X19892396Y-17838330D02*
X19890409Y-17842813D01*
X19894160Y-566245D02*
X19895698Y-570901D01*
X19894160Y-2133755D02*
X19892396Y-2138330D01*
X19894160Y-7266245D02*
X19895698Y-7270900D01*
X19894160Y-8883755D02*
X19892396Y-8888330D01*
X19894160Y-9516245D02*
X19895698Y-9520901D01*
X19894160Y-11133755D02*
X19892396Y-11138330D01*
X19894160Y-16266245D02*
X19895698Y-16270900D01*
X19894160Y-17833755D02*
X19892396Y-17838330D01*
X19895698Y-570901D02*
X19897006Y-575626D01*
X19895698Y-2129099D02*
X19894160Y-2133755D01*
X19895698Y-7270900D02*
X19897006Y-7275626D01*
X19895698Y-8879099D02*
X19894160Y-8883755D01*
X19895698Y-9520901D02*
X19897006Y-9525626D01*
X19895698Y-11129099D02*
X19894160Y-11133755D01*
X19895698Y-16270900D02*
X19897006Y-16275626D01*
X19895698Y-17829099D02*
X19894160Y-17833755D01*
X19897006Y-575626D02*
X19898080Y-580410D01*
X19897006Y-2124374D02*
X19895698Y-2129099D01*
X19897006Y-7275626D02*
X19898080Y-7280410D01*
X19897006Y-8874374D02*
X19895698Y-8879099D01*
X19897006Y-9525626D02*
X19898080Y-9530410D01*
X19897006Y-11124374D02*
X19895698Y-11129099D01*
X19897006Y-16275626D02*
X19898080Y-16280410D01*
X19897006Y-17824374D02*
X19895698Y-17829099D01*
X19898080Y-580410D02*
X19898919Y-585242D01*
X19898080Y-2119590D02*
X19897006Y-2124374D01*
X19898080Y-7280410D02*
X19898919Y-7285242D01*
X19898080Y-8869590D02*
X19897006Y-8874374D01*
X19898080Y-9530410D02*
X19898919Y-9535242D01*
X19898080Y-11119590D02*
X19897006Y-11124374D01*
X19898080Y-16280410D02*
X19898919Y-16285242D01*
X19898080Y-17819590D02*
X19897006Y-17824374D01*
X19898919Y-585242D02*
X19899519Y-590108D01*
X19898919Y-2114758D02*
X19898080Y-2119590D01*
X19898919Y-7285242D02*
X19899519Y-7290108D01*
X19898919Y-8864758D02*
X19898080Y-8869590D01*
X19898919Y-9535242D02*
X19899519Y-9540108D01*
X19898919Y-11114758D02*
X19898080Y-11119590D01*
X19898919Y-16285242D02*
X19899519Y-16290108D01*
X19898919Y-17814758D02*
X19898080Y-17819590D01*
X19899519Y-590108D02*
X19899880Y-594998D01*
X19899519Y-2109892D02*
X19898919Y-2114758D01*
X19899519Y-7290108D02*
X19899880Y-7294998D01*
X19899519Y-8859892D02*
X19898919Y-8864758D01*
X19899519Y-9540108D02*
X19899880Y-9544998D01*
X19899519Y-11109892D02*
X19898919Y-11114758D01*
X19899519Y-16290108D02*
X19899880Y-16294998D01*
X19899519Y-17809892D02*
X19898919Y-17814758D01*
X19899880Y-594998D02*
X19900000Y-599901D01*
X19899880Y-2105002D02*
X19899519Y-2109892D01*
X19899880Y-7294998D02*
X19900000Y-7299901D01*
X19899880Y-8855002D02*
X19899519Y-8859892D01*
X19899880Y-9544998D02*
X19900000Y-9549901D01*
X19899880Y-11105002D02*
X19899519Y-11109892D01*
X19899880Y-16294998D02*
X19900000Y-16299901D01*
X19899880Y-17805002D02*
X19899519Y-17809892D01*
X19900000Y-599901D02*
X19900000Y-2100099D01*
X19900000Y-2100099D02*
X19899880Y-2105002D01*
X19900000Y-7299901D02*
X19900000Y-8850099D01*
X19900000Y-8850099D02*
X19899880Y-8855002D01*
X19900000Y-9549901D02*
X19900000Y-11100099D01*
X19900000Y-11100099D02*
X19899880Y-11105002D01*
X19900000Y-16299901D02*
X19900000Y-17800099D01*
X19900000Y-17800099D02*
X19899880Y-17805002D01*
X20399938Y-18399949D02*
X20399949Y-62D01*
X20399949Y-62D02*
X62Y-51D01*
D11*
D10*
X9653000Y-1368000D02*
X9713000Y-1428000D01*
X9713000Y-1368000D02*
X9653000Y-1428000D01*
X9653000Y-10368000D02*
X9713000Y-10428000D01*
X9713000Y-10368000D02*
X9653000Y-10428000D01*
X10231000Y-1368000D02*
X10291000Y-1428000D01*
X10291000Y-1368000D02*
X10231000Y-1428000D01*
X10231000Y-10368000D02*
X10291000Y-10428000D01*
X10291000Y-10368000D02*
X10231000Y-10428000D01*
X19012000Y-7801500D02*
X19072000Y-7861500D01*
X19072000Y-7801500D02*
X19012000Y-7861500D01*
X19012000Y-8379500D02*
X19072000Y-8439500D01*
X19072000Y-8379500D02*
X19012000Y-8439500D01*
X19012000Y-16801500D02*
X19072000Y-16861500D01*
X19072000Y-16801500D02*
X19012000Y-16861500D01*
X19012000Y-17379500D02*
X19072000Y-17439500D01*
X19072000Y-17379500D02*
X19012000Y-17439500D01*
D12*
X307600Y-250000D02*
G75*
G02*
X192400Y-250000I-57600J0D01*
G01*
X192400Y-250000D02*
G75*
G02*
X307600Y-250000I57600J0D01*
G01*
X307600Y-18150000D02*
G75*
G02*
X192400Y-18150000I-57600J0D01*
G01*
X192400Y-18150000D02*
G75*
G02*
X307600Y-18150000I57600J0D01*
G01*
X20207600Y-250000D02*
G75*
G02*
X20092400Y-250000I-57600J0D01*
G01*
X20092400Y-250000D02*
G75*
G02*
X20207600Y-250000I57600J0D01*
G01*
D11*
X255804Y-18716484D02*
X255804Y-18516484D01*
X255804Y-18516484D02*
X303423Y-18516484D01*
X303423Y-18516484D02*
X331994Y-18526008D01*
X331994Y-18526008D02*
X351042Y-18545055D01*
X351042Y-18545055D02*
X360566Y-18564103D01*
X360566Y-18564103D02*
X370089Y-18602198D01*
X370089Y-18602198D02*
X370089Y-18630770D01*
X370089Y-18630770D02*
X360566Y-18668865D01*
X360566Y-18668865D02*
X351042Y-18687912D01*
X351042Y-18687912D02*
X331994Y-18706960D01*
X331994Y-18706960D02*
X303423Y-18716484D01*
X303423Y-18716484D02*
X255804Y-18716484D01*
X455804Y-18716484D02*
X455804Y-18583150D01*
X455804Y-18621246D02*
X465328Y-18602198D01*
X465328Y-18602198D02*
X474851Y-18592674D01*
X474851Y-18592674D02*
X493899Y-18583150D01*
X493899Y-18583150D02*
X512947Y-18583150D01*
X579613Y-18716484D02*
X579613Y-18583150D01*
X579613Y-18516484D02*
X570090Y-18526008D01*
X570090Y-18526008D02*
X579613Y-18535531D01*
X579613Y-18535531D02*
X589137Y-18526008D01*
X589137Y-18526008D02*
X579613Y-18516484D01*
X579613Y-18516484D02*
X579613Y-18535531D01*
X703423Y-18716484D02*
X684375Y-18706960D01*
X684375Y-18706960D02*
X674851Y-18687912D01*
X674851Y-18687912D02*
X674851Y-18516484D01*
X808185Y-18716484D02*
X789137Y-18706960D01*
X789137Y-18706960D02*
X779613Y-18687912D01*
X779613Y-18687912D02*
X779613Y-18516484D01*
X1036756Y-18716484D02*
X1036756Y-18516484D01*
X1036756Y-18516484D02*
X1103423Y-18659341D01*
X1103423Y-18659341D02*
X1170090Y-18516484D01*
X1170090Y-18516484D02*
X1170090Y-18716484D01*
X1351042Y-18716484D02*
X1351042Y-18611722D01*
X1351042Y-18611722D02*
X1341518Y-18592674D01*
X1341518Y-18592674D02*
X1322471Y-18583150D01*
X1322471Y-18583150D02*
X1284375Y-18583150D01*
X1284375Y-18583150D02*
X1265328Y-18592674D01*
X1351042Y-18706960D02*
X1331994Y-18716484D01*
X1331994Y-18716484D02*
X1284375Y-18716484D01*
X1284375Y-18716484D02*
X1265328Y-18706960D01*
X1265328Y-18706960D02*
X1255804Y-18687912D01*
X1255804Y-18687912D02*
X1255804Y-18668865D01*
X1255804Y-18668865D02*
X1265328Y-18649817D01*
X1265328Y-18649817D02*
X1284375Y-18640293D01*
X1284375Y-18640293D02*
X1331994Y-18640293D01*
X1331994Y-18640293D02*
X1351042Y-18630770D01*
X1446280Y-18583150D02*
X1446280Y-18783150D01*
X1446280Y-18592674D02*
X1465328Y-18583150D01*
X1465328Y-18583150D02*
X1503423Y-18583150D01*
X1503423Y-18583150D02*
X1522470Y-18592674D01*
X1522470Y-18592674D02*
X1531994Y-18602198D01*
X1531994Y-18602198D02*
X1541518Y-18621246D01*
X1541518Y-18621246D02*
X1541518Y-18678389D01*
X1541518Y-18678389D02*
X1531994Y-18697436D01*
X1531994Y-18697436D02*
X1522470Y-18706960D01*
X1522470Y-18706960D02*
X1503423Y-18716484D01*
X1503423Y-18716484D02*
X1465328Y-18716484D01*
X1465328Y-18716484D02*
X1446280Y-18706960D01*
X1627232Y-18697436D02*
X1636756Y-18706960D01*
X1636756Y-18706960D02*
X1627232Y-18716484D01*
X1627232Y-18716484D02*
X1617709Y-18706960D01*
X1617709Y-18706960D02*
X1627232Y-18697436D01*
X1627232Y-18697436D02*
X1627232Y-18716484D01*
X1627232Y-18592674D02*
X1636756Y-18602198D01*
X1636756Y-18602198D02*
X1627232Y-18611722D01*
X1627232Y-18611722D02*
X1617709Y-18602198D01*
X1617709Y-18602198D02*
X1627232Y-18592674D01*
X1627232Y-18592674D02*
X1627232Y-18611722D01*
D10*
X-64973Y-19015000D02*
X-4973Y-19075000D01*
X-4973Y-19015000D02*
X-64973Y-19075000D01*
D11*
X293899Y-18936484D02*
X312947Y-18936484D01*
X312947Y-18936484D02*
X331994Y-18946008D01*
X331994Y-18946008D02*
X341518Y-18955531D01*
X341518Y-18955531D02*
X351042Y-18974579D01*
X351042Y-18974579D02*
X360566Y-19012674D01*
X360566Y-19012674D02*
X360566Y-19060293D01*
X360566Y-19060293D02*
X351042Y-19098389D01*
X351042Y-19098389D02*
X341518Y-19117436D01*
X341518Y-19117436D02*
X331994Y-19126960D01*
X331994Y-19126960D02*
X312947Y-19136484D01*
X312947Y-19136484D02*
X293899Y-19136484D01*
X293899Y-19136484D02*
X274851Y-19126960D01*
X274851Y-19126960D02*
X265328Y-19117436D01*
X265328Y-19117436D02*
X255804Y-19098389D01*
X255804Y-19098389D02*
X246280Y-19060293D01*
X246280Y-19060293D02*
X246280Y-19012674D01*
X246280Y-19012674D02*
X255804Y-18974579D01*
X255804Y-18974579D02*
X265328Y-18955531D01*
X265328Y-18955531D02*
X274851Y-18946008D01*
X274851Y-18946008D02*
X293899Y-18936484D01*
X446280Y-19117436D02*
X455804Y-19126960D01*
X455804Y-19126960D02*
X446280Y-19136484D01*
X446280Y-19136484D02*
X436756Y-19126960D01*
X436756Y-19126960D02*
X446280Y-19117436D01*
X446280Y-19117436D02*
X446280Y-19136484D01*
X627232Y-18936484D02*
X589137Y-18936484D01*
X589137Y-18936484D02*
X570090Y-18946008D01*
X570090Y-18946008D02*
X560566Y-18955531D01*
X560566Y-18955531D02*
X541518Y-18984103D01*
X541518Y-18984103D02*
X531994Y-19022198D01*
X531994Y-19022198D02*
X531994Y-19098389D01*
X531994Y-19098389D02*
X541518Y-19117436D01*
X541518Y-19117436D02*
X551042Y-19126960D01*
X551042Y-19126960D02*
X570090Y-19136484D01*
X570090Y-19136484D02*
X608185Y-19136484D01*
X608185Y-19136484D02*
X627232Y-19126960D01*
X627232Y-19126960D02*
X636756Y-19117436D01*
X636756Y-19117436D02*
X646280Y-19098389D01*
X646280Y-19098389D02*
X646280Y-19050770D01*
X646280Y-19050770D02*
X636756Y-19031722D01*
X636756Y-19031722D02*
X627232Y-19022198D01*
X627232Y-19022198D02*
X608185Y-19012674D01*
X608185Y-19012674D02*
X570090Y-19012674D01*
X570090Y-19012674D02*
X551042Y-19022198D01*
X551042Y-19022198D02*
X541518Y-19031722D01*
X541518Y-19031722D02*
X531994Y-19050770D01*
X770089Y-18936484D02*
X789137Y-18936484D01*
X789137Y-18936484D02*
X808185Y-18946008D01*
X808185Y-18946008D02*
X817709Y-18955531D01*
X817709Y-18955531D02*
X827232Y-18974579D01*
X827232Y-18974579D02*
X836756Y-19012674D01*
X836756Y-19012674D02*
X836756Y-19060293D01*
X836756Y-19060293D02*
X827232Y-19098389D01*
X827232Y-19098389D02*
X817709Y-19117436D01*
X817709Y-19117436D02*
X808185Y-19126960D01*
X808185Y-19126960D02*
X789137Y-19136484D01*
X789137Y-19136484D02*
X770089Y-19136484D01*
X770089Y-19136484D02*
X751042Y-19126960D01*
X751042Y-19126960D02*
X741518Y-19117436D01*
X741518Y-19117436D02*
X731994Y-19098389D01*
X731994Y-19098389D02*
X722470Y-19060293D01*
X722470Y-19060293D02*
X722470Y-19012674D01*
X722470Y-19012674D02*
X731994Y-18974579D01*
X731994Y-18974579D02*
X741518Y-18955531D01*
X741518Y-18955531D02*
X751042Y-18946008D01*
X751042Y-18946008D02*
X770089Y-18936484D01*
X960566Y-18936484D02*
X979613Y-18936484D01*
X979613Y-18936484D02*
X998661Y-18946008D01*
X998661Y-18946008D02*
X1008185Y-18955531D01*
X1008185Y-18955531D02*
X1017709Y-18974579D01*
X1017709Y-18974579D02*
X1027232Y-19012674D01*
X1027232Y-19012674D02*
X1027232Y-19060293D01*
X1027232Y-19060293D02*
X1017709Y-19098389D01*
X1017709Y-19098389D02*
X1008185Y-19117436D01*
X1008185Y-19117436D02*
X998661Y-19126960D01*
X998661Y-19126960D02*
X979613Y-19136484D01*
X979613Y-19136484D02*
X960566Y-19136484D01*
X960566Y-19136484D02*
X941518Y-19126960D01*
X941518Y-19126960D02*
X931994Y-19117436D01*
X931994Y-19117436D02*
X922470Y-19098389D01*
X922470Y-19098389D02*
X912947Y-19060293D01*
X912947Y-19060293D02*
X912947Y-19012674D01*
X912947Y-19012674D02*
X922470Y-18974579D01*
X922470Y-18974579D02*
X931994Y-18955531D01*
X931994Y-18955531D02*
X941518Y-18946008D01*
X941518Y-18946008D02*
X960566Y-18936484D01*
X1112947Y-19136484D02*
X1112947Y-19003150D01*
X1112947Y-19022198D02*
X1122471Y-19012674D01*
X1122471Y-19012674D02*
X1141518Y-19003150D01*
X1141518Y-19003150D02*
X1170090Y-19003150D01*
X1170090Y-19003150D02*
X1189137Y-19012674D01*
X1189137Y-19012674D02*
X1198661Y-19031722D01*
X1198661Y-19031722D02*
X1198661Y-19136484D01*
X1198661Y-19031722D02*
X1208185Y-19012674D01*
X1208185Y-19012674D02*
X1227232Y-19003150D01*
X1227232Y-19003150D02*
X1255804Y-19003150D01*
X1255804Y-19003150D02*
X1274852Y-19012674D01*
X1274852Y-19012674D02*
X1284375Y-19031722D01*
X1284375Y-19031722D02*
X1284375Y-19136484D01*
X1379613Y-19136484D02*
X1379613Y-19003150D01*
X1379613Y-19022198D02*
X1389137Y-19012674D01*
X1389137Y-19012674D02*
X1408185Y-19003150D01*
X1408185Y-19003150D02*
X1436756Y-19003150D01*
X1436756Y-19003150D02*
X1455804Y-19012674D01*
X1455804Y-19012674D02*
X1465328Y-19031722D01*
X1465328Y-19031722D02*
X1465328Y-19136484D01*
X1465328Y-19031722D02*
X1474851Y-19012674D01*
X1474851Y-19012674D02*
X1493899Y-19003150D01*
X1493899Y-19003150D02*
X1522470Y-19003150D01*
X1522470Y-19003150D02*
X1541518Y-19012674D01*
X1541518Y-19012674D02*
X1551042Y-19031722D01*
X1551042Y-19031722D02*
X1551042Y-19136484D01*
X1941518Y-18926960D02*
X1770090Y-19184103D01*
X2198661Y-18936484D02*
X2217709Y-18936484D01*
X2217709Y-18936484D02*
X2236756Y-18946008D01*
X2236756Y-18946008D02*
X2246280Y-18955531D01*
X2246280Y-18955531D02*
X2255804Y-18974579D01*
X2255804Y-18974579D02*
X2265328Y-19012674D01*
X2265328Y-19012674D02*
X2265328Y-19060293D01*
X2265328Y-19060293D02*
X2255804Y-19098389D01*
X2255804Y-19098389D02*
X2246280Y-19117436D01*
X2246280Y-19117436D02*
X2236756Y-19126960D01*
X2236756Y-19126960D02*
X2217709Y-19136484D01*
X2217709Y-19136484D02*
X2198661Y-19136484D01*
X2198661Y-19136484D02*
X2179614Y-19126960D01*
X2179614Y-19126960D02*
X2170090Y-19117436D01*
X2170090Y-19117436D02*
X2160566Y-19098389D01*
X2160566Y-19098389D02*
X2151042Y-19060293D01*
X2151042Y-19060293D02*
X2151042Y-19012674D01*
X2151042Y-19012674D02*
X2160566Y-18974579D01*
X2160566Y-18974579D02*
X2170090Y-18955531D01*
X2170090Y-18955531D02*
X2179614Y-18946008D01*
X2179614Y-18946008D02*
X2198661Y-18936484D01*
X2351042Y-19117436D02*
X2360566Y-19126960D01*
X2360566Y-19126960D02*
X2351042Y-19136484D01*
X2351042Y-19136484D02*
X2341518Y-19126960D01*
X2341518Y-19126960D02*
X2351042Y-19117436D01*
X2351042Y-19117436D02*
X2351042Y-19136484D01*
X2484375Y-18936484D02*
X2503423Y-18936484D01*
X2503423Y-18936484D02*
X2522471Y-18946008D01*
X2522471Y-18946008D02*
X2531995Y-18955531D01*
X2531995Y-18955531D02*
X2541518Y-18974579D01*
X2541518Y-18974579D02*
X2551042Y-19012674D01*
X2551042Y-19012674D02*
X2551042Y-19060293D01*
X2551042Y-19060293D02*
X2541518Y-19098389D01*
X2541518Y-19098389D02*
X2531995Y-19117436D01*
X2531995Y-19117436D02*
X2522471Y-19126960D01*
X2522471Y-19126960D02*
X2503423Y-19136484D01*
X2503423Y-19136484D02*
X2484375Y-19136484D01*
X2484375Y-19136484D02*
X2465328Y-19126960D01*
X2465328Y-19126960D02*
X2455804Y-19117436D01*
X2455804Y-19117436D02*
X2446280Y-19098389D01*
X2446280Y-19098389D02*
X2436756Y-19060293D01*
X2436756Y-19060293D02*
X2436756Y-19012674D01*
X2436756Y-19012674D02*
X2446280Y-18974579D01*
X2446280Y-18974579D02*
X2455804Y-18955531D01*
X2455804Y-18955531D02*
X2465328Y-18946008D01*
X2465328Y-18946008D02*
X2484375Y-18936484D01*
X2627233Y-18955531D02*
X2636756Y-18946008D01*
X2636756Y-18946008D02*
X2655804Y-18936484D01*
X2655804Y-18936484D02*
X2703423Y-18936484D01*
X2703423Y-18936484D02*
X2722471Y-18946008D01*
X2722471Y-18946008D02*
X2731995Y-18955531D01*
X2731995Y-18955531D02*
X2741518Y-18974579D01*
X2741518Y-18974579D02*
X2741518Y-18993627D01*
X2741518Y-18993627D02*
X2731995Y-19022198D01*
X2731995Y-19022198D02*
X2617709Y-19136484D01*
X2617709Y-19136484D02*
X2741518Y-19136484D01*
X2808185Y-18936484D02*
X2931994Y-18936484D01*
X2931994Y-18936484D02*
X2865328Y-19012674D01*
X2865328Y-19012674D02*
X2893899Y-19012674D01*
X2893899Y-19012674D02*
X2912947Y-19022198D01*
X2912947Y-19022198D02*
X2922471Y-19031722D01*
X2922471Y-19031722D02*
X2931994Y-19050770D01*
X2931994Y-19050770D02*
X2931994Y-19098389D01*
X2931994Y-19098389D02*
X2922471Y-19117436D01*
X2922471Y-19117436D02*
X2912947Y-19126960D01*
X2912947Y-19126960D02*
X2893899Y-19136484D01*
X2893899Y-19136484D02*
X2836756Y-19136484D01*
X2836756Y-19136484D02*
X2817709Y-19126960D01*
X2817709Y-19126960D02*
X2808185Y-19117436D01*
X3103423Y-18936484D02*
X3065328Y-18936484D01*
X3065328Y-18936484D02*
X3046280Y-18946008D01*
X3046280Y-18946008D02*
X3036756Y-18955531D01*
X3036756Y-18955531D02*
X3017709Y-18984103D01*
X3017709Y-18984103D02*
X3008185Y-19022198D01*
X3008185Y-19022198D02*
X3008185Y-19098389D01*
X3008185Y-19098389D02*
X3017709Y-19117436D01*
X3017709Y-19117436D02*
X3027233Y-19126960D01*
X3027233Y-19126960D02*
X3046280Y-19136484D01*
X3046280Y-19136484D02*
X3084375Y-19136484D01*
X3084375Y-19136484D02*
X3103423Y-19126960D01*
X3103423Y-19126960D02*
X3112947Y-19117436D01*
X3112947Y-19117436D02*
X3122471Y-19098389D01*
X3122471Y-19098389D02*
X3122471Y-19050770D01*
X3122471Y-19050770D02*
X3112947Y-19031722D01*
X3112947Y-19031722D02*
X3103423Y-19022198D01*
X3103423Y-19022198D02*
X3084375Y-19012674D01*
X3084375Y-19012674D02*
X3046280Y-19012674D01*
X3046280Y-19012674D02*
X3027233Y-19022198D01*
X3027233Y-19022198D02*
X3017709Y-19031722D01*
X3017709Y-19031722D02*
X3008185Y-19050770D01*
X3198661Y-18936484D02*
X3198661Y-18974579D01*
X3274852Y-18936484D02*
X3274852Y-18974579D01*
X3570090Y-19212674D02*
X3560566Y-19203150D01*
X3560566Y-19203150D02*
X3541518Y-19174579D01*
X3541518Y-19174579D02*
X3531995Y-19155531D01*
X3531995Y-19155531D02*
X3522471Y-19126960D01*
X3522471Y-19126960D02*
X3512947Y-19079341D01*
X3512947Y-19079341D02*
X3512947Y-19041246D01*
X3512947Y-19041246D02*
X3522471Y-18993627D01*
X3522471Y-18993627D02*
X3531995Y-18965055D01*
X3531995Y-18965055D02*
X3541518Y-18946008D01*
X3541518Y-18946008D02*
X3560566Y-18917436D01*
X3560566Y-18917436D02*
X3570090Y-18907912D01*
X3674852Y-19022198D02*
X3655804Y-19012674D01*
X3655804Y-19012674D02*
X3646280Y-19003150D01*
X3646280Y-19003150D02*
X3636756Y-18984103D01*
X3636756Y-18984103D02*
X3636756Y-18974579D01*
X3636756Y-18974579D02*
X3646280Y-18955531D01*
X3646280Y-18955531D02*
X3655804Y-18946008D01*
X3655804Y-18946008D02*
X3674852Y-18936484D01*
X3674852Y-18936484D02*
X3712947Y-18936484D01*
X3712947Y-18936484D02*
X3731995Y-18946008D01*
X3731995Y-18946008D02*
X3741518Y-18955531D01*
X3741518Y-18955531D02*
X3751042Y-18974579D01*
X3751042Y-18974579D02*
X3751042Y-18984103D01*
X3751042Y-18984103D02*
X3741518Y-19003150D01*
X3741518Y-19003150D02*
X3731995Y-19012674D01*
X3731995Y-19012674D02*
X3712947Y-19022198D01*
X3712947Y-19022198D02*
X3674852Y-19022198D01*
X3674852Y-19022198D02*
X3655804Y-19031722D01*
X3655804Y-19031722D02*
X3646280Y-19041246D01*
X3646280Y-19041246D02*
X3636756Y-19060293D01*
X3636756Y-19060293D02*
X3636756Y-19098389D01*
X3636756Y-19098389D02*
X3646280Y-19117436D01*
X3646280Y-19117436D02*
X3655804Y-19126960D01*
X3655804Y-19126960D02*
X3674852Y-19136484D01*
X3674852Y-19136484D02*
X3712947Y-19136484D01*
X3712947Y-19136484D02*
X3731995Y-19126960D01*
X3731995Y-19126960D02*
X3741518Y-19117436D01*
X3741518Y-19117436D02*
X3751042Y-19098389D01*
X3751042Y-19098389D02*
X3751042Y-19060293D01*
X3751042Y-19060293D02*
X3741518Y-19041246D01*
X3741518Y-19041246D02*
X3731995Y-19031722D01*
X3731995Y-19031722D02*
X3712947Y-19022198D01*
X3989137Y-19136484D02*
X3989137Y-18936484D01*
X4074852Y-19136484D02*
X4074852Y-19031722D01*
X4074852Y-19031722D02*
X4065328Y-19012674D01*
X4065328Y-19012674D02*
X4046280Y-19003150D01*
X4046280Y-19003150D02*
X4017709Y-19003150D01*
X4017709Y-19003150D02*
X3998661Y-19012674D01*
X3998661Y-19012674D02*
X3989137Y-19022198D01*
X4198661Y-19136484D02*
X4179614Y-19126960D01*
X4179614Y-19126960D02*
X4170090Y-19117436D01*
X4170090Y-19117436D02*
X4160566Y-19098389D01*
X4160566Y-19098389D02*
X4160566Y-19041246D01*
X4160566Y-19041246D02*
X4170090Y-19022198D01*
X4170090Y-19022198D02*
X4179614Y-19012674D01*
X4179614Y-19012674D02*
X4198661Y-19003150D01*
X4198661Y-19003150D02*
X4227233Y-19003150D01*
X4227233Y-19003150D02*
X4246280Y-19012674D01*
X4246280Y-19012674D02*
X4255804Y-19022198D01*
X4255804Y-19022198D02*
X4265328Y-19041246D01*
X4265328Y-19041246D02*
X4265328Y-19098389D01*
X4265328Y-19098389D02*
X4255804Y-19117436D01*
X4255804Y-19117436D02*
X4246280Y-19126960D01*
X4246280Y-19126960D02*
X4227233Y-19136484D01*
X4227233Y-19136484D02*
X4198661Y-19136484D01*
X4379614Y-19136484D02*
X4360566Y-19126960D01*
X4360566Y-19126960D02*
X4351042Y-19107912D01*
X4351042Y-19107912D02*
X4351042Y-18936484D01*
X4531995Y-19126960D02*
X4512947Y-19136484D01*
X4512947Y-19136484D02*
X4474852Y-19136484D01*
X4474852Y-19136484D02*
X4455804Y-19126960D01*
X4455804Y-19126960D02*
X4446280Y-19107912D01*
X4446280Y-19107912D02*
X4446280Y-19031722D01*
X4446280Y-19031722D02*
X4455804Y-19012674D01*
X4455804Y-19012674D02*
X4474852Y-19003150D01*
X4474852Y-19003150D02*
X4512947Y-19003150D01*
X4512947Y-19003150D02*
X4531995Y-19012674D01*
X4531995Y-19012674D02*
X4541519Y-19031722D01*
X4541519Y-19031722D02*
X4541519Y-19050770D01*
X4541519Y-19050770D02*
X4446280Y-19069817D01*
X4617709Y-19126960D02*
X4636757Y-19136484D01*
X4636757Y-19136484D02*
X4674852Y-19136484D01*
X4674852Y-19136484D02*
X4693900Y-19126960D01*
X4693900Y-19126960D02*
X4703423Y-19107912D01*
X4703423Y-19107912D02*
X4703423Y-19098389D01*
X4703423Y-19098389D02*
X4693900Y-19079341D01*
X4693900Y-19079341D02*
X4674852Y-19069817D01*
X4674852Y-19069817D02*
X4646280Y-19069817D01*
X4646280Y-19069817D02*
X4627233Y-19060293D01*
X4627233Y-19060293D02*
X4617709Y-19041246D01*
X4617709Y-19041246D02*
X4617709Y-19031722D01*
X4617709Y-19031722D02*
X4627233Y-19012674D01*
X4627233Y-19012674D02*
X4646280Y-19003150D01*
X4646280Y-19003150D02*
X4674852Y-19003150D01*
X4674852Y-19003150D02*
X4693900Y-19012674D01*
X4770090Y-19212674D02*
X4779614Y-19203150D01*
X4779614Y-19203150D02*
X4798661Y-19174579D01*
X4798661Y-19174579D02*
X4808185Y-19155531D01*
X4808185Y-19155531D02*
X4817709Y-19126960D01*
X4817709Y-19126960D02*
X4827233Y-19079341D01*
X4827233Y-19079341D02*
X4827233Y-19041246D01*
X4827233Y-19041246D02*
X4817709Y-18993627D01*
X4817709Y-18993627D02*
X4808185Y-18965055D01*
X4808185Y-18965055D02*
X4798661Y-18946008D01*
X4798661Y-18946008D02*
X4779614Y-18917436D01*
X4779614Y-18917436D02*
X4770090Y-18907912D01*
X5131995Y-19212674D02*
X5122471Y-19203150D01*
X5122471Y-19203150D02*
X5103423Y-19174579D01*
X5103423Y-19174579D02*
X5093900Y-19155531D01*
X5093900Y-19155531D02*
X5084376Y-19126960D01*
X5084376Y-19126960D02*
X5074852Y-19079341D01*
X5074852Y-19079341D02*
X5074852Y-19041246D01*
X5074852Y-19041246D02*
X5084376Y-18993627D01*
X5084376Y-18993627D02*
X5093900Y-18965055D01*
X5093900Y-18965055D02*
X5103423Y-18946008D01*
X5103423Y-18946008D02*
X5122471Y-18917436D01*
X5122471Y-18917436D02*
X5131995Y-18907912D01*
X5208185Y-19003150D02*
X5208185Y-19136484D01*
X5208185Y-19022198D02*
X5217709Y-19012674D01*
X5217709Y-19012674D02*
X5236757Y-19003150D01*
X5236757Y-19003150D02*
X5265328Y-19003150D01*
X5265328Y-19003150D02*
X5284376Y-19012674D01*
X5284376Y-19012674D02*
X5293900Y-19031722D01*
X5293900Y-19031722D02*
X5293900Y-19136484D01*
X5417709Y-19136484D02*
X5398661Y-19126960D01*
X5398661Y-19126960D02*
X5389138Y-19117436D01*
X5389138Y-19117436D02*
X5379614Y-19098389D01*
X5379614Y-19098389D02*
X5379614Y-19041246D01*
X5379614Y-19041246D02*
X5389138Y-19022198D01*
X5389138Y-19022198D02*
X5398661Y-19012674D01*
X5398661Y-19012674D02*
X5417709Y-19003150D01*
X5417709Y-19003150D02*
X5446281Y-19003150D01*
X5446281Y-19003150D02*
X5465328Y-19012674D01*
X5465328Y-19012674D02*
X5474852Y-19022198D01*
X5474852Y-19022198D02*
X5484376Y-19041246D01*
X5484376Y-19041246D02*
X5484376Y-19098389D01*
X5484376Y-19098389D02*
X5474852Y-19117436D01*
X5474852Y-19117436D02*
X5465328Y-19126960D01*
X5465328Y-19126960D02*
X5446281Y-19136484D01*
X5446281Y-19136484D02*
X5417709Y-19136484D01*
X5541519Y-19003150D02*
X5617709Y-19003150D01*
X5570090Y-18936484D02*
X5570090Y-19107912D01*
X5570090Y-19107912D02*
X5579614Y-19126960D01*
X5579614Y-19126960D02*
X5598661Y-19136484D01*
X5598661Y-19136484D02*
X5617709Y-19136484D01*
X5836757Y-19003150D02*
X5836757Y-19203150D01*
X5836757Y-19012674D02*
X5855804Y-19003150D01*
X5855804Y-19003150D02*
X5893900Y-19003150D01*
X5893900Y-19003150D02*
X5912947Y-19012674D01*
X5912947Y-19012674D02*
X5922471Y-19022198D01*
X5922471Y-19022198D02*
X5931995Y-19041246D01*
X5931995Y-19041246D02*
X5931995Y-19098389D01*
X5931995Y-19098389D02*
X5922471Y-19117436D01*
X5922471Y-19117436D02*
X5912947Y-19126960D01*
X5912947Y-19126960D02*
X5893900Y-19136484D01*
X5893900Y-19136484D02*
X5855804Y-19136484D01*
X5855804Y-19136484D02*
X5836757Y-19126960D01*
X6046280Y-19136484D02*
X6027233Y-19126960D01*
X6027233Y-19126960D02*
X6017709Y-19107912D01*
X6017709Y-19107912D02*
X6017709Y-18936484D01*
X6208185Y-19136484D02*
X6208185Y-19031722D01*
X6208185Y-19031722D02*
X6198661Y-19012674D01*
X6198661Y-19012674D02*
X6179614Y-19003150D01*
X6179614Y-19003150D02*
X6141519Y-19003150D01*
X6141519Y-19003150D02*
X6122471Y-19012674D01*
X6208185Y-19126960D02*
X6189138Y-19136484D01*
X6189138Y-19136484D02*
X6141519Y-19136484D01*
X6141519Y-19136484D02*
X6122471Y-19126960D01*
X6122471Y-19126960D02*
X6112947Y-19107912D01*
X6112947Y-19107912D02*
X6112947Y-19088865D01*
X6112947Y-19088865D02*
X6122471Y-19069817D01*
X6122471Y-19069817D02*
X6141519Y-19060293D01*
X6141519Y-19060293D02*
X6189138Y-19060293D01*
X6189138Y-19060293D02*
X6208185Y-19050770D01*
X6274852Y-19003150D02*
X6351042Y-19003150D01*
X6303423Y-18936484D02*
X6303423Y-19107912D01*
X6303423Y-19107912D02*
X6312947Y-19126960D01*
X6312947Y-19126960D02*
X6331995Y-19136484D01*
X6331995Y-19136484D02*
X6351042Y-19136484D01*
X6493900Y-19126960D02*
X6474852Y-19136484D01*
X6474852Y-19136484D02*
X6436757Y-19136484D01*
X6436757Y-19136484D02*
X6417709Y-19126960D01*
X6417709Y-19126960D02*
X6408185Y-19107912D01*
X6408185Y-19107912D02*
X6408185Y-19031722D01*
X6408185Y-19031722D02*
X6417709Y-19012674D01*
X6417709Y-19012674D02*
X6436757Y-19003150D01*
X6436757Y-19003150D02*
X6474852Y-19003150D01*
X6474852Y-19003150D02*
X6493900Y-19012674D01*
X6493900Y-19012674D02*
X6503423Y-19031722D01*
X6503423Y-19031722D02*
X6503423Y-19050770D01*
X6503423Y-19050770D02*
X6408185Y-19069817D01*
X6674852Y-19136484D02*
X6674852Y-18936484D01*
X6674852Y-19126960D02*
X6655804Y-19136484D01*
X6655804Y-19136484D02*
X6617709Y-19136484D01*
X6617709Y-19136484D02*
X6598661Y-19126960D01*
X6598661Y-19126960D02*
X6589138Y-19117436D01*
X6589138Y-19117436D02*
X6579614Y-19098389D01*
X6579614Y-19098389D02*
X6579614Y-19041246D01*
X6579614Y-19041246D02*
X6589138Y-19022198D01*
X6589138Y-19022198D02*
X6598661Y-19012674D01*
X6598661Y-19012674D02*
X6617709Y-19003150D01*
X6617709Y-19003150D02*
X6655804Y-19003150D01*
X6655804Y-19003150D02*
X6674852Y-19012674D01*
X6751042Y-19212674D02*
X6760566Y-19203150D01*
X6760566Y-19203150D02*
X6779614Y-19174579D01*
X6779614Y-19174579D02*
X6789138Y-19155531D01*
X6789138Y-19155531D02*
X6798661Y-19126960D01*
X6798661Y-19126960D02*
X6808185Y-19079341D01*
X6808185Y-19079341D02*
X6808185Y-19041246D01*
X6808185Y-19041246D02*
X6798661Y-18993627D01*
X6798661Y-18993627D02*
X6789138Y-18965055D01*
X6789138Y-18965055D02*
X6779614Y-18946008D01*
X6779614Y-18946008D02*
X6760566Y-18917436D01*
X6760566Y-18917436D02*
X6751042Y-18907912D01*
D12*
X-4973Y-19309000D02*
G75*
G02*
X-120173Y-19309000I-57600J0D01*
G01*
X-120173Y-19309000D02*
G75*
G02*
X-4973Y-19309000I57600J0D01*
G01*
D11*
X360566Y-19400484D02*
X246280Y-19400484D01*
X303423Y-19400484D02*
X303423Y-19200484D01*
X303423Y-19200484D02*
X284375Y-19229055D01*
X284375Y-19229055D02*
X265328Y-19248103D01*
X265328Y-19248103D02*
X246280Y-19257627D01*
X446280Y-19381436D02*
X455804Y-19390960D01*
X455804Y-19390960D02*
X446280Y-19400484D01*
X446280Y-19400484D02*
X436756Y-19390960D01*
X436756Y-19390960D02*
X446280Y-19381436D01*
X446280Y-19381436D02*
X446280Y-19400484D01*
X646280Y-19400484D02*
X531994Y-19400484D01*
X589137Y-19400484D02*
X589137Y-19200484D01*
X589137Y-19200484D02*
X570090Y-19229055D01*
X570090Y-19229055D02*
X551042Y-19248103D01*
X551042Y-19248103D02*
X531994Y-19257627D01*
X827232Y-19200484D02*
X731994Y-19200484D01*
X731994Y-19200484D02*
X722470Y-19295722D01*
X722470Y-19295722D02*
X731994Y-19286198D01*
X731994Y-19286198D02*
X751042Y-19276674D01*
X751042Y-19276674D02*
X798661Y-19276674D01*
X798661Y-19276674D02*
X817709Y-19286198D01*
X817709Y-19286198D02*
X827232Y-19295722D01*
X827232Y-19295722D02*
X836756Y-19314770D01*
X836756Y-19314770D02*
X836756Y-19362389D01*
X836756Y-19362389D02*
X827232Y-19381436D01*
X827232Y-19381436D02*
X817709Y-19390960D01*
X817709Y-19390960D02*
X798661Y-19400484D01*
X798661Y-19400484D02*
X751042Y-19400484D01*
X751042Y-19400484D02*
X731994Y-19390960D01*
X731994Y-19390960D02*
X722470Y-19381436D01*
X912947Y-19219531D02*
X922470Y-19210008D01*
X922470Y-19210008D02*
X941518Y-19200484D01*
X941518Y-19200484D02*
X989137Y-19200484D01*
X989137Y-19200484D02*
X1008185Y-19210008D01*
X1008185Y-19210008D02*
X1017709Y-19219531D01*
X1017709Y-19219531D02*
X1027232Y-19238579D01*
X1027232Y-19238579D02*
X1027232Y-19257627D01*
X1027232Y-19257627D02*
X1017709Y-19286198D01*
X1017709Y-19286198D02*
X903423Y-19400484D01*
X903423Y-19400484D02*
X1027232Y-19400484D01*
X1112947Y-19400484D02*
X1112947Y-19267150D01*
X1112947Y-19286198D02*
X1122471Y-19276674D01*
X1122471Y-19276674D02*
X1141518Y-19267150D01*
X1141518Y-19267150D02*
X1170090Y-19267150D01*
X1170090Y-19267150D02*
X1189137Y-19276674D01*
X1189137Y-19276674D02*
X1198661Y-19295722D01*
X1198661Y-19295722D02*
X1198661Y-19400484D01*
X1198661Y-19295722D02*
X1208185Y-19276674D01*
X1208185Y-19276674D02*
X1227232Y-19267150D01*
X1227232Y-19267150D02*
X1255804Y-19267150D01*
X1255804Y-19267150D02*
X1274852Y-19276674D01*
X1274852Y-19276674D02*
X1284375Y-19295722D01*
X1284375Y-19295722D02*
X1284375Y-19400484D01*
X1379613Y-19400484D02*
X1379613Y-19267150D01*
X1379613Y-19286198D02*
X1389137Y-19276674D01*
X1389137Y-19276674D02*
X1408185Y-19267150D01*
X1408185Y-19267150D02*
X1436756Y-19267150D01*
X1436756Y-19267150D02*
X1455804Y-19276674D01*
X1455804Y-19276674D02*
X1465328Y-19295722D01*
X1465328Y-19295722D02*
X1465328Y-19400484D01*
X1465328Y-19295722D02*
X1474851Y-19276674D01*
X1474851Y-19276674D02*
X1493899Y-19267150D01*
X1493899Y-19267150D02*
X1522470Y-19267150D01*
X1522470Y-19267150D02*
X1541518Y-19276674D01*
X1541518Y-19276674D02*
X1551042Y-19295722D01*
X1551042Y-19295722D02*
X1551042Y-19400484D01*
X1941518Y-19190960D02*
X1770090Y-19448103D01*
X2198661Y-19200484D02*
X2217709Y-19200484D01*
X2217709Y-19200484D02*
X2236756Y-19210008D01*
X2236756Y-19210008D02*
X2246280Y-19219531D01*
X2246280Y-19219531D02*
X2255804Y-19238579D01*
X2255804Y-19238579D02*
X2265328Y-19276674D01*
X2265328Y-19276674D02*
X2265328Y-19324293D01*
X2265328Y-19324293D02*
X2255804Y-19362389D01*
X2255804Y-19362389D02*
X2246280Y-19381436D01*
X2246280Y-19381436D02*
X2236756Y-19390960D01*
X2236756Y-19390960D02*
X2217709Y-19400484D01*
X2217709Y-19400484D02*
X2198661Y-19400484D01*
X2198661Y-19400484D02*
X2179614Y-19390960D01*
X2179614Y-19390960D02*
X2170090Y-19381436D01*
X2170090Y-19381436D02*
X2160566Y-19362389D01*
X2160566Y-19362389D02*
X2151042Y-19324293D01*
X2151042Y-19324293D02*
X2151042Y-19276674D01*
X2151042Y-19276674D02*
X2160566Y-19238579D01*
X2160566Y-19238579D02*
X2170090Y-19219531D01*
X2170090Y-19219531D02*
X2179614Y-19210008D01*
X2179614Y-19210008D02*
X2198661Y-19200484D01*
X2351042Y-19381436D02*
X2360566Y-19390960D01*
X2360566Y-19390960D02*
X2351042Y-19400484D01*
X2351042Y-19400484D02*
X2341518Y-19390960D01*
X2341518Y-19390960D02*
X2351042Y-19381436D01*
X2351042Y-19381436D02*
X2351042Y-19400484D01*
X2484375Y-19200484D02*
X2503423Y-19200484D01*
X2503423Y-19200484D02*
X2522471Y-19210008D01*
X2522471Y-19210008D02*
X2531995Y-19219531D01*
X2531995Y-19219531D02*
X2541518Y-19238579D01*
X2541518Y-19238579D02*
X2551042Y-19276674D01*
X2551042Y-19276674D02*
X2551042Y-19324293D01*
X2551042Y-19324293D02*
X2541518Y-19362389D01*
X2541518Y-19362389D02*
X2531995Y-19381436D01*
X2531995Y-19381436D02*
X2522471Y-19390960D01*
X2522471Y-19390960D02*
X2503423Y-19400484D01*
X2503423Y-19400484D02*
X2484375Y-19400484D01*
X2484375Y-19400484D02*
X2465328Y-19390960D01*
X2465328Y-19390960D02*
X2455804Y-19381436D01*
X2455804Y-19381436D02*
X2446280Y-19362389D01*
X2446280Y-19362389D02*
X2436756Y-19324293D01*
X2436756Y-19324293D02*
X2436756Y-19276674D01*
X2436756Y-19276674D02*
X2446280Y-19238579D01*
X2446280Y-19238579D02*
X2455804Y-19219531D01*
X2455804Y-19219531D02*
X2465328Y-19210008D01*
X2465328Y-19210008D02*
X2484375Y-19200484D01*
X2722471Y-19267150D02*
X2722471Y-19400484D01*
X2674852Y-19190960D02*
X2627233Y-19333817D01*
X2627233Y-19333817D02*
X2751042Y-19333817D01*
X2922471Y-19200484D02*
X2827233Y-19200484D01*
X2827233Y-19200484D02*
X2817709Y-19295722D01*
X2817709Y-19295722D02*
X2827233Y-19286198D01*
X2827233Y-19286198D02*
X2846280Y-19276674D01*
X2846280Y-19276674D02*
X2893899Y-19276674D01*
X2893899Y-19276674D02*
X2912947Y-19286198D01*
X2912947Y-19286198D02*
X2922471Y-19295722D01*
X2922471Y-19295722D02*
X2931994Y-19314770D01*
X2931994Y-19314770D02*
X2931994Y-19362389D01*
X2931994Y-19362389D02*
X2922471Y-19381436D01*
X2922471Y-19381436D02*
X2912947Y-19390960D01*
X2912947Y-19390960D02*
X2893899Y-19400484D01*
X2893899Y-19400484D02*
X2846280Y-19400484D01*
X2846280Y-19400484D02*
X2827233Y-19390960D01*
X2827233Y-19390960D02*
X2817709Y-19381436D01*
X3103423Y-19267150D02*
X3103423Y-19400484D01*
X3055804Y-19190960D02*
X3008185Y-19333817D01*
X3008185Y-19333817D02*
X3131994Y-19333817D01*
X3198661Y-19200484D02*
X3198661Y-19238579D01*
X3274852Y-19200484D02*
X3274852Y-19238579D01*
X3570090Y-19476674D02*
X3560566Y-19467150D01*
X3560566Y-19467150D02*
X3541518Y-19438579D01*
X3541518Y-19438579D02*
X3531995Y-19419531D01*
X3531995Y-19419531D02*
X3522471Y-19390960D01*
X3522471Y-19390960D02*
X3512947Y-19343341D01*
X3512947Y-19343341D02*
X3512947Y-19305246D01*
X3512947Y-19305246D02*
X3522471Y-19257627D01*
X3522471Y-19257627D02*
X3531995Y-19229055D01*
X3531995Y-19229055D02*
X3541518Y-19210008D01*
X3541518Y-19210008D02*
X3560566Y-19181436D01*
X3560566Y-19181436D02*
X3570090Y-19171912D01*
X3627233Y-19200484D02*
X3751042Y-19200484D01*
X3751042Y-19200484D02*
X3684375Y-19276674D01*
X3684375Y-19276674D02*
X3712947Y-19276674D01*
X3712947Y-19276674D02*
X3731995Y-19286198D01*
X3731995Y-19286198D02*
X3741518Y-19295722D01*
X3741518Y-19295722D02*
X3751042Y-19314770D01*
X3751042Y-19314770D02*
X3751042Y-19362389D01*
X3751042Y-19362389D02*
X3741518Y-19381436D01*
X3741518Y-19381436D02*
X3731995Y-19390960D01*
X3731995Y-19390960D02*
X3712947Y-19400484D01*
X3712947Y-19400484D02*
X3655804Y-19400484D01*
X3655804Y-19400484D02*
X3636756Y-19390960D01*
X3636756Y-19390960D02*
X3627233Y-19381436D01*
X3989137Y-19400484D02*
X3989137Y-19200484D01*
X4074852Y-19400484D02*
X4074852Y-19295722D01*
X4074852Y-19295722D02*
X4065328Y-19276674D01*
X4065328Y-19276674D02*
X4046280Y-19267150D01*
X4046280Y-19267150D02*
X4017709Y-19267150D01*
X4017709Y-19267150D02*
X3998661Y-19276674D01*
X3998661Y-19276674D02*
X3989137Y-19286198D01*
X4198661Y-19400484D02*
X4179614Y-19390960D01*
X4179614Y-19390960D02*
X4170090Y-19381436D01*
X4170090Y-19381436D02*
X4160566Y-19362389D01*
X4160566Y-19362389D02*
X4160566Y-19305246D01*
X4160566Y-19305246D02*
X4170090Y-19286198D01*
X4170090Y-19286198D02*
X4179614Y-19276674D01*
X4179614Y-19276674D02*
X4198661Y-19267150D01*
X4198661Y-19267150D02*
X4227233Y-19267150D01*
X4227233Y-19267150D02*
X4246280Y-19276674D01*
X4246280Y-19276674D02*
X4255804Y-19286198D01*
X4255804Y-19286198D02*
X4265328Y-19305246D01*
X4265328Y-19305246D02*
X4265328Y-19362389D01*
X4265328Y-19362389D02*
X4255804Y-19381436D01*
X4255804Y-19381436D02*
X4246280Y-19390960D01*
X4246280Y-19390960D02*
X4227233Y-19400484D01*
X4227233Y-19400484D02*
X4198661Y-19400484D01*
X4379614Y-19400484D02*
X4360566Y-19390960D01*
X4360566Y-19390960D02*
X4351042Y-19371912D01*
X4351042Y-19371912D02*
X4351042Y-19200484D01*
X4531995Y-19390960D02*
X4512947Y-19400484D01*
X4512947Y-19400484D02*
X4474852Y-19400484D01*
X4474852Y-19400484D02*
X4455804Y-19390960D01*
X4455804Y-19390960D02*
X4446280Y-19371912D01*
X4446280Y-19371912D02*
X4446280Y-19295722D01*
X4446280Y-19295722D02*
X4455804Y-19276674D01*
X4455804Y-19276674D02*
X4474852Y-19267150D01*
X4474852Y-19267150D02*
X4512947Y-19267150D01*
X4512947Y-19267150D02*
X4531995Y-19276674D01*
X4531995Y-19276674D02*
X4541519Y-19295722D01*
X4541519Y-19295722D02*
X4541519Y-19314770D01*
X4541519Y-19314770D02*
X4446280Y-19333817D01*
X4617709Y-19390960D02*
X4636757Y-19400484D01*
X4636757Y-19400484D02*
X4674852Y-19400484D01*
X4674852Y-19400484D02*
X4693900Y-19390960D01*
X4693900Y-19390960D02*
X4703423Y-19371912D01*
X4703423Y-19371912D02*
X4703423Y-19362389D01*
X4703423Y-19362389D02*
X4693900Y-19343341D01*
X4693900Y-19343341D02*
X4674852Y-19333817D01*
X4674852Y-19333817D02*
X4646280Y-19333817D01*
X4646280Y-19333817D02*
X4627233Y-19324293D01*
X4627233Y-19324293D02*
X4617709Y-19305246D01*
X4617709Y-19305246D02*
X4617709Y-19295722D01*
X4617709Y-19295722D02*
X4627233Y-19276674D01*
X4627233Y-19276674D02*
X4646280Y-19267150D01*
X4646280Y-19267150D02*
X4674852Y-19267150D01*
X4674852Y-19267150D02*
X4693900Y-19276674D01*
X4770090Y-19476674D02*
X4779614Y-19467150D01*
X4779614Y-19467150D02*
X4798661Y-19438579D01*
X4798661Y-19438579D02*
X4808185Y-19419531D01*
X4808185Y-19419531D02*
X4817709Y-19390960D01*
X4817709Y-19390960D02*
X4827233Y-19343341D01*
X4827233Y-19343341D02*
X4827233Y-19305246D01*
X4827233Y-19305246D02*
X4817709Y-19257627D01*
X4817709Y-19257627D02*
X4808185Y-19229055D01*
X4808185Y-19229055D02*
X4798661Y-19210008D01*
X4798661Y-19210008D02*
X4779614Y-19181436D01*
X4779614Y-19181436D02*
X4770090Y-19171912D01*
X5131995Y-19476674D02*
X5122471Y-19467150D01*
X5122471Y-19467150D02*
X5103423Y-19438579D01*
X5103423Y-19438579D02*
X5093900Y-19419531D01*
X5093900Y-19419531D02*
X5084376Y-19390960D01*
X5084376Y-19390960D02*
X5074852Y-19343341D01*
X5074852Y-19343341D02*
X5074852Y-19305246D01*
X5074852Y-19305246D02*
X5084376Y-19257627D01*
X5084376Y-19257627D02*
X5093900Y-19229055D01*
X5093900Y-19229055D02*
X5103423Y-19210008D01*
X5103423Y-19210008D02*
X5122471Y-19181436D01*
X5122471Y-19181436D02*
X5131995Y-19171912D01*
X5208185Y-19267150D02*
X5208185Y-19400484D01*
X5208185Y-19286198D02*
X5217709Y-19276674D01*
X5217709Y-19276674D02*
X5236757Y-19267150D01*
X5236757Y-19267150D02*
X5265328Y-19267150D01*
X5265328Y-19267150D02*
X5284376Y-19276674D01*
X5284376Y-19276674D02*
X5293900Y-19295722D01*
X5293900Y-19295722D02*
X5293900Y-19400484D01*
X5417709Y-19400484D02*
X5398661Y-19390960D01*
X5398661Y-19390960D02*
X5389138Y-19381436D01*
X5389138Y-19381436D02*
X5379614Y-19362389D01*
X5379614Y-19362389D02*
X5379614Y-19305246D01*
X5379614Y-19305246D02*
X5389138Y-19286198D01*
X5389138Y-19286198D02*
X5398661Y-19276674D01*
X5398661Y-19276674D02*
X5417709Y-19267150D01*
X5417709Y-19267150D02*
X5446281Y-19267150D01*
X5446281Y-19267150D02*
X5465328Y-19276674D01*
X5465328Y-19276674D02*
X5474852Y-19286198D01*
X5474852Y-19286198D02*
X5484376Y-19305246D01*
X5484376Y-19305246D02*
X5484376Y-19362389D01*
X5484376Y-19362389D02*
X5474852Y-19381436D01*
X5474852Y-19381436D02*
X5465328Y-19390960D01*
X5465328Y-19390960D02*
X5446281Y-19400484D01*
X5446281Y-19400484D02*
X5417709Y-19400484D01*
X5541519Y-19267150D02*
X5617709Y-19267150D01*
X5570090Y-19200484D02*
X5570090Y-19371912D01*
X5570090Y-19371912D02*
X5579614Y-19390960D01*
X5579614Y-19390960D02*
X5598661Y-19400484D01*
X5598661Y-19400484D02*
X5617709Y-19400484D01*
X5836757Y-19267150D02*
X5836757Y-19467150D01*
X5836757Y-19276674D02*
X5855804Y-19267150D01*
X5855804Y-19267150D02*
X5893900Y-19267150D01*
X5893900Y-19267150D02*
X5912947Y-19276674D01*
X5912947Y-19276674D02*
X5922471Y-19286198D01*
X5922471Y-19286198D02*
X5931995Y-19305246D01*
X5931995Y-19305246D02*
X5931995Y-19362389D01*
X5931995Y-19362389D02*
X5922471Y-19381436D01*
X5922471Y-19381436D02*
X5912947Y-19390960D01*
X5912947Y-19390960D02*
X5893900Y-19400484D01*
X5893900Y-19400484D02*
X5855804Y-19400484D01*
X5855804Y-19400484D02*
X5836757Y-19390960D01*
X6046280Y-19400484D02*
X6027233Y-19390960D01*
X6027233Y-19390960D02*
X6017709Y-19371912D01*
X6017709Y-19371912D02*
X6017709Y-19200484D01*
X6208185Y-19400484D02*
X6208185Y-19295722D01*
X6208185Y-19295722D02*
X6198661Y-19276674D01*
X6198661Y-19276674D02*
X6179614Y-19267150D01*
X6179614Y-19267150D02*
X6141519Y-19267150D01*
X6141519Y-19267150D02*
X6122471Y-19276674D01*
X6208185Y-19390960D02*
X6189138Y-19400484D01*
X6189138Y-19400484D02*
X6141519Y-19400484D01*
X6141519Y-19400484D02*
X6122471Y-19390960D01*
X6122471Y-19390960D02*
X6112947Y-19371912D01*
X6112947Y-19371912D02*
X6112947Y-19352865D01*
X6112947Y-19352865D02*
X6122471Y-19333817D01*
X6122471Y-19333817D02*
X6141519Y-19324293D01*
X6141519Y-19324293D02*
X6189138Y-19324293D01*
X6189138Y-19324293D02*
X6208185Y-19314770D01*
X6274852Y-19267150D02*
X6351042Y-19267150D01*
X6303423Y-19200484D02*
X6303423Y-19371912D01*
X6303423Y-19371912D02*
X6312947Y-19390960D01*
X6312947Y-19390960D02*
X6331995Y-19400484D01*
X6331995Y-19400484D02*
X6351042Y-19400484D01*
X6493900Y-19390960D02*
X6474852Y-19400484D01*
X6474852Y-19400484D02*
X6436757Y-19400484D01*
X6436757Y-19400484D02*
X6417709Y-19390960D01*
X6417709Y-19390960D02*
X6408185Y-19371912D01*
X6408185Y-19371912D02*
X6408185Y-19295722D01*
X6408185Y-19295722D02*
X6417709Y-19276674D01*
X6417709Y-19276674D02*
X6436757Y-19267150D01*
X6436757Y-19267150D02*
X6474852Y-19267150D01*
X6474852Y-19267150D02*
X6493900Y-19276674D01*
X6493900Y-19276674D02*
X6503423Y-19295722D01*
X6503423Y-19295722D02*
X6503423Y-19314770D01*
X6503423Y-19314770D02*
X6408185Y-19333817D01*
X6674852Y-19400484D02*
X6674852Y-19200484D01*
X6674852Y-19390960D02*
X6655804Y-19400484D01*
X6655804Y-19400484D02*
X6617709Y-19400484D01*
X6617709Y-19400484D02*
X6598661Y-19390960D01*
X6598661Y-19390960D02*
X6589138Y-19381436D01*
X6589138Y-19381436D02*
X6579614Y-19362389D01*
X6579614Y-19362389D02*
X6579614Y-19305246D01*
X6579614Y-19305246D02*
X6589138Y-19286198D01*
X6589138Y-19286198D02*
X6598661Y-19276674D01*
X6598661Y-19276674D02*
X6617709Y-19267150D01*
X6617709Y-19267150D02*
X6655804Y-19267150D01*
X6655804Y-19267150D02*
X6674852Y-19276674D01*
X6751042Y-19476674D02*
X6760566Y-19467150D01*
X6760566Y-19467150D02*
X6779614Y-19438579D01*
X6779614Y-19438579D02*
X6789138Y-19419531D01*
X6789138Y-19419531D02*
X6798661Y-19390960D01*
X6798661Y-19390960D02*
X6808185Y-19343341D01*
X6808185Y-19343341D02*
X6808185Y-19305246D01*
X6808185Y-19305246D02*
X6798661Y-19257627D01*
X6798661Y-19257627D02*
X6789138Y-19229055D01*
X6789138Y-19229055D02*
X6779614Y-19210008D01*
X6779614Y-19210008D02*
X6760566Y-19181436D01*
X6760566Y-19181436D02*
X6751042Y-19171912D01*
M02*
