G04 #@! TF.GenerationSoftware,KiCad,Pcbnew,10.0.3-2.fc44*
G04 #@! TF.CreationDate,2026-08-18T12:23:17+02:00*
G04 #@! TF.ProjectId,panel,70616e65-6c2e-46b6-9963-61645f706362,rev?*
G04 #@! TF.SameCoordinates,Original*
G04 #@! TF.FileFunction,Other,Comment*
%FSLAX46Y46*%
G04 Gerber Fmt 4.6, Leading zero omitted, Abs format (unit mm)*
G04 Created by KiCad (PCBNEW 10.0.3-2.fc44) date 2026-08-18 12:23:17*
%MOMM*%
%LPD*%
G01*
G04 APERTURE LIST*
%ADD10C,0.300000*%
G04 APERTURE END LIST*
D10*
X-3000000Y-7000000D02*
X207000000Y-7000000D01*
X-3000000Y-87000000D02*
X207000000Y-87000000D01*
X-3000000Y-97000000D02*
X207000000Y-97000000D01*
X-3000000Y-177000000D02*
X207000000Y-177000000D01*
X7000000Y3000000D02*
X7000000Y-187000000D01*
X197000000Y3000000D02*
X197000000Y-187000000D01*
X210387844Y-5909638D02*
X211054510Y-7909638D01*
X211054510Y-7909638D02*
X211721177Y-5909638D01*
X212387844Y-7147733D02*
X213911654Y-7147733D01*
X216006891Y-7719161D02*
X215911653Y-7814400D01*
X215911653Y-7814400D02*
X215625939Y-7909638D01*
X215625939Y-7909638D02*
X215435463Y-7909638D01*
X215435463Y-7909638D02*
X215149748Y-7814400D01*
X215149748Y-7814400D02*
X214959272Y-7623923D01*
X214959272Y-7623923D02*
X214864034Y-7433447D01*
X214864034Y-7433447D02*
X214768796Y-7052495D01*
X214768796Y-7052495D02*
X214768796Y-6766780D01*
X214768796Y-6766780D02*
X214864034Y-6385828D01*
X214864034Y-6385828D02*
X214959272Y-6195352D01*
X214959272Y-6195352D02*
X215149748Y-6004876D01*
X215149748Y-6004876D02*
X215435463Y-5909638D01*
X215435463Y-5909638D02*
X215625939Y-5909638D01*
X215625939Y-5909638D02*
X215911653Y-6004876D01*
X215911653Y-6004876D02*
X216006891Y-6100114D01*
X216864034Y-5909638D02*
X216864034Y-7528685D01*
X216864034Y-7528685D02*
X216959272Y-7719161D01*
X216959272Y-7719161D02*
X217054510Y-7814400D01*
X217054510Y-7814400D02*
X217244986Y-7909638D01*
X217244986Y-7909638D02*
X217625939Y-7909638D01*
X217625939Y-7909638D02*
X217816415Y-7814400D01*
X217816415Y-7814400D02*
X217911653Y-7719161D01*
X217911653Y-7719161D02*
X218006891Y-7528685D01*
X218006891Y-7528685D02*
X218006891Y-5909638D01*
X218673558Y-5909638D02*
X219816415Y-5909638D01*
X219244986Y-7909638D02*
X219244986Y-5909638D01*
X210387844Y-85909638D02*
X211054510Y-87909638D01*
X211054510Y-87909638D02*
X211721177Y-85909638D01*
X212387844Y-87147733D02*
X213911654Y-87147733D01*
X216006891Y-87719161D02*
X215911653Y-87814400D01*
X215911653Y-87814400D02*
X215625939Y-87909638D01*
X215625939Y-87909638D02*
X215435463Y-87909638D01*
X215435463Y-87909638D02*
X215149748Y-87814400D01*
X215149748Y-87814400D02*
X214959272Y-87623923D01*
X214959272Y-87623923D02*
X214864034Y-87433447D01*
X214864034Y-87433447D02*
X214768796Y-87052495D01*
X214768796Y-87052495D02*
X214768796Y-86766780D01*
X214768796Y-86766780D02*
X214864034Y-86385828D01*
X214864034Y-86385828D02*
X214959272Y-86195352D01*
X214959272Y-86195352D02*
X215149748Y-86004876D01*
X215149748Y-86004876D02*
X215435463Y-85909638D01*
X215435463Y-85909638D02*
X215625939Y-85909638D01*
X215625939Y-85909638D02*
X215911653Y-86004876D01*
X215911653Y-86004876D02*
X216006891Y-86100114D01*
X216864034Y-85909638D02*
X216864034Y-87528685D01*
X216864034Y-87528685D02*
X216959272Y-87719161D01*
X216959272Y-87719161D02*
X217054510Y-87814400D01*
X217054510Y-87814400D02*
X217244986Y-87909638D01*
X217244986Y-87909638D02*
X217625939Y-87909638D01*
X217625939Y-87909638D02*
X217816415Y-87814400D01*
X217816415Y-87814400D02*
X217911653Y-87719161D01*
X217911653Y-87719161D02*
X218006891Y-87528685D01*
X218006891Y-87528685D02*
X218006891Y-85909638D01*
X218673558Y-85909638D02*
X219816415Y-85909638D01*
X219244986Y-87909638D02*
X219244986Y-85909638D01*
X210387844Y-95909638D02*
X211054510Y-97909638D01*
X211054510Y-97909638D02*
X211721177Y-95909638D01*
X212387844Y-97147733D02*
X213911654Y-97147733D01*
X216006891Y-97719161D02*
X215911653Y-97814400D01*
X215911653Y-97814400D02*
X215625939Y-97909638D01*
X215625939Y-97909638D02*
X215435463Y-97909638D01*
X215435463Y-97909638D02*
X215149748Y-97814400D01*
X215149748Y-97814400D02*
X214959272Y-97623923D01*
X214959272Y-97623923D02*
X214864034Y-97433447D01*
X214864034Y-97433447D02*
X214768796Y-97052495D01*
X214768796Y-97052495D02*
X214768796Y-96766780D01*
X214768796Y-96766780D02*
X214864034Y-96385828D01*
X214864034Y-96385828D02*
X214959272Y-96195352D01*
X214959272Y-96195352D02*
X215149748Y-96004876D01*
X215149748Y-96004876D02*
X215435463Y-95909638D01*
X215435463Y-95909638D02*
X215625939Y-95909638D01*
X215625939Y-95909638D02*
X215911653Y-96004876D01*
X215911653Y-96004876D02*
X216006891Y-96100114D01*
X216864034Y-95909638D02*
X216864034Y-97528685D01*
X216864034Y-97528685D02*
X216959272Y-97719161D01*
X216959272Y-97719161D02*
X217054510Y-97814400D01*
X217054510Y-97814400D02*
X217244986Y-97909638D01*
X217244986Y-97909638D02*
X217625939Y-97909638D01*
X217625939Y-97909638D02*
X217816415Y-97814400D01*
X217816415Y-97814400D02*
X217911653Y-97719161D01*
X217911653Y-97719161D02*
X218006891Y-97528685D01*
X218006891Y-97528685D02*
X218006891Y-95909638D01*
X218673558Y-95909638D02*
X219816415Y-95909638D01*
X219244986Y-97909638D02*
X219244986Y-95909638D01*
X210387844Y-175909638D02*
X211054510Y-177909638D01*
X211054510Y-177909638D02*
X211721177Y-175909638D01*
X212387844Y-177147733D02*
X213911654Y-177147733D01*
X216006891Y-177719161D02*
X215911653Y-177814400D01*
X215911653Y-177814400D02*
X215625939Y-177909638D01*
X215625939Y-177909638D02*
X215435463Y-177909638D01*
X215435463Y-177909638D02*
X215149748Y-177814400D01*
X215149748Y-177814400D02*
X214959272Y-177623923D01*
X214959272Y-177623923D02*
X214864034Y-177433447D01*
X214864034Y-177433447D02*
X214768796Y-177052495D01*
X214768796Y-177052495D02*
X214768796Y-176766780D01*
X214768796Y-176766780D02*
X214864034Y-176385828D01*
X214864034Y-176385828D02*
X214959272Y-176195352D01*
X214959272Y-176195352D02*
X215149748Y-176004876D01*
X215149748Y-176004876D02*
X215435463Y-175909638D01*
X215435463Y-175909638D02*
X215625939Y-175909638D01*
X215625939Y-175909638D02*
X215911653Y-176004876D01*
X215911653Y-176004876D02*
X216006891Y-176100114D01*
X216864034Y-175909638D02*
X216864034Y-177528685D01*
X216864034Y-177528685D02*
X216959272Y-177719161D01*
X216959272Y-177719161D02*
X217054510Y-177814400D01*
X217054510Y-177814400D02*
X217244986Y-177909638D01*
X217244986Y-177909638D02*
X217625939Y-177909638D01*
X217625939Y-177909638D02*
X217816415Y-177814400D01*
X217816415Y-177814400D02*
X217911653Y-177719161D01*
X217911653Y-177719161D02*
X218006891Y-177528685D01*
X218006891Y-177528685D02*
X218006891Y-175909638D01*
X218673558Y-175909638D02*
X219816415Y-175909638D01*
X219244986Y-177909638D02*
X219244986Y-175909638D01*
X5909638Y6387845D02*
X7909638Y7054511D01*
X7909638Y7054511D02*
X5909638Y7721178D01*
X7147733Y8387845D02*
X7147733Y9911654D01*
X7719161Y12006892D02*
X7814400Y11911654D01*
X7814400Y11911654D02*
X7909638Y11625940D01*
X7909638Y11625940D02*
X7909638Y11435464D01*
X7909638Y11435464D02*
X7814400Y11149749D01*
X7814400Y11149749D02*
X7623923Y10959273D01*
X7623923Y10959273D02*
X7433447Y10864035D01*
X7433447Y10864035D02*
X7052495Y10768797D01*
X7052495Y10768797D02*
X6766780Y10768797D01*
X6766780Y10768797D02*
X6385828Y10864035D01*
X6385828Y10864035D02*
X6195352Y10959273D01*
X6195352Y10959273D02*
X6004876Y11149749D01*
X6004876Y11149749D02*
X5909638Y11435464D01*
X5909638Y11435464D02*
X5909638Y11625940D01*
X5909638Y11625940D02*
X6004876Y11911654D01*
X6004876Y11911654D02*
X6100114Y12006892D01*
X5909638Y12864035D02*
X7528685Y12864035D01*
X7528685Y12864035D02*
X7719161Y12959273D01*
X7719161Y12959273D02*
X7814400Y13054511D01*
X7814400Y13054511D02*
X7909638Y13244987D01*
X7909638Y13244987D02*
X7909638Y13625940D01*
X7909638Y13625940D02*
X7814400Y13816416D01*
X7814400Y13816416D02*
X7719161Y13911654D01*
X7719161Y13911654D02*
X7528685Y14006892D01*
X7528685Y14006892D02*
X5909638Y14006892D01*
X5909638Y14673559D02*
X5909638Y15816416D01*
X7909638Y15244987D02*
X5909638Y15244987D01*
X195909638Y6387845D02*
X197909638Y7054511D01*
X197909638Y7054511D02*
X195909638Y7721178D01*
X197147733Y8387845D02*
X197147733Y9911654D01*
X197719161Y12006892D02*
X197814400Y11911654D01*
X197814400Y11911654D02*
X197909638Y11625940D01*
X197909638Y11625940D02*
X197909638Y11435464D01*
X197909638Y11435464D02*
X197814400Y11149749D01*
X197814400Y11149749D02*
X197623923Y10959273D01*
X197623923Y10959273D02*
X197433447Y10864035D01*
X197433447Y10864035D02*
X197052495Y10768797D01*
X197052495Y10768797D02*
X196766780Y10768797D01*
X196766780Y10768797D02*
X196385828Y10864035D01*
X196385828Y10864035D02*
X196195352Y10959273D01*
X196195352Y10959273D02*
X196004876Y11149749D01*
X196004876Y11149749D02*
X195909638Y11435464D01*
X195909638Y11435464D02*
X195909638Y11625940D01*
X195909638Y11625940D02*
X196004876Y11911654D01*
X196004876Y11911654D02*
X196100114Y12006892D01*
X195909638Y12864035D02*
X197528685Y12864035D01*
X197528685Y12864035D02*
X197719161Y12959273D01*
X197719161Y12959273D02*
X197814400Y13054511D01*
X197814400Y13054511D02*
X197909638Y13244987D01*
X197909638Y13244987D02*
X197909638Y13625940D01*
X197909638Y13625940D02*
X197814400Y13816416D01*
X197814400Y13816416D02*
X197719161Y13911654D01*
X197719161Y13911654D02*
X197528685Y14006892D01*
X197528685Y14006892D02*
X195909638Y14006892D01*
X195909638Y14673559D02*
X195909638Y15816416D01*
X197909638Y15244987D02*
X195909638Y15244987D01*
M02*
