G04 #@! TF.GenerationSoftware,KiCad,Pcbnew,10.0.3-2.fc44*
G04 #@! TF.CreationDate,2026-08-18T12:23:17+02:00*
G04 #@! TF.ProjectId,panel,70616e65-6c2e-46b6-9963-61645f706362,rev?*
G04 #@! TF.SameCoordinates,Original*
G04 #@! TF.FileFunction,Legend,Bot*
G04 #@! TF.FilePolarity,Positive*
%FSLAX46Y46*%
G04 Gerber Fmt 4.6, Leading zero omitted, Abs format (unit mm)*
G04 Created by KiCad (PCBNEW 10.0.3-2.fc44) date 2026-08-18 12:23:17*
%MOMM*%
%LPD*%
G01*
G04 APERTURE LIST*
%ADD10C,0.120000*%
%ADD11C,0.150000*%
%ADD12C,0.050000*%
%ADD13C,0.100000*%
%ADD14C,0.300000*%
%ADD15C,0.350000*%
G04 APERTURE END LIST*
G04 #@! TO.C,C629*
D10*
X118297836Y-24160000D02*
X118082164Y-24160000D01*
X118297836Y-24880000D02*
X118082164Y-24880000D01*
G04 #@! TO.C,R458*
X67723925Y-131139999D02*
X67416643Y-131139999D01*
X67723925Y-131899999D02*
X67416643Y-131899999D01*
G04 #@! TO.C,R511*
X79180886Y-44442013D02*
X78873604Y-44442013D01*
X79180886Y-45202013D02*
X78873604Y-45202013D01*
G04 #@! TO.C,R471*
X65753641Y-123680000D02*
X65446359Y-123680000D01*
X65753641Y-124440000D02*
X65446359Y-124440000D01*
G04 #@! TO.C,C205*
X108416472Y-122617836D02*
X108416472Y-122402164D01*
X109136472Y-122617836D02*
X109136472Y-122402164D01*
G04 #@! TO.C,C628*
X117542164Y-115200000D02*
X117757836Y-115200000D01*
X117542164Y-115920000D02*
X117757836Y-115920000D01*
G04 #@! TO.C,R418*
X67723925Y-64339999D02*
X67416643Y-64339999D01*
X67723925Y-65099999D02*
X67416643Y-65099999D01*
G04 #@! TO.C,R506*
X79230886Y-35542013D02*
X78923604Y-35542013D01*
X79230886Y-36302013D02*
X78923604Y-36302013D01*
G04 #@! TO.C,C210*
X103982836Y-126505000D02*
X103767164Y-126505000D01*
X103982836Y-127225000D02*
X103767164Y-127225000D01*
G04 #@! TO.C,C203*
X110115000Y-135902164D02*
X110115000Y-136117836D01*
X110835000Y-135902164D02*
X110835000Y-136117836D01*
G04 #@! TO.C,C602*
X177707836Y-42640000D02*
X177492164Y-42640000D01*
X177707836Y-43360000D02*
X177492164Y-43360000D01*
G04 #@! TO.C,C302*
X172827500Y-168242164D02*
X172827500Y-168457836D01*
X173547500Y-168242164D02*
X173547500Y-168457836D01*
G04 #@! TO.C,C303*
X175377500Y-168242164D02*
X175377500Y-168457836D01*
X176097500Y-168242164D02*
X176097500Y-168457836D01*
G04 #@! TO.C,C215*
X104465000Y-42123943D02*
X104465000Y-42339615D01*
X105185000Y-42123943D02*
X105185000Y-42339615D01*
G04 #@! TO.C,C617*
X180219142Y-126165000D02*
X180003470Y-126165000D01*
X180219142Y-126885000D02*
X180003470Y-126885000D01*
G04 #@! TO.C,R449*
X65753641Y-46280000D02*
X65446359Y-46280000D01*
X65753641Y-47040000D02*
X65446359Y-47040000D01*
G04 #@! TO.C,R423*
X65753641Y-151520000D02*
X65446359Y-151520000D01*
X65753641Y-152280000D02*
X65446359Y-152280000D01*
G04 #@! TO.C,R204*
X119096359Y-128960000D02*
X119403641Y-128960000D01*
X119096359Y-129720000D02*
X119403641Y-129720000D01*
G04 #@! TO.C,R519*
X79180886Y-58442013D02*
X78873604Y-58442013D01*
X79180886Y-59202013D02*
X78873604Y-59202013D01*
G04 #@! TO.C,U301*
X177740000Y-167940000D02*
X177740000Y-168415000D01*
X177740000Y-171685000D02*
X177740000Y-172160000D01*
X177740000Y-172160000D02*
X178215000Y-172160000D01*
X178215000Y-167940000D02*
X177740000Y-167940000D01*
X181485000Y-172160000D02*
X181960000Y-172160000D01*
X181960000Y-167940000D02*
X181485000Y-167940000D01*
X181960000Y-168415000D02*
X181960000Y-167940000D01*
X181960000Y-172160000D02*
X181960000Y-171685000D01*
X182490000Y-168800000D02*
X182820000Y-169040000D01*
X182820000Y-168560000D01*
X182490000Y-168800000D01*
G36*
X182820000Y-169040000D02*
G01*
X182490000Y-168800000D01*
X182820000Y-168560000D01*
X182820000Y-169040000D01*
G37*
G04 #@! TO.C,R490*
X67723925Y-22579999D02*
X67416643Y-22579999D01*
X67723925Y-23339999D02*
X67416643Y-23339999D01*
G04 #@! TO.C,C212*
X105784308Y-45430000D02*
X105568636Y-45430000D01*
X105784308Y-46150000D02*
X105568636Y-46150000D01*
G04 #@! TO.C,R521*
X79180886Y-151942013D02*
X78873604Y-151942013D01*
X79180886Y-152702013D02*
X78873604Y-152702013D01*
G04 #@! TO.C,U414*
X81567245Y-45312013D02*
X81567245Y-45787013D01*
X81567245Y-48057013D02*
X81567245Y-48532013D01*
X81567245Y-48532013D02*
X82042245Y-48532013D01*
X82042245Y-45312013D02*
X81567245Y-45312013D01*
X84312245Y-48532013D02*
X84787245Y-48532013D01*
X84787245Y-45312013D02*
X84312245Y-45312013D01*
X84787245Y-45787013D02*
X84787245Y-45312013D01*
X84787245Y-48532013D02*
X84787245Y-48057013D01*
X85317245Y-46172013D02*
X85647245Y-46412013D01*
X85647245Y-45932013D01*
X85317245Y-46172013D01*
G36*
X85647245Y-46412013D02*
G01*
X85317245Y-46172013D01*
X85647245Y-45932013D01*
X85647245Y-46412013D01*
G37*
G04 #@! TO.C,R435*
X65753641Y-54560000D02*
X65446359Y-54560000D01*
X65753641Y-55320000D02*
X65446359Y-55320000D01*
G04 #@! TO.C,R423*
X65753641Y-61520000D02*
X65446359Y-61520000D01*
X65753641Y-62280000D02*
X65446359Y-62280000D01*
G04 #@! TO.C,R415*
X65753641Y-156160000D02*
X65446359Y-156160000D01*
X65753641Y-156920000D02*
X65446359Y-156920000D01*
G04 #@! TO.C,C115*
X163533542Y-126846637D02*
X163533542Y-126630965D01*
X164253542Y-126846637D02*
X164253542Y-126630965D01*
G04 #@! TO.C,C616*
X180251306Y-34947164D02*
X180251306Y-35162836D01*
X180971306Y-34947164D02*
X180971306Y-35162836D01*
G04 #@! TO.C,C112*
X163010706Y-122520580D02*
X163226378Y-122520580D01*
X163010706Y-123240580D02*
X163226378Y-123240580D01*
G04 #@! TO.C,R450*
X67723925Y-135779999D02*
X67416643Y-135779999D01*
X67723925Y-136539999D02*
X67416643Y-136539999D01*
G04 #@! TO.C,R457*
X65753641Y-131640000D02*
X65446359Y-131640000D01*
X65753641Y-132400000D02*
X65446359Y-132400000D01*
G04 #@! TO.C,L101*
D11*
X167593542Y-127630580D02*
G75*
G02*
X167443542Y-127630580I-75000J0D01*
G01*
X167443542Y-127630580D02*
G75*
G02*
X167593542Y-127630580I75000J0D01*
G01*
G04 #@! TO.C,C602*
D10*
X177707836Y-132640000D02*
X177492164Y-132640000D01*
X177707836Y-133360000D02*
X177492164Y-133360000D01*
G04 #@! TO.C,R493*
X65753641Y-20760000D02*
X65446359Y-20760000D01*
X65753641Y-21520000D02*
X65446359Y-21520000D01*
G04 #@! TO.C,Q415*
X75867245Y-68637013D02*
X75867245Y-70107013D01*
X75867245Y-70107013D02*
X75892245Y-70107013D01*
X75892245Y-68637013D02*
X75867245Y-68637013D01*
X78062245Y-70107013D02*
X78087245Y-70107013D01*
X78087245Y-68637013D02*
X78062245Y-68637013D01*
X78087245Y-70107013D02*
X78087245Y-68637013D01*
X75887245Y-68192013D02*
X75697245Y-68052013D01*
X75697245Y-68332013D01*
X75887245Y-68192013D01*
G36*
X75887245Y-68192013D02*
G01*
X75697245Y-68332013D01*
X75697245Y-68052013D01*
X75887245Y-68192013D01*
G37*
G04 #@! TO.C,R508*
X79230886Y-39042013D02*
X78923604Y-39042013D01*
X79230886Y-39802013D02*
X78923604Y-39802013D01*
G04 #@! TO.C,R473*
X65753641Y-32360000D02*
X65446359Y-32360000D01*
X65753641Y-33120000D02*
X65446359Y-33120000D01*
G04 #@! TO.C,R404*
X67723925Y-72619999D02*
X67416643Y-72619999D01*
X67723925Y-73379999D02*
X67416643Y-73379999D01*
G04 #@! TO.C,R515*
X79180886Y-141442013D02*
X78873604Y-141442013D01*
X79180886Y-142202013D02*
X78873604Y-142202013D01*
G04 #@! TO.C,C111*
X156883542Y-123068416D02*
X156883542Y-122852744D01*
X157603542Y-123068416D02*
X157603542Y-122852744D01*
G04 #@! TO.C,R412*
X67723925Y-157979999D02*
X67416643Y-157979999D01*
X67723925Y-158739999D02*
X67416643Y-158739999D01*
G04 #@! TO.C,R444*
X67723925Y-139419999D02*
X67416643Y-139419999D01*
X67723925Y-140179999D02*
X67416643Y-140179999D01*
G04 #@! TO.C,R424*
X67723925Y-151019999D02*
X67416643Y-151019999D01*
X67723925Y-151779999D02*
X67416643Y-151779999D01*
G04 #@! TO.C,R451*
X65753641Y-135280000D02*
X65446359Y-135280000D01*
X65753641Y-136040000D02*
X65446359Y-136040000D01*
G04 #@! TO.C,C604*
X177632446Y-45942164D02*
X177632446Y-46157836D01*
X178352446Y-45942164D02*
X178352446Y-46157836D01*
G04 #@! TO.C,R518*
X79230886Y-146542013D02*
X78923604Y-146542013D01*
X79230886Y-147302013D02*
X78923604Y-147302013D01*
G04 #@! TO.C,C605*
X185469190Y-130721693D02*
X185621693Y-130569190D01*
X185978307Y-131230810D02*
X186130810Y-131078307D01*
G04 #@! TO.C,Q411*
X75867245Y-54637013D02*
X75867245Y-56107013D01*
X75867245Y-56107013D02*
X75892245Y-56107013D01*
X75892245Y-54637013D02*
X75867245Y-54637013D01*
X78062245Y-56107013D02*
X78087245Y-56107013D01*
X78087245Y-54637013D02*
X78062245Y-54637013D01*
X78087245Y-56107013D02*
X78087245Y-54637013D01*
X75887245Y-54192013D02*
X75697245Y-54052013D01*
X75697245Y-54332013D01*
X75887245Y-54192013D01*
G36*
X75887245Y-54192013D02*
G01*
X75697245Y-54332013D01*
X75697245Y-54052013D01*
X75887245Y-54192013D01*
G37*
G04 #@! TO.C,J101*
X130780000Y-40830000D02*
X130780000Y-38070000D01*
X135970000Y-38070000D02*
X130780000Y-38070000D01*
X135970000Y-40830000D02*
X130780000Y-40830000D01*
X135970000Y-40830000D02*
X135970000Y-38070000D01*
X137240000Y-40830000D02*
X138620000Y-40830000D01*
X138620000Y-40830000D02*
X138620000Y-39450000D01*
G04 #@! TO.C,R466*
X67723925Y-36499999D02*
X67416643Y-36499999D01*
X67723925Y-37259999D02*
X67416643Y-37259999D01*
G04 #@! TO.C,C609*
X178915000Y-137542164D02*
X178915000Y-137757836D01*
X179635000Y-137542164D02*
X179635000Y-137757836D01*
G04 #@! TO.C,R481*
X65753641Y-117720000D02*
X65446359Y-117720000D01*
X65753641Y-118480000D02*
X65446359Y-118480000D01*
G04 #@! TO.C,U403*
X69303114Y-151223664D02*
X69303114Y-151448664D01*
X69303114Y-154718664D02*
X69303114Y-154943664D01*
X69303114Y-154943664D02*
X70028114Y-154943664D01*
X70028114Y-151223664D02*
X69303114Y-151223664D01*
X71298114Y-154943664D02*
X72023114Y-154943664D01*
X72023114Y-151223664D02*
X71298114Y-151223664D01*
X72023114Y-151448664D02*
X72023114Y-151223664D01*
X72023114Y-154943664D02*
X72023114Y-154718664D01*
X70413114Y-155453664D02*
X70173114Y-155783664D01*
X70653114Y-155783664D01*
X70413114Y-155453664D01*
G36*
X70653114Y-155783664D02*
G01*
X70173114Y-155783664D01*
X70413114Y-155453664D01*
X70653114Y-155783664D01*
G37*
G04 #@! TO.C,C208*
X115065000Y-45782164D02*
X115065000Y-45997836D01*
X115785000Y-45782164D02*
X115785000Y-45997836D01*
G04 #@! TO.C,R510*
X79230886Y-132542013D02*
X78923604Y-132542013D01*
X79230886Y-133302013D02*
X78923604Y-133302013D01*
G04 #@! TO.C,R204*
X119096359Y-38960000D02*
X119403641Y-38960000D01*
X119096359Y-39720000D02*
X119403641Y-39720000D01*
G04 #@! TO.C,C622*
X183978470Y-33240000D02*
X184194142Y-33240000D01*
X183978470Y-33960000D02*
X184194142Y-33960000D01*
G04 #@! TO.C,U415*
X80567245Y-128862013D02*
X80567245Y-129337013D01*
X80567245Y-131607013D02*
X80567245Y-132082013D01*
X80567245Y-132082013D02*
X81042245Y-132082013D01*
X81042245Y-128862013D02*
X80567245Y-128862013D01*
X83312245Y-132082013D02*
X83787245Y-132082013D01*
X83787245Y-128862013D02*
X83312245Y-128862013D01*
X83787245Y-129337013D02*
X83787245Y-128862013D01*
X83787245Y-132082013D02*
X83787245Y-131607013D01*
X84317245Y-129722013D02*
X84647245Y-129962013D01*
X84647245Y-129482013D01*
X84317245Y-129722013D01*
G36*
X84647245Y-129962013D02*
G01*
X84317245Y-129722013D01*
X84647245Y-129482013D01*
X84647245Y-129962013D01*
G37*
G04 #@! TO.C,R452*
X67723925Y-134779999D02*
X67416643Y-134779999D01*
X67723925Y-135539999D02*
X67416643Y-135539999D01*
G04 #@! TO.C,C301*
X182670000Y-169687164D02*
X182670000Y-169902836D01*
X183390000Y-169687164D02*
X183390000Y-169902836D01*
G04 #@! TO.C,R519*
X79180886Y-148442013D02*
X78873604Y-148442013D01*
X79180886Y-149202013D02*
X78873604Y-149202013D01*
G04 #@! TO.C,R514*
X79230886Y-139542013D02*
X78923604Y-139542013D01*
X79230886Y-140302013D02*
X78923604Y-140302013D01*
G04 #@! TO.C,U413*
X80567245Y-24862013D02*
X80567245Y-25337013D01*
X80567245Y-27607013D02*
X80567245Y-28082013D01*
X80567245Y-28082013D02*
X81042245Y-28082013D01*
X81042245Y-24862013D02*
X80567245Y-24862013D01*
X83312245Y-28082013D02*
X83787245Y-28082013D01*
X83787245Y-24862013D02*
X83312245Y-24862013D01*
X83787245Y-25337013D02*
X83787245Y-24862013D01*
X83787245Y-28082013D02*
X83787245Y-27607013D01*
X84317245Y-25722013D02*
X84647245Y-25962013D01*
X84647245Y-25482013D01*
X84317245Y-25722013D01*
G36*
X84647245Y-25962013D02*
G01*
X84317245Y-25722013D01*
X84647245Y-25482013D01*
X84647245Y-25962013D01*
G37*
G04 #@! TO.C,Q413*
X75867245Y-61637013D02*
X75867245Y-63107013D01*
X75867245Y-63107013D02*
X75892245Y-63107013D01*
X75892245Y-61637013D02*
X75867245Y-61637013D01*
X78062245Y-63107013D02*
X78087245Y-63107013D01*
X78087245Y-61637013D02*
X78062245Y-61637013D01*
X78087245Y-63107013D02*
X78087245Y-61637013D01*
X75887245Y-61192013D02*
X75697245Y-61052013D01*
X75697245Y-61332013D01*
X75887245Y-61192013D01*
G36*
X75887245Y-61192013D02*
G01*
X75697245Y-61332013D01*
X75697245Y-61052013D01*
X75887245Y-61192013D01*
G37*
G04 #@! TO.C,R420*
X67723925Y-153339999D02*
X67416643Y-153339999D01*
X67723925Y-154099999D02*
X67416643Y-154099999D01*
G04 #@! TO.C,C614*
X183932446Y-137892164D02*
X183932446Y-138107836D01*
X184652446Y-137892164D02*
X184652446Y-138107836D01*
G04 #@! TO.C,R205*
X113996472Y-122743641D02*
X113996472Y-122436359D01*
X114756472Y-122743641D02*
X114756472Y-122436359D01*
G04 #@! TO.C,C201*
X110290000Y-32697836D02*
X110290000Y-32482164D01*
X111010000Y-32697836D02*
X111010000Y-32482164D01*
G04 #@! TO.C,L601*
X180624203Y-39577254D02*
X180059052Y-39012103D01*
X181416162Y-38785295D02*
X180851011Y-38220144D01*
G04 #@! TO.C,U410*
X69303114Y-118743664D02*
X69303114Y-118968664D01*
X69303114Y-122238664D02*
X69303114Y-122463664D01*
X69303114Y-122463664D02*
X70028114Y-122463664D01*
X70028114Y-118743664D02*
X69303114Y-118743664D01*
X71298114Y-122463664D02*
X72023114Y-122463664D01*
X72023114Y-118743664D02*
X71298114Y-118743664D01*
X72023114Y-118968664D02*
X72023114Y-118743664D01*
X72023114Y-122463664D02*
X72023114Y-122238664D01*
X70413114Y-122973664D02*
X70173114Y-123303664D01*
X70653114Y-123303664D01*
X70413114Y-122973664D01*
G36*
X70653114Y-123303664D02*
G01*
X70173114Y-123303664D01*
X70413114Y-122973664D01*
X70653114Y-123303664D01*
G37*
G04 #@! TO.C,R520*
X79230886Y-60042013D02*
X78923604Y-60042013D01*
X79230886Y-60802013D02*
X78923604Y-60802013D01*
G04 #@! TO.C,R477*
X65753641Y-30040000D02*
X65446359Y-30040000D01*
X65753641Y-30800000D02*
X65446359Y-30800000D01*
G04 #@! TO.C,C114*
X163408542Y-34688416D02*
X163408542Y-34472744D01*
X164128542Y-34688416D02*
X164128542Y-34472744D01*
G04 #@! TO.C,C216*
X103540000Y-132118943D02*
X103540000Y-132334615D01*
X104260000Y-132118943D02*
X104260000Y-132334615D01*
G04 #@! TO.C,R203*
X103696359Y-129760000D02*
X104003641Y-129760000D01*
X103696359Y-130520000D02*
X104003641Y-130520000D01*
G04 #@! TO.C,C107*
X151258542Y-133272744D02*
X151258542Y-133488416D01*
X151978542Y-133272744D02*
X151978542Y-133488416D01*
G04 #@! TO.C,R425*
X65753641Y-150200000D02*
X65446359Y-150200000D01*
X65753641Y-150960000D02*
X65446359Y-150960000D01*
G04 #@! TO.C,R507*
X79180886Y-37442013D02*
X78873604Y-37442013D01*
X79180886Y-38202013D02*
X78873604Y-38202013D01*
G04 #@! TO.C,Q405*
X75867245Y-123637013D02*
X75867245Y-125107013D01*
X75867245Y-125107013D02*
X75892245Y-125107013D01*
X75892245Y-123637013D02*
X75867245Y-123637013D01*
X78062245Y-125107013D02*
X78087245Y-125107013D01*
X78087245Y-123637013D02*
X78062245Y-123637013D01*
X78087245Y-125107013D02*
X78087245Y-123637013D01*
X75887245Y-123192013D02*
X75697245Y-123052013D01*
X75697245Y-123332013D01*
X75887245Y-123192013D01*
G36*
X75887245Y-123192013D02*
G01*
X75697245Y-123332013D01*
X75697245Y-123052013D01*
X75887245Y-123192013D01*
G37*
G04 #@! TO.C,C106*
X149551378Y-130395580D02*
X149335706Y-130395580D01*
X149551378Y-131115580D02*
X149335706Y-131115580D01*
G04 #@! TO.C,R459*
X65753641Y-40640000D02*
X65446359Y-40640000D01*
X65753641Y-41400000D02*
X65446359Y-41400000D01*
G04 #@! TO.C,C618*
X180953470Y-123240000D02*
X181169142Y-123240000D01*
X180953470Y-123960000D02*
X181169142Y-123960000D01*
G04 #@! TO.C,R525*
X78873604Y-158942013D02*
X79180886Y-158942013D01*
X78873604Y-159702013D02*
X79180886Y-159702013D01*
G04 #@! TO.C,TP602*
X184350000Y-142475000D02*
G75*
G02*
X182450000Y-142475000I-950000J0D01*
G01*
X182450000Y-142475000D02*
G75*
G02*
X184350000Y-142475000I950000J0D01*
G01*
G04 #@! TO.C,R417*
X65753641Y-64840000D02*
X65446359Y-64840000D01*
X65753641Y-65600000D02*
X65446359Y-65600000D01*
G04 #@! TO.C,R512*
X79230886Y-136042013D02*
X78923604Y-136042013D01*
X79230886Y-136802013D02*
X78923604Y-136802013D01*
G04 #@! TO.C,R502*
X79230886Y-28542013D02*
X78923604Y-28542013D01*
X79230886Y-29302013D02*
X78923604Y-29302013D01*
G04 #@! TO.C,R479*
X65753641Y-29040000D02*
X65446359Y-29040000D01*
X65753641Y-29800000D02*
X65446359Y-29800000D01*
G04 #@! TO.C,R446*
X67723925Y-48099999D02*
X67416643Y-48099999D01*
X67723925Y-48859999D02*
X67416643Y-48859999D01*
G04 #@! TO.C,Q406*
X75867245Y-127137013D02*
X75867245Y-128607013D01*
X75867245Y-128607013D02*
X75892245Y-128607013D01*
X75892245Y-127137013D02*
X75867245Y-127137013D01*
X78062245Y-128607013D02*
X78087245Y-128607013D01*
X78087245Y-127137013D02*
X78062245Y-127137013D01*
X78087245Y-128607013D02*
X78087245Y-127137013D01*
X75887245Y-126692013D02*
X75697245Y-126552013D01*
X75697245Y-126832013D01*
X75887245Y-126692013D01*
G36*
X75887245Y-126692013D02*
G01*
X75697245Y-126832013D01*
X75697245Y-126552013D01*
X75887245Y-126692013D01*
G37*
G04 #@! TO.C,R468*
X67723925Y-125499999D02*
X67416643Y-125499999D01*
X67723925Y-126259999D02*
X67416643Y-126259999D01*
G04 #@! TO.C,R449*
X65753641Y-136280000D02*
X65446359Y-136280000D01*
X65753641Y-137040000D02*
X65446359Y-137040000D01*
G04 #@! TO.C,R406*
X67723925Y-71299999D02*
X67416643Y-71299999D01*
X67723925Y-72059999D02*
X67416643Y-72059999D01*
G04 #@! TO.C,C217*
X120990000Y-37997836D02*
X120990000Y-37782164D01*
X121710000Y-37997836D02*
X121710000Y-37782164D01*
G04 #@! TO.C,R439*
X65753641Y-52240000D02*
X65446359Y-52240000D01*
X65753641Y-53000000D02*
X65446359Y-53000000D01*
G04 #@! TO.C,R433*
X65753641Y-55560000D02*
X65446359Y-55560000D01*
X65753641Y-56320000D02*
X65446359Y-56320000D01*
G04 #@! TO.C,R484*
X67723925Y-26219999D02*
X67416643Y-26219999D01*
X67723925Y-26979999D02*
X67416643Y-26979999D01*
G04 #@! TO.C,R479*
X65753641Y-119040000D02*
X65446359Y-119040000D01*
X65753641Y-119800000D02*
X65446359Y-119800000D01*
G04 #@! TO.C,R470*
X67723925Y-124179999D02*
X67416643Y-124179999D01*
X67723925Y-124939999D02*
X67416643Y-124939999D01*
G04 #@! TO.C,R509*
X78873604Y-130942013D02*
X79180886Y-130942013D01*
X78873604Y-131702013D02*
X79180886Y-131702013D01*
G04 #@! TO.C,C308*
X176132836Y-80215000D02*
X175917164Y-80215000D01*
X176132836Y-80935000D02*
X175917164Y-80935000D01*
G04 #@! TO.C,R461*
X65753641Y-129320000D02*
X65446359Y-129320000D01*
X65753641Y-130080000D02*
X65446359Y-130080000D01*
G04 #@! TO.C,R507*
X79180886Y-127442013D02*
X78873604Y-127442013D01*
X79180886Y-128202013D02*
X78873604Y-128202013D01*
G04 #@! TO.C,C105*
X159582070Y-136352744D02*
X159582070Y-136568416D01*
X160302070Y-136352744D02*
X160302070Y-136568416D01*
G04 #@! TO.C,C109*
X155382070Y-136272744D02*
X155382070Y-136488416D01*
X156102070Y-136272744D02*
X156102070Y-136488416D01*
G04 #@! TO.C,R499*
X79180886Y-23442013D02*
X78873604Y-23442013D01*
X79180886Y-24202013D02*
X78873604Y-24202013D01*
G04 #@! TO.C,C402*
X135540000Y-148904437D02*
X135540000Y-153360000D01*
X135540000Y-153360000D02*
X137240000Y-153360000D01*
X136302500Y-147287500D02*
X136927500Y-147287500D01*
X136604437Y-147840000D02*
X135540000Y-148904437D01*
X136604437Y-147840000D02*
X137240000Y-147840000D01*
X136615000Y-146975000D02*
X136615000Y-147600000D01*
X139995563Y-147840000D02*
X139360000Y-147840000D01*
X139995563Y-147840000D02*
X141060000Y-148904437D01*
X141060000Y-148904437D02*
X141060000Y-153360000D01*
X141060000Y-153360000D02*
X139360000Y-153360000D01*
G04 #@! TO.C,C407*
X99640000Y-58864437D02*
X99640000Y-63320000D01*
X99640000Y-63320000D02*
X101340000Y-63320000D01*
X100402500Y-57247500D02*
X101027500Y-57247500D01*
X100704437Y-57800000D02*
X99640000Y-58864437D01*
X100704437Y-57800000D02*
X101340000Y-57800000D01*
X100715000Y-56935000D02*
X100715000Y-57560000D01*
X104095563Y-57800000D02*
X103460000Y-57800000D01*
X104095563Y-57800000D02*
X105160000Y-58864437D01*
X105160000Y-58864437D02*
X105160000Y-63320000D01*
X105160000Y-63320000D02*
X103460000Y-63320000D01*
G04 #@! TO.C,R487*
X65753641Y-114400000D02*
X65446359Y-114400000D01*
X65753641Y-115160000D02*
X65446359Y-115160000D01*
G04 #@! TO.C,R201*
X103396472Y-44643641D02*
X103396472Y-44336359D01*
X104156472Y-44643641D02*
X104156472Y-44336359D01*
G04 #@! TO.C,R455*
X65753641Y-42960000D02*
X65446359Y-42960000D01*
X65753641Y-43720000D02*
X65446359Y-43720000D01*
G04 #@! TO.C,R466*
X67723925Y-126499999D02*
X67416643Y-126499999D01*
X67723925Y-127259999D02*
X67416643Y-127259999D01*
G04 #@! TO.C,R511*
X79180886Y-134442013D02*
X78873604Y-134442013D01*
X79180886Y-135202013D02*
X78873604Y-135202013D01*
G04 #@! TO.C,R495*
X65753641Y-19760000D02*
X65446359Y-19760000D01*
X65753641Y-20520000D02*
X65446359Y-20520000D01*
G04 #@! TO.C,R514*
X79230886Y-49542013D02*
X78923604Y-49542013D01*
X79230886Y-50302013D02*
X78923604Y-50302013D01*
G04 #@! TO.C,R433*
X65753641Y-145560000D02*
X65446359Y-145560000D01*
X65753641Y-146320000D02*
X65446359Y-146320000D01*
G04 #@! TO.C,Q405*
X75867245Y-33637013D02*
X75867245Y-35107013D01*
X75867245Y-35107013D02*
X75892245Y-35107013D01*
X75892245Y-33637013D02*
X75867245Y-33637013D01*
X78062245Y-35107013D02*
X78087245Y-35107013D01*
X78087245Y-33637013D02*
X78062245Y-33637013D01*
X78087245Y-35107013D02*
X78087245Y-33637013D01*
X75887245Y-33192013D02*
X75697245Y-33052013D01*
X75697245Y-33332013D01*
X75887245Y-33192013D01*
G36*
X75887245Y-33192013D02*
G01*
X75697245Y-33332013D01*
X75697245Y-33052013D01*
X75887245Y-33192013D01*
G37*
G04 #@! TO.C,R432*
X67723925Y-56379999D02*
X67416643Y-56379999D01*
X67723925Y-57139999D02*
X67416643Y-57139999D01*
G04 #@! TO.C,Q413*
X75867245Y-151637013D02*
X75867245Y-153107013D01*
X75867245Y-153107013D02*
X75892245Y-153107013D01*
X75892245Y-151637013D02*
X75867245Y-151637013D01*
X78062245Y-153107013D02*
X78087245Y-153107013D01*
X78087245Y-151637013D02*
X78062245Y-151637013D01*
X78087245Y-153107013D02*
X78087245Y-151637013D01*
X75887245Y-151192013D02*
X75697245Y-151052013D01*
X75697245Y-151332013D01*
X75887245Y-151192013D01*
G36*
X75887245Y-151192013D02*
G01*
X75697245Y-151332013D01*
X75697245Y-151052013D01*
X75887245Y-151192013D01*
G37*
G04 #@! TO.C,C117*
X147008542Y-40972744D02*
X147008542Y-41188416D01*
X147728542Y-40972744D02*
X147728542Y-41188416D01*
G04 #@! TO.C,R438*
X67723925Y-52739999D02*
X67416643Y-52739999D01*
X67723925Y-53499999D02*
X67416643Y-53499999D01*
G04 #@! TO.C,C614*
X183932446Y-47892164D02*
X183932446Y-48107836D01*
X184652446Y-47892164D02*
X184652446Y-48107836D01*
G04 #@! TO.C,C603*
X177707836Y-44240000D02*
X177492164Y-44240000D01*
X177707836Y-44960000D02*
X177492164Y-44960000D01*
G04 #@! TO.C,C609*
X178915000Y-47542164D02*
X178915000Y-47757836D01*
X179635000Y-47542164D02*
X179635000Y-47757836D01*
G04 #@! TO.C,VCC602*
D12*
X182811306Y-33150000D02*
G75*
G02*
X182761306Y-33150000I-25000J0D01*
G01*
X182761306Y-33150000D02*
G75*
G02*
X182811306Y-33150000I25000J0D01*
G01*
G04 #@! TO.C,C403*
D10*
X123640000Y-58904437D02*
X123640000Y-63360000D01*
X123640000Y-63360000D02*
X125340000Y-63360000D01*
X124402500Y-57287500D02*
X125027500Y-57287500D01*
X124704437Y-57840000D02*
X123640000Y-58904437D01*
X124704437Y-57840000D02*
X125340000Y-57840000D01*
X124715000Y-56975000D02*
X124715000Y-57600000D01*
X128095563Y-57840000D02*
X127460000Y-57840000D01*
X128095563Y-57840000D02*
X129160000Y-58904437D01*
X129160000Y-58904437D02*
X129160000Y-63360000D01*
X129160000Y-63360000D02*
X127460000Y-63360000D01*
G04 #@! TO.C,C116*
X164458542Y-36851637D02*
X164458542Y-36635965D01*
X165178542Y-36851637D02*
X165178542Y-36635965D01*
G04 #@! TO.C,U418*
X87604745Y-50312013D02*
X87604745Y-50787013D01*
X87604745Y-53057013D02*
X87604745Y-53532013D01*
X87604745Y-53532013D02*
X88079745Y-53532013D01*
X88079745Y-50312013D02*
X87604745Y-50312013D01*
X90349745Y-53532013D02*
X90824745Y-53532013D01*
X90824745Y-50312013D02*
X90349745Y-50312013D01*
X90824745Y-50787013D02*
X90824745Y-50312013D01*
X90824745Y-53532013D02*
X90824745Y-53057013D01*
X87074745Y-52672013D02*
X86744745Y-52432013D01*
X86744745Y-52912013D01*
X87074745Y-52672013D01*
G36*
X87074745Y-52672013D02*
G01*
X86744745Y-52912013D01*
X86744745Y-52432013D01*
X87074745Y-52672013D01*
G37*
G04 #@! TO.C,U415*
X80567245Y-38862013D02*
X80567245Y-39337013D01*
X80567245Y-41607013D02*
X80567245Y-42082013D01*
X80567245Y-42082013D02*
X81042245Y-42082013D01*
X81042245Y-38862013D02*
X80567245Y-38862013D01*
X83312245Y-42082013D02*
X83787245Y-42082013D01*
X83787245Y-38862013D02*
X83312245Y-38862013D01*
X83787245Y-39337013D02*
X83787245Y-38862013D01*
X83787245Y-42082013D02*
X83787245Y-41607013D01*
X84317245Y-39722013D02*
X84647245Y-39962013D01*
X84647245Y-39482013D01*
X84317245Y-39722013D01*
G36*
X84647245Y-39962013D02*
G01*
X84317245Y-39722013D01*
X84647245Y-39482013D01*
X84647245Y-39962013D01*
G37*
G04 #@! TO.C,R101*
X164438542Y-34176939D02*
X164438542Y-34484221D01*
X165198542Y-34176939D02*
X165198542Y-34484221D01*
G04 #@! TO.C,VCC603*
D12*
X185911306Y-125300000D02*
G75*
G02*
X185861306Y-125300000I-25000J0D01*
G01*
X185861306Y-125300000D02*
G75*
G02*
X185911306Y-125300000I25000J0D01*
G01*
G04 #@! TO.C,C409*
D10*
X111640000Y-148904437D02*
X111640000Y-153360000D01*
X111640000Y-153360000D02*
X113340000Y-153360000D01*
X112402500Y-147287500D02*
X113027500Y-147287500D01*
X112704437Y-147840000D02*
X111640000Y-148904437D01*
X112704437Y-147840000D02*
X113340000Y-147840000D01*
X112715000Y-146975000D02*
X112715000Y-147600000D01*
X116095563Y-147840000D02*
X115460000Y-147840000D01*
X116095563Y-147840000D02*
X117160000Y-148904437D01*
X117160000Y-148904437D02*
X117160000Y-153360000D01*
X117160000Y-153360000D02*
X115460000Y-153360000D01*
G04 #@! TO.C,R459*
X65753641Y-130640000D02*
X65446359Y-130640000D01*
X65753641Y-131400000D02*
X65446359Y-131400000D01*
G04 #@! TO.C,R101*
X164438542Y-124176939D02*
X164438542Y-124484221D01*
X165198542Y-124176939D02*
X165198542Y-124484221D01*
G04 #@! TO.C,R499*
X79180886Y-113442013D02*
X78873604Y-113442013D01*
X79180886Y-114202013D02*
X78873604Y-114202013D01*
G04 #@! TO.C,R447*
X65753641Y-137600000D02*
X65446359Y-137600000D01*
X65753641Y-138360000D02*
X65446359Y-138360000D01*
X65753641Y-47600000D02*
X65446359Y-47600000D01*
X65753641Y-48360000D02*
X65446359Y-48360000D01*
G04 #@! TO.C,C627*
X110110000Y-115922164D02*
X110110000Y-116137836D01*
X110830000Y-115922164D02*
X110830000Y-116137836D01*
G04 #@! TO.C,R601*
X179781306Y-31328641D02*
X179781306Y-31021359D01*
X180541306Y-31328641D02*
X180541306Y-31021359D01*
G04 #@! TO.C,R501*
X78873604Y-26942013D02*
X79180886Y-26942013D01*
X78873604Y-27702013D02*
X79180886Y-27702013D01*
G04 #@! TO.C,R201*
X103396472Y-134643641D02*
X103396472Y-134336359D01*
X104156472Y-134643641D02*
X104156472Y-134336359D01*
G04 #@! TO.C,R202*
X103696359Y-38760000D02*
X104003641Y-38760000D01*
X103696359Y-39520000D02*
X104003641Y-39520000D01*
G04 #@! TO.C,R453*
X65753641Y-133960000D02*
X65446359Y-133960000D01*
X65753641Y-134720000D02*
X65446359Y-134720000D01*
G04 #@! TO.C,C114*
X163408542Y-124688416D02*
X163408542Y-124472744D01*
X164128542Y-124688416D02*
X164128542Y-124472744D01*
G04 #@! TO.C,R410*
X67723925Y-158979999D02*
X67416643Y-158979999D01*
X67723925Y-159739999D02*
X67416643Y-159739999D01*
G04 #@! TO.C,R515*
X79180886Y-51442013D02*
X78873604Y-51442013D01*
X79180886Y-52202013D02*
X78873604Y-52202013D01*
G04 #@! TO.C,R527*
X79180886Y-162442013D02*
X78873604Y-162442013D01*
X79180886Y-163202013D02*
X78873604Y-163202013D01*
G04 #@! TO.C,R509*
X78873604Y-40942013D02*
X79180886Y-40942013D01*
X78873604Y-41702013D02*
X79180886Y-41702013D01*
G04 #@! TO.C,R452*
X67723925Y-44779999D02*
X67416643Y-44779999D01*
X67723925Y-45539999D02*
X67416643Y-45539999D01*
G04 #@! TO.C,R442*
X67723925Y-50419999D02*
X67416643Y-50419999D01*
X67723925Y-51179999D02*
X67416643Y-51179999D01*
G04 #@! TO.C,C302*
X172827500Y-78242164D02*
X172827500Y-78457836D01*
X173547500Y-78242164D02*
X173547500Y-78457836D01*
G04 #@! TO.C,J102*
X156090000Y-26795000D02*
X156090000Y-21495000D01*
X161280000Y-24145000D02*
X163930000Y-24145000D01*
X161280000Y-26795000D02*
X156090000Y-26795000D01*
X161280000Y-26795000D02*
X161280000Y-24145000D01*
X162550000Y-26795000D02*
X163930000Y-26795000D01*
X163930000Y-21495000D02*
X156090000Y-21495000D01*
X163930000Y-24145000D02*
X163930000Y-21495000D01*
X163930000Y-26795000D02*
X163930000Y-25415000D01*
G04 #@! TO.C,C611*
X174815000Y-45417164D02*
X174815000Y-45632836D01*
X175535000Y-45417164D02*
X175535000Y-45632836D01*
G04 #@! TO.C,R485*
X65753641Y-25400000D02*
X65446359Y-25400000D01*
X65753641Y-26160000D02*
X65446359Y-26160000D01*
G04 #@! TO.C,R417*
X65753641Y-154840000D02*
X65446359Y-154840000D01*
X65753641Y-155600000D02*
X65446359Y-155600000D01*
G04 #@! TO.C,C307*
X171292164Y-79715000D02*
X171507836Y-79715000D01*
X171292164Y-80435000D02*
X171507836Y-80435000D01*
G04 #@! TO.C,R301*
X187373641Y-169580000D02*
X187066359Y-169580000D01*
X187373641Y-170340000D02*
X187066359Y-170340000D01*
G04 #@! TO.C,R308*
X177747500Y-173796359D02*
X177747500Y-174103641D01*
X178507500Y-173796359D02*
X178507500Y-174103641D01*
G04 #@! TO.C,L601*
X180624203Y-129577254D02*
X180059052Y-129012103D01*
X181416162Y-128785295D02*
X180851011Y-128220144D01*
G04 #@! TO.C,U601*
X179358488Y-131288008D02*
X179358488Y-131763008D01*
X179358488Y-136033008D02*
X179358488Y-136508008D01*
X179358488Y-136508008D02*
X179833488Y-136508008D01*
X179833488Y-131288008D02*
X179358488Y-131288008D01*
X184103488Y-136508008D02*
X184578488Y-136508008D01*
X184578488Y-131288008D02*
X184103488Y-131288008D01*
X184578488Y-131763008D02*
X184578488Y-131288008D01*
X184578488Y-136508008D02*
X184578488Y-136033008D01*
X178858488Y-135648008D02*
X178528488Y-135408008D01*
X178528488Y-135888008D01*
X178858488Y-135648008D01*
G36*
X178858488Y-135648008D02*
G01*
X178528488Y-135888008D01*
X178528488Y-135408008D01*
X178858488Y-135648008D01*
G37*
G04 #@! TO.C,R486*
X67723925Y-24899999D02*
X67416643Y-24899999D01*
X67723925Y-25659999D02*
X67416643Y-25659999D01*
G04 #@! TO.C,R419*
X65753641Y-153840000D02*
X65446359Y-153840000D01*
X65753641Y-154600000D02*
X65446359Y-154600000D01*
G04 #@! TO.C,U201*
X105790000Y-124130000D02*
X105790000Y-125080000D01*
X105790000Y-133400000D02*
X105790000Y-134350000D01*
X105790000Y-134350000D02*
X106740000Y-134350000D01*
X106740000Y-124130000D02*
X105790000Y-124130000D01*
X115060000Y-134350000D02*
X116010000Y-134350000D01*
X116010000Y-124130000D02*
X115060000Y-124130000D01*
X116010000Y-125080000D02*
X116010000Y-124130000D01*
X116010000Y-134350000D02*
X116010000Y-133400000D01*
X107100000Y-123630000D02*
X107340000Y-123300000D01*
X106860000Y-123300000D01*
X107100000Y-123630000D01*
G36*
X107100000Y-123630000D02*
G01*
X106860000Y-123300000D01*
X107340000Y-123300000D01*
X107100000Y-123630000D01*
G37*
G04 #@! TO.C,R440*
X67723925Y-141739999D02*
X67416643Y-141739999D01*
X67723925Y-142499999D02*
X67416643Y-142499999D01*
G04 #@! TO.C,C110*
X164735706Y-131745580D02*
X164951378Y-131745580D01*
X164735706Y-132465580D02*
X164951378Y-132465580D01*
G04 #@! TO.C,R474*
X67723925Y-121859999D02*
X67416643Y-121859999D01*
X67723925Y-122619999D02*
X67416643Y-122619999D01*
G04 #@! TO.C,R427*
X65753641Y-59200000D02*
X65446359Y-59200000D01*
X65753641Y-59960000D02*
X65446359Y-59960000D01*
G04 #@! TO.C,R523*
X79180886Y-155442013D02*
X78873604Y-155442013D01*
X79180886Y-156202013D02*
X78873604Y-156202013D01*
G04 #@! TO.C,Q403*
X75867245Y-116637013D02*
X75867245Y-118107013D01*
X75867245Y-118107013D02*
X75892245Y-118107013D01*
X75892245Y-116637013D02*
X75867245Y-116637013D01*
X78062245Y-118107013D02*
X78087245Y-118107013D01*
X78087245Y-116637013D02*
X78062245Y-116637013D01*
X78087245Y-118107013D02*
X78087245Y-116637013D01*
X75887245Y-116192013D02*
X75697245Y-116052013D01*
X75697245Y-116332013D01*
X75887245Y-116192013D01*
G36*
X75887245Y-116192013D02*
G01*
X75697245Y-116332013D01*
X75697245Y-116052013D01*
X75887245Y-116192013D01*
G37*
G04 #@! TO.C,R207*
X134916359Y-7350000D02*
X135223641Y-7350000D01*
X134916359Y-8110000D02*
X135223641Y-8110000D01*
G04 #@! TO.C,C110*
X164735706Y-41745580D02*
X164951378Y-41745580D01*
X164735706Y-42465580D02*
X164951378Y-42465580D01*
G04 #@! TO.C,R450*
X67723925Y-45779999D02*
X67416643Y-45779999D01*
X67723925Y-46539999D02*
X67416643Y-46539999D01*
G04 #@! TO.C,R408*
X67723925Y-70299999D02*
X67416643Y-70299999D01*
X67723925Y-71059999D02*
X67416643Y-71059999D01*
G04 #@! TO.C,C617*
X180219142Y-36165000D02*
X180003470Y-36165000D01*
X180219142Y-36885000D02*
X180003470Y-36885000D01*
G04 #@! TO.C,U411*
X69303114Y-24103664D02*
X69303114Y-24328664D01*
X69303114Y-27598664D02*
X69303114Y-27823664D01*
X69303114Y-27823664D02*
X70028114Y-27823664D01*
X70028114Y-24103664D02*
X69303114Y-24103664D01*
X71298114Y-27823664D02*
X72023114Y-27823664D01*
X72023114Y-24103664D02*
X71298114Y-24103664D01*
X72023114Y-24328664D02*
X72023114Y-24103664D01*
X72023114Y-27823664D02*
X72023114Y-27598664D01*
X70413114Y-28333664D02*
X70173114Y-28663664D01*
X70653114Y-28663664D01*
X70413114Y-28333664D01*
G36*
X70653114Y-28663664D02*
G01*
X70173114Y-28663664D01*
X70413114Y-28333664D01*
X70653114Y-28663664D01*
G37*
G04 #@! TO.C,R419*
X65753641Y-63840000D02*
X65446359Y-63840000D01*
X65753641Y-64600000D02*
X65446359Y-64600000D01*
G04 #@! TO.C,C101*
X157708542Y-46272744D02*
X157708542Y-46488416D01*
X158428542Y-46272744D02*
X158428542Y-46488416D01*
G04 #@! TO.C,U407*
X69303114Y-132663664D02*
X69303114Y-132888664D01*
X69303114Y-136158664D02*
X69303114Y-136383664D01*
X69303114Y-136383664D02*
X70028114Y-136383664D01*
X70028114Y-132663664D02*
X69303114Y-132663664D01*
X71298114Y-136383664D02*
X72023114Y-136383664D01*
X72023114Y-132663664D02*
X71298114Y-132663664D01*
X72023114Y-132888664D02*
X72023114Y-132663664D01*
X72023114Y-136383664D02*
X72023114Y-136158664D01*
X70413114Y-136893664D02*
X70173114Y-137223664D01*
X70653114Y-137223664D01*
X70413114Y-136893664D01*
G36*
X70653114Y-137223664D02*
G01*
X70173114Y-137223664D01*
X70413114Y-136893664D01*
X70653114Y-137223664D01*
G37*
G04 #@! TO.C,TP304*
X177250000Y-85350000D02*
G75*
G02*
X175350000Y-85350000I-950000J0D01*
G01*
X175350000Y-85350000D02*
G75*
G02*
X177250000Y-85350000I950000J0D01*
G01*
G04 #@! TO.C,TP301*
X85350000Y-174150000D02*
G75*
G02*
X83450000Y-174150000I-950000J0D01*
G01*
X83450000Y-174150000D02*
G75*
G02*
X85350000Y-174150000I950000J0D01*
G01*
G04 #@! TO.C,R203*
X103696359Y-39760000D02*
X104003641Y-39760000D01*
X103696359Y-40520000D02*
X104003641Y-40520000D01*
G04 #@! TO.C,R301*
X187373641Y-79580000D02*
X187066359Y-79580000D01*
X187373641Y-80340000D02*
X187066359Y-80340000D01*
G04 #@! TO.C,R104*
X155863641Y-141480000D02*
X155556359Y-141480000D01*
X155863641Y-142240000D02*
X155556359Y-142240000D01*
G04 #@! TO.C,R405*
X65753641Y-161800000D02*
X65446359Y-161800000D01*
X65753641Y-162560000D02*
X65446359Y-162560000D01*
G04 #@! TO.C,J102*
X156090000Y-116795000D02*
X156090000Y-111495000D01*
X161280000Y-114145000D02*
X163930000Y-114145000D01*
X161280000Y-116795000D02*
X156090000Y-116795000D01*
X161280000Y-116795000D02*
X161280000Y-114145000D01*
X162550000Y-116795000D02*
X163930000Y-116795000D01*
X163930000Y-111495000D02*
X156090000Y-111495000D01*
X163930000Y-114145000D02*
X163930000Y-111495000D01*
X163930000Y-116795000D02*
X163930000Y-115415000D01*
G04 #@! TO.C,R401*
X65753641Y-164120000D02*
X65446359Y-164120000D01*
X65753641Y-164880000D02*
X65446359Y-164880000D01*
G04 #@! TO.C,R494*
X67723925Y-20259999D02*
X67416643Y-20259999D01*
X67723925Y-21019999D02*
X67416643Y-21019999D01*
G04 #@! TO.C,C215*
X104465000Y-132123943D02*
X104465000Y-132339615D01*
X105185000Y-132123943D02*
X105185000Y-132339615D01*
G04 #@! TO.C,BZ101*
D13*
X176950000Y-154125000D02*
X177450000Y-154125000D01*
X176950000Y-163425000D02*
X177450000Y-163425000D01*
X177200000Y-163175000D02*
X177200000Y-163675000D01*
G04 #@! TO.C,R425*
D10*
X65753641Y-60200000D02*
X65446359Y-60200000D01*
X65753641Y-60960000D02*
X65446359Y-60960000D01*
G04 #@! TO.C,C611*
X174815000Y-135417164D02*
X174815000Y-135632836D01*
X175535000Y-135417164D02*
X175535000Y-135632836D01*
G04 #@! TO.C,BT301*
D14*
X87900000Y-155200000D02*
X87900000Y-161550000D01*
X87900000Y-176200000D02*
X87900000Y-169850000D01*
X164900000Y-155200000D02*
X87900000Y-155200000D01*
X164900000Y-161550000D02*
X164900000Y-155200000D01*
X164900000Y-169850000D02*
X164900000Y-176200000D01*
X164900000Y-176200000D02*
X87900000Y-176200000D01*
G04 #@! TO.C,R528*
D10*
X79230886Y-164042013D02*
X78923604Y-164042013D01*
X79230886Y-164802013D02*
X78923604Y-164802013D01*
G04 #@! TO.C,R457*
X65753641Y-41640000D02*
X65446359Y-41640000D01*
X65753641Y-42400000D02*
X65446359Y-42400000D01*
G04 #@! TO.C,R305*
X178757500Y-173796359D02*
X178757500Y-174103641D01*
X179517500Y-173796359D02*
X179517500Y-174103641D01*
G04 #@! TO.C,U409*
X69303114Y-123383664D02*
X69303114Y-123608664D01*
X69303114Y-126878664D02*
X69303114Y-127103664D01*
X69303114Y-127103664D02*
X70028114Y-127103664D01*
X70028114Y-123383664D02*
X69303114Y-123383664D01*
X71298114Y-127103664D02*
X72023114Y-127103664D01*
X72023114Y-123383664D02*
X71298114Y-123383664D01*
X72023114Y-123608664D02*
X72023114Y-123383664D01*
X72023114Y-127103664D02*
X72023114Y-126878664D01*
X70413114Y-127613664D02*
X70173114Y-127943664D01*
X70653114Y-127943664D01*
X70413114Y-127613664D01*
G36*
X70653114Y-127943664D02*
G01*
X70173114Y-127943664D01*
X70413114Y-127613664D01*
X70653114Y-127943664D01*
G37*
G04 #@! TO.C,C308*
X176132836Y-170215000D02*
X175917164Y-170215000D01*
X176132836Y-170935000D02*
X175917164Y-170935000D01*
G04 #@! TO.C,R205*
X113996472Y-32743641D02*
X113996472Y-32436359D01*
X114756472Y-32743641D02*
X114756472Y-32436359D01*
G04 #@! TO.C,C618*
X180953470Y-33240000D02*
X181169142Y-33240000D01*
X180953470Y-33960000D02*
X181169142Y-33960000D01*
G04 #@! TO.C,R439*
X65753641Y-142240000D02*
X65446359Y-142240000D01*
X65753641Y-143000000D02*
X65446359Y-143000000D01*
G04 #@! TO.C,R304*
X182907500Y-173796359D02*
X182907500Y-174103641D01*
X183667500Y-173796359D02*
X183667500Y-174103641D01*
G04 #@! TO.C,C625*
X183373470Y-120640000D02*
X183589142Y-120640000D01*
X183373470Y-121360000D02*
X183589142Y-121360000D01*
G04 #@! TO.C,TP203*
X100545000Y-40840000D02*
G75*
G02*
X98645000Y-40840000I-950000J0D01*
G01*
X98645000Y-40840000D02*
G75*
G02*
X100545000Y-40840000I950000J0D01*
G01*
G04 #@! TO.C,Q402*
X75867245Y-23137013D02*
X75867245Y-24607013D01*
X75867245Y-24607013D02*
X75892245Y-24607013D01*
X75892245Y-23137013D02*
X75867245Y-23137013D01*
X78062245Y-24607013D02*
X78087245Y-24607013D01*
X78087245Y-23137013D02*
X78062245Y-23137013D01*
X78087245Y-24607013D02*
X78087245Y-23137013D01*
X75887245Y-22692013D02*
X75697245Y-22552013D01*
X75697245Y-22832013D01*
X75887245Y-22692013D01*
G36*
X75887245Y-22692013D02*
G01*
X75697245Y-22832013D01*
X75697245Y-22552013D01*
X75887245Y-22692013D01*
G37*
G04 #@! TO.C,C217*
X120990000Y-127997836D02*
X120990000Y-127782164D01*
X121710000Y-127997836D02*
X121710000Y-127782164D01*
G04 #@! TO.C,R518*
X79230886Y-56542013D02*
X78923604Y-56542013D01*
X79230886Y-57302013D02*
X78923604Y-57302013D01*
G04 #@! TO.C,R508*
X79230886Y-129042013D02*
X78923604Y-129042013D01*
X79230886Y-129802013D02*
X78923604Y-129802013D01*
G04 #@! TO.C,R456*
X67723925Y-42459999D02*
X67416643Y-42459999D01*
X67723925Y-43219999D02*
X67416643Y-43219999D01*
G04 #@! TO.C,C208*
X115065000Y-135782164D02*
X115065000Y-135997836D01*
X115785000Y-135782164D02*
X115785000Y-135997836D01*
G04 #@! TO.C,D1281*
D11*
X174200000Y-69060000D02*
X174200000Y-65200000D01*
X176200000Y-69060000D02*
X174200000Y-69060000D01*
X176200000Y-69060000D02*
X176200000Y-65200000D01*
G04 #@! TO.C,U404*
D10*
X69303114Y-56583664D02*
X69303114Y-56808664D01*
X69303114Y-60078664D02*
X69303114Y-60303664D01*
X69303114Y-60303664D02*
X70028114Y-60303664D01*
X70028114Y-56583664D02*
X69303114Y-56583664D01*
X71298114Y-60303664D02*
X72023114Y-60303664D01*
X72023114Y-56583664D02*
X71298114Y-56583664D01*
X72023114Y-56808664D02*
X72023114Y-56583664D01*
X72023114Y-60303664D02*
X72023114Y-60078664D01*
X70413114Y-60813664D02*
X70173114Y-61143664D01*
X70653114Y-61143664D01*
X70413114Y-60813664D01*
G36*
X70653114Y-61143664D02*
G01*
X70173114Y-61143664D01*
X70413114Y-60813664D01*
X70653114Y-61143664D01*
G37*
G04 #@! TO.C,C213*
X106965000Y-46247836D02*
X106965000Y-46032164D01*
X107685000Y-46247836D02*
X107685000Y-46032164D01*
G04 #@! TO.C,VCC603*
D12*
X185911306Y-35300000D02*
G75*
G02*
X185861306Y-35300000I-25000J0D01*
G01*
X185861306Y-35300000D02*
G75*
G02*
X185911306Y-35300000I25000J0D01*
G01*
G04 #@! TO.C,R413*
D10*
X65753641Y-157160000D02*
X65446359Y-157160000D01*
X65753641Y-157920000D02*
X65446359Y-157920000D01*
G04 #@! TO.C,R432*
X67723925Y-146379999D02*
X67416643Y-146379999D01*
X67723925Y-147139999D02*
X67416643Y-147139999D01*
G04 #@! TO.C,C301*
X182670000Y-79687164D02*
X182670000Y-79902836D01*
X183390000Y-79687164D02*
X183390000Y-79902836D01*
G04 #@! TO.C,R527*
X79180886Y-72442013D02*
X78873604Y-72442013D01*
X79180886Y-73202013D02*
X78873604Y-73202013D01*
G04 #@! TO.C,R414*
X67723925Y-156659999D02*
X67416643Y-156659999D01*
X67723925Y-157419999D02*
X67416643Y-157419999D01*
G04 #@! TO.C,C214*
X104716472Y-44232164D02*
X104716472Y-44447836D01*
X105436472Y-44232164D02*
X105436472Y-44447836D01*
G04 #@! TO.C,Q415*
X75867245Y-158637013D02*
X75867245Y-160107013D01*
X75867245Y-160107013D02*
X75892245Y-160107013D01*
X75892245Y-158637013D02*
X75867245Y-158637013D01*
X78062245Y-160107013D02*
X78087245Y-160107013D01*
X78087245Y-158637013D02*
X78062245Y-158637013D01*
X78087245Y-160107013D02*
X78087245Y-158637013D01*
X75887245Y-158192013D02*
X75697245Y-158052013D01*
X75697245Y-158332013D01*
X75887245Y-158192013D01*
G36*
X75887245Y-158192013D02*
G01*
X75697245Y-158332013D01*
X75697245Y-158052013D01*
X75887245Y-158192013D01*
G37*
G04 #@! TO.C,R208*
X112830000Y-48696359D02*
X112830000Y-49003641D01*
X113590000Y-48696359D02*
X113590000Y-49003641D01*
G04 #@! TO.C,R526*
X79230886Y-160542013D02*
X78923604Y-160542013D01*
X79230886Y-161302013D02*
X78923604Y-161302013D01*
G04 #@! TO.C,U405*
X69303114Y-141943664D02*
X69303114Y-142168664D01*
X69303114Y-145438664D02*
X69303114Y-145663664D01*
X69303114Y-145663664D02*
X70028114Y-145663664D01*
X70028114Y-141943664D02*
X69303114Y-141943664D01*
X71298114Y-145663664D02*
X72023114Y-145663664D01*
X72023114Y-141943664D02*
X71298114Y-141943664D01*
X72023114Y-142168664D02*
X72023114Y-141943664D01*
X72023114Y-145663664D02*
X72023114Y-145438664D01*
X70413114Y-146173664D02*
X70173114Y-146503664D01*
X70653114Y-146503664D01*
X70413114Y-146173664D01*
G36*
X70653114Y-146503664D02*
G01*
X70173114Y-146503664D01*
X70413114Y-146173664D01*
X70653114Y-146503664D01*
G37*
G04 #@! TO.C,C207*
X116816472Y-125597836D02*
X116816472Y-125382164D01*
X117536472Y-125597836D02*
X117536472Y-125382164D01*
G04 #@! TO.C,U406*
X69303114Y-137303664D02*
X69303114Y-137528664D01*
X69303114Y-140798664D02*
X69303114Y-141023664D01*
X69303114Y-141023664D02*
X70028114Y-141023664D01*
X70028114Y-137303664D02*
X69303114Y-137303664D01*
X71298114Y-141023664D02*
X72023114Y-141023664D01*
X72023114Y-137303664D02*
X71298114Y-137303664D01*
X72023114Y-137528664D02*
X72023114Y-137303664D01*
X72023114Y-141023664D02*
X72023114Y-140798664D01*
X70413114Y-141533664D02*
X70173114Y-141863664D01*
X70653114Y-141863664D01*
X70413114Y-141533664D01*
G36*
X70653114Y-141863664D02*
G01*
X70173114Y-141863664D01*
X70413114Y-141533664D01*
X70653114Y-141863664D01*
G37*
G04 #@! TO.C,SW201*
X137560000Y-11150000D02*
X137560000Y-17350000D01*
X137560000Y-11150000D02*
X137660000Y-11150000D01*
X137660000Y-17350000D02*
X137560000Y-17350000D01*
X139160000Y-11150000D02*
X142160000Y-11150000D01*
X139160000Y-17350000D02*
X142160000Y-17350000D01*
X143760000Y-11150000D02*
X143660000Y-11150000D01*
X143760000Y-11150000D02*
X143760000Y-17350000D01*
X143760000Y-17350000D02*
X143660000Y-17350000D01*
G04 #@! TO.C,R306*
X181857500Y-84103641D02*
X181857500Y-83796359D01*
X182617500Y-84103641D02*
X182617500Y-83796359D01*
G04 #@! TO.C,J201*
X105980000Y-7670000D02*
X105980000Y-9050000D01*
X107360000Y-7670000D02*
X105980000Y-7670000D01*
X108630000Y-7670000D02*
X108630000Y-10430000D01*
X108630000Y-7670000D02*
X113820000Y-7670000D01*
X108630000Y-10430000D02*
X113820000Y-10430000D01*
X113820000Y-7670000D02*
X113820000Y-10430000D01*
G04 #@! TO.C,C103*
X157883542Y-123068416D02*
X157883542Y-122852744D01*
X158603542Y-123068416D02*
X158603542Y-122852744D01*
G04 #@! TO.C,R430*
X67723925Y-57379999D02*
X67416643Y-57379999D01*
X67723925Y-58139999D02*
X67416643Y-58139999D01*
G04 #@! TO.C,C624*
X183594142Y-121640000D02*
X183378470Y-121640000D01*
X183594142Y-122360000D02*
X183378470Y-122360000D01*
G04 #@! TO.C,R463*
X65753641Y-38320000D02*
X65446359Y-38320000D01*
X65753641Y-39080000D02*
X65446359Y-39080000D01*
G04 #@! TO.C,J201*
X105980000Y-97670000D02*
X105980000Y-99050000D01*
X107360000Y-97670000D02*
X105980000Y-97670000D01*
X108630000Y-97670000D02*
X108630000Y-100430000D01*
X108630000Y-97670000D02*
X113820000Y-97670000D01*
X108630000Y-100430000D02*
X113820000Y-100430000D01*
X113820000Y-97670000D02*
X113820000Y-100430000D01*
G04 #@! TO.C,R103*
X165022183Y-128450580D02*
X164714901Y-128450580D01*
X165022183Y-129210580D02*
X164714901Y-129210580D01*
G04 #@! TO.C,R467*
X65753641Y-36000000D02*
X65446359Y-36000000D01*
X65753641Y-36760000D02*
X65446359Y-36760000D01*
G04 #@! TO.C,Q201*
D11*
X109270000Y-47890000D02*
X111960000Y-47890000D01*
X109270000Y-49810000D02*
X109270000Y-47890000D01*
X111960000Y-49810000D02*
X109270000Y-49810000D01*
G04 #@! TO.C,R475*
D10*
X65753641Y-121360000D02*
X65446359Y-121360000D01*
X65753641Y-122120000D02*
X65446359Y-122120000D01*
G04 #@! TO.C,Q404*
X75867245Y-30137013D02*
X75867245Y-31607013D01*
X75867245Y-31607013D02*
X75892245Y-31607013D01*
X75892245Y-30137013D02*
X75867245Y-30137013D01*
X78062245Y-31607013D02*
X78087245Y-31607013D01*
X78087245Y-30137013D02*
X78062245Y-30137013D01*
X78087245Y-31607013D02*
X78087245Y-30137013D01*
X75887245Y-29692013D02*
X75697245Y-29552013D01*
X75697245Y-29832013D01*
X75887245Y-29692013D01*
G36*
X75887245Y-29692013D02*
G01*
X75697245Y-29832013D01*
X75697245Y-29552013D01*
X75887245Y-29692013D01*
G37*
G04 #@! TO.C,C401*
X129640000Y-58904437D02*
X129640000Y-63360000D01*
X129640000Y-63360000D02*
X131340000Y-63360000D01*
X130402500Y-57287500D02*
X131027500Y-57287500D01*
X130704437Y-57840000D02*
X129640000Y-58904437D01*
X130704437Y-57840000D02*
X131340000Y-57840000D01*
X130715000Y-56975000D02*
X130715000Y-57600000D01*
X134095563Y-57840000D02*
X133460000Y-57840000D01*
X134095563Y-57840000D02*
X135160000Y-58904437D01*
X135160000Y-58904437D02*
X135160000Y-63360000D01*
X135160000Y-63360000D02*
X133460000Y-63360000D01*
G04 #@! TO.C,Q412*
X75867245Y-58137013D02*
X75867245Y-59607013D01*
X75867245Y-59607013D02*
X75892245Y-59607013D01*
X75892245Y-58137013D02*
X75867245Y-58137013D01*
X78062245Y-59607013D02*
X78087245Y-59607013D01*
X78087245Y-58137013D02*
X78062245Y-58137013D01*
X78087245Y-59607013D02*
X78087245Y-58137013D01*
X75887245Y-57692013D02*
X75697245Y-57552013D01*
X75697245Y-57832013D01*
X75887245Y-57692013D01*
G36*
X75887245Y-57692013D02*
G01*
X75697245Y-57832013D01*
X75697245Y-57552013D01*
X75887245Y-57692013D01*
G37*
G04 #@! TO.C,C606*
X184794190Y-130021693D02*
X184946693Y-129869190D01*
X185303307Y-130530810D02*
X185455810Y-130378307D01*
G04 #@! TO.C,C624*
X183594142Y-31640000D02*
X183378470Y-31640000D01*
X183594142Y-32360000D02*
X183378470Y-32360000D01*
G04 #@! TO.C,C115*
X163533542Y-36846637D02*
X163533542Y-36630965D01*
X164253542Y-36846637D02*
X164253542Y-36630965D01*
G04 #@! TO.C,R502*
X79230886Y-118542013D02*
X78923604Y-118542013D01*
X79230886Y-119302013D02*
X78923604Y-119302013D01*
G04 #@! TO.C,U402*
X69303114Y-65863664D02*
X69303114Y-66088664D01*
X69303114Y-69358664D02*
X69303114Y-69583664D01*
X69303114Y-69583664D02*
X70028114Y-69583664D01*
X70028114Y-65863664D02*
X69303114Y-65863664D01*
X71298114Y-69583664D02*
X72023114Y-69583664D01*
X72023114Y-65863664D02*
X71298114Y-65863664D01*
X72023114Y-66088664D02*
X72023114Y-65863664D01*
X72023114Y-69583664D02*
X72023114Y-69358664D01*
X70413114Y-70093664D02*
X70173114Y-70423664D01*
X70653114Y-70423664D01*
X70413114Y-70093664D01*
G36*
X70653114Y-70423664D02*
G01*
X70173114Y-70423664D01*
X70413114Y-70093664D01*
X70653114Y-70423664D01*
G37*
G04 #@! TO.C,R462*
X67723925Y-38819999D02*
X67416643Y-38819999D01*
X67723925Y-39579999D02*
X67416643Y-39579999D01*
G04 #@! TO.C,R306*
X181857500Y-174103641D02*
X181857500Y-173796359D01*
X182617500Y-174103641D02*
X182617500Y-173796359D01*
G04 #@! TO.C,C408*
X105630000Y-58904437D02*
X105630000Y-63360000D01*
X105630000Y-63360000D02*
X107330000Y-63360000D01*
X106392500Y-57287500D02*
X107017500Y-57287500D01*
X106694437Y-57840000D02*
X105630000Y-58904437D01*
X106694437Y-57840000D02*
X107330000Y-57840000D01*
X106705000Y-56975000D02*
X106705000Y-57600000D01*
X110085563Y-57840000D02*
X109450000Y-57840000D01*
X110085563Y-57840000D02*
X111150000Y-58904437D01*
X111150000Y-58904437D02*
X111150000Y-63360000D01*
X111150000Y-63360000D02*
X109450000Y-63360000D01*
G04 #@! TO.C,C407*
X99640000Y-148864437D02*
X99640000Y-153320000D01*
X99640000Y-153320000D02*
X101340000Y-153320000D01*
X100402500Y-147247500D02*
X101027500Y-147247500D01*
X100704437Y-147800000D02*
X99640000Y-148864437D01*
X100704437Y-147800000D02*
X101340000Y-147800000D01*
X100715000Y-146935000D02*
X100715000Y-147560000D01*
X104095563Y-147800000D02*
X103460000Y-147800000D01*
X104095563Y-147800000D02*
X105160000Y-148864437D01*
X105160000Y-148864437D02*
X105160000Y-153320000D01*
X105160000Y-153320000D02*
X103460000Y-153320000D01*
G04 #@! TO.C,R437*
X65753641Y-53240000D02*
X65446359Y-53240000D01*
X65753641Y-54000000D02*
X65446359Y-54000000D01*
G04 #@! TO.C,C303*
X175377500Y-78242164D02*
X175377500Y-78457836D01*
X176097500Y-78242164D02*
X176097500Y-78457836D01*
G04 #@! TO.C,C620*
X185669142Y-32265000D02*
X185453470Y-32265000D01*
X185669142Y-32985000D02*
X185453470Y-32985000D01*
G04 #@! TO.C,Y201*
X123240000Y-37180000D02*
X126660000Y-37180000D01*
X126660000Y-37180000D02*
X126660000Y-41300000D01*
G04 #@! TO.C,R416*
X67723925Y-65659999D02*
X67416643Y-65659999D01*
X67723925Y-66419999D02*
X67416643Y-66419999D01*
G04 #@! TO.C,R403*
X65753641Y-73120000D02*
X65446359Y-73120000D01*
X65753641Y-73880000D02*
X65446359Y-73880000D01*
G04 #@! TO.C,C214*
X104716472Y-134232164D02*
X104716472Y-134447836D01*
X105436472Y-134232164D02*
X105436472Y-134447836D01*
G04 #@! TO.C,C203*
X110115000Y-45902164D02*
X110115000Y-46117836D01*
X110835000Y-45902164D02*
X110835000Y-46117836D01*
G04 #@! TO.C,TP203*
X100545000Y-130840000D02*
G75*
G02*
X98645000Y-130840000I-950000J0D01*
G01*
X98645000Y-130840000D02*
G75*
G02*
X100545000Y-130840000I950000J0D01*
G01*
G04 #@! TO.C,C603*
X177707836Y-134240000D02*
X177492164Y-134240000D01*
X177707836Y-134960000D02*
X177492164Y-134960000D01*
G04 #@! TO.C,C621*
X185194142Y-126165000D02*
X184978470Y-126165000D01*
X185194142Y-126885000D02*
X184978470Y-126885000D01*
G04 #@! TO.C,R402*
X67723925Y-73619999D02*
X67416643Y-73619999D01*
X67723925Y-74379999D02*
X67416643Y-74379999D01*
G04 #@! TO.C,C201*
X110290000Y-122697836D02*
X110290000Y-122482164D01*
X111010000Y-122697836D02*
X111010000Y-122482164D01*
G04 #@! TO.C,Q412*
X75867245Y-148137013D02*
X75867245Y-149607013D01*
X75867245Y-149607013D02*
X75892245Y-149607013D01*
X75892245Y-148137013D02*
X75867245Y-148137013D01*
X78062245Y-149607013D02*
X78087245Y-149607013D01*
X78087245Y-148137013D02*
X78062245Y-148137013D01*
X78087245Y-149607013D02*
X78087245Y-148137013D01*
X75887245Y-147692013D02*
X75697245Y-147552013D01*
X75697245Y-147832013D01*
X75887245Y-147692013D01*
G36*
X75887245Y-147692013D02*
G01*
X75697245Y-147832013D01*
X75697245Y-147552013D01*
X75887245Y-147692013D01*
G37*
G04 #@! TO.C,R107*
X152776359Y-141500000D02*
X153083641Y-141500000D01*
X152776359Y-142260000D02*
X153083641Y-142260000D01*
G04 #@! TO.C,C213*
X106965000Y-136247836D02*
X106965000Y-136032164D01*
X107685000Y-136247836D02*
X107685000Y-136032164D01*
G04 #@! TO.C,TP204*
X102295000Y-35970000D02*
G75*
G02*
X100395000Y-35970000I-950000J0D01*
G01*
X100395000Y-35970000D02*
G75*
G02*
X102295000Y-35970000I950000J0D01*
G01*
G04 #@! TO.C,C211*
X111115000Y-135902164D02*
X111115000Y-136117836D01*
X111835000Y-135902164D02*
X111835000Y-136117836D01*
G04 #@! TO.C,Q402*
X75867245Y-113137013D02*
X75867245Y-114607013D01*
X75867245Y-114607013D02*
X75892245Y-114607013D01*
X75892245Y-113137013D02*
X75867245Y-113137013D01*
X78062245Y-114607013D02*
X78087245Y-114607013D01*
X78087245Y-113137013D02*
X78062245Y-113137013D01*
X78087245Y-114607013D02*
X78087245Y-113137013D01*
X75887245Y-112692013D02*
X75697245Y-112552013D01*
X75697245Y-112832013D01*
X75887245Y-112692013D01*
G36*
X75887245Y-112692013D02*
G01*
X75697245Y-112832013D01*
X75697245Y-112552013D01*
X75887245Y-112692013D01*
G37*
G04 #@! TO.C,U417*
X80567245Y-66862013D02*
X80567245Y-67337013D01*
X80567245Y-69607013D02*
X80567245Y-70082013D01*
X80567245Y-70082013D02*
X81042245Y-70082013D01*
X81042245Y-66862013D02*
X80567245Y-66862013D01*
X83312245Y-70082013D02*
X83787245Y-70082013D01*
X83787245Y-66862013D02*
X83312245Y-66862013D01*
X83787245Y-67337013D02*
X83787245Y-66862013D01*
X83787245Y-70082013D02*
X83787245Y-69607013D01*
X84317245Y-67722013D02*
X84647245Y-67962013D01*
X84647245Y-67482013D01*
X84317245Y-67722013D01*
G36*
X84647245Y-67962013D02*
G01*
X84317245Y-67722013D01*
X84647245Y-67482013D01*
X84647245Y-67962013D01*
G37*
G04 #@! TO.C,R415*
X65753641Y-66160000D02*
X65446359Y-66160000D01*
X65753641Y-66920000D02*
X65446359Y-66920000D01*
G04 #@! TO.C,R407*
X65753641Y-160800000D02*
X65446359Y-160800000D01*
X65753641Y-161560000D02*
X65446359Y-161560000D01*
G04 #@! TO.C,TP303*
X185175000Y-76950000D02*
G75*
G02*
X183275000Y-76950000I-950000J0D01*
G01*
X183275000Y-76950000D02*
G75*
G02*
X185175000Y-76950000I950000J0D01*
G01*
G04 #@! TO.C,R500*
X79230886Y-25042013D02*
X78923604Y-25042013D01*
X79230886Y-25802013D02*
X78923604Y-25802013D01*
G04 #@! TO.C,C202*
X119142164Y-40330000D02*
X119357836Y-40330000D01*
X119142164Y-41050000D02*
X119357836Y-41050000D01*
G04 #@! TO.C,R307*
X179757500Y-83796359D02*
X179757500Y-84103641D01*
X180517500Y-83796359D02*
X180517500Y-84103641D01*
G04 #@! TO.C,R418*
X67723925Y-154339999D02*
X67416643Y-154339999D01*
X67723925Y-155099999D02*
X67416643Y-155099999D01*
G04 #@! TO.C,C626*
X110080000Y-22807836D02*
X110080000Y-22592164D01*
X110800000Y-22807836D02*
X110800000Y-22592164D01*
G04 #@! TO.C,SW301*
X74130000Y-85726800D02*
X74130000Y-75826800D01*
X75750000Y-75826800D02*
X74130000Y-75826800D01*
X75750000Y-85726800D02*
X74130000Y-85726800D01*
X77185000Y-81453467D02*
X75915000Y-81453467D01*
X78290000Y-75826800D02*
X77350000Y-75826800D01*
X78290000Y-85726800D02*
X77350000Y-85726800D01*
X79725000Y-81453467D02*
X78455000Y-81453467D01*
X81510000Y-75826800D02*
X79890000Y-75826800D01*
X81510000Y-85726800D02*
X79890000Y-85726800D01*
X81510000Y-85726800D02*
X81510000Y-75826800D01*
X81750000Y-85966800D02*
X80367000Y-85966800D01*
X81750000Y-85966800D02*
X81750000Y-84583800D01*
X75915000Y-78746800D02*
X77185000Y-78746800D01*
X77185000Y-82806800D01*
X75915000Y-82806800D01*
X75915000Y-78746800D01*
X75915000Y-81453467D02*
X77185000Y-81453467D01*
X77185000Y-82806800D01*
X75915000Y-82806800D01*
X75915000Y-81453467D01*
G36*
X75915000Y-81453467D02*
G01*
X77185000Y-81453467D01*
X77185000Y-82806800D01*
X75915000Y-82806800D01*
X75915000Y-81453467D01*
G37*
X78455000Y-78746800D02*
X79725000Y-78746800D01*
X79725000Y-82806800D01*
X78455000Y-82806800D01*
X78455000Y-78746800D01*
X78455000Y-81453467D02*
X79725000Y-81453467D01*
X79725000Y-82806800D01*
X78455000Y-82806800D01*
X78455000Y-81453467D01*
G36*
X78455000Y-81453467D02*
G01*
X79725000Y-81453467D01*
X79725000Y-82806800D01*
X78455000Y-82806800D01*
X78455000Y-81453467D01*
G37*
G04 #@! TO.C,SW101*
X154940000Y-55200000D02*
X154940000Y-61400000D01*
X154940000Y-55200000D02*
X155040000Y-55200000D01*
X155040000Y-61400000D02*
X154940000Y-61400000D01*
X156540000Y-55200000D02*
X159540000Y-55200000D01*
X156540000Y-61400000D02*
X159540000Y-61400000D01*
X161140000Y-55200000D02*
X161040000Y-55200000D01*
X161140000Y-55200000D02*
X161140000Y-61400000D01*
X161140000Y-61400000D02*
X161040000Y-61400000D01*
G04 #@! TO.C,Q416*
X75867245Y-72137013D02*
X75867245Y-73607013D01*
X75867245Y-73607013D02*
X75892245Y-73607013D01*
X75892245Y-72137013D02*
X75867245Y-72137013D01*
X78062245Y-73607013D02*
X78087245Y-73607013D01*
X78087245Y-72137013D02*
X78062245Y-72137013D01*
X78087245Y-73607013D02*
X78087245Y-72137013D01*
X75887245Y-71692013D02*
X75697245Y-71552013D01*
X75697245Y-71832013D01*
X75887245Y-71692013D01*
G36*
X75887245Y-71692013D02*
G01*
X75697245Y-71832013D01*
X75697245Y-71552013D01*
X75887245Y-71692013D01*
G37*
G04 #@! TO.C,R303*
X180807500Y-174103641D02*
X180807500Y-173796359D01*
X181567500Y-174103641D02*
X181567500Y-173796359D01*
G04 #@! TO.C,TP202*
X102005000Y-128470000D02*
G75*
G02*
X100105000Y-128470000I-950000J0D01*
G01*
X100105000Y-128470000D02*
G75*
G02*
X102005000Y-128470000I950000J0D01*
G01*
G04 #@! TO.C,C202*
X119142164Y-130330000D02*
X119357836Y-130330000D01*
X119142164Y-131050000D02*
X119357836Y-131050000D01*
G04 #@! TO.C,U410*
X69303114Y-28743664D02*
X69303114Y-28968664D01*
X69303114Y-32238664D02*
X69303114Y-32463664D01*
X69303114Y-32463664D02*
X70028114Y-32463664D01*
X70028114Y-28743664D02*
X69303114Y-28743664D01*
X71298114Y-32463664D02*
X72023114Y-32463664D01*
X72023114Y-28743664D02*
X71298114Y-28743664D01*
X72023114Y-28968664D02*
X72023114Y-28743664D01*
X72023114Y-32463664D02*
X72023114Y-32238664D01*
X70413114Y-32973664D02*
X70173114Y-33303664D01*
X70653114Y-33303664D01*
X70413114Y-32973664D01*
G36*
X70653114Y-33303664D02*
G01*
X70173114Y-33303664D01*
X70413114Y-32973664D01*
X70653114Y-33303664D01*
G37*
G04 #@! TO.C,R416*
X67723925Y-155659999D02*
X67416643Y-155659999D01*
X67723925Y-156419999D02*
X67416643Y-156419999D01*
G04 #@! TO.C,SW202*
X129650000Y-11050000D02*
X129750000Y-11050000D01*
X129650000Y-17250000D02*
X129650000Y-11050000D01*
X129650000Y-17250000D02*
X129750000Y-17250000D01*
X134250000Y-11050000D02*
X131250000Y-11050000D01*
X134250000Y-17250000D02*
X131250000Y-17250000D01*
X135750000Y-11050000D02*
X135850000Y-11050000D01*
X135850000Y-17250000D02*
X135750000Y-17250000D01*
X135850000Y-17250000D02*
X135850000Y-11050000D01*
G04 #@! TO.C,C117*
X147008542Y-130972744D02*
X147008542Y-131188416D01*
X147728542Y-130972744D02*
X147728542Y-131188416D01*
G04 #@! TO.C,R310*
X174446359Y-164945000D02*
X174753641Y-164945000D01*
X174446359Y-165705000D02*
X174753641Y-165705000D01*
G04 #@! TO.C,C606*
X184794190Y-40021693D02*
X184946693Y-39869190D01*
X185303307Y-40530810D02*
X185455810Y-40378307D01*
G04 #@! TO.C,R496*
X67723925Y-19259999D02*
X67416643Y-19259999D01*
X67723925Y-20019999D02*
X67416643Y-20019999D01*
G04 #@! TO.C,R435*
X65753641Y-144560000D02*
X65446359Y-144560000D01*
X65753641Y-145320000D02*
X65446359Y-145320000D01*
G04 #@! TO.C,C113*
X161033542Y-122722744D02*
X161033542Y-122938416D01*
X161753542Y-122722744D02*
X161753542Y-122938416D01*
G04 #@! TO.C,TP101*
X168150000Y-33275000D02*
G75*
G02*
X166250000Y-33275000I-950000J0D01*
G01*
X166250000Y-33275000D02*
G75*
G02*
X168150000Y-33275000I950000J0D01*
G01*
G04 #@! TO.C,R409*
X65753641Y-159480000D02*
X65446359Y-159480000D01*
X65753641Y-160240000D02*
X65446359Y-160240000D01*
G04 #@! TO.C,U416*
X80567245Y-52862013D02*
X80567245Y-53337013D01*
X80567245Y-55607013D02*
X80567245Y-56082013D01*
X80567245Y-56082013D02*
X81042245Y-56082013D01*
X81042245Y-52862013D02*
X80567245Y-52862013D01*
X83312245Y-56082013D02*
X83787245Y-56082013D01*
X83787245Y-52862013D02*
X83312245Y-52862013D01*
X83787245Y-53337013D02*
X83787245Y-52862013D01*
X83787245Y-56082013D02*
X83787245Y-55607013D01*
X84317245Y-53722013D02*
X84647245Y-53962013D01*
X84647245Y-53482013D01*
X84317245Y-53722013D01*
G36*
X84647245Y-53962013D02*
G01*
X84317245Y-53722013D01*
X84647245Y-53482013D01*
X84647245Y-53962013D01*
G37*
G04 #@! TO.C,Q411*
X75867245Y-144637013D02*
X75867245Y-146107013D01*
X75867245Y-146107013D02*
X75892245Y-146107013D01*
X75892245Y-144637013D02*
X75867245Y-144637013D01*
X78062245Y-146107013D02*
X78087245Y-146107013D01*
X78087245Y-144637013D02*
X78062245Y-144637013D01*
X78087245Y-146107013D02*
X78087245Y-144637013D01*
X75887245Y-144192013D02*
X75697245Y-144052013D01*
X75697245Y-144332013D01*
X75887245Y-144192013D01*
G36*
X75887245Y-144192013D02*
G01*
X75697245Y-144332013D01*
X75697245Y-144052013D01*
X75887245Y-144192013D01*
G37*
G04 #@! TO.C,C615*
X181719142Y-31640000D02*
X181503470Y-31640000D01*
X181719142Y-32360000D02*
X181503470Y-32360000D01*
G04 #@! TO.C,TP302*
X186750000Y-85300000D02*
G75*
G02*
X184850000Y-85300000I-950000J0D01*
G01*
X184850000Y-85300000D02*
G75*
G02*
X186750000Y-85300000I950000J0D01*
G01*
G04 #@! TO.C,C404*
X117640000Y-58904437D02*
X117640000Y-63360000D01*
X117640000Y-63360000D02*
X119340000Y-63360000D01*
X118402500Y-57287500D02*
X119027500Y-57287500D01*
X118704437Y-57840000D02*
X117640000Y-58904437D01*
X118704437Y-57840000D02*
X119340000Y-57840000D01*
X118715000Y-56975000D02*
X118715000Y-57600000D01*
X122095563Y-57840000D02*
X121460000Y-57840000D01*
X122095563Y-57840000D02*
X123160000Y-58904437D01*
X123160000Y-58904437D02*
X123160000Y-63360000D01*
X123160000Y-63360000D02*
X121460000Y-63360000D01*
G04 #@! TO.C,C409*
X111640000Y-58904437D02*
X111640000Y-63360000D01*
X111640000Y-63360000D02*
X113340000Y-63360000D01*
X112402500Y-57287500D02*
X113027500Y-57287500D01*
X112704437Y-57840000D02*
X111640000Y-58904437D01*
X112704437Y-57840000D02*
X113340000Y-57840000D01*
X112715000Y-56975000D02*
X112715000Y-57600000D01*
X116095563Y-57840000D02*
X115460000Y-57840000D01*
X116095563Y-57840000D02*
X117160000Y-58904437D01*
X117160000Y-58904437D02*
X117160000Y-63360000D01*
X117160000Y-63360000D02*
X115460000Y-63360000D01*
G04 #@! TO.C,C608*
X178271693Y-130280810D02*
X178119190Y-130128307D01*
X178780810Y-129771693D02*
X178628307Y-129619190D01*
G04 #@! TO.C,R496*
X67723925Y-109259999D02*
X67416643Y-109259999D01*
X67723925Y-110019999D02*
X67416643Y-110019999D01*
G04 #@! TO.C,Q407*
X75867245Y-130637013D02*
X75867245Y-132107013D01*
X75867245Y-132107013D02*
X75892245Y-132107013D01*
X75892245Y-130637013D02*
X75867245Y-130637013D01*
X78062245Y-132107013D02*
X78087245Y-132107013D01*
X78087245Y-130637013D02*
X78062245Y-130637013D01*
X78087245Y-132107013D02*
X78087245Y-130637013D01*
X75887245Y-130192013D02*
X75697245Y-130052013D01*
X75697245Y-130332013D01*
X75887245Y-130192013D01*
G36*
X75887245Y-130192013D02*
G01*
X75697245Y-130332013D01*
X75697245Y-130052013D01*
X75887245Y-130192013D01*
G37*
X75867245Y-40637013D02*
X75867245Y-42107013D01*
X75867245Y-42107013D02*
X75892245Y-42107013D01*
X75892245Y-40637013D02*
X75867245Y-40637013D01*
X78062245Y-42107013D02*
X78087245Y-42107013D01*
X78087245Y-40637013D02*
X78062245Y-40637013D01*
X78087245Y-42107013D02*
X78087245Y-40637013D01*
X75887245Y-40192013D02*
X75697245Y-40052013D01*
X75697245Y-40332013D01*
X75887245Y-40192013D01*
G36*
X75887245Y-40192013D02*
G01*
X75697245Y-40332013D01*
X75697245Y-40052013D01*
X75887245Y-40192013D01*
G37*
G04 #@! TO.C,R464*
X67723925Y-127819999D02*
X67416643Y-127819999D01*
X67723925Y-128579999D02*
X67416643Y-128579999D01*
G04 #@! TO.C,R513*
X79180886Y-47942013D02*
X78873604Y-47942013D01*
X79180886Y-48702013D02*
X78873604Y-48702013D01*
G04 #@! TO.C,R455*
X65753641Y-132960000D02*
X65446359Y-132960000D01*
X65753641Y-133720000D02*
X65446359Y-133720000D01*
G04 #@! TO.C,C408*
X105630000Y-148904437D02*
X105630000Y-153360000D01*
X105630000Y-153360000D02*
X107330000Y-153360000D01*
X106392500Y-147287500D02*
X107017500Y-147287500D01*
X106694437Y-147840000D02*
X105630000Y-148904437D01*
X106694437Y-147840000D02*
X107330000Y-147840000D01*
X106705000Y-146975000D02*
X106705000Y-147600000D01*
X110085563Y-147840000D02*
X109450000Y-147840000D01*
X110085563Y-147840000D02*
X111150000Y-148904437D01*
X111150000Y-148904437D02*
X111150000Y-153360000D01*
X111150000Y-153360000D02*
X109450000Y-153360000D01*
G04 #@! TO.C,Q301*
X173277500Y-160715000D02*
X173277500Y-160740000D01*
X173277500Y-162910000D02*
X173277500Y-162935000D01*
X173277500Y-162935000D02*
X174747500Y-162935000D01*
X174747500Y-160715000D02*
X173277500Y-160715000D01*
X174747500Y-160740000D02*
X174747500Y-160715000D01*
X174747500Y-162935000D02*
X174747500Y-162910000D01*
X175192500Y-160735000D02*
X175332500Y-160545000D01*
X175052500Y-160545000D01*
X175192500Y-160735000D01*
G36*
X175192500Y-160735000D02*
G01*
X175052500Y-160545000D01*
X175332500Y-160545000D01*
X175192500Y-160735000D01*
G37*
G04 #@! TO.C,R106*
X149622183Y-39250580D02*
X149314901Y-39250580D01*
X149622183Y-40010580D02*
X149314901Y-40010580D01*
G04 #@! TO.C,C210*
X103982836Y-36505000D02*
X103767164Y-36505000D01*
X103982836Y-37225000D02*
X103767164Y-37225000D01*
G04 #@! TO.C,U101*
X152708542Y-124620580D02*
X152708542Y-125570580D01*
X152708542Y-133890580D02*
X152708542Y-134840580D01*
X152708542Y-134840580D02*
X153658542Y-134840580D01*
X153658542Y-124620580D02*
X152708542Y-124620580D01*
X161978542Y-134840580D02*
X162928542Y-134840580D01*
X162928542Y-124620580D02*
X161978542Y-124620580D01*
X162928542Y-125570580D02*
X162928542Y-124620580D01*
X162928542Y-134840580D02*
X162928542Y-133890580D01*
X161618542Y-135340580D02*
X161378542Y-135670580D01*
X161858542Y-135670580D01*
X161618542Y-135340580D01*
G36*
X161858542Y-135670580D02*
G01*
X161378542Y-135670580D01*
X161618542Y-135340580D01*
X161858542Y-135670580D01*
G37*
G04 #@! TO.C,VCC601*
D12*
X179336306Y-124850000D02*
G75*
G02*
X179286306Y-124850000I-25000J0D01*
G01*
X179286306Y-124850000D02*
G75*
G02*
X179336306Y-124850000I25000J0D01*
G01*
G04 #@! TO.C,R305*
D10*
X178757500Y-83796359D02*
X178757500Y-84103641D01*
X179517500Y-83796359D02*
X179517500Y-84103641D01*
G04 #@! TO.C,C218*
X120990000Y-40782164D02*
X120990000Y-40997836D01*
X121710000Y-40782164D02*
X121710000Y-40997836D01*
G04 #@! TO.C,R104*
X155863641Y-51480000D02*
X155556359Y-51480000D01*
X155863641Y-52240000D02*
X155556359Y-52240000D01*
G04 #@! TO.C,R202*
X103696359Y-128760000D02*
X104003641Y-128760000D01*
X103696359Y-129520000D02*
X104003641Y-129520000D01*
G04 #@! TO.C,Y101*
X142058542Y-131790580D02*
X142058542Y-127670580D01*
X145478542Y-131790580D02*
X142058542Y-131790580D01*
G04 #@! TO.C,C601*
X177590000Y-131707836D02*
X177590000Y-131492164D01*
X178310000Y-131707836D02*
X178310000Y-131492164D01*
G04 #@! TO.C,R426*
X67723925Y-149699999D02*
X67416643Y-149699999D01*
X67723925Y-150459999D02*
X67416643Y-150459999D01*
G04 #@! TO.C,R445*
X65753641Y-48600000D02*
X65446359Y-48600000D01*
X65753641Y-49360000D02*
X65446359Y-49360000D01*
G04 #@! TO.C,R492*
X67723925Y-111579999D02*
X67416643Y-111579999D01*
X67723925Y-112339999D02*
X67416643Y-112339999D01*
G04 #@! TO.C,U412*
X69303114Y-19463664D02*
X69303114Y-19688664D01*
X69303114Y-22958664D02*
X69303114Y-23183664D01*
X69303114Y-23183664D02*
X70028114Y-23183664D01*
X70028114Y-19463664D02*
X69303114Y-19463664D01*
X71298114Y-23183664D02*
X72023114Y-23183664D01*
X72023114Y-19463664D02*
X71298114Y-19463664D01*
X72023114Y-19688664D02*
X72023114Y-19463664D01*
X72023114Y-23183664D02*
X72023114Y-22958664D01*
X70413114Y-23693664D02*
X70173114Y-24023664D01*
X70653114Y-24023664D01*
X70413114Y-23693664D01*
G36*
X70653114Y-24023664D02*
G01*
X70173114Y-24023664D01*
X70413114Y-23693664D01*
X70653114Y-24023664D01*
G37*
G04 #@! TO.C,C404*
X117640000Y-148904437D02*
X117640000Y-153360000D01*
X117640000Y-153360000D02*
X119340000Y-153360000D01*
X118402500Y-147287500D02*
X119027500Y-147287500D01*
X118704437Y-147840000D02*
X117640000Y-148904437D01*
X118704437Y-147840000D02*
X119340000Y-147840000D01*
X118715000Y-146975000D02*
X118715000Y-147600000D01*
X122095563Y-147840000D02*
X121460000Y-147840000D01*
X122095563Y-147840000D02*
X123160000Y-148904437D01*
X123160000Y-148904437D02*
X123160000Y-153360000D01*
X123160000Y-153360000D02*
X121460000Y-153360000D01*
G04 #@! TO.C,R454*
X67723925Y-43459999D02*
X67416643Y-43459999D01*
X67723925Y-44219999D02*
X67416643Y-44219999D01*
G04 #@! TO.C,C118*
X147008542Y-38188416D02*
X147008542Y-37972744D01*
X147728542Y-38188416D02*
X147728542Y-37972744D01*
G04 #@! TO.C,C615*
X181719142Y-121640000D02*
X181503470Y-121640000D01*
X181719142Y-122360000D02*
X181503470Y-122360000D01*
G04 #@! TO.C,R442*
X67723925Y-140419999D02*
X67416643Y-140419999D01*
X67723925Y-141179999D02*
X67416643Y-141179999D01*
G04 #@! TO.C,R482*
X67723925Y-117219999D02*
X67416643Y-117219999D01*
X67723925Y-117979999D02*
X67416643Y-117979999D01*
G04 #@! TO.C,C113*
X161033542Y-32722744D02*
X161033542Y-32938416D01*
X161753542Y-32722744D02*
X161753542Y-32938416D01*
G04 #@! TO.C,R505*
X79180886Y-123942013D02*
X78873604Y-123942013D01*
X79180886Y-124702013D02*
X78873604Y-124702013D01*
G04 #@! TO.C,R460*
X67723925Y-40139999D02*
X67416643Y-40139999D01*
X67723925Y-40899999D02*
X67416643Y-40899999D01*
G04 #@! TO.C,R512*
X79230886Y-46042013D02*
X78923604Y-46042013D01*
X79230886Y-46802013D02*
X78923604Y-46802013D01*
G04 #@! TO.C,Q401*
X75867245Y-109637013D02*
X75867245Y-111107013D01*
X75867245Y-111107013D02*
X75892245Y-111107013D01*
X75892245Y-109637013D02*
X75867245Y-109637013D01*
X78062245Y-111107013D02*
X78087245Y-111107013D01*
X78087245Y-109637013D02*
X78062245Y-109637013D01*
X78087245Y-111107013D02*
X78087245Y-109637013D01*
X75887245Y-109192013D02*
X75697245Y-109052013D01*
X75697245Y-109332013D01*
X75887245Y-109192013D01*
G36*
X75887245Y-109192013D02*
G01*
X75697245Y-109332013D01*
X75697245Y-109052013D01*
X75887245Y-109192013D01*
G37*
G04 #@! TO.C,Q408*
X75867245Y-44137013D02*
X75867245Y-45607013D01*
X75867245Y-45607013D02*
X75892245Y-45607013D01*
X75892245Y-44137013D02*
X75867245Y-44137013D01*
X78062245Y-45607013D02*
X78087245Y-45607013D01*
X78087245Y-44137013D02*
X78062245Y-44137013D01*
X78087245Y-45607013D02*
X78087245Y-44137013D01*
X75887245Y-43692013D02*
X75697245Y-43552013D01*
X75697245Y-43832013D01*
X75887245Y-43692013D01*
G36*
X75887245Y-43692013D02*
G01*
X75697245Y-43832013D01*
X75697245Y-43552013D01*
X75887245Y-43692013D01*
G37*
G04 #@! TO.C,C111*
X156883542Y-33068416D02*
X156883542Y-32852744D01*
X157603542Y-33068416D02*
X157603542Y-32852744D01*
G04 #@! TO.C,C607*
X178982282Y-129591399D02*
X178829779Y-129438896D01*
X179491399Y-129082282D02*
X179338896Y-128929779D01*
G04 #@! TO.C,R107*
X152776359Y-51500000D02*
X153083641Y-51500000D01*
X152776359Y-52260000D02*
X153083641Y-52260000D01*
G04 #@! TO.C,R488*
X67723925Y-23899999D02*
X67416643Y-23899999D01*
X67723925Y-24659999D02*
X67416643Y-24659999D01*
G04 #@! TO.C,Q406*
X75867245Y-37137013D02*
X75867245Y-38607013D01*
X75867245Y-38607013D02*
X75892245Y-38607013D01*
X75892245Y-37137013D02*
X75867245Y-37137013D01*
X78062245Y-38607013D02*
X78087245Y-38607013D01*
X78087245Y-37137013D02*
X78062245Y-37137013D01*
X78087245Y-38607013D02*
X78087245Y-37137013D01*
X75887245Y-36692013D02*
X75697245Y-36552013D01*
X75697245Y-36832013D01*
X75887245Y-36692013D01*
G36*
X75887245Y-36692013D02*
G01*
X75697245Y-36832013D01*
X75697245Y-36552013D01*
X75887245Y-36692013D01*
G37*
G04 #@! TO.C,R105*
X171570000Y-159996359D02*
X171570000Y-160303641D01*
X172330000Y-159996359D02*
X172330000Y-160303641D01*
G04 #@! TO.C,TP201*
X100875000Y-133440000D02*
G75*
G02*
X98975000Y-133440000I-950000J0D01*
G01*
X98975000Y-133440000D02*
G75*
G02*
X100875000Y-133440000I950000J0D01*
G01*
G04 #@! TO.C,VCC602*
D12*
X182811306Y-123150000D02*
G75*
G02*
X182761306Y-123150000I-25000J0D01*
G01*
X182761306Y-123150000D02*
G75*
G02*
X182811306Y-123150000I25000J0D01*
G01*
G04 #@! TO.C,TP602*
D10*
X184350000Y-52475000D02*
G75*
G02*
X182450000Y-52475000I-950000J0D01*
G01*
X182450000Y-52475000D02*
G75*
G02*
X184350000Y-52475000I950000J0D01*
G01*
G04 #@! TO.C,R601*
X179781306Y-121328641D02*
X179781306Y-121021359D01*
X180541306Y-121328641D02*
X180541306Y-121021359D01*
G04 #@! TO.C,Q404*
X75867245Y-120137013D02*
X75867245Y-121607013D01*
X75867245Y-121607013D02*
X75892245Y-121607013D01*
X75892245Y-120137013D02*
X75867245Y-120137013D01*
X78062245Y-121607013D02*
X78087245Y-121607013D01*
X78087245Y-120137013D02*
X78062245Y-120137013D01*
X78087245Y-121607013D02*
X78087245Y-120137013D01*
X75887245Y-119692013D02*
X75697245Y-119552013D01*
X75697245Y-119832013D01*
X75887245Y-119692013D01*
G36*
X75887245Y-119692013D02*
G01*
X75697245Y-119832013D01*
X75697245Y-119552013D01*
X75887245Y-119692013D01*
G37*
G04 #@! TO.C,U602*
X112470000Y-23195000D02*
X112470000Y-23670000D01*
X112470000Y-25940000D02*
X112470000Y-26415000D01*
X112470000Y-26415000D02*
X112945000Y-26415000D01*
X112945000Y-23195000D02*
X112470000Y-23195000D01*
X115215000Y-26415000D02*
X115690000Y-26415000D01*
X115690000Y-23195000D02*
X115215000Y-23195000D01*
X115690000Y-23670000D02*
X115690000Y-23195000D01*
X115690000Y-26415000D02*
X115690000Y-25940000D01*
X114830000Y-26945000D02*
X114590000Y-27275000D01*
X115070000Y-27275000D01*
X114830000Y-26945000D01*
G36*
X115070000Y-27275000D02*
G01*
X114590000Y-27275000D01*
X114830000Y-26945000D01*
X115070000Y-27275000D01*
G37*
G04 #@! TO.C,R410*
X67723925Y-68979999D02*
X67416643Y-68979999D01*
X67723925Y-69739999D02*
X67416643Y-69739999D01*
G04 #@! TO.C,U602*
X112470000Y-113195000D02*
X112470000Y-113670000D01*
X112470000Y-115940000D02*
X112470000Y-116415000D01*
X112470000Y-116415000D02*
X112945000Y-116415000D01*
X112945000Y-113195000D02*
X112470000Y-113195000D01*
X115215000Y-116415000D02*
X115690000Y-116415000D01*
X115690000Y-113195000D02*
X115215000Y-113195000D01*
X115690000Y-113670000D02*
X115690000Y-113195000D01*
X115690000Y-116415000D02*
X115690000Y-115940000D01*
X114830000Y-116945000D02*
X114590000Y-117275000D01*
X115070000Y-117275000D01*
X114830000Y-116945000D01*
G36*
X115070000Y-117275000D02*
G01*
X114590000Y-117275000D01*
X114830000Y-116945000D01*
X115070000Y-117275000D01*
G37*
G04 #@! TO.C,R411*
X65753641Y-68480000D02*
X65446359Y-68480000D01*
X65753641Y-69240000D02*
X65446359Y-69240000D01*
G04 #@! TO.C,TP101*
X168150000Y-123275000D02*
G75*
G02*
X166250000Y-123275000I-950000J0D01*
G01*
X166250000Y-123275000D02*
G75*
G02*
X168150000Y-123275000I950000J0D01*
G01*
G04 #@! TO.C,R430*
X67723925Y-147379999D02*
X67416643Y-147379999D01*
X67723925Y-148139999D02*
X67416643Y-148139999D01*
G04 #@! TO.C,C304*
X178028080Y-164640000D02*
X177746920Y-164640000D01*
X178028080Y-165660000D02*
X177746920Y-165660000D01*
G04 #@! TO.C,SW202*
X129650000Y-101050000D02*
X129750000Y-101050000D01*
X129650000Y-107250000D02*
X129650000Y-101050000D01*
X129650000Y-107250000D02*
X129750000Y-107250000D01*
X134250000Y-101050000D02*
X131250000Y-101050000D01*
X134250000Y-107250000D02*
X131250000Y-107250000D01*
X135750000Y-101050000D02*
X135850000Y-101050000D01*
X135850000Y-107250000D02*
X135750000Y-107250000D01*
X135850000Y-107250000D02*
X135850000Y-101050000D01*
G04 #@! TO.C,R483*
X65753641Y-26720000D02*
X65446359Y-26720000D01*
X65753641Y-27480000D02*
X65446359Y-27480000D01*
G04 #@! TO.C,U412*
X69303114Y-109463664D02*
X69303114Y-109688664D01*
X69303114Y-112958664D02*
X69303114Y-113183664D01*
X69303114Y-113183664D02*
X70028114Y-113183664D01*
X70028114Y-109463664D02*
X69303114Y-109463664D01*
X71298114Y-113183664D02*
X72023114Y-113183664D01*
X72023114Y-109463664D02*
X71298114Y-109463664D01*
X72023114Y-109688664D02*
X72023114Y-109463664D01*
X72023114Y-113183664D02*
X72023114Y-112958664D01*
X70413114Y-113693664D02*
X70173114Y-114023664D01*
X70653114Y-114023664D01*
X70413114Y-113693664D01*
G36*
X70653114Y-114023664D02*
G01*
X70173114Y-114023664D01*
X70413114Y-113693664D01*
X70653114Y-114023664D01*
G37*
G04 #@! TO.C,C619*
X179644142Y-122265000D02*
X179428470Y-122265000D01*
X179644142Y-122985000D02*
X179428470Y-122985000D01*
G04 #@! TO.C,C216*
X103540000Y-42118943D02*
X103540000Y-42334615D01*
X104260000Y-42118943D02*
X104260000Y-42334615D01*
G04 #@! TO.C,L201*
D11*
X101275000Y-41340000D02*
G75*
G02*
X101125000Y-41340000I-75000J0D01*
G01*
X101125000Y-41340000D02*
G75*
G02*
X101275000Y-41340000I75000J0D01*
G01*
G04 #@! TO.C,Q302*
X170302500Y-165225000D02*
X170302500Y-164575000D01*
X170302500Y-165225000D02*
X170302500Y-165875000D01*
X173422500Y-165225000D02*
X173422500Y-164575000D01*
X173422500Y-165225000D02*
X173422500Y-165875000D01*
D10*
X170352500Y-164062500D02*
X170022500Y-163822500D01*
X170022500Y-164302500D01*
X170352500Y-164062500D01*
G36*
X170352500Y-164062500D02*
G01*
X170022500Y-164302500D01*
X170022500Y-163822500D01*
X170352500Y-164062500D01*
G37*
G04 #@! TO.C,Y101*
X142058542Y-41790580D02*
X142058542Y-37670580D01*
X145478542Y-41790580D02*
X142058542Y-41790580D01*
G04 #@! TO.C,C105*
X159582070Y-46352744D02*
X159582070Y-46568416D01*
X160302070Y-46352744D02*
X160302070Y-46568416D01*
G04 #@! TO.C,R465*
X65753641Y-37000000D02*
X65446359Y-37000000D01*
X65753641Y-37760000D02*
X65446359Y-37760000D01*
G04 #@! TO.C,R448*
X67723925Y-47099999D02*
X67416643Y-47099999D01*
X67723925Y-47859999D02*
X67416643Y-47859999D01*
G04 #@! TO.C,R467*
X65753641Y-126000000D02*
X65446359Y-126000000D01*
X65753641Y-126760000D02*
X65446359Y-126760000D01*
G04 #@! TO.C,L301*
X173977500Y-77587221D02*
X173977500Y-77912779D01*
X174997500Y-77587221D02*
X174997500Y-77912779D01*
G04 #@! TO.C,R302*
X187363641Y-82410000D02*
X187056359Y-82410000D01*
X187363641Y-83170000D02*
X187056359Y-83170000D01*
G04 #@! TO.C,R429*
X65753641Y-57880000D02*
X65446359Y-57880000D01*
X65753641Y-58640000D02*
X65446359Y-58640000D01*
G04 #@! TO.C,C104*
X164760706Y-130520580D02*
X164976378Y-130520580D01*
X164760706Y-131240580D02*
X164976378Y-131240580D01*
G04 #@! TO.C,C305*
X179727500Y-76582836D02*
X179727500Y-76367164D01*
X180447500Y-76582836D02*
X180447500Y-76367164D01*
G04 #@! TO.C,R428*
X67723925Y-58699999D02*
X67416643Y-58699999D01*
X67723925Y-59459999D02*
X67416643Y-59459999D01*
G04 #@! TO.C,R472*
X67723925Y-33179999D02*
X67416643Y-33179999D01*
X67723925Y-33939999D02*
X67416643Y-33939999D01*
G04 #@! TO.C,R401*
X65753641Y-74120000D02*
X65446359Y-74120000D01*
X65753641Y-74880000D02*
X65446359Y-74880000D01*
G04 #@! TO.C,C401*
X129640000Y-148904437D02*
X129640000Y-153360000D01*
X129640000Y-153360000D02*
X131340000Y-153360000D01*
X130402500Y-147287500D02*
X131027500Y-147287500D01*
X130704437Y-147840000D02*
X129640000Y-148904437D01*
X130704437Y-147840000D02*
X131340000Y-147840000D01*
X130715000Y-146975000D02*
X130715000Y-147600000D01*
X134095563Y-147840000D02*
X133460000Y-147840000D01*
X134095563Y-147840000D02*
X135160000Y-148904437D01*
X135160000Y-148904437D02*
X135160000Y-153360000D01*
X135160000Y-153360000D02*
X133460000Y-153360000D01*
G04 #@! TO.C,R408*
X67723925Y-160299999D02*
X67416643Y-160299999D01*
X67723925Y-161059999D02*
X67416643Y-161059999D01*
G04 #@! TO.C,C306*
X174365000Y-173117164D02*
X174365000Y-173332836D01*
X175085000Y-173117164D02*
X175085000Y-173332836D01*
G04 #@! TO.C,C406*
X93640000Y-58864437D02*
X93640000Y-63320000D01*
X93640000Y-63320000D02*
X95340000Y-63320000D01*
X94402500Y-57247500D02*
X95027500Y-57247500D01*
X94704437Y-57800000D02*
X93640000Y-58864437D01*
X94704437Y-57800000D02*
X95340000Y-57800000D01*
X94715000Y-56935000D02*
X94715000Y-57560000D01*
X98095563Y-57800000D02*
X97460000Y-57800000D01*
X98095563Y-57800000D02*
X99160000Y-58864437D01*
X99160000Y-58864437D02*
X99160000Y-63320000D01*
X99160000Y-63320000D02*
X97460000Y-63320000D01*
G04 #@! TO.C,U411*
X69303114Y-114103664D02*
X69303114Y-114328664D01*
X69303114Y-117598664D02*
X69303114Y-117823664D01*
X69303114Y-117823664D02*
X70028114Y-117823664D01*
X70028114Y-114103664D02*
X69303114Y-114103664D01*
X71298114Y-117823664D02*
X72023114Y-117823664D01*
X72023114Y-114103664D02*
X71298114Y-114103664D01*
X72023114Y-114328664D02*
X72023114Y-114103664D01*
X72023114Y-117823664D02*
X72023114Y-117598664D01*
X70413114Y-118333664D02*
X70173114Y-118663664D01*
X70653114Y-118663664D01*
X70413114Y-118333664D01*
G36*
X70653114Y-118663664D02*
G01*
X70173114Y-118663664D01*
X70413114Y-118333664D01*
X70653114Y-118663664D01*
G37*
G04 #@! TO.C,U409*
X69303114Y-33383664D02*
X69303114Y-33608664D01*
X69303114Y-36878664D02*
X69303114Y-37103664D01*
X69303114Y-37103664D02*
X70028114Y-37103664D01*
X70028114Y-33383664D02*
X69303114Y-33383664D01*
X71298114Y-37103664D02*
X72023114Y-37103664D01*
X72023114Y-33383664D02*
X71298114Y-33383664D01*
X72023114Y-33608664D02*
X72023114Y-33383664D01*
X72023114Y-37103664D02*
X72023114Y-36878664D01*
X70413114Y-37613664D02*
X70173114Y-37943664D01*
X70653114Y-37943664D01*
X70413114Y-37613664D01*
G36*
X70653114Y-37943664D02*
G01*
X70173114Y-37943664D01*
X70413114Y-37613664D01*
X70653114Y-37943664D01*
G37*
G04 #@! TO.C,C625*
X183373470Y-30640000D02*
X183589142Y-30640000D01*
X183373470Y-31360000D02*
X183589142Y-31360000D01*
G04 #@! TO.C,TP201*
X100875000Y-43440000D02*
G75*
G02*
X98975000Y-43440000I-950000J0D01*
G01*
X98975000Y-43440000D02*
G75*
G02*
X100875000Y-43440000I950000J0D01*
G01*
G04 #@! TO.C,R498*
X79230886Y-21542013D02*
X78923604Y-21542013D01*
X79230886Y-22302013D02*
X78923604Y-22302013D01*
G04 #@! TO.C,R503*
X79180886Y-120442013D02*
X78873604Y-120442013D01*
X79180886Y-121202013D02*
X78873604Y-121202013D01*
G04 #@! TO.C,U403*
X69303114Y-61223664D02*
X69303114Y-61448664D01*
X69303114Y-64718664D02*
X69303114Y-64943664D01*
X69303114Y-64943664D02*
X70028114Y-64943664D01*
X70028114Y-61223664D02*
X69303114Y-61223664D01*
X71298114Y-64943664D02*
X72023114Y-64943664D01*
X72023114Y-61223664D02*
X71298114Y-61223664D01*
X72023114Y-61448664D02*
X72023114Y-61223664D01*
X72023114Y-64943664D02*
X72023114Y-64718664D01*
X70413114Y-65453664D02*
X70173114Y-65783664D01*
X70653114Y-65783664D01*
X70413114Y-65453664D01*
G36*
X70653114Y-65783664D02*
G01*
X70173114Y-65783664D01*
X70413114Y-65453664D01*
X70653114Y-65783664D01*
G37*
G04 #@! TO.C,Q408*
X75867245Y-134137013D02*
X75867245Y-135607013D01*
X75867245Y-135607013D02*
X75892245Y-135607013D01*
X75892245Y-134137013D02*
X75867245Y-134137013D01*
X78062245Y-135607013D02*
X78087245Y-135607013D01*
X78087245Y-134137013D02*
X78062245Y-134137013D01*
X78087245Y-135607013D02*
X78087245Y-134137013D01*
X75887245Y-133692013D02*
X75697245Y-133552013D01*
X75697245Y-133832013D01*
X75887245Y-133692013D01*
G36*
X75887245Y-133692013D02*
G01*
X75697245Y-133832013D01*
X75697245Y-133552013D01*
X75887245Y-133692013D01*
G37*
G04 #@! TO.C,R428*
X67723925Y-148699999D02*
X67416643Y-148699999D01*
X67723925Y-149459999D02*
X67416643Y-149459999D01*
G04 #@! TO.C,Q414*
X75867245Y-155137013D02*
X75867245Y-156607013D01*
X75867245Y-156607013D02*
X75892245Y-156607013D01*
X75892245Y-155137013D02*
X75867245Y-155137013D01*
X78062245Y-156607013D02*
X78087245Y-156607013D01*
X78087245Y-155137013D02*
X78062245Y-155137013D01*
X78087245Y-156607013D02*
X78087245Y-155137013D01*
X75887245Y-154692013D02*
X75697245Y-154552013D01*
X75697245Y-154832013D01*
X75887245Y-154692013D01*
G36*
X75887245Y-154692013D02*
G01*
X75697245Y-154832013D01*
X75697245Y-154552013D01*
X75887245Y-154692013D01*
G37*
G04 #@! TO.C,R516*
X79230886Y-143042013D02*
X78923604Y-143042013D01*
X79230886Y-143802013D02*
X78923604Y-143802013D01*
G04 #@! TO.C,Q410*
X75867245Y-51137013D02*
X75867245Y-52607013D01*
X75867245Y-52607013D02*
X75892245Y-52607013D01*
X75892245Y-51137013D02*
X75867245Y-51137013D01*
X78062245Y-52607013D02*
X78087245Y-52607013D01*
X78087245Y-51137013D02*
X78062245Y-51137013D01*
X78087245Y-52607013D02*
X78087245Y-51137013D01*
X75887245Y-50692013D02*
X75697245Y-50552013D01*
X75697245Y-50832013D01*
X75887245Y-50692013D01*
G36*
X75887245Y-50692013D02*
G01*
X75697245Y-50832013D01*
X75697245Y-50552013D01*
X75887245Y-50692013D01*
G37*
G04 #@! TO.C,R487*
X65753641Y-24400000D02*
X65446359Y-24400000D01*
X65753641Y-25160000D02*
X65446359Y-25160000D01*
G04 #@! TO.C,L201*
D11*
X101275000Y-131340000D02*
G75*
G02*
X101125000Y-131340000I-75000J0D01*
G01*
X101125000Y-131340000D02*
G75*
G02*
X101275000Y-131340000I75000J0D01*
G01*
G04 #@! TO.C,C108*
D10*
X151658542Y-34668416D02*
X151658542Y-34452744D01*
X152378542Y-34668416D02*
X152378542Y-34452744D01*
G04 #@! TO.C,R602*
X184581306Y-31318641D02*
X184581306Y-31011359D01*
X185341306Y-31318641D02*
X185341306Y-31011359D01*
G04 #@! TO.C,R302*
X187363641Y-172410000D02*
X187056359Y-172410000D01*
X187363641Y-173170000D02*
X187056359Y-173170000D01*
G04 #@! TO.C,R412*
X67723925Y-67979999D02*
X67416643Y-67979999D01*
X67723925Y-68739999D02*
X67416643Y-68739999D01*
G04 #@! TO.C,R476*
X67723925Y-30859999D02*
X67416643Y-30859999D01*
X67723925Y-31619999D02*
X67416643Y-31619999D01*
G04 #@! TO.C,R403*
X65753641Y-163120000D02*
X65446359Y-163120000D01*
X65753641Y-163880000D02*
X65446359Y-163880000D01*
G04 #@! TO.C,C612*
X181503470Y-30640000D02*
X181719142Y-30640000D01*
X181503470Y-31360000D02*
X181719142Y-31360000D01*
G04 #@! TO.C,R504*
X79230886Y-32042013D02*
X78923604Y-32042013D01*
X79230886Y-32802013D02*
X78923604Y-32802013D01*
X79230886Y-122042013D02*
X78923604Y-122042013D01*
X79230886Y-122802013D02*
X78923604Y-122802013D01*
G04 #@! TO.C,R420*
X67723925Y-63339999D02*
X67416643Y-63339999D01*
X67723925Y-64099999D02*
X67416643Y-64099999D01*
G04 #@! TO.C,R475*
X65753641Y-31360000D02*
X65446359Y-31360000D01*
X65753641Y-32120000D02*
X65446359Y-32120000D01*
G04 #@! TO.C,BZ101*
D13*
X176950000Y-64125000D02*
X177450000Y-64125000D01*
X176950000Y-73425000D02*
X177450000Y-73425000D01*
X177200000Y-73175000D02*
X177200000Y-73675000D01*
G04 #@! TO.C,R468*
D10*
X67723925Y-35499999D02*
X67416643Y-35499999D01*
X67723925Y-36259999D02*
X67416643Y-36259999D01*
G04 #@! TO.C,C106*
X149551378Y-40395580D02*
X149335706Y-40395580D01*
X149551378Y-41115580D02*
X149335706Y-41115580D01*
G04 #@! TO.C,C629*
X118297836Y-114160000D02*
X118082164Y-114160000D01*
X118297836Y-114880000D02*
X118082164Y-114880000D01*
G04 #@! TO.C,U301*
X177740000Y-77940000D02*
X177740000Y-78415000D01*
X177740000Y-81685000D02*
X177740000Y-82160000D01*
X177740000Y-82160000D02*
X178215000Y-82160000D01*
X178215000Y-77940000D02*
X177740000Y-77940000D01*
X181485000Y-82160000D02*
X181960000Y-82160000D01*
X181960000Y-77940000D02*
X181485000Y-77940000D01*
X181960000Y-78415000D02*
X181960000Y-77940000D01*
X181960000Y-82160000D02*
X181960000Y-81685000D01*
X182490000Y-78800000D02*
X182820000Y-79040000D01*
X182820000Y-78560000D01*
X182490000Y-78800000D01*
G36*
X182820000Y-79040000D02*
G01*
X182490000Y-78800000D01*
X182820000Y-78560000D01*
X182820000Y-79040000D01*
G37*
G04 #@! TO.C,R446*
X67723925Y-138099999D02*
X67416643Y-138099999D01*
X67723925Y-138859999D02*
X67416643Y-138859999D01*
G04 #@! TO.C,R462*
X67723925Y-128819999D02*
X67416643Y-128819999D01*
X67723925Y-129579999D02*
X67416643Y-129579999D01*
G04 #@! TO.C,Q409*
X75867245Y-137637013D02*
X75867245Y-139107013D01*
X75867245Y-139107013D02*
X75892245Y-139107013D01*
X75892245Y-137637013D02*
X75867245Y-137637013D01*
X78062245Y-139107013D02*
X78087245Y-139107013D01*
X78087245Y-137637013D02*
X78062245Y-137637013D01*
X78087245Y-139107013D02*
X78087245Y-137637013D01*
X75887245Y-137192013D02*
X75697245Y-137052013D01*
X75697245Y-137332013D01*
X75887245Y-137192013D01*
G36*
X75887245Y-137192013D02*
G01*
X75697245Y-137332013D01*
X75697245Y-137052013D01*
X75887245Y-137192013D01*
G37*
G04 #@! TO.C,R443*
X65753641Y-49920000D02*
X65446359Y-49920000D01*
X65753641Y-50680000D02*
X65446359Y-50680000D01*
G04 #@! TO.C,U405*
X69303114Y-51943664D02*
X69303114Y-52168664D01*
X69303114Y-55438664D02*
X69303114Y-55663664D01*
X69303114Y-55663664D02*
X70028114Y-55663664D01*
X70028114Y-51943664D02*
X69303114Y-51943664D01*
X71298114Y-55663664D02*
X72023114Y-55663664D01*
X72023114Y-51943664D02*
X71298114Y-51943664D01*
X72023114Y-52168664D02*
X72023114Y-51943664D01*
X72023114Y-55663664D02*
X72023114Y-55438664D01*
X70413114Y-56173664D02*
X70173114Y-56503664D01*
X70653114Y-56503664D01*
X70413114Y-56173664D01*
G36*
X70653114Y-56503664D02*
G01*
X70173114Y-56503664D01*
X70413114Y-56173664D01*
X70653114Y-56503664D01*
G37*
G04 #@! TO.C,TP202*
X102005000Y-38470000D02*
G75*
G02*
X100105000Y-38470000I-950000J0D01*
G01*
X100105000Y-38470000D02*
G75*
G02*
X102005000Y-38470000I950000J0D01*
G01*
G04 #@! TO.C,R465*
X65753641Y-127000000D02*
X65446359Y-127000000D01*
X65753641Y-127760000D02*
X65446359Y-127760000D01*
G04 #@! TO.C,BT301*
D14*
X87900000Y-65200000D02*
X87900000Y-71550000D01*
X87900000Y-86200000D02*
X87900000Y-79850000D01*
X164900000Y-65200000D02*
X87900000Y-65200000D01*
X164900000Y-71550000D02*
X164900000Y-65200000D01*
X164900000Y-79850000D02*
X164900000Y-86200000D01*
X164900000Y-86200000D02*
X87900000Y-86200000D01*
G04 #@! TO.C,C205*
D10*
X108416472Y-32617836D02*
X108416472Y-32402164D01*
X109136472Y-32617836D02*
X109136472Y-32402164D01*
G04 #@! TO.C,SW102*
X147510000Y-55190000D02*
X147610000Y-55190000D01*
X147510000Y-61390000D02*
X147510000Y-55190000D01*
X147510000Y-61390000D02*
X147610000Y-61390000D01*
X152110000Y-55190000D02*
X149110000Y-55190000D01*
X152110000Y-61390000D02*
X149110000Y-61390000D01*
X153610000Y-55190000D02*
X153710000Y-55190000D01*
X153710000Y-61390000D02*
X153610000Y-61390000D01*
X153710000Y-61390000D02*
X153710000Y-55190000D01*
G04 #@! TO.C,R431*
X65753641Y-146880000D02*
X65446359Y-146880000D01*
X65753641Y-147640000D02*
X65446359Y-147640000D01*
G04 #@! TO.C,C307*
X171292164Y-169715000D02*
X171507836Y-169715000D01*
X171292164Y-170435000D02*
X171507836Y-170435000D01*
G04 #@! TO.C,R602*
X184581306Y-121318641D02*
X184581306Y-121011359D01*
X185341306Y-121318641D02*
X185341306Y-121011359D01*
G04 #@! TO.C,U407*
X69303114Y-42663664D02*
X69303114Y-42888664D01*
X69303114Y-46158664D02*
X69303114Y-46383664D01*
X69303114Y-46383664D02*
X70028114Y-46383664D01*
X70028114Y-42663664D02*
X69303114Y-42663664D01*
X71298114Y-46383664D02*
X72023114Y-46383664D01*
X72023114Y-42663664D02*
X71298114Y-42663664D01*
X72023114Y-42888664D02*
X72023114Y-42663664D01*
X72023114Y-46383664D02*
X72023114Y-46158664D01*
X70413114Y-46893664D02*
X70173114Y-47223664D01*
X70653114Y-47223664D01*
X70413114Y-46893664D01*
G36*
X70653114Y-47223664D02*
G01*
X70173114Y-47223664D01*
X70413114Y-46893664D01*
X70653114Y-47223664D01*
G37*
G04 #@! TO.C,R471*
X65753641Y-33680000D02*
X65446359Y-33680000D01*
X65753641Y-34440000D02*
X65446359Y-34440000D01*
G04 #@! TO.C,R436*
X67723925Y-54059999D02*
X67416643Y-54059999D01*
X67723925Y-54819999D02*
X67416643Y-54819999D01*
G04 #@! TO.C,TP601*
X180800000Y-142475000D02*
G75*
G02*
X178900000Y-142475000I-950000J0D01*
G01*
X178900000Y-142475000D02*
G75*
G02*
X180800000Y-142475000I950000J0D01*
G01*
G04 #@! TO.C,R497*
X79180886Y-19942013D02*
X78873604Y-19942013D01*
X79180886Y-20702013D02*
X78873604Y-20702013D01*
G04 #@! TO.C,C304*
X178028080Y-74640000D02*
X177746920Y-74640000D01*
X178028080Y-75660000D02*
X177746920Y-75660000D01*
G04 #@! TO.C,R304*
X182907500Y-83796359D02*
X182907500Y-84103641D01*
X183667500Y-83796359D02*
X183667500Y-84103641D01*
G04 #@! TO.C,C206*
X119167164Y-37855000D02*
X119382836Y-37855000D01*
X119167164Y-38575000D02*
X119382836Y-38575000D01*
G04 #@! TO.C,C604*
X177632446Y-135942164D02*
X177632446Y-136157836D01*
X178352446Y-135942164D02*
X178352446Y-136157836D01*
G04 #@! TO.C,Y601*
X169815000Y-42015000D02*
X173235000Y-42015000D01*
X173235000Y-42015000D02*
X173235000Y-46135000D01*
G04 #@! TO.C,R429*
X65753641Y-147880000D02*
X65446359Y-147880000D01*
X65753641Y-148640000D02*
X65446359Y-148640000D01*
G04 #@! TO.C,R528*
X79230886Y-74042013D02*
X78923604Y-74042013D01*
X79230886Y-74802013D02*
X78923604Y-74802013D01*
G04 #@! TO.C,C112*
X163010706Y-32520580D02*
X163226378Y-32520580D01*
X163010706Y-33240580D02*
X163226378Y-33240580D01*
G04 #@! TO.C,R461*
X65753641Y-39320000D02*
X65446359Y-39320000D01*
X65753641Y-40080000D02*
X65446359Y-40080000D01*
G04 #@! TO.C,U408*
X69303114Y-128023664D02*
X69303114Y-128248664D01*
X69303114Y-131518664D02*
X69303114Y-131743664D01*
X69303114Y-131743664D02*
X70028114Y-131743664D01*
X70028114Y-128023664D02*
X69303114Y-128023664D01*
X71298114Y-131743664D02*
X72023114Y-131743664D01*
X72023114Y-128023664D02*
X71298114Y-128023664D01*
X72023114Y-128248664D02*
X72023114Y-128023664D01*
X72023114Y-131743664D02*
X72023114Y-131518664D01*
X70413114Y-132253664D02*
X70173114Y-132583664D01*
X70653114Y-132583664D01*
X70413114Y-132253664D01*
G36*
X70653114Y-132583664D02*
G01*
X70173114Y-132583664D01*
X70413114Y-132253664D01*
X70653114Y-132583664D01*
G37*
G04 #@! TO.C,Q201*
D11*
X109270000Y-137890000D02*
X111960000Y-137890000D01*
X109270000Y-139810000D02*
X109270000Y-137890000D01*
X111960000Y-139810000D02*
X109270000Y-139810000D01*
G04 #@! TO.C,R441*
D10*
X65753641Y-140920000D02*
X65446359Y-140920000D01*
X65753641Y-141680000D02*
X65446359Y-141680000D01*
G04 #@! TO.C,C211*
X111115000Y-45902164D02*
X111115000Y-46117836D01*
X111835000Y-45902164D02*
X111835000Y-46117836D01*
G04 #@! TO.C,R525*
X78873604Y-68942013D02*
X79180886Y-68942013D01*
X78873604Y-69702013D02*
X79180886Y-69702013D01*
G04 #@! TO.C,R102*
X165022183Y-39450580D02*
X164714901Y-39450580D01*
X165022183Y-40210580D02*
X164714901Y-40210580D01*
G04 #@! TO.C,Y201*
X123240000Y-127180000D02*
X126660000Y-127180000D01*
X126660000Y-127180000D02*
X126660000Y-131300000D01*
G04 #@! TO.C,R500*
X79230886Y-115042013D02*
X78923604Y-115042013D01*
X79230886Y-115802013D02*
X78923604Y-115802013D01*
G04 #@! TO.C,C405*
X87640000Y-148864437D02*
X87640000Y-153320000D01*
X87640000Y-153320000D02*
X89340000Y-153320000D01*
X88402500Y-147247500D02*
X89027500Y-147247500D01*
X88704437Y-147800000D02*
X87640000Y-148864437D01*
X88704437Y-147800000D02*
X89340000Y-147800000D01*
X88715000Y-146935000D02*
X88715000Y-147560000D01*
X92095563Y-147800000D02*
X91460000Y-147800000D01*
X92095563Y-147800000D02*
X93160000Y-148864437D01*
X93160000Y-148864437D02*
X93160000Y-153320000D01*
X93160000Y-153320000D02*
X91460000Y-153320000D01*
G04 #@! TO.C,R480*
X67723925Y-28539999D02*
X67416643Y-28539999D01*
X67723925Y-29299999D02*
X67416643Y-29299999D01*
G04 #@! TO.C,R402*
X67723925Y-163619999D02*
X67416643Y-163619999D01*
X67723925Y-164379999D02*
X67416643Y-164379999D01*
G04 #@! TO.C,L301*
X173977500Y-167587221D02*
X173977500Y-167912779D01*
X174997500Y-167587221D02*
X174997500Y-167912779D01*
G04 #@! TO.C,R489*
X65753641Y-113080000D02*
X65446359Y-113080000D01*
X65753641Y-113840000D02*
X65446359Y-113840000D01*
G04 #@! TO.C,TP304*
X177250000Y-175350000D02*
G75*
G02*
X175350000Y-175350000I-950000J0D01*
G01*
X175350000Y-175350000D02*
G75*
G02*
X177250000Y-175350000I950000J0D01*
G01*
G04 #@! TO.C,R480*
X67723925Y-118539999D02*
X67416643Y-118539999D01*
X67723925Y-119299999D02*
X67416643Y-119299999D01*
G04 #@! TO.C,L101*
D11*
X167593542Y-37630580D02*
G75*
G02*
X167443542Y-37630580I-75000J0D01*
G01*
X167443542Y-37630580D02*
G75*
G02*
X167593542Y-37630580I75000J0D01*
G01*
G04 #@! TO.C,R495*
D10*
X65753641Y-109760000D02*
X65446359Y-109760000D01*
X65753641Y-110520000D02*
X65446359Y-110520000D01*
G04 #@! TO.C,R310*
X174446359Y-74945000D02*
X174753641Y-74945000D01*
X174446359Y-75705000D02*
X174753641Y-75705000D01*
G04 #@! TO.C,C613*
X184907446Y-136942164D02*
X184907446Y-137157836D01*
X185627446Y-136942164D02*
X185627446Y-137157836D01*
G04 #@! TO.C,R456*
X67723925Y-132459999D02*
X67416643Y-132459999D01*
X67723925Y-133219999D02*
X67416643Y-133219999D01*
G04 #@! TO.C,R488*
X67723925Y-113899999D02*
X67416643Y-113899999D01*
X67723925Y-114659999D02*
X67416643Y-114659999D01*
G04 #@! TO.C,U401*
X69303114Y-70503664D02*
X69303114Y-70728664D01*
X69303114Y-73998664D02*
X69303114Y-74223664D01*
X69303114Y-74223664D02*
X70028114Y-74223664D01*
X70028114Y-70503664D02*
X69303114Y-70503664D01*
X71298114Y-74223664D02*
X72023114Y-74223664D01*
X72023114Y-70503664D02*
X71298114Y-70503664D01*
X72023114Y-70728664D02*
X72023114Y-70503664D01*
X72023114Y-74223664D02*
X72023114Y-73998664D01*
X70413114Y-74733664D02*
X70173114Y-75063664D01*
X70653114Y-75063664D01*
X70413114Y-74733664D01*
G36*
X70653114Y-75063664D02*
G01*
X70173114Y-75063664D01*
X70413114Y-74733664D01*
X70653114Y-75063664D01*
G37*
G04 #@! TO.C,R437*
X65753641Y-143240000D02*
X65446359Y-143240000D01*
X65753641Y-144000000D02*
X65446359Y-144000000D01*
G04 #@! TO.C,R421*
X65753641Y-62520000D02*
X65446359Y-62520000D01*
X65753641Y-63280000D02*
X65446359Y-63280000D01*
G04 #@! TO.C,R427*
X65753641Y-149200000D02*
X65446359Y-149200000D01*
X65753641Y-149960000D02*
X65446359Y-149960000D01*
G04 #@! TO.C,R424*
X67723925Y-61019999D02*
X67416643Y-61019999D01*
X67723925Y-61779999D02*
X67416643Y-61779999D01*
G04 #@! TO.C,C610*
X174815000Y-132377836D02*
X174815000Y-132162164D01*
X175535000Y-132377836D02*
X175535000Y-132162164D01*
G04 #@! TO.C,R460*
X67723925Y-130139999D02*
X67416643Y-130139999D01*
X67723925Y-130899999D02*
X67416643Y-130899999D01*
G04 #@! TO.C,C209*
X112616472Y-122697836D02*
X112616472Y-122482164D01*
X113336472Y-122697836D02*
X113336472Y-122482164D01*
G04 #@! TO.C,C627*
X110110000Y-25922164D02*
X110110000Y-26137836D01*
X110830000Y-25922164D02*
X110830000Y-26137836D01*
G04 #@! TO.C,U302*
X169315000Y-82430000D02*
X169315000Y-85010000D01*
X170295000Y-85010000D02*
X169315000Y-85010000D01*
X173055000Y-85010000D02*
X174035000Y-85010000D01*
X174035000Y-85010000D02*
X174035000Y-82290000D01*
X169465000Y-81880000D02*
X169135000Y-81640000D01*
X169135000Y-82120000D01*
X169465000Y-81880000D01*
G36*
X169465000Y-81880000D02*
G01*
X169135000Y-82120000D01*
X169135000Y-81640000D01*
X169465000Y-81880000D01*
G37*
G04 #@! TO.C,C206*
X119167164Y-127855000D02*
X119382836Y-127855000D01*
X119167164Y-128575000D02*
X119382836Y-128575000D01*
G04 #@! TO.C,VCC601*
D12*
X179336306Y-34850000D02*
G75*
G02*
X179286306Y-34850000I-25000J0D01*
G01*
X179286306Y-34850000D02*
G75*
G02*
X179336306Y-34850000I25000J0D01*
G01*
G04 #@! TO.C,R445*
D10*
X65753641Y-138600000D02*
X65446359Y-138600000D01*
X65753641Y-139360000D02*
X65446359Y-139360000D01*
G04 #@! TO.C,R406*
X67723925Y-161299999D02*
X67416643Y-161299999D01*
X67723925Y-162059999D02*
X67416643Y-162059999D01*
G04 #@! TO.C,R491*
X65753641Y-22080000D02*
X65446359Y-22080000D01*
X65753641Y-22840000D02*
X65446359Y-22840000D01*
G04 #@! TO.C,R414*
X67723925Y-66659999D02*
X67416643Y-66659999D01*
X67723925Y-67419999D02*
X67416643Y-67419999D01*
G04 #@! TO.C,R444*
X67723925Y-49419999D02*
X67416643Y-49419999D01*
X67723925Y-50179999D02*
X67416643Y-50179999D01*
G04 #@! TO.C,R520*
X79230886Y-150042013D02*
X78923604Y-150042013D01*
X79230886Y-150802013D02*
X78923604Y-150802013D01*
G04 #@! TO.C,R469*
X65753641Y-124680000D02*
X65446359Y-124680000D01*
X65753641Y-125440000D02*
X65446359Y-125440000D01*
G04 #@! TO.C,U601*
X179358488Y-41288008D02*
X179358488Y-41763008D01*
X179358488Y-46033008D02*
X179358488Y-46508008D01*
X179358488Y-46508008D02*
X179833488Y-46508008D01*
X179833488Y-41288008D02*
X179358488Y-41288008D01*
X184103488Y-46508008D02*
X184578488Y-46508008D01*
X184578488Y-41288008D02*
X184103488Y-41288008D01*
X184578488Y-41763008D02*
X184578488Y-41288008D01*
X184578488Y-46508008D02*
X184578488Y-46033008D01*
X178858488Y-45648008D02*
X178528488Y-45408008D01*
X178528488Y-45888008D01*
X178858488Y-45648008D01*
G36*
X178858488Y-45648008D02*
G01*
X178528488Y-45888008D01*
X178528488Y-45408008D01*
X178858488Y-45648008D01*
G37*
G04 #@! TO.C,R421*
X65753641Y-152520000D02*
X65446359Y-152520000D01*
X65753641Y-153280000D02*
X65446359Y-153280000D01*
G04 #@! TO.C,R494*
X67723925Y-110259999D02*
X67416643Y-110259999D01*
X67723925Y-111019999D02*
X67416643Y-111019999D01*
G04 #@! TO.C,U418*
X87604745Y-140312013D02*
X87604745Y-140787013D01*
X87604745Y-143057013D02*
X87604745Y-143532013D01*
X87604745Y-143532013D02*
X88079745Y-143532013D01*
X88079745Y-140312013D02*
X87604745Y-140312013D01*
X90349745Y-143532013D02*
X90824745Y-143532013D01*
X90824745Y-140312013D02*
X90349745Y-140312013D01*
X90824745Y-140787013D02*
X90824745Y-140312013D01*
X90824745Y-143532013D02*
X90824745Y-143057013D01*
X87074745Y-142672013D02*
X86744745Y-142432013D01*
X86744745Y-142912013D01*
X87074745Y-142672013D01*
G36*
X87074745Y-142672013D02*
G01*
X86744745Y-142912013D01*
X86744745Y-142432013D01*
X87074745Y-142672013D01*
G37*
G04 #@! TO.C,Y602*
X105160000Y-112530000D02*
X108580000Y-112530000D01*
X108580000Y-112530000D02*
X108580000Y-116650000D01*
G04 #@! TO.C,C108*
X151658542Y-124668416D02*
X151658542Y-124452744D01*
X152378542Y-124668416D02*
X152378542Y-124452744D01*
G04 #@! TO.C,R522*
X79230886Y-153542013D02*
X78923604Y-153542013D01*
X79230886Y-154302013D02*
X78923604Y-154302013D01*
G04 #@! TO.C,C612*
X181503470Y-120640000D02*
X181719142Y-120640000D01*
X181503470Y-121360000D02*
X181719142Y-121360000D01*
G04 #@! TO.C,R458*
X67723925Y-41139999D02*
X67416643Y-41139999D01*
X67723925Y-41899999D02*
X67416643Y-41899999D01*
G04 #@! TO.C,R510*
X79230886Y-42542013D02*
X78923604Y-42542013D01*
X79230886Y-43302013D02*
X78923604Y-43302013D01*
G04 #@! TO.C,C101*
X157708542Y-136272744D02*
X157708542Y-136488416D01*
X158428542Y-136272744D02*
X158428542Y-136488416D01*
G04 #@! TO.C,U302*
X169315000Y-172430000D02*
X169315000Y-175010000D01*
X170295000Y-175010000D02*
X169315000Y-175010000D01*
X173055000Y-175010000D02*
X174035000Y-175010000D01*
X174035000Y-175010000D02*
X174035000Y-172290000D01*
X169465000Y-171880000D02*
X169135000Y-171640000D01*
X169135000Y-172120000D01*
X169465000Y-171880000D01*
G36*
X169465000Y-171880000D02*
G01*
X169135000Y-172120000D01*
X169135000Y-171640000D01*
X169465000Y-171880000D01*
G37*
G04 #@! TO.C,C118*
X147008542Y-128188416D02*
X147008542Y-127972744D01*
X147728542Y-128188416D02*
X147728542Y-127972744D01*
G04 #@! TO.C,R411*
X65753641Y-158480000D02*
X65446359Y-158480000D01*
X65753641Y-159240000D02*
X65446359Y-159240000D01*
G04 #@! TO.C,R105*
X171570000Y-69996359D02*
X171570000Y-70303641D01*
X172330000Y-69996359D02*
X172330000Y-70303641D01*
G04 #@! TO.C,R493*
X65753641Y-110760000D02*
X65446359Y-110760000D01*
X65753641Y-111520000D02*
X65446359Y-111520000D01*
G04 #@! TO.C,R431*
X65753641Y-56880000D02*
X65446359Y-56880000D01*
X65753641Y-57640000D02*
X65446359Y-57640000D01*
G04 #@! TO.C,R522*
X79230886Y-63542013D02*
X78923604Y-63542013D01*
X79230886Y-64302013D02*
X78923604Y-64302013D01*
G04 #@! TO.C,R307*
X179757500Y-173796359D02*
X179757500Y-174103641D01*
X180517500Y-173796359D02*
X180517500Y-174103641D01*
G04 #@! TO.C,AE602*
D15*
X123715000Y-26140000D02*
G75*
G02*
X123365000Y-26140000I-175000J0D01*
G01*
X123365000Y-26140000D02*
G75*
G02*
X123715000Y-26140000I175000J0D01*
G01*
G04 #@! TO.C,U416*
D10*
X80567245Y-142862013D02*
X80567245Y-143337013D01*
X80567245Y-145607013D02*
X80567245Y-146082013D01*
X80567245Y-146082013D02*
X81042245Y-146082013D01*
X81042245Y-142862013D02*
X80567245Y-142862013D01*
X83312245Y-146082013D02*
X83787245Y-146082013D01*
X83787245Y-142862013D02*
X83312245Y-142862013D01*
X83787245Y-143337013D02*
X83787245Y-142862013D01*
X83787245Y-146082013D02*
X83787245Y-145607013D01*
X84317245Y-143722013D02*
X84647245Y-143962013D01*
X84647245Y-143482013D01*
X84317245Y-143722013D01*
G36*
X84647245Y-143962013D02*
G01*
X84317245Y-143722013D01*
X84647245Y-143482013D01*
X84647245Y-143962013D01*
G37*
G04 #@! TO.C,R422*
X67723925Y-62019999D02*
X67416643Y-62019999D01*
X67723925Y-62779999D02*
X67416643Y-62779999D01*
G04 #@! TO.C,R478*
X67723925Y-119539999D02*
X67416643Y-119539999D01*
X67723925Y-120299999D02*
X67416643Y-120299999D01*
G04 #@! TO.C,R103*
X165022183Y-38450580D02*
X164714901Y-38450580D01*
X165022183Y-39210580D02*
X164714901Y-39210580D01*
G04 #@! TO.C,C104*
X164760706Y-40520580D02*
X164976378Y-40520580D01*
X164760706Y-41240580D02*
X164976378Y-41240580D01*
G04 #@! TO.C,SW102*
X147510000Y-145190000D02*
X147610000Y-145190000D01*
X147510000Y-151390000D02*
X147510000Y-145190000D01*
X147510000Y-151390000D02*
X147610000Y-151390000D01*
X152110000Y-145190000D02*
X149110000Y-145190000D01*
X152110000Y-151390000D02*
X149110000Y-151390000D01*
X153610000Y-145190000D02*
X153710000Y-145190000D01*
X153710000Y-151390000D02*
X153610000Y-151390000D01*
X153710000Y-151390000D02*
X153710000Y-145190000D01*
G04 #@! TO.C,C406*
X93640000Y-148864437D02*
X93640000Y-153320000D01*
X93640000Y-153320000D02*
X95340000Y-153320000D01*
X94402500Y-147247500D02*
X95027500Y-147247500D01*
X94704437Y-147800000D02*
X93640000Y-148864437D01*
X94704437Y-147800000D02*
X95340000Y-147800000D01*
X94715000Y-146935000D02*
X94715000Y-147560000D01*
X98095563Y-147800000D02*
X97460000Y-147800000D01*
X98095563Y-147800000D02*
X99160000Y-148864437D01*
X99160000Y-148864437D02*
X99160000Y-153320000D01*
X99160000Y-153320000D02*
X97460000Y-153320000D01*
G04 #@! TO.C,R524*
X79230886Y-157042013D02*
X78923604Y-157042013D01*
X79230886Y-157802013D02*
X78923604Y-157802013D01*
G04 #@! TO.C,R503*
X79180886Y-30442013D02*
X78873604Y-30442013D01*
X79180886Y-31202013D02*
X78873604Y-31202013D01*
G04 #@! TO.C,R440*
X67723925Y-51739999D02*
X67416643Y-51739999D01*
X67723925Y-52499999D02*
X67416643Y-52499999D01*
G04 #@! TO.C,R485*
X65753641Y-115400000D02*
X65446359Y-115400000D01*
X65753641Y-116160000D02*
X65446359Y-116160000D01*
G04 #@! TO.C,R521*
X79180886Y-61942013D02*
X78873604Y-61942013D01*
X79180886Y-62702013D02*
X78873604Y-62702013D01*
G04 #@! TO.C,C623*
X184226306Y-125157836D02*
X184226306Y-124942164D01*
X184946306Y-125157836D02*
X184946306Y-124942164D01*
G04 #@! TO.C,R443*
X65753641Y-139920000D02*
X65446359Y-139920000D01*
X65753641Y-140680000D02*
X65446359Y-140680000D01*
G04 #@! TO.C,C628*
X117542164Y-25200000D02*
X117757836Y-25200000D01*
X117542164Y-25920000D02*
X117757836Y-25920000D01*
G04 #@! TO.C,Q301*
X173277500Y-70715000D02*
X173277500Y-70740000D01*
X173277500Y-72910000D02*
X173277500Y-72935000D01*
X173277500Y-72935000D02*
X174747500Y-72935000D01*
X174747500Y-70715000D02*
X173277500Y-70715000D01*
X174747500Y-70740000D02*
X174747500Y-70715000D01*
X174747500Y-72935000D02*
X174747500Y-72910000D01*
X175192500Y-70735000D02*
X175332500Y-70545000D01*
X175052500Y-70545000D01*
X175192500Y-70735000D01*
G36*
X175192500Y-70735000D02*
G01*
X175052500Y-70545000D01*
X175332500Y-70545000D01*
X175192500Y-70735000D01*
G37*
G04 #@! TO.C,R206*
X138503641Y-97440000D02*
X138196359Y-97440000D01*
X138503641Y-98200000D02*
X138196359Y-98200000D01*
G04 #@! TO.C,U408*
X69303114Y-38023664D02*
X69303114Y-38248664D01*
X69303114Y-41518664D02*
X69303114Y-41743664D01*
X69303114Y-41743664D02*
X70028114Y-41743664D01*
X70028114Y-38023664D02*
X69303114Y-38023664D01*
X71298114Y-41743664D02*
X72023114Y-41743664D01*
X72023114Y-38023664D02*
X71298114Y-38023664D01*
X72023114Y-38248664D02*
X72023114Y-38023664D01*
X72023114Y-41743664D02*
X72023114Y-41518664D01*
X70413114Y-42253664D02*
X70173114Y-42583664D01*
X70653114Y-42583664D01*
X70413114Y-42253664D01*
G36*
X70653114Y-42583664D02*
G01*
X70173114Y-42583664D01*
X70413114Y-42253664D01*
X70653114Y-42583664D01*
G37*
G04 #@! TO.C,R526*
X79230886Y-70542013D02*
X78923604Y-70542013D01*
X79230886Y-71302013D02*
X78923604Y-71302013D01*
G04 #@! TO.C,R434*
X67723925Y-55059999D02*
X67416643Y-55059999D01*
X67723925Y-55819999D02*
X67416643Y-55819999D01*
G04 #@! TO.C,R474*
X67723925Y-31859999D02*
X67416643Y-31859999D01*
X67723925Y-32619999D02*
X67416643Y-32619999D01*
G04 #@! TO.C,C116*
X164458542Y-126851637D02*
X164458542Y-126635965D01*
X165178542Y-126851637D02*
X165178542Y-126635965D01*
G04 #@! TO.C,C623*
X184226306Y-35157836D02*
X184226306Y-34942164D01*
X184946306Y-35157836D02*
X184946306Y-34942164D01*
G04 #@! TO.C,R453*
X65753641Y-43960000D02*
X65446359Y-43960000D01*
X65753641Y-44720000D02*
X65446359Y-44720000D01*
G04 #@! TO.C,R448*
X67723925Y-137099999D02*
X67416643Y-137099999D01*
X67723925Y-137859999D02*
X67416643Y-137859999D01*
G04 #@! TO.C,C209*
X112616472Y-32697836D02*
X112616472Y-32482164D01*
X113336472Y-32697836D02*
X113336472Y-32482164D01*
G04 #@! TO.C,R523*
X79180886Y-65442013D02*
X78873604Y-65442013D01*
X79180886Y-66202013D02*
X78873604Y-66202013D01*
G04 #@! TO.C,U406*
X69303114Y-47303664D02*
X69303114Y-47528664D01*
X69303114Y-50798664D02*
X69303114Y-51023664D01*
X69303114Y-51023664D02*
X70028114Y-51023664D01*
X70028114Y-47303664D02*
X69303114Y-47303664D01*
X71298114Y-51023664D02*
X72023114Y-51023664D01*
X72023114Y-47303664D02*
X71298114Y-47303664D01*
X72023114Y-47528664D02*
X72023114Y-47303664D01*
X72023114Y-51023664D02*
X72023114Y-50798664D01*
X70413114Y-51533664D02*
X70173114Y-51863664D01*
X70653114Y-51863664D01*
X70413114Y-51533664D01*
G36*
X70653114Y-51863664D02*
G01*
X70173114Y-51863664D01*
X70413114Y-51533664D01*
X70653114Y-51863664D01*
G37*
G04 #@! TO.C,C102*
X149576378Y-127920580D02*
X149360706Y-127920580D01*
X149576378Y-128640580D02*
X149360706Y-128640580D01*
G04 #@! TO.C,R517*
X78873604Y-54942013D02*
X79180886Y-54942013D01*
X78873604Y-55702013D02*
X79180886Y-55702013D01*
G04 #@! TO.C,R505*
X79180886Y-33942013D02*
X78873604Y-33942013D01*
X79180886Y-34702013D02*
X78873604Y-34702013D01*
G04 #@! TO.C,U413*
X80567245Y-114862013D02*
X80567245Y-115337013D01*
X80567245Y-117607013D02*
X80567245Y-118082013D01*
X80567245Y-118082013D02*
X81042245Y-118082013D01*
X81042245Y-114862013D02*
X80567245Y-114862013D01*
X83312245Y-118082013D02*
X83787245Y-118082013D01*
X83787245Y-114862013D02*
X83312245Y-114862013D01*
X83787245Y-115337013D02*
X83787245Y-114862013D01*
X83787245Y-118082013D02*
X83787245Y-117607013D01*
X84317245Y-115722013D02*
X84647245Y-115962013D01*
X84647245Y-115482013D01*
X84317245Y-115722013D01*
G36*
X84647245Y-115962013D02*
G01*
X84317245Y-115722013D01*
X84647245Y-115482013D01*
X84647245Y-115962013D01*
G37*
G04 #@! TO.C,C107*
X151258542Y-43272744D02*
X151258542Y-43488416D01*
X151978542Y-43272744D02*
X151978542Y-43488416D01*
G04 #@! TO.C,R478*
X67723925Y-29539999D02*
X67416643Y-29539999D01*
X67723925Y-30299999D02*
X67416643Y-30299999D01*
G04 #@! TO.C,C626*
X110080000Y-112807836D02*
X110080000Y-112592164D01*
X110800000Y-112807836D02*
X110800000Y-112592164D01*
G04 #@! TO.C,R482*
X67723925Y-27219999D02*
X67416643Y-27219999D01*
X67723925Y-27979999D02*
X67416643Y-27979999D01*
G04 #@! TO.C,C212*
X105784308Y-135430000D02*
X105568636Y-135430000D01*
X105784308Y-136150000D02*
X105568636Y-136150000D01*
G04 #@! TO.C,R309*
X170545000Y-161106359D02*
X170545000Y-161413641D01*
X171305000Y-161106359D02*
X171305000Y-161413641D01*
G04 #@! TO.C,U201*
X105790000Y-34130000D02*
X105790000Y-35080000D01*
X105790000Y-43400000D02*
X105790000Y-44350000D01*
X105790000Y-44350000D02*
X106740000Y-44350000D01*
X106740000Y-34130000D02*
X105790000Y-34130000D01*
X115060000Y-44350000D02*
X116010000Y-44350000D01*
X116010000Y-34130000D02*
X115060000Y-34130000D01*
X116010000Y-35080000D02*
X116010000Y-34130000D01*
X116010000Y-44350000D02*
X116010000Y-43400000D01*
X107100000Y-33630000D02*
X107340000Y-33300000D01*
X106860000Y-33300000D01*
X107100000Y-33630000D01*
G36*
X107100000Y-33630000D02*
G01*
X106860000Y-33300000D01*
X107340000Y-33300000D01*
X107100000Y-33630000D01*
G37*
G04 #@! TO.C,R436*
X67723925Y-144059999D02*
X67416643Y-144059999D01*
X67723925Y-144819999D02*
X67416643Y-144819999D01*
G04 #@! TO.C,AE602*
D15*
X123715000Y-116140000D02*
G75*
G02*
X123365000Y-116140000I-175000J0D01*
G01*
X123365000Y-116140000D02*
G75*
G02*
X123715000Y-116140000I175000J0D01*
G01*
G04 #@! TO.C,R422*
D10*
X67723925Y-152019999D02*
X67416643Y-152019999D01*
X67723925Y-152779999D02*
X67416643Y-152779999D01*
G04 #@! TO.C,C619*
X179644142Y-32265000D02*
X179428470Y-32265000D01*
X179644142Y-32985000D02*
X179428470Y-32985000D01*
G04 #@! TO.C,R206*
X138503641Y-7440000D02*
X138196359Y-7440000D01*
X138503641Y-8200000D02*
X138196359Y-8200000D01*
G04 #@! TO.C,R208*
X112830000Y-138696359D02*
X112830000Y-139003641D01*
X113590000Y-138696359D02*
X113590000Y-139003641D01*
G04 #@! TO.C,C103*
X157883542Y-33068416D02*
X157883542Y-32852744D01*
X158603542Y-33068416D02*
X158603542Y-32852744D01*
G04 #@! TO.C,Q414*
X75867245Y-65137013D02*
X75867245Y-66607013D01*
X75867245Y-66607013D02*
X75892245Y-66607013D01*
X75892245Y-65137013D02*
X75867245Y-65137013D01*
X78062245Y-66607013D02*
X78087245Y-66607013D01*
X78087245Y-65137013D02*
X78062245Y-65137013D01*
X78087245Y-66607013D02*
X78087245Y-65137013D01*
X75887245Y-64692013D02*
X75697245Y-64552013D01*
X75697245Y-64832013D01*
X75887245Y-64692013D01*
G36*
X75887245Y-64692013D02*
G01*
X75697245Y-64832013D01*
X75697245Y-64552013D01*
X75887245Y-64692013D01*
G37*
G04 #@! TO.C,Q403*
X75867245Y-26637013D02*
X75867245Y-28107013D01*
X75867245Y-28107013D02*
X75892245Y-28107013D01*
X75892245Y-26637013D02*
X75867245Y-26637013D01*
X78062245Y-28107013D02*
X78087245Y-28107013D01*
X78087245Y-26637013D02*
X78062245Y-26637013D01*
X78087245Y-28107013D02*
X78087245Y-26637013D01*
X75887245Y-26192013D02*
X75697245Y-26052013D01*
X75697245Y-26332013D01*
X75887245Y-26192013D01*
G36*
X75887245Y-26192013D02*
G01*
X75697245Y-26332013D01*
X75697245Y-26052013D01*
X75887245Y-26192013D01*
G37*
G04 #@! TO.C,TP301*
X85350000Y-84150000D02*
G75*
G02*
X83450000Y-84150000I-950000J0D01*
G01*
X83450000Y-84150000D02*
G75*
G02*
X85350000Y-84150000I950000J0D01*
G01*
G04 #@! TO.C,SW101*
X154940000Y-145200000D02*
X154940000Y-151400000D01*
X154940000Y-145200000D02*
X155040000Y-145200000D01*
X155040000Y-151400000D02*
X154940000Y-151400000D01*
X156540000Y-145200000D02*
X159540000Y-145200000D01*
X156540000Y-151400000D02*
X159540000Y-151400000D01*
X161140000Y-145200000D02*
X161040000Y-145200000D01*
X161140000Y-145200000D02*
X161140000Y-151400000D01*
X161140000Y-151400000D02*
X161040000Y-151400000D01*
G04 #@! TO.C,R490*
X67723925Y-112579999D02*
X67416643Y-112579999D01*
X67723925Y-113339999D02*
X67416643Y-113339999D01*
G04 #@! TO.C,Q410*
X75867245Y-141137013D02*
X75867245Y-142607013D01*
X75867245Y-142607013D02*
X75892245Y-142607013D01*
X75892245Y-141137013D02*
X75867245Y-141137013D01*
X78062245Y-142607013D02*
X78087245Y-142607013D01*
X78087245Y-141137013D02*
X78062245Y-141137013D01*
X78087245Y-142607013D02*
X78087245Y-141137013D01*
X75887245Y-140692013D02*
X75697245Y-140552013D01*
X75697245Y-140832013D01*
X75887245Y-140692013D01*
G36*
X75887245Y-140692013D02*
G01*
X75697245Y-140832013D01*
X75697245Y-140552013D01*
X75887245Y-140692013D01*
G37*
G04 #@! TO.C,C207*
X116816472Y-35597836D02*
X116816472Y-35382164D01*
X117536472Y-35597836D02*
X117536472Y-35382164D01*
G04 #@! TO.C,L602*
X183784052Y-128785295D02*
X184349203Y-128220144D01*
X184576011Y-129577254D02*
X185141162Y-129012103D01*
G04 #@! TO.C,R407*
X65753641Y-70800000D02*
X65446359Y-70800000D01*
X65753641Y-71560000D02*
X65446359Y-71560000D01*
G04 #@! TO.C,R469*
X65753641Y-34680000D02*
X65446359Y-34680000D01*
X65753641Y-35440000D02*
X65446359Y-35440000D01*
G04 #@! TO.C,TP205*
X102830000Y-135490000D02*
G75*
G02*
X100930000Y-135490000I-950000J0D01*
G01*
X100930000Y-135490000D02*
G75*
G02*
X102830000Y-135490000I950000J0D01*
G01*
G04 #@! TO.C,R464*
X67723925Y-37819999D02*
X67416643Y-37819999D01*
X67723925Y-38579999D02*
X67416643Y-38579999D01*
G04 #@! TO.C,R486*
X67723925Y-114899999D02*
X67416643Y-114899999D01*
X67723925Y-115659999D02*
X67416643Y-115659999D01*
G04 #@! TO.C,R517*
X78873604Y-144942013D02*
X79180886Y-144942013D01*
X78873604Y-145702013D02*
X79180886Y-145702013D01*
G04 #@! TO.C,R413*
X65753641Y-67160000D02*
X65446359Y-67160000D01*
X65753641Y-67920000D02*
X65446359Y-67920000D01*
G04 #@! TO.C,U417*
X80567245Y-156862013D02*
X80567245Y-157337013D01*
X80567245Y-159607013D02*
X80567245Y-160082013D01*
X80567245Y-160082013D02*
X81042245Y-160082013D01*
X81042245Y-156862013D02*
X80567245Y-156862013D01*
X83312245Y-160082013D02*
X83787245Y-160082013D01*
X83787245Y-156862013D02*
X83312245Y-156862013D01*
X83787245Y-157337013D02*
X83787245Y-156862013D01*
X83787245Y-160082013D02*
X83787245Y-159607013D01*
X84317245Y-157722013D02*
X84647245Y-157962013D01*
X84647245Y-157482013D01*
X84317245Y-157722013D01*
G36*
X84647245Y-157962013D02*
G01*
X84317245Y-157722013D01*
X84647245Y-157482013D01*
X84647245Y-157962013D01*
G37*
G04 #@! TO.C,R102*
X165022183Y-129450580D02*
X164714901Y-129450580D01*
X165022183Y-130210580D02*
X164714901Y-130210580D01*
G04 #@! TO.C,C306*
X174365000Y-83117164D02*
X174365000Y-83332836D01*
X175085000Y-83117164D02*
X175085000Y-83332836D01*
G04 #@! TO.C,C605*
X185469190Y-40721693D02*
X185621693Y-40569190D01*
X185978307Y-41230810D02*
X186130810Y-41078307D01*
G04 #@! TO.C,R441*
X65753641Y-50920000D02*
X65446359Y-50920000D01*
X65753641Y-51680000D02*
X65446359Y-51680000D01*
G04 #@! TO.C,R506*
X79230886Y-125542013D02*
X78923604Y-125542013D01*
X79230886Y-126302013D02*
X78923604Y-126302013D01*
G04 #@! TO.C,R309*
X170545000Y-71106359D02*
X170545000Y-71413641D01*
X171305000Y-71106359D02*
X171305000Y-71413641D01*
G04 #@! TO.C,R404*
X67723925Y-162619999D02*
X67416643Y-162619999D01*
X67723925Y-163379999D02*
X67416643Y-163379999D01*
G04 #@! TO.C,R409*
X65753641Y-69480000D02*
X65446359Y-69480000D01*
X65753641Y-70240000D02*
X65446359Y-70240000D01*
G04 #@! TO.C,C403*
X123640000Y-148904437D02*
X123640000Y-153360000D01*
X123640000Y-153360000D02*
X125340000Y-153360000D01*
X124402500Y-147287500D02*
X125027500Y-147287500D01*
X124704437Y-147840000D02*
X123640000Y-148904437D01*
X124704437Y-147840000D02*
X125340000Y-147840000D01*
X124715000Y-146975000D02*
X124715000Y-147600000D01*
X128095563Y-147840000D02*
X127460000Y-147840000D01*
X128095563Y-147840000D02*
X129160000Y-148904437D01*
X129160000Y-148904437D02*
X129160000Y-153360000D01*
X129160000Y-153360000D02*
X127460000Y-153360000D01*
G04 #@! TO.C,C218*
X120990000Y-130782164D02*
X120990000Y-130997836D01*
X121710000Y-130782164D02*
X121710000Y-130997836D01*
G04 #@! TO.C,D1281*
D11*
X174200000Y-159060000D02*
X174200000Y-155200000D01*
X176200000Y-159060000D02*
X174200000Y-159060000D01*
X176200000Y-159060000D02*
X176200000Y-155200000D01*
G04 #@! TO.C,C305*
D10*
X179727500Y-166582836D02*
X179727500Y-166367164D01*
X180447500Y-166582836D02*
X180447500Y-166367164D01*
G04 #@! TO.C,R470*
X67723925Y-34179999D02*
X67416643Y-34179999D01*
X67723925Y-34939999D02*
X67416643Y-34939999D01*
G04 #@! TO.C,TP204*
X102295000Y-125970000D02*
G75*
G02*
X100395000Y-125970000I-950000J0D01*
G01*
X100395000Y-125970000D02*
G75*
G02*
X102295000Y-125970000I950000J0D01*
G01*
G04 #@! TO.C,R484*
X67723925Y-116219999D02*
X67416643Y-116219999D01*
X67723925Y-116979999D02*
X67416643Y-116979999D01*
G04 #@! TO.C,C607*
X178982282Y-39591399D02*
X178829779Y-39438896D01*
X179491399Y-39082282D02*
X179338896Y-38929779D01*
G04 #@! TO.C,R492*
X67723925Y-21579999D02*
X67416643Y-21579999D01*
X67723925Y-22339999D02*
X67416643Y-22339999D01*
G04 #@! TO.C,SW301*
X74130000Y-175726800D02*
X74130000Y-165826800D01*
X75750000Y-165826800D02*
X74130000Y-165826800D01*
X75750000Y-175726800D02*
X74130000Y-175726800D01*
X77185000Y-171453467D02*
X75915000Y-171453467D01*
X78290000Y-165826800D02*
X77350000Y-165826800D01*
X78290000Y-175726800D02*
X77350000Y-175726800D01*
X79725000Y-171453467D02*
X78455000Y-171453467D01*
X81510000Y-165826800D02*
X79890000Y-165826800D01*
X81510000Y-175726800D02*
X79890000Y-175726800D01*
X81510000Y-175726800D02*
X81510000Y-165826800D01*
X81750000Y-175966800D02*
X80367000Y-175966800D01*
X81750000Y-175966800D02*
X81750000Y-174583800D01*
X75915000Y-168746800D02*
X77185000Y-168746800D01*
X77185000Y-172806800D01*
X75915000Y-172806800D01*
X75915000Y-168746800D01*
X75915000Y-171453467D02*
X77185000Y-171453467D01*
X77185000Y-172806800D01*
X75915000Y-172806800D01*
X75915000Y-171453467D01*
G36*
X75915000Y-171453467D02*
G01*
X77185000Y-171453467D01*
X77185000Y-172806800D01*
X75915000Y-172806800D01*
X75915000Y-171453467D01*
G37*
X78455000Y-168746800D02*
X79725000Y-168746800D01*
X79725000Y-172806800D01*
X78455000Y-172806800D01*
X78455000Y-168746800D01*
X78455000Y-171453467D02*
X79725000Y-171453467D01*
X79725000Y-172806800D01*
X78455000Y-172806800D01*
X78455000Y-171453467D01*
G36*
X78455000Y-171453467D02*
G01*
X79725000Y-171453467D01*
X79725000Y-172806800D01*
X78455000Y-172806800D01*
X78455000Y-171453467D01*
G37*
G04 #@! TO.C,TP601*
X180800000Y-52475000D02*
G75*
G02*
X178900000Y-52475000I-950000J0D01*
G01*
X178900000Y-52475000D02*
G75*
G02*
X180800000Y-52475000I950000J0D01*
G01*
G04 #@! TO.C,U402*
X69303114Y-155863664D02*
X69303114Y-156088664D01*
X69303114Y-159358664D02*
X69303114Y-159583664D01*
X69303114Y-159583664D02*
X70028114Y-159583664D01*
X70028114Y-155863664D02*
X69303114Y-155863664D01*
X71298114Y-159583664D02*
X72023114Y-159583664D01*
X72023114Y-155863664D02*
X71298114Y-155863664D01*
X72023114Y-156088664D02*
X72023114Y-155863664D01*
X72023114Y-159583664D02*
X72023114Y-159358664D01*
X70413114Y-160093664D02*
X70173114Y-160423664D01*
X70653114Y-160423664D01*
X70413114Y-160093664D01*
G36*
X70653114Y-160423664D02*
G01*
X70173114Y-160423664D01*
X70413114Y-160093664D01*
X70653114Y-160423664D01*
G37*
G04 #@! TO.C,C621*
X185194142Y-36165000D02*
X184978470Y-36165000D01*
X185194142Y-36885000D02*
X184978470Y-36885000D01*
G04 #@! TO.C,R473*
X65753641Y-122360000D02*
X65446359Y-122360000D01*
X65753641Y-123120000D02*
X65446359Y-123120000D01*
G04 #@! TO.C,Y601*
X169815000Y-132015000D02*
X173235000Y-132015000D01*
X173235000Y-132015000D02*
X173235000Y-136135000D01*
G04 #@! TO.C,C620*
X185669142Y-122265000D02*
X185453470Y-122265000D01*
X185669142Y-122985000D02*
X185453470Y-122985000D01*
G04 #@! TO.C,U101*
X152708542Y-34620580D02*
X152708542Y-35570580D01*
X152708542Y-43890580D02*
X152708542Y-44840580D01*
X152708542Y-44840580D02*
X153658542Y-44840580D01*
X153658542Y-34620580D02*
X152708542Y-34620580D01*
X161978542Y-44840580D02*
X162928542Y-44840580D01*
X162928542Y-34620580D02*
X161978542Y-34620580D01*
X162928542Y-35570580D02*
X162928542Y-34620580D01*
X162928542Y-44840580D02*
X162928542Y-43890580D01*
X161618542Y-45340580D02*
X161378542Y-45670580D01*
X161858542Y-45670580D01*
X161618542Y-45340580D01*
G36*
X161858542Y-45670580D02*
G01*
X161378542Y-45670580D01*
X161618542Y-45340580D01*
X161858542Y-45670580D01*
G37*
G04 #@! TO.C,L602*
X183784052Y-38785295D02*
X184349203Y-38220144D01*
X184576011Y-39577254D02*
X185141162Y-39012103D01*
G04 #@! TO.C,R524*
X79230886Y-67042013D02*
X78923604Y-67042013D01*
X79230886Y-67802013D02*
X78923604Y-67802013D01*
G04 #@! TO.C,R438*
X67723925Y-142739999D02*
X67416643Y-142739999D01*
X67723925Y-143499999D02*
X67416643Y-143499999D01*
G04 #@! TO.C,TP303*
X185175000Y-166950000D02*
G75*
G02*
X183275000Y-166950000I-950000J0D01*
G01*
X183275000Y-166950000D02*
G75*
G02*
X185175000Y-166950000I950000J0D01*
G01*
G04 #@! TO.C,U414*
X81567245Y-135312013D02*
X81567245Y-135787013D01*
X81567245Y-138057013D02*
X81567245Y-138532013D01*
X81567245Y-138532013D02*
X82042245Y-138532013D01*
X82042245Y-135312013D02*
X81567245Y-135312013D01*
X84312245Y-138532013D02*
X84787245Y-138532013D01*
X84787245Y-135312013D02*
X84312245Y-135312013D01*
X84787245Y-135787013D02*
X84787245Y-135312013D01*
X84787245Y-138532013D02*
X84787245Y-138057013D01*
X85317245Y-136172013D02*
X85647245Y-136412013D01*
X85647245Y-135932013D01*
X85317245Y-136172013D01*
G36*
X85647245Y-136412013D02*
G01*
X85317245Y-136172013D01*
X85647245Y-135932013D01*
X85647245Y-136412013D01*
G37*
G04 #@! TO.C,R513*
X79180886Y-137942013D02*
X78873604Y-137942013D01*
X79180886Y-138702013D02*
X78873604Y-138702013D01*
G04 #@! TO.C,R303*
X180807500Y-84103641D02*
X180807500Y-83796359D01*
X181567500Y-84103641D02*
X181567500Y-83796359D01*
G04 #@! TO.C,U401*
X69303114Y-160503664D02*
X69303114Y-160728664D01*
X69303114Y-163998664D02*
X69303114Y-164223664D01*
X69303114Y-164223664D02*
X70028114Y-164223664D01*
X70028114Y-160503664D02*
X69303114Y-160503664D01*
X71298114Y-164223664D02*
X72023114Y-164223664D01*
X72023114Y-160503664D02*
X71298114Y-160503664D01*
X72023114Y-160728664D02*
X72023114Y-160503664D01*
X72023114Y-164223664D02*
X72023114Y-163998664D01*
X70413114Y-164733664D02*
X70173114Y-165063664D01*
X70653114Y-165063664D01*
X70413114Y-164733664D01*
G36*
X70653114Y-165063664D02*
G01*
X70173114Y-165063664D01*
X70413114Y-164733664D01*
X70653114Y-165063664D01*
G37*
G04 #@! TO.C,R491*
X65753641Y-112080000D02*
X65446359Y-112080000D01*
X65753641Y-112840000D02*
X65446359Y-112840000D01*
G04 #@! TO.C,C204*
X103957836Y-37730000D02*
X103742164Y-37730000D01*
X103957836Y-38450000D02*
X103742164Y-38450000D01*
G04 #@! TO.C,U404*
X69303114Y-146583664D02*
X69303114Y-146808664D01*
X69303114Y-150078664D02*
X69303114Y-150303664D01*
X69303114Y-150303664D02*
X70028114Y-150303664D01*
X70028114Y-146583664D02*
X69303114Y-146583664D01*
X71298114Y-150303664D02*
X72023114Y-150303664D01*
X72023114Y-146583664D02*
X71298114Y-146583664D01*
X72023114Y-146808664D02*
X72023114Y-146583664D01*
X72023114Y-150303664D02*
X72023114Y-150078664D01*
X70413114Y-150813664D02*
X70173114Y-151143664D01*
X70653114Y-151143664D01*
X70413114Y-150813664D01*
G36*
X70653114Y-151143664D02*
G01*
X70173114Y-151143664D01*
X70413114Y-150813664D01*
X70653114Y-151143664D01*
G37*
G04 #@! TO.C,R454*
X67723925Y-133459999D02*
X67416643Y-133459999D01*
X67723925Y-134219999D02*
X67416643Y-134219999D01*
G04 #@! TO.C,C102*
X149576378Y-37920580D02*
X149360706Y-37920580D01*
X149576378Y-38640580D02*
X149360706Y-38640580D01*
G04 #@! TO.C,C610*
X174815000Y-42377836D02*
X174815000Y-42162164D01*
X175535000Y-42377836D02*
X175535000Y-42162164D01*
G04 #@! TO.C,R434*
X67723925Y-145059999D02*
X67416643Y-145059999D01*
X67723925Y-145819999D02*
X67416643Y-145819999D01*
G04 #@! TO.C,R477*
X65753641Y-120040000D02*
X65446359Y-120040000D01*
X65753641Y-120800000D02*
X65446359Y-120800000D01*
G04 #@! TO.C,SW201*
X137560000Y-101150000D02*
X137560000Y-107350000D01*
X137560000Y-101150000D02*
X137660000Y-101150000D01*
X137660000Y-107350000D02*
X137560000Y-107350000D01*
X139160000Y-101150000D02*
X142160000Y-101150000D01*
X139160000Y-107350000D02*
X142160000Y-107350000D01*
X143760000Y-101150000D02*
X143660000Y-101150000D01*
X143760000Y-101150000D02*
X143760000Y-107350000D01*
X143760000Y-107350000D02*
X143660000Y-107350000D01*
G04 #@! TO.C,C622*
X183978470Y-123240000D02*
X184194142Y-123240000D01*
X183978470Y-123960000D02*
X184194142Y-123960000D01*
G04 #@! TO.C,R308*
X177747500Y-83796359D02*
X177747500Y-84103641D01*
X178507500Y-83796359D02*
X178507500Y-84103641D01*
G04 #@! TO.C,C608*
X178271693Y-40280810D02*
X178119190Y-40128307D01*
X178780810Y-39771693D02*
X178628307Y-39619190D01*
G04 #@! TO.C,C405*
X87640000Y-58864437D02*
X87640000Y-63320000D01*
X87640000Y-63320000D02*
X89340000Y-63320000D01*
X88402500Y-57247500D02*
X89027500Y-57247500D01*
X88704437Y-57800000D02*
X87640000Y-58864437D01*
X88704437Y-57800000D02*
X89340000Y-57800000D01*
X88715000Y-56935000D02*
X88715000Y-57560000D01*
X92095563Y-57800000D02*
X91460000Y-57800000D01*
X92095563Y-57800000D02*
X93160000Y-58864437D01*
X93160000Y-58864437D02*
X93160000Y-63320000D01*
X93160000Y-63320000D02*
X91460000Y-63320000D01*
G04 #@! TO.C,C109*
X155382070Y-46272744D02*
X155382070Y-46488416D01*
X156102070Y-46272744D02*
X156102070Y-46488416D01*
G04 #@! TO.C,R463*
X65753641Y-128320000D02*
X65446359Y-128320000D01*
X65753641Y-129080000D02*
X65446359Y-129080000D01*
G04 #@! TO.C,R489*
X65753641Y-23080000D02*
X65446359Y-23080000D01*
X65753641Y-23840000D02*
X65446359Y-23840000D01*
G04 #@! TO.C,R476*
X67723925Y-120859999D02*
X67416643Y-120859999D01*
X67723925Y-121619999D02*
X67416643Y-121619999D01*
G04 #@! TO.C,Q416*
X75867245Y-162137013D02*
X75867245Y-163607013D01*
X75867245Y-163607013D02*
X75892245Y-163607013D01*
X75892245Y-162137013D02*
X75867245Y-162137013D01*
X78062245Y-163607013D02*
X78087245Y-163607013D01*
X78087245Y-162137013D02*
X78062245Y-162137013D01*
X78087245Y-163607013D02*
X78087245Y-162137013D01*
X75887245Y-161692013D02*
X75697245Y-161552013D01*
X75697245Y-161832013D01*
X75887245Y-161692013D01*
G36*
X75887245Y-161692013D02*
G01*
X75697245Y-161832013D01*
X75697245Y-161552013D01*
X75887245Y-161692013D01*
G37*
G04 #@! TO.C,J101*
X130780000Y-130830000D02*
X130780000Y-128070000D01*
X135970000Y-128070000D02*
X130780000Y-128070000D01*
X135970000Y-130830000D02*
X130780000Y-130830000D01*
X135970000Y-130830000D02*
X135970000Y-128070000D01*
X137240000Y-130830000D02*
X138620000Y-130830000D01*
X138620000Y-130830000D02*
X138620000Y-129450000D01*
G04 #@! TO.C,R501*
X78873604Y-116942013D02*
X79180886Y-116942013D01*
X78873604Y-117702013D02*
X79180886Y-117702013D01*
G04 #@! TO.C,C402*
X135540000Y-58904437D02*
X135540000Y-63360000D01*
X135540000Y-63360000D02*
X137240000Y-63360000D01*
X136302500Y-57287500D02*
X136927500Y-57287500D01*
X136604437Y-57840000D02*
X135540000Y-58904437D01*
X136604437Y-57840000D02*
X137240000Y-57840000D01*
X136615000Y-56975000D02*
X136615000Y-57600000D01*
X139995563Y-57840000D02*
X139360000Y-57840000D01*
X139995563Y-57840000D02*
X141060000Y-58904437D01*
X141060000Y-58904437D02*
X141060000Y-63360000D01*
X141060000Y-63360000D02*
X139360000Y-63360000D01*
G04 #@! TO.C,Q302*
D11*
X170302500Y-75225000D02*
X170302500Y-74575000D01*
X170302500Y-75225000D02*
X170302500Y-75875000D01*
X173422500Y-75225000D02*
X173422500Y-74575000D01*
X173422500Y-75225000D02*
X173422500Y-75875000D01*
D10*
X170352500Y-74062500D02*
X170022500Y-73822500D01*
X170022500Y-74302500D01*
X170352500Y-74062500D01*
G36*
X170352500Y-74062500D02*
G01*
X170022500Y-74302500D01*
X170022500Y-73822500D01*
X170352500Y-74062500D01*
G37*
G04 #@! TO.C,C616*
X180251306Y-124947164D02*
X180251306Y-125162836D01*
X180971306Y-124947164D02*
X180971306Y-125162836D01*
G04 #@! TO.C,Q401*
X75867245Y-19637013D02*
X75867245Y-21107013D01*
X75867245Y-21107013D02*
X75892245Y-21107013D01*
X75892245Y-19637013D02*
X75867245Y-19637013D01*
X78062245Y-21107013D02*
X78087245Y-21107013D01*
X78087245Y-19637013D02*
X78062245Y-19637013D01*
X78087245Y-21107013D02*
X78087245Y-19637013D01*
X75887245Y-19192013D02*
X75697245Y-19052013D01*
X75697245Y-19332013D01*
X75887245Y-19192013D01*
G36*
X75887245Y-19192013D02*
G01*
X75697245Y-19332013D01*
X75697245Y-19052013D01*
X75887245Y-19192013D01*
G37*
G04 #@! TO.C,R516*
X79230886Y-53042013D02*
X78923604Y-53042013D01*
X79230886Y-53802013D02*
X78923604Y-53802013D01*
G04 #@! TO.C,Y602*
X105160000Y-22530000D02*
X108580000Y-22530000D01*
X108580000Y-22530000D02*
X108580000Y-26650000D01*
G04 #@! TO.C,R451*
X65753641Y-45280000D02*
X65446359Y-45280000D01*
X65753641Y-46040000D02*
X65446359Y-46040000D01*
G04 #@! TO.C,C204*
X103957836Y-127730000D02*
X103742164Y-127730000D01*
X103957836Y-128450000D02*
X103742164Y-128450000D01*
G04 #@! TO.C,R498*
X79230886Y-111542013D02*
X78923604Y-111542013D01*
X79230886Y-112302013D02*
X78923604Y-112302013D01*
G04 #@! TO.C,TP305*
X168175000Y-174275000D02*
G75*
G02*
X166275000Y-174275000I-950000J0D01*
G01*
X166275000Y-174275000D02*
G75*
G02*
X168175000Y-174275000I950000J0D01*
G01*
G04 #@! TO.C,R426*
X67723925Y-59699999D02*
X67416643Y-59699999D01*
X67723925Y-60459999D02*
X67416643Y-60459999D01*
G04 #@! TO.C,R497*
X79180886Y-109942013D02*
X78873604Y-109942013D01*
X79180886Y-110702013D02*
X78873604Y-110702013D01*
G04 #@! TO.C,R483*
X65753641Y-116720000D02*
X65446359Y-116720000D01*
X65753641Y-117480000D02*
X65446359Y-117480000D01*
G04 #@! TO.C,R481*
X65753641Y-27720000D02*
X65446359Y-27720000D01*
X65753641Y-28480000D02*
X65446359Y-28480000D01*
G04 #@! TO.C,R207*
X134916359Y-97350000D02*
X135223641Y-97350000D01*
X134916359Y-98110000D02*
X135223641Y-98110000D01*
G04 #@! TO.C,R106*
X149622183Y-129250580D02*
X149314901Y-129250580D01*
X149622183Y-130010580D02*
X149314901Y-130010580D01*
G04 #@! TO.C,Q409*
X75867245Y-47637013D02*
X75867245Y-49107013D01*
X75867245Y-49107013D02*
X75892245Y-49107013D01*
X75892245Y-47637013D02*
X75867245Y-47637013D01*
X78062245Y-49107013D02*
X78087245Y-49107013D01*
X78087245Y-47637013D02*
X78062245Y-47637013D01*
X78087245Y-49107013D02*
X78087245Y-47637013D01*
X75887245Y-47192013D02*
X75697245Y-47052013D01*
X75697245Y-47332013D01*
X75887245Y-47192013D01*
G36*
X75887245Y-47192013D02*
G01*
X75697245Y-47332013D01*
X75697245Y-47052013D01*
X75887245Y-47192013D01*
G37*
G04 #@! TO.C,TP205*
X102830000Y-45490000D02*
G75*
G02*
X100930000Y-45490000I-950000J0D01*
G01*
X100930000Y-45490000D02*
G75*
G02*
X102830000Y-45490000I950000J0D01*
G01*
G04 #@! TO.C,R472*
X67723925Y-123179999D02*
X67416643Y-123179999D01*
X67723925Y-123939999D02*
X67416643Y-123939999D01*
G04 #@! TO.C,C601*
X177590000Y-41707836D02*
X177590000Y-41492164D01*
X178310000Y-41707836D02*
X178310000Y-41492164D01*
G04 #@! TO.C,TP305*
X168175000Y-84275000D02*
G75*
G02*
X166275000Y-84275000I-950000J0D01*
G01*
X166275000Y-84275000D02*
G75*
G02*
X168175000Y-84275000I950000J0D01*
G01*
G04 #@! TO.C,TP302*
X186750000Y-175300000D02*
G75*
G02*
X184850000Y-175300000I-950000J0D01*
G01*
X184850000Y-175300000D02*
G75*
G02*
X186750000Y-175300000I950000J0D01*
G01*
G04 #@! TO.C,R405*
X65753641Y-71800000D02*
X65446359Y-71800000D01*
X65753641Y-72560000D02*
X65446359Y-72560000D01*
G04 #@! TO.C,C613*
X184907446Y-46942164D02*
X184907446Y-47157836D01*
X185627446Y-46942164D02*
X185627446Y-47157836D01*
G04 #@! TD*
M02*
