G04 #@! TF.GenerationSoftware,KiCad,Pcbnew,10.0.3-2.fc44*
G04 #@! TF.CreationDate,2026-08-18T12:23:16+02:00*
G04 #@! TF.ProjectId,panel,70616e65-6c2e-46b6-9963-61645f706362,rev?*
G04 #@! TF.SameCoordinates,Original*
G04 #@! TF.FileFunction,Paste,Bot*
G04 #@! TF.FilePolarity,Positive*
%FSLAX46Y46*%
G04 Gerber Fmt 4.6, Leading zero omitted, Abs format (unit mm)*
G04 Created by KiCad (PCBNEW 10.0.3-2.fc44) date 2026-08-18 12:23:16*
%MOMM*%
%LPD*%
G01*
G04 APERTURE LIST*
G04 Aperture macros list*
%AMRoundRect*
0 Rectangle with rounded corners*
0 $1 Rounding radius*
0 $2 $3 $4 $5 $6 $7 $8 $9 X,Y pos of 4 corners*
0 Add a 4 corners polygon primitive as box body*
4,1,4,$2,$3,$4,$5,$6,$7,$8,$9,$2,$3,0*
0 Add four circle primitives for the rounded corners*
1,1,$1+$1,$2,$3*
1,1,$1+$1,$4,$5*
1,1,$1+$1,$6,$7*
1,1,$1+$1,$8,$9*
0 Add four rect primitives between the rounded corners*
20,1,$1+$1,$2,$3,$4,$5,0*
20,1,$1+$1,$4,$5,$6,$7,0*
20,1,$1+$1,$6,$7,$8,$9,0*
20,1,$1+$1,$8,$9,$2,$3,0*%
%AMFreePoly0*
4,1,9,3.862500,-0.866500,0.737500,-0.866500,0.737500,-0.450000,-0.737500,-0.450000,-0.737500,0.450000,0.737500,0.450000,0.737500,0.866500,3.862500,0.866500,3.862500,-0.866500,3.862500,-0.866500,$1*%
G04 Aperture macros list end*
%ADD10RoundRect,0.140000X0.140000X0.170000X-0.140000X0.170000X-0.140000X-0.170000X0.140000X-0.170000X0*%
%ADD11RoundRect,0.135000X0.135000X0.185000X-0.135000X0.185000X-0.135000X-0.185000X0.135000X-0.185000X0*%
%ADD12RoundRect,0.140000X0.170000X-0.140000X0.170000X0.140000X-0.170000X0.140000X-0.170000X-0.140000X0*%
%ADD13RoundRect,0.140000X-0.140000X-0.170000X0.140000X-0.170000X0.140000X0.170000X-0.140000X0.170000X0*%
%ADD14RoundRect,0.140000X-0.170000X0.140000X-0.170000X-0.140000X0.170000X-0.140000X0.170000X0.140000X0*%
%ADD15RoundRect,0.135000X-0.135000X-0.185000X0.135000X-0.185000X0.135000X0.185000X-0.135000X0.185000X0*%
%ADD16RoundRect,0.152500X0.152500X0.152500X-0.152500X0.152500X-0.152500X-0.152500X0.152500X-0.152500X0*%
%ADD17RoundRect,0.062500X0.325000X0.062500X-0.325000X0.062500X-0.325000X-0.062500X0.325000X-0.062500X0*%
%ADD18RoundRect,0.062500X0.062500X0.325000X-0.062500X0.325000X-0.062500X-0.325000X0.062500X-0.325000X0*%
%ADD19RoundRect,0.172500X0.172500X0.172500X-0.172500X0.172500X-0.172500X-0.172500X0.172500X-0.172500X0*%
%ADD20RoundRect,0.062500X0.350000X0.062500X-0.350000X0.062500X-0.350000X-0.062500X0.350000X-0.062500X0*%
%ADD21RoundRect,0.062500X0.062500X0.350000X-0.062500X0.350000X-0.062500X-0.350000X0.062500X-0.350000X0*%
%ADD22RoundRect,0.250000X-0.550000X0.250000X-0.550000X-0.250000X0.550000X-0.250000X0.550000X0.250000X0*%
%ADD23RoundRect,0.087500X-0.087500X0.425000X-0.087500X-0.425000X0.087500X-0.425000X0.087500X0.425000X0*%
%ADD24RoundRect,0.140000X0.021213X-0.219203X0.219203X-0.021213X-0.021213X0.219203X-0.219203X0.021213X0*%
%ADD25RoundRect,0.202500X-0.202500X-0.202500X0.202500X-0.202500X0.202500X0.202500X-0.202500X0.202500X0*%
%ADD26RoundRect,0.062500X-0.062500X-0.350000X0.062500X-0.350000X0.062500X0.350000X-0.062500X0.350000X0*%
%ADD27RoundRect,0.062500X-0.350000X-0.062500X0.350000X-0.062500X0.350000X0.062500X-0.350000X0.062500X0*%
%ADD28RoundRect,0.135000X0.185000X-0.135000X0.185000X0.135000X-0.185000X0.135000X-0.185000X-0.135000X0*%
%ADD29RoundRect,0.218750X0.424264X0.114905X0.114905X0.424264X-0.424264X-0.114905X-0.114905X-0.424264X0*%
%ADD30R,1.400000X0.300000*%
%ADD31R,1.400000X0.500000*%
%ADD32RoundRect,0.500000X-1.000000X2.000000X-1.000000X-2.000000X1.000000X-2.000000X1.000000X2.000000X0*%
%ADD33RoundRect,0.250000X-0.550000X1.250000X-0.550000X-1.250000X0.550000X-1.250000X0.550000X1.250000X0*%
%ADD34RoundRect,0.030000X-0.070000X0.070000X-0.070000X-0.070000X0.070000X-0.070000X0.070000X0.070000X0*%
%ADD35RoundRect,0.172500X-0.172500X-0.172500X0.172500X-0.172500X0.172500X0.172500X-0.172500X0.172500X0*%
%ADD36RoundRect,0.135000X-0.185000X0.135000X-0.185000X-0.135000X0.185000X-0.135000X0.185000X0.135000X0*%
%ADD37RoundRect,0.030000X0.070000X0.070000X-0.070000X0.070000X-0.070000X-0.070000X0.070000X-0.070000X0*%
%ADD38RoundRect,0.147500X-0.147500X-0.172500X0.147500X-0.172500X0.147500X0.172500X-0.147500X0.172500X0*%
%ADD39RoundRect,0.250000X-0.480000X-0.480000X0.480000X-0.480000X0.480000X0.480000X-0.480000X0.480000X0*%
%ADD40RoundRect,0.062500X-0.337500X-0.062500X0.337500X-0.062500X0.337500X0.062500X-0.337500X0.062500X0*%
%ADD41RoundRect,0.062500X-0.062500X-0.337500X0.062500X-0.337500X0.062500X0.337500X-0.062500X0.337500X0*%
%ADD42RoundRect,0.132500X-0.132500X0.132500X-0.132500X-0.132500X0.132500X-0.132500X0.132500X0.132500X0*%
%ADD43RoundRect,0.050000X-0.050000X0.350000X-0.050000X-0.350000X0.050000X-0.350000X0.050000X0.350000X0*%
%ADD44RoundRect,0.050000X-0.350000X0.050000X-0.350000X-0.050000X0.350000X-0.050000X0.350000X0.050000X0*%
%ADD45RoundRect,0.270000X0.630000X0.630000X-0.630000X0.630000X-0.630000X-0.630000X0.630000X-0.630000X0*%
%ADD46RoundRect,0.250000X2.400000X3.500000X-2.400000X3.500000X-2.400000X-3.500000X2.400000X-3.500000X0*%
%ADD47RoundRect,0.250000X0.550000X-0.300000X0.550000X0.300000X-0.550000X0.300000X-0.550000X-0.300000X0*%
%ADD48RoundRect,0.250000X-0.450000X0.800000X-0.450000X-0.800000X0.450000X-0.800000X0.450000X0.800000X0*%
%ADD49RoundRect,0.242500X-0.242500X-0.457500X0.242500X-0.457500X0.242500X0.457500X-0.242500X0.457500X0*%
%ADD50RoundRect,0.250000X-0.350000X0.450000X-0.350000X-0.450000X0.350000X-0.450000X0.350000X0.450000X0*%
%ADD51RoundRect,0.250000X0.310000X-0.970000X0.310000X0.970000X-0.310000X0.970000X-0.310000X-0.970000X0*%
%ADD52RoundRect,0.250000X0.450000X-0.800000X0.450000X0.800000X-0.450000X0.800000X-0.450000X-0.800000X0*%
%ADD53RoundRect,0.140000X0.219203X0.021213X0.021213X0.219203X-0.219203X-0.021213X-0.021213X-0.219203X0*%
%ADD54RoundRect,0.087500X0.425000X0.087500X-0.425000X0.087500X-0.425000X-0.087500X0.425000X-0.087500X0*%
%ADD55RoundRect,0.132500X0.132500X-0.132500X0.132500X0.132500X-0.132500X0.132500X-0.132500X-0.132500X0*%
%ADD56RoundRect,0.050000X0.050000X-0.350000X0.050000X0.350000X-0.050000X0.350000X-0.050000X-0.350000X0*%
%ADD57RoundRect,0.050000X0.350000X-0.050000X0.350000X0.050000X-0.350000X0.050000X-0.350000X-0.050000X0*%
%ADD58RoundRect,0.030000X-0.070000X-0.070000X0.070000X-0.070000X0.070000X0.070000X-0.070000X0.070000X0*%
%ADD59RoundRect,0.250000X0.350000X-0.450000X0.350000X0.450000X-0.350000X0.450000X-0.350000X-0.450000X0*%
%ADD60R,0.300000X1.400000*%
%ADD61R,0.500000X1.400000*%
%ADD62RoundRect,0.500000X-2.000000X-1.000000X2.000000X-1.000000X2.000000X1.000000X-2.000000X1.000000X0*%
%ADD63RoundRect,0.172500X0.172500X-0.172500X0.172500X0.172500X-0.172500X0.172500X-0.172500X-0.172500X0*%
%ADD64RoundRect,0.062500X0.062500X-0.350000X0.062500X0.350000X-0.062500X0.350000X-0.062500X-0.350000X0*%
%ADD65RoundRect,0.062500X0.350000X-0.062500X0.350000X0.062500X-0.350000X0.062500X-0.350000X-0.062500X0*%
%ADD66RoundRect,0.225000X0.225000X0.250000X-0.225000X0.250000X-0.225000X-0.250000X0.225000X-0.250000X0*%
%ADD67RoundRect,0.250000X0.550000X-0.250000X0.550000X0.250000X-0.550000X0.250000X-0.550000X-0.250000X0*%
%ADD68RoundRect,0.150000X-0.150000X0.590000X-0.150000X-0.590000X0.150000X-0.590000X0.150000X0.590000X0*%
%ADD69RoundRect,0.147500X0.172500X-0.147500X0.172500X0.147500X-0.172500X0.147500X-0.172500X-0.147500X0*%
%ADD70RoundRect,0.218750X-0.256250X0.218750X-0.256250X-0.218750X0.256250X-0.218750X0.256250X0.218750X0*%
%ADD71RoundRect,0.225000X-0.225000X0.425000X-0.225000X-0.425000X0.225000X-0.425000X0.225000X0.425000X0*%
%ADD72FreePoly0,270.000000*%
%ADD73RoundRect,0.100000X2.100000X-0.900000X2.100000X0.900000X-2.100000X0.900000X-2.100000X-0.900000X0*%
%ADD74RoundRect,0.218750X0.114905X-0.424264X0.424264X-0.114905X-0.114905X0.424264X-0.424264X0.114905X0*%
G04 APERTURE END LIST*
D10*
G04 #@! TO.C,C629*
X118670000Y-24520000D03*
X117710000Y-24520000D03*
G04 #@! TD*
D11*
G04 #@! TO.C,R458*
X68080284Y-131519999D03*
X67060284Y-131519999D03*
G04 #@! TD*
G04 #@! TO.C,R511*
X79537245Y-44822013D03*
X78517245Y-44822013D03*
G04 #@! TD*
G04 #@! TO.C,R471*
X66110000Y-124060000D03*
X65090000Y-124060000D03*
G04 #@! TD*
D12*
G04 #@! TO.C,C205*
X108776472Y-122990000D03*
X108776472Y-122030000D03*
G04 #@! TD*
D13*
G04 #@! TO.C,C628*
X117170000Y-115560000D03*
X118130000Y-115560000D03*
G04 #@! TD*
D11*
G04 #@! TO.C,R418*
X68080284Y-64719999D03*
X67060284Y-64719999D03*
G04 #@! TD*
G04 #@! TO.C,R506*
X79587245Y-35922013D03*
X78567245Y-35922013D03*
G04 #@! TD*
D10*
G04 #@! TO.C,C210*
X104355000Y-126865000D03*
X103395000Y-126865000D03*
G04 #@! TD*
D14*
G04 #@! TO.C,C203*
X110475000Y-135530000D03*
X110475000Y-136490000D03*
G04 #@! TD*
D10*
G04 #@! TO.C,C602*
X178080000Y-43000000D03*
X177120000Y-43000000D03*
G04 #@! TD*
D14*
G04 #@! TO.C,C302*
X173187500Y-167870000D03*
X173187500Y-168830000D03*
G04 #@! TD*
G04 #@! TO.C,C303*
X175737500Y-167870000D03*
X175737500Y-168830000D03*
G04 #@! TD*
G04 #@! TO.C,C215*
X104825000Y-41751779D03*
X104825000Y-42711779D03*
G04 #@! TD*
D10*
G04 #@! TO.C,C617*
X180591306Y-126525000D03*
X179631306Y-126525000D03*
G04 #@! TD*
D11*
G04 #@! TO.C,R449*
X66110000Y-46660000D03*
X65090000Y-46660000D03*
G04 #@! TD*
G04 #@! TO.C,R423*
X66110000Y-151900000D03*
X65090000Y-151900000D03*
G04 #@! TD*
D15*
G04 #@! TO.C,R204*
X118740000Y-129340000D03*
X119760000Y-129340000D03*
G04 #@! TD*
D11*
G04 #@! TO.C,R519*
X79537245Y-58822013D03*
X78517245Y-58822013D03*
G04 #@! TD*
D16*
G04 #@! TO.C,U301*
X180670000Y-170870000D03*
X180670000Y-170050000D03*
X180670000Y-169230000D03*
X179850000Y-170870000D03*
X179850000Y-170050000D03*
X179850000Y-169230000D03*
X179030000Y-170870000D03*
X179030000Y-170050000D03*
X179030000Y-169230000D03*
D17*
X181837500Y-168800000D03*
X181837500Y-169300000D03*
X181837500Y-169800000D03*
X181837500Y-170300000D03*
X181837500Y-170800000D03*
X181837500Y-171300000D03*
D18*
X181100000Y-172037500D03*
X180600000Y-172037500D03*
X180100000Y-172037500D03*
X179600000Y-172037500D03*
X179100000Y-172037500D03*
X178600000Y-172037500D03*
D17*
X177862500Y-171300000D03*
X177862500Y-170800000D03*
X177862500Y-170300000D03*
X177862500Y-169800000D03*
X177862500Y-169300000D03*
X177862500Y-168800000D03*
D18*
X178600000Y-168062500D03*
X179100000Y-168062500D03*
X179600000Y-168062500D03*
X180100000Y-168062500D03*
X180600000Y-168062500D03*
X181100000Y-168062500D03*
G04 #@! TD*
D11*
G04 #@! TO.C,R490*
X68080284Y-22959999D03*
X67060284Y-22959999D03*
G04 #@! TD*
D10*
G04 #@! TO.C,C212*
X106156472Y-45790000D03*
X105196472Y-45790000D03*
G04 #@! TD*
D11*
G04 #@! TO.C,R521*
X79537245Y-152322013D03*
X78517245Y-152322013D03*
G04 #@! TD*
D19*
G04 #@! TO.C,U414*
X83602245Y-47347013D03*
X83602245Y-46497013D03*
X82752245Y-47347013D03*
X82752245Y-46497013D03*
D20*
X84639745Y-46172013D03*
X84639745Y-46672013D03*
X84639745Y-47172013D03*
X84639745Y-47672013D03*
D21*
X83927245Y-48384513D03*
X83427245Y-48384513D03*
X82927245Y-48384513D03*
X82427245Y-48384513D03*
D20*
X81714745Y-47672013D03*
X81714745Y-47172013D03*
X81714745Y-46672013D03*
X81714745Y-46172013D03*
D21*
X82427245Y-45459513D03*
X82927245Y-45459513D03*
X83427245Y-45459513D03*
X83927245Y-45459513D03*
G04 #@! TD*
D11*
G04 #@! TO.C,R435*
X66110000Y-54940000D03*
X65090000Y-54940000D03*
G04 #@! TD*
G04 #@! TO.C,R423*
X66110000Y-61900000D03*
X65090000Y-61900000D03*
G04 #@! TD*
G04 #@! TO.C,R415*
X66110000Y-156540000D03*
X65090000Y-156540000D03*
G04 #@! TD*
D12*
G04 #@! TO.C,C115*
X163893542Y-127218801D03*
X163893542Y-126258801D03*
G04 #@! TD*
D14*
G04 #@! TO.C,C616*
X180611306Y-34575000D03*
X180611306Y-35535000D03*
G04 #@! TD*
D13*
G04 #@! TO.C,C112*
X162638542Y-122880580D03*
X163598542Y-122880580D03*
G04 #@! TD*
D11*
G04 #@! TO.C,R450*
X68080284Y-136159999D03*
X67060284Y-136159999D03*
G04 #@! TD*
G04 #@! TO.C,R457*
X66110000Y-132020000D03*
X65090000Y-132020000D03*
G04 #@! TD*
D22*
G04 #@! TO.C,L101*
X166468542Y-127580580D03*
X166468542Y-125580580D03*
G04 #@! TD*
D10*
G04 #@! TO.C,C602*
X178080000Y-133000000D03*
X177120000Y-133000000D03*
G04 #@! TD*
D11*
G04 #@! TO.C,R493*
X66110000Y-21140000D03*
X65090000Y-21140000D03*
G04 #@! TD*
D23*
G04 #@! TO.C,Q415*
X76327245Y-68534513D03*
X76977245Y-68534513D03*
X77627245Y-68534513D03*
X77627245Y-70209513D03*
X76977245Y-70209513D03*
X76327245Y-70209513D03*
G04 #@! TD*
D11*
G04 #@! TO.C,R508*
X79587245Y-39422013D03*
X78567245Y-39422013D03*
G04 #@! TD*
G04 #@! TO.C,R473*
X66110000Y-32740000D03*
X65090000Y-32740000D03*
G04 #@! TD*
G04 #@! TO.C,R404*
X68080284Y-72999999D03*
X67060284Y-72999999D03*
G04 #@! TD*
G04 #@! TO.C,R515*
X79537245Y-141822013D03*
X78517245Y-141822013D03*
G04 #@! TD*
D12*
G04 #@! TO.C,C111*
X157243542Y-123440580D03*
X157243542Y-122480580D03*
G04 #@! TD*
D11*
G04 #@! TO.C,R412*
X68080284Y-158359999D03*
X67060284Y-158359999D03*
G04 #@! TD*
G04 #@! TO.C,R444*
X68080284Y-139799999D03*
X67060284Y-139799999D03*
G04 #@! TD*
G04 #@! TO.C,R424*
X68080284Y-151399999D03*
X67060284Y-151399999D03*
G04 #@! TD*
G04 #@! TO.C,R451*
X66110000Y-135660000D03*
X65090000Y-135660000D03*
G04 #@! TD*
D14*
G04 #@! TO.C,C604*
X177992446Y-45570000D03*
X177992446Y-46530000D03*
G04 #@! TD*
D11*
G04 #@! TO.C,R518*
X79587245Y-146922013D03*
X78567245Y-146922013D03*
G04 #@! TD*
D24*
G04 #@! TO.C,C605*
X185460589Y-131239411D03*
X186139411Y-130560589D03*
G04 #@! TD*
D23*
G04 #@! TO.C,Q411*
X76327245Y-54534513D03*
X76977245Y-54534513D03*
X77627245Y-54534513D03*
X77627245Y-56209513D03*
X76977245Y-56209513D03*
X76327245Y-56209513D03*
G04 #@! TD*
D11*
G04 #@! TO.C,R466*
X68080284Y-36879999D03*
X67060284Y-36879999D03*
G04 #@! TD*
D14*
G04 #@! TO.C,C609*
X179275000Y-137170000D03*
X179275000Y-138130000D03*
G04 #@! TD*
D11*
G04 #@! TO.C,R481*
X66110000Y-118100000D03*
X65090000Y-118100000D03*
G04 #@! TD*
D25*
G04 #@! TO.C,U403*
X70663114Y-152583664D03*
X70663114Y-153583664D03*
D26*
X70413114Y-154771164D03*
D27*
X69475614Y-154333664D03*
X69475614Y-153833664D03*
X69475614Y-153333664D03*
X69475614Y-152833664D03*
X69475614Y-152333664D03*
X69475614Y-151833664D03*
D26*
X70413114Y-151396164D03*
X70913114Y-151396164D03*
D27*
X71850614Y-151833664D03*
X71850614Y-152333664D03*
X71850614Y-152833664D03*
X71850614Y-153333664D03*
X71850614Y-153833664D03*
X71850614Y-154333664D03*
D26*
X70913114Y-154771164D03*
G04 #@! TD*
D14*
G04 #@! TO.C,C208*
X115425000Y-45410000D03*
X115425000Y-46370000D03*
G04 #@! TD*
D11*
G04 #@! TO.C,R510*
X79587245Y-132922013D03*
X78567245Y-132922013D03*
G04 #@! TD*
D15*
G04 #@! TO.C,R204*
X118740000Y-39340000D03*
X119760000Y-39340000D03*
G04 #@! TD*
D13*
G04 #@! TO.C,C622*
X183606306Y-33600000D03*
X184566306Y-33600000D03*
G04 #@! TD*
D19*
G04 #@! TO.C,U415*
X82602245Y-130897013D03*
X82602245Y-130047013D03*
X81752245Y-130897013D03*
X81752245Y-130047013D03*
D20*
X83639745Y-129722013D03*
X83639745Y-130222013D03*
X83639745Y-130722013D03*
X83639745Y-131222013D03*
D21*
X82927245Y-131934513D03*
X82427245Y-131934513D03*
X81927245Y-131934513D03*
X81427245Y-131934513D03*
D20*
X80714745Y-131222013D03*
X80714745Y-130722013D03*
X80714745Y-130222013D03*
X80714745Y-129722013D03*
D21*
X81427245Y-129009513D03*
X81927245Y-129009513D03*
X82427245Y-129009513D03*
X82927245Y-129009513D03*
G04 #@! TD*
D11*
G04 #@! TO.C,R452*
X68080284Y-135159999D03*
X67060284Y-135159999D03*
G04 #@! TD*
D14*
G04 #@! TO.C,C301*
X183030000Y-169315000D03*
X183030000Y-170275000D03*
G04 #@! TD*
D11*
G04 #@! TO.C,R519*
X79537245Y-148822013D03*
X78517245Y-148822013D03*
G04 #@! TD*
G04 #@! TO.C,R514*
X79587245Y-139922013D03*
X78567245Y-139922013D03*
G04 #@! TD*
D19*
G04 #@! TO.C,U413*
X82602245Y-26897013D03*
X82602245Y-26047013D03*
X81752245Y-26897013D03*
X81752245Y-26047013D03*
D20*
X83639745Y-25722013D03*
X83639745Y-26222013D03*
X83639745Y-26722013D03*
X83639745Y-27222013D03*
D21*
X82927245Y-27934513D03*
X82427245Y-27934513D03*
X81927245Y-27934513D03*
X81427245Y-27934513D03*
D20*
X80714745Y-27222013D03*
X80714745Y-26722013D03*
X80714745Y-26222013D03*
X80714745Y-25722013D03*
D21*
X81427245Y-25009513D03*
X81927245Y-25009513D03*
X82427245Y-25009513D03*
X82927245Y-25009513D03*
G04 #@! TD*
D23*
G04 #@! TO.C,Q413*
X76327245Y-61534513D03*
X76977245Y-61534513D03*
X77627245Y-61534513D03*
X77627245Y-63209513D03*
X76977245Y-63209513D03*
X76327245Y-63209513D03*
G04 #@! TD*
D11*
G04 #@! TO.C,R420*
X68080284Y-153719999D03*
X67060284Y-153719999D03*
G04 #@! TD*
D14*
G04 #@! TO.C,C614*
X184292446Y-137520000D03*
X184292446Y-138480000D03*
G04 #@! TD*
D28*
G04 #@! TO.C,R205*
X114376472Y-123100000D03*
X114376472Y-122080000D03*
G04 #@! TD*
D12*
G04 #@! TO.C,C201*
X110650000Y-33070000D03*
X110650000Y-32110000D03*
G04 #@! TD*
D29*
G04 #@! TO.C,L601*
X181488908Y-39650000D03*
X179986306Y-38147398D03*
G04 #@! TD*
D25*
G04 #@! TO.C,U410*
X70663114Y-120103664D03*
X70663114Y-121103664D03*
D26*
X70413114Y-122291164D03*
D27*
X69475614Y-121853664D03*
X69475614Y-121353664D03*
X69475614Y-120853664D03*
X69475614Y-120353664D03*
X69475614Y-119853664D03*
X69475614Y-119353664D03*
D26*
X70413114Y-118916164D03*
X70913114Y-118916164D03*
D27*
X71850614Y-119353664D03*
X71850614Y-119853664D03*
X71850614Y-120353664D03*
X71850614Y-120853664D03*
X71850614Y-121353664D03*
X71850614Y-121853664D03*
D26*
X70913114Y-122291164D03*
G04 #@! TD*
D11*
G04 #@! TO.C,R520*
X79587245Y-60422013D03*
X78567245Y-60422013D03*
G04 #@! TD*
G04 #@! TO.C,R477*
X66110000Y-30420000D03*
X65090000Y-30420000D03*
G04 #@! TD*
D30*
G04 #@! TO.C,J301*
X189220000Y-79955000D03*
X189220000Y-80955000D03*
X189220000Y-81455000D03*
X189220000Y-82455000D03*
D31*
X189220000Y-83605000D03*
X189220000Y-84405000D03*
D30*
X189220000Y-82955000D03*
X189220000Y-81955000D03*
X189220000Y-80455000D03*
X189220000Y-79455000D03*
D31*
X189220000Y-78805000D03*
X189220000Y-78005000D03*
D32*
X193720000Y-81205000D03*
G04 #@! TD*
D12*
G04 #@! TO.C,C114*
X163768542Y-35060580D03*
X163768542Y-34100580D03*
G04 #@! TD*
D14*
G04 #@! TO.C,C216*
X103900000Y-131746779D03*
X103900000Y-132706779D03*
G04 #@! TD*
D15*
G04 #@! TO.C,R203*
X103340000Y-130140000D03*
X104360000Y-130140000D03*
G04 #@! TD*
D14*
G04 #@! TO.C,C107*
X151618542Y-132900580D03*
X151618542Y-133860580D03*
G04 #@! TD*
D11*
G04 #@! TO.C,R425*
X66110000Y-150580000D03*
X65090000Y-150580000D03*
G04 #@! TD*
G04 #@! TO.C,R507*
X79537245Y-37822013D03*
X78517245Y-37822013D03*
G04 #@! TD*
D23*
G04 #@! TO.C,Q405*
X76327245Y-123534513D03*
X76977245Y-123534513D03*
X77627245Y-123534513D03*
X77627245Y-125209513D03*
X76977245Y-125209513D03*
X76327245Y-125209513D03*
G04 #@! TD*
D10*
G04 #@! TO.C,C106*
X149923542Y-130755580D03*
X148963542Y-130755580D03*
G04 #@! TD*
D11*
G04 #@! TO.C,R459*
X66110000Y-41020000D03*
X65090000Y-41020000D03*
G04 #@! TD*
D13*
G04 #@! TO.C,C618*
X180581306Y-123600000D03*
X181541306Y-123600000D03*
G04 #@! TD*
D15*
G04 #@! TO.C,R525*
X78517245Y-159322013D03*
X79537245Y-159322013D03*
G04 #@! TD*
D11*
G04 #@! TO.C,R417*
X66110000Y-65220000D03*
X65090000Y-65220000D03*
G04 #@! TD*
G04 #@! TO.C,R512*
X79587245Y-136422013D03*
X78567245Y-136422013D03*
G04 #@! TD*
G04 #@! TO.C,R502*
X79587245Y-28922013D03*
X78567245Y-28922013D03*
G04 #@! TD*
G04 #@! TO.C,R479*
X66110000Y-29420000D03*
X65090000Y-29420000D03*
G04 #@! TD*
G04 #@! TO.C,R446*
X68080284Y-48479999D03*
X67060284Y-48479999D03*
G04 #@! TD*
D23*
G04 #@! TO.C,Q406*
X76327245Y-127034513D03*
X76977245Y-127034513D03*
X77627245Y-127034513D03*
X77627245Y-128709513D03*
X76977245Y-128709513D03*
X76327245Y-128709513D03*
G04 #@! TD*
D11*
G04 #@! TO.C,R468*
X68080284Y-125879999D03*
X67060284Y-125879999D03*
G04 #@! TD*
G04 #@! TO.C,R449*
X66110000Y-136660000D03*
X65090000Y-136660000D03*
G04 #@! TD*
G04 #@! TO.C,R406*
X68080284Y-71679999D03*
X67060284Y-71679999D03*
G04 #@! TD*
D12*
G04 #@! TO.C,C217*
X121350000Y-38370000D03*
X121350000Y-37410000D03*
G04 #@! TD*
D11*
G04 #@! TO.C,R439*
X66110000Y-52620000D03*
X65090000Y-52620000D03*
G04 #@! TD*
G04 #@! TO.C,R433*
X66110000Y-55940000D03*
X65090000Y-55940000D03*
G04 #@! TD*
G04 #@! TO.C,R484*
X68080284Y-26599999D03*
X67060284Y-26599999D03*
G04 #@! TD*
G04 #@! TO.C,R479*
X66110000Y-119420000D03*
X65090000Y-119420000D03*
G04 #@! TD*
G04 #@! TO.C,R470*
X68080284Y-124559999D03*
X67060284Y-124559999D03*
G04 #@! TD*
D15*
G04 #@! TO.C,R509*
X78517245Y-131322013D03*
X79537245Y-131322013D03*
G04 #@! TD*
D10*
G04 #@! TO.C,C308*
X176505000Y-80575000D03*
X175545000Y-80575000D03*
G04 #@! TD*
D11*
G04 #@! TO.C,R461*
X66110000Y-129700000D03*
X65090000Y-129700000D03*
G04 #@! TD*
G04 #@! TO.C,R507*
X79537245Y-127822013D03*
X78517245Y-127822013D03*
G04 #@! TD*
D14*
G04 #@! TO.C,C105*
X159942070Y-135980580D03*
X159942070Y-136940580D03*
G04 #@! TD*
G04 #@! TO.C,C109*
X155742070Y-135900580D03*
X155742070Y-136860580D03*
G04 #@! TD*
D11*
G04 #@! TO.C,R499*
X79537245Y-23822013D03*
X78517245Y-23822013D03*
G04 #@! TD*
D33*
G04 #@! TO.C,C402*
X138300000Y-148400000D03*
X138300000Y-152800000D03*
G04 #@! TD*
G04 #@! TO.C,C407*
X102400000Y-58360000D03*
X102400000Y-62760000D03*
G04 #@! TD*
D11*
G04 #@! TO.C,R487*
X66110000Y-114780000D03*
X65090000Y-114780000D03*
G04 #@! TD*
D28*
G04 #@! TO.C,R201*
X103776472Y-45000000D03*
X103776472Y-43980000D03*
G04 #@! TD*
D11*
G04 #@! TO.C,R455*
X66110000Y-43340000D03*
X65090000Y-43340000D03*
G04 #@! TD*
G04 #@! TO.C,R466*
X68080284Y-126879999D03*
X67060284Y-126879999D03*
G04 #@! TD*
G04 #@! TO.C,R511*
X79537245Y-134822013D03*
X78517245Y-134822013D03*
G04 #@! TD*
G04 #@! TO.C,R495*
X66110000Y-20140000D03*
X65090000Y-20140000D03*
G04 #@! TD*
G04 #@! TO.C,R514*
X79587245Y-49922013D03*
X78567245Y-49922013D03*
G04 #@! TD*
G04 #@! TO.C,R433*
X66110000Y-145940000D03*
X65090000Y-145940000D03*
G04 #@! TD*
D23*
G04 #@! TO.C,Q405*
X76327245Y-33534513D03*
X76977245Y-33534513D03*
X77627245Y-33534513D03*
X77627245Y-35209513D03*
X76977245Y-35209513D03*
X76327245Y-35209513D03*
G04 #@! TD*
D11*
G04 #@! TO.C,R432*
X68080284Y-56759999D03*
X67060284Y-56759999D03*
G04 #@! TD*
D23*
G04 #@! TO.C,Q413*
X76327245Y-151534513D03*
X76977245Y-151534513D03*
X77627245Y-151534513D03*
X77627245Y-153209513D03*
X76977245Y-153209513D03*
X76327245Y-153209513D03*
G04 #@! TD*
D14*
G04 #@! TO.C,C117*
X147368542Y-40600580D03*
X147368542Y-41560580D03*
G04 #@! TD*
D11*
G04 #@! TO.C,R438*
X68080284Y-53119999D03*
X67060284Y-53119999D03*
G04 #@! TD*
D14*
G04 #@! TO.C,C614*
X184292446Y-47520000D03*
X184292446Y-48480000D03*
G04 #@! TD*
D10*
G04 #@! TO.C,C603*
X178080000Y-44600000D03*
X177120000Y-44600000D03*
G04 #@! TD*
D14*
G04 #@! TO.C,C609*
X179275000Y-47170000D03*
X179275000Y-48130000D03*
G04 #@! TD*
D34*
G04 #@! TO.C,VCC602*
X182786306Y-33375000D03*
X182386306Y-33375000D03*
X182386306Y-33775000D03*
X182786306Y-33775000D03*
G04 #@! TD*
D33*
G04 #@! TO.C,C403*
X126400000Y-58400000D03*
X126400000Y-62800000D03*
G04 #@! TD*
D12*
G04 #@! TO.C,C116*
X164818542Y-37223801D03*
X164818542Y-36263801D03*
G04 #@! TD*
D35*
G04 #@! TO.C,U418*
X88789745Y-51497013D03*
X88789745Y-52347013D03*
X89639745Y-51497013D03*
X89639745Y-52347013D03*
D27*
X87752245Y-52672013D03*
X87752245Y-52172013D03*
X87752245Y-51672013D03*
X87752245Y-51172013D03*
D26*
X88464745Y-50459513D03*
X88964745Y-50459513D03*
X89464745Y-50459513D03*
X89964745Y-50459513D03*
D27*
X90677245Y-51172013D03*
X90677245Y-51672013D03*
X90677245Y-52172013D03*
X90677245Y-52672013D03*
D26*
X89964745Y-53384513D03*
X89464745Y-53384513D03*
X88964745Y-53384513D03*
X88464745Y-53384513D03*
G04 #@! TD*
D19*
G04 #@! TO.C,U415*
X82602245Y-40897013D03*
X82602245Y-40047013D03*
X81752245Y-40897013D03*
X81752245Y-40047013D03*
D20*
X83639745Y-39722013D03*
X83639745Y-40222013D03*
X83639745Y-40722013D03*
X83639745Y-41222013D03*
D21*
X82927245Y-41934513D03*
X82427245Y-41934513D03*
X81927245Y-41934513D03*
X81427245Y-41934513D03*
D20*
X80714745Y-41222013D03*
X80714745Y-40722013D03*
X80714745Y-40222013D03*
X80714745Y-39722013D03*
D21*
X81427245Y-39009513D03*
X81927245Y-39009513D03*
X82427245Y-39009513D03*
X82927245Y-39009513D03*
G04 #@! TD*
D36*
G04 #@! TO.C,R101*
X164818542Y-33820580D03*
X164818542Y-34840580D03*
G04 #@! TD*
D37*
G04 #@! TO.C,VCC603*
X185661306Y-125300000D03*
X185661306Y-124900000D03*
X185261306Y-124900000D03*
X185261306Y-125300000D03*
G04 #@! TD*
D33*
G04 #@! TO.C,C409*
X114400000Y-148400000D03*
X114400000Y-152800000D03*
G04 #@! TD*
D11*
G04 #@! TO.C,R459*
X66110000Y-131020000D03*
X65090000Y-131020000D03*
G04 #@! TD*
D36*
G04 #@! TO.C,R101*
X164818542Y-123820580D03*
X164818542Y-124840580D03*
G04 #@! TD*
D11*
G04 #@! TO.C,R499*
X79537245Y-113822013D03*
X78517245Y-113822013D03*
G04 #@! TD*
G04 #@! TO.C,R447*
X66110000Y-137980000D03*
X65090000Y-137980000D03*
G04 #@! TD*
G04 #@! TO.C,R447*
X66110000Y-47980000D03*
X65090000Y-47980000D03*
G04 #@! TD*
D14*
G04 #@! TO.C,C627*
X110470000Y-115550000D03*
X110470000Y-116510000D03*
G04 #@! TD*
D28*
G04 #@! TO.C,R601*
X180161306Y-31685000D03*
X180161306Y-30665000D03*
G04 #@! TD*
D15*
G04 #@! TO.C,R501*
X78517245Y-27322013D03*
X79537245Y-27322013D03*
G04 #@! TD*
D28*
G04 #@! TO.C,R201*
X103776472Y-135000000D03*
X103776472Y-133980000D03*
G04 #@! TD*
D15*
G04 #@! TO.C,R202*
X103340000Y-39140000D03*
X104360000Y-39140000D03*
G04 #@! TD*
D11*
G04 #@! TO.C,R453*
X66110000Y-134340000D03*
X65090000Y-134340000D03*
G04 #@! TD*
D12*
G04 #@! TO.C,C114*
X163768542Y-125060580D03*
X163768542Y-124100580D03*
G04 #@! TD*
D11*
G04 #@! TO.C,R410*
X68080284Y-159359999D03*
X67060284Y-159359999D03*
G04 #@! TD*
G04 #@! TO.C,R515*
X79537245Y-51822013D03*
X78517245Y-51822013D03*
G04 #@! TD*
G04 #@! TO.C,R527*
X79537245Y-162822013D03*
X78517245Y-162822013D03*
G04 #@! TD*
D15*
G04 #@! TO.C,R509*
X78517245Y-41322013D03*
X79537245Y-41322013D03*
G04 #@! TD*
D11*
G04 #@! TO.C,R452*
X68080284Y-45159999D03*
X67060284Y-45159999D03*
G04 #@! TD*
G04 #@! TO.C,R442*
X68080284Y-50799999D03*
X67060284Y-50799999D03*
G04 #@! TD*
D14*
G04 #@! TO.C,C302*
X173187500Y-77870000D03*
X173187500Y-78830000D03*
G04 #@! TD*
G04 #@! TO.C,C611*
X175175000Y-45045000D03*
X175175000Y-46005000D03*
G04 #@! TD*
D11*
G04 #@! TO.C,R485*
X66110000Y-25780000D03*
X65090000Y-25780000D03*
G04 #@! TD*
G04 #@! TO.C,R417*
X66110000Y-155220000D03*
X65090000Y-155220000D03*
G04 #@! TD*
D13*
G04 #@! TO.C,C307*
X170920000Y-80075000D03*
X171880000Y-80075000D03*
G04 #@! TD*
D11*
G04 #@! TO.C,R301*
X187730000Y-169960000D03*
X186710000Y-169960000D03*
G04 #@! TD*
D38*
G04 #@! TO.C,L603*
X114145000Y-21830000D03*
X115115000Y-21830000D03*
G04 #@! TD*
D36*
G04 #@! TO.C,R308*
X178127500Y-173440000D03*
X178127500Y-174460000D03*
G04 #@! TD*
D29*
G04 #@! TO.C,L601*
X181488908Y-129650000D03*
X179986306Y-128147398D03*
G04 #@! TD*
D39*
G04 #@! TO.C,U601*
X181093488Y-133023008D03*
X181093488Y-134773008D03*
X182843488Y-133023008D03*
X182843488Y-134773008D03*
D40*
X179518488Y-135648008D03*
X179518488Y-135148008D03*
X179518488Y-134648008D03*
X179518488Y-134148008D03*
X179518488Y-133648008D03*
X179518488Y-133148008D03*
X179518488Y-132648008D03*
X179518488Y-132148008D03*
D41*
X180218488Y-131448008D03*
X180718488Y-131448008D03*
X181218488Y-131448008D03*
X181718488Y-131448008D03*
X182218488Y-131448008D03*
X182718488Y-131448008D03*
X183218488Y-131448008D03*
X183718488Y-131448008D03*
D40*
X184418488Y-132148008D03*
X184418488Y-132648008D03*
X184418488Y-133148008D03*
X184418488Y-133648008D03*
X184418488Y-134148008D03*
X184418488Y-134648008D03*
X184418488Y-135148008D03*
X184418488Y-135648008D03*
D41*
X183718488Y-136348008D03*
X183218488Y-136348008D03*
X182718488Y-136348008D03*
X182218488Y-136348008D03*
X181718488Y-136348008D03*
X181218488Y-136348008D03*
X180718488Y-136348008D03*
X180218488Y-136348008D03*
G04 #@! TD*
D11*
G04 #@! TO.C,R486*
X68080284Y-25279999D03*
X67060284Y-25279999D03*
G04 #@! TD*
G04 #@! TO.C,R419*
X66110000Y-154220000D03*
X65090000Y-154220000D03*
G04 #@! TD*
D42*
G04 #@! TO.C,U201*
X112260000Y-127880000D03*
X111580000Y-127880000D03*
X110900000Y-127880000D03*
X110220000Y-127880000D03*
X109540000Y-127880000D03*
X112260000Y-128560000D03*
X111580000Y-128560000D03*
X110900000Y-128560000D03*
X110220000Y-128560000D03*
X109540000Y-128560000D03*
X112260000Y-129240000D03*
X111580000Y-129240000D03*
X110900000Y-129240000D03*
X110220000Y-129240000D03*
X109540000Y-129240000D03*
X112260000Y-129920000D03*
X111580000Y-129920000D03*
X110900000Y-129920000D03*
X110220000Y-129920000D03*
X109540000Y-129920000D03*
X112260000Y-130600000D03*
X111580000Y-130600000D03*
X110900000Y-130600000D03*
X110220000Y-130600000D03*
X109540000Y-130600000D03*
D43*
X107100000Y-124290000D03*
X107500000Y-124290000D03*
X107900000Y-124290000D03*
X108300000Y-124290000D03*
X108700000Y-124290000D03*
X109100000Y-124290000D03*
X109500000Y-124290000D03*
X109900000Y-124290000D03*
X110300000Y-124290000D03*
X110700000Y-124290000D03*
X111100000Y-124290000D03*
X111500000Y-124290000D03*
X111900000Y-124290000D03*
X112300000Y-124290000D03*
X112700000Y-124290000D03*
X113100000Y-124290000D03*
X113500000Y-124290000D03*
X113900000Y-124290000D03*
X114300000Y-124290000D03*
X114700000Y-124290000D03*
D44*
X115850000Y-125440000D03*
X115850000Y-125840000D03*
X115850000Y-126240000D03*
X115850000Y-126640000D03*
X115850000Y-127040000D03*
X115850000Y-127440000D03*
X115850000Y-127840000D03*
X115850000Y-128240000D03*
X115850000Y-128640000D03*
X115850000Y-129040000D03*
X115850000Y-129440000D03*
X115850000Y-129840000D03*
X115850000Y-130240000D03*
X115850000Y-130640000D03*
X115850000Y-131040000D03*
X115850000Y-131440000D03*
X115850000Y-131840000D03*
X115850000Y-132240000D03*
X115850000Y-132640000D03*
X115850000Y-133040000D03*
D43*
X114700000Y-134190000D03*
X114300000Y-134190000D03*
X113900000Y-134190000D03*
X113500000Y-134190000D03*
X113100000Y-134190000D03*
X112700000Y-134190000D03*
X112300000Y-134190000D03*
X111900000Y-134190000D03*
X111500000Y-134190000D03*
X111100000Y-134190000D03*
X110700000Y-134190000D03*
X110300000Y-134190000D03*
X109900000Y-134190000D03*
X109500000Y-134190000D03*
X109100000Y-134190000D03*
X108700000Y-134190000D03*
X108300000Y-134190000D03*
X107900000Y-134190000D03*
X107500000Y-134190000D03*
X107100000Y-134190000D03*
D44*
X105950000Y-133040000D03*
X105950000Y-132640000D03*
X105950000Y-132240000D03*
X105950000Y-131840000D03*
X105950000Y-131440000D03*
X105950000Y-131040000D03*
X105950000Y-130640000D03*
X105950000Y-130240000D03*
X105950000Y-129840000D03*
X105950000Y-129440000D03*
X105950000Y-129040000D03*
X105950000Y-128640000D03*
X105950000Y-128240000D03*
X105950000Y-127840000D03*
X105950000Y-127440000D03*
X105950000Y-127040000D03*
X105950000Y-126640000D03*
X105950000Y-126240000D03*
X105950000Y-125840000D03*
X105950000Y-125440000D03*
G04 #@! TD*
D11*
G04 #@! TO.C,R440*
X68080284Y-142119999D03*
X67060284Y-142119999D03*
G04 #@! TD*
D13*
G04 #@! TO.C,C110*
X164363542Y-132105580D03*
X165323542Y-132105580D03*
G04 #@! TD*
D11*
G04 #@! TO.C,R474*
X68080284Y-122239999D03*
X67060284Y-122239999D03*
G04 #@! TD*
G04 #@! TO.C,R427*
X66110000Y-59580000D03*
X65090000Y-59580000D03*
G04 #@! TD*
G04 #@! TO.C,R523*
X79537245Y-155822013D03*
X78517245Y-155822013D03*
G04 #@! TD*
D30*
G04 #@! TO.C,J301*
X189220000Y-169955000D03*
X189220000Y-170955000D03*
X189220000Y-171455000D03*
X189220000Y-172455000D03*
D31*
X189220000Y-173605000D03*
X189220000Y-174405000D03*
D30*
X189220000Y-172955000D03*
X189220000Y-171955000D03*
X189220000Y-170455000D03*
X189220000Y-169455000D03*
D31*
X189220000Y-168805000D03*
X189220000Y-168005000D03*
D32*
X193720000Y-171205000D03*
G04 #@! TD*
D23*
G04 #@! TO.C,Q403*
X76327245Y-116534513D03*
X76977245Y-116534513D03*
X77627245Y-116534513D03*
X77627245Y-118209513D03*
X76977245Y-118209513D03*
X76327245Y-118209513D03*
G04 #@! TD*
D15*
G04 #@! TO.C,R207*
X134560000Y-7730000D03*
X135580000Y-7730000D03*
G04 #@! TD*
D13*
G04 #@! TO.C,C110*
X164363542Y-42105580D03*
X165323542Y-42105580D03*
G04 #@! TD*
D11*
G04 #@! TO.C,R450*
X68080284Y-46159999D03*
X67060284Y-46159999D03*
G04 #@! TD*
G04 #@! TO.C,R408*
X68080284Y-70679999D03*
X67060284Y-70679999D03*
G04 #@! TD*
D10*
G04 #@! TO.C,C617*
X180591306Y-36525000D03*
X179631306Y-36525000D03*
G04 #@! TD*
D25*
G04 #@! TO.C,U411*
X70663114Y-25463664D03*
X70663114Y-26463664D03*
D26*
X70413114Y-27651164D03*
D27*
X69475614Y-27213664D03*
X69475614Y-26713664D03*
X69475614Y-26213664D03*
X69475614Y-25713664D03*
X69475614Y-25213664D03*
X69475614Y-24713664D03*
D26*
X70413114Y-24276164D03*
X70913114Y-24276164D03*
D27*
X71850614Y-24713664D03*
X71850614Y-25213664D03*
X71850614Y-25713664D03*
X71850614Y-26213664D03*
X71850614Y-26713664D03*
X71850614Y-27213664D03*
D26*
X70913114Y-27651164D03*
G04 #@! TD*
D11*
G04 #@! TO.C,R419*
X66110000Y-64220000D03*
X65090000Y-64220000D03*
G04 #@! TD*
D14*
G04 #@! TO.C,C101*
X158068542Y-45900580D03*
X158068542Y-46860580D03*
G04 #@! TD*
D25*
G04 #@! TO.C,U407*
X70663114Y-134023664D03*
X70663114Y-135023664D03*
D26*
X70413114Y-136211164D03*
D27*
X69475614Y-135773664D03*
X69475614Y-135273664D03*
X69475614Y-134773664D03*
X69475614Y-134273664D03*
X69475614Y-133773664D03*
X69475614Y-133273664D03*
D26*
X70413114Y-132836164D03*
X70913114Y-132836164D03*
D27*
X71850614Y-133273664D03*
X71850614Y-133773664D03*
X71850614Y-134273664D03*
X71850614Y-134773664D03*
X71850614Y-135273664D03*
X71850614Y-135773664D03*
D26*
X70913114Y-136211164D03*
G04 #@! TD*
D15*
G04 #@! TO.C,R203*
X103340000Y-40140000D03*
X104360000Y-40140000D03*
G04 #@! TD*
D11*
G04 #@! TO.C,R301*
X187730000Y-79960000D03*
X186710000Y-79960000D03*
G04 #@! TD*
G04 #@! TO.C,R104*
X156220000Y-141860000D03*
X155200000Y-141860000D03*
G04 #@! TD*
G04 #@! TO.C,R405*
X66110000Y-162180000D03*
X65090000Y-162180000D03*
G04 #@! TD*
G04 #@! TO.C,R401*
X66110000Y-164500000D03*
X65090000Y-164500000D03*
G04 #@! TD*
G04 #@! TO.C,R494*
X68080284Y-20639999D03*
X67060284Y-20639999D03*
G04 #@! TD*
D14*
G04 #@! TO.C,C215*
X104825000Y-131751779D03*
X104825000Y-132711779D03*
G04 #@! TD*
D45*
G04 #@! TO.C,BZ101*
X184200000Y-162075000D03*
X184200000Y-155375000D03*
X177500000Y-162075000D03*
X177500000Y-155375000D03*
G04 #@! TD*
D11*
G04 #@! TO.C,R425*
X66110000Y-60580000D03*
X65090000Y-60580000D03*
G04 #@! TD*
D14*
G04 #@! TO.C,C611*
X175175000Y-135045000D03*
X175175000Y-136005000D03*
G04 #@! TD*
D46*
G04 #@! TO.C,BT301*
X85750000Y-165700000D03*
X167050000Y-165700000D03*
G04 #@! TD*
D11*
G04 #@! TO.C,R528*
X79587245Y-164422013D03*
X78567245Y-164422013D03*
G04 #@! TD*
G04 #@! TO.C,R457*
X66110000Y-42020000D03*
X65090000Y-42020000D03*
G04 #@! TD*
D36*
G04 #@! TO.C,R305*
X179137500Y-173440000D03*
X179137500Y-174460000D03*
G04 #@! TD*
D25*
G04 #@! TO.C,U409*
X70663114Y-124743664D03*
X70663114Y-125743664D03*
D26*
X70413114Y-126931164D03*
D27*
X69475614Y-126493664D03*
X69475614Y-125993664D03*
X69475614Y-125493664D03*
X69475614Y-124993664D03*
X69475614Y-124493664D03*
X69475614Y-123993664D03*
D26*
X70413114Y-123556164D03*
X70913114Y-123556164D03*
D27*
X71850614Y-123993664D03*
X71850614Y-124493664D03*
X71850614Y-124993664D03*
X71850614Y-125493664D03*
X71850614Y-125993664D03*
X71850614Y-126493664D03*
D26*
X70913114Y-126931164D03*
G04 #@! TD*
D10*
G04 #@! TO.C,C308*
X176505000Y-170575000D03*
X175545000Y-170575000D03*
G04 #@! TD*
D28*
G04 #@! TO.C,R205*
X114376472Y-33100000D03*
X114376472Y-32080000D03*
G04 #@! TD*
D13*
G04 #@! TO.C,C618*
X180581306Y-33600000D03*
X181541306Y-33600000D03*
G04 #@! TD*
D11*
G04 #@! TO.C,R439*
X66110000Y-142620000D03*
X65090000Y-142620000D03*
G04 #@! TD*
D36*
G04 #@! TO.C,R304*
X183287500Y-173440000D03*
X183287500Y-174460000D03*
G04 #@! TD*
D13*
G04 #@! TO.C,C625*
X183001306Y-121000000D03*
X183961306Y-121000000D03*
G04 #@! TD*
D23*
G04 #@! TO.C,Q402*
X76327245Y-23034513D03*
X76977245Y-23034513D03*
X77627245Y-23034513D03*
X77627245Y-24709513D03*
X76977245Y-24709513D03*
X76327245Y-24709513D03*
G04 #@! TD*
D12*
G04 #@! TO.C,C217*
X121350000Y-128370000D03*
X121350000Y-127410000D03*
G04 #@! TD*
D11*
G04 #@! TO.C,R518*
X79587245Y-56922013D03*
X78567245Y-56922013D03*
G04 #@! TD*
G04 #@! TO.C,R508*
X79587245Y-129422013D03*
X78567245Y-129422013D03*
G04 #@! TD*
G04 #@! TO.C,R456*
X68080284Y-42839999D03*
X67060284Y-42839999D03*
G04 #@! TD*
D14*
G04 #@! TO.C,C208*
X115425000Y-135410000D03*
X115425000Y-136370000D03*
G04 #@! TD*
D47*
G04 #@! TO.C,D1281*
X175200000Y-68250000D03*
X175200000Y-65450000D03*
G04 #@! TD*
D25*
G04 #@! TO.C,U404*
X70663114Y-57943664D03*
X70663114Y-58943664D03*
D26*
X70413114Y-60131164D03*
D27*
X69475614Y-59693664D03*
X69475614Y-59193664D03*
X69475614Y-58693664D03*
X69475614Y-58193664D03*
X69475614Y-57693664D03*
X69475614Y-57193664D03*
D26*
X70413114Y-56756164D03*
X70913114Y-56756164D03*
D27*
X71850614Y-57193664D03*
X71850614Y-57693664D03*
X71850614Y-58193664D03*
X71850614Y-58693664D03*
X71850614Y-59193664D03*
X71850614Y-59693664D03*
D26*
X70913114Y-60131164D03*
G04 #@! TD*
D12*
G04 #@! TO.C,C213*
X107325000Y-46620000D03*
X107325000Y-45660000D03*
G04 #@! TD*
D37*
G04 #@! TO.C,VCC603*
X185661306Y-35300000D03*
X185661306Y-34900000D03*
X185261306Y-34900000D03*
X185261306Y-35300000D03*
G04 #@! TD*
D11*
G04 #@! TO.C,R413*
X66110000Y-157540000D03*
X65090000Y-157540000D03*
G04 #@! TD*
G04 #@! TO.C,R432*
X68080284Y-146759999D03*
X67060284Y-146759999D03*
G04 #@! TD*
D14*
G04 #@! TO.C,C301*
X183030000Y-79315000D03*
X183030000Y-80275000D03*
G04 #@! TD*
D11*
G04 #@! TO.C,R527*
X79537245Y-72822013D03*
X78517245Y-72822013D03*
G04 #@! TD*
G04 #@! TO.C,R414*
X68080284Y-157039999D03*
X67060284Y-157039999D03*
G04 #@! TD*
D14*
G04 #@! TO.C,C214*
X105076472Y-43860000D03*
X105076472Y-44820000D03*
G04 #@! TD*
D23*
G04 #@! TO.C,Q415*
X76327245Y-158534513D03*
X76977245Y-158534513D03*
X77627245Y-158534513D03*
X77627245Y-160209513D03*
X76977245Y-160209513D03*
X76327245Y-160209513D03*
G04 #@! TD*
D36*
G04 #@! TO.C,R208*
X113210000Y-48340000D03*
X113210000Y-49360000D03*
G04 #@! TD*
D11*
G04 #@! TO.C,R526*
X79587245Y-160922013D03*
X78567245Y-160922013D03*
G04 #@! TD*
D25*
G04 #@! TO.C,U405*
X70663114Y-143303664D03*
X70663114Y-144303664D03*
D26*
X70413114Y-145491164D03*
D27*
X69475614Y-145053664D03*
X69475614Y-144553664D03*
X69475614Y-144053664D03*
X69475614Y-143553664D03*
X69475614Y-143053664D03*
X69475614Y-142553664D03*
D26*
X70413114Y-142116164D03*
X70913114Y-142116164D03*
D27*
X71850614Y-142553664D03*
X71850614Y-143053664D03*
X71850614Y-143553664D03*
X71850614Y-144053664D03*
X71850614Y-144553664D03*
X71850614Y-145053664D03*
D26*
X70913114Y-145491164D03*
G04 #@! TD*
D12*
G04 #@! TO.C,C207*
X117176472Y-125970000D03*
X117176472Y-125010000D03*
G04 #@! TD*
D25*
G04 #@! TO.C,U406*
X70663114Y-138663664D03*
X70663114Y-139663664D03*
D26*
X70413114Y-140851164D03*
D27*
X69475614Y-140413664D03*
X69475614Y-139913664D03*
X69475614Y-139413664D03*
X69475614Y-138913664D03*
X69475614Y-138413664D03*
X69475614Y-137913664D03*
D26*
X70413114Y-137476164D03*
X70913114Y-137476164D03*
D27*
X71850614Y-137913664D03*
X71850614Y-138413664D03*
X71850614Y-138913664D03*
X71850614Y-139413664D03*
X71850614Y-139913664D03*
X71850614Y-140413664D03*
D26*
X70913114Y-140851164D03*
G04 #@! TD*
D48*
G04 #@! TO.C,SW201*
X138410000Y-9700000D03*
X138410000Y-18800000D03*
X142910000Y-9700000D03*
X142910000Y-18800000D03*
G04 #@! TD*
D28*
G04 #@! TO.C,R306*
X182237500Y-84460000D03*
X182237500Y-83440000D03*
G04 #@! TD*
D12*
G04 #@! TO.C,C103*
X158243542Y-123440580D03*
X158243542Y-122480580D03*
G04 #@! TD*
D11*
G04 #@! TO.C,R430*
X68080284Y-57759999D03*
X67060284Y-57759999D03*
G04 #@! TD*
D10*
G04 #@! TO.C,C624*
X183966306Y-122000000D03*
X183006306Y-122000000D03*
G04 #@! TD*
D11*
G04 #@! TO.C,R463*
X66110000Y-38700000D03*
X65090000Y-38700000D03*
G04 #@! TD*
G04 #@! TO.C,R103*
X165378542Y-128830580D03*
X164358542Y-128830580D03*
G04 #@! TD*
G04 #@! TO.C,R467*
X66110000Y-36380000D03*
X65090000Y-36380000D03*
G04 #@! TD*
D49*
G04 #@! TO.C,Q201*
X110020000Y-48850000D03*
X111900000Y-48850000D03*
G04 #@! TD*
D11*
G04 #@! TO.C,R475*
X66110000Y-121740000D03*
X65090000Y-121740000D03*
G04 #@! TD*
D23*
G04 #@! TO.C,Q404*
X76327245Y-30034513D03*
X76977245Y-30034513D03*
X77627245Y-30034513D03*
X77627245Y-31709513D03*
X76977245Y-31709513D03*
X76327245Y-31709513D03*
G04 #@! TD*
D33*
G04 #@! TO.C,C401*
X132400000Y-58400000D03*
X132400000Y-62800000D03*
G04 #@! TD*
D23*
G04 #@! TO.C,Q412*
X76327245Y-58034513D03*
X76977245Y-58034513D03*
X77627245Y-58034513D03*
X77627245Y-59709513D03*
X76977245Y-59709513D03*
X76327245Y-59709513D03*
G04 #@! TD*
D24*
G04 #@! TO.C,C606*
X184785589Y-130539411D03*
X185464411Y-129860589D03*
G04 #@! TD*
D10*
G04 #@! TO.C,C624*
X183966306Y-32000000D03*
X183006306Y-32000000D03*
G04 #@! TD*
D12*
G04 #@! TO.C,C115*
X163893542Y-37218801D03*
X163893542Y-36258801D03*
G04 #@! TD*
D11*
G04 #@! TO.C,R502*
X79587245Y-118922013D03*
X78567245Y-118922013D03*
G04 #@! TD*
D25*
G04 #@! TO.C,U402*
X70663114Y-67223664D03*
X70663114Y-68223664D03*
D26*
X70413114Y-69411164D03*
D27*
X69475614Y-68973664D03*
X69475614Y-68473664D03*
X69475614Y-67973664D03*
X69475614Y-67473664D03*
X69475614Y-66973664D03*
X69475614Y-66473664D03*
D26*
X70413114Y-66036164D03*
X70913114Y-66036164D03*
D27*
X71850614Y-66473664D03*
X71850614Y-66973664D03*
X71850614Y-67473664D03*
X71850614Y-67973664D03*
X71850614Y-68473664D03*
X71850614Y-68973664D03*
D26*
X70913114Y-69411164D03*
G04 #@! TD*
D11*
G04 #@! TO.C,R462*
X68080284Y-39199999D03*
X67060284Y-39199999D03*
G04 #@! TD*
D28*
G04 #@! TO.C,R306*
X182237500Y-174460000D03*
X182237500Y-173440000D03*
G04 #@! TD*
D33*
G04 #@! TO.C,C408*
X108390000Y-58400000D03*
X108390000Y-62800000D03*
G04 #@! TD*
G04 #@! TO.C,C407*
X102400000Y-148360000D03*
X102400000Y-152760000D03*
G04 #@! TD*
D11*
G04 #@! TO.C,R437*
X66110000Y-53620000D03*
X65090000Y-53620000D03*
G04 #@! TD*
D14*
G04 #@! TO.C,C303*
X175737500Y-77870000D03*
X175737500Y-78830000D03*
G04 #@! TD*
D10*
G04 #@! TO.C,C620*
X186041306Y-32625000D03*
X185081306Y-32625000D03*
G04 #@! TD*
D50*
G04 #@! TO.C,Y201*
X125800000Y-38140000D03*
X125800000Y-40340000D03*
X124100000Y-40340000D03*
X124100000Y-38140000D03*
G04 #@! TD*
D11*
G04 #@! TO.C,R416*
X68080284Y-66039999D03*
X67060284Y-66039999D03*
G04 #@! TD*
G04 #@! TO.C,R403*
X66110000Y-73500000D03*
X65090000Y-73500000D03*
G04 #@! TD*
D14*
G04 #@! TO.C,C214*
X105076472Y-133860000D03*
X105076472Y-134820000D03*
G04 #@! TD*
G04 #@! TO.C,C203*
X110475000Y-45530000D03*
X110475000Y-46490000D03*
G04 #@! TD*
D10*
G04 #@! TO.C,C603*
X178080000Y-134600000D03*
X177120000Y-134600000D03*
G04 #@! TD*
G04 #@! TO.C,C621*
X185566306Y-126525000D03*
X184606306Y-126525000D03*
G04 #@! TD*
D11*
G04 #@! TO.C,R402*
X68080284Y-73999999D03*
X67060284Y-73999999D03*
G04 #@! TD*
D12*
G04 #@! TO.C,C201*
X110650000Y-123070000D03*
X110650000Y-122110000D03*
G04 #@! TD*
D23*
G04 #@! TO.C,Q412*
X76327245Y-148034513D03*
X76977245Y-148034513D03*
X77627245Y-148034513D03*
X77627245Y-149709513D03*
X76977245Y-149709513D03*
X76327245Y-149709513D03*
G04 #@! TD*
D15*
G04 #@! TO.C,R107*
X152420000Y-141880000D03*
X153440000Y-141880000D03*
G04 #@! TD*
D12*
G04 #@! TO.C,C213*
X107325000Y-136620000D03*
X107325000Y-135660000D03*
G04 #@! TD*
D14*
G04 #@! TO.C,C211*
X111475000Y-135530000D03*
X111475000Y-136490000D03*
G04 #@! TD*
D23*
G04 #@! TO.C,Q402*
X76327245Y-113034513D03*
X76977245Y-113034513D03*
X77627245Y-113034513D03*
X77627245Y-114709513D03*
X76977245Y-114709513D03*
X76327245Y-114709513D03*
G04 #@! TD*
D19*
G04 #@! TO.C,U417*
X82602245Y-68897013D03*
X82602245Y-68047013D03*
X81752245Y-68897013D03*
X81752245Y-68047013D03*
D20*
X83639745Y-67722013D03*
X83639745Y-68222013D03*
X83639745Y-68722013D03*
X83639745Y-69222013D03*
D21*
X82927245Y-69934513D03*
X82427245Y-69934513D03*
X81927245Y-69934513D03*
X81427245Y-69934513D03*
D20*
X80714745Y-69222013D03*
X80714745Y-68722013D03*
X80714745Y-68222013D03*
X80714745Y-67722013D03*
D21*
X81427245Y-67009513D03*
X81927245Y-67009513D03*
X82427245Y-67009513D03*
X82927245Y-67009513D03*
G04 #@! TD*
D11*
G04 #@! TO.C,R415*
X66110000Y-66540000D03*
X65090000Y-66540000D03*
G04 #@! TD*
G04 #@! TO.C,R407*
X66110000Y-161180000D03*
X65090000Y-161180000D03*
G04 #@! TD*
G04 #@! TO.C,R500*
X79587245Y-25422013D03*
X78567245Y-25422013D03*
G04 #@! TD*
D13*
G04 #@! TO.C,C202*
X118770000Y-40690000D03*
X119730000Y-40690000D03*
G04 #@! TD*
D36*
G04 #@! TO.C,R307*
X180137500Y-83440000D03*
X180137500Y-84460000D03*
G04 #@! TD*
D11*
G04 #@! TO.C,R418*
X68080284Y-154719999D03*
X67060284Y-154719999D03*
G04 #@! TD*
D12*
G04 #@! TO.C,C626*
X110440000Y-23180000D03*
X110440000Y-22220000D03*
G04 #@! TD*
D51*
G04 #@! TO.C,SW301*
X79090000Y-85081800D03*
X76550000Y-85081800D03*
X76550000Y-76471800D03*
X79090000Y-76471800D03*
G04 #@! TD*
D48*
G04 #@! TO.C,SW101*
X155790000Y-53750000D03*
X155790000Y-62850000D03*
X160290000Y-53750000D03*
X160290000Y-62850000D03*
G04 #@! TD*
D23*
G04 #@! TO.C,Q416*
X76327245Y-72034513D03*
X76977245Y-72034513D03*
X77627245Y-72034513D03*
X77627245Y-73709513D03*
X76977245Y-73709513D03*
X76327245Y-73709513D03*
G04 #@! TD*
D28*
G04 #@! TO.C,R303*
X181187500Y-174460000D03*
X181187500Y-173440000D03*
G04 #@! TD*
D13*
G04 #@! TO.C,C202*
X118770000Y-130690000D03*
X119730000Y-130690000D03*
G04 #@! TD*
D25*
G04 #@! TO.C,U410*
X70663114Y-30103664D03*
X70663114Y-31103664D03*
D26*
X70413114Y-32291164D03*
D27*
X69475614Y-31853664D03*
X69475614Y-31353664D03*
X69475614Y-30853664D03*
X69475614Y-30353664D03*
X69475614Y-29853664D03*
X69475614Y-29353664D03*
D26*
X70413114Y-28916164D03*
X70913114Y-28916164D03*
D27*
X71850614Y-29353664D03*
X71850614Y-29853664D03*
X71850614Y-30353664D03*
X71850614Y-30853664D03*
X71850614Y-31353664D03*
X71850614Y-31853664D03*
D26*
X70913114Y-32291164D03*
G04 #@! TD*
D11*
G04 #@! TO.C,R416*
X68080284Y-156039999D03*
X67060284Y-156039999D03*
G04 #@! TD*
D52*
G04 #@! TO.C,SW202*
X135000000Y-18700000D03*
X135000000Y-9600000D03*
X130500000Y-18700000D03*
X130500000Y-9600000D03*
G04 #@! TD*
D14*
G04 #@! TO.C,C117*
X147368542Y-130600580D03*
X147368542Y-131560580D03*
G04 #@! TD*
D15*
G04 #@! TO.C,R310*
X174090000Y-165325000D03*
X175110000Y-165325000D03*
G04 #@! TD*
D24*
G04 #@! TO.C,C606*
X184785589Y-40539411D03*
X185464411Y-39860589D03*
G04 #@! TD*
D11*
G04 #@! TO.C,R496*
X68080284Y-19639999D03*
X67060284Y-19639999D03*
G04 #@! TD*
G04 #@! TO.C,R435*
X66110000Y-144940000D03*
X65090000Y-144940000D03*
G04 #@! TD*
D14*
G04 #@! TO.C,C113*
X161393542Y-122350580D03*
X161393542Y-123310580D03*
G04 #@! TD*
D11*
G04 #@! TO.C,R409*
X66110000Y-159860000D03*
X65090000Y-159860000D03*
G04 #@! TD*
D19*
G04 #@! TO.C,U416*
X82602245Y-54897013D03*
X82602245Y-54047013D03*
X81752245Y-54897013D03*
X81752245Y-54047013D03*
D20*
X83639745Y-53722013D03*
X83639745Y-54222013D03*
X83639745Y-54722013D03*
X83639745Y-55222013D03*
D21*
X82927245Y-55934513D03*
X82427245Y-55934513D03*
X81927245Y-55934513D03*
X81427245Y-55934513D03*
D20*
X80714745Y-55222013D03*
X80714745Y-54722013D03*
X80714745Y-54222013D03*
X80714745Y-53722013D03*
D21*
X81427245Y-53009513D03*
X81927245Y-53009513D03*
X82427245Y-53009513D03*
X82927245Y-53009513D03*
G04 #@! TD*
D23*
G04 #@! TO.C,Q411*
X76327245Y-144534513D03*
X76977245Y-144534513D03*
X77627245Y-144534513D03*
X77627245Y-146209513D03*
X76977245Y-146209513D03*
X76327245Y-146209513D03*
G04 #@! TD*
D10*
G04 #@! TO.C,C615*
X182091306Y-32000000D03*
X181131306Y-32000000D03*
G04 #@! TD*
D33*
G04 #@! TO.C,C404*
X120400000Y-58400000D03*
X120400000Y-62800000D03*
G04 #@! TD*
G04 #@! TO.C,C409*
X114400000Y-58400000D03*
X114400000Y-62800000D03*
G04 #@! TD*
D53*
G04 #@! TO.C,C608*
X178789411Y-130289411D03*
X178110589Y-129610589D03*
G04 #@! TD*
D11*
G04 #@! TO.C,R496*
X68080284Y-109639999D03*
X67060284Y-109639999D03*
G04 #@! TD*
D23*
G04 #@! TO.C,Q407*
X76327245Y-130534513D03*
X76977245Y-130534513D03*
X77627245Y-130534513D03*
X77627245Y-132209513D03*
X76977245Y-132209513D03*
X76327245Y-132209513D03*
G04 #@! TD*
G04 #@! TO.C,Q407*
X76327245Y-40534513D03*
X76977245Y-40534513D03*
X77627245Y-40534513D03*
X77627245Y-42209513D03*
X76977245Y-42209513D03*
X76327245Y-42209513D03*
G04 #@! TD*
D11*
G04 #@! TO.C,R464*
X68080284Y-128199999D03*
X67060284Y-128199999D03*
G04 #@! TD*
G04 #@! TO.C,R513*
X79537245Y-48322013D03*
X78517245Y-48322013D03*
G04 #@! TD*
G04 #@! TO.C,R455*
X66110000Y-133340000D03*
X65090000Y-133340000D03*
G04 #@! TD*
D33*
G04 #@! TO.C,C408*
X108390000Y-148400000D03*
X108390000Y-152800000D03*
G04 #@! TD*
D54*
G04 #@! TO.C,Q301*
X174850000Y-161175000D03*
X174850000Y-161825000D03*
X174850000Y-162475000D03*
X173175000Y-162475000D03*
X173175000Y-161825000D03*
X173175000Y-161175000D03*
G04 #@! TD*
D11*
G04 #@! TO.C,R106*
X149978542Y-39630580D03*
X148958542Y-39630580D03*
G04 #@! TD*
D10*
G04 #@! TO.C,C210*
X104355000Y-36865000D03*
X103395000Y-36865000D03*
G04 #@! TD*
D55*
G04 #@! TO.C,U101*
X156458542Y-131090580D03*
X157138542Y-131090580D03*
X157818542Y-131090580D03*
X158498542Y-131090580D03*
X159178542Y-131090580D03*
X156458542Y-130410580D03*
X157138542Y-130410580D03*
X157818542Y-130410580D03*
X158498542Y-130410580D03*
X159178542Y-130410580D03*
X156458542Y-129730580D03*
X157138542Y-129730580D03*
X157818542Y-129730580D03*
X158498542Y-129730580D03*
X159178542Y-129730580D03*
X156458542Y-129050580D03*
X157138542Y-129050580D03*
X157818542Y-129050580D03*
X158498542Y-129050580D03*
X159178542Y-129050580D03*
X156458542Y-128370580D03*
X157138542Y-128370580D03*
X157818542Y-128370580D03*
X158498542Y-128370580D03*
X159178542Y-128370580D03*
D56*
X161618542Y-134680580D03*
X161218542Y-134680580D03*
X160818542Y-134680580D03*
X160418542Y-134680580D03*
X160018542Y-134680580D03*
X159618542Y-134680580D03*
X159218542Y-134680580D03*
X158818542Y-134680580D03*
X158418542Y-134680580D03*
X158018542Y-134680580D03*
X157618542Y-134680580D03*
X157218542Y-134680580D03*
X156818542Y-134680580D03*
X156418542Y-134680580D03*
X156018542Y-134680580D03*
X155618542Y-134680580D03*
X155218542Y-134680580D03*
X154818542Y-134680580D03*
X154418542Y-134680580D03*
X154018542Y-134680580D03*
D57*
X152868542Y-133530580D03*
X152868542Y-133130580D03*
X152868542Y-132730580D03*
X152868542Y-132330580D03*
X152868542Y-131930580D03*
X152868542Y-131530580D03*
X152868542Y-131130580D03*
X152868542Y-130730580D03*
X152868542Y-130330580D03*
X152868542Y-129930580D03*
X152868542Y-129530580D03*
X152868542Y-129130580D03*
X152868542Y-128730580D03*
X152868542Y-128330580D03*
X152868542Y-127930580D03*
X152868542Y-127530580D03*
X152868542Y-127130580D03*
X152868542Y-126730580D03*
X152868542Y-126330580D03*
X152868542Y-125930580D03*
D56*
X154018542Y-124780580D03*
X154418542Y-124780580D03*
X154818542Y-124780580D03*
X155218542Y-124780580D03*
X155618542Y-124780580D03*
X156018542Y-124780580D03*
X156418542Y-124780580D03*
X156818542Y-124780580D03*
X157218542Y-124780580D03*
X157618542Y-124780580D03*
X158018542Y-124780580D03*
X158418542Y-124780580D03*
X158818542Y-124780580D03*
X159218542Y-124780580D03*
X159618542Y-124780580D03*
X160018542Y-124780580D03*
X160418542Y-124780580D03*
X160818542Y-124780580D03*
X161218542Y-124780580D03*
X161618542Y-124780580D03*
D57*
X162768542Y-125930580D03*
X162768542Y-126330580D03*
X162768542Y-126730580D03*
X162768542Y-127130580D03*
X162768542Y-127530580D03*
X162768542Y-127930580D03*
X162768542Y-128330580D03*
X162768542Y-128730580D03*
X162768542Y-129130580D03*
X162768542Y-129530580D03*
X162768542Y-129930580D03*
X162768542Y-130330580D03*
X162768542Y-130730580D03*
X162768542Y-131130580D03*
X162768542Y-131530580D03*
X162768542Y-131930580D03*
X162768542Y-132330580D03*
X162768542Y-132730580D03*
X162768542Y-133130580D03*
X162768542Y-133530580D03*
G04 #@! TD*
D58*
G04 #@! TO.C,VCC601*
X179536306Y-124850000D03*
X179536306Y-125250000D03*
X179936306Y-125250000D03*
X179936306Y-124850000D03*
G04 #@! TD*
D36*
G04 #@! TO.C,R305*
X179137500Y-83440000D03*
X179137500Y-84460000D03*
G04 #@! TD*
D14*
G04 #@! TO.C,C218*
X121350000Y-40410000D03*
X121350000Y-41370000D03*
G04 #@! TD*
D11*
G04 #@! TO.C,R104*
X156220000Y-51860000D03*
X155200000Y-51860000D03*
G04 #@! TD*
D15*
G04 #@! TO.C,R202*
X103340000Y-129140000D03*
X104360000Y-129140000D03*
G04 #@! TD*
D59*
G04 #@! TO.C,Y101*
X142918542Y-130830580D03*
X142918542Y-128630580D03*
X144618542Y-128630580D03*
X144618542Y-130830580D03*
G04 #@! TD*
D12*
G04 #@! TO.C,C601*
X177950000Y-132080000D03*
X177950000Y-131120000D03*
G04 #@! TD*
D11*
G04 #@! TO.C,R426*
X68080284Y-150079999D03*
X67060284Y-150079999D03*
G04 #@! TD*
G04 #@! TO.C,R445*
X66110000Y-48980000D03*
X65090000Y-48980000D03*
G04 #@! TD*
G04 #@! TO.C,R492*
X68080284Y-111959999D03*
X67060284Y-111959999D03*
G04 #@! TD*
D25*
G04 #@! TO.C,U412*
X70663114Y-20823664D03*
X70663114Y-21823664D03*
D26*
X70413114Y-23011164D03*
D27*
X69475614Y-22573664D03*
X69475614Y-22073664D03*
X69475614Y-21573664D03*
X69475614Y-21073664D03*
X69475614Y-20573664D03*
X69475614Y-20073664D03*
D26*
X70413114Y-19636164D03*
X70913114Y-19636164D03*
D27*
X71850614Y-20073664D03*
X71850614Y-20573664D03*
X71850614Y-21073664D03*
X71850614Y-21573664D03*
X71850614Y-22073664D03*
X71850614Y-22573664D03*
D26*
X70913114Y-23011164D03*
G04 #@! TD*
D33*
G04 #@! TO.C,C404*
X120400000Y-148400000D03*
X120400000Y-152800000D03*
G04 #@! TD*
D11*
G04 #@! TO.C,R454*
X68080284Y-43839999D03*
X67060284Y-43839999D03*
G04 #@! TD*
D12*
G04 #@! TO.C,C118*
X147368542Y-38560580D03*
X147368542Y-37600580D03*
G04 #@! TD*
D10*
G04 #@! TO.C,C615*
X182091306Y-122000000D03*
X181131306Y-122000000D03*
G04 #@! TD*
D11*
G04 #@! TO.C,R442*
X68080284Y-140799999D03*
X67060284Y-140799999D03*
G04 #@! TD*
G04 #@! TO.C,R482*
X68080284Y-117599999D03*
X67060284Y-117599999D03*
G04 #@! TD*
D14*
G04 #@! TO.C,C113*
X161393542Y-32350580D03*
X161393542Y-33310580D03*
G04 #@! TD*
D60*
G04 #@! TO.C,J202*
X98470000Y-15180000D03*
X99470000Y-15180000D03*
X99970000Y-15180000D03*
X100970000Y-15180000D03*
D61*
X102120000Y-15180000D03*
X102920000Y-15180000D03*
D60*
X101470000Y-15180000D03*
X100470000Y-15180000D03*
X98970000Y-15180000D03*
X97970000Y-15180000D03*
D61*
X97320000Y-15180000D03*
X96520000Y-15180000D03*
D62*
X99720000Y-10680000D03*
G04 #@! TD*
D11*
G04 #@! TO.C,R505*
X79537245Y-124322013D03*
X78517245Y-124322013D03*
G04 #@! TD*
G04 #@! TO.C,R460*
X68080284Y-40519999D03*
X67060284Y-40519999D03*
G04 #@! TD*
G04 #@! TO.C,R512*
X79587245Y-46422013D03*
X78567245Y-46422013D03*
G04 #@! TD*
D23*
G04 #@! TO.C,Q401*
X76327245Y-109534513D03*
X76977245Y-109534513D03*
X77627245Y-109534513D03*
X77627245Y-111209513D03*
X76977245Y-111209513D03*
X76327245Y-111209513D03*
G04 #@! TD*
G04 #@! TO.C,Q408*
X76327245Y-44034513D03*
X76977245Y-44034513D03*
X77627245Y-44034513D03*
X77627245Y-45709513D03*
X76977245Y-45709513D03*
X76327245Y-45709513D03*
G04 #@! TD*
D12*
G04 #@! TO.C,C111*
X157243542Y-33440580D03*
X157243542Y-32480580D03*
G04 #@! TD*
D53*
G04 #@! TO.C,C607*
X179500000Y-129600000D03*
X178821178Y-128921178D03*
G04 #@! TD*
D15*
G04 #@! TO.C,R107*
X152420000Y-51880000D03*
X153440000Y-51880000D03*
G04 #@! TD*
D11*
G04 #@! TO.C,R488*
X68080284Y-24279999D03*
X67060284Y-24279999D03*
G04 #@! TD*
D23*
G04 #@! TO.C,Q406*
X76327245Y-37034513D03*
X76977245Y-37034513D03*
X77627245Y-37034513D03*
X77627245Y-38709513D03*
X76977245Y-38709513D03*
X76327245Y-38709513D03*
G04 #@! TD*
D36*
G04 #@! TO.C,R105*
X171950000Y-159640000D03*
X171950000Y-160660000D03*
G04 #@! TD*
D34*
G04 #@! TO.C,VCC602*
X182786306Y-123375000D03*
X182386306Y-123375000D03*
X182386306Y-123775000D03*
X182786306Y-123775000D03*
G04 #@! TD*
D28*
G04 #@! TO.C,R601*
X180161306Y-121685000D03*
X180161306Y-120665000D03*
G04 #@! TD*
D23*
G04 #@! TO.C,Q404*
X76327245Y-120034513D03*
X76977245Y-120034513D03*
X77627245Y-120034513D03*
X77627245Y-121709513D03*
X76977245Y-121709513D03*
X76327245Y-121709513D03*
G04 #@! TD*
D63*
G04 #@! TO.C,U602*
X113655000Y-25230000D03*
X114505000Y-25230000D03*
X113655000Y-24380000D03*
X114505000Y-24380000D03*
D64*
X114830000Y-26267500D03*
X114330000Y-26267500D03*
X113830000Y-26267500D03*
X113330000Y-26267500D03*
D65*
X112617500Y-25555000D03*
X112617500Y-25055000D03*
X112617500Y-24555000D03*
X112617500Y-24055000D03*
D64*
X113330000Y-23342500D03*
X113830000Y-23342500D03*
X114330000Y-23342500D03*
X114830000Y-23342500D03*
D65*
X115542500Y-24055000D03*
X115542500Y-24555000D03*
X115542500Y-25055000D03*
X115542500Y-25555000D03*
G04 #@! TD*
D11*
G04 #@! TO.C,R410*
X68080284Y-69359999D03*
X67060284Y-69359999D03*
G04 #@! TD*
D63*
G04 #@! TO.C,U602*
X113655000Y-115230000D03*
X114505000Y-115230000D03*
X113655000Y-114380000D03*
X114505000Y-114380000D03*
D64*
X114830000Y-116267500D03*
X114330000Y-116267500D03*
X113830000Y-116267500D03*
X113330000Y-116267500D03*
D65*
X112617500Y-115555000D03*
X112617500Y-115055000D03*
X112617500Y-114555000D03*
X112617500Y-114055000D03*
D64*
X113330000Y-113342500D03*
X113830000Y-113342500D03*
X114330000Y-113342500D03*
X114830000Y-113342500D03*
D65*
X115542500Y-114055000D03*
X115542500Y-114555000D03*
X115542500Y-115055000D03*
X115542500Y-115555000D03*
G04 #@! TD*
D11*
G04 #@! TO.C,R411*
X66110000Y-68860000D03*
X65090000Y-68860000D03*
G04 #@! TD*
G04 #@! TO.C,R430*
X68080284Y-147759999D03*
X67060284Y-147759999D03*
G04 #@! TD*
D66*
G04 #@! TO.C,C304*
X178662500Y-165150000D03*
X177112500Y-165150000D03*
G04 #@! TD*
D52*
G04 #@! TO.C,SW202*
X135000000Y-108700000D03*
X135000000Y-99600000D03*
X130500000Y-108700000D03*
X130500000Y-99600000D03*
G04 #@! TD*
D60*
G04 #@! TO.C,J202*
X98470000Y-105180000D03*
X99470000Y-105180000D03*
X99970000Y-105180000D03*
X100970000Y-105180000D03*
D61*
X102120000Y-105180000D03*
X102920000Y-105180000D03*
D60*
X101470000Y-105180000D03*
X100470000Y-105180000D03*
X98970000Y-105180000D03*
X97970000Y-105180000D03*
D61*
X97320000Y-105180000D03*
X96520000Y-105180000D03*
D62*
X99720000Y-100680000D03*
G04 #@! TD*
D11*
G04 #@! TO.C,R483*
X66110000Y-27100000D03*
X65090000Y-27100000D03*
G04 #@! TD*
D25*
G04 #@! TO.C,U412*
X70663114Y-110823664D03*
X70663114Y-111823664D03*
D26*
X70413114Y-113011164D03*
D27*
X69475614Y-112573664D03*
X69475614Y-112073664D03*
X69475614Y-111573664D03*
X69475614Y-111073664D03*
X69475614Y-110573664D03*
X69475614Y-110073664D03*
D26*
X70413114Y-109636164D03*
X70913114Y-109636164D03*
D27*
X71850614Y-110073664D03*
X71850614Y-110573664D03*
X71850614Y-111073664D03*
X71850614Y-111573664D03*
X71850614Y-112073664D03*
X71850614Y-112573664D03*
D26*
X70913114Y-113011164D03*
G04 #@! TD*
D10*
G04 #@! TO.C,C619*
X180016306Y-122625000D03*
X179056306Y-122625000D03*
G04 #@! TD*
D14*
G04 #@! TO.C,C216*
X103900000Y-41746779D03*
X103900000Y-42706779D03*
G04 #@! TD*
D67*
G04 #@! TO.C,L201*
X102250000Y-41390000D03*
X102250000Y-43390000D03*
G04 #@! TD*
D68*
G04 #@! TO.C,Q302*
X170912500Y-164285000D03*
X172812500Y-164285000D03*
X171862500Y-166165000D03*
G04 #@! TD*
D59*
G04 #@! TO.C,Y101*
X142918542Y-40830580D03*
X142918542Y-38630580D03*
X144618542Y-38630580D03*
X144618542Y-40830580D03*
G04 #@! TD*
D14*
G04 #@! TO.C,C105*
X159942070Y-45980580D03*
X159942070Y-46940580D03*
G04 #@! TD*
D69*
G04 #@! TO.C,L604*
X116750000Y-114540000D03*
X116750000Y-113570000D03*
G04 #@! TD*
D11*
G04 #@! TO.C,R465*
X66110000Y-37380000D03*
X65090000Y-37380000D03*
G04 #@! TD*
G04 #@! TO.C,R448*
X68080284Y-47479999D03*
X67060284Y-47479999D03*
G04 #@! TD*
G04 #@! TO.C,R467*
X66110000Y-126380000D03*
X65090000Y-126380000D03*
G04 #@! TD*
D70*
G04 #@! TO.C,L301*
X174487500Y-76962500D03*
X174487500Y-78537500D03*
G04 #@! TD*
D11*
G04 #@! TO.C,R302*
X187720000Y-82790000D03*
X186700000Y-82790000D03*
G04 #@! TD*
G04 #@! TO.C,R429*
X66110000Y-58260000D03*
X65090000Y-58260000D03*
G04 #@! TD*
D13*
G04 #@! TO.C,C104*
X164388542Y-130880580D03*
X165348542Y-130880580D03*
G04 #@! TD*
D12*
G04 #@! TO.C,C305*
X180087500Y-76955000D03*
X180087500Y-75995000D03*
G04 #@! TD*
D11*
G04 #@! TO.C,R428*
X68080284Y-59079999D03*
X67060284Y-59079999D03*
G04 #@! TD*
G04 #@! TO.C,R472*
X68080284Y-33559999D03*
X67060284Y-33559999D03*
G04 #@! TD*
G04 #@! TO.C,R401*
X66110000Y-74500000D03*
X65090000Y-74500000D03*
G04 #@! TD*
D33*
G04 #@! TO.C,C401*
X132400000Y-148400000D03*
X132400000Y-152800000D03*
G04 #@! TD*
D11*
G04 #@! TO.C,R408*
X68080284Y-160679999D03*
X67060284Y-160679999D03*
G04 #@! TD*
D14*
G04 #@! TO.C,C306*
X174725000Y-172745000D03*
X174725000Y-173705000D03*
G04 #@! TD*
D33*
G04 #@! TO.C,C406*
X96400000Y-58360000D03*
X96400000Y-62760000D03*
G04 #@! TD*
D25*
G04 #@! TO.C,U411*
X70663114Y-115463664D03*
X70663114Y-116463664D03*
D26*
X70413114Y-117651164D03*
D27*
X69475614Y-117213664D03*
X69475614Y-116713664D03*
X69475614Y-116213664D03*
X69475614Y-115713664D03*
X69475614Y-115213664D03*
X69475614Y-114713664D03*
D26*
X70413114Y-114276164D03*
X70913114Y-114276164D03*
D27*
X71850614Y-114713664D03*
X71850614Y-115213664D03*
X71850614Y-115713664D03*
X71850614Y-116213664D03*
X71850614Y-116713664D03*
X71850614Y-117213664D03*
D26*
X70913114Y-117651164D03*
G04 #@! TD*
D25*
G04 #@! TO.C,U409*
X70663114Y-34743664D03*
X70663114Y-35743664D03*
D26*
X70413114Y-36931164D03*
D27*
X69475614Y-36493664D03*
X69475614Y-35993664D03*
X69475614Y-35493664D03*
X69475614Y-34993664D03*
X69475614Y-34493664D03*
X69475614Y-33993664D03*
D26*
X70413114Y-33556164D03*
X70913114Y-33556164D03*
D27*
X71850614Y-33993664D03*
X71850614Y-34493664D03*
X71850614Y-34993664D03*
X71850614Y-35493664D03*
X71850614Y-35993664D03*
X71850614Y-36493664D03*
D26*
X70913114Y-36931164D03*
G04 #@! TD*
D13*
G04 #@! TO.C,C625*
X183001306Y-31000000D03*
X183961306Y-31000000D03*
G04 #@! TD*
D11*
G04 #@! TO.C,R498*
X79587245Y-21922013D03*
X78567245Y-21922013D03*
G04 #@! TD*
G04 #@! TO.C,R503*
X79537245Y-120822013D03*
X78517245Y-120822013D03*
G04 #@! TD*
D25*
G04 #@! TO.C,U403*
X70663114Y-62583664D03*
X70663114Y-63583664D03*
D26*
X70413114Y-64771164D03*
D27*
X69475614Y-64333664D03*
X69475614Y-63833664D03*
X69475614Y-63333664D03*
X69475614Y-62833664D03*
X69475614Y-62333664D03*
X69475614Y-61833664D03*
D26*
X70413114Y-61396164D03*
X70913114Y-61396164D03*
D27*
X71850614Y-61833664D03*
X71850614Y-62333664D03*
X71850614Y-62833664D03*
X71850614Y-63333664D03*
X71850614Y-63833664D03*
X71850614Y-64333664D03*
D26*
X70913114Y-64771164D03*
G04 #@! TD*
D23*
G04 #@! TO.C,Q408*
X76327245Y-134034513D03*
X76977245Y-134034513D03*
X77627245Y-134034513D03*
X77627245Y-135709513D03*
X76977245Y-135709513D03*
X76327245Y-135709513D03*
G04 #@! TD*
D11*
G04 #@! TO.C,R428*
X68080284Y-149079999D03*
X67060284Y-149079999D03*
G04 #@! TD*
D23*
G04 #@! TO.C,Q414*
X76327245Y-155034513D03*
X76977245Y-155034513D03*
X77627245Y-155034513D03*
X77627245Y-156709513D03*
X76977245Y-156709513D03*
X76327245Y-156709513D03*
G04 #@! TD*
D11*
G04 #@! TO.C,R516*
X79587245Y-143422013D03*
X78567245Y-143422013D03*
G04 #@! TD*
D23*
G04 #@! TO.C,Q410*
X76327245Y-51034513D03*
X76977245Y-51034513D03*
X77627245Y-51034513D03*
X77627245Y-52709513D03*
X76977245Y-52709513D03*
X76327245Y-52709513D03*
G04 #@! TD*
D11*
G04 #@! TO.C,R487*
X66110000Y-24780000D03*
X65090000Y-24780000D03*
G04 #@! TD*
D67*
G04 #@! TO.C,L201*
X102250000Y-131390000D03*
X102250000Y-133390000D03*
G04 #@! TD*
D12*
G04 #@! TO.C,C108*
X152018542Y-35040580D03*
X152018542Y-34080580D03*
G04 #@! TD*
D28*
G04 #@! TO.C,R602*
X184961306Y-31675000D03*
X184961306Y-30655000D03*
G04 #@! TD*
D11*
G04 #@! TO.C,R302*
X187720000Y-172790000D03*
X186700000Y-172790000D03*
G04 #@! TD*
G04 #@! TO.C,R412*
X68080284Y-68359999D03*
X67060284Y-68359999D03*
G04 #@! TD*
G04 #@! TO.C,R476*
X68080284Y-31239999D03*
X67060284Y-31239999D03*
G04 #@! TD*
G04 #@! TO.C,R403*
X66110000Y-163500000D03*
X65090000Y-163500000D03*
G04 #@! TD*
D13*
G04 #@! TO.C,C612*
X181131306Y-31000000D03*
X182091306Y-31000000D03*
G04 #@! TD*
D11*
G04 #@! TO.C,R504*
X79587245Y-32422013D03*
X78567245Y-32422013D03*
G04 #@! TD*
G04 #@! TO.C,R504*
X79587245Y-122422013D03*
X78567245Y-122422013D03*
G04 #@! TD*
G04 #@! TO.C,R420*
X68080284Y-63719999D03*
X67060284Y-63719999D03*
G04 #@! TD*
G04 #@! TO.C,R475*
X66110000Y-31740000D03*
X65090000Y-31740000D03*
G04 #@! TD*
D45*
G04 #@! TO.C,BZ101*
X184200000Y-72075000D03*
X184200000Y-65375000D03*
X177500000Y-72075000D03*
X177500000Y-65375000D03*
G04 #@! TD*
D11*
G04 #@! TO.C,R468*
X68080284Y-35879999D03*
X67060284Y-35879999D03*
G04 #@! TD*
D10*
G04 #@! TO.C,C106*
X149923542Y-40755580D03*
X148963542Y-40755580D03*
G04 #@! TD*
G04 #@! TO.C,C629*
X118670000Y-114520000D03*
X117710000Y-114520000D03*
G04 #@! TD*
D16*
G04 #@! TO.C,U301*
X180670000Y-80870000D03*
X180670000Y-80050000D03*
X180670000Y-79230000D03*
X179850000Y-80870000D03*
X179850000Y-80050000D03*
X179850000Y-79230000D03*
X179030000Y-80870000D03*
X179030000Y-80050000D03*
X179030000Y-79230000D03*
D17*
X181837500Y-78800000D03*
X181837500Y-79300000D03*
X181837500Y-79800000D03*
X181837500Y-80300000D03*
X181837500Y-80800000D03*
X181837500Y-81300000D03*
D18*
X181100000Y-82037500D03*
X180600000Y-82037500D03*
X180100000Y-82037500D03*
X179600000Y-82037500D03*
X179100000Y-82037500D03*
X178600000Y-82037500D03*
D17*
X177862500Y-81300000D03*
X177862500Y-80800000D03*
X177862500Y-80300000D03*
X177862500Y-79800000D03*
X177862500Y-79300000D03*
X177862500Y-78800000D03*
D18*
X178600000Y-78062500D03*
X179100000Y-78062500D03*
X179600000Y-78062500D03*
X180100000Y-78062500D03*
X180600000Y-78062500D03*
X181100000Y-78062500D03*
G04 #@! TD*
D11*
G04 #@! TO.C,R446*
X68080284Y-138479999D03*
X67060284Y-138479999D03*
G04 #@! TD*
G04 #@! TO.C,R462*
X68080284Y-129199999D03*
X67060284Y-129199999D03*
G04 #@! TD*
D23*
G04 #@! TO.C,Q409*
X76327245Y-137534513D03*
X76977245Y-137534513D03*
X77627245Y-137534513D03*
X77627245Y-139209513D03*
X76977245Y-139209513D03*
X76327245Y-139209513D03*
G04 #@! TD*
D11*
G04 #@! TO.C,R443*
X66110000Y-50300000D03*
X65090000Y-50300000D03*
G04 #@! TD*
D25*
G04 #@! TO.C,U405*
X70663114Y-53303664D03*
X70663114Y-54303664D03*
D26*
X70413114Y-55491164D03*
D27*
X69475614Y-55053664D03*
X69475614Y-54553664D03*
X69475614Y-54053664D03*
X69475614Y-53553664D03*
X69475614Y-53053664D03*
X69475614Y-52553664D03*
D26*
X70413114Y-52116164D03*
X70913114Y-52116164D03*
D27*
X71850614Y-52553664D03*
X71850614Y-53053664D03*
X71850614Y-53553664D03*
X71850614Y-54053664D03*
X71850614Y-54553664D03*
X71850614Y-55053664D03*
D26*
X70913114Y-55491164D03*
G04 #@! TD*
D11*
G04 #@! TO.C,R465*
X66110000Y-127380000D03*
X65090000Y-127380000D03*
G04 #@! TD*
D46*
G04 #@! TO.C,BT301*
X85750000Y-75700000D03*
X167050000Y-75700000D03*
G04 #@! TD*
D12*
G04 #@! TO.C,C205*
X108776472Y-32990000D03*
X108776472Y-32030000D03*
G04 #@! TD*
D52*
G04 #@! TO.C,SW102*
X152860000Y-62840000D03*
X152860000Y-53740000D03*
X148360000Y-62840000D03*
X148360000Y-53740000D03*
G04 #@! TD*
D11*
G04 #@! TO.C,R431*
X66110000Y-147260000D03*
X65090000Y-147260000D03*
G04 #@! TD*
D13*
G04 #@! TO.C,C307*
X170920000Y-170075000D03*
X171880000Y-170075000D03*
G04 #@! TD*
D28*
G04 #@! TO.C,R602*
X184961306Y-121675000D03*
X184961306Y-120655000D03*
G04 #@! TD*
D25*
G04 #@! TO.C,U407*
X70663114Y-44023664D03*
X70663114Y-45023664D03*
D26*
X70413114Y-46211164D03*
D27*
X69475614Y-45773664D03*
X69475614Y-45273664D03*
X69475614Y-44773664D03*
X69475614Y-44273664D03*
X69475614Y-43773664D03*
X69475614Y-43273664D03*
D26*
X70413114Y-42836164D03*
X70913114Y-42836164D03*
D27*
X71850614Y-43273664D03*
X71850614Y-43773664D03*
X71850614Y-44273664D03*
X71850614Y-44773664D03*
X71850614Y-45273664D03*
X71850614Y-45773664D03*
D26*
X70913114Y-46211164D03*
G04 #@! TD*
D11*
G04 #@! TO.C,R471*
X66110000Y-34060000D03*
X65090000Y-34060000D03*
G04 #@! TD*
G04 #@! TO.C,R436*
X68080284Y-54439999D03*
X67060284Y-54439999D03*
G04 #@! TD*
G04 #@! TO.C,R497*
X79537245Y-20322013D03*
X78517245Y-20322013D03*
G04 #@! TD*
D66*
G04 #@! TO.C,C304*
X178662500Y-75150000D03*
X177112500Y-75150000D03*
G04 #@! TD*
D36*
G04 #@! TO.C,R304*
X183287500Y-83440000D03*
X183287500Y-84460000D03*
G04 #@! TD*
D13*
G04 #@! TO.C,C206*
X118795000Y-38215000D03*
X119755000Y-38215000D03*
G04 #@! TD*
D14*
G04 #@! TO.C,C604*
X177992446Y-135570000D03*
X177992446Y-136530000D03*
G04 #@! TD*
D50*
G04 #@! TO.C,Y601*
X172375000Y-42975000D03*
X172375000Y-45175000D03*
X170675000Y-45175000D03*
X170675000Y-42975000D03*
G04 #@! TD*
D11*
G04 #@! TO.C,R429*
X66110000Y-148260000D03*
X65090000Y-148260000D03*
G04 #@! TD*
G04 #@! TO.C,R528*
X79587245Y-74422013D03*
X78567245Y-74422013D03*
G04 #@! TD*
D13*
G04 #@! TO.C,C112*
X162638542Y-32880580D03*
X163598542Y-32880580D03*
G04 #@! TD*
D11*
G04 #@! TO.C,R461*
X66110000Y-39700000D03*
X65090000Y-39700000D03*
G04 #@! TD*
D25*
G04 #@! TO.C,U408*
X70663114Y-129383664D03*
X70663114Y-130383664D03*
D26*
X70413114Y-131571164D03*
D27*
X69475614Y-131133664D03*
X69475614Y-130633664D03*
X69475614Y-130133664D03*
X69475614Y-129633664D03*
X69475614Y-129133664D03*
X69475614Y-128633664D03*
D26*
X70413114Y-128196164D03*
X70913114Y-128196164D03*
D27*
X71850614Y-128633664D03*
X71850614Y-129133664D03*
X71850614Y-129633664D03*
X71850614Y-130133664D03*
X71850614Y-130633664D03*
X71850614Y-131133664D03*
D26*
X70913114Y-131571164D03*
G04 #@! TD*
D49*
G04 #@! TO.C,Q201*
X110020000Y-138850000D03*
X111900000Y-138850000D03*
G04 #@! TD*
D11*
G04 #@! TO.C,R441*
X66110000Y-141300000D03*
X65090000Y-141300000D03*
G04 #@! TD*
D14*
G04 #@! TO.C,C211*
X111475000Y-45530000D03*
X111475000Y-46490000D03*
G04 #@! TD*
D15*
G04 #@! TO.C,R525*
X78517245Y-69322013D03*
X79537245Y-69322013D03*
G04 #@! TD*
D11*
G04 #@! TO.C,R102*
X165378542Y-39830580D03*
X164358542Y-39830580D03*
G04 #@! TD*
D50*
G04 #@! TO.C,Y201*
X125800000Y-128140000D03*
X125800000Y-130340000D03*
X124100000Y-130340000D03*
X124100000Y-128140000D03*
G04 #@! TD*
D11*
G04 #@! TO.C,R500*
X79587245Y-115422013D03*
X78567245Y-115422013D03*
G04 #@! TD*
D33*
G04 #@! TO.C,C405*
X90400000Y-148360000D03*
X90400000Y-152760000D03*
G04 #@! TD*
D11*
G04 #@! TO.C,R480*
X68080284Y-28919999D03*
X67060284Y-28919999D03*
G04 #@! TD*
G04 #@! TO.C,R402*
X68080284Y-163999999D03*
X67060284Y-163999999D03*
G04 #@! TD*
D70*
G04 #@! TO.C,L301*
X174487500Y-166962500D03*
X174487500Y-168537500D03*
G04 #@! TD*
D11*
G04 #@! TO.C,R489*
X66110000Y-113460000D03*
X65090000Y-113460000D03*
G04 #@! TD*
G04 #@! TO.C,R480*
X68080284Y-118919999D03*
X67060284Y-118919999D03*
G04 #@! TD*
D22*
G04 #@! TO.C,L101*
X166468542Y-37580580D03*
X166468542Y-35580580D03*
G04 #@! TD*
D11*
G04 #@! TO.C,R495*
X66110000Y-110140000D03*
X65090000Y-110140000D03*
G04 #@! TD*
D15*
G04 #@! TO.C,R310*
X174090000Y-75325000D03*
X175110000Y-75325000D03*
G04 #@! TD*
D14*
G04 #@! TO.C,C613*
X185267446Y-136570000D03*
X185267446Y-137530000D03*
G04 #@! TD*
D11*
G04 #@! TO.C,R456*
X68080284Y-132839999D03*
X67060284Y-132839999D03*
G04 #@! TD*
G04 #@! TO.C,R488*
X68080284Y-114279999D03*
X67060284Y-114279999D03*
G04 #@! TD*
D25*
G04 #@! TO.C,U401*
X70663114Y-71863664D03*
X70663114Y-72863664D03*
D26*
X70413114Y-74051164D03*
D27*
X69475614Y-73613664D03*
X69475614Y-73113664D03*
X69475614Y-72613664D03*
X69475614Y-72113664D03*
X69475614Y-71613664D03*
X69475614Y-71113664D03*
D26*
X70413114Y-70676164D03*
X70913114Y-70676164D03*
D27*
X71850614Y-71113664D03*
X71850614Y-71613664D03*
X71850614Y-72113664D03*
X71850614Y-72613664D03*
X71850614Y-73113664D03*
X71850614Y-73613664D03*
D26*
X70913114Y-74051164D03*
G04 #@! TD*
D11*
G04 #@! TO.C,R437*
X66110000Y-143620000D03*
X65090000Y-143620000D03*
G04 #@! TD*
D38*
G04 #@! TO.C,L603*
X114145000Y-111830000D03*
X115115000Y-111830000D03*
G04 #@! TD*
D11*
G04 #@! TO.C,R421*
X66110000Y-62900000D03*
X65090000Y-62900000D03*
G04 #@! TD*
G04 #@! TO.C,R427*
X66110000Y-149580000D03*
X65090000Y-149580000D03*
G04 #@! TD*
G04 #@! TO.C,R424*
X68080284Y-61399999D03*
X67060284Y-61399999D03*
G04 #@! TD*
D12*
G04 #@! TO.C,C610*
X175175000Y-132750000D03*
X175175000Y-131790000D03*
G04 #@! TD*
D11*
G04 #@! TO.C,R460*
X68080284Y-130519999D03*
X67060284Y-130519999D03*
G04 #@! TD*
D12*
G04 #@! TO.C,C209*
X112976472Y-123070000D03*
X112976472Y-122110000D03*
G04 #@! TD*
D14*
G04 #@! TO.C,C627*
X110470000Y-25550000D03*
X110470000Y-26510000D03*
G04 #@! TD*
D71*
G04 #@! TO.C,U302*
X170175000Y-81700000D03*
D72*
X171675000Y-81787500D03*
D71*
X173175000Y-81700000D03*
G04 #@! TD*
D13*
G04 #@! TO.C,C206*
X118795000Y-128215000D03*
X119755000Y-128215000D03*
G04 #@! TD*
D58*
G04 #@! TO.C,VCC601*
X179536306Y-34850000D03*
X179536306Y-35250000D03*
X179936306Y-35250000D03*
X179936306Y-34850000D03*
G04 #@! TD*
D11*
G04 #@! TO.C,R445*
X66110000Y-138980000D03*
X65090000Y-138980000D03*
G04 #@! TD*
G04 #@! TO.C,R406*
X68080284Y-161679999D03*
X67060284Y-161679999D03*
G04 #@! TD*
G04 #@! TO.C,R491*
X66110000Y-22460000D03*
X65090000Y-22460000D03*
G04 #@! TD*
G04 #@! TO.C,R414*
X68080284Y-67039999D03*
X67060284Y-67039999D03*
G04 #@! TD*
G04 #@! TO.C,R444*
X68080284Y-49799999D03*
X67060284Y-49799999D03*
G04 #@! TD*
G04 #@! TO.C,R520*
X79587245Y-150422013D03*
X78567245Y-150422013D03*
G04 #@! TD*
G04 #@! TO.C,R469*
X66110000Y-125060000D03*
X65090000Y-125060000D03*
G04 #@! TD*
D39*
G04 #@! TO.C,U601*
X181093488Y-43023008D03*
X181093488Y-44773008D03*
X182843488Y-43023008D03*
X182843488Y-44773008D03*
D40*
X179518488Y-45648008D03*
X179518488Y-45148008D03*
X179518488Y-44648008D03*
X179518488Y-44148008D03*
X179518488Y-43648008D03*
X179518488Y-43148008D03*
X179518488Y-42648008D03*
X179518488Y-42148008D03*
D41*
X180218488Y-41448008D03*
X180718488Y-41448008D03*
X181218488Y-41448008D03*
X181718488Y-41448008D03*
X182218488Y-41448008D03*
X182718488Y-41448008D03*
X183218488Y-41448008D03*
X183718488Y-41448008D03*
D40*
X184418488Y-42148008D03*
X184418488Y-42648008D03*
X184418488Y-43148008D03*
X184418488Y-43648008D03*
X184418488Y-44148008D03*
X184418488Y-44648008D03*
X184418488Y-45148008D03*
X184418488Y-45648008D03*
D41*
X183718488Y-46348008D03*
X183218488Y-46348008D03*
X182718488Y-46348008D03*
X182218488Y-46348008D03*
X181718488Y-46348008D03*
X181218488Y-46348008D03*
X180718488Y-46348008D03*
X180218488Y-46348008D03*
G04 #@! TD*
D11*
G04 #@! TO.C,R421*
X66110000Y-152900000D03*
X65090000Y-152900000D03*
G04 #@! TD*
G04 #@! TO.C,R494*
X68080284Y-110639999D03*
X67060284Y-110639999D03*
G04 #@! TD*
D69*
G04 #@! TO.C,L604*
X116750000Y-24540000D03*
X116750000Y-23570000D03*
G04 #@! TD*
D35*
G04 #@! TO.C,U418*
X88789745Y-141497013D03*
X88789745Y-142347013D03*
X89639745Y-141497013D03*
X89639745Y-142347013D03*
D27*
X87752245Y-142672013D03*
X87752245Y-142172013D03*
X87752245Y-141672013D03*
X87752245Y-141172013D03*
D26*
X88464745Y-140459513D03*
X88964745Y-140459513D03*
X89464745Y-140459513D03*
X89964745Y-140459513D03*
D27*
X90677245Y-141172013D03*
X90677245Y-141672013D03*
X90677245Y-142172013D03*
X90677245Y-142672013D03*
D26*
X89964745Y-143384513D03*
X89464745Y-143384513D03*
X88964745Y-143384513D03*
X88464745Y-143384513D03*
G04 #@! TD*
D50*
G04 #@! TO.C,Y602*
X107720000Y-113490000D03*
X107720000Y-115690000D03*
X106020000Y-115690000D03*
X106020000Y-113490000D03*
G04 #@! TD*
D12*
G04 #@! TO.C,C108*
X152018542Y-125040580D03*
X152018542Y-124080580D03*
G04 #@! TD*
D11*
G04 #@! TO.C,R522*
X79587245Y-153922013D03*
X78567245Y-153922013D03*
G04 #@! TD*
D13*
G04 #@! TO.C,C612*
X181131306Y-121000000D03*
X182091306Y-121000000D03*
G04 #@! TD*
D11*
G04 #@! TO.C,R458*
X68080284Y-41519999D03*
X67060284Y-41519999D03*
G04 #@! TD*
G04 #@! TO.C,R510*
X79587245Y-42922013D03*
X78567245Y-42922013D03*
G04 #@! TD*
D14*
G04 #@! TO.C,C101*
X158068542Y-135900580D03*
X158068542Y-136860580D03*
G04 #@! TD*
D71*
G04 #@! TO.C,U302*
X170175000Y-171700000D03*
D72*
X171675000Y-171787500D03*
D71*
X173175000Y-171700000D03*
G04 #@! TD*
D12*
G04 #@! TO.C,C118*
X147368542Y-128560580D03*
X147368542Y-127600580D03*
G04 #@! TD*
D11*
G04 #@! TO.C,R411*
X66110000Y-158860000D03*
X65090000Y-158860000D03*
G04 #@! TD*
D36*
G04 #@! TO.C,R105*
X171950000Y-69640000D03*
X171950000Y-70660000D03*
G04 #@! TD*
D11*
G04 #@! TO.C,R493*
X66110000Y-111140000D03*
X65090000Y-111140000D03*
G04 #@! TD*
G04 #@! TO.C,R431*
X66110000Y-57260000D03*
X65090000Y-57260000D03*
G04 #@! TD*
G04 #@! TO.C,R522*
X79587245Y-63922013D03*
X78567245Y-63922013D03*
G04 #@! TD*
D36*
G04 #@! TO.C,R307*
X180137500Y-173440000D03*
X180137500Y-174460000D03*
G04 #@! TD*
D73*
G04 #@! TO.C,AE602*
X121640000Y-12340000D03*
X121640000Y-24540000D03*
G04 #@! TD*
D19*
G04 #@! TO.C,U416*
X82602245Y-144897013D03*
X82602245Y-144047013D03*
X81752245Y-144897013D03*
X81752245Y-144047013D03*
D20*
X83639745Y-143722013D03*
X83639745Y-144222013D03*
X83639745Y-144722013D03*
X83639745Y-145222013D03*
D21*
X82927245Y-145934513D03*
X82427245Y-145934513D03*
X81927245Y-145934513D03*
X81427245Y-145934513D03*
D20*
X80714745Y-145222013D03*
X80714745Y-144722013D03*
X80714745Y-144222013D03*
X80714745Y-143722013D03*
D21*
X81427245Y-143009513D03*
X81927245Y-143009513D03*
X82427245Y-143009513D03*
X82927245Y-143009513D03*
G04 #@! TD*
D11*
G04 #@! TO.C,R422*
X68080284Y-62399999D03*
X67060284Y-62399999D03*
G04 #@! TD*
G04 #@! TO.C,R478*
X68080284Y-119919999D03*
X67060284Y-119919999D03*
G04 #@! TD*
G04 #@! TO.C,R103*
X165378542Y-38830580D03*
X164358542Y-38830580D03*
G04 #@! TD*
D13*
G04 #@! TO.C,C104*
X164388542Y-40880580D03*
X165348542Y-40880580D03*
G04 #@! TD*
D52*
G04 #@! TO.C,SW102*
X152860000Y-152840000D03*
X152860000Y-143740000D03*
X148360000Y-152840000D03*
X148360000Y-143740000D03*
G04 #@! TD*
D33*
G04 #@! TO.C,C406*
X96400000Y-148360000D03*
X96400000Y-152760000D03*
G04 #@! TD*
D11*
G04 #@! TO.C,R524*
X79587245Y-157422013D03*
X78567245Y-157422013D03*
G04 #@! TD*
G04 #@! TO.C,R503*
X79537245Y-30822013D03*
X78517245Y-30822013D03*
G04 #@! TD*
G04 #@! TO.C,R440*
X68080284Y-52119999D03*
X67060284Y-52119999D03*
G04 #@! TD*
G04 #@! TO.C,R485*
X66110000Y-115780000D03*
X65090000Y-115780000D03*
G04 #@! TD*
G04 #@! TO.C,R521*
X79537245Y-62322013D03*
X78517245Y-62322013D03*
G04 #@! TD*
D12*
G04 #@! TO.C,C623*
X184586306Y-125530000D03*
X184586306Y-124570000D03*
G04 #@! TD*
D11*
G04 #@! TO.C,R443*
X66110000Y-140300000D03*
X65090000Y-140300000D03*
G04 #@! TD*
D13*
G04 #@! TO.C,C628*
X117170000Y-25560000D03*
X118130000Y-25560000D03*
G04 #@! TD*
D54*
G04 #@! TO.C,Q301*
X174850000Y-71175000D03*
X174850000Y-71825000D03*
X174850000Y-72475000D03*
X173175000Y-72475000D03*
X173175000Y-71825000D03*
X173175000Y-71175000D03*
G04 #@! TD*
D11*
G04 #@! TO.C,R206*
X138860000Y-97820000D03*
X137840000Y-97820000D03*
G04 #@! TD*
D25*
G04 #@! TO.C,U408*
X70663114Y-39383664D03*
X70663114Y-40383664D03*
D26*
X70413114Y-41571164D03*
D27*
X69475614Y-41133664D03*
X69475614Y-40633664D03*
X69475614Y-40133664D03*
X69475614Y-39633664D03*
X69475614Y-39133664D03*
X69475614Y-38633664D03*
D26*
X70413114Y-38196164D03*
X70913114Y-38196164D03*
D27*
X71850614Y-38633664D03*
X71850614Y-39133664D03*
X71850614Y-39633664D03*
X71850614Y-40133664D03*
X71850614Y-40633664D03*
X71850614Y-41133664D03*
D26*
X70913114Y-41571164D03*
G04 #@! TD*
D11*
G04 #@! TO.C,R526*
X79587245Y-70922013D03*
X78567245Y-70922013D03*
G04 #@! TD*
G04 #@! TO.C,R434*
X68080284Y-55439999D03*
X67060284Y-55439999D03*
G04 #@! TD*
G04 #@! TO.C,R474*
X68080284Y-32239999D03*
X67060284Y-32239999D03*
G04 #@! TD*
D12*
G04 #@! TO.C,C116*
X164818542Y-127223801D03*
X164818542Y-126263801D03*
G04 #@! TD*
G04 #@! TO.C,C623*
X184586306Y-35530000D03*
X184586306Y-34570000D03*
G04 #@! TD*
D11*
G04 #@! TO.C,R453*
X66110000Y-44340000D03*
X65090000Y-44340000D03*
G04 #@! TD*
G04 #@! TO.C,R448*
X68080284Y-137479999D03*
X67060284Y-137479999D03*
G04 #@! TD*
D12*
G04 #@! TO.C,C209*
X112976472Y-33070000D03*
X112976472Y-32110000D03*
G04 #@! TD*
D11*
G04 #@! TO.C,R523*
X79537245Y-65822013D03*
X78517245Y-65822013D03*
G04 #@! TD*
D25*
G04 #@! TO.C,U406*
X70663114Y-48663664D03*
X70663114Y-49663664D03*
D26*
X70413114Y-50851164D03*
D27*
X69475614Y-50413664D03*
X69475614Y-49913664D03*
X69475614Y-49413664D03*
X69475614Y-48913664D03*
X69475614Y-48413664D03*
X69475614Y-47913664D03*
D26*
X70413114Y-47476164D03*
X70913114Y-47476164D03*
D27*
X71850614Y-47913664D03*
X71850614Y-48413664D03*
X71850614Y-48913664D03*
X71850614Y-49413664D03*
X71850614Y-49913664D03*
X71850614Y-50413664D03*
D26*
X70913114Y-50851164D03*
G04 #@! TD*
D10*
G04 #@! TO.C,C102*
X149948542Y-128280580D03*
X148988542Y-128280580D03*
G04 #@! TD*
D15*
G04 #@! TO.C,R517*
X78517245Y-55322013D03*
X79537245Y-55322013D03*
G04 #@! TD*
D11*
G04 #@! TO.C,R505*
X79537245Y-34322013D03*
X78517245Y-34322013D03*
G04 #@! TD*
D19*
G04 #@! TO.C,U413*
X82602245Y-116897013D03*
X82602245Y-116047013D03*
X81752245Y-116897013D03*
X81752245Y-116047013D03*
D20*
X83639745Y-115722013D03*
X83639745Y-116222013D03*
X83639745Y-116722013D03*
X83639745Y-117222013D03*
D21*
X82927245Y-117934513D03*
X82427245Y-117934513D03*
X81927245Y-117934513D03*
X81427245Y-117934513D03*
D20*
X80714745Y-117222013D03*
X80714745Y-116722013D03*
X80714745Y-116222013D03*
X80714745Y-115722013D03*
D21*
X81427245Y-115009513D03*
X81927245Y-115009513D03*
X82427245Y-115009513D03*
X82927245Y-115009513D03*
G04 #@! TD*
D14*
G04 #@! TO.C,C107*
X151618542Y-42900580D03*
X151618542Y-43860580D03*
G04 #@! TD*
D11*
G04 #@! TO.C,R478*
X68080284Y-29919999D03*
X67060284Y-29919999D03*
G04 #@! TD*
D12*
G04 #@! TO.C,C626*
X110440000Y-113180000D03*
X110440000Y-112220000D03*
G04 #@! TD*
D11*
G04 #@! TO.C,R482*
X68080284Y-27599999D03*
X67060284Y-27599999D03*
G04 #@! TD*
D10*
G04 #@! TO.C,C212*
X106156472Y-135790000D03*
X105196472Y-135790000D03*
G04 #@! TD*
D36*
G04 #@! TO.C,R309*
X170925000Y-160750000D03*
X170925000Y-161770000D03*
G04 #@! TD*
D42*
G04 #@! TO.C,U201*
X112260000Y-37880000D03*
X111580000Y-37880000D03*
X110900000Y-37880000D03*
X110220000Y-37880000D03*
X109540000Y-37880000D03*
X112260000Y-38560000D03*
X111580000Y-38560000D03*
X110900000Y-38560000D03*
X110220000Y-38560000D03*
X109540000Y-38560000D03*
X112260000Y-39240000D03*
X111580000Y-39240000D03*
X110900000Y-39240000D03*
X110220000Y-39240000D03*
X109540000Y-39240000D03*
X112260000Y-39920000D03*
X111580000Y-39920000D03*
X110900000Y-39920000D03*
X110220000Y-39920000D03*
X109540000Y-39920000D03*
X112260000Y-40600000D03*
X111580000Y-40600000D03*
X110900000Y-40600000D03*
X110220000Y-40600000D03*
X109540000Y-40600000D03*
D43*
X107100000Y-34290000D03*
X107500000Y-34290000D03*
X107900000Y-34290000D03*
X108300000Y-34290000D03*
X108700000Y-34290000D03*
X109100000Y-34290000D03*
X109500000Y-34290000D03*
X109900000Y-34290000D03*
X110300000Y-34290000D03*
X110700000Y-34290000D03*
X111100000Y-34290000D03*
X111500000Y-34290000D03*
X111900000Y-34290000D03*
X112300000Y-34290000D03*
X112700000Y-34290000D03*
X113100000Y-34290000D03*
X113500000Y-34290000D03*
X113900000Y-34290000D03*
X114300000Y-34290000D03*
X114700000Y-34290000D03*
D44*
X115850000Y-35440000D03*
X115850000Y-35840000D03*
X115850000Y-36240000D03*
X115850000Y-36640000D03*
X115850000Y-37040000D03*
X115850000Y-37440000D03*
X115850000Y-37840000D03*
X115850000Y-38240000D03*
X115850000Y-38640000D03*
X115850000Y-39040000D03*
X115850000Y-39440000D03*
X115850000Y-39840000D03*
X115850000Y-40240000D03*
X115850000Y-40640000D03*
X115850000Y-41040000D03*
X115850000Y-41440000D03*
X115850000Y-41840000D03*
X115850000Y-42240000D03*
X115850000Y-42640000D03*
X115850000Y-43040000D03*
D43*
X114700000Y-44190000D03*
X114300000Y-44190000D03*
X113900000Y-44190000D03*
X113500000Y-44190000D03*
X113100000Y-44190000D03*
X112700000Y-44190000D03*
X112300000Y-44190000D03*
X111900000Y-44190000D03*
X111500000Y-44190000D03*
X111100000Y-44190000D03*
X110700000Y-44190000D03*
X110300000Y-44190000D03*
X109900000Y-44190000D03*
X109500000Y-44190000D03*
X109100000Y-44190000D03*
X108700000Y-44190000D03*
X108300000Y-44190000D03*
X107900000Y-44190000D03*
X107500000Y-44190000D03*
X107100000Y-44190000D03*
D44*
X105950000Y-43040000D03*
X105950000Y-42640000D03*
X105950000Y-42240000D03*
X105950000Y-41840000D03*
X105950000Y-41440000D03*
X105950000Y-41040000D03*
X105950000Y-40640000D03*
X105950000Y-40240000D03*
X105950000Y-39840000D03*
X105950000Y-39440000D03*
X105950000Y-39040000D03*
X105950000Y-38640000D03*
X105950000Y-38240000D03*
X105950000Y-37840000D03*
X105950000Y-37440000D03*
X105950000Y-37040000D03*
X105950000Y-36640000D03*
X105950000Y-36240000D03*
X105950000Y-35840000D03*
X105950000Y-35440000D03*
G04 #@! TD*
D11*
G04 #@! TO.C,R436*
X68080284Y-144439999D03*
X67060284Y-144439999D03*
G04 #@! TD*
D73*
G04 #@! TO.C,AE602*
X121640000Y-102340000D03*
X121640000Y-114540000D03*
G04 #@! TD*
D11*
G04 #@! TO.C,R422*
X68080284Y-152399999D03*
X67060284Y-152399999D03*
G04 #@! TD*
D10*
G04 #@! TO.C,C619*
X180016306Y-32625000D03*
X179056306Y-32625000D03*
G04 #@! TD*
D11*
G04 #@! TO.C,R206*
X138860000Y-7820000D03*
X137840000Y-7820000D03*
G04 #@! TD*
D36*
G04 #@! TO.C,R208*
X113210000Y-138340000D03*
X113210000Y-139360000D03*
G04 #@! TD*
D12*
G04 #@! TO.C,C103*
X158243542Y-33440580D03*
X158243542Y-32480580D03*
G04 #@! TD*
D23*
G04 #@! TO.C,Q414*
X76327245Y-65034513D03*
X76977245Y-65034513D03*
X77627245Y-65034513D03*
X77627245Y-66709513D03*
X76977245Y-66709513D03*
X76327245Y-66709513D03*
G04 #@! TD*
G04 #@! TO.C,Q403*
X76327245Y-26534513D03*
X76977245Y-26534513D03*
X77627245Y-26534513D03*
X77627245Y-28209513D03*
X76977245Y-28209513D03*
X76327245Y-28209513D03*
G04 #@! TD*
D48*
G04 #@! TO.C,SW101*
X155790000Y-143750000D03*
X155790000Y-152850000D03*
X160290000Y-143750000D03*
X160290000Y-152850000D03*
G04 #@! TD*
D11*
G04 #@! TO.C,R490*
X68080284Y-112959999D03*
X67060284Y-112959999D03*
G04 #@! TD*
D23*
G04 #@! TO.C,Q410*
X76327245Y-141034513D03*
X76977245Y-141034513D03*
X77627245Y-141034513D03*
X77627245Y-142709513D03*
X76977245Y-142709513D03*
X76327245Y-142709513D03*
G04 #@! TD*
D12*
G04 #@! TO.C,C207*
X117176472Y-35970000D03*
X117176472Y-35010000D03*
G04 #@! TD*
D74*
G04 #@! TO.C,L602*
X183711306Y-129650000D03*
X185213908Y-128147398D03*
G04 #@! TD*
D11*
G04 #@! TO.C,R407*
X66110000Y-71180000D03*
X65090000Y-71180000D03*
G04 #@! TD*
G04 #@! TO.C,R469*
X66110000Y-35060000D03*
X65090000Y-35060000D03*
G04 #@! TD*
G04 #@! TO.C,R464*
X68080284Y-38199999D03*
X67060284Y-38199999D03*
G04 #@! TD*
G04 #@! TO.C,R486*
X68080284Y-115279999D03*
X67060284Y-115279999D03*
G04 #@! TD*
D15*
G04 #@! TO.C,R517*
X78517245Y-145322013D03*
X79537245Y-145322013D03*
G04 #@! TD*
D11*
G04 #@! TO.C,R413*
X66110000Y-67540000D03*
X65090000Y-67540000D03*
G04 #@! TD*
D19*
G04 #@! TO.C,U417*
X82602245Y-158897013D03*
X82602245Y-158047013D03*
X81752245Y-158897013D03*
X81752245Y-158047013D03*
D20*
X83639745Y-157722013D03*
X83639745Y-158222013D03*
X83639745Y-158722013D03*
X83639745Y-159222013D03*
D21*
X82927245Y-159934513D03*
X82427245Y-159934513D03*
X81927245Y-159934513D03*
X81427245Y-159934513D03*
D20*
X80714745Y-159222013D03*
X80714745Y-158722013D03*
X80714745Y-158222013D03*
X80714745Y-157722013D03*
D21*
X81427245Y-157009513D03*
X81927245Y-157009513D03*
X82427245Y-157009513D03*
X82927245Y-157009513D03*
G04 #@! TD*
D11*
G04 #@! TO.C,R102*
X165378542Y-129830580D03*
X164358542Y-129830580D03*
G04 #@! TD*
D14*
G04 #@! TO.C,C306*
X174725000Y-82745000D03*
X174725000Y-83705000D03*
G04 #@! TD*
D24*
G04 #@! TO.C,C605*
X185460589Y-41239411D03*
X186139411Y-40560589D03*
G04 #@! TD*
D11*
G04 #@! TO.C,R441*
X66110000Y-51300000D03*
X65090000Y-51300000D03*
G04 #@! TD*
G04 #@! TO.C,R506*
X79587245Y-125922013D03*
X78567245Y-125922013D03*
G04 #@! TD*
D36*
G04 #@! TO.C,R309*
X170925000Y-70750000D03*
X170925000Y-71770000D03*
G04 #@! TD*
D11*
G04 #@! TO.C,R404*
X68080284Y-162999999D03*
X67060284Y-162999999D03*
G04 #@! TD*
G04 #@! TO.C,R409*
X66110000Y-69860000D03*
X65090000Y-69860000D03*
G04 #@! TD*
D33*
G04 #@! TO.C,C403*
X126400000Y-148400000D03*
X126400000Y-152800000D03*
G04 #@! TD*
D14*
G04 #@! TO.C,C218*
X121350000Y-130410000D03*
X121350000Y-131370000D03*
G04 #@! TD*
D47*
G04 #@! TO.C,D1281*
X175200000Y-158250000D03*
X175200000Y-155450000D03*
G04 #@! TD*
D12*
G04 #@! TO.C,C305*
X180087500Y-166955000D03*
X180087500Y-165995000D03*
G04 #@! TD*
D11*
G04 #@! TO.C,R470*
X68080284Y-34559999D03*
X67060284Y-34559999D03*
G04 #@! TD*
G04 #@! TO.C,R484*
X68080284Y-116599999D03*
X67060284Y-116599999D03*
G04 #@! TD*
D53*
G04 #@! TO.C,C607*
X179500000Y-39600000D03*
X178821178Y-38921178D03*
G04 #@! TD*
D11*
G04 #@! TO.C,R492*
X68080284Y-21959999D03*
X67060284Y-21959999D03*
G04 #@! TD*
D51*
G04 #@! TO.C,SW301*
X79090000Y-175081800D03*
X76550000Y-175081800D03*
X76550000Y-166471800D03*
X79090000Y-166471800D03*
G04 #@! TD*
D25*
G04 #@! TO.C,U402*
X70663114Y-157223664D03*
X70663114Y-158223664D03*
D26*
X70413114Y-159411164D03*
D27*
X69475614Y-158973664D03*
X69475614Y-158473664D03*
X69475614Y-157973664D03*
X69475614Y-157473664D03*
X69475614Y-156973664D03*
X69475614Y-156473664D03*
D26*
X70413114Y-156036164D03*
X70913114Y-156036164D03*
D27*
X71850614Y-156473664D03*
X71850614Y-156973664D03*
X71850614Y-157473664D03*
X71850614Y-157973664D03*
X71850614Y-158473664D03*
X71850614Y-158973664D03*
D26*
X70913114Y-159411164D03*
G04 #@! TD*
D10*
G04 #@! TO.C,C621*
X185566306Y-36525000D03*
X184606306Y-36525000D03*
G04 #@! TD*
D11*
G04 #@! TO.C,R473*
X66110000Y-122740000D03*
X65090000Y-122740000D03*
G04 #@! TD*
D50*
G04 #@! TO.C,Y601*
X172375000Y-132975000D03*
X172375000Y-135175000D03*
X170675000Y-135175000D03*
X170675000Y-132975000D03*
G04 #@! TD*
D10*
G04 #@! TO.C,C620*
X186041306Y-122625000D03*
X185081306Y-122625000D03*
G04 #@! TD*
D55*
G04 #@! TO.C,U101*
X156458542Y-41090580D03*
X157138542Y-41090580D03*
X157818542Y-41090580D03*
X158498542Y-41090580D03*
X159178542Y-41090580D03*
X156458542Y-40410580D03*
X157138542Y-40410580D03*
X157818542Y-40410580D03*
X158498542Y-40410580D03*
X159178542Y-40410580D03*
X156458542Y-39730580D03*
X157138542Y-39730580D03*
X157818542Y-39730580D03*
X158498542Y-39730580D03*
X159178542Y-39730580D03*
X156458542Y-39050580D03*
X157138542Y-39050580D03*
X157818542Y-39050580D03*
X158498542Y-39050580D03*
X159178542Y-39050580D03*
X156458542Y-38370580D03*
X157138542Y-38370580D03*
X157818542Y-38370580D03*
X158498542Y-38370580D03*
X159178542Y-38370580D03*
D56*
X161618542Y-44680580D03*
X161218542Y-44680580D03*
X160818542Y-44680580D03*
X160418542Y-44680580D03*
X160018542Y-44680580D03*
X159618542Y-44680580D03*
X159218542Y-44680580D03*
X158818542Y-44680580D03*
X158418542Y-44680580D03*
X158018542Y-44680580D03*
X157618542Y-44680580D03*
X157218542Y-44680580D03*
X156818542Y-44680580D03*
X156418542Y-44680580D03*
X156018542Y-44680580D03*
X155618542Y-44680580D03*
X155218542Y-44680580D03*
X154818542Y-44680580D03*
X154418542Y-44680580D03*
X154018542Y-44680580D03*
D57*
X152868542Y-43530580D03*
X152868542Y-43130580D03*
X152868542Y-42730580D03*
X152868542Y-42330580D03*
X152868542Y-41930580D03*
X152868542Y-41530580D03*
X152868542Y-41130580D03*
X152868542Y-40730580D03*
X152868542Y-40330580D03*
X152868542Y-39930580D03*
X152868542Y-39530580D03*
X152868542Y-39130580D03*
X152868542Y-38730580D03*
X152868542Y-38330580D03*
X152868542Y-37930580D03*
X152868542Y-37530580D03*
X152868542Y-37130580D03*
X152868542Y-36730580D03*
X152868542Y-36330580D03*
X152868542Y-35930580D03*
D56*
X154018542Y-34780580D03*
X154418542Y-34780580D03*
X154818542Y-34780580D03*
X155218542Y-34780580D03*
X155618542Y-34780580D03*
X156018542Y-34780580D03*
X156418542Y-34780580D03*
X156818542Y-34780580D03*
X157218542Y-34780580D03*
X157618542Y-34780580D03*
X158018542Y-34780580D03*
X158418542Y-34780580D03*
X158818542Y-34780580D03*
X159218542Y-34780580D03*
X159618542Y-34780580D03*
X160018542Y-34780580D03*
X160418542Y-34780580D03*
X160818542Y-34780580D03*
X161218542Y-34780580D03*
X161618542Y-34780580D03*
D57*
X162768542Y-35930580D03*
X162768542Y-36330580D03*
X162768542Y-36730580D03*
X162768542Y-37130580D03*
X162768542Y-37530580D03*
X162768542Y-37930580D03*
X162768542Y-38330580D03*
X162768542Y-38730580D03*
X162768542Y-39130580D03*
X162768542Y-39530580D03*
X162768542Y-39930580D03*
X162768542Y-40330580D03*
X162768542Y-40730580D03*
X162768542Y-41130580D03*
X162768542Y-41530580D03*
X162768542Y-41930580D03*
X162768542Y-42330580D03*
X162768542Y-42730580D03*
X162768542Y-43130580D03*
X162768542Y-43530580D03*
G04 #@! TD*
D74*
G04 #@! TO.C,L602*
X183711306Y-39650000D03*
X185213908Y-38147398D03*
G04 #@! TD*
D11*
G04 #@! TO.C,R524*
X79587245Y-67422013D03*
X78567245Y-67422013D03*
G04 #@! TD*
G04 #@! TO.C,R438*
X68080284Y-143119999D03*
X67060284Y-143119999D03*
G04 #@! TD*
D19*
G04 #@! TO.C,U414*
X83602245Y-137347013D03*
X83602245Y-136497013D03*
X82752245Y-137347013D03*
X82752245Y-136497013D03*
D20*
X84639745Y-136172013D03*
X84639745Y-136672013D03*
X84639745Y-137172013D03*
X84639745Y-137672013D03*
D21*
X83927245Y-138384513D03*
X83427245Y-138384513D03*
X82927245Y-138384513D03*
X82427245Y-138384513D03*
D20*
X81714745Y-137672013D03*
X81714745Y-137172013D03*
X81714745Y-136672013D03*
X81714745Y-136172013D03*
D21*
X82427245Y-135459513D03*
X82927245Y-135459513D03*
X83427245Y-135459513D03*
X83927245Y-135459513D03*
G04 #@! TD*
D11*
G04 #@! TO.C,R513*
X79537245Y-138322013D03*
X78517245Y-138322013D03*
G04 #@! TD*
D28*
G04 #@! TO.C,R303*
X181187500Y-84460000D03*
X181187500Y-83440000D03*
G04 #@! TD*
D25*
G04 #@! TO.C,U401*
X70663114Y-161863664D03*
X70663114Y-162863664D03*
D26*
X70413114Y-164051164D03*
D27*
X69475614Y-163613664D03*
X69475614Y-163113664D03*
X69475614Y-162613664D03*
X69475614Y-162113664D03*
X69475614Y-161613664D03*
X69475614Y-161113664D03*
D26*
X70413114Y-160676164D03*
X70913114Y-160676164D03*
D27*
X71850614Y-161113664D03*
X71850614Y-161613664D03*
X71850614Y-162113664D03*
X71850614Y-162613664D03*
X71850614Y-163113664D03*
X71850614Y-163613664D03*
D26*
X70913114Y-164051164D03*
G04 #@! TD*
D11*
G04 #@! TO.C,R491*
X66110000Y-112460000D03*
X65090000Y-112460000D03*
G04 #@! TD*
D10*
G04 #@! TO.C,C204*
X104330000Y-38090000D03*
X103370000Y-38090000D03*
G04 #@! TD*
D25*
G04 #@! TO.C,U404*
X70663114Y-147943664D03*
X70663114Y-148943664D03*
D26*
X70413114Y-150131164D03*
D27*
X69475614Y-149693664D03*
X69475614Y-149193664D03*
X69475614Y-148693664D03*
X69475614Y-148193664D03*
X69475614Y-147693664D03*
X69475614Y-147193664D03*
D26*
X70413114Y-146756164D03*
X70913114Y-146756164D03*
D27*
X71850614Y-147193664D03*
X71850614Y-147693664D03*
X71850614Y-148193664D03*
X71850614Y-148693664D03*
X71850614Y-149193664D03*
X71850614Y-149693664D03*
D26*
X70913114Y-150131164D03*
G04 #@! TD*
D11*
G04 #@! TO.C,R454*
X68080284Y-133839999D03*
X67060284Y-133839999D03*
G04 #@! TD*
D10*
G04 #@! TO.C,C102*
X149948542Y-38280580D03*
X148988542Y-38280580D03*
G04 #@! TD*
D12*
G04 #@! TO.C,C610*
X175175000Y-42750000D03*
X175175000Y-41790000D03*
G04 #@! TD*
D11*
G04 #@! TO.C,R434*
X68080284Y-145439999D03*
X67060284Y-145439999D03*
G04 #@! TD*
G04 #@! TO.C,R477*
X66110000Y-120420000D03*
X65090000Y-120420000D03*
G04 #@! TD*
D48*
G04 #@! TO.C,SW201*
X138410000Y-99700000D03*
X138410000Y-108800000D03*
X142910000Y-99700000D03*
X142910000Y-108800000D03*
G04 #@! TD*
D13*
G04 #@! TO.C,C622*
X183606306Y-123600000D03*
X184566306Y-123600000D03*
G04 #@! TD*
D36*
G04 #@! TO.C,R308*
X178127500Y-83440000D03*
X178127500Y-84460000D03*
G04 #@! TD*
D53*
G04 #@! TO.C,C608*
X178789411Y-40289411D03*
X178110589Y-39610589D03*
G04 #@! TD*
D33*
G04 #@! TO.C,C405*
X90400000Y-58360000D03*
X90400000Y-62760000D03*
G04 #@! TD*
D14*
G04 #@! TO.C,C109*
X155742070Y-45900580D03*
X155742070Y-46860580D03*
G04 #@! TD*
D11*
G04 #@! TO.C,R463*
X66110000Y-128700000D03*
X65090000Y-128700000D03*
G04 #@! TD*
G04 #@! TO.C,R489*
X66110000Y-23460000D03*
X65090000Y-23460000D03*
G04 #@! TD*
G04 #@! TO.C,R476*
X68080284Y-121239999D03*
X67060284Y-121239999D03*
G04 #@! TD*
D23*
G04 #@! TO.C,Q416*
X76327245Y-162034513D03*
X76977245Y-162034513D03*
X77627245Y-162034513D03*
X77627245Y-163709513D03*
X76977245Y-163709513D03*
X76327245Y-163709513D03*
G04 #@! TD*
D15*
G04 #@! TO.C,R501*
X78517245Y-117322013D03*
X79537245Y-117322013D03*
G04 #@! TD*
D33*
G04 #@! TO.C,C402*
X138300000Y-58400000D03*
X138300000Y-62800000D03*
G04 #@! TD*
D68*
G04 #@! TO.C,Q302*
X170912500Y-74285000D03*
X172812500Y-74285000D03*
X171862500Y-76165000D03*
G04 #@! TD*
D14*
G04 #@! TO.C,C616*
X180611306Y-124575000D03*
X180611306Y-125535000D03*
G04 #@! TD*
D23*
G04 #@! TO.C,Q401*
X76327245Y-19534513D03*
X76977245Y-19534513D03*
X77627245Y-19534513D03*
X77627245Y-21209513D03*
X76977245Y-21209513D03*
X76327245Y-21209513D03*
G04 #@! TD*
D11*
G04 #@! TO.C,R516*
X79587245Y-53422013D03*
X78567245Y-53422013D03*
G04 #@! TD*
D50*
G04 #@! TO.C,Y602*
X107720000Y-23490000D03*
X107720000Y-25690000D03*
X106020000Y-25690000D03*
X106020000Y-23490000D03*
G04 #@! TD*
D11*
G04 #@! TO.C,R451*
X66110000Y-45660000D03*
X65090000Y-45660000D03*
G04 #@! TD*
D10*
G04 #@! TO.C,C204*
X104330000Y-128090000D03*
X103370000Y-128090000D03*
G04 #@! TD*
D11*
G04 #@! TO.C,R498*
X79587245Y-111922013D03*
X78567245Y-111922013D03*
G04 #@! TD*
G04 #@! TO.C,R426*
X68080284Y-60079999D03*
X67060284Y-60079999D03*
G04 #@! TD*
G04 #@! TO.C,R497*
X79537245Y-110322013D03*
X78517245Y-110322013D03*
G04 #@! TD*
G04 #@! TO.C,R483*
X66110000Y-117100000D03*
X65090000Y-117100000D03*
G04 #@! TD*
G04 #@! TO.C,R481*
X66110000Y-28100000D03*
X65090000Y-28100000D03*
G04 #@! TD*
D15*
G04 #@! TO.C,R207*
X134560000Y-97730000D03*
X135580000Y-97730000D03*
G04 #@! TD*
D11*
G04 #@! TO.C,R106*
X149978542Y-129630580D03*
X148958542Y-129630580D03*
G04 #@! TD*
D23*
G04 #@! TO.C,Q409*
X76327245Y-47534513D03*
X76977245Y-47534513D03*
X77627245Y-47534513D03*
X77627245Y-49209513D03*
X76977245Y-49209513D03*
X76327245Y-49209513D03*
G04 #@! TD*
D11*
G04 #@! TO.C,R472*
X68080284Y-123559999D03*
X67060284Y-123559999D03*
G04 #@! TD*
D12*
G04 #@! TO.C,C601*
X177950000Y-42080000D03*
X177950000Y-41120000D03*
G04 #@! TD*
D11*
G04 #@! TO.C,R405*
X66110000Y-72180000D03*
X65090000Y-72180000D03*
G04 #@! TD*
D14*
G04 #@! TO.C,C613*
X185267446Y-46570000D03*
X185267446Y-47530000D03*
G04 #@! TD*
M02*
