M48
; DRILL file KiCad 10.0.3-2.fc44 date 2026-08-18T12:23:17
; FORMAT={-:-/ absolute / metric / decimal}
; #@! TF.CreationDate,2026-08-18T12:23:17+02:00
; #@! TF.GenerationSoftware,Kicad,Pcbnew,10.0.3-2.fc44
; #@! TF.FileFunction,Plated,1,4,PTH
FMAT,2
METRIC
; #@! TA.AperFunction,Plated,PTH,ViaDrill
T1C0.150
; #@! TA.AperFunction,Plated,PTH,ViaDrill
T2C0.200
; #@! TA.AperFunction,Plated,PTH,ComponentDrill
T3C0.200
; #@! TA.AperFunction,Plated,PTH,ViaDrill
T4C0.300
; #@! TA.AperFunction,Plated,PTH,ComponentDrill
T5C0.300
; #@! TA.AperFunction,Plated,PTH,ComponentDrill
T6C0.500
; #@! TA.AperFunction,Plated,PTH,ComponentDrill
T7C1.000
%
G90
G05
T1
X8.6Y-19.5
X8.6Y-20.45
X8.6Y-21.25
X8.6Y-22.2
X8.6Y-23.0
X8.6Y-23.95
X8.6Y-24.75
X8.6Y-25.7
X8.6Y-26.5
X8.6Y-27.45
X8.6Y-28.25
X8.6Y-29.2
X8.6Y-30.0
X8.6Y-30.95
X8.6Y-31.75
X8.6Y-32.7
X8.6Y-33.5
X8.6Y-34.45
X8.6Y-35.25
X8.6Y-36.2
X8.6Y-37.0
X8.6Y-37.95
X8.6Y-38.75
X8.6Y-39.7
X8.6Y-40.5
X8.6Y-41.45
X8.6Y-42.25
X8.6Y-43.2
X8.6Y-44.0
X8.6Y-44.95
X8.6Y-45.75
X8.6Y-46.7
X8.6Y-47.5
X8.6Y-48.45
X8.6Y-49.25
X8.6Y-50.2
X8.6Y-51.0
X8.6Y-51.95
X8.6Y-52.75
X8.6Y-53.7
X8.6Y-54.5
X8.6Y-55.45
X8.6Y-56.25
X8.6Y-57.2
X8.6Y-58.0
X8.6Y-58.95
X8.6Y-59.75
X8.6Y-60.7
X8.6Y-61.5
X8.6Y-62.45
X8.6Y-63.25
X8.6Y-64.2
X8.6Y-65.0
X8.6Y-65.95
X8.6Y-66.75
X8.6Y-67.7
X8.6Y-68.5
X8.6Y-69.45
X8.6Y-70.25
X8.6Y-71.2
X8.6Y-72.0
X8.6Y-72.95
X8.6Y-73.75
X8.6Y-74.7
X8.6Y-109.5
X8.6Y-110.45
X8.6Y-111.25
X8.6Y-112.2
X8.6Y-113.0
X8.6Y-113.95
X8.6Y-114.75
X8.6Y-115.7
X8.6Y-116.5
X8.6Y-117.45
X8.6Y-118.25
X8.6Y-119.2
X8.6Y-120.0
X8.6Y-120.95
X8.6Y-121.75
X8.6Y-122.7
X8.6Y-123.5
X8.6Y-124.45
X8.6Y-125.25
X8.6Y-126.2
X8.6Y-127.0
X8.6Y-127.95
X8.6Y-128.75
X8.6Y-129.7
X8.6Y-130.5
X8.6Y-131.45
X8.6Y-132.25
X8.6Y-133.2
X8.6Y-134.0
X8.6Y-134.95
X8.6Y-135.75
X8.6Y-136.7
X8.6Y-137.5
X8.6Y-138.45
X8.6Y-139.25
X8.6Y-140.2
X8.6Y-141.0
X8.6Y-141.95
X8.6Y-142.75
X8.6Y-143.7
X8.6Y-144.5
X8.6Y-145.45
X8.6Y-146.25
X8.6Y-147.2
X8.6Y-148.0
X8.6Y-148.95
X8.6Y-149.75
X8.6Y-150.7
X8.6Y-151.5
X8.6Y-152.45
X8.6Y-153.25
X8.6Y-154.2
X8.6Y-155.0
X8.6Y-155.95
X8.6Y-156.75
X8.6Y-157.7
X8.6Y-158.5
X8.6Y-159.45
X8.6Y-160.25
X8.6Y-161.2
X8.6Y-162.0
X8.6Y-162.95
X8.6Y-163.75
X8.6Y-164.7
X9.2Y-19.5
X9.2Y-20.45
X9.2Y-21.25
X9.2Y-22.2
X9.2Y-23.0
X9.2Y-23.95
X9.2Y-24.75
X9.2Y-25.7
X9.2Y-26.5
X9.2Y-27.45
X9.2Y-28.25
X9.2Y-29.2
X9.2Y-30.0
X9.2Y-30.95
X9.2Y-31.75
X9.2Y-32.7
X9.2Y-33.5
X9.2Y-34.45
X9.2Y-35.25
X9.2Y-36.2
X9.2Y-37.0
X9.2Y-37.95
X9.2Y-38.75
X9.2Y-39.7
X9.2Y-40.5
X9.2Y-41.45
X9.2Y-42.25
X9.2Y-43.2
X9.2Y-44.0
X9.2Y-44.95
X9.2Y-45.75
X9.2Y-46.7
X9.2Y-47.5
X9.2Y-48.45
X9.2Y-49.25
X9.2Y-50.2
X9.2Y-51.0
X9.2Y-51.95
X9.2Y-52.75
X9.2Y-53.7
X9.2Y-54.5
X9.2Y-55.45
X9.2Y-56.25
X9.2Y-57.2
X9.2Y-58.0
X9.2Y-58.95
X9.2Y-59.75
X9.2Y-60.7
X9.2Y-61.5
X9.2Y-62.45
X9.2Y-63.25
X9.2Y-64.2
X9.2Y-65.0
X9.2Y-65.95
X9.2Y-66.75
X9.2Y-67.7
X9.2Y-68.5
X9.2Y-69.45
X9.2Y-70.25
X9.2Y-71.2
X9.2Y-72.0
X9.2Y-72.95
X9.2Y-73.75
X9.2Y-74.7
X9.2Y-109.5
X9.2Y-110.45
X9.2Y-111.25
X9.2Y-112.2
X9.2Y-113.0
X9.2Y-113.95
X9.2Y-114.75
X9.2Y-115.7
X9.2Y-116.5
X9.2Y-117.45
X9.2Y-118.25
X9.2Y-119.2
X9.2Y-120.0
X9.2Y-120.95
X9.2Y-121.75
X9.2Y-122.7
X9.2Y-123.5
X9.2Y-124.45
X9.2Y-125.25
X9.2Y-126.2
X9.2Y-127.0
X9.2Y-127.95
X9.2Y-128.75
X9.2Y-129.7
X9.2Y-130.5
X9.2Y-131.45
X9.2Y-132.25
X9.2Y-133.2
X9.2Y-134.0
X9.2Y-134.95
X9.2Y-135.75
X9.2Y-136.7
X9.2Y-137.5
X9.2Y-138.45
X9.2Y-139.25
X9.2Y-140.2
X9.2Y-141.0
X9.2Y-141.95
X9.2Y-142.75
X9.2Y-143.7
X9.2Y-144.5
X9.2Y-145.45
X9.2Y-146.25
X9.2Y-147.2
X9.2Y-148.0
X9.2Y-148.95
X9.2Y-149.75
X9.2Y-150.7
X9.2Y-151.5
X9.2Y-152.45
X9.2Y-153.25
X9.2Y-154.2
X9.2Y-155.0
X9.2Y-155.95
X9.2Y-156.75
X9.2Y-157.7
X9.2Y-158.5
X9.2Y-159.45
X9.2Y-160.25
X9.2Y-161.2
X9.2Y-162.0
X9.2Y-162.95
X9.2Y-163.75
X9.2Y-164.7
X10.35Y-19.5
X10.35Y-20.45
X10.35Y-21.25
X10.35Y-22.2
X10.35Y-23.0
X10.35Y-23.95
X10.35Y-24.75
X10.35Y-25.7
X10.35Y-26.5
X10.35Y-27.45
X10.35Y-28.25
X10.35Y-29.2
X10.35Y-30.0
X10.35Y-30.95
X10.35Y-31.75
X10.35Y-32.7
X10.35Y-33.5
X10.35Y-34.45
X10.35Y-35.25
X10.35Y-36.2
X10.35Y-37.0
X10.35Y-37.95
X10.35Y-38.75
X10.35Y-39.7
X10.35Y-40.5
X10.35Y-41.45
X10.35Y-42.25
X10.35Y-43.2
X10.35Y-44.0
X10.35Y-44.95
X10.35Y-45.75
X10.35Y-46.7
X10.35Y-47.5
X10.35Y-48.45
X10.35Y-49.25
X10.35Y-50.2
X10.35Y-51.0
X10.35Y-51.95
X10.35Y-52.75
X10.35Y-53.7
X10.35Y-54.5
X10.35Y-55.45
X10.35Y-56.25
X10.35Y-57.2
X10.35Y-58.0
X10.35Y-58.95
X10.35Y-59.75
X10.35Y-60.7
X10.35Y-61.5
X10.35Y-62.45
X10.35Y-63.25
X10.35Y-64.2
X10.35Y-65.0
X10.35Y-65.95
X10.35Y-66.75
X10.35Y-67.7
X10.35Y-68.5
X10.35Y-69.45
X10.35Y-70.25
X10.35Y-71.2
X10.35Y-72.0
X10.35Y-72.95
X10.35Y-73.75
X10.35Y-74.7
X10.35Y-109.5
X10.35Y-110.45
X10.35Y-111.25
X10.35Y-112.2
X10.35Y-113.0
X10.35Y-113.95
X10.35Y-114.75
X10.35Y-115.7
X10.35Y-116.5
X10.35Y-117.45
X10.35Y-118.25
X10.35Y-119.2
X10.35Y-120.0
X10.35Y-120.95
X10.35Y-121.75
X10.35Y-122.7
X10.35Y-123.5
X10.35Y-124.45
X10.35Y-125.25
X10.35Y-126.2
X10.35Y-127.0
X10.35Y-127.95
X10.35Y-128.75
X10.35Y-129.7
X10.35Y-130.5
X10.35Y-131.45
X10.35Y-132.25
X10.35Y-133.2
X10.35Y-134.0
X10.35Y-134.95
X10.35Y-135.75
X10.35Y-136.7
X10.35Y-137.5
X10.35Y-138.45
X10.35Y-139.25
X10.35Y-140.2
X10.35Y-141.0
X10.35Y-141.95
X10.35Y-142.75
X10.35Y-143.7
X10.35Y-144.5
X10.35Y-145.45
X10.35Y-146.25
X10.35Y-147.2
X10.35Y-148.0
X10.35Y-148.95
X10.35Y-149.75
X10.35Y-150.7
X10.35Y-151.5
X10.35Y-152.45
X10.35Y-153.25
X10.35Y-154.2
X10.35Y-155.0
X10.35Y-155.95
X10.35Y-156.75
X10.35Y-157.7
X10.35Y-158.5
X10.35Y-159.45
X10.35Y-160.25
X10.35Y-161.2
X10.35Y-162.0
X10.35Y-162.95
X10.35Y-163.75
X10.35Y-164.7
X10.95Y-19.5
X10.95Y-20.45
X10.95Y-21.25
X10.95Y-22.2
X10.95Y-23.0
X10.95Y-23.95
X10.95Y-24.75
X10.95Y-25.7
X10.95Y-26.5
X10.95Y-27.45
X10.95Y-28.25
X10.95Y-29.2
X10.95Y-30.0
X10.95Y-30.95
X10.95Y-31.75
X10.95Y-32.7
X10.95Y-33.5
X10.95Y-34.45
X10.95Y-35.25
X10.95Y-36.2
X10.95Y-37.0
X10.95Y-37.95
X10.95Y-38.75
X10.95Y-39.7
X10.95Y-40.5
X10.95Y-41.45
X10.95Y-42.25
X10.95Y-43.2
X10.95Y-44.0
X10.95Y-44.95
X10.95Y-45.75
X10.95Y-46.7
X10.95Y-47.5
X10.95Y-48.45
X10.95Y-49.25
X10.95Y-50.2
X10.95Y-51.0
X10.95Y-51.95
X10.95Y-52.75
X10.95Y-53.7
X10.95Y-54.5
X10.95Y-55.45
X10.95Y-56.25
X10.95Y-57.2
X10.95Y-58.0
X10.95Y-58.95
X10.95Y-59.75
X10.95Y-60.7
X10.95Y-61.5
X10.95Y-62.45
X10.95Y-63.25
X10.95Y-64.2
X10.95Y-65.0
X10.95Y-65.95
X10.95Y-66.75
X10.95Y-67.7
X10.95Y-68.5
X10.95Y-69.45
X10.95Y-70.25
X10.95Y-71.2
X10.95Y-72.0
X10.95Y-72.95
X10.95Y-73.75
X10.95Y-74.7
X10.95Y-109.5
X10.95Y-110.45
X10.95Y-111.25
X10.95Y-112.2
X10.95Y-113.0
X10.95Y-113.95
X10.95Y-114.75
X10.95Y-115.7
X10.95Y-116.5
X10.95Y-117.45
X10.95Y-118.25
X10.95Y-119.2
X10.95Y-120.0
X10.95Y-120.95
X10.95Y-121.75
X10.95Y-122.7
X10.95Y-123.5
X10.95Y-124.45
X10.95Y-125.25
X10.95Y-126.2
X10.95Y-127.0
X10.95Y-127.95
X10.95Y-128.75
X10.95Y-129.7
X10.95Y-130.5
X10.95Y-131.45
X10.95Y-132.25
X10.95Y-133.2
X10.95Y-134.0
X10.95Y-134.95
X10.95Y-135.75
X10.95Y-136.7
X10.95Y-137.5
X10.95Y-138.45
X10.95Y-139.25
X10.95Y-140.2
X10.95Y-141.0
X10.95Y-141.95
X10.95Y-142.75
X10.95Y-143.7
X10.95Y-144.5
X10.95Y-145.45
X10.95Y-146.25
X10.95Y-147.2
X10.95Y-148.0
X10.95Y-148.95
X10.95Y-149.75
X10.95Y-150.7
X10.95Y-151.5
X10.95Y-152.45
X10.95Y-153.25
X10.95Y-154.2
X10.95Y-155.0
X10.95Y-155.95
X10.95Y-156.75
X10.95Y-157.7
X10.95Y-158.5
X10.95Y-159.45
X10.95Y-160.25
X10.95Y-161.2
X10.95Y-162.0
X10.95Y-162.95
X10.95Y-163.75
X10.95Y-164.7
X12.1Y-19.5
X12.1Y-20.45
X12.1Y-21.25
X12.1Y-22.2
X12.1Y-23.0
X12.1Y-23.95
X12.1Y-24.75
X12.1Y-25.7
X12.1Y-26.5
X12.1Y-27.45
X12.1Y-28.25
X12.1Y-29.2
X12.1Y-30.0
X12.1Y-30.95
X12.1Y-31.75
X12.1Y-32.7
X12.1Y-33.5
X12.1Y-34.45
X12.1Y-35.25
X12.1Y-36.2
X12.1Y-37.0
X12.1Y-37.95
X12.1Y-38.75
X12.1Y-39.7
X12.1Y-40.5
X12.1Y-41.45
X12.1Y-42.25
X12.1Y-43.2
X12.1Y-44.0
X12.1Y-44.95
X12.1Y-45.75
X12.1Y-46.7
X12.1Y-47.5
X12.1Y-48.45
X12.1Y-49.25
X12.1Y-50.2
X12.1Y-51.0
X12.1Y-51.95
X12.1Y-52.75
X12.1Y-53.7
X12.1Y-54.5
X12.1Y-55.45
X12.1Y-56.25
X12.1Y-57.2
X12.1Y-58.0
X12.1Y-58.95
X12.1Y-59.75
X12.1Y-60.7
X12.1Y-61.5
X12.1Y-62.45
X12.1Y-63.25
X12.1Y-64.2
X12.1Y-65.0
X12.1Y-65.95
X12.1Y-66.75
X12.1Y-67.7
X12.1Y-68.5
X12.1Y-69.45
X12.1Y-70.25
X12.1Y-71.2
X12.1Y-72.0
X12.1Y-72.95
X12.1Y-73.75
X12.1Y-74.7
X12.1Y-109.5
X12.1Y-110.45
X12.1Y-111.25
X12.1Y-112.2
X12.1Y-113.0
X12.1Y-113.95
X12.1Y-114.75
X12.1Y-115.7
X12.1Y-116.5
X12.1Y-117.45
X12.1Y-118.25
X12.1Y-119.2
X12.1Y-120.0
X12.1Y-120.95
X12.1Y-121.75
X12.1Y-122.7
X12.1Y-123.5
X12.1Y-124.45
X12.1Y-125.25
X12.1Y-126.2
X12.1Y-127.0
X12.1Y-127.95
X12.1Y-128.75
X12.1Y-129.7
X12.1Y-130.5
X12.1Y-131.45
X12.1Y-132.25
X12.1Y-133.2
X12.1Y-134.0
X12.1Y-134.95
X12.1Y-135.75
X12.1Y-136.7
X12.1Y-137.5
X12.1Y-138.45
X12.1Y-139.25
X12.1Y-140.2
X12.1Y-141.0
X12.1Y-141.95
X12.1Y-142.75
X12.1Y-143.7
X12.1Y-144.5
X12.1Y-145.45
X12.1Y-146.25
X12.1Y-147.2
X12.1Y-148.0
X12.1Y-148.95
X12.1Y-149.75
X12.1Y-150.7
X12.1Y-151.5
X12.1Y-152.45
X12.1Y-153.25
X12.1Y-154.2
X12.1Y-155.0
X12.1Y-155.95
X12.1Y-156.75
X12.1Y-157.7
X12.1Y-158.5
X12.1Y-159.45
X12.1Y-160.25
X12.1Y-161.2
X12.1Y-162.0
X12.1Y-162.95
X12.1Y-163.75
X12.1Y-164.7
X12.7Y-19.5
X12.7Y-20.45
X12.7Y-21.25
X12.7Y-22.2
X12.7Y-23.0
X12.7Y-23.95
X12.7Y-24.75
X12.7Y-25.7
X12.7Y-26.5
X12.7Y-27.45
X12.7Y-28.25
X12.7Y-29.2
X12.7Y-30.0
X12.7Y-30.95
X12.7Y-31.75
X12.7Y-32.7
X12.7Y-33.5
X12.7Y-34.45
X12.7Y-35.25
X12.7Y-36.2
X12.7Y-37.0
X12.7Y-37.95
X12.7Y-38.75
X12.7Y-39.7
X12.7Y-40.5
X12.7Y-41.45
X12.7Y-42.25
X12.7Y-43.2
X12.7Y-44.0
X12.7Y-44.95
X12.7Y-45.75
X12.7Y-46.7
X12.7Y-47.5
X12.7Y-48.45
X12.7Y-49.25
X12.7Y-50.2
X12.7Y-51.0
X12.7Y-51.95
X12.7Y-52.75
X12.7Y-53.7
X12.7Y-54.5
X12.7Y-55.45
X12.7Y-56.25
X12.7Y-57.2
X12.7Y-58.0
X12.7Y-58.95
X12.7Y-59.75
X12.7Y-60.7
X12.7Y-61.5
X12.7Y-62.45
X12.7Y-63.25
X12.7Y-64.2
X12.7Y-65.0
X12.7Y-65.95
X12.7Y-66.75
X12.7Y-67.7
X12.7Y-68.5
X12.7Y-69.45
X12.7Y-70.25
X12.7Y-71.2
X12.7Y-72.0
X12.7Y-72.95
X12.7Y-73.75
X12.7Y-74.7
X12.7Y-109.5
X12.7Y-110.45
X12.7Y-111.25
X12.7Y-112.2
X12.7Y-113.0
X12.7Y-113.95
X12.7Y-114.75
X12.7Y-115.7
X12.7Y-116.5
X12.7Y-117.45
X12.7Y-118.25
X12.7Y-119.2
X12.7Y-120.0
X12.7Y-120.95
X12.7Y-121.75
X12.7Y-122.7
X12.7Y-123.5
X12.7Y-124.45
X12.7Y-125.25
X12.7Y-126.2
X12.7Y-127.0
X12.7Y-127.95
X12.7Y-128.75
X12.7Y-129.7
X12.7Y-130.5
X12.7Y-131.45
X12.7Y-132.25
X12.7Y-133.2
X12.7Y-134.0
X12.7Y-134.95
X12.7Y-135.75
X12.7Y-136.7
X12.7Y-137.5
X12.7Y-138.45
X12.7Y-139.25
X12.7Y-140.2
X12.7Y-141.0
X12.7Y-141.95
X12.7Y-142.75
X12.7Y-143.7
X12.7Y-144.5
X12.7Y-145.45
X12.7Y-146.25
X12.7Y-147.2
X12.7Y-148.0
X12.7Y-148.95
X12.7Y-149.75
X12.7Y-150.7
X12.7Y-151.5
X12.7Y-152.45
X12.7Y-153.25
X12.7Y-154.2
X12.7Y-155.0
X12.7Y-155.95
X12.7Y-156.75
X12.7Y-157.7
X12.7Y-158.5
X12.7Y-159.45
X12.7Y-160.25
X12.7Y-161.2
X12.7Y-162.0
X12.7Y-162.95
X12.7Y-163.75
X12.7Y-164.7
X13.85Y-19.5
X13.85Y-20.45
X13.85Y-21.25
X13.85Y-22.2
X13.85Y-23.0
X13.85Y-23.95
X13.85Y-24.75
X13.85Y-25.7
X13.85Y-26.5
X13.85Y-27.45
X13.85Y-28.25
X13.85Y-29.2
X13.85Y-30.0
X13.85Y-30.95
X13.85Y-31.75
X13.85Y-32.7
X13.85Y-33.5
X13.85Y-34.45
X13.85Y-35.25
X13.85Y-36.2
X13.85Y-37.0
X13.85Y-37.95
X13.85Y-38.75
X13.85Y-39.7
X13.85Y-40.5
X13.85Y-41.45
X13.85Y-42.25
X13.85Y-43.2
X13.85Y-44.0
X13.85Y-44.95
X13.85Y-45.75
X13.85Y-46.7
X13.85Y-47.5
X13.85Y-48.45
X13.85Y-49.25
X13.85Y-50.2
X13.85Y-51.0
X13.85Y-51.95
X13.85Y-52.75
X13.85Y-53.7
X13.85Y-54.5
X13.85Y-55.45
X13.85Y-56.25
X13.85Y-57.2
X13.85Y-58.0
X13.85Y-58.95
X13.85Y-59.75
X13.85Y-60.7
X13.85Y-61.5
X13.85Y-62.45
X13.85Y-63.25
X13.85Y-64.2
X13.85Y-65.0
X13.85Y-65.95
X13.85Y-66.75
X13.85Y-67.7
X13.85Y-68.5
X13.85Y-69.45
X13.85Y-70.25
X13.85Y-71.2
X13.85Y-72.0
X13.85Y-72.95
X13.85Y-73.75
X13.85Y-74.7
X13.85Y-109.5
X13.85Y-110.45
X13.85Y-111.25
X13.85Y-112.2
X13.85Y-113.0
X13.85Y-113.95
X13.85Y-114.75
X13.85Y-115.7
X13.85Y-116.5
X13.85Y-117.45
X13.85Y-118.25
X13.85Y-119.2
X13.85Y-120.0
X13.85Y-120.95
X13.85Y-121.75
X13.85Y-122.7
X13.85Y-123.5
X13.85Y-124.45
X13.85Y-125.25
X13.85Y-126.2
X13.85Y-127.0
X13.85Y-127.95
X13.85Y-128.75
X13.85Y-129.7
X13.85Y-130.5
X13.85Y-131.45
X13.85Y-132.25
X13.85Y-133.2
X13.85Y-134.0
X13.85Y-134.95
X13.85Y-135.75
X13.85Y-136.7
X13.85Y-137.5
X13.85Y-138.45
X13.85Y-139.25
X13.85Y-140.2
X13.85Y-141.0
X13.85Y-141.95
X13.85Y-142.75
X13.85Y-143.7
X13.85Y-144.5
X13.85Y-145.45
X13.85Y-146.25
X13.85Y-147.2
X13.85Y-148.0
X13.85Y-148.95
X13.85Y-149.75
X13.85Y-150.7
X13.85Y-151.5
X13.85Y-152.45
X13.85Y-153.25
X13.85Y-154.2
X13.85Y-155.0
X13.85Y-155.95
X13.85Y-156.75
X13.85Y-157.7
X13.85Y-158.5
X13.85Y-159.45
X13.85Y-160.25
X13.85Y-161.2
X13.85Y-162.0
X13.85Y-162.95
X13.85Y-163.75
X13.85Y-164.7
X14.45Y-19.5
X14.45Y-20.45
X14.45Y-21.25
X14.45Y-22.2
X14.45Y-23.0
X14.45Y-23.95
X14.45Y-24.75
X14.45Y-25.7
X14.45Y-26.5
X14.45Y-27.45
X14.45Y-28.25
X14.45Y-29.2
X14.45Y-30.0
X14.45Y-30.95
X14.45Y-31.75
X14.45Y-32.7
X14.45Y-33.5
X14.45Y-34.45
X14.45Y-35.25
X14.45Y-36.2
X14.45Y-37.0
X14.45Y-37.95
X14.45Y-38.75
X14.45Y-39.7
X14.45Y-40.5
X14.45Y-41.45
X14.45Y-42.25
X14.45Y-43.2
X14.45Y-44.0
X14.45Y-44.95
X14.45Y-45.75
X14.45Y-46.7
X14.45Y-47.5
X14.45Y-48.45
X14.45Y-49.25
X14.45Y-50.2
X14.45Y-51.0
X14.45Y-51.95
X14.45Y-52.75
X14.45Y-53.7
X14.45Y-54.5
X14.45Y-55.45
X14.45Y-56.25
X14.45Y-57.2
X14.45Y-58.0
X14.45Y-58.95
X14.45Y-59.75
X14.45Y-60.7
X14.45Y-61.5
X14.45Y-62.45
X14.45Y-63.25
X14.45Y-64.2
X14.45Y-65.0
X14.45Y-65.95
X14.45Y-66.75
X14.45Y-67.7
X14.45Y-68.5
X14.45Y-69.45
X14.45Y-70.25
X14.45Y-71.2
X14.45Y-72.0
X14.45Y-72.95
X14.45Y-73.75
X14.45Y-74.7
X14.45Y-109.5
X14.45Y-110.45
X14.45Y-111.25
X14.45Y-112.2
X14.45Y-113.0
X14.45Y-113.95
X14.45Y-114.75
X14.45Y-115.7
X14.45Y-116.5
X14.45Y-117.45
X14.45Y-118.25
X14.45Y-119.2
X14.45Y-120.0
X14.45Y-120.95
X14.45Y-121.75
X14.45Y-122.7
X14.45Y-123.5
X14.45Y-124.45
X14.45Y-125.25
X14.45Y-126.2
X14.45Y-127.0
X14.45Y-127.95
X14.45Y-128.75
X14.45Y-129.7
X14.45Y-130.5
X14.45Y-131.45
X14.45Y-132.25
X14.45Y-133.2
X14.45Y-134.0
X14.45Y-134.95
X14.45Y-135.75
X14.45Y-136.7
X14.45Y-137.5
X14.45Y-138.45
X14.45Y-139.25
X14.45Y-140.2
X14.45Y-141.0
X14.45Y-141.95
X14.45Y-142.75
X14.45Y-143.7
X14.45Y-144.5
X14.45Y-145.45
X14.45Y-146.25
X14.45Y-147.2
X14.45Y-148.0
X14.45Y-148.95
X14.45Y-149.75
X14.45Y-150.7
X14.45Y-151.5
X14.45Y-152.45
X14.45Y-153.25
X14.45Y-154.2
X14.45Y-155.0
X14.45Y-155.95
X14.45Y-156.75
X14.45Y-157.7
X14.45Y-158.5
X14.45Y-159.45
X14.45Y-160.25
X14.45Y-161.2
X14.45Y-162.0
X14.45Y-162.95
X14.45Y-163.75
X14.45Y-164.7
X15.6Y-19.5
X15.6Y-20.45
X15.6Y-21.25
X15.6Y-22.2
X15.6Y-23.0
X15.6Y-23.95
X15.6Y-24.75
X15.6Y-25.7
X15.6Y-26.5
X15.6Y-27.45
X15.6Y-28.25
X15.6Y-29.2
X15.6Y-30.0
X15.6Y-30.95
X15.6Y-31.75
X15.6Y-32.7
X15.6Y-33.5
X15.6Y-34.45
X15.6Y-35.25
X15.6Y-36.2
X15.6Y-37.0
X15.6Y-37.95
X15.6Y-38.75
X15.6Y-39.7
X15.6Y-40.5
X15.6Y-41.45
X15.6Y-42.25
X15.6Y-43.2
X15.6Y-44.0
X15.6Y-44.95
X15.6Y-45.75
X15.6Y-46.7
X15.6Y-47.5
X15.6Y-48.45
X15.6Y-49.25
X15.6Y-50.2
X15.6Y-51.0
X15.6Y-51.95
X15.6Y-52.75
X15.6Y-53.7
X15.6Y-54.5
X15.6Y-55.45
X15.6Y-56.25
X15.6Y-57.2
X15.6Y-58.0
X15.6Y-58.95
X15.6Y-59.75
X15.6Y-60.7
X15.6Y-61.5
X15.6Y-62.45
X15.6Y-63.25
X15.6Y-64.2
X15.6Y-65.0
X15.6Y-65.95
X15.6Y-66.75
X15.6Y-67.7
X15.6Y-68.5
X15.6Y-69.45
X15.6Y-70.25
X15.6Y-71.2
X15.6Y-72.0
X15.6Y-72.95
X15.6Y-73.75
X15.6Y-74.7
X15.6Y-109.5
X15.6Y-110.45
X15.6Y-111.25
X15.6Y-112.2
X15.6Y-113.0
X15.6Y-113.95
X15.6Y-114.75
X15.6Y-115.7
X15.6Y-116.5
X15.6Y-117.45
X15.6Y-118.25
X15.6Y-119.2
X15.6Y-120.0
X15.6Y-120.95
X15.6Y-121.75
X15.6Y-122.7
X15.6Y-123.5
X15.6Y-124.45
X15.6Y-125.25
X15.6Y-126.2
X15.6Y-127.0
X15.6Y-127.95
X15.6Y-128.75
X15.6Y-129.7
X15.6Y-130.5
X15.6Y-131.45
X15.6Y-132.25
X15.6Y-133.2
X15.6Y-134.0
X15.6Y-134.95
X15.6Y-135.75
X15.6Y-136.7
X15.6Y-137.5
X15.6Y-138.45
X15.6Y-139.25
X15.6Y-140.2
X15.6Y-141.0
X15.6Y-141.95
X15.6Y-142.75
X15.6Y-143.7
X15.6Y-144.5
X15.6Y-145.45
X15.6Y-146.25
X15.6Y-147.2
X15.6Y-148.0
X15.6Y-148.95
X15.6Y-149.75
X15.6Y-150.7
X15.6Y-151.5
X15.6Y-152.45
X15.6Y-153.25
X15.6Y-154.2
X15.6Y-155.0
X15.6Y-155.95
X15.6Y-156.75
X15.6Y-157.7
X15.6Y-158.5
X15.6Y-159.45
X15.6Y-160.25
X15.6Y-161.2
X15.6Y-162.0
X15.6Y-162.95
X15.6Y-163.75
X15.6Y-164.7
X16.2Y-19.5
X16.2Y-20.45
X16.2Y-21.25
X16.2Y-22.2
X16.2Y-23.0
X16.2Y-23.95
X16.2Y-24.75
X16.2Y-25.7
X16.2Y-26.5
X16.2Y-27.45
X16.2Y-28.25
X16.2Y-29.2
X16.2Y-30.0
X16.2Y-30.95
X16.2Y-31.75
X16.2Y-32.7
X16.2Y-33.5
X16.2Y-34.45
X16.2Y-35.25
X16.2Y-36.2
X16.2Y-37.0
X16.2Y-37.95
X16.2Y-38.75
X16.2Y-39.7
X16.2Y-40.5
X16.2Y-41.45
X16.2Y-42.25
X16.2Y-43.2
X16.2Y-44.0
X16.2Y-44.95
X16.2Y-45.75
X16.2Y-46.7
X16.2Y-47.5
X16.2Y-48.45
X16.2Y-49.25
X16.2Y-50.2
X16.2Y-51.0
X16.2Y-51.95
X16.2Y-52.75
X16.2Y-53.7
X16.2Y-54.5
X16.2Y-55.45
X16.2Y-56.25
X16.2Y-57.2
X16.2Y-58.0
X16.2Y-58.95
X16.2Y-59.75
X16.2Y-60.7
X16.2Y-61.5
X16.2Y-62.45
X16.2Y-63.25
X16.2Y-64.2
X16.2Y-65.0
X16.2Y-65.95
X16.2Y-66.75
X16.2Y-67.7
X16.2Y-68.5
X16.2Y-69.45
X16.2Y-70.25
X16.2Y-71.2
X16.2Y-72.0
X16.2Y-72.95
X16.2Y-73.75
X16.2Y-74.7
X16.2Y-109.5
X16.2Y-110.45
X16.2Y-111.25
X16.2Y-112.2
X16.2Y-113.0
X16.2Y-113.95
X16.2Y-114.75
X16.2Y-115.7
X16.2Y-116.5
X16.2Y-117.45
X16.2Y-118.25
X16.2Y-119.2
X16.2Y-120.0
X16.2Y-120.95
X16.2Y-121.75
X16.2Y-122.7
X16.2Y-123.5
X16.2Y-124.45
X16.2Y-125.25
X16.2Y-126.2
X16.2Y-127.0
X16.2Y-127.95
X16.2Y-128.75
X16.2Y-129.7
X16.2Y-130.5
X16.2Y-131.45
X16.2Y-132.25
X16.2Y-133.2
X16.2Y-134.0
X16.2Y-134.95
X16.2Y-135.75
X16.2Y-136.7
X16.2Y-137.5
X16.2Y-138.45
X16.2Y-139.25
X16.2Y-140.2
X16.2Y-141.0
X16.2Y-141.95
X16.2Y-142.75
X16.2Y-143.7
X16.2Y-144.5
X16.2Y-145.45
X16.2Y-146.25
X16.2Y-147.2
X16.2Y-148.0
X16.2Y-148.95
X16.2Y-149.75
X16.2Y-150.7
X16.2Y-151.5
X16.2Y-152.45
X16.2Y-153.25
X16.2Y-154.2
X16.2Y-155.0
X16.2Y-155.95
X16.2Y-156.75
X16.2Y-157.7
X16.2Y-158.5
X16.2Y-159.45
X16.2Y-160.25
X16.2Y-161.2
X16.2Y-162.0
X16.2Y-162.95
X16.2Y-163.75
X16.2Y-164.7
X17.35Y-19.5
X17.35Y-20.45
X17.35Y-21.25
X17.35Y-22.2
X17.35Y-23.0
X17.35Y-23.95
X17.35Y-24.75
X17.35Y-25.7
X17.35Y-26.5
X17.35Y-27.45
X17.35Y-28.25
X17.35Y-29.2
X17.35Y-30.0
X17.35Y-30.95
X17.35Y-31.75
X17.35Y-32.7
X17.35Y-33.5
X17.35Y-34.45
X17.35Y-35.25
X17.35Y-36.2
X17.35Y-37.0
X17.35Y-37.95
X17.35Y-38.75
X17.35Y-39.7
X17.35Y-40.5
X17.35Y-41.45
X17.35Y-42.25
X17.35Y-43.2
X17.35Y-44.0
X17.35Y-44.95
X17.35Y-45.75
X17.35Y-46.7
X17.35Y-47.5
X17.35Y-48.45
X17.35Y-49.25
X17.35Y-50.2
X17.35Y-51.0
X17.35Y-51.95
X17.35Y-52.75
X17.35Y-53.7
X17.35Y-54.5
X17.35Y-55.45
X17.35Y-56.25
X17.35Y-57.2
X17.35Y-58.0
X17.35Y-58.95
X17.35Y-59.75
X17.35Y-60.7
X17.35Y-61.5
X17.35Y-62.45
X17.35Y-63.25
X17.35Y-64.2
X17.35Y-65.0
X17.35Y-65.95
X17.35Y-66.75
X17.35Y-67.7
X17.35Y-68.5
X17.35Y-69.45
X17.35Y-70.25
X17.35Y-71.2
X17.35Y-72.0
X17.35Y-72.95
X17.35Y-73.75
X17.35Y-74.7
X17.35Y-109.5
X17.35Y-110.45
X17.35Y-111.25
X17.35Y-112.2
X17.35Y-113.0
X17.35Y-113.95
X17.35Y-114.75
X17.35Y-115.7
X17.35Y-116.5
X17.35Y-117.45
X17.35Y-118.25
X17.35Y-119.2
X17.35Y-120.0
X17.35Y-120.95
X17.35Y-121.75
X17.35Y-122.7
X17.35Y-123.5
X17.35Y-124.45
X17.35Y-125.25
X17.35Y-126.2
X17.35Y-127.0
X17.35Y-127.95
X17.35Y-128.75
X17.35Y-129.7
X17.35Y-130.5
X17.35Y-131.45
X17.35Y-132.25
X17.35Y-133.2
X17.35Y-134.0
X17.35Y-134.95
X17.35Y-135.75
X17.35Y-136.7
X17.35Y-137.5
X17.35Y-138.45
X17.35Y-139.25
X17.35Y-140.2
X17.35Y-141.0
X17.35Y-141.95
X17.35Y-142.75
X17.35Y-143.7
X17.35Y-144.5
X17.35Y-145.45
X17.35Y-146.25
X17.35Y-147.2
X17.35Y-148.0
X17.35Y-148.95
X17.35Y-149.75
X17.35Y-150.7
X17.35Y-151.5
X17.35Y-152.45
X17.35Y-153.25
X17.35Y-154.2
X17.35Y-155.0
X17.35Y-155.95
X17.35Y-156.75
X17.35Y-157.7
X17.35Y-158.5
X17.35Y-159.45
X17.35Y-160.25
X17.35Y-161.2
X17.35Y-162.0
X17.35Y-162.95
X17.35Y-163.75
X17.35Y-164.7
X17.95Y-19.5
X17.95Y-20.45
X17.95Y-21.25
X17.95Y-22.2
X17.95Y-23.0
X17.95Y-23.95
X17.95Y-24.75
X17.95Y-25.7
X17.95Y-26.5
X17.95Y-27.45
X17.95Y-28.25
X17.95Y-29.2
X17.95Y-30.0
X17.95Y-30.95
X17.95Y-31.75
X17.95Y-32.7
X17.95Y-33.5
X17.95Y-34.45
X17.95Y-35.25
X17.95Y-36.2
X17.95Y-37.0
X17.95Y-37.95
X17.95Y-38.75
X17.95Y-39.7
X17.95Y-40.5
X17.95Y-41.45
X17.95Y-42.25
X17.95Y-43.2
X17.95Y-44.0
X17.95Y-44.95
X17.95Y-45.75
X17.95Y-46.7
X17.95Y-47.5
X17.95Y-48.45
X17.95Y-49.25
X17.95Y-50.2
X17.95Y-51.0
X17.95Y-51.95
X17.95Y-52.75
X17.95Y-53.7
X17.95Y-54.5
X17.95Y-55.45
X17.95Y-56.25
X17.95Y-57.2
X17.95Y-58.0
X17.95Y-58.95
X17.95Y-59.75
X17.95Y-60.7
X17.95Y-61.5
X17.95Y-62.45
X17.95Y-63.25
X17.95Y-64.2
X17.95Y-65.0
X17.95Y-65.95
X17.95Y-66.75
X17.95Y-67.7
X17.95Y-68.5
X17.95Y-69.45
X17.95Y-70.25
X17.95Y-71.2
X17.95Y-72.0
X17.95Y-72.95
X17.95Y-73.75
X17.95Y-74.7
X17.95Y-109.5
X17.95Y-110.45
X17.95Y-111.25
X17.95Y-112.2
X17.95Y-113.0
X17.95Y-113.95
X17.95Y-114.75
X17.95Y-115.7
X17.95Y-116.5
X17.95Y-117.45
X17.95Y-118.25
X17.95Y-119.2
X17.95Y-120.0
X17.95Y-120.95
X17.95Y-121.75
X17.95Y-122.7
X17.95Y-123.5
X17.95Y-124.45
X17.95Y-125.25
X17.95Y-126.2
X17.95Y-127.0
X17.95Y-127.95
X17.95Y-128.75
X17.95Y-129.7
X17.95Y-130.5
X17.95Y-131.45
X17.95Y-132.25
X17.95Y-133.2
X17.95Y-134.0
X17.95Y-134.95
X17.95Y-135.75
X17.95Y-136.7
X17.95Y-137.5
X17.95Y-138.45
X17.95Y-139.25
X17.95Y-140.2
X17.95Y-141.0
X17.95Y-141.95
X17.95Y-142.75
X17.95Y-143.7
X17.95Y-144.5
X17.95Y-145.45
X17.95Y-146.25
X17.95Y-147.2
X17.95Y-148.0
X17.95Y-148.95
X17.95Y-149.75
X17.95Y-150.7
X17.95Y-151.5
X17.95Y-152.45
X17.95Y-153.25
X17.95Y-154.2
X17.95Y-155.0
X17.95Y-155.95
X17.95Y-156.75
X17.95Y-157.7
X17.95Y-158.5
X17.95Y-159.45
X17.95Y-160.25
X17.95Y-161.2
X17.95Y-162.0
X17.95Y-162.95
X17.95Y-163.75
X17.95Y-164.7
X19.1Y-19.5
X19.1Y-20.45
X19.1Y-21.25
X19.1Y-22.2
X19.1Y-23.0
X19.1Y-23.95
X19.1Y-24.75
X19.1Y-25.7
X19.1Y-26.5
X19.1Y-27.45
X19.1Y-28.25
X19.1Y-29.2
X19.1Y-30.0
X19.1Y-30.95
X19.1Y-31.75
X19.1Y-32.7
X19.1Y-33.5
X19.1Y-34.45
X19.1Y-35.25
X19.1Y-36.2
X19.1Y-37.0
X19.1Y-37.95
X19.1Y-38.75
X19.1Y-39.7
X19.1Y-40.5
X19.1Y-41.45
X19.1Y-42.25
X19.1Y-43.2
X19.1Y-44.0
X19.1Y-44.95
X19.1Y-45.75
X19.1Y-46.7
X19.1Y-47.5
X19.1Y-48.45
X19.1Y-49.25
X19.1Y-50.2
X19.1Y-51.0
X19.1Y-51.95
X19.1Y-52.75
X19.1Y-53.7
X19.1Y-54.5
X19.1Y-55.45
X19.1Y-56.25
X19.1Y-57.2
X19.1Y-58.0
X19.1Y-58.95
X19.1Y-59.75
X19.1Y-60.7
X19.1Y-61.5
X19.1Y-62.45
X19.1Y-63.25
X19.1Y-64.2
X19.1Y-65.0
X19.1Y-65.95
X19.1Y-66.75
X19.1Y-67.7
X19.1Y-68.5
X19.1Y-69.45
X19.1Y-70.25
X19.1Y-71.2
X19.1Y-72.0
X19.1Y-72.95
X19.1Y-73.75
X19.1Y-74.7
X19.1Y-109.5
X19.1Y-110.45
X19.1Y-111.25
X19.1Y-112.2
X19.1Y-113.0
X19.1Y-113.95
X19.1Y-114.75
X19.1Y-115.7
X19.1Y-116.5
X19.1Y-117.45
X19.1Y-118.25
X19.1Y-119.2
X19.1Y-120.0
X19.1Y-120.95
X19.1Y-121.75
X19.1Y-122.7
X19.1Y-123.5
X19.1Y-124.45
X19.1Y-125.25
X19.1Y-126.2
X19.1Y-127.0
X19.1Y-127.95
X19.1Y-128.75
X19.1Y-129.7
X19.1Y-130.5
X19.1Y-131.45
X19.1Y-132.25
X19.1Y-133.2
X19.1Y-134.0
X19.1Y-134.95
X19.1Y-135.75
X19.1Y-136.7
X19.1Y-137.5
X19.1Y-138.45
X19.1Y-139.25
X19.1Y-140.2
X19.1Y-141.0
X19.1Y-141.95
X19.1Y-142.75
X19.1Y-143.7
X19.1Y-144.5
X19.1Y-145.45
X19.1Y-146.25
X19.1Y-147.2
X19.1Y-148.0
X19.1Y-148.95
X19.1Y-149.75
X19.1Y-150.7
X19.1Y-151.5
X19.1Y-152.45
X19.1Y-153.25
X19.1Y-154.2
X19.1Y-155.0
X19.1Y-155.95
X19.1Y-156.75
X19.1Y-157.7
X19.1Y-158.5
X19.1Y-159.45
X19.1Y-160.25
X19.1Y-161.2
X19.1Y-162.0
X19.1Y-162.95
X19.1Y-163.75
X19.1Y-164.7
X19.7Y-19.5
X19.7Y-20.45
X19.7Y-21.25
X19.7Y-22.2
X19.7Y-23.0
X19.7Y-23.95
X19.7Y-24.75
X19.7Y-25.7
X19.7Y-26.5
X19.7Y-27.45
X19.7Y-28.25
X19.7Y-29.2
X19.7Y-30.0
X19.7Y-30.95
X19.7Y-31.75
X19.7Y-32.7
X19.7Y-33.5
X19.7Y-34.45
X19.7Y-35.25
X19.7Y-36.2
X19.7Y-37.0
X19.7Y-37.95
X19.7Y-38.75
X19.7Y-39.7
X19.7Y-40.5
X19.7Y-41.45
X19.7Y-42.25
X19.7Y-43.2
X19.7Y-44.0
X19.7Y-44.95
X19.7Y-45.75
X19.7Y-46.7
X19.7Y-47.5
X19.7Y-48.45
X19.7Y-49.25
X19.7Y-50.2
X19.7Y-51.0
X19.7Y-51.95
X19.7Y-52.75
X19.7Y-53.7
X19.7Y-54.5
X19.7Y-55.45
X19.7Y-56.25
X19.7Y-57.2
X19.7Y-58.0
X19.7Y-58.95
X19.7Y-59.75
X19.7Y-60.7
X19.7Y-61.5
X19.7Y-62.45
X19.7Y-63.25
X19.7Y-64.2
X19.7Y-65.0
X19.7Y-65.95
X19.7Y-66.75
X19.7Y-67.7
X19.7Y-68.5
X19.7Y-69.45
X19.7Y-70.25
X19.7Y-71.2
X19.7Y-72.0
X19.7Y-72.95
X19.7Y-73.75
X19.7Y-74.7
X19.7Y-109.5
X19.7Y-110.45
X19.7Y-111.25
X19.7Y-112.2
X19.7Y-113.0
X19.7Y-113.95
X19.7Y-114.75
X19.7Y-115.7
X19.7Y-116.5
X19.7Y-117.45
X19.7Y-118.25
X19.7Y-119.2
X19.7Y-120.0
X19.7Y-120.95
X19.7Y-121.75
X19.7Y-122.7
X19.7Y-123.5
X19.7Y-124.45
X19.7Y-125.25
X19.7Y-126.2
X19.7Y-127.0
X19.7Y-127.95
X19.7Y-128.75
X19.7Y-129.7
X19.7Y-130.5
X19.7Y-131.45
X19.7Y-132.25
X19.7Y-133.2
X19.7Y-134.0
X19.7Y-134.95
X19.7Y-135.75
X19.7Y-136.7
X19.7Y-137.5
X19.7Y-138.45
X19.7Y-139.25
X19.7Y-140.2
X19.7Y-141.0
X19.7Y-141.95
X19.7Y-142.75
X19.7Y-143.7
X19.7Y-144.5
X19.7Y-145.45
X19.7Y-146.25
X19.7Y-147.2
X19.7Y-148.0
X19.7Y-148.95
X19.7Y-149.75
X19.7Y-150.7
X19.7Y-151.5
X19.7Y-152.45
X19.7Y-153.25
X19.7Y-154.2
X19.7Y-155.0
X19.7Y-155.95
X19.7Y-156.75
X19.7Y-157.7
X19.7Y-158.5
X19.7Y-159.45
X19.7Y-160.25
X19.7Y-161.2
X19.7Y-162.0
X19.7Y-162.95
X19.7Y-163.75
X19.7Y-164.7
X20.85Y-19.5
X20.85Y-20.45
X20.85Y-21.25
X20.85Y-22.2
X20.85Y-23.0
X20.85Y-23.95
X20.85Y-24.75
X20.85Y-25.7
X20.85Y-26.5
X20.85Y-27.45
X20.85Y-28.25
X20.85Y-29.2
X20.85Y-30.0
X20.85Y-30.95
X20.85Y-31.75
X20.85Y-32.7
X20.85Y-33.5
X20.85Y-34.45
X20.85Y-35.25
X20.85Y-36.2
X20.85Y-37.0
X20.85Y-37.95
X20.85Y-38.75
X20.85Y-39.7
X20.85Y-40.5
X20.85Y-41.45
X20.85Y-42.25
X20.85Y-43.2
X20.85Y-44.0
X20.85Y-44.95
X20.85Y-45.75
X20.85Y-46.7
X20.85Y-47.5
X20.85Y-48.45
X20.85Y-49.25
X20.85Y-50.2
X20.85Y-51.0
X20.85Y-51.95
X20.85Y-52.75
X20.85Y-53.7
X20.85Y-54.5
X20.85Y-55.45
X20.85Y-56.25
X20.85Y-57.2
X20.85Y-58.0
X20.85Y-58.95
X20.85Y-59.75
X20.85Y-60.7
X20.85Y-61.5
X20.85Y-62.45
X20.85Y-63.25
X20.85Y-64.2
X20.85Y-65.0
X20.85Y-65.95
X20.85Y-66.75
X20.85Y-67.7
X20.85Y-68.5
X20.85Y-69.45
X20.85Y-70.25
X20.85Y-71.2
X20.85Y-72.0
X20.85Y-72.95
X20.85Y-73.75
X20.85Y-74.7
X20.85Y-109.5
X20.85Y-110.45
X20.85Y-111.25
X20.85Y-112.2
X20.85Y-113.0
X20.85Y-113.95
X20.85Y-114.75
X20.85Y-115.7
X20.85Y-116.5
X20.85Y-117.45
X20.85Y-118.25
X20.85Y-119.2
X20.85Y-120.0
X20.85Y-120.95
X20.85Y-121.75
X20.85Y-122.7
X20.85Y-123.5
X20.85Y-124.45
X20.85Y-125.25
X20.85Y-126.2
X20.85Y-127.0
X20.85Y-127.95
X20.85Y-128.75
X20.85Y-129.7
X20.85Y-130.5
X20.85Y-131.45
X20.85Y-132.25
X20.85Y-133.2
X20.85Y-134.0
X20.85Y-134.95
X20.85Y-135.75
X20.85Y-136.7
X20.85Y-137.5
X20.85Y-138.45
X20.85Y-139.25
X20.85Y-140.2
X20.85Y-141.0
X20.85Y-141.95
X20.85Y-142.75
X20.85Y-143.7
X20.85Y-144.5
X20.85Y-145.45
X20.85Y-146.25
X20.85Y-147.2
X20.85Y-148.0
X20.85Y-148.95
X20.85Y-149.75
X20.85Y-150.7
X20.85Y-151.5
X20.85Y-152.45
X20.85Y-153.25
X20.85Y-154.2
X20.85Y-155.0
X20.85Y-155.95
X20.85Y-156.75
X20.85Y-157.7
X20.85Y-158.5
X20.85Y-159.45
X20.85Y-160.25
X20.85Y-161.2
X20.85Y-162.0
X20.85Y-162.95
X20.85Y-163.75
X20.85Y-164.7
X21.45Y-19.5
X21.45Y-20.45
X21.45Y-21.25
X21.45Y-22.2
X21.45Y-23.0
X21.45Y-23.95
X21.45Y-24.75
X21.45Y-25.7
X21.45Y-26.5
X21.45Y-27.45
X21.45Y-28.25
X21.45Y-29.2
X21.45Y-30.0
X21.45Y-30.95
X21.45Y-31.75
X21.45Y-32.7
X21.45Y-33.5
X21.45Y-34.45
X21.45Y-35.25
X21.45Y-36.2
X21.45Y-37.0
X21.45Y-37.95
X21.45Y-38.75
X21.45Y-39.7
X21.45Y-40.5
X21.45Y-41.45
X21.45Y-42.25
X21.45Y-43.2
X21.45Y-44.0
X21.45Y-44.95
X21.45Y-45.75
X21.45Y-46.7
X21.45Y-47.5
X21.45Y-48.45
X21.45Y-49.25
X21.45Y-50.2
X21.45Y-51.0
X21.45Y-51.95
X21.45Y-52.75
X21.45Y-53.7
X21.45Y-54.5
X21.45Y-55.45
X21.45Y-56.25
X21.45Y-57.2
X21.45Y-58.0
X21.45Y-58.95
X21.45Y-59.75
X21.45Y-60.7
X21.45Y-61.5
X21.45Y-62.45
X21.45Y-63.25
X21.45Y-64.2
X21.45Y-65.0
X21.45Y-65.95
X21.45Y-66.75
X21.45Y-67.7
X21.45Y-68.5
X21.45Y-69.45
X21.45Y-70.25
X21.45Y-71.2
X21.45Y-72.0
X21.45Y-72.95
X21.45Y-73.75
X21.45Y-74.7
X21.45Y-109.5
X21.45Y-110.45
X21.45Y-111.25
X21.45Y-112.2
X21.45Y-113.0
X21.45Y-113.95
X21.45Y-114.75
X21.45Y-115.7
X21.45Y-116.5
X21.45Y-117.45
X21.45Y-118.25
X21.45Y-119.2
X21.45Y-120.0
X21.45Y-120.95
X21.45Y-121.75
X21.45Y-122.7
X21.45Y-123.5
X21.45Y-124.45
X21.45Y-125.25
X21.45Y-126.2
X21.45Y-127.0
X21.45Y-127.95
X21.45Y-128.75
X21.45Y-129.7
X21.45Y-130.5
X21.45Y-131.45
X21.45Y-132.25
X21.45Y-133.2
X21.45Y-134.0
X21.45Y-134.95
X21.45Y-135.75
X21.45Y-136.7
X21.45Y-137.5
X21.45Y-138.45
X21.45Y-139.25
X21.45Y-140.2
X21.45Y-141.0
X21.45Y-141.95
X21.45Y-142.75
X21.45Y-143.7
X21.45Y-144.5
X21.45Y-145.45
X21.45Y-146.25
X21.45Y-147.2
X21.45Y-148.0
X21.45Y-148.95
X21.45Y-149.75
X21.45Y-150.7
X21.45Y-151.5
X21.45Y-152.45
X21.45Y-153.25
X21.45Y-154.2
X21.45Y-155.0
X21.45Y-155.95
X21.45Y-156.75
X21.45Y-157.7
X21.45Y-158.5
X21.45Y-159.45
X21.45Y-160.25
X21.45Y-161.2
X21.45Y-162.0
X21.45Y-162.95
X21.45Y-163.75
X21.45Y-164.7
X22.6Y-19.5
X22.6Y-20.45
X22.6Y-21.25
X22.6Y-22.2
X22.6Y-23.0
X22.6Y-23.95
X22.6Y-24.75
X22.6Y-25.7
X22.6Y-26.5
X22.6Y-27.45
X22.6Y-28.25
X22.6Y-29.2
X22.6Y-30.0
X22.6Y-30.95
X22.6Y-31.75
X22.6Y-32.7
X22.6Y-33.5
X22.6Y-34.45
X22.6Y-35.25
X22.6Y-36.2
X22.6Y-37.0
X22.6Y-37.95
X22.6Y-38.75
X22.6Y-39.7
X22.6Y-40.5
X22.6Y-41.45
X22.6Y-42.25
X22.6Y-43.2
X22.6Y-44.0
X22.6Y-44.95
X22.6Y-45.75
X22.6Y-46.7
X22.6Y-47.5
X22.6Y-48.45
X22.6Y-49.25
X22.6Y-50.2
X22.6Y-51.0
X22.6Y-51.95
X22.6Y-52.75
X22.6Y-53.7
X22.6Y-54.5
X22.6Y-55.45
X22.6Y-56.25
X22.6Y-57.2
X22.6Y-58.0
X22.6Y-58.95
X22.6Y-59.75
X22.6Y-60.7
X22.6Y-61.5
X22.6Y-62.45
X22.6Y-63.25
X22.6Y-64.2
X22.6Y-65.0
X22.6Y-65.95
X22.6Y-66.75
X22.6Y-67.7
X22.6Y-68.5
X22.6Y-69.45
X22.6Y-70.25
X22.6Y-71.2
X22.6Y-72.0
X22.6Y-72.95
X22.6Y-73.75
X22.6Y-74.7
X22.6Y-109.5
X22.6Y-110.45
X22.6Y-111.25
X22.6Y-112.2
X22.6Y-113.0
X22.6Y-113.95
X22.6Y-114.75
X22.6Y-115.7
X22.6Y-116.5
X22.6Y-117.45
X22.6Y-118.25
X22.6Y-119.2
X22.6Y-120.0
X22.6Y-120.95
X22.6Y-121.75
X22.6Y-122.7
X22.6Y-123.5
X22.6Y-124.45
X22.6Y-125.25
X22.6Y-126.2
X22.6Y-127.0
X22.6Y-127.95
X22.6Y-128.75
X22.6Y-129.7
X22.6Y-130.5
X22.6Y-131.45
X22.6Y-132.25
X22.6Y-133.2
X22.6Y-134.0
X22.6Y-134.95
X22.6Y-135.75
X22.6Y-136.7
X22.6Y-137.5
X22.6Y-138.45
X22.6Y-139.25
X22.6Y-140.2
X22.6Y-141.0
X22.6Y-141.95
X22.6Y-142.75
X22.6Y-143.7
X22.6Y-144.5
X22.6Y-145.45
X22.6Y-146.25
X22.6Y-147.2
X22.6Y-148.0
X22.6Y-148.95
X22.6Y-149.75
X22.6Y-150.7
X22.6Y-151.5
X22.6Y-152.45
X22.6Y-153.25
X22.6Y-154.2
X22.6Y-155.0
X22.6Y-155.95
X22.6Y-156.75
X22.6Y-157.7
X22.6Y-158.5
X22.6Y-159.45
X22.6Y-160.25
X22.6Y-161.2
X22.6Y-162.0
X22.6Y-162.95
X22.6Y-163.75
X22.6Y-164.7
X23.2Y-19.5
X23.2Y-20.45
X23.2Y-21.25
X23.2Y-22.2
X23.2Y-23.0
X23.2Y-23.95
X23.2Y-24.75
X23.2Y-25.7
X23.2Y-26.5
X23.2Y-27.45
X23.2Y-28.25
X23.2Y-29.2
X23.2Y-30.0
X23.2Y-30.95
X23.2Y-31.75
X23.2Y-32.7
X23.2Y-33.5
X23.2Y-34.45
X23.2Y-35.25
X23.2Y-36.2
X23.2Y-37.0
X23.2Y-37.95
X23.2Y-38.75
X23.2Y-39.7
X23.2Y-40.5
X23.2Y-41.45
X23.2Y-42.25
X23.2Y-43.2
X23.2Y-44.0
X23.2Y-44.95
X23.2Y-45.75
X23.2Y-46.7
X23.2Y-47.5
X23.2Y-48.45
X23.2Y-49.25
X23.2Y-50.2
X23.2Y-51.0
X23.2Y-51.95
X23.2Y-52.75
X23.2Y-53.7
X23.2Y-54.5
X23.2Y-55.45
X23.2Y-56.25
X23.2Y-57.2
X23.2Y-58.0
X23.2Y-58.95
X23.2Y-59.75
X23.2Y-60.7
X23.2Y-61.5
X23.2Y-62.45
X23.2Y-63.25
X23.2Y-64.2
X23.2Y-65.0
X23.2Y-65.95
X23.2Y-66.75
X23.2Y-67.7
X23.2Y-68.5
X23.2Y-69.45
X23.2Y-70.25
X23.2Y-71.2
X23.2Y-72.0
X23.2Y-72.95
X23.2Y-73.75
X23.2Y-74.7
X23.2Y-109.5
X23.2Y-110.45
X23.2Y-111.25
X23.2Y-112.2
X23.2Y-113.0
X23.2Y-113.95
X23.2Y-114.75
X23.2Y-115.7
X23.2Y-116.5
X23.2Y-117.45
X23.2Y-118.25
X23.2Y-119.2
X23.2Y-120.0
X23.2Y-120.95
X23.2Y-121.75
X23.2Y-122.7
X23.2Y-123.5
X23.2Y-124.45
X23.2Y-125.25
X23.2Y-126.2
X23.2Y-127.0
X23.2Y-127.95
X23.2Y-128.75
X23.2Y-129.7
X23.2Y-130.5
X23.2Y-131.45
X23.2Y-132.25
X23.2Y-133.2
X23.2Y-134.0
X23.2Y-134.95
X23.2Y-135.75
X23.2Y-136.7
X23.2Y-137.5
X23.2Y-138.45
X23.2Y-139.25
X23.2Y-140.2
X23.2Y-141.0
X23.2Y-141.95
X23.2Y-142.75
X23.2Y-143.7
X23.2Y-144.5
X23.2Y-145.45
X23.2Y-146.25
X23.2Y-147.2
X23.2Y-148.0
X23.2Y-148.95
X23.2Y-149.75
X23.2Y-150.7
X23.2Y-151.5
X23.2Y-152.45
X23.2Y-153.25
X23.2Y-154.2
X23.2Y-155.0
X23.2Y-155.95
X23.2Y-156.75
X23.2Y-157.7
X23.2Y-158.5
X23.2Y-159.45
X23.2Y-160.25
X23.2Y-161.2
X23.2Y-162.0
X23.2Y-162.95
X23.2Y-163.75
X23.2Y-164.7
X24.35Y-19.5
X24.35Y-20.45
X24.35Y-21.25
X24.35Y-22.2
X24.35Y-23.0
X24.35Y-23.95
X24.35Y-24.75
X24.35Y-25.7
X24.35Y-26.5
X24.35Y-27.45
X24.35Y-28.25
X24.35Y-29.2
X24.35Y-30.0
X24.35Y-30.95
X24.35Y-31.75
X24.35Y-32.7
X24.35Y-33.5
X24.35Y-34.45
X24.35Y-35.25
X24.35Y-36.2
X24.35Y-37.0
X24.35Y-37.95
X24.35Y-38.75
X24.35Y-39.7
X24.35Y-40.5
X24.35Y-41.45
X24.35Y-42.25
X24.35Y-43.2
X24.35Y-44.0
X24.35Y-44.95
X24.35Y-45.75
X24.35Y-46.7
X24.35Y-47.5
X24.35Y-48.45
X24.35Y-49.25
X24.35Y-50.2
X24.35Y-51.0
X24.35Y-51.95
X24.35Y-52.75
X24.35Y-53.7
X24.35Y-54.5
X24.35Y-55.45
X24.35Y-56.25
X24.35Y-57.2
X24.35Y-58.0
X24.35Y-58.95
X24.35Y-59.75
X24.35Y-60.7
X24.35Y-61.5
X24.35Y-62.45
X24.35Y-63.25
X24.35Y-64.2
X24.35Y-65.0
X24.35Y-65.95
X24.35Y-66.75
X24.35Y-67.7
X24.35Y-68.5
X24.35Y-69.45
X24.35Y-70.25
X24.35Y-71.2
X24.35Y-72.0
X24.35Y-72.95
X24.35Y-73.75
X24.35Y-74.7
X24.35Y-109.5
X24.35Y-110.45
X24.35Y-111.25
X24.35Y-112.2
X24.35Y-113.0
X24.35Y-113.95
X24.35Y-114.75
X24.35Y-115.7
X24.35Y-116.5
X24.35Y-117.45
X24.35Y-118.25
X24.35Y-119.2
X24.35Y-120.0
X24.35Y-120.95
X24.35Y-121.75
X24.35Y-122.7
X24.35Y-123.5
X24.35Y-124.45
X24.35Y-125.25
X24.35Y-126.2
X24.35Y-127.0
X24.35Y-127.95
X24.35Y-128.75
X24.35Y-129.7
X24.35Y-130.5
X24.35Y-131.45
X24.35Y-132.25
X24.35Y-133.2
X24.35Y-134.0
X24.35Y-134.95
X24.35Y-135.75
X24.35Y-136.7
X24.35Y-137.5
X24.35Y-138.45
X24.35Y-139.25
X24.35Y-140.2
X24.35Y-141.0
X24.35Y-141.95
X24.35Y-142.75
X24.35Y-143.7
X24.35Y-144.5
X24.35Y-145.45
X24.35Y-146.25
X24.35Y-147.2
X24.35Y-148.0
X24.35Y-148.95
X24.35Y-149.75
X24.35Y-150.7
X24.35Y-151.5
X24.35Y-152.45
X24.35Y-153.25
X24.35Y-154.2
X24.35Y-155.0
X24.35Y-155.95
X24.35Y-156.75
X24.35Y-157.7
X24.35Y-158.5
X24.35Y-159.45
X24.35Y-160.25
X24.35Y-161.2
X24.35Y-162.0
X24.35Y-162.95
X24.35Y-163.75
X24.35Y-164.7
X24.95Y-19.5
X24.95Y-20.45
X24.95Y-21.25
X24.95Y-22.2
X24.95Y-23.0
X24.95Y-23.95
X24.95Y-24.75
X24.95Y-25.7
X24.95Y-26.5
X24.95Y-27.45
X24.95Y-28.25
X24.95Y-29.2
X24.95Y-30.0
X24.95Y-30.95
X24.95Y-31.75
X24.95Y-32.7
X24.95Y-33.5
X24.95Y-34.45
X24.95Y-35.25
X24.95Y-36.2
X24.95Y-37.0
X24.95Y-37.95
X24.95Y-38.75
X24.95Y-39.7
X24.95Y-40.5
X24.95Y-41.45
X24.95Y-42.25
X24.95Y-43.2
X24.95Y-44.0
X24.95Y-44.95
X24.95Y-45.75
X24.95Y-46.7
X24.95Y-47.5
X24.95Y-48.45
X24.95Y-49.25
X24.95Y-50.2
X24.95Y-51.0
X24.95Y-51.95
X24.95Y-52.75
X24.95Y-53.7
X24.95Y-54.5
X24.95Y-55.45
X24.95Y-56.25
X24.95Y-57.2
X24.95Y-58.0
X24.95Y-58.95
X24.95Y-59.75
X24.95Y-60.7
X24.95Y-61.5
X24.95Y-62.45
X24.95Y-63.25
X24.95Y-64.2
X24.95Y-65.0
X24.95Y-65.95
X24.95Y-66.75
X24.95Y-67.7
X24.95Y-68.5
X24.95Y-69.45
X24.95Y-70.25
X24.95Y-71.2
X24.95Y-72.0
X24.95Y-72.95
X24.95Y-73.75
X24.95Y-74.7
X24.95Y-109.5
X24.95Y-110.45
X24.95Y-111.25
X24.95Y-112.2
X24.95Y-113.0
X24.95Y-113.95
X24.95Y-114.75
X24.95Y-115.7
X24.95Y-116.5
X24.95Y-117.45
X24.95Y-118.25
X24.95Y-119.2
X24.95Y-120.0
X24.95Y-120.95
X24.95Y-121.75
X24.95Y-122.7
X24.95Y-123.5
X24.95Y-124.45
X24.95Y-125.25
X24.95Y-126.2
X24.95Y-127.0
X24.95Y-127.95
X24.95Y-128.75
X24.95Y-129.7
X24.95Y-130.5
X24.95Y-131.45
X24.95Y-132.25
X24.95Y-133.2
X24.95Y-134.0
X24.95Y-134.95
X24.95Y-135.75
X24.95Y-136.7
X24.95Y-137.5
X24.95Y-138.45
X24.95Y-139.25
X24.95Y-140.2
X24.95Y-141.0
X24.95Y-141.95
X24.95Y-142.75
X24.95Y-143.7
X24.95Y-144.5
X24.95Y-145.45
X24.95Y-146.25
X24.95Y-147.2
X24.95Y-148.0
X24.95Y-148.95
X24.95Y-149.75
X24.95Y-150.7
X24.95Y-151.5
X24.95Y-152.45
X24.95Y-153.25
X24.95Y-154.2
X24.95Y-155.0
X24.95Y-155.95
X24.95Y-156.75
X24.95Y-157.7
X24.95Y-158.5
X24.95Y-159.45
X24.95Y-160.25
X24.95Y-161.2
X24.95Y-162.0
X24.95Y-162.95
X24.95Y-163.75
X24.95Y-164.7
X26.1Y-19.5
X26.1Y-20.45
X26.1Y-21.25
X26.1Y-22.2
X26.1Y-23.0
X26.1Y-23.95
X26.1Y-24.75
X26.1Y-25.7
X26.1Y-26.5
X26.1Y-27.45
X26.1Y-28.25
X26.1Y-29.2
X26.1Y-30.0
X26.1Y-30.95
X26.1Y-31.75
X26.1Y-32.7
X26.1Y-33.5
X26.1Y-34.45
X26.1Y-35.25
X26.1Y-36.2
X26.1Y-37.0
X26.1Y-37.95
X26.1Y-38.75
X26.1Y-39.7
X26.1Y-40.5
X26.1Y-41.45
X26.1Y-42.25
X26.1Y-43.2
X26.1Y-44.0
X26.1Y-44.95
X26.1Y-45.75
X26.1Y-46.7
X26.1Y-47.5
X26.1Y-48.45
X26.1Y-49.25
X26.1Y-50.2
X26.1Y-51.0
X26.1Y-51.95
X26.1Y-52.75
X26.1Y-53.7
X26.1Y-54.5
X26.1Y-55.45
X26.1Y-56.25
X26.1Y-57.2
X26.1Y-58.0
X26.1Y-58.95
X26.1Y-59.75
X26.1Y-60.7
X26.1Y-61.5
X26.1Y-62.45
X26.1Y-63.25
X26.1Y-64.2
X26.1Y-65.0
X26.1Y-65.95
X26.1Y-66.75
X26.1Y-67.7
X26.1Y-68.5
X26.1Y-69.45
X26.1Y-70.25
X26.1Y-71.2
X26.1Y-72.0
X26.1Y-72.95
X26.1Y-73.75
X26.1Y-74.7
X26.1Y-109.5
X26.1Y-110.45
X26.1Y-111.25
X26.1Y-112.2
X26.1Y-113.0
X26.1Y-113.95
X26.1Y-114.75
X26.1Y-115.7
X26.1Y-116.5
X26.1Y-117.45
X26.1Y-118.25
X26.1Y-119.2
X26.1Y-120.0
X26.1Y-120.95
X26.1Y-121.75
X26.1Y-122.7
X26.1Y-123.5
X26.1Y-124.45
X26.1Y-125.25
X26.1Y-126.2
X26.1Y-127.0
X26.1Y-127.95
X26.1Y-128.75
X26.1Y-129.7
X26.1Y-130.5
X26.1Y-131.45
X26.1Y-132.25
X26.1Y-133.2
X26.1Y-134.0
X26.1Y-134.95
X26.1Y-135.75
X26.1Y-136.7
X26.1Y-137.5
X26.1Y-138.45
X26.1Y-139.25
X26.1Y-140.2
X26.1Y-141.0
X26.1Y-141.95
X26.1Y-142.75
X26.1Y-143.7
X26.1Y-144.5
X26.1Y-145.45
X26.1Y-146.25
X26.1Y-147.2
X26.1Y-148.0
X26.1Y-148.95
X26.1Y-149.75
X26.1Y-150.7
X26.1Y-151.5
X26.1Y-152.45
X26.1Y-153.25
X26.1Y-154.2
X26.1Y-155.0
X26.1Y-155.95
X26.1Y-156.75
X26.1Y-157.7
X26.1Y-158.5
X26.1Y-159.45
X26.1Y-160.25
X26.1Y-161.2
X26.1Y-162.0
X26.1Y-162.95
X26.1Y-163.75
X26.1Y-164.7
X26.7Y-19.5
X26.7Y-20.45
X26.7Y-21.25
X26.7Y-22.2
X26.7Y-23.0
X26.7Y-23.95
X26.7Y-24.75
X26.7Y-25.7
X26.7Y-26.5
X26.7Y-27.45
X26.7Y-28.25
X26.7Y-29.2
X26.7Y-30.0
X26.7Y-30.95
X26.7Y-31.75
X26.7Y-32.7
X26.7Y-33.5
X26.7Y-34.45
X26.7Y-35.25
X26.7Y-36.2
X26.7Y-37.0
X26.7Y-37.95
X26.7Y-38.75
X26.7Y-39.7
X26.7Y-40.5
X26.7Y-41.45
X26.7Y-42.25
X26.7Y-43.2
X26.7Y-44.0
X26.7Y-44.95
X26.7Y-45.75
X26.7Y-46.7
X26.7Y-47.5
X26.7Y-48.45
X26.7Y-49.25
X26.7Y-50.2
X26.7Y-51.0
X26.7Y-51.95
X26.7Y-52.75
X26.7Y-53.7
X26.7Y-54.5
X26.7Y-55.45
X26.7Y-56.25
X26.7Y-57.2
X26.7Y-58.0
X26.7Y-58.95
X26.7Y-59.75
X26.7Y-60.7
X26.7Y-61.5
X26.7Y-62.45
X26.7Y-63.25
X26.7Y-64.2
X26.7Y-65.0
X26.7Y-65.95
X26.7Y-66.75
X26.7Y-67.7
X26.7Y-68.5
X26.7Y-69.45
X26.7Y-70.25
X26.7Y-71.2
X26.7Y-72.0
X26.7Y-72.95
X26.7Y-73.75
X26.7Y-74.7
X26.7Y-109.5
X26.7Y-110.45
X26.7Y-111.25
X26.7Y-112.2
X26.7Y-113.0
X26.7Y-113.95
X26.7Y-114.75
X26.7Y-115.7
X26.7Y-116.5
X26.7Y-117.45
X26.7Y-118.25
X26.7Y-119.2
X26.7Y-120.0
X26.7Y-120.95
X26.7Y-121.75
X26.7Y-122.7
X26.7Y-123.5
X26.7Y-124.45
X26.7Y-125.25
X26.7Y-126.2
X26.7Y-127.0
X26.7Y-127.95
X26.7Y-128.75
X26.7Y-129.7
X26.7Y-130.5
X26.7Y-131.45
X26.7Y-132.25
X26.7Y-133.2
X26.7Y-134.0
X26.7Y-134.95
X26.7Y-135.75
X26.7Y-136.7
X26.7Y-137.5
X26.7Y-138.45
X26.7Y-139.25
X26.7Y-140.2
X26.7Y-141.0
X26.7Y-141.95
X26.7Y-142.75
X26.7Y-143.7
X26.7Y-144.5
X26.7Y-145.45
X26.7Y-146.25
X26.7Y-147.2
X26.7Y-148.0
X26.7Y-148.95
X26.7Y-149.75
X26.7Y-150.7
X26.7Y-151.5
X26.7Y-152.45
X26.7Y-153.25
X26.7Y-154.2
X26.7Y-155.0
X26.7Y-155.95
X26.7Y-156.75
X26.7Y-157.7
X26.7Y-158.5
X26.7Y-159.45
X26.7Y-160.25
X26.7Y-161.2
X26.7Y-162.0
X26.7Y-162.95
X26.7Y-163.75
X26.7Y-164.7
X27.85Y-19.5
X27.85Y-20.45
X27.85Y-21.25
X27.85Y-22.2
X27.85Y-23.0
X27.85Y-23.95
X27.85Y-24.75
X27.85Y-25.7
X27.85Y-26.5
X27.85Y-27.45
X27.85Y-28.25
X27.85Y-29.2
X27.85Y-30.0
X27.85Y-30.95
X27.85Y-31.75
X27.85Y-32.7
X27.85Y-33.5
X27.85Y-34.45
X27.85Y-35.25
X27.85Y-36.2
X27.85Y-37.0
X27.85Y-37.95
X27.85Y-38.75
X27.85Y-39.7
X27.85Y-40.5
X27.85Y-41.45
X27.85Y-42.25
X27.85Y-43.2
X27.85Y-44.0
X27.85Y-44.95
X27.85Y-45.75
X27.85Y-46.7
X27.85Y-47.5
X27.85Y-48.45
X27.85Y-49.25
X27.85Y-50.2
X27.85Y-51.0
X27.85Y-51.95
X27.85Y-52.75
X27.85Y-53.7
X27.85Y-54.5
X27.85Y-55.45
X27.85Y-56.25
X27.85Y-57.2
X27.85Y-58.0
X27.85Y-58.95
X27.85Y-59.75
X27.85Y-60.7
X27.85Y-61.5
X27.85Y-62.45
X27.85Y-63.25
X27.85Y-64.2
X27.85Y-65.0
X27.85Y-65.95
X27.85Y-66.75
X27.85Y-67.7
X27.85Y-68.5
X27.85Y-69.45
X27.85Y-70.25
X27.85Y-71.2
X27.85Y-72.0
X27.85Y-72.95
X27.85Y-73.75
X27.85Y-74.7
X27.85Y-109.5
X27.85Y-110.45
X27.85Y-111.25
X27.85Y-112.2
X27.85Y-113.0
X27.85Y-113.95
X27.85Y-114.75
X27.85Y-115.7
X27.85Y-116.5
X27.85Y-117.45
X27.85Y-118.25
X27.85Y-119.2
X27.85Y-120.0
X27.85Y-120.95
X27.85Y-121.75
X27.85Y-122.7
X27.85Y-123.5
X27.85Y-124.45
X27.85Y-125.25
X27.85Y-126.2
X27.85Y-127.0
X27.85Y-127.95
X27.85Y-128.75
X27.85Y-129.7
X27.85Y-130.5
X27.85Y-131.45
X27.85Y-132.25
X27.85Y-133.2
X27.85Y-134.0
X27.85Y-134.95
X27.85Y-135.75
X27.85Y-136.7
X27.85Y-137.5
X27.85Y-138.45
X27.85Y-139.25
X27.85Y-140.2
X27.85Y-141.0
X27.85Y-141.95
X27.85Y-142.75
X27.85Y-143.7
X27.85Y-144.5
X27.85Y-145.45
X27.85Y-146.25
X27.85Y-147.2
X27.85Y-148.0
X27.85Y-148.95
X27.85Y-149.75
X27.85Y-150.7
X27.85Y-151.5
X27.85Y-152.45
X27.85Y-153.25
X27.85Y-154.2
X27.85Y-155.0
X27.85Y-155.95
X27.85Y-156.75
X27.85Y-157.7
X27.85Y-158.5
X27.85Y-159.45
X27.85Y-160.25
X27.85Y-161.2
X27.85Y-162.0
X27.85Y-162.95
X27.85Y-163.75
X27.85Y-164.7
X28.45Y-19.5
X28.45Y-20.45
X28.45Y-21.25
X28.45Y-22.2
X28.45Y-23.0
X28.45Y-23.95
X28.45Y-24.75
X28.45Y-25.7
X28.45Y-26.5
X28.45Y-27.45
X28.45Y-28.25
X28.45Y-29.2
X28.45Y-30.0
X28.45Y-30.95
X28.45Y-31.75
X28.45Y-32.7
X28.45Y-33.5
X28.45Y-34.45
X28.45Y-35.25
X28.45Y-36.2
X28.45Y-37.0
X28.45Y-37.95
X28.45Y-38.75
X28.45Y-39.7
X28.45Y-40.5
X28.45Y-41.45
X28.45Y-42.25
X28.45Y-43.2
X28.45Y-44.0
X28.45Y-44.95
X28.45Y-45.75
X28.45Y-46.7
X28.45Y-47.5
X28.45Y-48.45
X28.45Y-49.25
X28.45Y-50.2
X28.45Y-51.0
X28.45Y-51.95
X28.45Y-52.75
X28.45Y-53.7
X28.45Y-54.5
X28.45Y-55.45
X28.45Y-56.25
X28.45Y-57.2
X28.45Y-58.0
X28.45Y-58.95
X28.45Y-59.75
X28.45Y-60.7
X28.45Y-61.5
X28.45Y-62.45
X28.45Y-63.25
X28.45Y-64.2
X28.45Y-65.0
X28.45Y-65.95
X28.45Y-66.75
X28.45Y-67.7
X28.45Y-68.5
X28.45Y-69.45
X28.45Y-70.25
X28.45Y-71.2
X28.45Y-72.0
X28.45Y-72.95
X28.45Y-73.75
X28.45Y-74.7
X28.45Y-109.5
X28.45Y-110.45
X28.45Y-111.25
X28.45Y-112.2
X28.45Y-113.0
X28.45Y-113.95
X28.45Y-114.75
X28.45Y-115.7
X28.45Y-116.5
X28.45Y-117.45
X28.45Y-118.25
X28.45Y-119.2
X28.45Y-120.0
X28.45Y-120.95
X28.45Y-121.75
X28.45Y-122.7
X28.45Y-123.5
X28.45Y-124.45
X28.45Y-125.25
X28.45Y-126.2
X28.45Y-127.0
X28.45Y-127.95
X28.45Y-128.75
X28.45Y-129.7
X28.45Y-130.5
X28.45Y-131.45
X28.45Y-132.25
X28.45Y-133.2
X28.45Y-134.0
X28.45Y-134.95
X28.45Y-135.75
X28.45Y-136.7
X28.45Y-137.5
X28.45Y-138.45
X28.45Y-139.25
X28.45Y-140.2
X28.45Y-141.0
X28.45Y-141.95
X28.45Y-142.75
X28.45Y-143.7
X28.45Y-144.5
X28.45Y-145.45
X28.45Y-146.25
X28.45Y-147.2
X28.45Y-148.0
X28.45Y-148.95
X28.45Y-149.75
X28.45Y-150.7
X28.45Y-151.5
X28.45Y-152.45
X28.45Y-153.25
X28.45Y-154.2
X28.45Y-155.0
X28.45Y-155.95
X28.45Y-156.75
X28.45Y-157.7
X28.45Y-158.5
X28.45Y-159.45
X28.45Y-160.25
X28.45Y-161.2
X28.45Y-162.0
X28.45Y-162.95
X28.45Y-163.75
X28.45Y-164.7
X29.6Y-19.5
X29.6Y-20.45
X29.6Y-21.25
X29.6Y-22.2
X29.6Y-23.0
X29.6Y-23.95
X29.6Y-24.75
X29.6Y-25.7
X29.6Y-26.5
X29.6Y-27.45
X29.6Y-28.25
X29.6Y-29.2
X29.6Y-30.0
X29.6Y-30.95
X29.6Y-31.75
X29.6Y-32.7
X29.6Y-33.5
X29.6Y-34.45
X29.6Y-35.25
X29.6Y-36.2
X29.6Y-37.0
X29.6Y-37.95
X29.6Y-38.75
X29.6Y-39.7
X29.6Y-40.5
X29.6Y-41.45
X29.6Y-42.25
X29.6Y-43.2
X29.6Y-44.0
X29.6Y-44.95
X29.6Y-45.75
X29.6Y-46.7
X29.6Y-47.5
X29.6Y-48.45
X29.6Y-49.25
X29.6Y-50.2
X29.6Y-51.0
X29.6Y-51.95
X29.6Y-52.75
X29.6Y-53.7
X29.6Y-54.5
X29.6Y-55.45
X29.6Y-56.25
X29.6Y-57.2
X29.6Y-58.0
X29.6Y-58.95
X29.6Y-59.75
X29.6Y-60.7
X29.6Y-61.5
X29.6Y-62.45
X29.6Y-63.25
X29.6Y-64.2
X29.6Y-65.0
X29.6Y-65.95
X29.6Y-66.75
X29.6Y-67.7
X29.6Y-68.5
X29.6Y-69.45
X29.6Y-70.25
X29.6Y-71.2
X29.6Y-72.0
X29.6Y-72.95
X29.6Y-73.75
X29.6Y-74.7
X29.6Y-109.5
X29.6Y-110.45
X29.6Y-111.25
X29.6Y-112.2
X29.6Y-113.0
X29.6Y-113.95
X29.6Y-114.75
X29.6Y-115.7
X29.6Y-116.5
X29.6Y-117.45
X29.6Y-118.25
X29.6Y-119.2
X29.6Y-120.0
X29.6Y-120.95
X29.6Y-121.75
X29.6Y-122.7
X29.6Y-123.5
X29.6Y-124.45
X29.6Y-125.25
X29.6Y-126.2
X29.6Y-127.0
X29.6Y-127.95
X29.6Y-128.75
X29.6Y-129.7
X29.6Y-130.5
X29.6Y-131.45
X29.6Y-132.25
X29.6Y-133.2
X29.6Y-134.0
X29.6Y-134.95
X29.6Y-135.75
X29.6Y-136.7
X29.6Y-137.5
X29.6Y-138.45
X29.6Y-139.25
X29.6Y-140.2
X29.6Y-141.0
X29.6Y-141.95
X29.6Y-142.75
X29.6Y-143.7
X29.6Y-144.5
X29.6Y-145.45
X29.6Y-146.25
X29.6Y-147.2
X29.6Y-148.0
X29.6Y-148.95
X29.6Y-149.75
X29.6Y-150.7
X29.6Y-151.5
X29.6Y-152.45
X29.6Y-153.25
X29.6Y-154.2
X29.6Y-155.0
X29.6Y-155.95
X29.6Y-156.75
X29.6Y-157.7
X29.6Y-158.5
X29.6Y-159.45
X29.6Y-160.25
X29.6Y-161.2
X29.6Y-162.0
X29.6Y-162.95
X29.6Y-163.75
X29.6Y-164.7
X30.2Y-19.5
X30.2Y-20.45
X30.2Y-21.25
X30.2Y-22.2
X30.2Y-23.0
X30.2Y-23.95
X30.2Y-24.75
X30.2Y-25.7
X30.2Y-26.5
X30.2Y-27.45
X30.2Y-28.25
X30.2Y-29.2
X30.2Y-30.0
X30.2Y-30.95
X30.2Y-31.75
X30.2Y-32.7
X30.2Y-33.5
X30.2Y-34.45
X30.2Y-35.25
X30.2Y-36.2
X30.2Y-37.0
X30.2Y-37.95
X30.2Y-38.75
X30.2Y-39.7
X30.2Y-40.5
X30.2Y-41.45
X30.2Y-42.25
X30.2Y-43.2
X30.2Y-44.0
X30.2Y-44.95
X30.2Y-45.75
X30.2Y-46.7
X30.2Y-47.5
X30.2Y-48.45
X30.2Y-49.25
X30.2Y-50.2
X30.2Y-51.0
X30.2Y-51.95
X30.2Y-52.75
X30.2Y-53.7
X30.2Y-54.5
X30.2Y-55.45
X30.2Y-56.25
X30.2Y-57.2
X30.2Y-58.0
X30.2Y-58.95
X30.2Y-59.75
X30.2Y-60.7
X30.2Y-61.5
X30.2Y-62.45
X30.2Y-63.25
X30.2Y-64.2
X30.2Y-65.0
X30.2Y-65.95
X30.2Y-66.75
X30.2Y-67.7
X30.2Y-68.5
X30.2Y-69.45
X30.2Y-70.25
X30.2Y-71.2
X30.2Y-72.0
X30.2Y-72.95
X30.2Y-73.75
X30.2Y-74.7
X30.2Y-109.5
X30.2Y-110.45
X30.2Y-111.25
X30.2Y-112.2
X30.2Y-113.0
X30.2Y-113.95
X30.2Y-114.75
X30.2Y-115.7
X30.2Y-116.5
X30.2Y-117.45
X30.2Y-118.25
X30.2Y-119.2
X30.2Y-120.0
X30.2Y-120.95
X30.2Y-121.75
X30.2Y-122.7
X30.2Y-123.5
X30.2Y-124.45
X30.2Y-125.25
X30.2Y-126.2
X30.2Y-127.0
X30.2Y-127.95
X30.2Y-128.75
X30.2Y-129.7
X30.2Y-130.5
X30.2Y-131.45
X30.2Y-132.25
X30.2Y-133.2
X30.2Y-134.0
X30.2Y-134.95
X30.2Y-135.75
X30.2Y-136.7
X30.2Y-137.5
X30.2Y-138.45
X30.2Y-139.25
X30.2Y-140.2
X30.2Y-141.0
X30.2Y-141.95
X30.2Y-142.75
X30.2Y-143.7
X30.2Y-144.5
X30.2Y-145.45
X30.2Y-146.25
X30.2Y-147.2
X30.2Y-148.0
X30.2Y-148.95
X30.2Y-149.75
X30.2Y-150.7
X30.2Y-151.5
X30.2Y-152.45
X30.2Y-153.25
X30.2Y-154.2
X30.2Y-155.0
X30.2Y-155.95
X30.2Y-156.75
X30.2Y-157.7
X30.2Y-158.5
X30.2Y-159.45
X30.2Y-160.25
X30.2Y-161.2
X30.2Y-162.0
X30.2Y-162.95
X30.2Y-163.75
X30.2Y-164.7
X31.35Y-19.5
X31.35Y-20.45
X31.35Y-21.25
X31.35Y-22.2
X31.35Y-23.0
X31.35Y-23.95
X31.35Y-24.75
X31.35Y-25.7
X31.35Y-26.5
X31.35Y-27.45
X31.35Y-28.25
X31.35Y-29.2
X31.35Y-30.0
X31.35Y-30.95
X31.35Y-31.75
X31.35Y-32.7
X31.35Y-33.5
X31.35Y-34.45
X31.35Y-35.25
X31.35Y-36.2
X31.35Y-37.0
X31.35Y-37.95
X31.35Y-38.75
X31.35Y-39.7
X31.35Y-40.5
X31.35Y-41.45
X31.35Y-42.25
X31.35Y-43.2
X31.35Y-44.0
X31.35Y-44.95
X31.35Y-45.75
X31.35Y-46.7
X31.35Y-47.5
X31.35Y-48.45
X31.35Y-49.25
X31.35Y-50.2
X31.35Y-51.0
X31.35Y-51.95
X31.35Y-52.75
X31.35Y-53.7
X31.35Y-54.5
X31.35Y-55.45
X31.35Y-56.25
X31.35Y-57.2
X31.35Y-58.0
X31.35Y-58.95
X31.35Y-59.75
X31.35Y-60.7
X31.35Y-61.5
X31.35Y-62.45
X31.35Y-63.25
X31.35Y-64.2
X31.35Y-65.0
X31.35Y-65.95
X31.35Y-66.75
X31.35Y-67.7
X31.35Y-68.5
X31.35Y-69.45
X31.35Y-70.25
X31.35Y-71.2
X31.35Y-72.0
X31.35Y-72.95
X31.35Y-73.75
X31.35Y-74.7
X31.35Y-109.5
X31.35Y-110.45
X31.35Y-111.25
X31.35Y-112.2
X31.35Y-113.0
X31.35Y-113.95
X31.35Y-114.75
X31.35Y-115.7
X31.35Y-116.5
X31.35Y-117.45
X31.35Y-118.25
X31.35Y-119.2
X31.35Y-120.0
X31.35Y-120.95
X31.35Y-121.75
X31.35Y-122.7
X31.35Y-123.5
X31.35Y-124.45
X31.35Y-125.25
X31.35Y-126.2
X31.35Y-127.0
X31.35Y-127.95
X31.35Y-128.75
X31.35Y-129.7
X31.35Y-130.5
X31.35Y-131.45
X31.35Y-132.25
X31.35Y-133.2
X31.35Y-134.0
X31.35Y-134.95
X31.35Y-135.75
X31.35Y-136.7
X31.35Y-137.5
X31.35Y-138.45
X31.35Y-139.25
X31.35Y-140.2
X31.35Y-141.0
X31.35Y-141.95
X31.35Y-142.75
X31.35Y-143.7
X31.35Y-144.5
X31.35Y-145.45
X31.35Y-146.25
X31.35Y-147.2
X31.35Y-148.0
X31.35Y-148.95
X31.35Y-149.75
X31.35Y-150.7
X31.35Y-151.5
X31.35Y-152.45
X31.35Y-153.25
X31.35Y-154.2
X31.35Y-155.0
X31.35Y-155.95
X31.35Y-156.75
X31.35Y-157.7
X31.35Y-158.5
X31.35Y-159.45
X31.35Y-160.25
X31.35Y-161.2
X31.35Y-162.0
X31.35Y-162.95
X31.35Y-163.75
X31.35Y-164.7
X31.95Y-19.5
X31.95Y-20.45
X31.95Y-21.25
X31.95Y-22.2
X31.95Y-23.0
X31.95Y-23.95
X31.95Y-24.75
X31.95Y-25.7
X31.95Y-26.5
X31.95Y-27.45
X31.95Y-28.25
X31.95Y-29.2
X31.95Y-30.0
X31.95Y-30.95
X31.95Y-31.75
X31.95Y-32.7
X31.95Y-33.5
X31.95Y-34.45
X31.95Y-35.25
X31.95Y-36.2
X31.95Y-37.0
X31.95Y-37.95
X31.95Y-38.75
X31.95Y-39.7
X31.95Y-40.5
X31.95Y-41.45
X31.95Y-42.25
X31.95Y-43.2
X31.95Y-44.0
X31.95Y-44.95
X31.95Y-45.75
X31.95Y-46.7
X31.95Y-47.5
X31.95Y-48.45
X31.95Y-49.25
X31.95Y-50.2
X31.95Y-51.0
X31.95Y-51.95
X31.95Y-52.75
X31.95Y-53.7
X31.95Y-54.5
X31.95Y-55.45
X31.95Y-56.25
X31.95Y-57.2
X31.95Y-58.0
X31.95Y-58.95
X31.95Y-59.75
X31.95Y-60.7
X31.95Y-61.5
X31.95Y-62.45
X31.95Y-63.25
X31.95Y-64.2
X31.95Y-65.0
X31.95Y-65.95
X31.95Y-66.75
X31.95Y-67.7
X31.95Y-68.5
X31.95Y-69.45
X31.95Y-70.25
X31.95Y-71.2
X31.95Y-72.0
X31.95Y-72.95
X31.95Y-73.75
X31.95Y-74.7
X31.95Y-109.5
X31.95Y-110.45
X31.95Y-111.25
X31.95Y-112.2
X31.95Y-113.0
X31.95Y-113.95
X31.95Y-114.75
X31.95Y-115.7
X31.95Y-116.5
X31.95Y-117.45
X31.95Y-118.25
X31.95Y-119.2
X31.95Y-120.0
X31.95Y-120.95
X31.95Y-121.75
X31.95Y-122.7
X31.95Y-123.5
X31.95Y-124.45
X31.95Y-125.25
X31.95Y-126.2
X31.95Y-127.0
X31.95Y-127.95
X31.95Y-128.75
X31.95Y-129.7
X31.95Y-130.5
X31.95Y-131.45
X31.95Y-132.25
X31.95Y-133.2
X31.95Y-134.0
X31.95Y-134.95
X31.95Y-135.75
X31.95Y-136.7
X31.95Y-137.5
X31.95Y-138.45
X31.95Y-139.25
X31.95Y-140.2
X31.95Y-141.0
X31.95Y-141.95
X31.95Y-142.75
X31.95Y-143.7
X31.95Y-144.5
X31.95Y-145.45
X31.95Y-146.25
X31.95Y-147.2
X31.95Y-148.0
X31.95Y-148.95
X31.95Y-149.75
X31.95Y-150.7
X31.95Y-151.5
X31.95Y-152.45
X31.95Y-153.25
X31.95Y-154.2
X31.95Y-155.0
X31.95Y-155.95
X31.95Y-156.75
X31.95Y-157.7
X31.95Y-158.5
X31.95Y-159.45
X31.95Y-160.25
X31.95Y-161.2
X31.95Y-162.0
X31.95Y-162.95
X31.95Y-163.75
X31.95Y-164.7
X33.1Y-19.5
X33.1Y-20.45
X33.1Y-21.25
X33.1Y-22.2
X33.1Y-23.0
X33.1Y-23.95
X33.1Y-24.75
X33.1Y-25.7
X33.1Y-26.5
X33.1Y-27.45
X33.1Y-28.25
X33.1Y-29.2
X33.1Y-30.0
X33.1Y-30.95
X33.1Y-31.75
X33.1Y-32.7
X33.1Y-33.5
X33.1Y-34.45
X33.1Y-35.25
X33.1Y-36.2
X33.1Y-37.0
X33.1Y-37.95
X33.1Y-38.75
X33.1Y-39.7
X33.1Y-40.5
X33.1Y-41.45
X33.1Y-42.25
X33.1Y-43.2
X33.1Y-44.0
X33.1Y-44.95
X33.1Y-45.75
X33.1Y-46.7
X33.1Y-47.5
X33.1Y-48.45
X33.1Y-49.25
X33.1Y-50.2
X33.1Y-51.0
X33.1Y-51.95
X33.1Y-52.75
X33.1Y-53.7
X33.1Y-54.5
X33.1Y-55.45
X33.1Y-56.25
X33.1Y-57.2
X33.1Y-58.0
X33.1Y-58.95
X33.1Y-59.75
X33.1Y-60.7
X33.1Y-61.5
X33.1Y-62.45
X33.1Y-63.25
X33.1Y-64.2
X33.1Y-65.0
X33.1Y-65.95
X33.1Y-66.75
X33.1Y-67.7
X33.1Y-68.5
X33.1Y-69.45
X33.1Y-70.25
X33.1Y-71.2
X33.1Y-72.0
X33.1Y-72.95
X33.1Y-73.75
X33.1Y-74.7
X33.1Y-109.5
X33.1Y-110.45
X33.1Y-111.25
X33.1Y-112.2
X33.1Y-113.0
X33.1Y-113.95
X33.1Y-114.75
X33.1Y-115.7
X33.1Y-116.5
X33.1Y-117.45
X33.1Y-118.25
X33.1Y-119.2
X33.1Y-120.0
X33.1Y-120.95
X33.1Y-121.75
X33.1Y-122.7
X33.1Y-123.5
X33.1Y-124.45
X33.1Y-125.25
X33.1Y-126.2
X33.1Y-127.0
X33.1Y-127.95
X33.1Y-128.75
X33.1Y-129.7
X33.1Y-130.5
X33.1Y-131.45
X33.1Y-132.25
X33.1Y-133.2
X33.1Y-134.0
X33.1Y-134.95
X33.1Y-135.75
X33.1Y-136.7
X33.1Y-137.5
X33.1Y-138.45
X33.1Y-139.25
X33.1Y-140.2
X33.1Y-141.0
X33.1Y-141.95
X33.1Y-142.75
X33.1Y-143.7
X33.1Y-144.5
X33.1Y-145.45
X33.1Y-146.25
X33.1Y-147.2
X33.1Y-148.0
X33.1Y-148.95
X33.1Y-149.75
X33.1Y-150.7
X33.1Y-151.5
X33.1Y-152.45
X33.1Y-153.25
X33.1Y-154.2
X33.1Y-155.0
X33.1Y-155.95
X33.1Y-156.75
X33.1Y-157.7
X33.1Y-158.5
X33.1Y-159.45
X33.1Y-160.25
X33.1Y-161.2
X33.1Y-162.0
X33.1Y-162.95
X33.1Y-163.75
X33.1Y-164.7
X33.7Y-19.5
X33.7Y-20.45
X33.7Y-21.25
X33.7Y-22.2
X33.7Y-23.0
X33.7Y-23.95
X33.7Y-24.75
X33.7Y-25.7
X33.7Y-26.5
X33.7Y-27.45
X33.7Y-28.25
X33.7Y-29.2
X33.7Y-30.0
X33.7Y-30.95
X33.7Y-31.75
X33.7Y-32.7
X33.7Y-33.5
X33.7Y-34.45
X33.7Y-35.25
X33.7Y-36.2
X33.7Y-37.0
X33.7Y-37.95
X33.7Y-38.75
X33.7Y-39.7
X33.7Y-40.5
X33.7Y-41.45
X33.7Y-42.25
X33.7Y-43.2
X33.7Y-44.0
X33.7Y-44.95
X33.7Y-45.75
X33.7Y-46.7
X33.7Y-47.5
X33.7Y-48.45
X33.7Y-49.25
X33.7Y-50.2
X33.7Y-51.0
X33.7Y-51.95
X33.7Y-52.75
X33.7Y-53.7
X33.7Y-54.5
X33.7Y-55.45
X33.7Y-56.25
X33.7Y-57.2
X33.7Y-58.0
X33.7Y-58.95
X33.7Y-59.75
X33.7Y-60.7
X33.7Y-61.5
X33.7Y-62.45
X33.7Y-63.25
X33.7Y-64.2
X33.7Y-65.0
X33.7Y-65.95
X33.7Y-66.75
X33.7Y-67.7
X33.7Y-68.5
X33.7Y-69.45
X33.7Y-70.25
X33.7Y-71.2
X33.7Y-72.0
X33.7Y-72.95
X33.7Y-73.75
X33.7Y-74.7
X33.7Y-109.5
X33.7Y-110.45
X33.7Y-111.25
X33.7Y-112.2
X33.7Y-113.0
X33.7Y-113.95
X33.7Y-114.75
X33.7Y-115.7
X33.7Y-116.5
X33.7Y-117.45
X33.7Y-118.25
X33.7Y-119.2
X33.7Y-120.0
X33.7Y-120.95
X33.7Y-121.75
X33.7Y-122.7
X33.7Y-123.5
X33.7Y-124.45
X33.7Y-125.25
X33.7Y-126.2
X33.7Y-127.0
X33.7Y-127.95
X33.7Y-128.75
X33.7Y-129.7
X33.7Y-130.5
X33.7Y-131.45
X33.7Y-132.25
X33.7Y-133.2
X33.7Y-134.0
X33.7Y-134.95
X33.7Y-135.75
X33.7Y-136.7
X33.7Y-137.5
X33.7Y-138.45
X33.7Y-139.25
X33.7Y-140.2
X33.7Y-141.0
X33.7Y-141.95
X33.7Y-142.75
X33.7Y-143.7
X33.7Y-144.5
X33.7Y-145.45
X33.7Y-146.25
X33.7Y-147.2
X33.7Y-148.0
X33.7Y-148.95
X33.7Y-149.75
X33.7Y-150.7
X33.7Y-151.5
X33.7Y-152.45
X33.7Y-153.25
X33.7Y-154.2
X33.7Y-155.0
X33.7Y-155.95
X33.7Y-156.75
X33.7Y-157.7
X33.7Y-158.5
X33.7Y-159.45
X33.7Y-160.25
X33.7Y-161.2
X33.7Y-162.0
X33.7Y-162.95
X33.7Y-163.75
X33.7Y-164.7
X34.85Y-19.5
X34.85Y-20.45
X34.85Y-21.25
X34.85Y-22.2
X34.85Y-23.0
X34.85Y-23.95
X34.85Y-24.75
X34.85Y-25.7
X34.85Y-26.5
X34.85Y-27.45
X34.85Y-28.25
X34.85Y-29.2
X34.85Y-30.0
X34.85Y-30.95
X34.85Y-31.75
X34.85Y-32.7
X34.85Y-33.5
X34.85Y-34.45
X34.85Y-35.25
X34.85Y-36.2
X34.85Y-37.0
X34.85Y-37.95
X34.85Y-38.75
X34.85Y-39.7
X34.85Y-40.5
X34.85Y-41.45
X34.85Y-42.25
X34.85Y-43.2
X34.85Y-44.0
X34.85Y-44.95
X34.85Y-45.75
X34.85Y-46.7
X34.85Y-47.5
X34.85Y-48.45
X34.85Y-49.25
X34.85Y-50.2
X34.85Y-51.0
X34.85Y-51.95
X34.85Y-52.75
X34.85Y-53.7
X34.85Y-54.5
X34.85Y-55.45
X34.85Y-56.25
X34.85Y-57.2
X34.85Y-58.0
X34.85Y-58.95
X34.85Y-59.75
X34.85Y-60.7
X34.85Y-61.5
X34.85Y-62.45
X34.85Y-63.25
X34.85Y-64.2
X34.85Y-65.0
X34.85Y-65.95
X34.85Y-66.75
X34.85Y-67.7
X34.85Y-68.5
X34.85Y-69.45
X34.85Y-70.25
X34.85Y-71.2
X34.85Y-72.0
X34.85Y-72.95
X34.85Y-73.75
X34.85Y-74.7
X34.85Y-109.5
X34.85Y-110.45
X34.85Y-111.25
X34.85Y-112.2
X34.85Y-113.0
X34.85Y-113.95
X34.85Y-114.75
X34.85Y-115.7
X34.85Y-116.5
X34.85Y-117.45
X34.85Y-118.25
X34.85Y-119.2
X34.85Y-120.0
X34.85Y-120.95
X34.85Y-121.75
X34.85Y-122.7
X34.85Y-123.5
X34.85Y-124.45
X34.85Y-125.25
X34.85Y-126.2
X34.85Y-127.0
X34.85Y-127.95
X34.85Y-128.75
X34.85Y-129.7
X34.85Y-130.5
X34.85Y-131.45
X34.85Y-132.25
X34.85Y-133.2
X34.85Y-134.0
X34.85Y-134.95
X34.85Y-135.75
X34.85Y-136.7
X34.85Y-137.5
X34.85Y-138.45
X34.85Y-139.25
X34.85Y-140.2
X34.85Y-141.0
X34.85Y-141.95
X34.85Y-142.75
X34.85Y-143.7
X34.85Y-144.5
X34.85Y-145.45
X34.85Y-146.25
X34.85Y-147.2
X34.85Y-148.0
X34.85Y-148.95
X34.85Y-149.75
X34.85Y-150.7
X34.85Y-151.5
X34.85Y-152.45
X34.85Y-153.25
X34.85Y-154.2
X34.85Y-155.0
X34.85Y-155.95
X34.85Y-156.75
X34.85Y-157.7
X34.85Y-158.5
X34.85Y-159.45
X34.85Y-160.25
X34.85Y-161.2
X34.85Y-162.0
X34.85Y-162.95
X34.85Y-163.75
X34.85Y-164.7
X35.45Y-19.5
X35.45Y-20.45
X35.45Y-21.25
X35.45Y-22.2
X35.45Y-23.0
X35.45Y-23.95
X35.45Y-24.75
X35.45Y-25.7
X35.45Y-26.5
X35.45Y-27.45
X35.45Y-28.25
X35.45Y-29.2
X35.45Y-30.0
X35.45Y-30.95
X35.45Y-31.75
X35.45Y-32.7
X35.45Y-33.5
X35.45Y-34.45
X35.45Y-35.25
X35.45Y-36.2
X35.45Y-37.0
X35.45Y-37.95
X35.45Y-38.75
X35.45Y-39.7
X35.45Y-40.5
X35.45Y-41.45
X35.45Y-42.25
X35.45Y-43.2
X35.45Y-44.0
X35.45Y-44.95
X35.45Y-45.75
X35.45Y-46.7
X35.45Y-47.5
X35.45Y-48.45
X35.45Y-49.25
X35.45Y-50.2
X35.45Y-51.0
X35.45Y-51.95
X35.45Y-52.75
X35.45Y-53.7
X35.45Y-54.5
X35.45Y-55.45
X35.45Y-56.25
X35.45Y-57.2
X35.45Y-58.0
X35.45Y-58.95
X35.45Y-59.75
X35.45Y-60.7
X35.45Y-61.5
X35.45Y-62.45
X35.45Y-63.25
X35.45Y-64.2
X35.45Y-65.0
X35.45Y-65.95
X35.45Y-66.75
X35.45Y-67.7
X35.45Y-68.5
X35.45Y-69.45
X35.45Y-70.25
X35.45Y-71.2
X35.45Y-72.0
X35.45Y-72.95
X35.45Y-73.75
X35.45Y-74.7
X35.45Y-109.5
X35.45Y-110.45
X35.45Y-111.25
X35.45Y-112.2
X35.45Y-113.0
X35.45Y-113.95
X35.45Y-114.75
X35.45Y-115.7
X35.45Y-116.5
X35.45Y-117.45
X35.45Y-118.25
X35.45Y-119.2
X35.45Y-120.0
X35.45Y-120.95
X35.45Y-121.75
X35.45Y-122.7
X35.45Y-123.5
X35.45Y-124.45
X35.45Y-125.25
X35.45Y-126.2
X35.45Y-127.0
X35.45Y-127.95
X35.45Y-128.75
X35.45Y-129.7
X35.45Y-130.5
X35.45Y-131.45
X35.45Y-132.25
X35.45Y-133.2
X35.45Y-134.0
X35.45Y-134.95
X35.45Y-135.75
X35.45Y-136.7
X35.45Y-137.5
X35.45Y-138.45
X35.45Y-139.25
X35.45Y-140.2
X35.45Y-141.0
X35.45Y-141.95
X35.45Y-142.75
X35.45Y-143.7
X35.45Y-144.5
X35.45Y-145.45
X35.45Y-146.25
X35.45Y-147.2
X35.45Y-148.0
X35.45Y-148.95
X35.45Y-149.75
X35.45Y-150.7
X35.45Y-151.5
X35.45Y-152.45
X35.45Y-153.25
X35.45Y-154.2
X35.45Y-155.0
X35.45Y-155.95
X35.45Y-156.75
X35.45Y-157.7
X35.45Y-158.5
X35.45Y-159.45
X35.45Y-160.25
X35.45Y-161.2
X35.45Y-162.0
X35.45Y-162.95
X35.45Y-163.75
X35.45Y-164.7
X36.6Y-19.5
X36.6Y-20.45
X36.6Y-21.25
X36.6Y-22.2
X36.6Y-23.0
X36.6Y-23.95
X36.6Y-24.75
X36.6Y-25.7
X36.6Y-26.5
X36.6Y-27.45
X36.6Y-28.25
X36.6Y-29.2
X36.6Y-30.0
X36.6Y-30.95
X36.6Y-31.75
X36.6Y-32.7
X36.6Y-33.5
X36.6Y-34.45
X36.6Y-35.25
X36.6Y-36.2
X36.6Y-37.0
X36.6Y-37.95
X36.6Y-38.75
X36.6Y-39.7
X36.6Y-40.5
X36.6Y-41.45
X36.6Y-42.25
X36.6Y-43.2
X36.6Y-44.0
X36.6Y-44.95
X36.6Y-45.75
X36.6Y-46.7
X36.6Y-47.5
X36.6Y-48.45
X36.6Y-49.25
X36.6Y-50.2
X36.6Y-51.0
X36.6Y-51.95
X36.6Y-52.75
X36.6Y-53.7
X36.6Y-54.5
X36.6Y-55.45
X36.6Y-56.25
X36.6Y-57.2
X36.6Y-58.0
X36.6Y-58.95
X36.6Y-59.75
X36.6Y-60.7
X36.6Y-61.5
X36.6Y-62.45
X36.6Y-63.25
X36.6Y-64.2
X36.6Y-65.0
X36.6Y-65.95
X36.6Y-66.75
X36.6Y-67.7
X36.6Y-68.5
X36.6Y-69.45
X36.6Y-70.25
X36.6Y-71.2
X36.6Y-72.0
X36.6Y-72.95
X36.6Y-73.75
X36.6Y-74.7
X36.6Y-109.5
X36.6Y-110.45
X36.6Y-111.25
X36.6Y-112.2
X36.6Y-113.0
X36.6Y-113.95
X36.6Y-114.75
X36.6Y-115.7
X36.6Y-116.5
X36.6Y-117.45
X36.6Y-118.25
X36.6Y-119.2
X36.6Y-120.0
X36.6Y-120.95
X36.6Y-121.75
X36.6Y-122.7
X36.6Y-123.5
X36.6Y-124.45
X36.6Y-125.25
X36.6Y-126.2
X36.6Y-127.0
X36.6Y-127.95
X36.6Y-128.75
X36.6Y-129.7
X36.6Y-130.5
X36.6Y-131.45
X36.6Y-132.25
X36.6Y-133.2
X36.6Y-134.0
X36.6Y-134.95
X36.6Y-135.75
X36.6Y-136.7
X36.6Y-137.5
X36.6Y-138.45
X36.6Y-139.25
X36.6Y-140.2
X36.6Y-141.0
X36.6Y-141.95
X36.6Y-142.75
X36.6Y-143.7
X36.6Y-144.5
X36.6Y-145.45
X36.6Y-146.25
X36.6Y-147.2
X36.6Y-148.0
X36.6Y-148.95
X36.6Y-149.75
X36.6Y-150.7
X36.6Y-151.5
X36.6Y-152.45
X36.6Y-153.25
X36.6Y-154.2
X36.6Y-155.0
X36.6Y-155.95
X36.6Y-156.75
X36.6Y-157.7
X36.6Y-158.5
X36.6Y-159.45
X36.6Y-160.25
X36.6Y-161.2
X36.6Y-162.0
X36.6Y-162.95
X36.6Y-163.75
X36.6Y-164.7
X37.2Y-19.5
X37.2Y-20.45
X37.2Y-21.25
X37.2Y-22.2
X37.2Y-23.0
X37.2Y-23.95
X37.2Y-24.75
X37.2Y-25.7
X37.2Y-26.5
X37.2Y-27.45
X37.2Y-28.25
X37.2Y-29.2
X37.2Y-30.0
X37.2Y-30.95
X37.2Y-31.75
X37.2Y-32.7
X37.2Y-33.5
X37.2Y-34.45
X37.2Y-35.25
X37.2Y-36.2
X37.2Y-37.0
X37.2Y-37.95
X37.2Y-38.75
X37.2Y-39.7
X37.2Y-40.5
X37.2Y-41.45
X37.2Y-42.25
X37.2Y-43.2
X37.2Y-44.0
X37.2Y-44.95
X37.2Y-45.75
X37.2Y-46.7
X37.2Y-47.5
X37.2Y-48.45
X37.2Y-49.25
X37.2Y-50.2
X37.2Y-51.0
X37.2Y-51.95
X37.2Y-52.75
X37.2Y-53.7
X37.2Y-54.5
X37.2Y-55.45
X37.2Y-56.25
X37.2Y-57.2
X37.2Y-58.0
X37.2Y-58.95
X37.2Y-59.75
X37.2Y-60.7
X37.2Y-61.5
X37.2Y-62.45
X37.2Y-63.25
X37.2Y-64.2
X37.2Y-65.0
X37.2Y-65.95
X37.2Y-66.75
X37.2Y-67.7
X37.2Y-68.5
X37.2Y-69.45
X37.2Y-70.25
X37.2Y-71.2
X37.2Y-72.0
X37.2Y-72.95
X37.2Y-73.75
X37.2Y-74.7
X37.2Y-109.5
X37.2Y-110.45
X37.2Y-111.25
X37.2Y-112.2
X37.2Y-113.0
X37.2Y-113.95
X37.2Y-114.75
X37.2Y-115.7
X37.2Y-116.5
X37.2Y-117.45
X37.2Y-118.25
X37.2Y-119.2
X37.2Y-120.0
X37.2Y-120.95
X37.2Y-121.75
X37.2Y-122.7
X37.2Y-123.5
X37.2Y-124.45
X37.2Y-125.25
X37.2Y-126.2
X37.2Y-127.0
X37.2Y-127.95
X37.2Y-128.75
X37.2Y-129.7
X37.2Y-130.5
X37.2Y-131.45
X37.2Y-132.25
X37.2Y-133.2
X37.2Y-134.0
X37.2Y-134.95
X37.2Y-135.75
X37.2Y-136.7
X37.2Y-137.5
X37.2Y-138.45
X37.2Y-139.25
X37.2Y-140.2
X37.2Y-141.0
X37.2Y-141.95
X37.2Y-142.75
X37.2Y-143.7
X37.2Y-144.5
X37.2Y-145.45
X37.2Y-146.25
X37.2Y-147.2
X37.2Y-148.0
X37.2Y-148.95
X37.2Y-149.75
X37.2Y-150.7
X37.2Y-151.5
X37.2Y-152.45
X37.2Y-153.25
X37.2Y-154.2
X37.2Y-155.0
X37.2Y-155.95
X37.2Y-156.75
X37.2Y-157.7
X37.2Y-158.5
X37.2Y-159.45
X37.2Y-160.25
X37.2Y-161.2
X37.2Y-162.0
X37.2Y-162.95
X37.2Y-163.75
X37.2Y-164.7
X38.35Y-19.5
X38.35Y-20.45
X38.35Y-21.25
X38.35Y-22.2
X38.35Y-23.0
X38.35Y-23.95
X38.35Y-24.75
X38.35Y-25.7
X38.35Y-26.5
X38.35Y-27.45
X38.35Y-28.25
X38.35Y-29.2
X38.35Y-30.0
X38.35Y-30.95
X38.35Y-31.75
X38.35Y-32.7
X38.35Y-33.5
X38.35Y-34.45
X38.35Y-35.25
X38.35Y-36.2
X38.35Y-37.0
X38.35Y-37.95
X38.35Y-38.75
X38.35Y-39.7
X38.35Y-40.5
X38.35Y-41.45
X38.35Y-42.25
X38.35Y-43.2
X38.35Y-44.0
X38.35Y-44.95
X38.35Y-45.75
X38.35Y-46.7
X38.35Y-47.5
X38.35Y-48.45
X38.35Y-49.25
X38.35Y-50.2
X38.35Y-51.0
X38.35Y-51.95
X38.35Y-52.75
X38.35Y-53.7
X38.35Y-54.5
X38.35Y-55.45
X38.35Y-56.25
X38.35Y-57.2
X38.35Y-58.0
X38.35Y-58.95
X38.35Y-59.75
X38.35Y-60.7
X38.35Y-61.5
X38.35Y-62.45
X38.35Y-63.25
X38.35Y-64.2
X38.35Y-65.0
X38.35Y-65.95
X38.35Y-66.75
X38.35Y-67.7
X38.35Y-68.5
X38.35Y-69.45
X38.35Y-70.25
X38.35Y-71.2
X38.35Y-72.0
X38.35Y-72.95
X38.35Y-73.75
X38.35Y-74.7
X38.35Y-109.5
X38.35Y-110.45
X38.35Y-111.25
X38.35Y-112.2
X38.35Y-113.0
X38.35Y-113.95
X38.35Y-114.75
X38.35Y-115.7
X38.35Y-116.5
X38.35Y-117.45
X38.35Y-118.25
X38.35Y-119.2
X38.35Y-120.0
X38.35Y-120.95
X38.35Y-121.75
X38.35Y-122.7
X38.35Y-123.5
X38.35Y-124.45
X38.35Y-125.25
X38.35Y-126.2
X38.35Y-127.0
X38.35Y-127.95
X38.35Y-128.75
X38.35Y-129.7
X38.35Y-130.5
X38.35Y-131.45
X38.35Y-132.25
X38.35Y-133.2
X38.35Y-134.0
X38.35Y-134.95
X38.35Y-135.75
X38.35Y-136.7
X38.35Y-137.5
X38.35Y-138.45
X38.35Y-139.25
X38.35Y-140.2
X38.35Y-141.0
X38.35Y-141.95
X38.35Y-142.75
X38.35Y-143.7
X38.35Y-144.5
X38.35Y-145.45
X38.35Y-146.25
X38.35Y-147.2
X38.35Y-148.0
X38.35Y-148.95
X38.35Y-149.75
X38.35Y-150.7
X38.35Y-151.5
X38.35Y-152.45
X38.35Y-153.25
X38.35Y-154.2
X38.35Y-155.0
X38.35Y-155.95
X38.35Y-156.75
X38.35Y-157.7
X38.35Y-158.5
X38.35Y-159.45
X38.35Y-160.25
X38.35Y-161.2
X38.35Y-162.0
X38.35Y-162.95
X38.35Y-163.75
X38.35Y-164.7
X38.95Y-19.5
X38.95Y-20.45
X38.95Y-21.25
X38.95Y-22.2
X38.95Y-23.0
X38.95Y-23.95
X38.95Y-24.75
X38.95Y-25.7
X38.95Y-26.5
X38.95Y-27.45
X38.95Y-28.25
X38.95Y-29.2
X38.95Y-30.0
X38.95Y-30.95
X38.95Y-31.75
X38.95Y-32.7
X38.95Y-33.5
X38.95Y-34.45
X38.95Y-35.25
X38.95Y-36.2
X38.95Y-37.0
X38.95Y-37.95
X38.95Y-38.75
X38.95Y-39.7
X38.95Y-40.5
X38.95Y-41.45
X38.95Y-42.25
X38.95Y-43.2
X38.95Y-44.0
X38.95Y-44.95
X38.95Y-45.75
X38.95Y-46.7
X38.95Y-47.5
X38.95Y-48.45
X38.95Y-49.25
X38.95Y-50.2
X38.95Y-51.0
X38.95Y-51.95
X38.95Y-52.75
X38.95Y-53.7
X38.95Y-54.5
X38.95Y-55.45
X38.95Y-56.25
X38.95Y-57.2
X38.95Y-58.0
X38.95Y-58.95
X38.95Y-59.75
X38.95Y-60.7
X38.95Y-61.5
X38.95Y-62.45
X38.95Y-63.25
X38.95Y-64.2
X38.95Y-65.0
X38.95Y-65.95
X38.95Y-66.75
X38.95Y-67.7
X38.95Y-68.5
X38.95Y-69.45
X38.95Y-70.25
X38.95Y-71.2
X38.95Y-72.0
X38.95Y-72.95
X38.95Y-73.75
X38.95Y-74.7
X38.95Y-109.5
X38.95Y-110.45
X38.95Y-111.25
X38.95Y-112.2
X38.95Y-113.0
X38.95Y-113.95
X38.95Y-114.75
X38.95Y-115.7
X38.95Y-116.5
X38.95Y-117.45
X38.95Y-118.25
X38.95Y-119.2
X38.95Y-120.0
X38.95Y-120.95
X38.95Y-121.75
X38.95Y-122.7
X38.95Y-123.5
X38.95Y-124.45
X38.95Y-125.25
X38.95Y-126.2
X38.95Y-127.0
X38.95Y-127.95
X38.95Y-128.75
X38.95Y-129.7
X38.95Y-130.5
X38.95Y-131.45
X38.95Y-132.25
X38.95Y-133.2
X38.95Y-134.0
X38.95Y-134.95
X38.95Y-135.75
X38.95Y-136.7
X38.95Y-137.5
X38.95Y-138.45
X38.95Y-139.25
X38.95Y-140.2
X38.95Y-141.0
X38.95Y-141.95
X38.95Y-142.75
X38.95Y-143.7
X38.95Y-144.5
X38.95Y-145.45
X38.95Y-146.25
X38.95Y-147.2
X38.95Y-148.0
X38.95Y-148.95
X38.95Y-149.75
X38.95Y-150.7
X38.95Y-151.5
X38.95Y-152.45
X38.95Y-153.25
X38.95Y-154.2
X38.95Y-155.0
X38.95Y-155.95
X38.95Y-156.75
X38.95Y-157.7
X38.95Y-158.5
X38.95Y-159.45
X38.95Y-160.25
X38.95Y-161.2
X38.95Y-162.0
X38.95Y-162.95
X38.95Y-163.75
X38.95Y-164.7
X40.1Y-19.5
X40.1Y-20.45
X40.1Y-21.25
X40.1Y-22.2
X40.1Y-23.0
X40.1Y-23.95
X40.1Y-24.75
X40.1Y-25.7
X40.1Y-26.5
X40.1Y-27.45
X40.1Y-28.25
X40.1Y-29.2
X40.1Y-30.0
X40.1Y-30.95
X40.1Y-31.75
X40.1Y-32.7
X40.1Y-33.5
X40.1Y-34.45
X40.1Y-35.25
X40.1Y-36.2
X40.1Y-37.0
X40.1Y-37.95
X40.1Y-38.75
X40.1Y-39.7
X40.1Y-40.5
X40.1Y-41.45
X40.1Y-42.25
X40.1Y-43.2
X40.1Y-44.0
X40.1Y-44.95
X40.1Y-45.75
X40.1Y-46.7
X40.1Y-47.5
X40.1Y-48.45
X40.1Y-49.25
X40.1Y-50.2
X40.1Y-51.0
X40.1Y-51.95
X40.1Y-52.75
X40.1Y-53.7
X40.1Y-54.5
X40.1Y-55.45
X40.1Y-56.25
X40.1Y-57.2
X40.1Y-58.0
X40.1Y-58.95
X40.1Y-59.75
X40.1Y-60.7
X40.1Y-61.5
X40.1Y-62.45
X40.1Y-63.25
X40.1Y-64.2
X40.1Y-65.0
X40.1Y-65.95
X40.1Y-66.75
X40.1Y-67.7
X40.1Y-68.5
X40.1Y-69.45
X40.1Y-70.25
X40.1Y-71.2
X40.1Y-72.0
X40.1Y-72.95
X40.1Y-73.75
X40.1Y-74.7
X40.1Y-109.5
X40.1Y-110.45
X40.1Y-111.25
X40.1Y-112.2
X40.1Y-113.0
X40.1Y-113.95
X40.1Y-114.75
X40.1Y-115.7
X40.1Y-116.5
X40.1Y-117.45
X40.1Y-118.25
X40.1Y-119.2
X40.1Y-120.0
X40.1Y-120.95
X40.1Y-121.75
X40.1Y-122.7
X40.1Y-123.5
X40.1Y-124.45
X40.1Y-125.25
X40.1Y-126.2
X40.1Y-127.0
X40.1Y-127.95
X40.1Y-128.75
X40.1Y-129.7
X40.1Y-130.5
X40.1Y-131.45
X40.1Y-132.25
X40.1Y-133.2
X40.1Y-134.0
X40.1Y-134.95
X40.1Y-135.75
X40.1Y-136.7
X40.1Y-137.5
X40.1Y-138.45
X40.1Y-139.25
X40.1Y-140.2
X40.1Y-141.0
X40.1Y-141.95
X40.1Y-142.75
X40.1Y-143.7
X40.1Y-144.5
X40.1Y-145.45
X40.1Y-146.25
X40.1Y-147.2
X40.1Y-148.0
X40.1Y-148.95
X40.1Y-149.75
X40.1Y-150.7
X40.1Y-151.5
X40.1Y-152.45
X40.1Y-153.25
X40.1Y-154.2
X40.1Y-155.0
X40.1Y-155.95
X40.1Y-156.75
X40.1Y-157.7
X40.1Y-158.5
X40.1Y-159.45
X40.1Y-160.25
X40.1Y-161.2
X40.1Y-162.0
X40.1Y-162.95
X40.1Y-163.75
X40.1Y-164.7
X40.7Y-19.5
X40.7Y-20.45
X40.7Y-21.25
X40.7Y-22.2
X40.7Y-23.0
X40.7Y-23.95
X40.7Y-24.75
X40.7Y-25.7
X40.7Y-26.5
X40.7Y-27.45
X40.7Y-28.25
X40.7Y-29.2
X40.7Y-30.0
X40.7Y-30.95
X40.7Y-31.75
X40.7Y-32.7
X40.7Y-33.5
X40.7Y-34.45
X40.7Y-35.25
X40.7Y-36.2
X40.7Y-37.0
X40.7Y-37.95
X40.7Y-38.75
X40.7Y-39.7
X40.7Y-40.5
X40.7Y-41.45
X40.7Y-42.25
X40.7Y-43.2
X40.7Y-44.0
X40.7Y-44.95
X40.7Y-45.75
X40.7Y-46.7
X40.7Y-47.5
X40.7Y-48.45
X40.7Y-49.25
X40.7Y-50.2
X40.7Y-51.0
X40.7Y-51.95
X40.7Y-52.75
X40.7Y-53.7
X40.7Y-54.5
X40.7Y-55.45
X40.7Y-56.25
X40.7Y-57.2
X40.7Y-58.0
X40.7Y-58.95
X40.7Y-59.75
X40.7Y-60.7
X40.7Y-61.5
X40.7Y-62.45
X40.7Y-63.25
X40.7Y-64.2
X40.7Y-65.0
X40.7Y-65.95
X40.7Y-66.75
X40.7Y-67.7
X40.7Y-68.5
X40.7Y-69.45
X40.7Y-70.25
X40.7Y-71.2
X40.7Y-72.0
X40.7Y-72.95
X40.7Y-73.75
X40.7Y-74.7
X40.7Y-109.5
X40.7Y-110.45
X40.7Y-111.25
X40.7Y-112.2
X40.7Y-113.0
X40.7Y-113.95
X40.7Y-114.75
X40.7Y-115.7
X40.7Y-116.5
X40.7Y-117.45
X40.7Y-118.25
X40.7Y-119.2
X40.7Y-120.0
X40.7Y-120.95
X40.7Y-121.75
X40.7Y-122.7
X40.7Y-123.5
X40.7Y-124.45
X40.7Y-125.25
X40.7Y-126.2
X40.7Y-127.0
X40.7Y-127.95
X40.7Y-128.75
X40.7Y-129.7
X40.7Y-130.5
X40.7Y-131.45
X40.7Y-132.25
X40.7Y-133.2
X40.7Y-134.0
X40.7Y-134.95
X40.7Y-135.75
X40.7Y-136.7
X40.7Y-137.5
X40.7Y-138.45
X40.7Y-139.25
X40.7Y-140.2
X40.7Y-141.0
X40.7Y-141.95
X40.7Y-142.75
X40.7Y-143.7
X40.7Y-144.5
X40.7Y-145.45
X40.7Y-146.25
X40.7Y-147.2
X40.7Y-148.0
X40.7Y-148.95
X40.7Y-149.75
X40.7Y-150.7
X40.7Y-151.5
X40.7Y-152.45
X40.7Y-153.25
X40.7Y-154.2
X40.7Y-155.0
X40.7Y-155.95
X40.7Y-156.75
X40.7Y-157.7
X40.7Y-158.5
X40.7Y-159.45
X40.7Y-160.25
X40.7Y-161.2
X40.7Y-162.0
X40.7Y-162.95
X40.7Y-163.75
X40.7Y-164.7
X41.85Y-19.5
X41.85Y-20.45
X41.85Y-21.25
X41.85Y-22.2
X41.85Y-23.0
X41.85Y-23.95
X41.85Y-24.75
X41.85Y-25.7
X41.85Y-26.5
X41.85Y-27.45
X41.85Y-28.25
X41.85Y-29.2
X41.85Y-30.0
X41.85Y-30.95
X41.85Y-31.75
X41.85Y-32.7
X41.85Y-33.5
X41.85Y-34.45
X41.85Y-35.25
X41.85Y-36.2
X41.85Y-37.0
X41.85Y-37.95
X41.85Y-38.75
X41.85Y-39.7
X41.85Y-40.5
X41.85Y-41.45
X41.85Y-42.25
X41.85Y-43.2
X41.85Y-44.0
X41.85Y-44.95
X41.85Y-45.75
X41.85Y-46.7
X41.85Y-47.5
X41.85Y-48.45
X41.85Y-49.25
X41.85Y-50.2
X41.85Y-51.0
X41.85Y-51.95
X41.85Y-52.75
X41.85Y-53.7
X41.85Y-54.5
X41.85Y-55.45
X41.85Y-56.25
X41.85Y-57.2
X41.85Y-58.0
X41.85Y-58.95
X41.85Y-59.75
X41.85Y-60.7
X41.85Y-61.5
X41.85Y-62.45
X41.85Y-63.25
X41.85Y-64.2
X41.85Y-65.0
X41.85Y-65.95
X41.85Y-66.75
X41.85Y-67.7
X41.85Y-68.5
X41.85Y-69.45
X41.85Y-70.25
X41.85Y-71.2
X41.85Y-72.0
X41.85Y-72.95
X41.85Y-73.75
X41.85Y-74.7
X41.85Y-109.5
X41.85Y-110.45
X41.85Y-111.25
X41.85Y-112.2
X41.85Y-113.0
X41.85Y-113.95
X41.85Y-114.75
X41.85Y-115.7
X41.85Y-116.5
X41.85Y-117.45
X41.85Y-118.25
X41.85Y-119.2
X41.85Y-120.0
X41.85Y-120.95
X41.85Y-121.75
X41.85Y-122.7
X41.85Y-123.5
X41.85Y-124.45
X41.85Y-125.25
X41.85Y-126.2
X41.85Y-127.0
X41.85Y-127.95
X41.85Y-128.75
X41.85Y-129.7
X41.85Y-130.5
X41.85Y-131.45
X41.85Y-132.25
X41.85Y-133.2
X41.85Y-134.0
X41.85Y-134.95
X41.85Y-135.75
X41.85Y-136.7
X41.85Y-137.5
X41.85Y-138.45
X41.85Y-139.25
X41.85Y-140.2
X41.85Y-141.0
X41.85Y-141.95
X41.85Y-142.75
X41.85Y-143.7
X41.85Y-144.5
X41.85Y-145.45
X41.85Y-146.25
X41.85Y-147.2
X41.85Y-148.0
X41.85Y-148.95
X41.85Y-149.75
X41.85Y-150.7
X41.85Y-151.5
X41.85Y-152.45
X41.85Y-153.25
X41.85Y-154.2
X41.85Y-155.0
X41.85Y-155.95
X41.85Y-156.75
X41.85Y-157.7
X41.85Y-158.5
X41.85Y-159.45
X41.85Y-160.25
X41.85Y-161.2
X41.85Y-162.0
X41.85Y-162.95
X41.85Y-163.75
X41.85Y-164.7
X42.45Y-19.5
X42.45Y-20.45
X42.45Y-21.25
X42.45Y-22.2
X42.45Y-23.0
X42.45Y-23.95
X42.45Y-24.75
X42.45Y-25.7
X42.45Y-26.5
X42.45Y-27.45
X42.45Y-28.25
X42.45Y-29.2
X42.45Y-30.0
X42.45Y-30.95
X42.45Y-31.75
X42.45Y-32.7
X42.45Y-33.5
X42.45Y-34.45
X42.45Y-35.25
X42.45Y-36.2
X42.45Y-37.0
X42.45Y-37.95
X42.45Y-38.75
X42.45Y-39.7
X42.45Y-40.5
X42.45Y-41.45
X42.45Y-42.25
X42.45Y-43.2
X42.45Y-44.0
X42.45Y-44.95
X42.45Y-45.75
X42.45Y-46.7
X42.45Y-47.5
X42.45Y-48.45
X42.45Y-49.25
X42.45Y-50.2
X42.45Y-51.0
X42.45Y-51.95
X42.45Y-52.75
X42.45Y-53.7
X42.45Y-54.5
X42.45Y-55.45
X42.45Y-56.25
X42.45Y-57.2
X42.45Y-58.0
X42.45Y-58.95
X42.45Y-59.75
X42.45Y-60.7
X42.45Y-61.5
X42.45Y-62.45
X42.45Y-63.25
X42.45Y-64.2
X42.45Y-65.0
X42.45Y-65.95
X42.45Y-66.75
X42.45Y-67.7
X42.45Y-68.5
X42.45Y-69.45
X42.45Y-70.25
X42.45Y-71.2
X42.45Y-72.0
X42.45Y-72.95
X42.45Y-73.75
X42.45Y-74.7
X42.45Y-109.5
X42.45Y-110.45
X42.45Y-111.25
X42.45Y-112.2
X42.45Y-113.0
X42.45Y-113.95
X42.45Y-114.75
X42.45Y-115.7
X42.45Y-116.5
X42.45Y-117.45
X42.45Y-118.25
X42.45Y-119.2
X42.45Y-120.0
X42.45Y-120.95
X42.45Y-121.75
X42.45Y-122.7
X42.45Y-123.5
X42.45Y-124.45
X42.45Y-125.25
X42.45Y-126.2
X42.45Y-127.0
X42.45Y-127.95
X42.45Y-128.75
X42.45Y-129.7
X42.45Y-130.5
X42.45Y-131.45
X42.45Y-132.25
X42.45Y-133.2
X42.45Y-134.0
X42.45Y-134.95
X42.45Y-135.75
X42.45Y-136.7
X42.45Y-137.5
X42.45Y-138.45
X42.45Y-139.25
X42.45Y-140.2
X42.45Y-141.0
X42.45Y-141.95
X42.45Y-142.75
X42.45Y-143.7
X42.45Y-144.5
X42.45Y-145.45
X42.45Y-146.25
X42.45Y-147.2
X42.45Y-148.0
X42.45Y-148.95
X42.45Y-149.75
X42.45Y-150.7
X42.45Y-151.5
X42.45Y-152.45
X42.45Y-153.25
X42.45Y-154.2
X42.45Y-155.0
X42.45Y-155.95
X42.45Y-156.75
X42.45Y-157.7
X42.45Y-158.5
X42.45Y-159.45
X42.45Y-160.25
X42.45Y-161.2
X42.45Y-162.0
X42.45Y-162.95
X42.45Y-163.75
X42.45Y-164.7
X43.6Y-19.5
X43.6Y-20.45
X43.6Y-21.25
X43.6Y-22.2
X43.6Y-23.0
X43.6Y-23.95
X43.6Y-24.75
X43.6Y-25.7
X43.6Y-26.5
X43.6Y-27.45
X43.6Y-28.25
X43.6Y-29.2
X43.6Y-30.0
X43.6Y-30.95
X43.6Y-31.75
X43.6Y-32.7
X43.6Y-33.5
X43.6Y-34.45
X43.6Y-35.25
X43.6Y-36.2
X43.6Y-37.0
X43.6Y-37.95
X43.6Y-38.75
X43.6Y-39.7
X43.6Y-40.5
X43.6Y-41.45
X43.6Y-42.25
X43.6Y-43.2
X43.6Y-44.0
X43.6Y-44.95
X43.6Y-45.75
X43.6Y-46.7
X43.6Y-47.5
X43.6Y-48.45
X43.6Y-49.25
X43.6Y-50.2
X43.6Y-51.0
X43.6Y-51.95
X43.6Y-52.75
X43.6Y-53.7
X43.6Y-54.5
X43.6Y-55.45
X43.6Y-56.25
X43.6Y-57.2
X43.6Y-58.0
X43.6Y-58.95
X43.6Y-59.75
X43.6Y-60.7
X43.6Y-61.5
X43.6Y-62.45
X43.6Y-63.25
X43.6Y-64.2
X43.6Y-65.0
X43.6Y-65.95
X43.6Y-66.75
X43.6Y-67.7
X43.6Y-68.5
X43.6Y-69.45
X43.6Y-70.25
X43.6Y-71.2
X43.6Y-72.0
X43.6Y-72.95
X43.6Y-73.75
X43.6Y-74.7
X43.6Y-109.5
X43.6Y-110.45
X43.6Y-111.25
X43.6Y-112.2
X43.6Y-113.0
X43.6Y-113.95
X43.6Y-114.75
X43.6Y-115.7
X43.6Y-116.5
X43.6Y-117.45
X43.6Y-118.25
X43.6Y-119.2
X43.6Y-120.0
X43.6Y-120.95
X43.6Y-121.75
X43.6Y-122.7
X43.6Y-123.5
X43.6Y-124.45
X43.6Y-125.25
X43.6Y-126.2
X43.6Y-127.0
X43.6Y-127.95
X43.6Y-128.75
X43.6Y-129.7
X43.6Y-130.5
X43.6Y-131.45
X43.6Y-132.25
X43.6Y-133.2
X43.6Y-134.0
X43.6Y-134.95
X43.6Y-135.75
X43.6Y-136.7
X43.6Y-137.5
X43.6Y-138.45
X43.6Y-139.25
X43.6Y-140.2
X43.6Y-141.0
X43.6Y-141.95
X43.6Y-142.75
X43.6Y-143.7
X43.6Y-144.5
X43.6Y-145.45
X43.6Y-146.25
X43.6Y-147.2
X43.6Y-148.0
X43.6Y-148.95
X43.6Y-149.75
X43.6Y-150.7
X43.6Y-151.5
X43.6Y-152.45
X43.6Y-153.25
X43.6Y-154.2
X43.6Y-155.0
X43.6Y-155.95
X43.6Y-156.75
X43.6Y-157.7
X43.6Y-158.5
X43.6Y-159.45
X43.6Y-160.25
X43.6Y-161.2
X43.6Y-162.0
X43.6Y-162.95
X43.6Y-163.75
X43.6Y-164.7
X44.2Y-19.5
X44.2Y-20.45
X44.2Y-21.25
X44.2Y-22.2
X44.2Y-23.0
X44.2Y-23.95
X44.2Y-24.75
X44.2Y-25.7
X44.2Y-26.5
X44.2Y-27.45
X44.2Y-28.25
X44.2Y-29.2
X44.2Y-30.0
X44.2Y-30.95
X44.2Y-31.75
X44.2Y-32.7
X44.2Y-33.5
X44.2Y-34.45
X44.2Y-35.25
X44.2Y-36.2
X44.2Y-37.0
X44.2Y-37.95
X44.2Y-38.75
X44.2Y-39.7
X44.2Y-40.5
X44.2Y-41.45
X44.2Y-42.25
X44.2Y-43.2
X44.2Y-44.0
X44.2Y-44.95
X44.2Y-45.75
X44.2Y-46.7
X44.2Y-47.5
X44.2Y-48.45
X44.2Y-49.25
X44.2Y-50.2
X44.2Y-51.0
X44.2Y-51.95
X44.2Y-52.75
X44.2Y-53.7
X44.2Y-54.5
X44.2Y-55.45
X44.2Y-56.25
X44.2Y-57.2
X44.2Y-58.0
X44.2Y-58.95
X44.2Y-59.75
X44.2Y-60.7
X44.2Y-61.5
X44.2Y-62.45
X44.2Y-63.25
X44.2Y-64.2
X44.2Y-65.0
X44.2Y-65.95
X44.2Y-66.75
X44.2Y-67.7
X44.2Y-68.5
X44.2Y-69.45
X44.2Y-70.25
X44.2Y-71.2
X44.2Y-72.0
X44.2Y-72.95
X44.2Y-73.75
X44.2Y-74.7
X44.2Y-109.5
X44.2Y-110.45
X44.2Y-111.25
X44.2Y-112.2
X44.2Y-113.0
X44.2Y-113.95
X44.2Y-114.75
X44.2Y-115.7
X44.2Y-116.5
X44.2Y-117.45
X44.2Y-118.25
X44.2Y-119.2
X44.2Y-120.0
X44.2Y-120.95
X44.2Y-121.75
X44.2Y-122.7
X44.2Y-123.5
X44.2Y-124.45
X44.2Y-125.25
X44.2Y-126.2
X44.2Y-127.0
X44.2Y-127.95
X44.2Y-128.75
X44.2Y-129.7
X44.2Y-130.5
X44.2Y-131.45
X44.2Y-132.25
X44.2Y-133.2
X44.2Y-134.0
X44.2Y-134.95
X44.2Y-135.75
X44.2Y-136.7
X44.2Y-137.5
X44.2Y-138.45
X44.2Y-139.25
X44.2Y-140.2
X44.2Y-141.0
X44.2Y-141.95
X44.2Y-142.75
X44.2Y-143.7
X44.2Y-144.5
X44.2Y-145.45
X44.2Y-146.25
X44.2Y-147.2
X44.2Y-148.0
X44.2Y-148.95
X44.2Y-149.75
X44.2Y-150.7
X44.2Y-151.5
X44.2Y-152.45
X44.2Y-153.25
X44.2Y-154.2
X44.2Y-155.0
X44.2Y-155.95
X44.2Y-156.75
X44.2Y-157.7
X44.2Y-158.5
X44.2Y-159.45
X44.2Y-160.25
X44.2Y-161.2
X44.2Y-162.0
X44.2Y-162.95
X44.2Y-163.75
X44.2Y-164.7
X45.35Y-19.5
X45.35Y-20.45
X45.35Y-21.25
X45.35Y-22.2
X45.35Y-23.0
X45.35Y-23.95
X45.35Y-24.75
X45.35Y-25.7
X45.35Y-26.5
X45.35Y-27.45
X45.35Y-28.25
X45.35Y-29.2
X45.35Y-30.0
X45.35Y-30.95
X45.35Y-31.75
X45.35Y-32.7
X45.35Y-33.5
X45.35Y-34.45
X45.35Y-35.25
X45.35Y-36.2
X45.35Y-37.0
X45.35Y-37.95
X45.35Y-38.75
X45.35Y-39.7
X45.35Y-40.5
X45.35Y-41.45
X45.35Y-42.25
X45.35Y-43.2
X45.35Y-44.0
X45.35Y-44.95
X45.35Y-45.75
X45.35Y-46.7
X45.35Y-47.5
X45.35Y-48.45
X45.35Y-49.25
X45.35Y-50.2
X45.35Y-51.0
X45.35Y-51.95
X45.35Y-52.75
X45.35Y-53.7
X45.35Y-54.5
X45.35Y-55.45
X45.35Y-56.25
X45.35Y-57.2
X45.35Y-58.0
X45.35Y-58.95
X45.35Y-59.75
X45.35Y-60.7
X45.35Y-61.5
X45.35Y-62.45
X45.35Y-63.25
X45.35Y-64.2
X45.35Y-65.0
X45.35Y-65.95
X45.35Y-66.75
X45.35Y-67.7
X45.35Y-68.5
X45.35Y-69.45
X45.35Y-70.25
X45.35Y-71.2
X45.35Y-72.0
X45.35Y-72.95
X45.35Y-73.75
X45.35Y-74.7
X45.35Y-109.5
X45.35Y-110.45
X45.35Y-111.25
X45.35Y-112.2
X45.35Y-113.0
X45.35Y-113.95
X45.35Y-114.75
X45.35Y-115.7
X45.35Y-116.5
X45.35Y-117.45
X45.35Y-118.25
X45.35Y-119.2
X45.35Y-120.0
X45.35Y-120.95
X45.35Y-121.75
X45.35Y-122.7
X45.35Y-123.5
X45.35Y-124.45
X45.35Y-125.25
X45.35Y-126.2
X45.35Y-127.0
X45.35Y-127.95
X45.35Y-128.75
X45.35Y-129.7
X45.35Y-130.5
X45.35Y-131.45
X45.35Y-132.25
X45.35Y-133.2
X45.35Y-134.0
X45.35Y-134.95
X45.35Y-135.75
X45.35Y-136.7
X45.35Y-137.5
X45.35Y-138.45
X45.35Y-139.25
X45.35Y-140.2
X45.35Y-141.0
X45.35Y-141.95
X45.35Y-142.75
X45.35Y-143.7
X45.35Y-144.5
X45.35Y-145.45
X45.35Y-146.25
X45.35Y-147.2
X45.35Y-148.0
X45.35Y-148.95
X45.35Y-149.75
X45.35Y-150.7
X45.35Y-151.5
X45.35Y-152.45
X45.35Y-153.25
X45.35Y-154.2
X45.35Y-155.0
X45.35Y-155.95
X45.35Y-156.75
X45.35Y-157.7
X45.35Y-158.5
X45.35Y-159.45
X45.35Y-160.25
X45.35Y-161.2
X45.35Y-162.0
X45.35Y-162.95
X45.35Y-163.75
X45.35Y-164.7
X45.95Y-19.5
X45.95Y-20.45
X45.95Y-21.25
X45.95Y-22.2
X45.95Y-23.0
X45.95Y-23.95
X45.95Y-24.75
X45.95Y-25.7
X45.95Y-26.5
X45.95Y-27.45
X45.95Y-28.25
X45.95Y-29.2
X45.95Y-30.0
X45.95Y-30.95
X45.95Y-31.75
X45.95Y-32.7
X45.95Y-33.5
X45.95Y-34.45
X45.95Y-35.25
X45.95Y-36.2
X45.95Y-37.0
X45.95Y-37.95
X45.95Y-38.75
X45.95Y-39.7
X45.95Y-40.5
X45.95Y-41.45
X45.95Y-42.25
X45.95Y-43.2
X45.95Y-44.0
X45.95Y-44.95
X45.95Y-45.75
X45.95Y-46.7
X45.95Y-47.5
X45.95Y-48.45
X45.95Y-49.25
X45.95Y-50.2
X45.95Y-51.0
X45.95Y-51.95
X45.95Y-52.75
X45.95Y-53.7
X45.95Y-54.5
X45.95Y-55.45
X45.95Y-56.25
X45.95Y-57.2
X45.95Y-58.0
X45.95Y-58.95
X45.95Y-59.75
X45.95Y-60.7
X45.95Y-61.5
X45.95Y-62.45
X45.95Y-63.25
X45.95Y-64.2
X45.95Y-65.0
X45.95Y-65.95
X45.95Y-66.75
X45.95Y-67.7
X45.95Y-68.5
X45.95Y-69.45
X45.95Y-70.25
X45.95Y-71.2
X45.95Y-72.0
X45.95Y-72.95
X45.95Y-73.75
X45.95Y-74.7
X45.95Y-109.5
X45.95Y-110.45
X45.95Y-111.25
X45.95Y-112.2
X45.95Y-113.0
X45.95Y-113.95
X45.95Y-114.75
X45.95Y-115.7
X45.95Y-116.5
X45.95Y-117.45
X45.95Y-118.25
X45.95Y-119.2
X45.95Y-120.0
X45.95Y-120.95
X45.95Y-121.75
X45.95Y-122.7
X45.95Y-123.5
X45.95Y-124.45
X45.95Y-125.25
X45.95Y-126.2
X45.95Y-127.0
X45.95Y-127.95
X45.95Y-128.75
X45.95Y-129.7
X45.95Y-130.5
X45.95Y-131.45
X45.95Y-132.25
X45.95Y-133.2
X45.95Y-134.0
X45.95Y-134.95
X45.95Y-135.75
X45.95Y-136.7
X45.95Y-137.5
X45.95Y-138.45
X45.95Y-139.25
X45.95Y-140.2
X45.95Y-141.0
X45.95Y-141.95
X45.95Y-142.75
X45.95Y-143.7
X45.95Y-144.5
X45.95Y-145.45
X45.95Y-146.25
X45.95Y-147.2
X45.95Y-148.0
X45.95Y-148.95
X45.95Y-149.75
X45.95Y-150.7
X45.95Y-151.5
X45.95Y-152.45
X45.95Y-153.25
X45.95Y-154.2
X45.95Y-155.0
X45.95Y-155.95
X45.95Y-156.75
X45.95Y-157.7
X45.95Y-158.5
X45.95Y-159.45
X45.95Y-160.25
X45.95Y-161.2
X45.95Y-162.0
X45.95Y-162.95
X45.95Y-163.75
X45.95Y-164.7
X47.1Y-19.5
X47.1Y-20.45
X47.1Y-21.25
X47.1Y-22.2
X47.1Y-23.0
X47.1Y-23.95
X47.1Y-24.75
X47.1Y-25.7
X47.1Y-26.5
X47.1Y-27.45
X47.1Y-28.25
X47.1Y-29.2
X47.1Y-30.0
X47.1Y-30.95
X47.1Y-31.75
X47.1Y-32.7
X47.1Y-33.5
X47.1Y-34.45
X47.1Y-35.25
X47.1Y-36.2
X47.1Y-37.0
X47.1Y-37.95
X47.1Y-38.75
X47.1Y-39.7
X47.1Y-40.5
X47.1Y-41.45
X47.1Y-42.25
X47.1Y-43.2
X47.1Y-44.0
X47.1Y-44.95
X47.1Y-45.75
X47.1Y-46.7
X47.1Y-47.5
X47.1Y-48.45
X47.1Y-49.25
X47.1Y-50.2
X47.1Y-51.0
X47.1Y-51.95
X47.1Y-52.75
X47.1Y-53.7
X47.1Y-54.5
X47.1Y-55.45
X47.1Y-56.25
X47.1Y-57.2
X47.1Y-58.0
X47.1Y-58.95
X47.1Y-59.75
X47.1Y-60.7
X47.1Y-61.5
X47.1Y-62.45
X47.1Y-63.25
X47.1Y-64.2
X47.1Y-65.0
X47.1Y-65.95
X47.1Y-66.75
X47.1Y-67.7
X47.1Y-68.5
X47.1Y-69.45
X47.1Y-70.25
X47.1Y-71.2
X47.1Y-72.0
X47.1Y-72.95
X47.1Y-73.75
X47.1Y-74.7
X47.1Y-109.5
X47.1Y-110.45
X47.1Y-111.25
X47.1Y-112.2
X47.1Y-113.0
X47.1Y-113.95
X47.1Y-114.75
X47.1Y-115.7
X47.1Y-116.5
X47.1Y-117.45
X47.1Y-118.25
X47.1Y-119.2
X47.1Y-120.0
X47.1Y-120.95
X47.1Y-121.75
X47.1Y-122.7
X47.1Y-123.5
X47.1Y-124.45
X47.1Y-125.25
X47.1Y-126.2
X47.1Y-127.0
X47.1Y-127.95
X47.1Y-128.75
X47.1Y-129.7
X47.1Y-130.5
X47.1Y-131.45
X47.1Y-132.25
X47.1Y-133.2
X47.1Y-134.0
X47.1Y-134.95
X47.1Y-135.75
X47.1Y-136.7
X47.1Y-137.5
X47.1Y-138.45
X47.1Y-139.25
X47.1Y-140.2
X47.1Y-141.0
X47.1Y-141.95
X47.1Y-142.75
X47.1Y-143.7
X47.1Y-144.5
X47.1Y-145.45
X47.1Y-146.25
X47.1Y-147.2
X47.1Y-148.0
X47.1Y-148.95
X47.1Y-149.75
X47.1Y-150.7
X47.1Y-151.5
X47.1Y-152.45
X47.1Y-153.25
X47.1Y-154.2
X47.1Y-155.0
X47.1Y-155.95
X47.1Y-156.75
X47.1Y-157.7
X47.1Y-158.5
X47.1Y-159.45
X47.1Y-160.25
X47.1Y-161.2
X47.1Y-162.0
X47.1Y-162.95
X47.1Y-163.75
X47.1Y-164.7
X47.7Y-19.5
X47.7Y-20.45
X47.7Y-21.25
X47.7Y-22.2
X47.7Y-23.0
X47.7Y-23.95
X47.7Y-24.75
X47.7Y-25.7
X47.7Y-26.5
X47.7Y-27.45
X47.7Y-28.25
X47.7Y-29.2
X47.7Y-30.0
X47.7Y-30.95
X47.7Y-31.75
X47.7Y-32.7
X47.7Y-33.5
X47.7Y-34.45
X47.7Y-35.25
X47.7Y-36.2
X47.7Y-37.0
X47.7Y-37.95
X47.7Y-38.75
X47.7Y-39.7
X47.7Y-40.5
X47.7Y-41.45
X47.7Y-42.25
X47.7Y-43.2
X47.7Y-44.0
X47.7Y-44.95
X47.7Y-45.75
X47.7Y-46.7
X47.7Y-47.5
X47.7Y-48.45
X47.7Y-49.25
X47.7Y-50.2
X47.7Y-51.0
X47.7Y-51.95
X47.7Y-52.75
X47.7Y-53.7
X47.7Y-54.5
X47.7Y-55.45
X47.7Y-56.25
X47.7Y-57.2
X47.7Y-58.0
X47.7Y-58.95
X47.7Y-59.75
X47.7Y-60.7
X47.7Y-61.5
X47.7Y-62.45
X47.7Y-63.25
X47.7Y-64.2
X47.7Y-65.0
X47.7Y-65.95
X47.7Y-66.75
X47.7Y-67.7
X47.7Y-68.5
X47.7Y-69.45
X47.7Y-70.25
X47.7Y-71.2
X47.7Y-72.0
X47.7Y-72.95
X47.7Y-73.75
X47.7Y-74.7
X47.7Y-109.5
X47.7Y-110.45
X47.7Y-111.25
X47.7Y-112.2
X47.7Y-113.0
X47.7Y-113.95
X47.7Y-114.75
X47.7Y-115.7
X47.7Y-116.5
X47.7Y-117.45
X47.7Y-118.25
X47.7Y-119.2
X47.7Y-120.0
X47.7Y-120.95
X47.7Y-121.75
X47.7Y-122.7
X47.7Y-123.5
X47.7Y-124.45
X47.7Y-125.25
X47.7Y-126.2
X47.7Y-127.0
X47.7Y-127.95
X47.7Y-128.75
X47.7Y-129.7
X47.7Y-130.5
X47.7Y-131.45
X47.7Y-132.25
X47.7Y-133.2
X47.7Y-134.0
X47.7Y-134.95
X47.7Y-135.75
X47.7Y-136.7
X47.7Y-137.5
X47.7Y-138.45
X47.7Y-139.25
X47.7Y-140.2
X47.7Y-141.0
X47.7Y-141.95
X47.7Y-142.75
X47.7Y-143.7
X47.7Y-144.5
X47.7Y-145.45
X47.7Y-146.25
X47.7Y-147.2
X47.7Y-148.0
X47.7Y-148.95
X47.7Y-149.75
X47.7Y-150.7
X47.7Y-151.5
X47.7Y-152.45
X47.7Y-153.25
X47.7Y-154.2
X47.7Y-155.0
X47.7Y-155.95
X47.7Y-156.75
X47.7Y-157.7
X47.7Y-158.5
X47.7Y-159.45
X47.7Y-160.25
X47.7Y-161.2
X47.7Y-162.0
X47.7Y-162.95
X47.7Y-163.75
X47.7Y-164.7
X48.85Y-19.5
X48.85Y-20.45
X48.85Y-21.25
X48.85Y-22.2
X48.85Y-23.0
X48.85Y-23.95
X48.85Y-24.75
X48.85Y-25.7
X48.85Y-26.5
X48.85Y-27.45
X48.85Y-28.25
X48.85Y-29.2
X48.85Y-30.0
X48.85Y-30.95
X48.85Y-31.75
X48.85Y-32.7
X48.85Y-33.5
X48.85Y-34.45
X48.85Y-35.25
X48.85Y-36.2
X48.85Y-37.0
X48.85Y-37.95
X48.85Y-38.75
X48.85Y-39.7
X48.85Y-40.5
X48.85Y-41.45
X48.85Y-42.25
X48.85Y-43.2
X48.85Y-44.0
X48.85Y-44.95
X48.85Y-45.75
X48.85Y-46.7
X48.85Y-47.5
X48.85Y-48.45
X48.85Y-49.25
X48.85Y-50.2
X48.85Y-51.0
X48.85Y-51.95
X48.85Y-52.75
X48.85Y-53.7
X48.85Y-54.5
X48.85Y-55.45
X48.85Y-56.25
X48.85Y-57.2
X48.85Y-58.0
X48.85Y-58.95
X48.85Y-59.75
X48.85Y-60.7
X48.85Y-61.5
X48.85Y-62.45
X48.85Y-63.25
X48.85Y-64.2
X48.85Y-65.0
X48.85Y-65.95
X48.85Y-66.75
X48.85Y-67.7
X48.85Y-68.5
X48.85Y-69.45
X48.85Y-70.25
X48.85Y-71.2
X48.85Y-72.0
X48.85Y-72.95
X48.85Y-73.75
X48.85Y-74.7
X48.85Y-109.5
X48.85Y-110.45
X48.85Y-111.25
X48.85Y-112.2
X48.85Y-113.0
X48.85Y-113.95
X48.85Y-114.75
X48.85Y-115.7
X48.85Y-116.5
X48.85Y-117.45
X48.85Y-118.25
X48.85Y-119.2
X48.85Y-120.0
X48.85Y-120.95
X48.85Y-121.75
X48.85Y-122.7
X48.85Y-123.5
X48.85Y-124.45
X48.85Y-125.25
X48.85Y-126.2
X48.85Y-127.0
X48.85Y-127.95
X48.85Y-128.75
X48.85Y-129.7
X48.85Y-130.5
X48.85Y-131.45
X48.85Y-132.25
X48.85Y-133.2
X48.85Y-134.0
X48.85Y-134.95
X48.85Y-135.75
X48.85Y-136.7
X48.85Y-137.5
X48.85Y-138.45
X48.85Y-139.25
X48.85Y-140.2
X48.85Y-141.0
X48.85Y-141.95
X48.85Y-142.75
X48.85Y-143.7
X48.85Y-144.5
X48.85Y-145.45
X48.85Y-146.25
X48.85Y-147.2
X48.85Y-148.0
X48.85Y-148.95
X48.85Y-149.75
X48.85Y-150.7
X48.85Y-151.5
X48.85Y-152.45
X48.85Y-153.25
X48.85Y-154.2
X48.85Y-155.0
X48.85Y-155.95
X48.85Y-156.75
X48.85Y-157.7
X48.85Y-158.5
X48.85Y-159.45
X48.85Y-160.25
X48.85Y-161.2
X48.85Y-162.0
X48.85Y-162.95
X48.85Y-163.75
X48.85Y-164.7
X49.45Y-19.5
X49.45Y-20.45
X49.45Y-21.25
X49.45Y-22.2
X49.45Y-23.0
X49.45Y-23.95
X49.45Y-24.75
X49.45Y-25.7
X49.45Y-26.5
X49.45Y-27.45
X49.45Y-28.25
X49.45Y-29.2
X49.45Y-30.0
X49.45Y-30.95
X49.45Y-31.75
X49.45Y-32.7
X49.45Y-33.5
X49.45Y-34.45
X49.45Y-35.25
X49.45Y-36.2
X49.45Y-37.0
X49.45Y-37.95
X49.45Y-38.75
X49.45Y-39.7
X49.45Y-40.5
X49.45Y-41.45
X49.45Y-42.25
X49.45Y-43.2
X49.45Y-44.0
X49.45Y-44.95
X49.45Y-45.75
X49.45Y-46.7
X49.45Y-47.5
X49.45Y-48.45
X49.45Y-49.25
X49.45Y-50.2
X49.45Y-51.0
X49.45Y-51.95
X49.45Y-52.75
X49.45Y-53.7
X49.45Y-54.5
X49.45Y-55.45
X49.45Y-56.25
X49.45Y-57.2
X49.45Y-58.0
X49.45Y-58.95
X49.45Y-59.75
X49.45Y-60.7
X49.45Y-61.5
X49.45Y-62.45
X49.45Y-63.25
X49.45Y-64.2
X49.45Y-65.0
X49.45Y-65.95
X49.45Y-66.75
X49.45Y-67.7
X49.45Y-68.5
X49.45Y-69.45
X49.45Y-70.25
X49.45Y-71.2
X49.45Y-72.0
X49.45Y-72.95
X49.45Y-73.75
X49.45Y-74.7
X49.45Y-109.5
X49.45Y-110.45
X49.45Y-111.25
X49.45Y-112.2
X49.45Y-113.0
X49.45Y-113.95
X49.45Y-114.75
X49.45Y-115.7
X49.45Y-116.5
X49.45Y-117.45
X49.45Y-118.25
X49.45Y-119.2
X49.45Y-120.0
X49.45Y-120.95
X49.45Y-121.75
X49.45Y-122.7
X49.45Y-123.5
X49.45Y-124.45
X49.45Y-125.25
X49.45Y-126.2
X49.45Y-127.0
X49.45Y-127.95
X49.45Y-128.75
X49.45Y-129.7
X49.45Y-130.5
X49.45Y-131.45
X49.45Y-132.25
X49.45Y-133.2
X49.45Y-134.0
X49.45Y-134.95
X49.45Y-135.75
X49.45Y-136.7
X49.45Y-137.5
X49.45Y-138.45
X49.45Y-139.25
X49.45Y-140.2
X49.45Y-141.0
X49.45Y-141.95
X49.45Y-142.75
X49.45Y-143.7
X49.45Y-144.5
X49.45Y-145.45
X49.45Y-146.25
X49.45Y-147.2
X49.45Y-148.0
X49.45Y-148.95
X49.45Y-149.75
X49.45Y-150.7
X49.45Y-151.5
X49.45Y-152.45
X49.45Y-153.25
X49.45Y-154.2
X49.45Y-155.0
X49.45Y-155.95
X49.45Y-156.75
X49.45Y-157.7
X49.45Y-158.5
X49.45Y-159.45
X49.45Y-160.25
X49.45Y-161.2
X49.45Y-162.0
X49.45Y-162.95
X49.45Y-163.75
X49.45Y-164.7
X50.6Y-19.5
X50.6Y-20.45
X50.6Y-21.25
X50.6Y-22.2
X50.6Y-23.0
X50.6Y-23.95
X50.6Y-24.75
X50.6Y-25.7
X50.6Y-26.5
X50.6Y-27.45
X50.6Y-28.25
X50.6Y-29.2
X50.6Y-30.0
X50.6Y-30.95
X50.6Y-31.75
X50.6Y-32.7
X50.6Y-33.5
X50.6Y-34.45
X50.6Y-35.25
X50.6Y-36.2
X50.6Y-37.0
X50.6Y-37.95
X50.6Y-38.75
X50.6Y-39.7
X50.6Y-40.5
X50.6Y-41.45
X50.6Y-42.25
X50.6Y-43.2
X50.6Y-44.0
X50.6Y-44.95
X50.6Y-45.75
X50.6Y-46.7
X50.6Y-47.5
X50.6Y-48.45
X50.6Y-49.25
X50.6Y-50.2
X50.6Y-51.0
X50.6Y-51.95
X50.6Y-52.75
X50.6Y-53.7
X50.6Y-54.5
X50.6Y-55.45
X50.6Y-56.25
X50.6Y-57.2
X50.6Y-58.0
X50.6Y-58.95
X50.6Y-59.75
X50.6Y-60.7
X50.6Y-61.5
X50.6Y-62.45
X50.6Y-63.25
X50.6Y-64.2
X50.6Y-65.0
X50.6Y-65.95
X50.6Y-66.75
X50.6Y-67.7
X50.6Y-68.5
X50.6Y-69.45
X50.6Y-70.25
X50.6Y-71.2
X50.6Y-72.0
X50.6Y-72.95
X50.6Y-73.75
X50.6Y-74.7
X50.6Y-109.5
X50.6Y-110.45
X50.6Y-111.25
X50.6Y-112.2
X50.6Y-113.0
X50.6Y-113.95
X50.6Y-114.75
X50.6Y-115.7
X50.6Y-116.5
X50.6Y-117.45
X50.6Y-118.25
X50.6Y-119.2
X50.6Y-120.0
X50.6Y-120.95
X50.6Y-121.75
X50.6Y-122.7
X50.6Y-123.5
X50.6Y-124.45
X50.6Y-125.25
X50.6Y-126.2
X50.6Y-127.0
X50.6Y-127.95
X50.6Y-128.75
X50.6Y-129.7
X50.6Y-130.5
X50.6Y-131.45
X50.6Y-132.25
X50.6Y-133.2
X50.6Y-134.0
X50.6Y-134.95
X50.6Y-135.75
X50.6Y-136.7
X50.6Y-137.5
X50.6Y-138.45
X50.6Y-139.25
X50.6Y-140.2
X50.6Y-141.0
X50.6Y-141.95
X50.6Y-142.75
X50.6Y-143.7
X50.6Y-144.5
X50.6Y-145.45
X50.6Y-146.25
X50.6Y-147.2
X50.6Y-148.0
X50.6Y-148.95
X50.6Y-149.75
X50.6Y-150.7
X50.6Y-151.5
X50.6Y-152.45
X50.6Y-153.25
X50.6Y-154.2
X50.6Y-155.0
X50.6Y-155.95
X50.6Y-156.75
X50.6Y-157.7
X50.6Y-158.5
X50.6Y-159.45
X50.6Y-160.25
X50.6Y-161.2
X50.6Y-162.0
X50.6Y-162.95
X50.6Y-163.75
X50.6Y-164.7
X51.2Y-19.5
X51.2Y-20.45
X51.2Y-21.25
X51.2Y-22.2
X51.2Y-23.0
X51.2Y-23.95
X51.2Y-24.75
X51.2Y-25.7
X51.2Y-26.5
X51.2Y-27.45
X51.2Y-28.25
X51.2Y-29.2
X51.2Y-30.0
X51.2Y-30.95
X51.2Y-31.75
X51.2Y-32.7
X51.2Y-33.5
X51.2Y-34.45
X51.2Y-35.25
X51.2Y-36.2
X51.2Y-37.0
X51.2Y-37.95
X51.2Y-38.75
X51.2Y-39.7
X51.2Y-40.5
X51.2Y-41.45
X51.2Y-42.25
X51.2Y-43.2
X51.2Y-44.0
X51.2Y-44.95
X51.2Y-45.75
X51.2Y-46.7
X51.2Y-47.5
X51.2Y-48.45
X51.2Y-49.25
X51.2Y-50.2
X51.2Y-51.0
X51.2Y-51.95
X51.2Y-52.75
X51.2Y-53.7
X51.2Y-54.5
X51.2Y-55.45
X51.2Y-56.25
X51.2Y-57.2
X51.2Y-58.0
X51.2Y-58.95
X51.2Y-59.75
X51.2Y-60.7
X51.2Y-61.5
X51.2Y-62.45
X51.2Y-63.25
X51.2Y-64.2
X51.2Y-65.0
X51.2Y-65.95
X51.2Y-66.75
X51.2Y-67.7
X51.2Y-68.5
X51.2Y-69.45
X51.2Y-70.25
X51.2Y-71.2
X51.2Y-72.0
X51.2Y-72.95
X51.2Y-73.75
X51.2Y-74.7
X51.2Y-109.5
X51.2Y-110.45
X51.2Y-111.25
X51.2Y-112.2
X51.2Y-113.0
X51.2Y-113.95
X51.2Y-114.75
X51.2Y-115.7
X51.2Y-116.5
X51.2Y-117.45
X51.2Y-118.25
X51.2Y-119.2
X51.2Y-120.0
X51.2Y-120.95
X51.2Y-121.75
X51.2Y-122.7
X51.2Y-123.5
X51.2Y-124.45
X51.2Y-125.25
X51.2Y-126.2
X51.2Y-127.0
X51.2Y-127.95
X51.2Y-128.75
X51.2Y-129.7
X51.2Y-130.5
X51.2Y-131.45
X51.2Y-132.25
X51.2Y-133.2
X51.2Y-134.0
X51.2Y-134.95
X51.2Y-135.75
X51.2Y-136.7
X51.2Y-137.5
X51.2Y-138.45
X51.2Y-139.25
X51.2Y-140.2
X51.2Y-141.0
X51.2Y-141.95
X51.2Y-142.75
X51.2Y-143.7
X51.2Y-144.5
X51.2Y-145.45
X51.2Y-146.25
X51.2Y-147.2
X51.2Y-148.0
X51.2Y-148.95
X51.2Y-149.75
X51.2Y-150.7
X51.2Y-151.5
X51.2Y-152.45
X51.2Y-153.25
X51.2Y-154.2
X51.2Y-155.0
X51.2Y-155.95
X51.2Y-156.75
X51.2Y-157.7
X51.2Y-158.5
X51.2Y-159.45
X51.2Y-160.25
X51.2Y-161.2
X51.2Y-162.0
X51.2Y-162.95
X51.2Y-163.75
X51.2Y-164.7
X52.35Y-19.5
X52.35Y-20.45
X52.35Y-21.25
X52.35Y-22.2
X52.35Y-23.0
X52.35Y-23.95
X52.35Y-24.75
X52.35Y-25.7
X52.35Y-26.5
X52.35Y-27.45
X52.35Y-28.25
X52.35Y-29.2
X52.35Y-30.0
X52.35Y-30.95
X52.35Y-31.75
X52.35Y-32.7
X52.35Y-33.5
X52.35Y-34.45
X52.35Y-35.25
X52.35Y-36.2
X52.35Y-37.0
X52.35Y-37.95
X52.35Y-38.75
X52.35Y-39.7
X52.35Y-40.5
X52.35Y-41.45
X52.35Y-42.25
X52.35Y-43.2
X52.35Y-44.0
X52.35Y-44.95
X52.35Y-45.75
X52.35Y-46.7
X52.35Y-47.5
X52.35Y-48.45
X52.35Y-49.25
X52.35Y-50.2
X52.35Y-51.0
X52.35Y-51.95
X52.35Y-52.75
X52.35Y-53.7
X52.35Y-54.5
X52.35Y-55.45
X52.35Y-56.25
X52.35Y-57.2
X52.35Y-58.0
X52.35Y-58.95
X52.35Y-59.75
X52.35Y-60.7
X52.35Y-61.5
X52.35Y-62.45
X52.35Y-63.25
X52.35Y-64.2
X52.35Y-65.0
X52.35Y-65.95
X52.35Y-66.75
X52.35Y-67.7
X52.35Y-68.5
X52.35Y-69.45
X52.35Y-70.25
X52.35Y-71.2
X52.35Y-72.0
X52.35Y-72.95
X52.35Y-73.75
X52.35Y-74.7
X52.35Y-109.5
X52.35Y-110.45
X52.35Y-111.25
X52.35Y-112.2
X52.35Y-113.0
X52.35Y-113.95
X52.35Y-114.75
X52.35Y-115.7
X52.35Y-116.5
X52.35Y-117.45
X52.35Y-118.25
X52.35Y-119.2
X52.35Y-120.0
X52.35Y-120.95
X52.35Y-121.75
X52.35Y-122.7
X52.35Y-123.5
X52.35Y-124.45
X52.35Y-125.25
X52.35Y-126.2
X52.35Y-127.0
X52.35Y-127.95
X52.35Y-128.75
X52.35Y-129.7
X52.35Y-130.5
X52.35Y-131.45
X52.35Y-132.25
X52.35Y-133.2
X52.35Y-134.0
X52.35Y-134.95
X52.35Y-135.75
X52.35Y-136.7
X52.35Y-137.5
X52.35Y-138.45
X52.35Y-139.25
X52.35Y-140.2
X52.35Y-141.0
X52.35Y-141.95
X52.35Y-142.75
X52.35Y-143.7
X52.35Y-144.5
X52.35Y-145.45
X52.35Y-146.25
X52.35Y-147.2
X52.35Y-148.0
X52.35Y-148.95
X52.35Y-149.75
X52.35Y-150.7
X52.35Y-151.5
X52.35Y-152.45
X52.35Y-153.25
X52.35Y-154.2
X52.35Y-155.0
X52.35Y-155.95
X52.35Y-156.75
X52.35Y-157.7
X52.35Y-158.5
X52.35Y-159.45
X52.35Y-160.25
X52.35Y-161.2
X52.35Y-162.0
X52.35Y-162.95
X52.35Y-163.75
X52.35Y-164.7
X52.95Y-19.5
X52.95Y-20.45
X52.95Y-21.25
X52.95Y-22.2
X52.95Y-23.0
X52.95Y-23.95
X52.95Y-24.75
X52.95Y-25.7
X52.95Y-26.5
X52.95Y-27.45
X52.95Y-28.25
X52.95Y-29.2
X52.95Y-30.0
X52.95Y-30.95
X52.95Y-31.75
X52.95Y-32.7
X52.95Y-33.5
X52.95Y-34.45
X52.95Y-35.25
X52.95Y-36.2
X52.95Y-37.0
X52.95Y-37.95
X52.95Y-38.75
X52.95Y-39.7
X52.95Y-40.5
X52.95Y-41.45
X52.95Y-42.25
X52.95Y-43.2
X52.95Y-44.0
X52.95Y-44.95
X52.95Y-45.75
X52.95Y-46.7
X52.95Y-47.5
X52.95Y-48.45
X52.95Y-49.25
X52.95Y-50.2
X52.95Y-51.0
X52.95Y-51.95
X52.95Y-52.75
X52.95Y-53.7
X52.95Y-54.5
X52.95Y-55.45
X52.95Y-56.25
X52.95Y-57.2
X52.95Y-58.0
X52.95Y-58.95
X52.95Y-59.75
X52.95Y-60.7
X52.95Y-61.5
X52.95Y-62.45
X52.95Y-63.25
X52.95Y-64.2
X52.95Y-65.0
X52.95Y-65.95
X52.95Y-66.75
X52.95Y-67.7
X52.95Y-68.5
X52.95Y-69.45
X52.95Y-70.25
X52.95Y-71.2
X52.95Y-72.0
X52.95Y-72.95
X52.95Y-73.75
X52.95Y-74.7
X52.95Y-109.5
X52.95Y-110.45
X52.95Y-111.25
X52.95Y-112.2
X52.95Y-113.0
X52.95Y-113.95
X52.95Y-114.75
X52.95Y-115.7
X52.95Y-116.5
X52.95Y-117.45
X52.95Y-118.25
X52.95Y-119.2
X52.95Y-120.0
X52.95Y-120.95
X52.95Y-121.75
X52.95Y-122.7
X52.95Y-123.5
X52.95Y-124.45
X52.95Y-125.25
X52.95Y-126.2
X52.95Y-127.0
X52.95Y-127.95
X52.95Y-128.75
X52.95Y-129.7
X52.95Y-130.5
X52.95Y-131.45
X52.95Y-132.25
X52.95Y-133.2
X52.95Y-134.0
X52.95Y-134.95
X52.95Y-135.75
X52.95Y-136.7
X52.95Y-137.5
X52.95Y-138.45
X52.95Y-139.25
X52.95Y-140.2
X52.95Y-141.0
X52.95Y-141.95
X52.95Y-142.75
X52.95Y-143.7
X52.95Y-144.5
X52.95Y-145.45
X52.95Y-146.25
X52.95Y-147.2
X52.95Y-148.0
X52.95Y-148.95
X52.95Y-149.75
X52.95Y-150.7
X52.95Y-151.5
X52.95Y-152.45
X52.95Y-153.25
X52.95Y-154.2
X52.95Y-155.0
X52.95Y-155.95
X52.95Y-156.75
X52.95Y-157.7
X52.95Y-158.5
X52.95Y-159.45
X52.95Y-160.25
X52.95Y-161.2
X52.95Y-162.0
X52.95Y-162.95
X52.95Y-163.75
X52.95Y-164.7
X54.1Y-19.5
X54.1Y-20.45
X54.1Y-21.25
X54.1Y-22.2
X54.1Y-23.0
X54.1Y-23.95
X54.1Y-24.75
X54.1Y-25.7
X54.1Y-26.5
X54.1Y-27.45
X54.1Y-28.25
X54.1Y-29.2
X54.1Y-30.0
X54.1Y-30.95
X54.1Y-31.75
X54.1Y-32.7
X54.1Y-33.5
X54.1Y-34.45
X54.1Y-35.25
X54.1Y-36.2
X54.1Y-37.0
X54.1Y-37.95
X54.1Y-38.75
X54.1Y-39.7
X54.1Y-40.5
X54.1Y-41.45
X54.1Y-42.25
X54.1Y-43.2
X54.1Y-44.0
X54.1Y-44.95
X54.1Y-45.75
X54.1Y-46.7
X54.1Y-47.5
X54.1Y-48.45
X54.1Y-49.25
X54.1Y-50.2
X54.1Y-51.0
X54.1Y-51.95
X54.1Y-52.75
X54.1Y-53.7
X54.1Y-54.5
X54.1Y-55.45
X54.1Y-56.25
X54.1Y-57.2
X54.1Y-58.0
X54.1Y-58.95
X54.1Y-59.75
X54.1Y-60.7
X54.1Y-61.5
X54.1Y-62.45
X54.1Y-63.25
X54.1Y-64.2
X54.1Y-65.0
X54.1Y-65.95
X54.1Y-66.75
X54.1Y-67.7
X54.1Y-68.5
X54.1Y-69.45
X54.1Y-70.25
X54.1Y-71.2
X54.1Y-72.0
X54.1Y-72.95
X54.1Y-73.75
X54.1Y-74.7
X54.1Y-109.5
X54.1Y-110.45
X54.1Y-111.25
X54.1Y-112.2
X54.1Y-113.0
X54.1Y-113.95
X54.1Y-114.75
X54.1Y-115.7
X54.1Y-116.5
X54.1Y-117.45
X54.1Y-118.25
X54.1Y-119.2
X54.1Y-120.0
X54.1Y-120.95
X54.1Y-121.75
X54.1Y-122.7
X54.1Y-123.5
X54.1Y-124.45
X54.1Y-125.25
X54.1Y-126.2
X54.1Y-127.0
X54.1Y-127.95
X54.1Y-128.75
X54.1Y-129.7
X54.1Y-130.5
X54.1Y-131.45
X54.1Y-132.25
X54.1Y-133.2
X54.1Y-134.0
X54.1Y-134.95
X54.1Y-135.75
X54.1Y-136.7
X54.1Y-137.5
X54.1Y-138.45
X54.1Y-139.25
X54.1Y-140.2
X54.1Y-141.0
X54.1Y-141.95
X54.1Y-142.75
X54.1Y-143.7
X54.1Y-144.5
X54.1Y-145.45
X54.1Y-146.25
X54.1Y-147.2
X54.1Y-148.0
X54.1Y-148.95
X54.1Y-149.75
X54.1Y-150.7
X54.1Y-151.5
X54.1Y-152.45
X54.1Y-153.25
X54.1Y-154.2
X54.1Y-155.0
X54.1Y-155.95
X54.1Y-156.75
X54.1Y-157.7
X54.1Y-158.5
X54.1Y-159.45
X54.1Y-160.25
X54.1Y-161.2
X54.1Y-162.0
X54.1Y-162.95
X54.1Y-163.75
X54.1Y-164.7
X54.7Y-19.5
X54.7Y-20.45
X54.7Y-21.25
X54.7Y-22.2
X54.7Y-23.0
X54.7Y-23.95
X54.7Y-24.75
X54.7Y-25.7
X54.7Y-26.5
X54.7Y-27.45
X54.7Y-28.25
X54.7Y-29.2
X54.7Y-30.0
X54.7Y-30.95
X54.7Y-31.75
X54.7Y-32.7
X54.7Y-33.5
X54.7Y-34.45
X54.7Y-35.25
X54.7Y-36.2
X54.7Y-37.0
X54.7Y-37.95
X54.7Y-38.75
X54.7Y-39.7
X54.7Y-40.5
X54.7Y-41.45
X54.7Y-42.25
X54.7Y-43.2
X54.7Y-44.0
X54.7Y-44.95
X54.7Y-45.75
X54.7Y-46.7
X54.7Y-47.5
X54.7Y-48.45
X54.7Y-49.25
X54.7Y-50.2
X54.7Y-51.0
X54.7Y-51.95
X54.7Y-52.75
X54.7Y-53.7
X54.7Y-54.5
X54.7Y-55.45
X54.7Y-56.25
X54.7Y-57.2
X54.7Y-58.0
X54.7Y-58.95
X54.7Y-59.75
X54.7Y-60.7
X54.7Y-61.5
X54.7Y-62.45
X54.7Y-63.25
X54.7Y-64.2
X54.7Y-65.0
X54.7Y-65.95
X54.7Y-66.75
X54.7Y-67.7
X54.7Y-68.5
X54.7Y-69.45
X54.7Y-70.25
X54.7Y-71.2
X54.7Y-72.0
X54.7Y-72.95
X54.7Y-73.75
X54.7Y-74.7
X54.7Y-109.5
X54.7Y-110.45
X54.7Y-111.25
X54.7Y-112.2
X54.7Y-113.0
X54.7Y-113.95
X54.7Y-114.75
X54.7Y-115.7
X54.7Y-116.5
X54.7Y-117.45
X54.7Y-118.25
X54.7Y-119.2
X54.7Y-120.0
X54.7Y-120.95
X54.7Y-121.75
X54.7Y-122.7
X54.7Y-123.5
X54.7Y-124.45
X54.7Y-125.25
X54.7Y-126.2
X54.7Y-127.0
X54.7Y-127.95
X54.7Y-128.75
X54.7Y-129.7
X54.7Y-130.5
X54.7Y-131.45
X54.7Y-132.25
X54.7Y-133.2
X54.7Y-134.0
X54.7Y-134.95
X54.7Y-135.75
X54.7Y-136.7
X54.7Y-137.5
X54.7Y-138.45
X54.7Y-139.25
X54.7Y-140.2
X54.7Y-141.0
X54.7Y-141.95
X54.7Y-142.75
X54.7Y-143.7
X54.7Y-144.5
X54.7Y-145.45
X54.7Y-146.25
X54.7Y-147.2
X54.7Y-148.0
X54.7Y-148.95
X54.7Y-149.75
X54.7Y-150.7
X54.7Y-151.5
X54.7Y-152.45
X54.7Y-153.25
X54.7Y-154.2
X54.7Y-155.0
X54.7Y-155.95
X54.7Y-156.75
X54.7Y-157.7
X54.7Y-158.5
X54.7Y-159.45
X54.7Y-160.25
X54.7Y-161.2
X54.7Y-162.0
X54.7Y-162.95
X54.7Y-163.75
X54.7Y-164.7
X55.85Y-19.5
X55.85Y-20.45
X55.85Y-21.25
X55.85Y-22.2
X55.85Y-23.0
X55.85Y-23.95
X55.85Y-24.75
X55.85Y-25.7
X55.85Y-26.5
X55.85Y-27.45
X55.85Y-28.25
X55.85Y-29.2
X55.85Y-30.0
X55.85Y-30.95
X55.85Y-31.75
X55.85Y-32.7
X55.85Y-33.5
X55.85Y-34.45
X55.85Y-35.25
X55.85Y-36.2
X55.85Y-37.0
X55.85Y-37.95
X55.85Y-38.75
X55.85Y-39.7
X55.85Y-40.5
X55.85Y-41.45
X55.85Y-42.25
X55.85Y-43.2
X55.85Y-44.0
X55.85Y-44.95
X55.85Y-45.75
X55.85Y-46.7
X55.85Y-47.5
X55.85Y-48.45
X55.85Y-49.25
X55.85Y-50.2
X55.85Y-51.0
X55.85Y-51.95
X55.85Y-52.75
X55.85Y-53.7
X55.85Y-54.5
X55.85Y-55.45
X55.85Y-56.25
X55.85Y-57.2
X55.85Y-58.0
X55.85Y-58.95
X55.85Y-59.75
X55.85Y-60.7
X55.85Y-61.5
X55.85Y-62.45
X55.85Y-63.25
X55.85Y-64.2
X55.85Y-65.0
X55.85Y-65.95
X55.85Y-66.75
X55.85Y-67.7
X55.85Y-68.5
X55.85Y-69.45
X55.85Y-70.25
X55.85Y-71.2
X55.85Y-72.0
X55.85Y-72.95
X55.85Y-73.75
X55.85Y-74.7
X55.85Y-109.5
X55.85Y-110.45
X55.85Y-111.25
X55.85Y-112.2
X55.85Y-113.0
X55.85Y-113.95
X55.85Y-114.75
X55.85Y-115.7
X55.85Y-116.5
X55.85Y-117.45
X55.85Y-118.25
X55.85Y-119.2
X55.85Y-120.0
X55.85Y-120.95
X55.85Y-121.75
X55.85Y-122.7
X55.85Y-123.5
X55.85Y-124.45
X55.85Y-125.25
X55.85Y-126.2
X55.85Y-127.0
X55.85Y-127.95
X55.85Y-128.75
X55.85Y-129.7
X55.85Y-130.5
X55.85Y-131.45
X55.85Y-132.25
X55.85Y-133.2
X55.85Y-134.0
X55.85Y-134.95
X55.85Y-135.75
X55.85Y-136.7
X55.85Y-137.5
X55.85Y-138.45
X55.85Y-139.25
X55.85Y-140.2
X55.85Y-141.0
X55.85Y-141.95
X55.85Y-142.75
X55.85Y-143.7
X55.85Y-144.5
X55.85Y-145.45
X55.85Y-146.25
X55.85Y-147.2
X55.85Y-148.0
X55.85Y-148.95
X55.85Y-149.75
X55.85Y-150.7
X55.85Y-151.5
X55.85Y-152.45
X55.85Y-153.25
X55.85Y-154.2
X55.85Y-155.0
X55.85Y-155.95
X55.85Y-156.75
X55.85Y-157.7
X55.85Y-158.5
X55.85Y-159.45
X55.85Y-160.25
X55.85Y-161.2
X55.85Y-162.0
X55.85Y-162.95
X55.85Y-163.75
X55.85Y-164.7
X56.45Y-19.5
X56.45Y-20.45
X56.45Y-21.25
X56.45Y-22.2
X56.45Y-23.0
X56.45Y-23.95
X56.45Y-24.75
X56.45Y-25.7
X56.45Y-26.5
X56.45Y-27.45
X56.45Y-28.25
X56.45Y-29.2
X56.45Y-30.0
X56.45Y-30.95
X56.45Y-31.75
X56.45Y-32.7
X56.45Y-33.5
X56.45Y-34.45
X56.45Y-35.25
X56.45Y-36.2
X56.45Y-37.0
X56.45Y-37.95
X56.45Y-38.75
X56.45Y-39.7
X56.45Y-40.5
X56.45Y-41.45
X56.45Y-42.25
X56.45Y-43.2
X56.45Y-44.0
X56.45Y-44.95
X56.45Y-45.75
X56.45Y-46.7
X56.45Y-47.5
X56.45Y-48.45
X56.45Y-49.25
X56.45Y-50.2
X56.45Y-51.0
X56.45Y-51.95
X56.45Y-52.75
X56.45Y-53.7
X56.45Y-54.5
X56.45Y-55.45
X56.45Y-56.25
X56.45Y-57.2
X56.45Y-58.0
X56.45Y-58.95
X56.45Y-59.75
X56.45Y-60.7
X56.45Y-61.5
X56.45Y-62.45
X56.45Y-63.25
X56.45Y-64.2
X56.45Y-65.0
X56.45Y-65.95
X56.45Y-66.75
X56.45Y-67.7
X56.45Y-68.5
X56.45Y-69.45
X56.45Y-70.25
X56.45Y-71.2
X56.45Y-72.0
X56.45Y-72.95
X56.45Y-73.75
X56.45Y-74.7
X56.45Y-109.5
X56.45Y-110.45
X56.45Y-111.25
X56.45Y-112.2
X56.45Y-113.0
X56.45Y-113.95
X56.45Y-114.75
X56.45Y-115.7
X56.45Y-116.5
X56.45Y-117.45
X56.45Y-118.25
X56.45Y-119.2
X56.45Y-120.0
X56.45Y-120.95
X56.45Y-121.75
X56.45Y-122.7
X56.45Y-123.5
X56.45Y-124.45
X56.45Y-125.25
X56.45Y-126.2
X56.45Y-127.0
X56.45Y-127.95
X56.45Y-128.75
X56.45Y-129.7
X56.45Y-130.5
X56.45Y-131.45
X56.45Y-132.25
X56.45Y-133.2
X56.45Y-134.0
X56.45Y-134.95
X56.45Y-135.75
X56.45Y-136.7
X56.45Y-137.5
X56.45Y-138.45
X56.45Y-139.25
X56.45Y-140.2
X56.45Y-141.0
X56.45Y-141.95
X56.45Y-142.75
X56.45Y-143.7
X56.45Y-144.5
X56.45Y-145.45
X56.45Y-146.25
X56.45Y-147.2
X56.45Y-148.0
X56.45Y-148.95
X56.45Y-149.75
X56.45Y-150.7
X56.45Y-151.5
X56.45Y-152.45
X56.45Y-153.25
X56.45Y-154.2
X56.45Y-155.0
X56.45Y-155.95
X56.45Y-156.75
X56.45Y-157.7
X56.45Y-158.5
X56.45Y-159.45
X56.45Y-160.25
X56.45Y-161.2
X56.45Y-162.0
X56.45Y-162.95
X56.45Y-163.75
X56.45Y-164.7
X57.6Y-19.5
X57.6Y-20.45
X57.6Y-21.25
X57.6Y-22.2
X57.6Y-23.0
X57.6Y-23.95
X57.6Y-24.75
X57.6Y-25.7
X57.6Y-26.5
X57.6Y-27.45
X57.6Y-28.25
X57.6Y-29.2
X57.6Y-30.0
X57.6Y-30.95
X57.6Y-31.75
X57.6Y-32.7
X57.6Y-33.5
X57.6Y-34.45
X57.6Y-35.25
X57.6Y-36.2
X57.6Y-37.0
X57.6Y-37.95
X57.6Y-38.75
X57.6Y-39.7
X57.6Y-40.5
X57.6Y-41.45
X57.6Y-42.25
X57.6Y-43.2
X57.6Y-44.0
X57.6Y-44.95
X57.6Y-45.75
X57.6Y-46.7
X57.6Y-47.5
X57.6Y-48.45
X57.6Y-49.25
X57.6Y-50.2
X57.6Y-51.0
X57.6Y-51.95
X57.6Y-52.75
X57.6Y-53.7
X57.6Y-54.5
X57.6Y-55.45
X57.6Y-56.25
X57.6Y-57.2
X57.6Y-58.0
X57.6Y-58.95
X57.6Y-59.75
X57.6Y-60.7
X57.6Y-61.5
X57.6Y-62.45
X57.6Y-63.25
X57.6Y-64.2
X57.6Y-65.0
X57.6Y-65.95
X57.6Y-66.75
X57.6Y-67.7
X57.6Y-68.5
X57.6Y-69.45
X57.6Y-70.25
X57.6Y-71.2
X57.6Y-72.0
X57.6Y-72.95
X57.6Y-73.75
X57.6Y-74.7
X57.6Y-109.5
X57.6Y-110.45
X57.6Y-111.25
X57.6Y-112.2
X57.6Y-113.0
X57.6Y-113.95
X57.6Y-114.75
X57.6Y-115.7
X57.6Y-116.5
X57.6Y-117.45
X57.6Y-118.25
X57.6Y-119.2
X57.6Y-120.0
X57.6Y-120.95
X57.6Y-121.75
X57.6Y-122.7
X57.6Y-123.5
X57.6Y-124.45
X57.6Y-125.25
X57.6Y-126.2
X57.6Y-127.0
X57.6Y-127.95
X57.6Y-128.75
X57.6Y-129.7
X57.6Y-130.5
X57.6Y-131.45
X57.6Y-132.25
X57.6Y-133.2
X57.6Y-134.0
X57.6Y-134.95
X57.6Y-135.75
X57.6Y-136.7
X57.6Y-137.5
X57.6Y-138.45
X57.6Y-139.25
X57.6Y-140.2
X57.6Y-141.0
X57.6Y-141.95
X57.6Y-142.75
X57.6Y-143.7
X57.6Y-144.5
X57.6Y-145.45
X57.6Y-146.25
X57.6Y-147.2
X57.6Y-148.0
X57.6Y-148.95
X57.6Y-149.75
X57.6Y-150.7
X57.6Y-151.5
X57.6Y-152.45
X57.6Y-153.25
X57.6Y-154.2
X57.6Y-155.0
X57.6Y-155.95
X57.6Y-156.75
X57.6Y-157.7
X57.6Y-158.5
X57.6Y-159.45
X57.6Y-160.25
X57.6Y-161.2
X57.6Y-162.0
X57.6Y-162.95
X57.6Y-163.75
X57.6Y-164.7
X58.2Y-19.5
X58.2Y-20.45
X58.2Y-21.25
X58.2Y-22.2
X58.2Y-23.0
X58.2Y-23.95
X58.2Y-24.75
X58.2Y-25.7
X58.2Y-26.5
X58.2Y-27.45
X58.2Y-28.25
X58.2Y-29.2
X58.2Y-30.0
X58.2Y-30.95
X58.2Y-31.75
X58.2Y-32.7
X58.2Y-33.5
X58.2Y-34.45
X58.2Y-35.25
X58.2Y-36.2
X58.2Y-37.0
X58.2Y-37.95
X58.2Y-38.75
X58.2Y-39.7
X58.2Y-40.5
X58.2Y-41.45
X58.2Y-42.25
X58.2Y-43.2
X58.2Y-44.0
X58.2Y-44.95
X58.2Y-45.75
X58.2Y-46.7
X58.2Y-47.5
X58.2Y-48.45
X58.2Y-49.25
X58.2Y-50.2
X58.2Y-51.0
X58.2Y-51.95
X58.2Y-52.75
X58.2Y-53.7
X58.2Y-54.5
X58.2Y-55.45
X58.2Y-56.25
X58.2Y-57.2
X58.2Y-58.0
X58.2Y-58.95
X58.2Y-59.75
X58.2Y-60.7
X58.2Y-61.5
X58.2Y-62.45
X58.2Y-63.25
X58.2Y-64.2
X58.2Y-65.0
X58.2Y-65.95
X58.2Y-66.75
X58.2Y-67.7
X58.2Y-68.5
X58.2Y-69.45
X58.2Y-70.25
X58.2Y-71.2
X58.2Y-72.0
X58.2Y-72.95
X58.2Y-73.75
X58.2Y-74.7
X58.2Y-109.5
X58.2Y-110.45
X58.2Y-111.25
X58.2Y-112.2
X58.2Y-113.0
X58.2Y-113.95
X58.2Y-114.75
X58.2Y-115.7
X58.2Y-116.5
X58.2Y-117.45
X58.2Y-118.25
X58.2Y-119.2
X58.2Y-120.0
X58.2Y-120.95
X58.2Y-121.75
X58.2Y-122.7
X58.2Y-123.5
X58.2Y-124.45
X58.2Y-125.25
X58.2Y-126.2
X58.2Y-127.0
X58.2Y-127.95
X58.2Y-128.75
X58.2Y-129.7
X58.2Y-130.5
X58.2Y-131.45
X58.2Y-132.25
X58.2Y-133.2
X58.2Y-134.0
X58.2Y-134.95
X58.2Y-135.75
X58.2Y-136.7
X58.2Y-137.5
X58.2Y-138.45
X58.2Y-139.25
X58.2Y-140.2
X58.2Y-141.0
X58.2Y-141.95
X58.2Y-142.75
X58.2Y-143.7
X58.2Y-144.5
X58.2Y-145.45
X58.2Y-146.25
X58.2Y-147.2
X58.2Y-148.0
X58.2Y-148.95
X58.2Y-149.75
X58.2Y-150.7
X58.2Y-151.5
X58.2Y-152.45
X58.2Y-153.25
X58.2Y-154.2
X58.2Y-155.0
X58.2Y-155.95
X58.2Y-156.75
X58.2Y-157.7
X58.2Y-158.5
X58.2Y-159.45
X58.2Y-160.25
X58.2Y-161.2
X58.2Y-162.0
X58.2Y-162.95
X58.2Y-163.75
X58.2Y-164.7
X59.35Y-19.5
X59.35Y-20.45
X59.35Y-21.25
X59.35Y-22.2
X59.35Y-23.0
X59.35Y-23.95
X59.35Y-24.75
X59.35Y-25.7
X59.35Y-26.5
X59.35Y-27.45
X59.35Y-28.25
X59.35Y-29.2
X59.35Y-30.0
X59.35Y-30.95
X59.35Y-31.75
X59.35Y-32.7
X59.35Y-33.5
X59.35Y-34.45
X59.35Y-35.25
X59.35Y-36.2
X59.35Y-37.0
X59.35Y-37.95
X59.35Y-38.75
X59.35Y-39.7
X59.35Y-40.5
X59.35Y-41.45
X59.35Y-42.25
X59.35Y-43.2
X59.35Y-44.0
X59.35Y-44.95
X59.35Y-45.75
X59.35Y-46.7
X59.35Y-47.5
X59.35Y-48.45
X59.35Y-49.25
X59.35Y-50.2
X59.35Y-51.0
X59.35Y-51.95
X59.35Y-52.75
X59.35Y-53.7
X59.35Y-54.5
X59.35Y-55.45
X59.35Y-56.25
X59.35Y-57.2
X59.35Y-58.0
X59.35Y-58.95
X59.35Y-59.75
X59.35Y-60.7
X59.35Y-61.5
X59.35Y-62.45
X59.35Y-63.25
X59.35Y-64.2
X59.35Y-65.0
X59.35Y-65.95
X59.35Y-66.75
X59.35Y-67.7
X59.35Y-68.5
X59.35Y-69.45
X59.35Y-70.25
X59.35Y-71.2
X59.35Y-72.0
X59.35Y-72.95
X59.35Y-73.75
X59.35Y-74.7
X59.35Y-109.5
X59.35Y-110.45
X59.35Y-111.25
X59.35Y-112.2
X59.35Y-113.0
X59.35Y-113.95
X59.35Y-114.75
X59.35Y-115.7
X59.35Y-116.5
X59.35Y-117.45
X59.35Y-118.25
X59.35Y-119.2
X59.35Y-120.0
X59.35Y-120.95
X59.35Y-121.75
X59.35Y-122.7
X59.35Y-123.5
X59.35Y-124.45
X59.35Y-125.25
X59.35Y-126.2
X59.35Y-127.0
X59.35Y-127.95
X59.35Y-128.75
X59.35Y-129.7
X59.35Y-130.5
X59.35Y-131.45
X59.35Y-132.25
X59.35Y-133.2
X59.35Y-134.0
X59.35Y-134.95
X59.35Y-135.75
X59.35Y-136.7
X59.35Y-137.5
X59.35Y-138.45
X59.35Y-139.25
X59.35Y-140.2
X59.35Y-141.0
X59.35Y-141.95
X59.35Y-142.75
X59.35Y-143.7
X59.35Y-144.5
X59.35Y-145.45
X59.35Y-146.25
X59.35Y-147.2
X59.35Y-148.0
X59.35Y-148.95
X59.35Y-149.75
X59.35Y-150.7
X59.35Y-151.5
X59.35Y-152.45
X59.35Y-153.25
X59.35Y-154.2
X59.35Y-155.0
X59.35Y-155.95
X59.35Y-156.75
X59.35Y-157.7
X59.35Y-158.5
X59.35Y-159.45
X59.35Y-160.25
X59.35Y-161.2
X59.35Y-162.0
X59.35Y-162.95
X59.35Y-163.75
X59.35Y-164.7
X59.95Y-19.5
X59.95Y-20.45
X59.95Y-21.25
X59.95Y-22.2
X59.95Y-23.0
X59.95Y-23.95
X59.95Y-24.75
X59.95Y-25.7
X59.95Y-26.5
X59.95Y-27.45
X59.95Y-28.25
X59.95Y-29.2
X59.95Y-30.0
X59.95Y-30.95
X59.95Y-31.75
X59.95Y-32.7
X59.95Y-33.5
X59.95Y-34.45
X59.95Y-35.25
X59.95Y-36.2
X59.95Y-37.0
X59.95Y-37.95
X59.95Y-38.75
X59.95Y-39.7
X59.95Y-40.5
X59.95Y-41.45
X59.95Y-42.25
X59.95Y-43.2
X59.95Y-44.0
X59.95Y-44.95
X59.95Y-45.75
X59.95Y-46.7
X59.95Y-47.5
X59.95Y-48.45
X59.95Y-49.25
X59.95Y-50.2
X59.95Y-51.0
X59.95Y-51.95
X59.95Y-52.75
X59.95Y-53.7
X59.95Y-54.5
X59.95Y-55.45
X59.95Y-56.25
X59.95Y-57.2
X59.95Y-58.0
X59.95Y-58.95
X59.95Y-59.75
X59.95Y-60.7
X59.95Y-61.5
X59.95Y-62.45
X59.95Y-63.25
X59.95Y-64.2
X59.95Y-65.0
X59.95Y-65.95
X59.95Y-66.75
X59.95Y-67.7
X59.95Y-68.5
X59.95Y-69.45
X59.95Y-70.25
X59.95Y-71.2
X59.95Y-72.0
X59.95Y-72.95
X59.95Y-73.75
X59.95Y-74.7
X59.95Y-109.5
X59.95Y-110.45
X59.95Y-111.25
X59.95Y-112.2
X59.95Y-113.0
X59.95Y-113.95
X59.95Y-114.75
X59.95Y-115.7
X59.95Y-116.5
X59.95Y-117.45
X59.95Y-118.25
X59.95Y-119.2
X59.95Y-120.0
X59.95Y-120.95
X59.95Y-121.75
X59.95Y-122.7
X59.95Y-123.5
X59.95Y-124.45
X59.95Y-125.25
X59.95Y-126.2
X59.95Y-127.0
X59.95Y-127.95
X59.95Y-128.75
X59.95Y-129.7
X59.95Y-130.5
X59.95Y-131.45
X59.95Y-132.25
X59.95Y-133.2
X59.95Y-134.0
X59.95Y-134.95
X59.95Y-135.75
X59.95Y-136.7
X59.95Y-137.5
X59.95Y-138.45
X59.95Y-139.25
X59.95Y-140.2
X59.95Y-141.0
X59.95Y-141.95
X59.95Y-142.75
X59.95Y-143.7
X59.95Y-144.5
X59.95Y-145.45
X59.95Y-146.25
X59.95Y-147.2
X59.95Y-148.0
X59.95Y-148.95
X59.95Y-149.75
X59.95Y-150.7
X59.95Y-151.5
X59.95Y-152.45
X59.95Y-153.25
X59.95Y-154.2
X59.95Y-155.0
X59.95Y-155.95
X59.95Y-156.75
X59.95Y-157.7
X59.95Y-158.5
X59.95Y-159.45
X59.95Y-160.25
X59.95Y-161.2
X59.95Y-162.0
X59.95Y-162.95
X59.95Y-163.75
X59.95Y-164.7
X61.1Y-19.5
X61.1Y-20.45
X61.1Y-21.25
X61.1Y-22.2
X61.1Y-23.0
X61.1Y-23.95
X61.1Y-24.75
X61.1Y-25.7
X61.1Y-26.5
X61.1Y-27.45
X61.1Y-28.25
X61.1Y-29.2
X61.1Y-30.0
X61.1Y-30.95
X61.1Y-31.75
X61.1Y-32.7
X61.1Y-33.5
X61.1Y-34.45
X61.1Y-35.25
X61.1Y-36.2
X61.1Y-37.0
X61.1Y-37.95
X61.1Y-38.75
X61.1Y-39.7
X61.1Y-40.5
X61.1Y-41.45
X61.1Y-42.25
X61.1Y-43.2
X61.1Y-44.0
X61.1Y-44.95
X61.1Y-45.75
X61.1Y-46.7
X61.1Y-47.5
X61.1Y-48.45
X61.1Y-49.25
X61.1Y-50.2
X61.1Y-51.0
X61.1Y-51.95
X61.1Y-52.75
X61.1Y-53.7
X61.1Y-54.5
X61.1Y-55.45
X61.1Y-56.25
X61.1Y-57.2
X61.1Y-58.0
X61.1Y-58.95
X61.1Y-59.75
X61.1Y-60.7
X61.1Y-61.5
X61.1Y-62.45
X61.1Y-63.25
X61.1Y-64.2
X61.1Y-65.0
X61.1Y-65.95
X61.1Y-66.75
X61.1Y-67.7
X61.1Y-68.5
X61.1Y-69.45
X61.1Y-70.25
X61.1Y-71.2
X61.1Y-72.0
X61.1Y-72.95
X61.1Y-73.75
X61.1Y-74.7
X61.1Y-109.5
X61.1Y-110.45
X61.1Y-111.25
X61.1Y-112.2
X61.1Y-113.0
X61.1Y-113.95
X61.1Y-114.75
X61.1Y-115.7
X61.1Y-116.5
X61.1Y-117.45
X61.1Y-118.25
X61.1Y-119.2
X61.1Y-120.0
X61.1Y-120.95
X61.1Y-121.75
X61.1Y-122.7
X61.1Y-123.5
X61.1Y-124.45
X61.1Y-125.25
X61.1Y-126.2
X61.1Y-127.0
X61.1Y-127.95
X61.1Y-128.75
X61.1Y-129.7
X61.1Y-130.5
X61.1Y-131.45
X61.1Y-132.25
X61.1Y-133.2
X61.1Y-134.0
X61.1Y-134.95
X61.1Y-135.75
X61.1Y-136.7
X61.1Y-137.5
X61.1Y-138.45
X61.1Y-139.25
X61.1Y-140.2
X61.1Y-141.0
X61.1Y-141.95
X61.1Y-142.75
X61.1Y-143.7
X61.1Y-144.5
X61.1Y-145.45
X61.1Y-146.25
X61.1Y-147.2
X61.1Y-148.0
X61.1Y-148.95
X61.1Y-149.75
X61.1Y-150.7
X61.1Y-151.5
X61.1Y-152.45
X61.1Y-153.25
X61.1Y-154.2
X61.1Y-155.0
X61.1Y-155.95
X61.1Y-156.75
X61.1Y-157.7
X61.1Y-158.5
X61.1Y-159.45
X61.1Y-160.25
X61.1Y-161.2
X61.1Y-162.0
X61.1Y-162.95
X61.1Y-163.75
X61.1Y-164.7
X61.7Y-19.5
X61.7Y-20.45
X61.7Y-21.25
X61.7Y-22.2
X61.7Y-23.0
X61.7Y-23.95
X61.7Y-24.75
X61.7Y-25.7
X61.7Y-26.5
X61.7Y-27.45
X61.7Y-28.25
X61.7Y-29.2
X61.7Y-30.0
X61.7Y-30.95
X61.7Y-31.75
X61.7Y-32.7
X61.7Y-33.5
X61.7Y-34.45
X61.7Y-35.25
X61.7Y-36.2
X61.7Y-37.0
X61.7Y-37.95
X61.7Y-38.75
X61.7Y-39.7
X61.7Y-40.5
X61.7Y-41.45
X61.7Y-42.25
X61.7Y-43.2
X61.7Y-44.0
X61.7Y-44.95
X61.7Y-45.75
X61.7Y-46.7
X61.7Y-47.5
X61.7Y-48.45
X61.7Y-49.25
X61.7Y-50.2
X61.7Y-51.0
X61.7Y-51.95
X61.7Y-52.75
X61.7Y-53.7
X61.7Y-54.5
X61.7Y-55.45
X61.7Y-56.25
X61.7Y-57.2
X61.7Y-58.0
X61.7Y-58.95
X61.7Y-59.75
X61.7Y-60.7
X61.7Y-61.5
X61.7Y-62.45
X61.7Y-63.25
X61.7Y-64.2
X61.7Y-65.0
X61.7Y-65.95
X61.7Y-66.75
X61.7Y-67.7
X61.7Y-68.5
X61.7Y-69.45
X61.7Y-70.25
X61.7Y-71.2
X61.7Y-72.0
X61.7Y-72.95
X61.7Y-73.75
X61.7Y-74.7
X61.7Y-109.5
X61.7Y-110.45
X61.7Y-111.25
X61.7Y-112.2
X61.7Y-113.0
X61.7Y-113.95
X61.7Y-114.75
X61.7Y-115.7
X61.7Y-116.5
X61.7Y-117.45
X61.7Y-118.25
X61.7Y-119.2
X61.7Y-120.0
X61.7Y-120.95
X61.7Y-121.75
X61.7Y-122.7
X61.7Y-123.5
X61.7Y-124.45
X61.7Y-125.25
X61.7Y-126.2
X61.7Y-127.0
X61.7Y-127.95
X61.7Y-128.75
X61.7Y-129.7
X61.7Y-130.5
X61.7Y-131.45
X61.7Y-132.25
X61.7Y-133.2
X61.7Y-134.0
X61.7Y-134.95
X61.7Y-135.75
X61.7Y-136.7
X61.7Y-137.5
X61.7Y-138.45
X61.7Y-139.25
X61.7Y-140.2
X61.7Y-141.0
X61.7Y-141.95
X61.7Y-142.75
X61.7Y-143.7
X61.7Y-144.5
X61.7Y-145.45
X61.7Y-146.25
X61.7Y-147.2
X61.7Y-148.0
X61.7Y-148.95
X61.7Y-149.75
X61.7Y-150.7
X61.7Y-151.5
X61.7Y-152.45
X61.7Y-153.25
X61.7Y-154.2
X61.7Y-155.0
X61.7Y-155.95
X61.7Y-156.75
X61.7Y-157.7
X61.7Y-158.5
X61.7Y-159.45
X61.7Y-160.25
X61.7Y-161.2
X61.7Y-162.0
X61.7Y-162.95
X61.7Y-163.75
X61.7Y-164.7
X62.85Y-19.5
X62.85Y-20.45
X62.85Y-21.25
X62.85Y-22.2
X62.85Y-23.0
X62.85Y-23.95
X62.85Y-24.75
X62.85Y-25.7
X62.85Y-26.5
X62.85Y-27.45
X62.85Y-28.25
X62.85Y-29.2
X62.85Y-30.0
X62.85Y-30.95
X62.85Y-31.75
X62.85Y-32.7
X62.85Y-33.5
X62.85Y-34.45
X62.85Y-35.25
X62.85Y-36.2
X62.85Y-37.0
X62.85Y-37.95
X62.85Y-38.75
X62.85Y-39.7
X62.85Y-40.5
X62.85Y-41.45
X62.85Y-42.25
X62.85Y-43.2
X62.85Y-44.0
X62.85Y-44.95
X62.85Y-45.75
X62.85Y-46.7
X62.85Y-47.5
X62.85Y-48.45
X62.85Y-49.25
X62.85Y-50.2
X62.85Y-51.0
X62.85Y-51.95
X62.85Y-52.75
X62.85Y-53.7
X62.85Y-54.5
X62.85Y-55.45
X62.85Y-56.25
X62.85Y-57.2
X62.85Y-58.0
X62.85Y-58.95
X62.85Y-59.75
X62.85Y-60.7
X62.85Y-61.5
X62.85Y-62.45
X62.85Y-63.25
X62.85Y-64.2
X62.85Y-65.0
X62.85Y-65.95
X62.85Y-66.75
X62.85Y-67.7
X62.85Y-68.5
X62.85Y-69.45
X62.85Y-70.25
X62.85Y-71.2
X62.85Y-72.0
X62.85Y-72.95
X62.85Y-73.75
X62.85Y-74.7
X62.85Y-109.5
X62.85Y-110.45
X62.85Y-111.25
X62.85Y-112.2
X62.85Y-113.0
X62.85Y-113.95
X62.85Y-114.75
X62.85Y-115.7
X62.85Y-116.5
X62.85Y-117.45
X62.85Y-118.25
X62.85Y-119.2
X62.85Y-120.0
X62.85Y-120.95
X62.85Y-121.75
X62.85Y-122.7
X62.85Y-123.5
X62.85Y-124.45
X62.85Y-125.25
X62.85Y-126.2
X62.85Y-127.0
X62.85Y-127.95
X62.85Y-128.75
X62.85Y-129.7
X62.85Y-130.5
X62.85Y-131.45
X62.85Y-132.25
X62.85Y-133.2
X62.85Y-134.0
X62.85Y-134.95
X62.85Y-135.75
X62.85Y-136.7
X62.85Y-137.5
X62.85Y-138.45
X62.85Y-139.25
X62.85Y-140.2
X62.85Y-141.0
X62.85Y-141.95
X62.85Y-142.75
X62.85Y-143.7
X62.85Y-144.5
X62.85Y-145.45
X62.85Y-146.25
X62.85Y-147.2
X62.85Y-148.0
X62.85Y-148.95
X62.85Y-149.75
X62.85Y-150.7
X62.85Y-151.5
X62.85Y-152.45
X62.85Y-153.25
X62.85Y-154.2
X62.85Y-155.0
X62.85Y-155.95
X62.85Y-156.75
X62.85Y-157.7
X62.85Y-158.5
X62.85Y-159.45
X62.85Y-160.25
X62.85Y-161.2
X62.85Y-162.0
X62.85Y-162.95
X62.85Y-163.75
X62.85Y-164.7
X63.45Y-19.5
X63.45Y-20.45
X63.45Y-21.25
X63.45Y-22.2
X63.45Y-23.0
X63.45Y-23.95
X63.45Y-24.75
X63.45Y-25.7
X63.45Y-26.5
X63.45Y-27.45
X63.45Y-28.25
X63.45Y-29.2
X63.45Y-30.0
X63.45Y-30.95
X63.45Y-31.75
X63.45Y-32.7
X63.45Y-33.5
X63.45Y-34.45
X63.45Y-35.25
X63.45Y-36.2
X63.45Y-37.0
X63.45Y-37.95
X63.45Y-38.75
X63.45Y-39.7
X63.45Y-40.5
X63.45Y-41.45
X63.45Y-42.25
X63.45Y-43.2
X63.45Y-44.0
X63.45Y-44.95
X63.45Y-45.75
X63.45Y-46.7
X63.45Y-47.5
X63.45Y-48.45
X63.45Y-49.25
X63.45Y-50.2
X63.45Y-51.0
X63.45Y-51.95
X63.45Y-52.75
X63.45Y-53.7
X63.45Y-54.5
X63.45Y-55.45
X63.45Y-56.25
X63.45Y-57.2
X63.45Y-58.0
X63.45Y-58.95
X63.45Y-59.75
X63.45Y-60.7
X63.45Y-61.5
X63.45Y-62.45
X63.45Y-63.25
X63.45Y-64.2
X63.45Y-65.0
X63.45Y-65.95
X63.45Y-66.75
X63.45Y-67.7
X63.45Y-68.5
X63.45Y-69.45
X63.45Y-70.25
X63.45Y-71.2
X63.45Y-72.0
X63.45Y-72.95
X63.45Y-73.75
X63.45Y-74.7
X63.45Y-109.5
X63.45Y-110.45
X63.45Y-111.25
X63.45Y-112.2
X63.45Y-113.0
X63.45Y-113.95
X63.45Y-114.75
X63.45Y-115.7
X63.45Y-116.5
X63.45Y-117.45
X63.45Y-118.25
X63.45Y-119.2
X63.45Y-120.0
X63.45Y-120.95
X63.45Y-121.75
X63.45Y-122.7
X63.45Y-123.5
X63.45Y-124.45
X63.45Y-125.25
X63.45Y-126.2
X63.45Y-127.0
X63.45Y-127.95
X63.45Y-128.75
X63.45Y-129.7
X63.45Y-130.5
X63.45Y-131.45
X63.45Y-132.25
X63.45Y-133.2
X63.45Y-134.0
X63.45Y-134.95
X63.45Y-135.75
X63.45Y-136.7
X63.45Y-137.5
X63.45Y-138.45
X63.45Y-139.25
X63.45Y-140.2
X63.45Y-141.0
X63.45Y-141.95
X63.45Y-142.75
X63.45Y-143.7
X63.45Y-144.5
X63.45Y-145.45
X63.45Y-146.25
X63.45Y-147.2
X63.45Y-148.0
X63.45Y-148.95
X63.45Y-149.75
X63.45Y-150.7
X63.45Y-151.5
X63.45Y-152.45
X63.45Y-153.25
X63.45Y-154.2
X63.45Y-155.0
X63.45Y-155.95
X63.45Y-156.75
X63.45Y-157.7
X63.45Y-158.5
X63.45Y-159.45
X63.45Y-160.25
X63.45Y-161.2
X63.45Y-162.0
X63.45Y-162.95
X63.45Y-163.75
X63.45Y-164.7
X64.377Y-21.45
X64.377Y-24.95
X64.377Y-28.3
X64.377Y-29.4
X64.377Y-33.95
X64.377Y-35.4
X64.377Y-38.775
X64.377Y-42.3
X64.377Y-49.25
X64.377Y-52.904
X64.377Y-111.45
X64.377Y-114.95
X64.377Y-118.3
X64.377Y-119.4
X64.377Y-123.95
X64.377Y-125.4
X64.377Y-128.775
X64.377Y-132.3
X64.377Y-139.25
X64.377Y-142.904
X64.391Y-32.109
X64.391Y-122.109
X64.4Y-22.55
X64.4Y-30.4
X64.4Y-33.0
X64.4Y-36.45
X64.4Y-43.25
X64.4Y-46.7
X64.4Y-51.25
X64.4Y-56.3
X64.4Y-73.8
X64.4Y-112.55
X64.4Y-120.4
X64.4Y-123.0
X64.4Y-126.45
X64.4Y-133.25
X64.4Y-136.7
X64.4Y-141.25
X64.4Y-146.3
X64.4Y-163.8
X64.45Y-20.0
X64.45Y-23.5
X64.45Y-26.9
X64.45Y-37.35
X64.45Y-40.8
X64.45Y-44.3
X64.45Y-45.8
X64.45Y-47.65
X64.45Y-50.3
X64.45Y-53.85
X64.45Y-54.75
X64.45Y-59.75
X64.45Y-60.68
X64.45Y-64.25
X64.45Y-66.65
X64.45Y-67.45
X64.45Y-68.55
X64.45Y-71.35
X64.45Y-110.0
X64.45Y-113.5
X64.45Y-116.9
X64.45Y-127.35
X64.45Y-130.8
X64.45Y-134.3
X64.45Y-135.8
X64.45Y-137.65
X64.45Y-140.3
X64.45Y-143.85
X64.45Y-144.75
X64.45Y-149.75
X64.45Y-150.68
X64.45Y-154.25
X64.45Y-156.65
X64.45Y-157.45
X64.45Y-158.55
X64.45Y-161.35
X64.486Y-61.65
X64.486Y-151.65
X64.5Y-25.93
X64.5Y-39.85
X64.5Y-57.4
X64.5Y-58.41
X64.5Y-63.25
X64.5Y-65.37
X64.5Y-70.01
X64.5Y-72.33
X64.5Y-74.65
X64.5Y-115.93
X64.5Y-129.85
X64.5Y-147.4
X64.5Y-148.41
X64.5Y-153.25
X64.5Y-155.37
X64.5Y-160.01
X64.5Y-162.33
X64.5Y-164.65
X66.54Y-20.64
X66.54Y-22.96
X66.54Y-25.28
X66.54Y-27.6
X66.54Y-29.92
X66.54Y-32.24
X66.54Y-34.56
X66.54Y-36.88
X66.54Y-39.2
X66.54Y-41.52
X66.54Y-43.84
X66.54Y-46.16
X66.54Y-48.48
X66.54Y-50.8
X66.54Y-53.12
X66.54Y-55.44
X66.54Y-57.76
X66.54Y-60.08
X66.54Y-62.4
X66.54Y-64.72
X66.54Y-67.04
X66.54Y-69.36
X66.54Y-71.68
X66.54Y-74.0
X66.54Y-110.64
X66.54Y-112.96
X66.54Y-115.28
X66.54Y-117.6
X66.54Y-119.92
X66.54Y-122.24
X66.54Y-124.56
X66.54Y-126.88
X66.54Y-129.2
X66.54Y-131.52
X66.54Y-133.84
X66.54Y-136.16
X66.54Y-138.48
X66.54Y-140.8
X66.54Y-143.12
X66.54Y-145.44
X66.54Y-147.76
X66.54Y-150.08
X66.54Y-152.4
X66.54Y-154.72
X66.54Y-157.04
X66.54Y-159.36
X66.54Y-161.68
X66.54Y-164.0
X66.55Y-19.64
X66.55Y-21.96
X66.55Y-24.28
X66.55Y-26.6
X66.55Y-28.92
X66.55Y-31.24
X66.55Y-33.56
X66.55Y-35.88
X66.55Y-38.2
X66.55Y-40.52
X66.55Y-42.84
X66.55Y-45.16
X66.55Y-47.48
X66.55Y-49.8
X66.55Y-52.12
X66.55Y-54.44
X66.55Y-56.76
X66.55Y-59.08
X66.55Y-61.4
X66.55Y-63.72
X66.55Y-66.04
X66.55Y-68.36
X66.55Y-70.68
X66.55Y-73.0
X66.55Y-109.64
X66.55Y-111.96
X66.55Y-114.28
X66.55Y-116.6
X66.55Y-118.92
X66.55Y-121.24
X66.55Y-123.56
X66.55Y-125.88
X66.55Y-128.2
X66.55Y-130.52
X66.55Y-132.84
X66.55Y-135.16
X66.55Y-137.48
X66.55Y-139.8
X66.55Y-142.12
X66.55Y-144.44
X66.55Y-146.76
X66.55Y-149.08
X66.55Y-151.4
X66.55Y-153.72
X66.55Y-156.04
X66.55Y-158.36
X66.55Y-160.68
X66.55Y-163.0
T2
X70.652Y-21.959
X70.652Y-26.599
X70.652Y-31.239
X70.652Y-35.879
X70.652Y-40.519
X70.652Y-45.159
X70.652Y-49.799
X70.652Y-54.439
X70.652Y-59.079
X70.652Y-63.719
X70.652Y-68.359
X70.652Y-72.999
X70.652Y-111.959
X70.652Y-116.599
X70.652Y-121.239
X70.652Y-125.879
X70.652Y-130.519
X70.652Y-135.159
X70.652Y-139.799
X70.652Y-144.439
X70.652Y-149.079
X70.652Y-153.719
X70.652Y-158.359
X70.652Y-162.999
X70.663Y-20.659
X70.663Y-21.324
X70.663Y-25.299
X70.663Y-25.964
X70.663Y-29.939
X70.663Y-30.604
X70.663Y-34.579
X70.663Y-35.244
X70.663Y-39.219
X70.663Y-39.884
X70.663Y-43.859
X70.663Y-44.524
X70.663Y-48.499
X70.663Y-49.164
X70.663Y-53.139
X70.663Y-53.804
X70.663Y-57.779
X70.663Y-58.444
X70.663Y-62.419
X70.663Y-63.084
X70.663Y-67.059
X70.663Y-67.724
X70.663Y-71.699
X70.663Y-72.364
X70.663Y-110.659
X70.663Y-111.324
X70.663Y-115.299
X70.663Y-115.964
X70.663Y-119.939
X70.663Y-120.604
X70.663Y-124.579
X70.663Y-125.244
X70.663Y-129.219
X70.663Y-129.884
X70.663Y-133.859
X70.663Y-134.524
X70.663Y-138.499
X70.663Y-139.164
X70.663Y-143.139
X70.663Y-143.804
X70.663Y-147.779
X70.663Y-148.444
X70.663Y-152.419
X70.663Y-153.084
X70.663Y-157.059
X70.663Y-157.724
X70.663Y-161.699
X70.663Y-162.364
X71.502Y-23.159
X71.502Y-27.799
X71.502Y-32.439
X71.502Y-37.079
X71.502Y-41.719
X71.502Y-46.359
X71.502Y-50.999
X71.502Y-55.639
X71.502Y-60.279
X71.502Y-64.919
X71.502Y-69.559
X71.502Y-74.199
X71.502Y-113.159
X71.502Y-117.799
X71.502Y-122.439
X71.502Y-127.079
X71.502Y-131.719
X71.502Y-136.359
X71.502Y-140.999
X71.502Y-145.639
X71.502Y-150.279
X71.502Y-154.919
X71.502Y-159.559
X71.502Y-164.199
X71.802Y-19.609
X71.802Y-24.249
X71.802Y-28.889
X71.802Y-33.529
X71.802Y-38.169
X71.802Y-42.809
X71.802Y-47.449
X71.802Y-52.089
X71.802Y-56.729
X71.802Y-61.369
X71.802Y-66.009
X71.802Y-70.649
X71.802Y-109.609
X71.802Y-114.249
X71.802Y-118.889
X71.802Y-123.529
X71.802Y-128.169
X71.802Y-132.809
X71.802Y-137.449
X71.802Y-142.089
X71.802Y-146.729
X71.802Y-151.369
X71.802Y-156.009
X71.802Y-160.649
X72.55Y-20.574
X72.55Y-25.214
X72.55Y-29.854
X72.55Y-34.494
X72.55Y-39.134
X72.55Y-43.774
X72.55Y-48.414
X72.55Y-53.054
X72.55Y-57.694
X72.55Y-62.334
X72.55Y-66.974
X72.55Y-71.614
X72.55Y-110.574
X72.55Y-115.214
X72.55Y-119.854
X72.55Y-124.494
X72.55Y-129.134
X72.55Y-133.774
X72.55Y-138.414
X72.55Y-143.054
X72.55Y-147.694
X72.55Y-152.334
X72.55Y-156.974
X72.55Y-161.614
X73.1Y-21.574
X73.1Y-26.214
X73.1Y-30.854
X73.1Y-35.494
X73.1Y-40.134
X73.1Y-44.774
X73.1Y-49.414
X73.1Y-54.054
X73.1Y-58.694
X73.1Y-63.334
X73.1Y-67.974
X73.1Y-72.614
X73.1Y-111.574
X73.1Y-116.214
X73.1Y-120.854
X73.1Y-125.494
X73.1Y-130.134
X73.1Y-134.774
X73.1Y-139.414
X73.1Y-144.054
X73.1Y-148.694
X73.1Y-153.334
X73.1Y-157.974
X73.1Y-162.614
X74.1Y-21.05
X74.1Y-25.69
X74.1Y-30.33
X74.1Y-34.97
X74.1Y-39.61
X74.1Y-44.25
X74.1Y-48.89
X74.1Y-53.53
X74.1Y-58.17
X74.1Y-62.81
X74.1Y-67.45
X74.1Y-72.09
X74.1Y-111.05
X74.1Y-115.69
X74.1Y-120.33
X74.1Y-124.97
X74.1Y-129.61
X74.1Y-134.25
X74.1Y-138.89
X74.1Y-143.53
X74.1Y-148.17
X74.1Y-152.81
X74.1Y-157.45
X74.1Y-162.09
X74.65Y-22.074
X74.65Y-26.714
X74.65Y-31.354
X74.65Y-35.994
X74.65Y-40.634
X74.65Y-45.274
X74.65Y-49.914
X74.65Y-54.554
X74.65Y-59.194
X74.65Y-63.834
X74.65Y-68.474
X74.65Y-73.114
X74.65Y-112.074
X74.65Y-116.714
X74.65Y-121.354
X74.65Y-125.994
X74.65Y-130.634
X74.65Y-135.274
X74.65Y-139.914
X74.65Y-144.554
X74.65Y-149.194
X74.65Y-153.834
X74.65Y-158.474
X74.65Y-163.114
X75.69Y-21.21
X75.69Y-24.71
X75.69Y-28.21
X75.69Y-31.71
X75.69Y-35.21
X75.69Y-38.71
X75.69Y-42.21
X75.69Y-45.71
X75.69Y-49.21
X75.69Y-52.71
X75.69Y-56.21
X75.69Y-59.71
X75.69Y-63.21
X75.69Y-66.71
X75.69Y-70.21
X75.69Y-73.71
X75.69Y-111.21
X75.69Y-114.71
X75.69Y-118.21
X75.69Y-121.71
X75.69Y-125.21
X75.69Y-128.71
X75.69Y-132.21
X75.69Y-135.71
X75.69Y-139.21
X75.69Y-142.71
X75.69Y-146.21
X75.69Y-149.71
X75.69Y-153.21
X75.69Y-156.71
X75.69Y-160.21
X75.69Y-163.71
X75.702Y-19.572
X75.702Y-23.072
X75.702Y-26.572
X75.702Y-30.072
X75.702Y-33.572
X75.702Y-37.072
X75.702Y-40.572
X75.702Y-44.072
X75.702Y-47.572
X75.702Y-51.072
X75.702Y-54.572
X75.702Y-58.072
X75.702Y-61.572
X75.702Y-65.072
X75.702Y-68.572
X75.702Y-72.072
X75.702Y-109.572
X75.702Y-113.072
X75.702Y-116.572
X75.702Y-120.072
X75.702Y-123.572
X75.702Y-127.072
X75.702Y-130.572
X75.702Y-134.072
X75.702Y-137.572
X75.702Y-141.072
X75.702Y-144.572
X75.702Y-148.072
X75.702Y-151.572
X75.702Y-155.072
X75.702Y-158.572
X75.702Y-162.072
X78.327Y-21.172
X78.327Y-24.672
X78.327Y-28.172
X78.327Y-31.672
X78.327Y-35.172
X78.327Y-38.672
X78.327Y-42.172
X78.327Y-45.672
X78.327Y-49.172
X78.327Y-52.672
X78.327Y-56.172
X78.327Y-59.672
X78.327Y-63.172
X78.327Y-66.672
X78.327Y-70.172
X78.327Y-73.672
X78.327Y-111.172
X78.327Y-114.672
X78.327Y-118.172
X78.327Y-121.672
X78.327Y-125.172
X78.327Y-128.672
X78.327Y-132.172
X78.327Y-135.672
X78.327Y-139.172
X78.327Y-142.672
X78.327Y-146.172
X78.327Y-149.672
X78.327Y-153.172
X78.327Y-156.672
X78.327Y-160.172
X78.327Y-163.672
X78.377Y-19.522
X78.377Y-23.022
X78.377Y-26.522
X78.377Y-30.022
X78.377Y-33.522
X78.377Y-37.022
X78.377Y-40.522
X78.377Y-44.022
X78.377Y-47.522
X78.377Y-51.022
X78.377Y-54.522
X78.377Y-58.022
X78.377Y-61.522
X78.377Y-65.022
X78.377Y-68.522
X78.377Y-72.022
X78.377Y-109.522
X78.377Y-113.022
X78.377Y-116.522
X78.377Y-120.022
X78.377Y-123.522
X78.377Y-127.022
X78.377Y-130.522
X78.377Y-134.022
X78.377Y-137.522
X78.377Y-141.022
X78.377Y-144.522
X78.377Y-148.022
X78.377Y-151.522
X78.377Y-155.022
X78.377Y-158.522
X78.377Y-162.022
X82.427Y-28.822
X82.427Y-42.822
X82.427Y-56.822
X82.427Y-70.822
X82.427Y-118.822
X82.427Y-132.822
X82.427Y-146.822
X82.427Y-160.822
X83.427Y-49.222
X83.427Y-139.222
X83.777Y-25.022
X83.777Y-39.022
X83.777Y-53.022
X83.777Y-67.022
X83.777Y-115.022
X83.777Y-129.022
X83.777Y-143.022
X83.777Y-157.022
X84.477Y-26.222
X84.477Y-40.222
X84.477Y-50.972
X84.477Y-54.222
X84.477Y-68.222
X84.477Y-116.222
X84.477Y-130.222
X84.477Y-140.972
X84.477Y-144.222
X84.477Y-158.222
X84.727Y-45.472
X84.727Y-135.472
X85.427Y-25.672
X85.427Y-39.672
X85.427Y-50.099
X85.427Y-53.672
X85.427Y-67.672
X85.427Y-115.672
X85.427Y-129.672
X85.427Y-140.099
X85.427Y-143.672
X85.427Y-157.672
X85.518Y-41.831
X85.518Y-131.831
X86.027Y-42.922
X86.027Y-132.922
X86.077Y-26.672
X86.077Y-40.672
X86.077Y-52.522
X86.077Y-54.672
X86.077Y-68.672
X86.077Y-116.672
X86.077Y-130.672
X86.077Y-142.522
X86.077Y-144.672
X86.077Y-158.672
X87.177Y-46.672
X87.177Y-136.672
X87.977Y-53.372
X87.977Y-143.372
X88.077Y-46.072
X88.077Y-136.072
X88.727Y-47.222
X88.727Y-137.222
X88.977Y-49.472
X88.977Y-139.472
X176.2Y-27.625
X176.2Y-117.625
X180.712Y-23.613
X180.712Y-113.613
T3
X81.577Y-25.872
X81.577Y-27.072
X81.577Y-39.872
X81.577Y-41.072
X81.577Y-53.872
X81.577Y-55.072
X81.577Y-67.872
X81.577Y-69.072
X81.577Y-115.872
X81.577Y-117.072
X81.577Y-129.872
X81.577Y-131.072
X81.577Y-143.872
X81.577Y-145.072
X81.577Y-157.872
X81.577Y-159.072
X82.577Y-46.322
X82.577Y-47.522
X82.577Y-136.322
X82.577Y-137.522
X82.777Y-25.872
X82.777Y-27.072
X82.777Y-39.872
X82.777Y-41.072
X82.777Y-53.872
X82.777Y-55.072
X82.777Y-67.872
X82.777Y-69.072
X82.777Y-115.872
X82.777Y-117.072
X82.777Y-129.872
X82.777Y-131.072
X82.777Y-143.872
X82.777Y-145.072
X82.777Y-157.872
X82.777Y-159.072
X83.777Y-46.322
X83.777Y-47.522
X83.777Y-136.322
X83.777Y-137.522
X88.615Y-51.322
X88.615Y-52.522
X88.615Y-141.322
X88.615Y-142.522
X89.815Y-51.322
X89.815Y-52.522
X89.815Y-141.322
X89.815Y-142.522
X109.45Y-37.79
X109.45Y-39.24
X109.45Y-40.69
X109.45Y-127.79
X109.45Y-129.24
X109.45Y-130.69
X110.9Y-37.79
X110.9Y-39.24
X110.9Y-40.69
X110.9Y-127.79
X110.9Y-129.24
X110.9Y-130.69
X112.35Y-37.79
X112.35Y-39.24
X112.35Y-40.69
X112.35Y-127.79
X112.35Y-129.24
X112.35Y-130.69
X113.48Y-24.205
X113.48Y-25.405
X113.48Y-114.205
X113.48Y-115.405
X114.68Y-24.205
X114.68Y-25.405
X114.68Y-114.205
X114.68Y-115.405
X156.369Y-38.281
X156.369Y-39.731
X156.369Y-41.181
X156.369Y-128.281
X156.369Y-129.731
X156.369Y-131.181
X157.819Y-38.281
X157.819Y-39.731
X157.819Y-41.181
X157.819Y-128.281
X157.819Y-129.731
X157.819Y-131.181
X159.269Y-38.281
X159.269Y-39.731
X159.269Y-41.181
X159.269Y-128.281
X159.269Y-129.731
X159.269Y-131.181
X178.875Y-79.075
X178.875Y-80.05
X178.875Y-81.025
X178.875Y-169.075
X178.875Y-170.05
X178.875Y-171.025
X179.85Y-79.075
X179.85Y-80.05
X179.85Y-81.025
X179.85Y-169.075
X179.85Y-170.05
X179.85Y-171.025
X180.825Y-79.075
X180.825Y-80.05
X180.825Y-81.025
X180.825Y-169.075
X180.825Y-170.05
X180.825Y-171.025
T4
X76.55Y-78.5
X76.55Y-83.325
X76.55Y-168.5
X76.55Y-173.325
X79.05Y-83.3
X79.05Y-173.3
X79.075Y-80.275
X79.075Y-170.275
X81.7Y-31.7
X81.7Y-121.7
X81.707Y-35.193
X81.707Y-125.193
X82.4Y-73.65
X82.4Y-163.65
X82.5Y-59.65
X82.5Y-63.2
X82.5Y-149.65
X82.5Y-153.2
X83.3Y-19.6
X83.3Y-109.6
X90.15Y-75.7
X90.15Y-165.7
X90.4Y-56.2
X90.4Y-65.2
X90.4Y-146.2
X90.4Y-155.2
X95.9Y-30.214
X95.9Y-120.214
X96.4Y-56.2
X96.4Y-65.2
X96.4Y-146.2
X96.4Y-155.2
X96.925Y-29.675
X96.925Y-119.675
X98.075Y-30.214
X98.075Y-120.214
X98.505Y-39.31
X98.505Y-129.31
X99.08Y-16.905
X99.08Y-106.905
X99.705Y-39.14
X99.705Y-129.14
X100.05Y-13.865
X100.05Y-103.865
X101.4Y-34.475
X101.4Y-124.475
X102.4Y-56.2
X102.4Y-65.2
X102.4Y-146.2
X102.4Y-155.2
X102.6Y-38.09
X102.6Y-128.09
X102.65Y-36.89
X102.65Y-126.89
X102.9Y-44.49
X102.9Y-134.49
X103.526Y-45.84
X103.526Y-135.84
X103.7Y-40.94
X103.7Y-130.94
X104.075Y-33.575
X104.075Y-123.575
X104.3Y-40.94
X104.3Y-130.94
X104.35Y-43.3
X104.35Y-133.3
X104.379Y-23.398
X104.379Y-113.398
X104.476Y-45.54
X104.476Y-135.54
X104.825Y-34.825
X104.825Y-124.825
X105.999Y-21.808
X105.999Y-111.808
X106.1Y-34.35
X106.1Y-124.35
X106.225Y-31.425
X106.225Y-121.425
X106.7Y-43.4
X106.7Y-133.4
X106.9Y-47.35
X106.9Y-137.35
X106.975Y-37.04
X106.975Y-41.84
X106.975Y-127.04
X106.975Y-131.84
X107.025Y-40.04
X107.025Y-130.04
X107.45Y-35.3
X107.45Y-125.3
X107.6Y-32.7
X107.6Y-122.7
X107.719Y-27.208
X107.719Y-117.208
X107.8Y-40.94
X107.8Y-130.94
X107.825Y-43.14
X107.825Y-133.14
X108.2Y-47.25
X108.2Y-137.25
X108.4Y-56.2
X108.4Y-65.2
X108.4Y-146.2
X108.4Y-155.2
X108.461Y-45.235
X108.461Y-135.235
X108.625Y-30.0
X108.625Y-120.0
X108.632Y-46.282
X108.632Y-136.282
X108.675Y-35.34
X108.675Y-125.34
X108.7Y-37.04
X108.7Y-38.44
X108.7Y-40.04
X108.7Y-41.44
X108.7Y-127.04
X108.7Y-128.44
X108.7Y-130.04
X108.7Y-131.44
X108.775Y-31.2
X108.775Y-121.2
X108.875Y-43.24
X108.875Y-133.24
X109.199Y-25.618
X109.199Y-115.618
X109.725Y-46.59
X109.725Y-136.59
X109.764Y-45.348
X109.764Y-135.348
X109.925Y-43.29
X109.925Y-133.29
X109.976Y-35.19
X109.976Y-125.19
X110.1Y-37.04
X110.1Y-41.44
X110.1Y-127.04
X110.1Y-131.44
X110.35Y-29.9
X110.35Y-119.9
X110.45Y-47.7
X110.45Y-137.7
X110.65Y-31.275
X110.65Y-121.275
X110.91Y-48.85
X110.91Y-138.85
X111.475Y-43.19
X111.475Y-47.2
X111.475Y-133.19
X111.475Y-137.2
X111.575Y-35.3
X111.575Y-125.3
X111.7Y-37.04
X111.7Y-41.44
X111.7Y-127.04
X111.7Y-131.44
X111.875Y-30.225
X111.875Y-120.225
X111.925Y-33.075
X111.925Y-123.075
X112.525Y-43.19
X112.525Y-133.19
X112.625Y-46.74
X112.625Y-136.74
X112.725Y-35.34
X112.725Y-125.34
X112.976Y-31.39
X112.976Y-121.39
X113.1Y-37.04
X113.1Y-38.44
X113.1Y-40.04
X113.1Y-41.44
X113.1Y-127.04
X113.1Y-128.44
X113.1Y-130.04
X113.1Y-131.44
X113.21Y-50.1
X113.21Y-140.1
X113.475Y-45.79
X113.475Y-135.79
X113.625Y-43.14
X113.625Y-133.14
X113.9Y-47.05
X113.9Y-137.05
X114.349Y-45.051
X114.349Y-135.051
X114.4Y-56.2
X114.4Y-65.2
X114.4Y-146.2
X114.4Y-155.2
X114.625Y-46.24
X114.625Y-136.24
X114.725Y-43.09
X114.725Y-133.09
X114.825Y-36.59
X114.825Y-38.64
X114.825Y-126.59
X114.825Y-128.64
X114.83Y-41.59
X114.83Y-131.59
X115.425Y-47.19
X115.425Y-137.19
X116.45Y-25.55
X116.45Y-115.55
X116.74Y-22.77
X116.74Y-112.77
X117.176Y-34.29
X117.176Y-124.29
X117.905Y-40.69
X117.905Y-130.69
X118.476Y-41.59
X118.476Y-131.59
X118.85Y-25.55
X118.85Y-115.55
X119.75Y-41.49
X119.75Y-131.49
X119.775Y-37.39
X119.775Y-127.39
X120.4Y-56.2
X120.4Y-65.2
X120.4Y-146.2
X120.4Y-155.2
X121.64Y-10.91
X121.64Y-100.91
X122.61Y-38.14
X122.61Y-128.14
X124.09Y-36.55
X124.09Y-126.55
X125.81Y-41.95
X125.81Y-131.95
X126.4Y-56.2
X126.4Y-65.2
X126.4Y-146.2
X126.4Y-155.2
X127.43Y-40.36
X127.43Y-130.36
X130.4Y-18.7
X130.4Y-108.7
X132.4Y-56.2
X132.4Y-65.2
X132.4Y-146.2
X132.4Y-155.2
X136.78Y-7.82
X136.78Y-97.82
X138.3Y-56.2
X138.3Y-65.2
X138.3Y-146.2
X138.3Y-155.2
X141.289Y-38.611
X141.289Y-128.611
X142.909Y-37.021
X142.909Y-127.021
X142.925Y-9.625
X142.925Y-99.625
X144.629Y-42.421
X144.629Y-132.421
X146.109Y-40.831
X146.109Y-130.831
X148.37Y-51.97
X148.37Y-141.97
X148.944Y-41.581
X148.944Y-131.581
X148.969Y-37.481
X148.969Y-127.481
X149.488Y-33.275
X149.488Y-123.275
X150.619Y-34.681
X150.619Y-124.681
X150.65Y-37.45
X150.65Y-127.45
X151.619Y-44.581
X151.619Y-134.581
X151.719Y-37.681
X151.719Y-127.681
X152.019Y-33.281
X152.019Y-123.281
X153.894Y-40.331
X153.894Y-42.381
X153.894Y-130.331
X153.894Y-132.381
X153.919Y-37.881
X153.919Y-127.881
X153.994Y-35.881
X153.994Y-125.881
X154.31Y-51.86
X154.31Y-141.86
X155.119Y-35.681
X155.119Y-125.681
X155.619Y-37.531
X155.619Y-38.931
X155.619Y-40.531
X155.619Y-41.931
X155.619Y-127.531
X155.619Y-128.931
X155.619Y-130.531
X155.619Y-131.931
X155.742Y-47.581
X155.742Y-137.581
X155.994Y-43.631
X155.994Y-133.631
X156.375Y-33.075
X156.375Y-123.075
X157.019Y-37.531
X157.019Y-41.931
X157.019Y-127.531
X157.019Y-131.931
X157.244Y-31.761
X157.244Y-35.781
X157.244Y-121.761
X157.244Y-125.781
X158.125Y-47.85
X158.125Y-137.85
X158.244Y-31.35
X158.244Y-121.35
X158.55Y-35.75
X158.55Y-125.75
X158.619Y-37.531
X158.619Y-41.931
X158.619Y-127.531
X158.619Y-131.931
X158.9Y-33.0
X158.9Y-123.0
X159.148Y-31.95
X159.148Y-121.95
X159.65Y-35.78
X159.65Y-125.78
X160.019Y-37.531
X160.019Y-38.931
X160.019Y-40.531
X160.019Y-41.931
X160.019Y-127.531
X160.019Y-128.931
X160.019Y-130.531
X160.019Y-131.931
X160.025Y-47.875
X160.025Y-137.875
X160.044Y-43.631
X160.044Y-133.631
X160.24Y-52.08
X160.24Y-142.08
X160.68Y-33.81
X160.68Y-123.81
X160.8Y-35.85
X160.8Y-125.85
X160.919Y-38.031
X160.919Y-128.031
X161.344Y-31.631
X161.344Y-121.631
X161.694Y-38.931
X161.694Y-128.931
X161.744Y-37.131
X161.744Y-41.931
X161.744Y-127.131
X161.744Y-131.931
X161.95Y-35.72
X161.95Y-125.72
X163.225Y-75.7
X163.225Y-165.7
X163.68Y-41.43
X163.68Y-131.43
X164.269Y-33.131
X164.269Y-123.131
X164.35Y-35.7
X164.35Y-125.7
X164.419Y-38.031
X164.419Y-128.031
X165.019Y-38.031
X165.019Y-128.031
X165.369Y-32.881
X165.369Y-122.881
X166.069Y-42.081
X166.069Y-132.081
X166.119Y-40.881
X166.119Y-130.881
X166.325Y-38.831
X166.325Y-128.831
X167.95Y-39.831
X167.95Y-129.831
X169.089Y-42.888
X169.089Y-132.888
X169.1Y-81.7
X169.1Y-171.7
X170.1Y-83.05
X170.1Y-173.05
X170.175Y-80.075
X170.175Y-170.075
X170.709Y-41.298
X170.709Y-131.298
X170.9Y-70.0
X170.9Y-160.0
X170.925Y-75.675
X170.925Y-165.675
X171.025Y-67.525
X171.025Y-157.525
X171.35Y-68.8
X171.35Y-158.8
X171.675Y-81.787
X171.675Y-83.025
X171.675Y-84.975
X171.675Y-171.787
X171.675Y-173.025
X171.675Y-174.975
X171.85Y-72.3
X171.85Y-74.9
X171.85Y-162.3
X171.85Y-164.9
X172.429Y-46.698
X172.429Y-136.698
X172.6Y-80.071
X172.6Y-170.071
X172.81Y-73.12
X172.81Y-163.12
X172.9Y-70.502
X172.9Y-160.502
X173.188Y-77.2
X173.188Y-167.2
X173.909Y-45.108
X173.909Y-135.108
X174.725Y-84.55
X174.725Y-174.55
X174.762Y-80.612
X174.762Y-170.612
X175.737Y-77.05
X175.737Y-167.05
X175.775Y-81.9
X175.775Y-171.9
X175.975Y-75.3
X175.975Y-165.3
X175.98Y-70.72
X175.98Y-160.72
X176.0Y-71.8
X176.0Y-161.8
X176.05Y-79.8
X176.05Y-169.8
X176.19Y-64.45
X176.19Y-154.45
X176.3Y-83.95
X176.3Y-173.95
X176.85Y-39.85
X176.85Y-78.95
X176.85Y-129.85
X176.85Y-168.95
X176.9Y-45.55
X176.9Y-135.55
X177.0Y-42.1
X177.0Y-132.1
X177.4Y-39.15
X177.4Y-129.15
X177.425Y-40.575
X177.425Y-130.575
X177.7Y-38.3
X177.7Y-128.3
X177.85Y-78.1
X177.85Y-168.1
X177.992Y-47.125
X177.992Y-137.125
X178.05Y-37.4
X178.05Y-48.25
X178.05Y-127.4
X178.05Y-138.25
X178.1Y-32.5
X178.1Y-122.5
X178.137Y-85.25
X178.137Y-175.25
X178.15Y-31.7
X178.15Y-33.3
X178.15Y-34.15
X178.15Y-35.05
X178.15Y-36.3
X178.15Y-121.7
X178.15Y-123.3
X178.15Y-124.15
X178.15Y-125.05
X178.15Y-126.3
X178.45Y-38.15
X178.45Y-128.15
X178.5Y-29.4
X178.5Y-119.4
X178.65Y-41.65
X178.65Y-131.65
X178.707Y-82.797
X178.707Y-172.797
X178.8Y-36.95
X178.8Y-126.95
X178.9Y-34.45
X178.9Y-35.65
X178.9Y-124.45
X178.9Y-125.65
X179.05Y-30.05
X179.05Y-30.85
X179.05Y-31.65
X179.05Y-120.05
X179.05Y-120.85
X179.05Y-121.65
X179.137Y-85.25
X179.137Y-175.25
X179.275Y-46.3
X179.275Y-48.85
X179.275Y-136.3
X179.275Y-138.85
X179.6Y-41.15
X179.6Y-131.15
X179.85Y-50.85
X179.85Y-140.85
X180.088Y-75.125
X180.088Y-165.125
X180.175Y-85.23
X180.175Y-175.23
X180.538Y-40.612
X180.538Y-130.612
X180.787Y-76.525
X180.787Y-166.525
X181.058Y-32.9
X181.058Y-122.9
X181.068Y-37.499
X181.068Y-127.499
X181.136Y-30.3
X181.136Y-120.3
X181.188Y-85.2
X181.188Y-175.2
X181.3Y-36.0
X181.3Y-36.8
X181.3Y-126.0
X181.3Y-126.8
X181.35Y-35.15
X181.35Y-125.15
X181.4Y-34.4
X181.4Y-124.4
X181.55Y-38.1
X181.55Y-128.1
X181.75Y-82.656
X181.75Y-172.656
X182.05Y-38.55
X182.05Y-128.55
X182.15Y-34.4
X182.15Y-124.4
X182.25Y-32.75
X182.25Y-122.75
X182.5Y-37.7
X182.5Y-127.7
X182.55Y-36.55
X182.55Y-126.55
X182.6Y-35.5
X182.6Y-39.0
X182.6Y-125.5
X182.6Y-129.0
X182.7Y-81.661
X182.7Y-171.661
X182.725Y-40.4
X182.725Y-130.4
X182.9Y-34.45
X182.9Y-124.45
X182.952Y-32.75
X182.952Y-122.75
X183.1Y-38.5
X183.1Y-128.5
X183.287Y-82.7
X183.287Y-172.7
X183.6Y-38.0
X183.6Y-128.0
X183.65Y-34.5
X183.65Y-124.5
X183.7Y-35.2
X183.7Y-35.95
X183.7Y-125.2
X183.7Y-125.95
X183.75Y-36.7
X183.75Y-126.7
X183.85Y-80.7
X183.85Y-170.7
X183.961Y-30.325
X183.961Y-120.325
X184.05Y-37.35
X184.05Y-81.9
X184.05Y-127.35
X184.05Y-171.9
X184.09Y-32.9
X184.09Y-122.9
X184.292Y-49.3
X184.292Y-139.3
X184.45Y-41.475
X184.45Y-131.475
X185.267Y-48.225
X185.267Y-138.225
X185.4Y-43.65
X185.4Y-133.65
X185.608Y-45.642
X185.608Y-135.642
X185.62Y-34.227
X185.62Y-124.227
X185.667Y-44.673
X185.667Y-134.673
X185.75Y-82.55
X185.75Y-172.55
X185.975Y-39.375
X185.975Y-129.375
X186.0Y-29.3
X186.0Y-30.1
X186.0Y-30.9
X186.0Y-79.96
X186.0Y-119.3
X186.0Y-120.1
X186.0Y-120.9
X186.0Y-169.96
X186.002Y-77.998
X186.002Y-167.998
X186.05Y-31.8
X186.05Y-121.8
X186.207Y-45.122
X186.207Y-135.122
X186.272Y-41.472
X186.272Y-131.472
X186.3Y-36.0
X186.3Y-44.1
X186.3Y-126.0
X186.3Y-134.1
X186.4Y-37.1
X186.4Y-127.1
X186.524Y-45.748
X186.524Y-135.748
X186.55Y-34.178
X186.55Y-124.178
X186.625Y-40.075
X186.625Y-130.075
X186.8Y-32.15
X186.8Y-122.15
X186.85Y-32.973
X186.85Y-43.65
X186.85Y-122.973
X186.85Y-133.65
X187.162Y-45.112
X187.162Y-135.112
X187.35Y-34.178
X187.35Y-124.178
X187.4Y-43.15
X187.4Y-133.15
X187.55Y-32.973
X187.55Y-122.973
X187.687Y-44.587
X187.687Y-134.587
X187.7Y-84.41
X187.7Y-174.41
X187.9Y-42.65
X187.9Y-132.65
X188.075Y-80.95
X188.075Y-170.95
X188.212Y-44.062
X188.212Y-134.062
X188.272Y-34.24
X188.272Y-35.0
X188.272Y-35.8
X188.272Y-36.6
X188.272Y-37.35
X188.272Y-38.15
X188.272Y-38.9
X188.272Y-39.65
X188.272Y-40.4
X188.272Y-41.185
X188.272Y-41.95
X188.272Y-124.24
X188.272Y-125.0
X188.272Y-125.8
X188.272Y-126.6
X188.272Y-127.35
X188.272Y-128.15
X188.272Y-128.9
X188.272Y-129.65
X188.272Y-130.4
X188.272Y-131.185
X188.272Y-131.95
X188.337Y-32.973
X188.337Y-122.973
X188.762Y-43.512
X188.762Y-133.512
X189.062Y-33.288
X189.062Y-123.288
X189.388Y-42.877
X189.388Y-132.877
X189.477Y-34.113
X189.477Y-35.0
X189.477Y-35.8
X189.477Y-36.6
X189.477Y-37.35
X189.477Y-38.15
X189.477Y-38.9
X189.477Y-39.65
X189.477Y-40.4
X189.477Y-41.2
X189.477Y-41.95
X189.477Y-124.113
X189.477Y-125.0
X189.477Y-125.8
X189.477Y-126.6
X189.477Y-127.35
X189.477Y-128.15
X189.477Y-128.9
X189.477Y-129.65
X189.477Y-130.4
X189.477Y-131.2
X189.477Y-131.95
X190.37Y-81.5
X190.37Y-171.5
T5
X97.72Y-9.68
X97.72Y-11.68
X97.72Y-99.68
X97.72Y-101.68
X101.72Y-9.68
X101.72Y-11.68
X101.72Y-99.68
X101.72Y-101.68
X180.518Y-42.448
X180.518Y-43.898
X180.518Y-45.348
X180.518Y-132.448
X180.518Y-133.898
X180.518Y-135.348
X181.968Y-42.448
X181.968Y-43.898
X181.968Y-45.348
X181.968Y-132.448
X181.968Y-133.898
X181.968Y-135.348
X183.418Y-42.448
X183.418Y-43.898
X183.418Y-45.348
X183.418Y-132.448
X183.418Y-133.898
X183.418Y-135.348
X192.72Y-79.205
X192.72Y-83.205
X192.72Y-169.205
X192.72Y-173.205
X194.72Y-79.205
X194.72Y-83.205
X194.72Y-169.205
X194.72Y-173.205
T7
X107.36Y-9.05
X107.36Y-99.05
X109.9Y-9.05
X109.9Y-99.05
X112.44Y-9.05
X112.44Y-99.05
X132.16Y-39.45
X132.16Y-129.45
X134.7Y-39.45
X134.7Y-129.45
X137.24Y-39.45
X137.24Y-129.45
X157.47Y-22.875
X157.47Y-25.415
X157.47Y-112.875
X157.47Y-115.415
X160.01Y-22.875
X160.01Y-25.415
X160.01Y-112.875
X160.01Y-115.415
X162.55Y-22.875
X162.55Y-25.415
X162.55Y-112.875
X162.55Y-115.415
T6
X95.39Y-9.9G85X95.39Y-10.7
G05
X95.39Y-13.95G85X95.39Y-15.05
G05
X95.39Y-99.9G85X95.39Y-100.7
G05
X95.39Y-103.95G85X95.39Y-105.05
G05
X104.05Y-9.9G85X104.05Y-10.7
G05
X104.05Y-13.95G85X104.05Y-15.05
G05
X104.05Y-99.9G85X104.05Y-100.7
G05
X104.05Y-103.95G85X104.05Y-105.05
G05
X190.45Y-76.875G85X189.35Y-76.875
G05
X190.45Y-85.535G85X189.35Y-85.535
G05
X190.45Y-166.875G85X189.35Y-166.875
G05
X190.45Y-175.535G85X189.35Y-175.535
G05
X194.5Y-76.875G85X193.7Y-76.875
G05
X194.5Y-85.535G85X193.7Y-85.535
G05
X194.5Y-166.875G85X193.7Y-166.875
G05
X194.5Y-175.535G85X193.7Y-175.535
G05
M30
