%TF.GenerationSoftware,KiCad,Pcbnew,10.0.1-1.fc44*%
%TF.CreationDate,2026-05-05T13:30:07+02:00*%
%TF.ProjectId,poc-one,706f632d-6f6e-4652-9e6b-696361645f70,rev?*%
%TF.SameCoordinates,Original*%
%TF.FileFunction,Drillmap*%
%TF.FilePolarity,Positive*%
%FSLAX45Y45*%
G04 Gerber Fmt 4.5, Leading zero omitted, Abs format (unit mm)*
G04 Created by KiCad (PCBNEW 10.0.1-1.fc44) date 2026-05-05 13:30:07*
%MOMM*%
%LPD*%
G01*
G04 APERTURE LIST*
%ADD10C,0.050000*%
%ADD11C,0.200000*%
%ADD12C,0.100000*%
G04 APERTURE END LIST*
D10*
X6685000Y-10765000D02*
X16235000Y-10765000D01*
X16235000Y-21565000D01*
X6685000Y-21565000D01*
X6685000Y-10765000D01*
D11*
D12*
X10707000Y-11365000D02*
X10767000Y-11425000D01*
X10767000Y-11365000D02*
X10707000Y-11425000D01*
X11285000Y-11365000D02*
X11345000Y-11425000D01*
X11345000Y-11365000D02*
X11285000Y-11425000D01*
D11*
X6943277Y-21878984D02*
X6943277Y-21678984D01*
X6943277Y-21678984D02*
X6990896Y-21678984D01*
X6990896Y-21678984D02*
X7019467Y-21688508D01*
X7019467Y-21688508D02*
X7038515Y-21707555D01*
X7038515Y-21707555D02*
X7048039Y-21726603D01*
X7048039Y-21726603D02*
X7057562Y-21764698D01*
X7057562Y-21764698D02*
X7057562Y-21793270D01*
X7057562Y-21793270D02*
X7048039Y-21831365D01*
X7048039Y-21831365D02*
X7038515Y-21850412D01*
X7038515Y-21850412D02*
X7019467Y-21869460D01*
X7019467Y-21869460D02*
X6990896Y-21878984D01*
X6990896Y-21878984D02*
X6943277Y-21878984D01*
X7143277Y-21878984D02*
X7143277Y-21745650D01*
X7143277Y-21783746D02*
X7152801Y-21764698D01*
X7152801Y-21764698D02*
X7162324Y-21755174D01*
X7162324Y-21755174D02*
X7181372Y-21745650D01*
X7181372Y-21745650D02*
X7200420Y-21745650D01*
X7267086Y-21878984D02*
X7267086Y-21745650D01*
X7267086Y-21678984D02*
X7257562Y-21688508D01*
X7257562Y-21688508D02*
X7267086Y-21698031D01*
X7267086Y-21698031D02*
X7276610Y-21688508D01*
X7276610Y-21688508D02*
X7267086Y-21678984D01*
X7267086Y-21678984D02*
X7267086Y-21698031D01*
X7390896Y-21878984D02*
X7371848Y-21869460D01*
X7371848Y-21869460D02*
X7362324Y-21850412D01*
X7362324Y-21850412D02*
X7362324Y-21678984D01*
X7495658Y-21878984D02*
X7476610Y-21869460D01*
X7476610Y-21869460D02*
X7467086Y-21850412D01*
X7467086Y-21850412D02*
X7467086Y-21678984D01*
X7724229Y-21878984D02*
X7724229Y-21678984D01*
X7724229Y-21678984D02*
X7790896Y-21821841D01*
X7790896Y-21821841D02*
X7857562Y-21678984D01*
X7857562Y-21678984D02*
X7857562Y-21878984D01*
X8038515Y-21878984D02*
X8038515Y-21774222D01*
X8038515Y-21774222D02*
X8028991Y-21755174D01*
X8028991Y-21755174D02*
X8009943Y-21745650D01*
X8009943Y-21745650D02*
X7971848Y-21745650D01*
X7971848Y-21745650D02*
X7952801Y-21755174D01*
X8038515Y-21869460D02*
X8019467Y-21878984D01*
X8019467Y-21878984D02*
X7971848Y-21878984D01*
X7971848Y-21878984D02*
X7952801Y-21869460D01*
X7952801Y-21869460D02*
X7943277Y-21850412D01*
X7943277Y-21850412D02*
X7943277Y-21831365D01*
X7943277Y-21831365D02*
X7952801Y-21812317D01*
X7952801Y-21812317D02*
X7971848Y-21802793D01*
X7971848Y-21802793D02*
X8019467Y-21802793D01*
X8019467Y-21802793D02*
X8038515Y-21793270D01*
X8133753Y-21745650D02*
X8133753Y-21945650D01*
X8133753Y-21755174D02*
X8152801Y-21745650D01*
X8152801Y-21745650D02*
X8190896Y-21745650D01*
X8190896Y-21745650D02*
X8209943Y-21755174D01*
X8209943Y-21755174D02*
X8219467Y-21764698D01*
X8219467Y-21764698D02*
X8228991Y-21783746D01*
X8228991Y-21783746D02*
X8228991Y-21840889D01*
X8228991Y-21840889D02*
X8219467Y-21859936D01*
X8219467Y-21859936D02*
X8209943Y-21869460D01*
X8209943Y-21869460D02*
X8190896Y-21878984D01*
X8190896Y-21878984D02*
X8152801Y-21878984D01*
X8152801Y-21878984D02*
X8133753Y-21869460D01*
X8314705Y-21859936D02*
X8324229Y-21869460D01*
X8324229Y-21869460D02*
X8314705Y-21878984D01*
X8314705Y-21878984D02*
X8305182Y-21869460D01*
X8305182Y-21869460D02*
X8314705Y-21859936D01*
X8314705Y-21859936D02*
X8314705Y-21878984D01*
X8314705Y-21755174D02*
X8324229Y-21764698D01*
X8324229Y-21764698D02*
X8314705Y-21774222D01*
X8314705Y-21774222D02*
X8305182Y-21764698D01*
X8305182Y-21764698D02*
X8314705Y-21755174D01*
X8314705Y-21755174D02*
X8314705Y-21774222D01*
D12*
X6622500Y-22177500D02*
X6682500Y-22237500D01*
X6682500Y-22177500D02*
X6622500Y-22237500D01*
D11*
X6981372Y-22098984D02*
X7000420Y-22098984D01*
X7000420Y-22098984D02*
X7019467Y-22108508D01*
X7019467Y-22108508D02*
X7028991Y-22118031D01*
X7028991Y-22118031D02*
X7038515Y-22137079D01*
X7038515Y-22137079D02*
X7048039Y-22175174D01*
X7048039Y-22175174D02*
X7048039Y-22222793D01*
X7048039Y-22222793D02*
X7038515Y-22260889D01*
X7038515Y-22260889D02*
X7028991Y-22279936D01*
X7028991Y-22279936D02*
X7019467Y-22289460D01*
X7019467Y-22289460D02*
X7000420Y-22298984D01*
X7000420Y-22298984D02*
X6981372Y-22298984D01*
X6981372Y-22298984D02*
X6962324Y-22289460D01*
X6962324Y-22289460D02*
X6952801Y-22279936D01*
X6952801Y-22279936D02*
X6943277Y-22260889D01*
X6943277Y-22260889D02*
X6933753Y-22222793D01*
X6933753Y-22222793D02*
X6933753Y-22175174D01*
X6933753Y-22175174D02*
X6943277Y-22137079D01*
X6943277Y-22137079D02*
X6952801Y-22118031D01*
X6952801Y-22118031D02*
X6962324Y-22108508D01*
X6962324Y-22108508D02*
X6981372Y-22098984D01*
X7143277Y-22289460D02*
X7143277Y-22298984D01*
X7143277Y-22298984D02*
X7133753Y-22318031D01*
X7133753Y-22318031D02*
X7124229Y-22327555D01*
X7314705Y-22098984D02*
X7276610Y-22098984D01*
X7276610Y-22098984D02*
X7257562Y-22108508D01*
X7257562Y-22108508D02*
X7248039Y-22118031D01*
X7248039Y-22118031D02*
X7228991Y-22146603D01*
X7228991Y-22146603D02*
X7219467Y-22184698D01*
X7219467Y-22184698D02*
X7219467Y-22260889D01*
X7219467Y-22260889D02*
X7228991Y-22279936D01*
X7228991Y-22279936D02*
X7238515Y-22289460D01*
X7238515Y-22289460D02*
X7257562Y-22298984D01*
X7257562Y-22298984D02*
X7295658Y-22298984D01*
X7295658Y-22298984D02*
X7314705Y-22289460D01*
X7314705Y-22289460D02*
X7324229Y-22279936D01*
X7324229Y-22279936D02*
X7333753Y-22260889D01*
X7333753Y-22260889D02*
X7333753Y-22213270D01*
X7333753Y-22213270D02*
X7324229Y-22194222D01*
X7324229Y-22194222D02*
X7314705Y-22184698D01*
X7314705Y-22184698D02*
X7295658Y-22175174D01*
X7295658Y-22175174D02*
X7257562Y-22175174D01*
X7257562Y-22175174D02*
X7238515Y-22184698D01*
X7238515Y-22184698D02*
X7228991Y-22194222D01*
X7228991Y-22194222D02*
X7219467Y-22213270D01*
X7457562Y-22098984D02*
X7476610Y-22098984D01*
X7476610Y-22098984D02*
X7495658Y-22108508D01*
X7495658Y-22108508D02*
X7505182Y-22118031D01*
X7505182Y-22118031D02*
X7514705Y-22137079D01*
X7514705Y-22137079D02*
X7524229Y-22175174D01*
X7524229Y-22175174D02*
X7524229Y-22222793D01*
X7524229Y-22222793D02*
X7514705Y-22260889D01*
X7514705Y-22260889D02*
X7505182Y-22279936D01*
X7505182Y-22279936D02*
X7495658Y-22289460D01*
X7495658Y-22289460D02*
X7476610Y-22298984D01*
X7476610Y-22298984D02*
X7457562Y-22298984D01*
X7457562Y-22298984D02*
X7438515Y-22289460D01*
X7438515Y-22289460D02*
X7428991Y-22279936D01*
X7428991Y-22279936D02*
X7419467Y-22260889D01*
X7419467Y-22260889D02*
X7409943Y-22222793D01*
X7409943Y-22222793D02*
X7409943Y-22175174D01*
X7409943Y-22175174D02*
X7419467Y-22137079D01*
X7419467Y-22137079D02*
X7428991Y-22118031D01*
X7428991Y-22118031D02*
X7438515Y-22108508D01*
X7438515Y-22108508D02*
X7457562Y-22098984D01*
X7648039Y-22098984D02*
X7667086Y-22098984D01*
X7667086Y-22098984D02*
X7686134Y-22108508D01*
X7686134Y-22108508D02*
X7695658Y-22118031D01*
X7695658Y-22118031D02*
X7705182Y-22137079D01*
X7705182Y-22137079D02*
X7714705Y-22175174D01*
X7714705Y-22175174D02*
X7714705Y-22222793D01*
X7714705Y-22222793D02*
X7705182Y-22260889D01*
X7705182Y-22260889D02*
X7695658Y-22279936D01*
X7695658Y-22279936D02*
X7686134Y-22289460D01*
X7686134Y-22289460D02*
X7667086Y-22298984D01*
X7667086Y-22298984D02*
X7648039Y-22298984D01*
X7648039Y-22298984D02*
X7628991Y-22289460D01*
X7628991Y-22289460D02*
X7619467Y-22279936D01*
X7619467Y-22279936D02*
X7609943Y-22260889D01*
X7609943Y-22260889D02*
X7600420Y-22222793D01*
X7600420Y-22222793D02*
X7600420Y-22175174D01*
X7600420Y-22175174D02*
X7609943Y-22137079D01*
X7609943Y-22137079D02*
X7619467Y-22118031D01*
X7619467Y-22118031D02*
X7628991Y-22108508D01*
X7628991Y-22108508D02*
X7648039Y-22098984D01*
X7800420Y-22298984D02*
X7800420Y-22165650D01*
X7800420Y-22184698D02*
X7809943Y-22175174D01*
X7809943Y-22175174D02*
X7828991Y-22165650D01*
X7828991Y-22165650D02*
X7857563Y-22165650D01*
X7857563Y-22165650D02*
X7876610Y-22175174D01*
X7876610Y-22175174D02*
X7886134Y-22194222D01*
X7886134Y-22194222D02*
X7886134Y-22298984D01*
X7886134Y-22194222D02*
X7895658Y-22175174D01*
X7895658Y-22175174D02*
X7914705Y-22165650D01*
X7914705Y-22165650D02*
X7943277Y-22165650D01*
X7943277Y-22165650D02*
X7962324Y-22175174D01*
X7962324Y-22175174D02*
X7971848Y-22194222D01*
X7971848Y-22194222D02*
X7971848Y-22298984D01*
X8067086Y-22298984D02*
X8067086Y-22165650D01*
X8067086Y-22184698D02*
X8076610Y-22175174D01*
X8076610Y-22175174D02*
X8095658Y-22165650D01*
X8095658Y-22165650D02*
X8124229Y-22165650D01*
X8124229Y-22165650D02*
X8143277Y-22175174D01*
X8143277Y-22175174D02*
X8152801Y-22194222D01*
X8152801Y-22194222D02*
X8152801Y-22298984D01*
X8152801Y-22194222D02*
X8162324Y-22175174D01*
X8162324Y-22175174D02*
X8181372Y-22165650D01*
X8181372Y-22165650D02*
X8209943Y-22165650D01*
X8209943Y-22165650D02*
X8228991Y-22175174D01*
X8228991Y-22175174D02*
X8238515Y-22194222D01*
X8238515Y-22194222D02*
X8238515Y-22298984D01*
X8628991Y-22089460D02*
X8457563Y-22346603D01*
X8886134Y-22098984D02*
X8905182Y-22098984D01*
X8905182Y-22098984D02*
X8924229Y-22108508D01*
X8924229Y-22108508D02*
X8933753Y-22118031D01*
X8933753Y-22118031D02*
X8943277Y-22137079D01*
X8943277Y-22137079D02*
X8952801Y-22175174D01*
X8952801Y-22175174D02*
X8952801Y-22222793D01*
X8952801Y-22222793D02*
X8943277Y-22260889D01*
X8943277Y-22260889D02*
X8933753Y-22279936D01*
X8933753Y-22279936D02*
X8924229Y-22289460D01*
X8924229Y-22289460D02*
X8905182Y-22298984D01*
X8905182Y-22298984D02*
X8886134Y-22298984D01*
X8886134Y-22298984D02*
X8867087Y-22289460D01*
X8867087Y-22289460D02*
X8857563Y-22279936D01*
X8857563Y-22279936D02*
X8848039Y-22260889D01*
X8848039Y-22260889D02*
X8838515Y-22222793D01*
X8838515Y-22222793D02*
X8838515Y-22175174D01*
X8838515Y-22175174D02*
X8848039Y-22137079D01*
X8848039Y-22137079D02*
X8857563Y-22118031D01*
X8857563Y-22118031D02*
X8867087Y-22108508D01*
X8867087Y-22108508D02*
X8886134Y-22098984D01*
X9048039Y-22289460D02*
X9048039Y-22298984D01*
X9048039Y-22298984D02*
X9038515Y-22318031D01*
X9038515Y-22318031D02*
X9028991Y-22327555D01*
X9171848Y-22098984D02*
X9190896Y-22098984D01*
X9190896Y-22098984D02*
X9209944Y-22108508D01*
X9209944Y-22108508D02*
X9219468Y-22118031D01*
X9219468Y-22118031D02*
X9228991Y-22137079D01*
X9228991Y-22137079D02*
X9238515Y-22175174D01*
X9238515Y-22175174D02*
X9238515Y-22222793D01*
X9238515Y-22222793D02*
X9228991Y-22260889D01*
X9228991Y-22260889D02*
X9219468Y-22279936D01*
X9219468Y-22279936D02*
X9209944Y-22289460D01*
X9209944Y-22289460D02*
X9190896Y-22298984D01*
X9190896Y-22298984D02*
X9171848Y-22298984D01*
X9171848Y-22298984D02*
X9152801Y-22289460D01*
X9152801Y-22289460D02*
X9143277Y-22279936D01*
X9143277Y-22279936D02*
X9133753Y-22260889D01*
X9133753Y-22260889D02*
X9124229Y-22222793D01*
X9124229Y-22222793D02*
X9124229Y-22175174D01*
X9124229Y-22175174D02*
X9133753Y-22137079D01*
X9133753Y-22137079D02*
X9143277Y-22118031D01*
X9143277Y-22118031D02*
X9152801Y-22108508D01*
X9152801Y-22108508D02*
X9171848Y-22098984D01*
X9314706Y-22118031D02*
X9324229Y-22108508D01*
X9324229Y-22108508D02*
X9343277Y-22098984D01*
X9343277Y-22098984D02*
X9390896Y-22098984D01*
X9390896Y-22098984D02*
X9409944Y-22108508D01*
X9409944Y-22108508D02*
X9419468Y-22118031D01*
X9419468Y-22118031D02*
X9428991Y-22137079D01*
X9428991Y-22137079D02*
X9428991Y-22156127D01*
X9428991Y-22156127D02*
X9419468Y-22184698D01*
X9419468Y-22184698D02*
X9305182Y-22298984D01*
X9305182Y-22298984D02*
X9428991Y-22298984D01*
X9495658Y-22098984D02*
X9619468Y-22098984D01*
X9619468Y-22098984D02*
X9552801Y-22175174D01*
X9552801Y-22175174D02*
X9581372Y-22175174D01*
X9581372Y-22175174D02*
X9600420Y-22184698D01*
X9600420Y-22184698D02*
X9609944Y-22194222D01*
X9609944Y-22194222D02*
X9619468Y-22213270D01*
X9619468Y-22213270D02*
X9619468Y-22260889D01*
X9619468Y-22260889D02*
X9609944Y-22279936D01*
X9609944Y-22279936D02*
X9600420Y-22289460D01*
X9600420Y-22289460D02*
X9581372Y-22298984D01*
X9581372Y-22298984D02*
X9524229Y-22298984D01*
X9524229Y-22298984D02*
X9505182Y-22289460D01*
X9505182Y-22289460D02*
X9495658Y-22279936D01*
X9790896Y-22098984D02*
X9752801Y-22098984D01*
X9752801Y-22098984D02*
X9733753Y-22108508D01*
X9733753Y-22108508D02*
X9724229Y-22118031D01*
X9724229Y-22118031D02*
X9705182Y-22146603D01*
X9705182Y-22146603D02*
X9695658Y-22184698D01*
X9695658Y-22184698D02*
X9695658Y-22260889D01*
X9695658Y-22260889D02*
X9705182Y-22279936D01*
X9705182Y-22279936D02*
X9714706Y-22289460D01*
X9714706Y-22289460D02*
X9733753Y-22298984D01*
X9733753Y-22298984D02*
X9771849Y-22298984D01*
X9771849Y-22298984D02*
X9790896Y-22289460D01*
X9790896Y-22289460D02*
X9800420Y-22279936D01*
X9800420Y-22279936D02*
X9809944Y-22260889D01*
X9809944Y-22260889D02*
X9809944Y-22213270D01*
X9809944Y-22213270D02*
X9800420Y-22194222D01*
X9800420Y-22194222D02*
X9790896Y-22184698D01*
X9790896Y-22184698D02*
X9771849Y-22175174D01*
X9771849Y-22175174D02*
X9733753Y-22175174D01*
X9733753Y-22175174D02*
X9714706Y-22184698D01*
X9714706Y-22184698D02*
X9705182Y-22194222D01*
X9705182Y-22194222D02*
X9695658Y-22213270D01*
X9886134Y-22098984D02*
X9886134Y-22137079D01*
X9962325Y-22098984D02*
X9962325Y-22137079D01*
X10257563Y-22375174D02*
X10248039Y-22365650D01*
X10248039Y-22365650D02*
X10228991Y-22337079D01*
X10228991Y-22337079D02*
X10219468Y-22318031D01*
X10219468Y-22318031D02*
X10209944Y-22289460D01*
X10209944Y-22289460D02*
X10200420Y-22241841D01*
X10200420Y-22241841D02*
X10200420Y-22203746D01*
X10200420Y-22203746D02*
X10209944Y-22156127D01*
X10209944Y-22156127D02*
X10219468Y-22127555D01*
X10219468Y-22127555D02*
X10228991Y-22108508D01*
X10228991Y-22108508D02*
X10248039Y-22079936D01*
X10248039Y-22079936D02*
X10257563Y-22070412D01*
X10324230Y-22118031D02*
X10333753Y-22108508D01*
X10333753Y-22108508D02*
X10352801Y-22098984D01*
X10352801Y-22098984D02*
X10400420Y-22098984D01*
X10400420Y-22098984D02*
X10419468Y-22108508D01*
X10419468Y-22108508D02*
X10428991Y-22118031D01*
X10428991Y-22118031D02*
X10438515Y-22137079D01*
X10438515Y-22137079D02*
X10438515Y-22156127D01*
X10438515Y-22156127D02*
X10428991Y-22184698D01*
X10428991Y-22184698D02*
X10314706Y-22298984D01*
X10314706Y-22298984D02*
X10438515Y-22298984D01*
X10676611Y-22298984D02*
X10676611Y-22098984D01*
X10762325Y-22298984D02*
X10762325Y-22194222D01*
X10762325Y-22194222D02*
X10752801Y-22175174D01*
X10752801Y-22175174D02*
X10733753Y-22165650D01*
X10733753Y-22165650D02*
X10705182Y-22165650D01*
X10705182Y-22165650D02*
X10686134Y-22175174D01*
X10686134Y-22175174D02*
X10676611Y-22184698D01*
X10886134Y-22298984D02*
X10867087Y-22289460D01*
X10867087Y-22289460D02*
X10857563Y-22279936D01*
X10857563Y-22279936D02*
X10848039Y-22260889D01*
X10848039Y-22260889D02*
X10848039Y-22203746D01*
X10848039Y-22203746D02*
X10857563Y-22184698D01*
X10857563Y-22184698D02*
X10867087Y-22175174D01*
X10867087Y-22175174D02*
X10886134Y-22165650D01*
X10886134Y-22165650D02*
X10914706Y-22165650D01*
X10914706Y-22165650D02*
X10933753Y-22175174D01*
X10933753Y-22175174D02*
X10943277Y-22184698D01*
X10943277Y-22184698D02*
X10952801Y-22203746D01*
X10952801Y-22203746D02*
X10952801Y-22260889D01*
X10952801Y-22260889D02*
X10943277Y-22279936D01*
X10943277Y-22279936D02*
X10933753Y-22289460D01*
X10933753Y-22289460D02*
X10914706Y-22298984D01*
X10914706Y-22298984D02*
X10886134Y-22298984D01*
X11067087Y-22298984D02*
X11048039Y-22289460D01*
X11048039Y-22289460D02*
X11038515Y-22270412D01*
X11038515Y-22270412D02*
X11038515Y-22098984D01*
X11219468Y-22289460D02*
X11200420Y-22298984D01*
X11200420Y-22298984D02*
X11162325Y-22298984D01*
X11162325Y-22298984D02*
X11143277Y-22289460D01*
X11143277Y-22289460D02*
X11133753Y-22270412D01*
X11133753Y-22270412D02*
X11133753Y-22194222D01*
X11133753Y-22194222D02*
X11143277Y-22175174D01*
X11143277Y-22175174D02*
X11162325Y-22165650D01*
X11162325Y-22165650D02*
X11200420Y-22165650D01*
X11200420Y-22165650D02*
X11219468Y-22175174D01*
X11219468Y-22175174D02*
X11228991Y-22194222D01*
X11228991Y-22194222D02*
X11228991Y-22213270D01*
X11228991Y-22213270D02*
X11133753Y-22232317D01*
X11305182Y-22289460D02*
X11324230Y-22298984D01*
X11324230Y-22298984D02*
X11362325Y-22298984D01*
X11362325Y-22298984D02*
X11381372Y-22289460D01*
X11381372Y-22289460D02*
X11390896Y-22270412D01*
X11390896Y-22270412D02*
X11390896Y-22260889D01*
X11390896Y-22260889D02*
X11381372Y-22241841D01*
X11381372Y-22241841D02*
X11362325Y-22232317D01*
X11362325Y-22232317D02*
X11333753Y-22232317D01*
X11333753Y-22232317D02*
X11314706Y-22222793D01*
X11314706Y-22222793D02*
X11305182Y-22203746D01*
X11305182Y-22203746D02*
X11305182Y-22194222D01*
X11305182Y-22194222D02*
X11314706Y-22175174D01*
X11314706Y-22175174D02*
X11333753Y-22165650D01*
X11333753Y-22165650D02*
X11362325Y-22165650D01*
X11362325Y-22165650D02*
X11381372Y-22175174D01*
X11457563Y-22375174D02*
X11467087Y-22365650D01*
X11467087Y-22365650D02*
X11486134Y-22337079D01*
X11486134Y-22337079D02*
X11495658Y-22318031D01*
X11495658Y-22318031D02*
X11505182Y-22289460D01*
X11505182Y-22289460D02*
X11514706Y-22241841D01*
X11514706Y-22241841D02*
X11514706Y-22203746D01*
X11514706Y-22203746D02*
X11505182Y-22156127D01*
X11505182Y-22156127D02*
X11495658Y-22127555D01*
X11495658Y-22127555D02*
X11486134Y-22108508D01*
X11486134Y-22108508D02*
X11467087Y-22079936D01*
X11467087Y-22079936D02*
X11457563Y-22070412D01*
X11819468Y-22375174D02*
X11809944Y-22365650D01*
X11809944Y-22365650D02*
X11790896Y-22337079D01*
X11790896Y-22337079D02*
X11781372Y-22318031D01*
X11781372Y-22318031D02*
X11771849Y-22289460D01*
X11771849Y-22289460D02*
X11762325Y-22241841D01*
X11762325Y-22241841D02*
X11762325Y-22203746D01*
X11762325Y-22203746D02*
X11771849Y-22156127D01*
X11771849Y-22156127D02*
X11781372Y-22127555D01*
X11781372Y-22127555D02*
X11790896Y-22108508D01*
X11790896Y-22108508D02*
X11809944Y-22079936D01*
X11809944Y-22079936D02*
X11819468Y-22070412D01*
X11895658Y-22165650D02*
X11895658Y-22298984D01*
X11895658Y-22184698D02*
X11905182Y-22175174D01*
X11905182Y-22175174D02*
X11924230Y-22165650D01*
X11924230Y-22165650D02*
X11952801Y-22165650D01*
X11952801Y-22165650D02*
X11971849Y-22175174D01*
X11971849Y-22175174D02*
X11981372Y-22194222D01*
X11981372Y-22194222D02*
X11981372Y-22298984D01*
X12105182Y-22298984D02*
X12086134Y-22289460D01*
X12086134Y-22289460D02*
X12076611Y-22279936D01*
X12076611Y-22279936D02*
X12067087Y-22260889D01*
X12067087Y-22260889D02*
X12067087Y-22203746D01*
X12067087Y-22203746D02*
X12076611Y-22184698D01*
X12076611Y-22184698D02*
X12086134Y-22175174D01*
X12086134Y-22175174D02*
X12105182Y-22165650D01*
X12105182Y-22165650D02*
X12133753Y-22165650D01*
X12133753Y-22165650D02*
X12152801Y-22175174D01*
X12152801Y-22175174D02*
X12162325Y-22184698D01*
X12162325Y-22184698D02*
X12171849Y-22203746D01*
X12171849Y-22203746D02*
X12171849Y-22260889D01*
X12171849Y-22260889D02*
X12162325Y-22279936D01*
X12162325Y-22279936D02*
X12152801Y-22289460D01*
X12152801Y-22289460D02*
X12133753Y-22298984D01*
X12133753Y-22298984D02*
X12105182Y-22298984D01*
X12228992Y-22165650D02*
X12305182Y-22165650D01*
X12257563Y-22098984D02*
X12257563Y-22270412D01*
X12257563Y-22270412D02*
X12267087Y-22289460D01*
X12267087Y-22289460D02*
X12286134Y-22298984D01*
X12286134Y-22298984D02*
X12305182Y-22298984D01*
X12524230Y-22165650D02*
X12524230Y-22365650D01*
X12524230Y-22175174D02*
X12543277Y-22165650D01*
X12543277Y-22165650D02*
X12581373Y-22165650D01*
X12581373Y-22165650D02*
X12600420Y-22175174D01*
X12600420Y-22175174D02*
X12609944Y-22184698D01*
X12609944Y-22184698D02*
X12619468Y-22203746D01*
X12619468Y-22203746D02*
X12619468Y-22260889D01*
X12619468Y-22260889D02*
X12609944Y-22279936D01*
X12609944Y-22279936D02*
X12600420Y-22289460D01*
X12600420Y-22289460D02*
X12581373Y-22298984D01*
X12581373Y-22298984D02*
X12543277Y-22298984D01*
X12543277Y-22298984D02*
X12524230Y-22289460D01*
X12733753Y-22298984D02*
X12714706Y-22289460D01*
X12714706Y-22289460D02*
X12705182Y-22270412D01*
X12705182Y-22270412D02*
X12705182Y-22098984D01*
X12895658Y-22298984D02*
X12895658Y-22194222D01*
X12895658Y-22194222D02*
X12886134Y-22175174D01*
X12886134Y-22175174D02*
X12867087Y-22165650D01*
X12867087Y-22165650D02*
X12828992Y-22165650D01*
X12828992Y-22165650D02*
X12809944Y-22175174D01*
X12895658Y-22289460D02*
X12876611Y-22298984D01*
X12876611Y-22298984D02*
X12828992Y-22298984D01*
X12828992Y-22298984D02*
X12809944Y-22289460D01*
X12809944Y-22289460D02*
X12800420Y-22270412D01*
X12800420Y-22270412D02*
X12800420Y-22251365D01*
X12800420Y-22251365D02*
X12809944Y-22232317D01*
X12809944Y-22232317D02*
X12828992Y-22222793D01*
X12828992Y-22222793D02*
X12876611Y-22222793D01*
X12876611Y-22222793D02*
X12895658Y-22213270D01*
X12962325Y-22165650D02*
X13038515Y-22165650D01*
X12990896Y-22098984D02*
X12990896Y-22270412D01*
X12990896Y-22270412D02*
X13000420Y-22289460D01*
X13000420Y-22289460D02*
X13019468Y-22298984D01*
X13019468Y-22298984D02*
X13038515Y-22298984D01*
X13181373Y-22289460D02*
X13162325Y-22298984D01*
X13162325Y-22298984D02*
X13124230Y-22298984D01*
X13124230Y-22298984D02*
X13105182Y-22289460D01*
X13105182Y-22289460D02*
X13095658Y-22270412D01*
X13095658Y-22270412D02*
X13095658Y-22194222D01*
X13095658Y-22194222D02*
X13105182Y-22175174D01*
X13105182Y-22175174D02*
X13124230Y-22165650D01*
X13124230Y-22165650D02*
X13162325Y-22165650D01*
X13162325Y-22165650D02*
X13181373Y-22175174D01*
X13181373Y-22175174D02*
X13190896Y-22194222D01*
X13190896Y-22194222D02*
X13190896Y-22213270D01*
X13190896Y-22213270D02*
X13095658Y-22232317D01*
X13362325Y-22298984D02*
X13362325Y-22098984D01*
X13362325Y-22289460D02*
X13343277Y-22298984D01*
X13343277Y-22298984D02*
X13305182Y-22298984D01*
X13305182Y-22298984D02*
X13286134Y-22289460D01*
X13286134Y-22289460D02*
X13276611Y-22279936D01*
X13276611Y-22279936D02*
X13267087Y-22260889D01*
X13267087Y-22260889D02*
X13267087Y-22203746D01*
X13267087Y-22203746D02*
X13276611Y-22184698D01*
X13276611Y-22184698D02*
X13286134Y-22175174D01*
X13286134Y-22175174D02*
X13305182Y-22165650D01*
X13305182Y-22165650D02*
X13343277Y-22165650D01*
X13343277Y-22165650D02*
X13362325Y-22175174D01*
X13438515Y-22375174D02*
X13448039Y-22365650D01*
X13448039Y-22365650D02*
X13467087Y-22337079D01*
X13467087Y-22337079D02*
X13476611Y-22318031D01*
X13476611Y-22318031D02*
X13486134Y-22289460D01*
X13486134Y-22289460D02*
X13495658Y-22241841D01*
X13495658Y-22241841D02*
X13495658Y-22203746D01*
X13495658Y-22203746D02*
X13486134Y-22156127D01*
X13486134Y-22156127D02*
X13476611Y-22127555D01*
X13476611Y-22127555D02*
X13467087Y-22108508D01*
X13467087Y-22108508D02*
X13448039Y-22079936D01*
X13448039Y-22079936D02*
X13438515Y-22070412D01*
M02*
