%TF.GenerationSoftware,KiCad,Pcbnew,10.0.1-1.fc44*%
%TF.CreationDate,2026-05-05T13:30:04+02:00*%
%TF.ProjectId,poc-one,706f632d-6f6e-4652-9e6b-696361645f70,rev?*%
%TF.SameCoordinates,Original*%
%TF.FileFunction,Legend,Bot*%
%TF.FilePolarity,Positive*%
%FSLAX46Y46*%
G04 Gerber Fmt 4.6, Leading zero omitted, Abs format (unit mm)*
G04 Created by KiCad (PCBNEW 10.0.1-1.fc44) date 2026-05-05 13:30:04*
%MOMM*%
%LPD*%
G01*
G04 APERTURE LIST*
%ADD10R,1.700000X1.700000*%
%ADD11C,1.700000*%
%ADD12C,0.600000*%
%ADD13O,1.300000X2.300000*%
%ADD14O,1.300000X2.100000*%
G04 APERTURE END LIST*
%LPC*%
D10*
%TO.C,J5*%
X112845000Y-151295000D03*
D11*
X112845000Y-153835000D03*
X112845000Y-156375000D03*
%TD*%
D10*
%TO.C,J1*%
X103180000Y-114100000D03*
D11*
X103180000Y-116640000D03*
X100640000Y-114100000D03*
X100640000Y-116640000D03*
X98100000Y-114100000D03*
X98100000Y-116640000D03*
X95560000Y-114100000D03*
X95560000Y-116640000D03*
X93020000Y-114100000D03*
X93020000Y-116640000D03*
X90480000Y-114100000D03*
X90480000Y-116640000D03*
X87940000Y-114100000D03*
X87940000Y-116640000D03*
X85400000Y-114100000D03*
X85400000Y-116640000D03*
X82860000Y-114100000D03*
X82860000Y-116640000D03*
X80320000Y-114100000D03*
X80320000Y-116640000D03*
%TD*%
D10*
%TO.C,J2*%
X83625000Y-130770000D03*
D11*
X86165000Y-130770000D03*
X83625000Y-133310000D03*
X86165000Y-133310000D03*
X83625000Y-135850000D03*
X86165000Y-135850000D03*
X83625000Y-138390000D03*
X86165000Y-138390000D03*
X83625000Y-140930000D03*
X86165000Y-140930000D03*
X83625000Y-143470000D03*
X86165000Y-143470000D03*
X83625000Y-146010000D03*
X86165000Y-146010000D03*
X83625000Y-148550000D03*
X86165000Y-148550000D03*
X83625000Y-151090000D03*
X86165000Y-151090000D03*
X83625000Y-153630000D03*
X86165000Y-153630000D03*
%TD*%
D12*
%TO.C,J3*%
X113150000Y-113950000D03*
X107370000Y-113950000D03*
D13*
X114590000Y-114470000D03*
D14*
X114590000Y-110270000D03*
D13*
X105930000Y-114470000D03*
D14*
X105930000Y-110270000D03*
%TD*%
D10*
%TO.C,J4*%
X132065000Y-150980000D03*
D11*
X129525000Y-150980000D03*
X132065000Y-148440000D03*
X129525000Y-148440000D03*
X132065000Y-145900000D03*
X129525000Y-145900000D03*
X132065000Y-143360000D03*
X129525000Y-143360000D03*
X132065000Y-140820000D03*
X129525000Y-140820000D03*
X132065000Y-138280000D03*
X129525000Y-138280000D03*
X132065000Y-135740000D03*
X129525000Y-135740000D03*
X132065000Y-133200000D03*
X129525000Y-133200000D03*
%TD*%
%LPD*%
M02*
