M48
; DRILL file KiCad 10.0.1-1.fc44 date 2026-05-05T04:36:20
; FORMAT={-:-/ absolute / metric / decimal}
; #@! TF.CreationDate,2026-05-05T04:36:20+02:00
; #@! TF.GenerationSoftware,Kicad,Pcbnew,10.0.1-1.fc44
; #@! TF.FileFunction,Plated,1,2,PTH
FMAT,2
METRIC
; #@! TA.AperFunction,Plated,PTH,ViaDrill
T1C0.150
; #@! TA.AperFunction,Plated,PTH,ViaDrill
T2C0.250
; #@! TA.AperFunction,Plated,PTH,ViaDrill
T3C0.300
; #@! TA.AperFunction,Plated,PTH,ComponentDrill
T4C0.500
; #@! TA.AperFunction,Plated,PTH,ComponentDrill
T5C1.000
%
G90
G05
T1
X70.36Y-195.78
X86.21Y-177.15
X86.77Y-176.68
X87.34Y-176.16
X89.68Y-185.7
X90.93Y-187.92
X92.13Y-190.12
X93.44Y-192.33
X93.65Y-170.325
X96.7Y-169.15
X96.7Y-170.7
X96.92Y-185.72
X96.92Y-187.92
X96.92Y-190.12
X96.92Y-192.32
X97.25Y-169.6
X97.25Y-170.7
X97.51Y-185.55
X97.51Y-187.75
X97.51Y-189.95
X97.51Y-192.15
X98.11Y-187.53
X98.11Y-189.73
X98.11Y-191.93
X98.11Y-194.13
X98.79Y-168.75
X98.85Y-125.725
X99.12Y-185.72
X99.12Y-187.92
X99.12Y-190.12
X99.12Y-192.32
X99.25Y-124.65
X99.65Y-125.25
X99.71Y-185.55
X99.71Y-187.75
X99.71Y-189.95
X99.71Y-192.15
X99.93Y-168.74
X100.31Y-187.53
X100.31Y-189.73
X100.31Y-191.93
X100.31Y-194.13
X101.04Y-184.24
X101.29Y-168.72
X101.32Y-185.72
X101.32Y-187.92
X101.32Y-190.12
X101.32Y-192.32
X101.91Y-185.55
X101.91Y-187.75
X101.91Y-189.95
X101.91Y-192.15
X102.1Y-124.625
X102.1Y-125.225
X102.1Y-125.725
X102.21Y-183.75
X102.51Y-187.53
X102.51Y-189.73
X102.51Y-191.93
X102.51Y-194.13
X102.64Y-168.29
X103.4Y-183.29
X103.52Y-185.72
X103.52Y-187.92
X103.52Y-190.12
X103.52Y-192.32
X104.11Y-185.55
X104.11Y-187.75
X104.11Y-189.95
X104.11Y-192.15
X104.56Y-182.8
X104.71Y-187.53
X104.71Y-189.73
X104.71Y-191.93
X104.71Y-194.13
X104.725Y-170.6
X104.775Y-168.75
X105.5Y-124.625
X105.5Y-125.225
X105.5Y-125.725
X105.72Y-187.03
X105.77Y-193.61
X105.79Y-189.19
X105.79Y-191.42
X107.3Y-169.15
X107.3Y-170.55
X108.55Y-169.6
X108.55Y-170.55
X108.95Y-125.2
X108.95Y-125.7
X108.975Y-124.6
X116.05Y-168.75
X116.05Y-170.65
X116.1Y-123.75
X116.1Y-125.4
X118.65Y-169.15
X118.65Y-170.55
X119.9Y-169.6
X119.9Y-170.55
T2
X70.42Y-197.05
X70.42Y-198.4
X70.42Y-199.5
X79.37Y-192.0
X79.37Y-194.5
X91.17Y-210.9
X96.72Y-200.9
X99.75Y-179.88
X101.32Y-200.75
X102.045Y-147.57
X104.36Y-153.74
X105.2Y-149.425
X105.65Y-126.5
X105.95Y-152.26
X105.97Y-200.8
X106.65Y-116.45
X106.65Y-119.55
X107.85Y-116.95
X108.17Y-157.08
X108.75Y-133.35
X108.75Y-133.95
X109.3Y-149.4
X109.76Y-155.46
X110.52Y-200.7
X111.12Y-179.9
X111.15Y-133.6
X111.15Y-134.2
X111.95Y-120.2
X111.996Y-135.096
X112.7Y-116.9
X112.85Y-149.9
X113.8Y-116.45
X115.1Y-140.55
X115.6Y-136.15
X115.915Y-121.515
X116.15Y-145.1
X116.395Y-120.685
X116.75Y-151.75
X117.55Y-125.4
X118.7Y-115.85
X119.05Y-127.4
X119.6Y-115.85
X120.6Y-127.43
X121.25Y-127.4
X121.45Y-115.85
X122.48Y-180.06
X122.5Y-127.3
X122.85Y-125.0
X123.1Y-119.3
X123.55Y-126.5
X123.9Y-119.3
X123.9Y-120.05
X123.9Y-120.8
X123.9Y-121.5
X124.7Y-119.65
X124.7Y-120.4
X127.65Y-120.35
X129.7Y-123.25
X134.18Y-114.8
X138.0Y-121.25
X146.91Y-118.13
X147.61Y-117.38
X148.45Y-204.65
X155.72Y-113.33
T3
X70.0Y-172.5
X72.5Y-172.5
X75.0Y-172.5
X77.5Y-172.5
X80.0Y-172.5
X87.9Y-198.35
X87.9Y-201.8
X97.725Y-145.25
X98.075Y-138.2
X98.075Y-140.325
X98.132Y-142.45
X98.175Y-136.175
X100.9Y-140.35
X102.275Y-145.25
X103.25Y-136.8
X103.95Y-140.35
X104.7Y-132.3
X104.85Y-138.35
X104.85Y-139.75
X104.85Y-141.35
X104.85Y-142.75
X105.9Y-132.25
X106.25Y-138.35
X106.25Y-142.75
X107.85Y-138.35
X107.85Y-142.75
X107.9Y-143.65
X107.9Y-147.6
X108.75Y-137.45
X109.25Y-138.35
X109.25Y-139.75
X109.25Y-141.35
X109.25Y-142.75
X110.15Y-140.55
X113.075Y-145.125
X115.6Y-137.05
X116.9Y-141.475
X117.7Y-140.55
X117.7Y-141.485
X118.85Y-143.4
X119.3Y-137.01
X121.1Y-132.85
X122.75Y-137.01
X124.7Y-123.3
X125.5Y-137.7
X126.225Y-137.755
X126.3Y-123.25
X126.65Y-134.05
X127.011Y-137.511
X127.65Y-123.3
X149.0Y-173.0
X149.3Y-115.5
X151.5Y-173.0
X154.0Y-173.0
X156.5Y-173.0
X159.0Y-173.0
T5
X80.32Y-114.1
X80.32Y-116.64
X82.86Y-114.1
X82.86Y-116.64
X83.625Y-130.77
X83.625Y-133.31
X83.625Y-135.85
X83.625Y-138.39
X83.625Y-140.93
X83.625Y-143.47
X83.625Y-146.01
X83.625Y-148.55
X83.625Y-151.09
X83.625Y-153.63
X85.4Y-114.1
X85.4Y-116.64
X86.165Y-130.77
X86.165Y-133.31
X86.165Y-135.85
X86.165Y-138.39
X86.165Y-140.93
X86.165Y-143.47
X86.165Y-146.01
X86.165Y-148.55
X86.165Y-151.09
X86.165Y-153.63
X87.94Y-114.1
X87.94Y-116.64
X90.48Y-114.1
X90.48Y-116.64
X92.8Y-146.2
X93.02Y-114.1
X93.02Y-116.64
X93.5Y-132.3
X95.56Y-114.1
X95.56Y-116.64
X98.1Y-114.1
X98.1Y-116.64
X100.64Y-114.1
X100.64Y-116.64
X103.18Y-114.1
X103.18Y-116.64
X112.845Y-151.295
X112.845Y-153.835
X112.845Y-156.375
X124.4Y-148.35
X129.525Y-133.2
X129.525Y-135.74
X129.525Y-138.28
X129.525Y-140.82
X129.525Y-143.36
X129.525Y-145.9
X129.525Y-148.44
X129.525Y-150.98
X130.5Y-159.0
X132.065Y-133.2
X132.065Y-135.74
X132.065Y-138.28
X132.065Y-140.82
X132.065Y-143.36
X132.065Y-145.9
X132.065Y-148.44
X132.065Y-150.98
T4
G00X105.93Y-110.67
M15
G01X105.93Y-109.87
M16
G05
G00X105.93Y-115.02
M15
G01X105.93Y-113.92
M16
G05
G00X114.59Y-110.67
M15
G01X114.59Y-109.87
M16
G05
G00X114.59Y-115.02
M15
G01X114.59Y-113.92
M16
G05
M30
