%TF.GenerationSoftware,KiCad,Pcbnew,10.0.1-1.fc44*%
%TF.CreationDate,2026-05-05T04:36:18+02:00*%
%TF.ProjectId,poc-one,706f632d-6f6e-4652-9e6b-696361645f70,rev?*%
%TF.SameCoordinates,Original*%
%TF.FileFunction,Legend,Top*%
%TF.FilePolarity,Positive*%
%FSLAX46Y46*%
G04 Gerber Fmt 4.6, Leading zero omitted, Abs format (unit mm)*
G04 Created by KiCad (PCBNEW 10.0.1-1.fc44) date 2026-05-05 04:36:18*
%MOMM*%
%LPD*%
G01*
G04 APERTURE LIST*
G04 Aperture macros list*
%AMRoundRect*
0 Rectangle with rounded corners*
0 $1 Rounding radius*
0 $2 $3 $4 $5 $6 $7 $8 $9 X,Y pos of 4 corners*
0 Add a 4 corners polygon primitive as box body*
4,1,4,$2,$3,$4,$5,$6,$7,$8,$9,$2,$3,0*
0 Add four circle primitives for the rounded corners*
1,1,$1+$1,$2,$3*
1,1,$1+$1,$4,$5*
1,1,$1+$1,$6,$7*
1,1,$1+$1,$8,$9*
0 Add four rect primitives between the rounded corners*
20,1,$1+$1,$2,$3,$4,$5,0*
20,1,$1+$1,$4,$5,$6,$7,0*
20,1,$1+$1,$6,$7,$8,$9,0*
20,1,$1+$1,$8,$9,$2,$3,0*%
G04 Aperture macros list end*
%ADD10C,0.150000*%
%ADD11C,0.200000*%
%ADD12C,0.100000*%
%ADD13C,0.120000*%
%ADD14C,0.300000*%
%ADD15C,1.150000*%
%ADD16C,0.957107*%
%ADD17C,1.000000*%
%ADD18RoundRect,0.140000X0.140000X0.170000X-0.140000X0.170000X-0.140000X-0.170000X0.140000X-0.170000X0*%
%ADD19C,1.500000*%
%ADD20RoundRect,0.135000X0.185000X-0.135000X0.185000X0.135000X-0.185000X0.135000X-0.185000X-0.135000X0*%
%ADD21RoundRect,0.135000X-0.185000X0.135000X-0.185000X-0.135000X0.185000X-0.135000X0.185000X0.135000X0*%
%ADD22RoundRect,0.250000X-0.250000X-0.750000X0.250000X-0.750000X0.250000X0.750000X-0.250000X0.750000X0*%
%ADD23RoundRect,0.140000X-0.170000X0.140000X-0.170000X-0.140000X0.170000X-0.140000X0.170000X0.140000X0*%
%ADD24RoundRect,0.140000X-0.140000X-0.170000X0.140000X-0.170000X0.140000X0.170000X-0.140000X0.170000X0*%
%ADD25RoundRect,0.150000X0.150000X-0.590000X0.150000X0.590000X-0.150000X0.590000X-0.150000X-0.590000X0*%
%ADD26RoundRect,0.135000X0.135000X0.185000X-0.135000X0.185000X-0.135000X-0.185000X0.135000X-0.185000X0*%
%ADD27R,1.700000X1.700000*%
%ADD28C,1.700000*%
%ADD29RoundRect,0.135000X-0.135000X-0.185000X0.135000X-0.185000X0.135000X0.185000X-0.135000X0.185000X0*%
%ADD30RoundRect,0.225000X-0.225000X-0.250000X0.225000X-0.250000X0.225000X0.250000X-0.225000X0.250000X0*%
%ADD31R,1.500000X1.000000*%
%ADD32O,0.600000X1.970000*%
%ADD33RoundRect,0.250000X0.250000X0.750000X-0.250000X0.750000X-0.250000X-0.750000X0.250000X-0.750000X0*%
%ADD34RoundRect,0.250000X-0.550000X1.250000X-0.550000X-1.250000X0.550000X-1.250000X0.550000X1.250000X0*%
%ADD35RoundRect,0.062500X-0.325000X-0.062500X0.325000X-0.062500X0.325000X0.062500X-0.325000X0.062500X0*%
%ADD36RoundRect,0.062500X-0.062500X-0.325000X0.062500X-0.325000X0.062500X0.325000X-0.062500X0.325000X0*%
%ADD37R,2.450000X2.450000*%
%ADD38RoundRect,0.200000X-0.200000X-0.650000X0.200000X-0.650000X0.200000X0.650000X-0.200000X0.650000X0*%
%ADD39RoundRect,0.052500X0.222500X0.122500X-0.222500X0.122500X-0.222500X-0.122500X0.222500X-0.122500X0*%
%ADD40RoundRect,0.087500X0.187500X0.087500X-0.187500X0.087500X-0.187500X-0.087500X0.187500X-0.087500X0*%
%ADD41RoundRect,0.150000X-0.400000X-0.150000X0.400000X-0.150000X0.400000X0.150000X-0.400000X0.150000X0*%
%ADD42RoundRect,0.050000X-0.350000X-0.050000X0.350000X-0.050000X0.350000X0.050000X-0.350000X0.050000X0*%
%ADD43RoundRect,0.050000X-0.050000X-0.350000X0.050000X-0.350000X0.050000X0.350000X-0.050000X0.350000X0*%
%ADD44R,3.400000X3.400000*%
%ADD45RoundRect,0.140000X0.170000X-0.140000X0.170000X0.140000X-0.170000X0.140000X-0.170000X-0.140000X0*%
%ADD46RoundRect,0.218750X0.256250X-0.218750X0.256250X0.218750X-0.256250X0.218750X-0.256250X-0.218750X0*%
%ADD47RoundRect,0.150000X-0.150000X0.590000X-0.150000X-0.590000X0.150000X-0.590000X0.150000X0.590000X0*%
%ADD48RoundRect,0.250000X0.250000X0.550000X-0.250000X0.550000X-0.250000X-0.550000X0.250000X-0.550000X0*%
%ADD49RoundRect,0.135000X-0.035355X0.226274X-0.226274X0.035355X0.035355X-0.226274X0.226274X-0.035355X0*%
%ADD50RoundRect,0.375000X-0.625000X-0.375000X0.625000X-0.375000X0.625000X0.375000X-0.625000X0.375000X0*%
%ADD51RoundRect,0.500000X-0.500000X-1.400000X0.500000X-1.400000X0.500000X1.400000X-0.500000X1.400000X0*%
%ADD52RoundRect,0.200000X0.650000X-0.200000X0.650000X0.200000X-0.650000X0.200000X-0.650000X-0.200000X0*%
%ADD53RoundRect,0.218750X-0.218750X-0.256250X0.218750X-0.256250X0.218750X0.256250X-0.218750X0.256250X0*%
%ADD54RoundRect,0.261500X0.261500X0.476500X-0.261500X0.476500X-0.261500X-0.476500X0.261500X-0.476500X0*%
%ADD55RoundRect,0.162500X0.575000X0.162500X-0.575000X0.162500X-0.575000X-0.162500X0.575000X-0.162500X0*%
%ADD56C,0.600000*%
%ADD57R,0.300000X1.400000*%
%ADD58R,0.500000X1.400000*%
%ADD59O,1.300000X2.300000*%
%ADD60O,1.300000X2.100000*%
%ADD61RoundRect,0.500000X2.000000X1.000000X-2.000000X1.000000X-2.000000X-1.000000X2.000000X-1.000000X0*%
%ADD62RoundRect,0.250000X-0.450000X-0.350000X0.450000X-0.350000X0.450000X0.350000X-0.450000X0.350000X0*%
%ADD63RoundRect,0.250000X-0.970000X-0.310000X0.970000X-0.310000X0.970000X0.310000X-0.970000X0.310000X0*%
%ADD64RoundRect,0.250000X-0.625000X0.312500X-0.625000X-0.312500X0.625000X-0.312500X0.625000X0.312500X0*%
%ADD65RoundRect,0.218750X-0.256250X0.218750X-0.256250X-0.218750X0.256250X-0.218750X0.256250X0.218750X0*%
%ADD66RoundRect,0.140000X-0.021213X0.219203X-0.219203X0.021213X0.021213X-0.219203X0.219203X-0.021213X0*%
%ADD67RoundRect,0.135000X-0.145000X0.135000X-0.145000X-0.135000X0.145000X-0.135000X0.145000X0.135000X0*%
%ADD68RoundRect,0.219000X-0.294000X0.219000X-0.294000X-0.219000X0.294000X-0.219000X0.294000X0.219000X0*%
%ADD69RoundRect,0.250000X3.500000X-2.400000X3.500000X2.400000X-3.500000X2.400000X-3.500000X-2.400000X0*%
G04 APERTURE END LIST*
D10*
X102381009Y-130607142D02*
X102428628Y-130464285D01*
X102428628Y-130464285D02*
X102476247Y-130416666D01*
X102476247Y-130416666D02*
X102571485Y-130369047D01*
X102571485Y-130369047D02*
X102714342Y-130369047D01*
X102714342Y-130369047D02*
X102809580Y-130416666D01*
X102809580Y-130416666D02*
X102857200Y-130464285D01*
X102857200Y-130464285D02*
X102904819Y-130559523D01*
X102904819Y-130559523D02*
X102904819Y-130940475D01*
X102904819Y-130940475D02*
X101904819Y-130940475D01*
X101904819Y-130940475D02*
X101904819Y-130607142D01*
X101904819Y-130607142D02*
X101952438Y-130511904D01*
X101952438Y-130511904D02*
X102000057Y-130464285D01*
X102000057Y-130464285D02*
X102095295Y-130416666D01*
X102095295Y-130416666D02*
X102190533Y-130416666D01*
X102190533Y-130416666D02*
X102285771Y-130464285D01*
X102285771Y-130464285D02*
X102333390Y-130511904D01*
X102333390Y-130511904D02*
X102381009Y-130607142D01*
X102381009Y-130607142D02*
X102381009Y-130940475D01*
X101904819Y-129749999D02*
X101904819Y-129559523D01*
X101904819Y-129559523D02*
X101952438Y-129464285D01*
X101952438Y-129464285D02*
X102047676Y-129369047D01*
X102047676Y-129369047D02*
X102238152Y-129321428D01*
X102238152Y-129321428D02*
X102571485Y-129321428D01*
X102571485Y-129321428D02*
X102761961Y-129369047D01*
X102761961Y-129369047D02*
X102857200Y-129464285D01*
X102857200Y-129464285D02*
X102904819Y-129559523D01*
X102904819Y-129559523D02*
X102904819Y-129749999D01*
X102904819Y-129749999D02*
X102857200Y-129845237D01*
X102857200Y-129845237D02*
X102761961Y-129940475D01*
X102761961Y-129940475D02*
X102571485Y-129988094D01*
X102571485Y-129988094D02*
X102238152Y-129988094D01*
X102238152Y-129988094D02*
X102047676Y-129940475D01*
X102047676Y-129940475D02*
X101952438Y-129845237D01*
X101952438Y-129845237D02*
X101904819Y-129749999D01*
X101904819Y-128702380D02*
X101904819Y-128511904D01*
X101904819Y-128511904D02*
X101952438Y-128416666D01*
X101952438Y-128416666D02*
X102047676Y-128321428D01*
X102047676Y-128321428D02*
X102238152Y-128273809D01*
X102238152Y-128273809D02*
X102571485Y-128273809D01*
X102571485Y-128273809D02*
X102761961Y-128321428D01*
X102761961Y-128321428D02*
X102857200Y-128416666D01*
X102857200Y-128416666D02*
X102904819Y-128511904D01*
X102904819Y-128511904D02*
X102904819Y-128702380D01*
X102904819Y-128702380D02*
X102857200Y-128797618D01*
X102857200Y-128797618D02*
X102761961Y-128892856D01*
X102761961Y-128892856D02*
X102571485Y-128940475D01*
X102571485Y-128940475D02*
X102238152Y-128940475D01*
X102238152Y-128940475D02*
X102047676Y-128892856D01*
X102047676Y-128892856D02*
X101952438Y-128797618D01*
X101952438Y-128797618D02*
X101904819Y-128702380D01*
X101904819Y-127988094D02*
X101904819Y-127416666D01*
X102904819Y-127702380D02*
X101904819Y-127702380D01*
X152110475Y-168454819D02*
X151777142Y-167978628D01*
X151539047Y-168454819D02*
X151539047Y-167454819D01*
X151539047Y-167454819D02*
X151919999Y-167454819D01*
X151919999Y-167454819D02*
X152015237Y-167502438D01*
X152015237Y-167502438D02*
X152062856Y-167550057D01*
X152062856Y-167550057D02*
X152110475Y-167645295D01*
X152110475Y-167645295D02*
X152110475Y-167788152D01*
X152110475Y-167788152D02*
X152062856Y-167883390D01*
X152062856Y-167883390D02*
X152015237Y-167931009D01*
X152015237Y-167931009D02*
X151919999Y-167978628D01*
X151919999Y-167978628D02*
X151539047Y-167978628D01*
X152539047Y-167931009D02*
X152872380Y-167931009D01*
X153015237Y-168454819D02*
X152539047Y-168454819D01*
X152539047Y-168454819D02*
X152539047Y-167454819D01*
X152539047Y-167454819D02*
X153015237Y-167454819D01*
X153777142Y-167931009D02*
X153443809Y-167931009D01*
X153443809Y-168454819D02*
X153443809Y-167454819D01*
X153443809Y-167454819D02*
X153919999Y-167454819D01*
X154443809Y-167454819D02*
X154443809Y-167692914D01*
X154205714Y-167597676D02*
X154443809Y-167692914D01*
X154443809Y-167692914D02*
X154681904Y-167597676D01*
X154300952Y-167883390D02*
X154443809Y-167692914D01*
X154443809Y-167692914D02*
X154586666Y-167883390D01*
X155205714Y-167454819D02*
X155205714Y-167692914D01*
X154967619Y-167597676D02*
X155205714Y-167692914D01*
X155205714Y-167692914D02*
X155443809Y-167597676D01*
X155062857Y-167883390D02*
X155205714Y-167692914D01*
X155205714Y-167692914D02*
X155348571Y-167883390D01*
X155777143Y-167550057D02*
X155824762Y-167502438D01*
X155824762Y-167502438D02*
X155920000Y-167454819D01*
X155920000Y-167454819D02*
X156158095Y-167454819D01*
X156158095Y-167454819D02*
X156253333Y-167502438D01*
X156253333Y-167502438D02*
X156300952Y-167550057D01*
X156300952Y-167550057D02*
X156348571Y-167645295D01*
X156348571Y-167645295D02*
X156348571Y-167740533D01*
X156348571Y-167740533D02*
X156300952Y-167883390D01*
X156300952Y-167883390D02*
X155729524Y-168454819D01*
X155729524Y-168454819D02*
X156348571Y-168454819D01*
D11*
X122400000Y-153033528D02*
X121900000Y-152319242D01*
X121542857Y-153033528D02*
X121542857Y-151533528D01*
X121542857Y-151533528D02*
X122114286Y-151533528D01*
X122114286Y-151533528D02*
X122257143Y-151604957D01*
X122257143Y-151604957D02*
X122328572Y-151676385D01*
X122328572Y-151676385D02*
X122400000Y-151819242D01*
X122400000Y-151819242D02*
X122400000Y-152033528D01*
X122400000Y-152033528D02*
X122328572Y-152176385D01*
X122328572Y-152176385D02*
X122257143Y-152247814D01*
X122257143Y-152247814D02*
X122114286Y-152319242D01*
X122114286Y-152319242D02*
X121542857Y-152319242D01*
X123042857Y-152247814D02*
X123542857Y-152247814D01*
X123757143Y-153033528D02*
X123042857Y-153033528D01*
X123042857Y-153033528D02*
X123042857Y-151533528D01*
X123042857Y-151533528D02*
X123757143Y-151533528D01*
X124900000Y-152247814D02*
X124400000Y-152247814D01*
X124400000Y-153033528D02*
X124400000Y-151533528D01*
X124400000Y-151533528D02*
X125114286Y-151533528D01*
X125900000Y-151533528D02*
X125900000Y-151890671D01*
X125542857Y-151747814D02*
X125900000Y-151890671D01*
X125900000Y-151890671D02*
X126257143Y-151747814D01*
X125685714Y-152176385D02*
X125900000Y-151890671D01*
X125900000Y-151890671D02*
X126114286Y-152176385D01*
X127042857Y-151533528D02*
X127042857Y-151890671D01*
X126685714Y-151747814D02*
X127042857Y-151890671D01*
X127042857Y-151890671D02*
X127400000Y-151747814D01*
X126828571Y-152176385D02*
X127042857Y-151890671D01*
X127042857Y-151890671D02*
X127257143Y-152176385D01*
D10*
X68666666Y-172454819D02*
X68333333Y-171978628D01*
X68095238Y-172454819D02*
X68095238Y-171454819D01*
X68095238Y-171454819D02*
X68476190Y-171454819D01*
X68476190Y-171454819D02*
X68571428Y-171502438D01*
X68571428Y-171502438D02*
X68619047Y-171550057D01*
X68619047Y-171550057D02*
X68666666Y-171645295D01*
X68666666Y-171645295D02*
X68666666Y-171788152D01*
X68666666Y-171788152D02*
X68619047Y-171883390D01*
X68619047Y-171883390D02*
X68571428Y-171931009D01*
X68571428Y-171931009D02*
X68476190Y-171978628D01*
X68476190Y-171978628D02*
X68095238Y-171978628D01*
X69095238Y-171931009D02*
X69428571Y-171931009D01*
X69571428Y-172454819D02*
X69095238Y-172454819D01*
X69095238Y-172454819D02*
X69095238Y-171454819D01*
X69095238Y-171454819D02*
X69571428Y-171454819D01*
X70333333Y-171931009D02*
X70000000Y-171931009D01*
X70000000Y-172454819D02*
X70000000Y-171454819D01*
X70000000Y-171454819D02*
X70476190Y-171454819D01*
X71000000Y-171454819D02*
X71000000Y-171692914D01*
X70761905Y-171597676D02*
X71000000Y-171692914D01*
X71000000Y-171692914D02*
X71238095Y-171597676D01*
X70857143Y-171883390D02*
X71000000Y-171692914D01*
X71000000Y-171692914D02*
X71142857Y-171883390D01*
X71761905Y-171454819D02*
X71761905Y-171692914D01*
X71523810Y-171597676D02*
X71761905Y-171692914D01*
X71761905Y-171692914D02*
X72000000Y-171597676D01*
X71619048Y-171883390D02*
X71761905Y-171692914D01*
X71761905Y-171692914D02*
X71904762Y-171883390D01*
D11*
X90800000Y-150883528D02*
X90300000Y-150169242D01*
X89942857Y-150883528D02*
X89942857Y-149383528D01*
X89942857Y-149383528D02*
X90514286Y-149383528D01*
X90514286Y-149383528D02*
X90657143Y-149454957D01*
X90657143Y-149454957D02*
X90728572Y-149526385D01*
X90728572Y-149526385D02*
X90800000Y-149669242D01*
X90800000Y-149669242D02*
X90800000Y-149883528D01*
X90800000Y-149883528D02*
X90728572Y-150026385D01*
X90728572Y-150026385D02*
X90657143Y-150097814D01*
X90657143Y-150097814D02*
X90514286Y-150169242D01*
X90514286Y-150169242D02*
X89942857Y-150169242D01*
X91442857Y-150097814D02*
X91942857Y-150097814D01*
X92157143Y-150883528D02*
X91442857Y-150883528D01*
X91442857Y-150883528D02*
X91442857Y-149383528D01*
X91442857Y-149383528D02*
X92157143Y-149383528D01*
X93300000Y-150097814D02*
X92800000Y-150097814D01*
X92800000Y-150883528D02*
X92800000Y-149383528D01*
X92800000Y-149383528D02*
X93514286Y-149383528D01*
X94300000Y-149383528D02*
X94300000Y-149740671D01*
X93942857Y-149597814D02*
X94300000Y-149740671D01*
X94300000Y-149740671D02*
X94657143Y-149597814D01*
X94085714Y-150026385D02*
X94300000Y-149740671D01*
X94300000Y-149740671D02*
X94514286Y-150026385D01*
X95442857Y-149383528D02*
X95442857Y-149740671D01*
X95085714Y-149597814D02*
X95442857Y-149740671D01*
X95442857Y-149740671D02*
X95800000Y-149597814D01*
X95228571Y-150026385D02*
X95442857Y-149740671D01*
X95442857Y-149740671D02*
X95657143Y-150026385D01*
D10*
X157666666Y-168454819D02*
X157333333Y-167978628D01*
X157095238Y-168454819D02*
X157095238Y-167454819D01*
X157095238Y-167454819D02*
X157476190Y-167454819D01*
X157476190Y-167454819D02*
X157571428Y-167502438D01*
X157571428Y-167502438D02*
X157619047Y-167550057D01*
X157619047Y-167550057D02*
X157666666Y-167645295D01*
X157666666Y-167645295D02*
X157666666Y-167788152D01*
X157666666Y-167788152D02*
X157619047Y-167883390D01*
X157619047Y-167883390D02*
X157571428Y-167931009D01*
X157571428Y-167931009D02*
X157476190Y-167978628D01*
X157476190Y-167978628D02*
X157095238Y-167978628D01*
X158095238Y-167931009D02*
X158428571Y-167931009D01*
X158571428Y-168454819D02*
X158095238Y-168454819D01*
X158095238Y-168454819D02*
X158095238Y-167454819D01*
X158095238Y-167454819D02*
X158571428Y-167454819D01*
X159333333Y-167931009D02*
X159000000Y-167931009D01*
X159000000Y-168454819D02*
X159000000Y-167454819D01*
X159000000Y-167454819D02*
X159476190Y-167454819D01*
X160000000Y-167454819D02*
X160000000Y-167692914D01*
X159761905Y-167597676D02*
X160000000Y-167692914D01*
X160000000Y-167692914D02*
X160238095Y-167597676D01*
X159857143Y-167883390D02*
X160000000Y-167692914D01*
X160000000Y-167692914D02*
X160142857Y-167883390D01*
X160761905Y-167454819D02*
X160761905Y-167692914D01*
X160523810Y-167597676D02*
X160761905Y-167692914D01*
X160761905Y-167692914D02*
X161000000Y-167597676D01*
X160619048Y-167883390D02*
X160761905Y-167692914D01*
X160761905Y-167692914D02*
X160904762Y-167883390D01*
X75810475Y-172454819D02*
X75477142Y-171978628D01*
X75239047Y-172454819D02*
X75239047Y-171454819D01*
X75239047Y-171454819D02*
X75619999Y-171454819D01*
X75619999Y-171454819D02*
X75715237Y-171502438D01*
X75715237Y-171502438D02*
X75762856Y-171550057D01*
X75762856Y-171550057D02*
X75810475Y-171645295D01*
X75810475Y-171645295D02*
X75810475Y-171788152D01*
X75810475Y-171788152D02*
X75762856Y-171883390D01*
X75762856Y-171883390D02*
X75715237Y-171931009D01*
X75715237Y-171931009D02*
X75619999Y-171978628D01*
X75619999Y-171978628D02*
X75239047Y-171978628D01*
X76239047Y-171931009D02*
X76572380Y-171931009D01*
X76715237Y-172454819D02*
X76239047Y-172454819D01*
X76239047Y-172454819D02*
X76239047Y-171454819D01*
X76239047Y-171454819D02*
X76715237Y-171454819D01*
X77477142Y-171931009D02*
X77143809Y-171931009D01*
X77143809Y-172454819D02*
X77143809Y-171454819D01*
X77143809Y-171454819D02*
X77619999Y-171454819D01*
X78143809Y-171454819D02*
X78143809Y-171692914D01*
X77905714Y-171597676D02*
X78143809Y-171692914D01*
X78143809Y-171692914D02*
X78381904Y-171597676D01*
X78000952Y-171883390D02*
X78143809Y-171692914D01*
X78143809Y-171692914D02*
X78286666Y-171883390D01*
X78905714Y-171454819D02*
X78905714Y-171692914D01*
X78667619Y-171597676D02*
X78905714Y-171692914D01*
X78905714Y-171692914D02*
X79143809Y-171597676D01*
X78762857Y-171883390D02*
X78905714Y-171692914D01*
X78905714Y-171692914D02*
X79048571Y-171883390D01*
X79429524Y-171454819D02*
X80048571Y-171454819D01*
X80048571Y-171454819D02*
X79715238Y-171835771D01*
X79715238Y-171835771D02*
X79858095Y-171835771D01*
X79858095Y-171835771D02*
X79953333Y-171883390D01*
X79953333Y-171883390D02*
X80000952Y-171931009D01*
X80000952Y-171931009D02*
X80048571Y-172026247D01*
X80048571Y-172026247D02*
X80048571Y-172264342D01*
X80048571Y-172264342D02*
X80000952Y-172359580D01*
X80000952Y-172359580D02*
X79953333Y-172407200D01*
X79953333Y-172407200D02*
X79858095Y-172454819D01*
X79858095Y-172454819D02*
X79572381Y-172454819D01*
X79572381Y-172454819D02*
X79477143Y-172407200D01*
X79477143Y-172407200D02*
X79429524Y-172359580D01*
D11*
X91500000Y-136983528D02*
X91000000Y-136269242D01*
X90642857Y-136983528D02*
X90642857Y-135483528D01*
X90642857Y-135483528D02*
X91214286Y-135483528D01*
X91214286Y-135483528D02*
X91357143Y-135554957D01*
X91357143Y-135554957D02*
X91428572Y-135626385D01*
X91428572Y-135626385D02*
X91500000Y-135769242D01*
X91500000Y-135769242D02*
X91500000Y-135983528D01*
X91500000Y-135983528D02*
X91428572Y-136126385D01*
X91428572Y-136126385D02*
X91357143Y-136197814D01*
X91357143Y-136197814D02*
X91214286Y-136269242D01*
X91214286Y-136269242D02*
X90642857Y-136269242D01*
X92142857Y-136197814D02*
X92642857Y-136197814D01*
X92857143Y-136983528D02*
X92142857Y-136983528D01*
X92142857Y-136983528D02*
X92142857Y-135483528D01*
X92142857Y-135483528D02*
X92857143Y-135483528D01*
X94000000Y-136197814D02*
X93500000Y-136197814D01*
X93500000Y-136983528D02*
X93500000Y-135483528D01*
X93500000Y-135483528D02*
X94214286Y-135483528D01*
X95000000Y-135483528D02*
X95000000Y-135840671D01*
X94642857Y-135697814D02*
X95000000Y-135840671D01*
X95000000Y-135840671D02*
X95357143Y-135697814D01*
X94785714Y-136126385D02*
X95000000Y-135840671D01*
X95000000Y-135840671D02*
X95214286Y-136126385D01*
X96142857Y-135483528D02*
X96142857Y-135840671D01*
X95785714Y-135697814D02*
X96142857Y-135840671D01*
X96142857Y-135840671D02*
X96500000Y-135697814D01*
X95928571Y-136126385D02*
X96142857Y-135840671D01*
X96142857Y-135840671D02*
X96357143Y-136126385D01*
D10*
X154650475Y-168454819D02*
X154317142Y-167978628D01*
X154079047Y-168454819D02*
X154079047Y-167454819D01*
X154079047Y-167454819D02*
X154459999Y-167454819D01*
X154459999Y-167454819D02*
X154555237Y-167502438D01*
X154555237Y-167502438D02*
X154602856Y-167550057D01*
X154602856Y-167550057D02*
X154650475Y-167645295D01*
X154650475Y-167645295D02*
X154650475Y-167788152D01*
X154650475Y-167788152D02*
X154602856Y-167883390D01*
X154602856Y-167883390D02*
X154555237Y-167931009D01*
X154555237Y-167931009D02*
X154459999Y-167978628D01*
X154459999Y-167978628D02*
X154079047Y-167978628D01*
X155079047Y-167931009D02*
X155412380Y-167931009D01*
X155555237Y-168454819D02*
X155079047Y-168454819D01*
X155079047Y-168454819D02*
X155079047Y-167454819D01*
X155079047Y-167454819D02*
X155555237Y-167454819D01*
X156317142Y-167931009D02*
X155983809Y-167931009D01*
X155983809Y-168454819D02*
X155983809Y-167454819D01*
X155983809Y-167454819D02*
X156459999Y-167454819D01*
X156983809Y-167454819D02*
X156983809Y-167692914D01*
X156745714Y-167597676D02*
X156983809Y-167692914D01*
X156983809Y-167692914D02*
X157221904Y-167597676D01*
X156840952Y-167883390D02*
X156983809Y-167692914D01*
X156983809Y-167692914D02*
X157126666Y-167883390D01*
X157745714Y-167454819D02*
X157745714Y-167692914D01*
X157507619Y-167597676D02*
X157745714Y-167692914D01*
X157745714Y-167692914D02*
X157983809Y-167597676D01*
X157602857Y-167883390D02*
X157745714Y-167692914D01*
X157745714Y-167692914D02*
X157888571Y-167883390D01*
X158888571Y-168454819D02*
X158317143Y-168454819D01*
X158602857Y-168454819D02*
X158602857Y-167454819D01*
X158602857Y-167454819D02*
X158507619Y-167597676D01*
X158507619Y-167597676D02*
X158412381Y-167692914D01*
X158412381Y-167692914D02*
X158317143Y-167740533D01*
X70730475Y-172454819D02*
X70397142Y-171978628D01*
X70159047Y-172454819D02*
X70159047Y-171454819D01*
X70159047Y-171454819D02*
X70539999Y-171454819D01*
X70539999Y-171454819D02*
X70635237Y-171502438D01*
X70635237Y-171502438D02*
X70682856Y-171550057D01*
X70682856Y-171550057D02*
X70730475Y-171645295D01*
X70730475Y-171645295D02*
X70730475Y-171788152D01*
X70730475Y-171788152D02*
X70682856Y-171883390D01*
X70682856Y-171883390D02*
X70635237Y-171931009D01*
X70635237Y-171931009D02*
X70539999Y-171978628D01*
X70539999Y-171978628D02*
X70159047Y-171978628D01*
X71159047Y-171931009D02*
X71492380Y-171931009D01*
X71635237Y-172454819D02*
X71159047Y-172454819D01*
X71159047Y-172454819D02*
X71159047Y-171454819D01*
X71159047Y-171454819D02*
X71635237Y-171454819D01*
X72397142Y-171931009D02*
X72063809Y-171931009D01*
X72063809Y-172454819D02*
X72063809Y-171454819D01*
X72063809Y-171454819D02*
X72539999Y-171454819D01*
X73063809Y-171454819D02*
X73063809Y-171692914D01*
X72825714Y-171597676D02*
X73063809Y-171692914D01*
X73063809Y-171692914D02*
X73301904Y-171597676D01*
X72920952Y-171883390D02*
X73063809Y-171692914D01*
X73063809Y-171692914D02*
X73206666Y-171883390D01*
X73825714Y-171454819D02*
X73825714Y-171692914D01*
X73587619Y-171597676D02*
X73825714Y-171692914D01*
X73825714Y-171692914D02*
X74063809Y-171597676D01*
X73682857Y-171883390D02*
X73825714Y-171692914D01*
X73825714Y-171692914D02*
X73968571Y-171883390D01*
X74968571Y-172454819D02*
X74397143Y-172454819D01*
X74682857Y-172454819D02*
X74682857Y-171454819D01*
X74682857Y-171454819D02*
X74587619Y-171597676D01*
X74587619Y-171597676D02*
X74492381Y-171692914D01*
X74492381Y-171692914D02*
X74397143Y-171740533D01*
D11*
X128500000Y-163683528D02*
X128000000Y-162969242D01*
X127642857Y-163683528D02*
X127642857Y-162183528D01*
X127642857Y-162183528D02*
X128214286Y-162183528D01*
X128214286Y-162183528D02*
X128357143Y-162254957D01*
X128357143Y-162254957D02*
X128428572Y-162326385D01*
X128428572Y-162326385D02*
X128500000Y-162469242D01*
X128500000Y-162469242D02*
X128500000Y-162683528D01*
X128500000Y-162683528D02*
X128428572Y-162826385D01*
X128428572Y-162826385D02*
X128357143Y-162897814D01*
X128357143Y-162897814D02*
X128214286Y-162969242D01*
X128214286Y-162969242D02*
X127642857Y-162969242D01*
X129142857Y-162897814D02*
X129642857Y-162897814D01*
X129857143Y-163683528D02*
X129142857Y-163683528D01*
X129142857Y-163683528D02*
X129142857Y-162183528D01*
X129142857Y-162183528D02*
X129857143Y-162183528D01*
X131000000Y-162897814D02*
X130500000Y-162897814D01*
X130500000Y-163683528D02*
X130500000Y-162183528D01*
X130500000Y-162183528D02*
X131214286Y-162183528D01*
X132000000Y-162183528D02*
X132000000Y-162540671D01*
X131642857Y-162397814D02*
X132000000Y-162540671D01*
X132000000Y-162540671D02*
X132357143Y-162397814D01*
X131785714Y-162826385D02*
X132000000Y-162540671D01*
X132000000Y-162540671D02*
X132214286Y-162826385D01*
X133142857Y-162183528D02*
X133142857Y-162540671D01*
X132785714Y-162397814D02*
X133142857Y-162540671D01*
X133142857Y-162540671D02*
X133500000Y-162397814D01*
X132928571Y-162826385D02*
X133142857Y-162540671D01*
X133142857Y-162540671D02*
X133357143Y-162826385D01*
D10*
X84561666Y-127844819D02*
X84561666Y-128559104D01*
X84561666Y-128559104D02*
X84514047Y-128701961D01*
X84514047Y-128701961D02*
X84418809Y-128797200D01*
X84418809Y-128797200D02*
X84275952Y-128844819D01*
X84275952Y-128844819D02*
X84180714Y-128844819D01*
X84990238Y-127940057D02*
X85037857Y-127892438D01*
X85037857Y-127892438D02*
X85133095Y-127844819D01*
X85133095Y-127844819D02*
X85371190Y-127844819D01*
X85371190Y-127844819D02*
X85466428Y-127892438D01*
X85466428Y-127892438D02*
X85514047Y-127940057D01*
X85514047Y-127940057D02*
X85561666Y-128035295D01*
X85561666Y-128035295D02*
X85561666Y-128130533D01*
X85561666Y-128130533D02*
X85514047Y-128273390D01*
X85514047Y-128273390D02*
X84942619Y-128844819D01*
X84942619Y-128844819D02*
X85561666Y-128844819D01*
X149570475Y-168454819D02*
X149237142Y-167978628D01*
X148999047Y-168454819D02*
X148999047Y-167454819D01*
X148999047Y-167454819D02*
X149379999Y-167454819D01*
X149379999Y-167454819D02*
X149475237Y-167502438D01*
X149475237Y-167502438D02*
X149522856Y-167550057D01*
X149522856Y-167550057D02*
X149570475Y-167645295D01*
X149570475Y-167645295D02*
X149570475Y-167788152D01*
X149570475Y-167788152D02*
X149522856Y-167883390D01*
X149522856Y-167883390D02*
X149475237Y-167931009D01*
X149475237Y-167931009D02*
X149379999Y-167978628D01*
X149379999Y-167978628D02*
X148999047Y-167978628D01*
X149999047Y-167931009D02*
X150332380Y-167931009D01*
X150475237Y-168454819D02*
X149999047Y-168454819D01*
X149999047Y-168454819D02*
X149999047Y-167454819D01*
X149999047Y-167454819D02*
X150475237Y-167454819D01*
X151237142Y-167931009D02*
X150903809Y-167931009D01*
X150903809Y-168454819D02*
X150903809Y-167454819D01*
X150903809Y-167454819D02*
X151379999Y-167454819D01*
X151903809Y-167454819D02*
X151903809Y-167692914D01*
X151665714Y-167597676D02*
X151903809Y-167692914D01*
X151903809Y-167692914D02*
X152141904Y-167597676D01*
X151760952Y-167883390D02*
X151903809Y-167692914D01*
X151903809Y-167692914D02*
X152046666Y-167883390D01*
X152665714Y-167454819D02*
X152665714Y-167692914D01*
X152427619Y-167597676D02*
X152665714Y-167692914D01*
X152665714Y-167692914D02*
X152903809Y-167597676D01*
X152522857Y-167883390D02*
X152665714Y-167692914D01*
X152665714Y-167692914D02*
X152808571Y-167883390D01*
X153189524Y-167454819D02*
X153808571Y-167454819D01*
X153808571Y-167454819D02*
X153475238Y-167835771D01*
X153475238Y-167835771D02*
X153618095Y-167835771D01*
X153618095Y-167835771D02*
X153713333Y-167883390D01*
X153713333Y-167883390D02*
X153760952Y-167931009D01*
X153760952Y-167931009D02*
X153808571Y-168026247D01*
X153808571Y-168026247D02*
X153808571Y-168264342D01*
X153808571Y-168264342D02*
X153760952Y-168359580D01*
X153760952Y-168359580D02*
X153713333Y-168407200D01*
X153713333Y-168407200D02*
X153618095Y-168454819D01*
X153618095Y-168454819D02*
X153332381Y-168454819D01*
X153332381Y-168454819D02*
X153237143Y-168407200D01*
X153237143Y-168407200D02*
X153189524Y-168359580D01*
X78350475Y-172454819D02*
X78017142Y-171978628D01*
X77779047Y-172454819D02*
X77779047Y-171454819D01*
X77779047Y-171454819D02*
X78159999Y-171454819D01*
X78159999Y-171454819D02*
X78255237Y-171502438D01*
X78255237Y-171502438D02*
X78302856Y-171550057D01*
X78302856Y-171550057D02*
X78350475Y-171645295D01*
X78350475Y-171645295D02*
X78350475Y-171788152D01*
X78350475Y-171788152D02*
X78302856Y-171883390D01*
X78302856Y-171883390D02*
X78255237Y-171931009D01*
X78255237Y-171931009D02*
X78159999Y-171978628D01*
X78159999Y-171978628D02*
X77779047Y-171978628D01*
X78779047Y-171931009D02*
X79112380Y-171931009D01*
X79255237Y-172454819D02*
X78779047Y-172454819D01*
X78779047Y-172454819D02*
X78779047Y-171454819D01*
X78779047Y-171454819D02*
X79255237Y-171454819D01*
X80017142Y-171931009D02*
X79683809Y-171931009D01*
X79683809Y-172454819D02*
X79683809Y-171454819D01*
X79683809Y-171454819D02*
X80159999Y-171454819D01*
X80683809Y-171454819D02*
X80683809Y-171692914D01*
X80445714Y-171597676D02*
X80683809Y-171692914D01*
X80683809Y-171692914D02*
X80921904Y-171597676D01*
X80540952Y-171883390D02*
X80683809Y-171692914D01*
X80683809Y-171692914D02*
X80826666Y-171883390D01*
X81445714Y-171454819D02*
X81445714Y-171692914D01*
X81207619Y-171597676D02*
X81445714Y-171692914D01*
X81445714Y-171692914D02*
X81683809Y-171597676D01*
X81302857Y-171883390D02*
X81445714Y-171692914D01*
X81445714Y-171692914D02*
X81588571Y-171883390D01*
X82493333Y-171788152D02*
X82493333Y-172454819D01*
X82255238Y-171407200D02*
X82017143Y-172121485D01*
X82017143Y-172121485D02*
X82636190Y-172121485D01*
X73270475Y-172454819D02*
X72937142Y-171978628D01*
X72699047Y-172454819D02*
X72699047Y-171454819D01*
X72699047Y-171454819D02*
X73079999Y-171454819D01*
X73079999Y-171454819D02*
X73175237Y-171502438D01*
X73175237Y-171502438D02*
X73222856Y-171550057D01*
X73222856Y-171550057D02*
X73270475Y-171645295D01*
X73270475Y-171645295D02*
X73270475Y-171788152D01*
X73270475Y-171788152D02*
X73222856Y-171883390D01*
X73222856Y-171883390D02*
X73175237Y-171931009D01*
X73175237Y-171931009D02*
X73079999Y-171978628D01*
X73079999Y-171978628D02*
X72699047Y-171978628D01*
X73699047Y-171931009D02*
X74032380Y-171931009D01*
X74175237Y-172454819D02*
X73699047Y-172454819D01*
X73699047Y-172454819D02*
X73699047Y-171454819D01*
X73699047Y-171454819D02*
X74175237Y-171454819D01*
X74937142Y-171931009D02*
X74603809Y-171931009D01*
X74603809Y-172454819D02*
X74603809Y-171454819D01*
X74603809Y-171454819D02*
X75079999Y-171454819D01*
X75603809Y-171454819D02*
X75603809Y-171692914D01*
X75365714Y-171597676D02*
X75603809Y-171692914D01*
X75603809Y-171692914D02*
X75841904Y-171597676D01*
X75460952Y-171883390D02*
X75603809Y-171692914D01*
X75603809Y-171692914D02*
X75746666Y-171883390D01*
X76365714Y-171454819D02*
X76365714Y-171692914D01*
X76127619Y-171597676D02*
X76365714Y-171692914D01*
X76365714Y-171692914D02*
X76603809Y-171597676D01*
X76222857Y-171883390D02*
X76365714Y-171692914D01*
X76365714Y-171692914D02*
X76508571Y-171883390D01*
X76937143Y-171550057D02*
X76984762Y-171502438D01*
X76984762Y-171502438D02*
X77080000Y-171454819D01*
X77080000Y-171454819D02*
X77318095Y-171454819D01*
X77318095Y-171454819D02*
X77413333Y-171502438D01*
X77413333Y-171502438D02*
X77460952Y-171550057D01*
X77460952Y-171550057D02*
X77508571Y-171645295D01*
X77508571Y-171645295D02*
X77508571Y-171740533D01*
X77508571Y-171740533D02*
X77460952Y-171883390D01*
X77460952Y-171883390D02*
X76889524Y-172454819D01*
X76889524Y-172454819D02*
X77508571Y-172454819D01*
X147030475Y-168454819D02*
X146697142Y-167978628D01*
X146459047Y-168454819D02*
X146459047Y-167454819D01*
X146459047Y-167454819D02*
X146839999Y-167454819D01*
X146839999Y-167454819D02*
X146935237Y-167502438D01*
X146935237Y-167502438D02*
X146982856Y-167550057D01*
X146982856Y-167550057D02*
X147030475Y-167645295D01*
X147030475Y-167645295D02*
X147030475Y-167788152D01*
X147030475Y-167788152D02*
X146982856Y-167883390D01*
X146982856Y-167883390D02*
X146935237Y-167931009D01*
X146935237Y-167931009D02*
X146839999Y-167978628D01*
X146839999Y-167978628D02*
X146459047Y-167978628D01*
X147459047Y-167931009D02*
X147792380Y-167931009D01*
X147935237Y-168454819D02*
X147459047Y-168454819D01*
X147459047Y-168454819D02*
X147459047Y-167454819D01*
X147459047Y-167454819D02*
X147935237Y-167454819D01*
X148697142Y-167931009D02*
X148363809Y-167931009D01*
X148363809Y-168454819D02*
X148363809Y-167454819D01*
X148363809Y-167454819D02*
X148839999Y-167454819D01*
X149363809Y-167454819D02*
X149363809Y-167692914D01*
X149125714Y-167597676D02*
X149363809Y-167692914D01*
X149363809Y-167692914D02*
X149601904Y-167597676D01*
X149220952Y-167883390D02*
X149363809Y-167692914D01*
X149363809Y-167692914D02*
X149506666Y-167883390D01*
X150125714Y-167454819D02*
X150125714Y-167692914D01*
X149887619Y-167597676D02*
X150125714Y-167692914D01*
X150125714Y-167692914D02*
X150363809Y-167597676D01*
X149982857Y-167883390D02*
X150125714Y-167692914D01*
X150125714Y-167692914D02*
X150268571Y-167883390D01*
X151173333Y-167788152D02*
X151173333Y-168454819D01*
X150935238Y-167407200D02*
X150697143Y-168121485D01*
X150697143Y-168121485D02*
X151316190Y-168121485D01*
D12*
X148442580Y-166316666D02*
X148918771Y-165983333D01*
X148442580Y-165745238D02*
X149442580Y-165745238D01*
X149442580Y-165745238D02*
X149442580Y-166126190D01*
X149442580Y-166126190D02*
X149394961Y-166221428D01*
X149394961Y-166221428D02*
X149347342Y-166269047D01*
X149347342Y-166269047D02*
X149252104Y-166316666D01*
X149252104Y-166316666D02*
X149109247Y-166316666D01*
X149109247Y-166316666D02*
X149014009Y-166269047D01*
X149014009Y-166269047D02*
X148966390Y-166221428D01*
X148966390Y-166221428D02*
X148918771Y-166126190D01*
X148918771Y-166126190D02*
X148918771Y-165745238D01*
X148966390Y-166745238D02*
X148966390Y-167078571D01*
X148442580Y-167221428D02*
X148442580Y-166745238D01*
X148442580Y-166745238D02*
X149442580Y-166745238D01*
X149442580Y-166745238D02*
X149442580Y-167221428D01*
X148966390Y-167983333D02*
X148966390Y-167650000D01*
X148442580Y-167650000D02*
X149442580Y-167650000D01*
X149442580Y-167650000D02*
X149442580Y-168126190D01*
X149442580Y-168650000D02*
X149204485Y-168650000D01*
X149299723Y-168411905D02*
X149204485Y-168650000D01*
X149204485Y-168650000D02*
X149299723Y-168888095D01*
X149014009Y-168507143D02*
X149204485Y-168650000D01*
X149204485Y-168650000D02*
X149014009Y-168792857D01*
X149442580Y-169411905D02*
X149204485Y-169411905D01*
X149299723Y-169173810D02*
X149204485Y-169411905D01*
X149204485Y-169411905D02*
X149299723Y-169650000D01*
X149014009Y-169269048D02*
X149204485Y-169411905D01*
X149204485Y-169411905D02*
X149014009Y-169554762D01*
D11*
X153832933Y-128092231D02*
X153832933Y-126568422D01*
X154594838Y-127330326D02*
X153071028Y-127330326D01*
X153882933Y-208691248D02*
X153882933Y-207167439D01*
%TO.C,C14*%
D13*
X103457836Y-147090000D02*
X103242164Y-147090000D01*
X103457836Y-147810000D02*
X103242164Y-147810000D01*
%TO.C,TP6*%
X130650000Y-116200000D02*
G75*
G02*
X128750000Y-116200000I-950000J0D01*
G01*
X128750000Y-116200000D02*
G75*
G02*
X130650000Y-116200000I950000J0D01*
G01*
%TO.C,R42*%
X118395000Y-141353641D02*
X118395000Y-141046359D01*
X119155000Y-141353641D02*
X119155000Y-141046359D01*
%TO.C,R18*%
X121170000Y-125996359D02*
X121170000Y-126303641D01*
X121930000Y-125996359D02*
X121930000Y-126303641D01*
%TO.C,R4*%
X116420000Y-150246359D02*
X116420000Y-150553641D01*
X117180000Y-150246359D02*
X117180000Y-150553641D01*
%TO.C,C21*%
X123440000Y-125042164D02*
X123440000Y-125257836D01*
X124160000Y-125042164D02*
X124160000Y-125257836D01*
%TO.C,R3*%
X106770000Y-148746359D02*
X106770000Y-149053641D01*
X107530000Y-148746359D02*
X107530000Y-149053641D01*
%TO.C,C2*%
X108592164Y-150640000D02*
X108807836Y-150640000D01*
X108592164Y-151360000D02*
X108807836Y-151360000D01*
%TO.C,Q5*%
D10*
X104290000Y-197560000D02*
X104290000Y-196910000D01*
X104290000Y-197560000D02*
X104290000Y-198210000D01*
X107410000Y-197560000D02*
X107410000Y-196910000D01*
X107410000Y-197560000D02*
X107410000Y-198210000D01*
D13*
X104340000Y-198722500D02*
X104010000Y-198962500D01*
X104010000Y-198482500D01*
X104340000Y-198722500D01*
G36*
X104340000Y-198722500D02*
G01*
X104010000Y-198962500D01*
X104010000Y-198482500D01*
X104340000Y-198722500D01*
G37*
%TO.C,R28*%
X110173641Y-199570000D02*
X109866359Y-199570000D01*
X110173641Y-200330000D02*
X109866359Y-200330000D01*
%TO.C,R21*%
X138103641Y-113720000D02*
X137796359Y-113720000D01*
X138103641Y-114480000D02*
X137796359Y-114480000D01*
%TO.C,R15*%
X119120000Y-126303641D02*
X119120000Y-125996359D01*
X119880000Y-126303641D02*
X119880000Y-125996359D01*
%TO.C,Q6*%
D10*
X108940000Y-197560000D02*
X108940000Y-196910000D01*
X108940000Y-197560000D02*
X108940000Y-198210000D01*
X112060000Y-197560000D02*
X112060000Y-196910000D01*
X112060000Y-197560000D02*
X112060000Y-198210000D01*
D13*
X108990000Y-198722500D02*
X108660000Y-198962500D01*
X108660000Y-198482500D01*
X108990000Y-198722500D01*
G36*
X108990000Y-198722500D02*
G01*
X108660000Y-198962500D01*
X108660000Y-198482500D01*
X108990000Y-198722500D01*
G37*
%TO.C,J5*%
X111465000Y-149915000D02*
X112845000Y-149915000D01*
X111465000Y-151295000D02*
X111465000Y-149915000D01*
X111465000Y-152565000D02*
X111465000Y-157755000D01*
X111465000Y-152565000D02*
X114225000Y-152565000D01*
X111465000Y-157755000D02*
X114225000Y-157755000D01*
X114225000Y-152565000D02*
X114225000Y-157755000D01*
%TO.C,R19*%
X117956359Y-127820000D02*
X118263641Y-127820000D01*
X117956359Y-128580000D02*
X118263641Y-128580000D01*
%TO.C,C20*%
X121459420Y-116640000D02*
X121740580Y-116640000D01*
X121459420Y-117660000D02*
X121740580Y-117660000D01*
%TO.C,JP5*%
X98910000Y-161150000D02*
X100910000Y-161150000D01*
X98910000Y-163950000D02*
X98910000Y-161150000D01*
X100910000Y-161150000D02*
X100910000Y-163950000D01*
X100910000Y-163950000D02*
X98910000Y-163950000D01*
%TO.C,U14*%
D10*
X112950000Y-174040000D02*
X123010000Y-174040000D01*
X112950000Y-177080000D02*
X112950000Y-174040000D01*
X123010000Y-174040000D02*
X123010000Y-177080000D01*
X123010000Y-177080000D02*
X112950000Y-177080000D01*
X113010000Y-177310000D02*
G75*
G02*
X112950000Y-177310000I-30000J0D01*
G01*
X112950000Y-177310000D02*
G75*
G02*
X113010000Y-177310000I30000J0D01*
G01*
%TO.C,C27*%
D13*
X88410000Y-204704437D02*
X88410000Y-209160000D01*
X88410000Y-209160000D02*
X90110000Y-209160000D01*
X89474437Y-203640000D02*
X88410000Y-204704437D01*
X89474437Y-203640000D02*
X90110000Y-203640000D01*
X92855000Y-202775000D02*
X92855000Y-203400000D01*
X92865563Y-203640000D02*
X92230000Y-203640000D01*
X92865563Y-203640000D02*
X93930000Y-204704437D01*
X93167500Y-203087500D02*
X92542500Y-203087500D01*
X93930000Y-204704437D02*
X93930000Y-209160000D01*
X93930000Y-209160000D02*
X92230000Y-209160000D01*
%TO.C,R27*%
X105623641Y-199570000D02*
X105316359Y-199570000D01*
X105623641Y-200330000D02*
X105316359Y-200330000D01*
%TO.C,U3*%
X118702500Y-120140000D02*
X119177500Y-120140000D01*
X118702500Y-120615000D02*
X118702500Y-120140000D01*
X118702500Y-124360000D02*
X118702500Y-123885000D01*
X119177500Y-124360000D02*
X118702500Y-124360000D01*
X122447500Y-120140000D02*
X122922500Y-120140000D01*
X122922500Y-120140000D02*
X122922500Y-120615000D01*
X122922500Y-123885000D02*
X122922500Y-124360000D01*
X122922500Y-124360000D02*
X122447500Y-124360000D01*
X118172500Y-121000000D02*
X117842500Y-121240000D01*
X117842500Y-120760000D01*
X118172500Y-121000000D01*
G36*
X118172500Y-121000000D02*
G01*
X117842500Y-121240000D01*
X117842500Y-120760000D01*
X118172500Y-121000000D01*
G37*
%TO.C,TP9*%
X86520000Y-203200000D02*
G75*
G02*
X84620000Y-203200000I-950000J0D01*
G01*
X84620000Y-203200000D02*
G75*
G02*
X86520000Y-203200000I950000J0D01*
G01*
%TO.C,R12*%
X111570000Y-118646359D02*
X111570000Y-118953641D01*
X112330000Y-118646359D02*
X112330000Y-118953641D01*
%TO.C,U22*%
D10*
X123150000Y-132450000D02*
X123150000Y-132600000D01*
X123150000Y-132450000D02*
X124950000Y-132450000D01*
X123150000Y-133500000D02*
X123150000Y-134500000D01*
X123150000Y-135400000D02*
X123150000Y-135550000D01*
X123150000Y-135550000D02*
X124950000Y-135550000D01*
X124950000Y-132450000D02*
X124950000Y-132600000D01*
X124950000Y-133500000D02*
X124950000Y-133550000D01*
X124950000Y-134450000D02*
X124950000Y-134500000D01*
X124950000Y-135400000D02*
X124950000Y-135550000D01*
X125300000Y-135500000D02*
G75*
G02*
X125240000Y-135500000I-30000J0D01*
G01*
X125240000Y-135500000D02*
G75*
G02*
X125300000Y-135500000I30000J0D01*
G01*
%TO.C,JP10*%
D13*
X106216081Y-164870810D02*
X108216081Y-164870810D01*
X106216081Y-167670810D02*
X106216081Y-164870810D01*
X108216081Y-164870810D02*
X108216081Y-167670810D01*
X108216081Y-167670810D02*
X106216081Y-167670810D01*
%TO.C,TP5*%
X111360000Y-128870000D02*
G75*
G02*
X109460000Y-128870000I-950000J0D01*
G01*
X109460000Y-128870000D02*
G75*
G02*
X111360000Y-128870000I950000J0D01*
G01*
%TO.C,JP7*%
X101450000Y-161150000D02*
X103450000Y-161150000D01*
X101450000Y-163950000D02*
X101450000Y-161150000D01*
X103450000Y-161150000D02*
X103450000Y-163950000D01*
X103450000Y-163950000D02*
X101450000Y-163950000D01*
%TO.C,TP7*%
X130550000Y-127100000D02*
G75*
G02*
X128650000Y-127100000I-950000J0D01*
G01*
X128650000Y-127100000D02*
G75*
G02*
X130550000Y-127100000I950000J0D01*
G01*
%TO.C,U2*%
X101940000Y-135440000D02*
X102890000Y-135440000D01*
X101940000Y-136390000D02*
X101940000Y-135440000D01*
X101940000Y-145660000D02*
X101940000Y-144710000D01*
X102890000Y-145660000D02*
X101940000Y-145660000D01*
X111210000Y-135440000D02*
X112160000Y-135440000D01*
X112160000Y-135440000D02*
X112160000Y-136390000D01*
X112160000Y-144710000D02*
X112160000Y-145660000D01*
X112160000Y-145660000D02*
X111210000Y-145660000D01*
X101440000Y-136750000D02*
X101110000Y-136990000D01*
X101110000Y-136510000D01*
X101440000Y-136750000D01*
G36*
X101440000Y-136750000D02*
G01*
X101110000Y-136990000D01*
X101110000Y-136510000D01*
X101440000Y-136750000D01*
G37*
%TO.C,C25*%
X146550000Y-119687836D02*
X146550000Y-119472164D01*
X147270000Y-119687836D02*
X147270000Y-119472164D01*
%TO.C,Q3*%
D10*
X95090000Y-197510000D02*
X95090000Y-196860000D01*
X95090000Y-197510000D02*
X95090000Y-198160000D01*
X98210000Y-197510000D02*
X98210000Y-196860000D01*
X98210000Y-197510000D02*
X98210000Y-198160000D01*
D13*
X95140000Y-198672500D02*
X94810000Y-198912500D01*
X94810000Y-198432500D01*
X95140000Y-198672500D01*
G36*
X95140000Y-198672500D02*
G01*
X94810000Y-198912500D01*
X94810000Y-198432500D01*
X95140000Y-198672500D01*
G37*
%TO.C,R36*%
X101845000Y-181003641D02*
X101845000Y-180696359D01*
X102605000Y-181003641D02*
X102605000Y-180696359D01*
%TO.C,D1*%
X120715000Y-110750000D02*
X120715000Y-113035000D01*
X120715000Y-113035000D02*
X122185000Y-113035000D01*
X122185000Y-113035000D02*
X122185000Y-110750000D01*
%TO.C,Q2*%
D10*
X136590000Y-117460000D02*
X136590000Y-116810000D01*
X136590000Y-117460000D02*
X136590000Y-118110000D01*
X139710000Y-117460000D02*
X139710000Y-116810000D01*
X139710000Y-117460000D02*
X139710000Y-118110000D01*
D13*
X139990000Y-116537500D02*
X139660000Y-116297500D01*
X139990000Y-116057500D01*
X139990000Y-116537500D01*
G36*
X139990000Y-116537500D02*
G01*
X139660000Y-116297500D01*
X139990000Y-116057500D01*
X139990000Y-116537500D01*
G37*
%TO.C,C7*%
X112190000Y-133912164D02*
X112190000Y-134127836D01*
X112910000Y-133912164D02*
X112910000Y-134127836D01*
%TO.C,C17*%
X104315000Y-133632836D02*
X104315000Y-133417164D01*
X105035000Y-133632836D02*
X105035000Y-133417164D01*
%TO.C,C24*%
X127290000Y-121572164D02*
X127290000Y-121787836D01*
X128010000Y-121572164D02*
X128010000Y-121787836D01*
%TO.C,R33*%
X100695000Y-181003641D02*
X100695000Y-180696359D01*
X101455000Y-181003641D02*
X101455000Y-180696359D01*
%TO.C,C26*%
X155340000Y-114807836D02*
X155340000Y-114592164D01*
X156060000Y-114807836D02*
X156060000Y-114592164D01*
%TO.C,JP14*%
X111980000Y-164900000D02*
X113980000Y-164900000D01*
X111980000Y-167700000D02*
X111980000Y-164900000D01*
X113980000Y-164900000D02*
X113980000Y-167700000D01*
X113980000Y-167700000D02*
X111980000Y-167700000D01*
%TO.C,R38*%
X103045000Y-181003641D02*
X103045000Y-180696359D01*
X103805000Y-181003641D02*
X103805000Y-180696359D01*
%TO.C,C9*%
X116342164Y-140190000D02*
X116557836Y-140190000D01*
X116342164Y-140910000D02*
X116557836Y-140910000D01*
%TO.C,R23*%
X81413641Y-196670000D02*
X81106359Y-196670000D01*
X81413641Y-197430000D02*
X81106359Y-197430000D01*
%TO.C,JP9*%
X103990000Y-161150000D02*
X105990000Y-161150000D01*
X103990000Y-163950000D02*
X103990000Y-161150000D01*
X105990000Y-161150000D02*
X105990000Y-163950000D01*
X105990000Y-163950000D02*
X103990000Y-163950000D01*
%TO.C,C38*%
X124382836Y-136940000D02*
X124167164Y-136940000D01*
X124382836Y-137660000D02*
X124167164Y-137660000D01*
%TO.C,JP3*%
X95350000Y-161200000D02*
X97350000Y-161200000D01*
X95350000Y-164000000D02*
X95350000Y-161200000D01*
X97350000Y-161200000D02*
X97350000Y-164000000D01*
X97350000Y-164000000D02*
X95350000Y-164000000D01*
%TO.C,C39*%
X114192164Y-135790000D02*
X114407836Y-135790000D01*
X114192164Y-136510000D02*
X114407836Y-136510000D01*
%TO.C,C36*%
X125640000Y-136317164D02*
X125640000Y-136532836D01*
X126360000Y-136317164D02*
X126360000Y-136532836D01*
%TO.C,R16*%
X120170000Y-125996359D02*
X120170000Y-126303641D01*
X120930000Y-125996359D02*
X120930000Y-126303641D01*
%TO.C,L1*%
D10*
X109225000Y-130850000D02*
G75*
G02*
X109075000Y-130850000I-75000J0D01*
G01*
X109075000Y-130850000D02*
G75*
G02*
X109225000Y-130850000I75000J0D01*
G01*
%TO.C,R13*%
D13*
X116789940Y-122522659D02*
X116572659Y-122739940D01*
X117327341Y-123060060D02*
X117110060Y-123277341D01*
%TO.C,U4*%
X150600000Y-116240000D02*
X154360000Y-116240000D01*
X150600000Y-123060000D02*
X154360000Y-123060000D01*
X154360000Y-116240000D02*
X154360000Y-117500000D01*
X154360000Y-123060000D02*
X154360000Y-121800000D01*
X149320000Y-116340000D02*
X149080000Y-116010000D01*
X149560000Y-116010000D01*
X149320000Y-116340000D01*
G36*
X149320000Y-116340000D02*
G01*
X149080000Y-116010000D01*
X149560000Y-116010000D01*
X149320000Y-116340000D01*
G37*
%TO.C,TP8*%
X82970000Y-203200000D02*
G75*
G02*
X81070000Y-203200000I-950000J0D01*
G01*
X81070000Y-203200000D02*
G75*
G02*
X82970000Y-203200000I950000J0D01*
G01*
%TO.C,C37*%
X123922164Y-130440000D02*
X124137836Y-130440000D01*
X123922164Y-131160000D02*
X124137836Y-131160000D01*
%TO.C,C16*%
X99457836Y-142140000D02*
X99242164Y-142140000D01*
X99457836Y-142860000D02*
X99242164Y-142860000D01*
%TO.C,R5*%
X112170000Y-131971359D02*
X112170000Y-132278641D01*
X112930000Y-131971359D02*
X112930000Y-132278641D01*
%TO.C,U10*%
D10*
X90270000Y-173840000D02*
X100330000Y-173840000D01*
X90270000Y-176880000D02*
X90270000Y-173840000D01*
X100330000Y-173840000D02*
X100330000Y-176880000D01*
X100330000Y-176880000D02*
X90270000Y-176880000D01*
X90330000Y-177110000D02*
G75*
G02*
X90270000Y-177110000I-30000J0D01*
G01*
X90270000Y-177110000D02*
G75*
G02*
X90330000Y-177110000I30000J0D01*
G01*
%TO.C,J1*%
D13*
X78940000Y-112720000D02*
X78940000Y-118020000D01*
X101910000Y-112720000D02*
X78940000Y-112720000D01*
X101910000Y-112720000D02*
X101910000Y-115370000D01*
X101910000Y-115370000D02*
X104560000Y-115370000D01*
X103180000Y-112720000D02*
X104560000Y-112720000D01*
X104560000Y-112720000D02*
X104560000Y-114100000D01*
X104560000Y-115370000D02*
X104560000Y-118020000D01*
X104560000Y-118020000D02*
X78940000Y-118020000D01*
%TO.C,JP15*%
X113120000Y-161200000D02*
X115120000Y-161200000D01*
X113120000Y-164000000D02*
X113120000Y-161200000D01*
X115120000Y-161200000D02*
X115120000Y-164000000D01*
X115120000Y-164000000D02*
X113120000Y-164000000D01*
%TO.C,C4*%
X109933943Y-134115000D02*
X110149615Y-134115000D01*
X109933943Y-134835000D02*
X110149615Y-134835000D01*
%TO.C,R41*%
X125345000Y-131028641D02*
X125345000Y-130721359D01*
X126105000Y-131028641D02*
X126105000Y-130721359D01*
%TO.C,Q1*%
D10*
X140090000Y-114500000D02*
X140090000Y-113850000D01*
X140090000Y-114500000D02*
X140090000Y-115150000D01*
X143210000Y-114500000D02*
X143210000Y-113850000D01*
X143210000Y-114500000D02*
X143210000Y-115150000D01*
D13*
X140140000Y-115662500D02*
X139810000Y-115902500D01*
X139810000Y-115422500D01*
X140140000Y-115662500D01*
G36*
X140140000Y-115662500D02*
G01*
X139810000Y-115902500D01*
X139810000Y-115422500D01*
X140140000Y-115662500D01*
G37*
%TO.C,C18*%
X115592164Y-141115000D02*
X115807836Y-141115000D01*
X115592164Y-141835000D02*
X115807836Y-141835000D01*
%TO.C,JP12*%
X108756081Y-164870810D02*
X110756081Y-164870810D01*
X108756081Y-167670810D02*
X108756081Y-164870810D01*
X110756081Y-164870810D02*
X110756081Y-167670810D01*
X110756081Y-167670810D02*
X108756081Y-167670810D01*
%TO.C,JP2*%
X94210000Y-164900000D02*
X96210000Y-164900000D01*
X94210000Y-167700000D02*
X94210000Y-164900000D01*
X96210000Y-164900000D02*
X96210000Y-167700000D01*
X96210000Y-167700000D02*
X94210000Y-167700000D01*
%TO.C,JP6*%
X100310000Y-164850000D02*
X102310000Y-164850000D01*
X100310000Y-167650000D02*
X100310000Y-164850000D01*
X102310000Y-164850000D02*
X102310000Y-167650000D01*
X102310000Y-167650000D02*
X100310000Y-167650000D01*
%TO.C,JP1*%
X92810000Y-161200000D02*
X94810000Y-161200000D01*
X92810000Y-164000000D02*
X92810000Y-161200000D01*
X94810000Y-161200000D02*
X94810000Y-164000000D01*
X94810000Y-164000000D02*
X92810000Y-164000000D01*
%TO.C,R39*%
X115695000Y-181178641D02*
X115695000Y-180871359D01*
X116455000Y-181178641D02*
X116455000Y-180871359D01*
%TO.C,JP18*%
X117910000Y-164900000D02*
X119910000Y-164900000D01*
X117910000Y-167700000D02*
X117910000Y-164900000D01*
X119910000Y-164900000D02*
X119910000Y-167700000D01*
X119910000Y-167700000D02*
X117910000Y-167700000D01*
%TO.C,J2*%
X82245000Y-129390000D02*
X83625000Y-129390000D01*
X82245000Y-130770000D02*
X82245000Y-129390000D01*
X82245000Y-132040000D02*
X82245000Y-155010000D01*
X82245000Y-132040000D02*
X84895000Y-132040000D01*
X82245000Y-155010000D02*
X87545000Y-155010000D01*
X84895000Y-129390000D02*
X87545000Y-129390000D01*
X84895000Y-132040000D02*
X84895000Y-129390000D01*
X87545000Y-129390000D02*
X87545000Y-155010000D01*
%TO.C,R43*%
X126770000Y-136303641D02*
X126770000Y-135996359D01*
X127530000Y-136303641D02*
X127530000Y-135996359D01*
%TO.C,D3*%
X115965000Y-125965000D02*
X115965000Y-127435000D01*
X115965000Y-127435000D02*
X118250000Y-127435000D01*
X118250000Y-125965000D02*
X115965000Y-125965000D01*
%TO.C,R29*%
X89220000Y-181088641D02*
X89220000Y-180781359D01*
X89980000Y-181088641D02*
X89980000Y-180781359D01*
%TO.C,Q7*%
D10*
X120150000Y-142210000D02*
X122840000Y-142210000D01*
X122840000Y-140290000D02*
X120150000Y-140290000D01*
X122840000Y-142210000D02*
X122840000Y-140290000D01*
%TO.C,U6*%
D13*
X72927500Y-191292500D02*
X77047500Y-191292500D01*
X72927500Y-191322500D02*
X72927500Y-191292500D01*
X72927500Y-201412500D02*
X72927500Y-201382500D01*
X77047500Y-191292500D02*
X77047500Y-191322500D01*
X77047500Y-201382500D02*
X77047500Y-201412500D01*
X77047500Y-201412500D02*
X72927500Y-201412500D01*
X78097500Y-201712500D02*
X77617500Y-201712500D01*
X77857500Y-201382500D01*
X78097500Y-201712500D01*
G36*
X78097500Y-201712500D02*
G01*
X77617500Y-201712500D01*
X77857500Y-201382500D01*
X78097500Y-201712500D01*
G37*
%TO.C,JP21*%
X121590000Y-161200000D02*
X123590000Y-161200000D01*
X121590000Y-164000000D02*
X121590000Y-161200000D01*
X123590000Y-161200000D02*
X123590000Y-164000000D01*
X123590000Y-164000000D02*
X121590000Y-164000000D01*
%TO.C,R31*%
X112020000Y-181128641D02*
X112020000Y-180821359D01*
X112780000Y-181128641D02*
X112780000Y-180821359D01*
%TO.C,R6*%
X104146359Y-126120000D02*
X104453641Y-126120000D01*
X104146359Y-126880000D02*
X104453641Y-126880000D01*
%TO.C,R37*%
X114420000Y-181153641D02*
X114420000Y-180846359D01*
X115180000Y-181153641D02*
X115180000Y-180846359D01*
%TO.C,C8*%
X108140000Y-148792164D02*
X108140000Y-149007836D01*
X108860000Y-148792164D02*
X108860000Y-149007836D01*
%TO.C,R7*%
X106570000Y-133346359D02*
X106570000Y-133653641D01*
X107330000Y-133346359D02*
X107330000Y-133653641D01*
%TO.C,R45*%
X123896359Y-131445000D02*
X124203641Y-131445000D01*
X123896359Y-132205000D02*
X124203641Y-132205000D01*
%TO.C,Q4*%
D10*
X99690000Y-197510000D02*
X99690000Y-196860000D01*
X99690000Y-197510000D02*
X99690000Y-198160000D01*
X102810000Y-197510000D02*
X102810000Y-196860000D01*
X102810000Y-197510000D02*
X102810000Y-198160000D01*
D13*
X99740000Y-198672500D02*
X99410000Y-198912500D01*
X99410000Y-198432500D01*
X99740000Y-198672500D01*
G36*
X99740000Y-198672500D02*
G01*
X99410000Y-198912500D01*
X99410000Y-198432500D01*
X99740000Y-198672500D01*
G37*
%TO.C,R35*%
X93070000Y-181103641D02*
X93070000Y-180796359D01*
X93830000Y-181103641D02*
X93830000Y-180796359D01*
%TO.C,R34*%
X113095000Y-181143641D02*
X113095000Y-180836359D01*
X113855000Y-181143641D02*
X113855000Y-180836359D01*
%TO.C,Y1*%
X104990000Y-152890000D02*
X104990000Y-156310000D01*
X104990000Y-156310000D02*
X109110000Y-156310000D01*
%TO.C,R25*%
X87040000Y-204953641D02*
X87040000Y-204646359D01*
X87800000Y-204953641D02*
X87800000Y-204646359D01*
%TO.C,R30*%
X90520000Y-181078641D02*
X90520000Y-180771359D01*
X91280000Y-181078641D02*
X91280000Y-180771359D01*
%TO.C,C23*%
X124340000Y-121612164D02*
X124340000Y-121827836D01*
X125060000Y-121612164D02*
X125060000Y-121827836D01*
%TO.C,SW3*%
X132810000Y-119420000D02*
X132810000Y-120803000D01*
X132810000Y-119420000D02*
X134193000Y-119420000D01*
X133050000Y-119660000D02*
X133050000Y-121280000D01*
X133050000Y-119660000D02*
X142950000Y-119660000D01*
X133050000Y-122880000D02*
X133050000Y-123820000D01*
X133050000Y-125420000D02*
X133050000Y-127040000D01*
X133050000Y-127040000D02*
X142950000Y-127040000D01*
X137323333Y-121445000D02*
X137323333Y-122715000D01*
X137323333Y-123985000D02*
X137323333Y-125255000D01*
X142950000Y-119660000D02*
X142950000Y-121280000D01*
X142950000Y-122880000D02*
X142950000Y-123820000D01*
X142950000Y-125420000D02*
X142950000Y-127040000D01*
X135970000Y-121445000D02*
X137323333Y-121445000D01*
X137323333Y-122715000D01*
X135970000Y-122715000D01*
X135970000Y-121445000D01*
G36*
X135970000Y-121445000D02*
G01*
X137323333Y-121445000D01*
X137323333Y-122715000D01*
X135970000Y-122715000D01*
X135970000Y-121445000D01*
G37*
X135970000Y-123985000D02*
X137323333Y-123985000D01*
X137323333Y-125255000D01*
X135970000Y-125255000D01*
X135970000Y-123985000D01*
G36*
X135970000Y-123985000D02*
G01*
X137323333Y-123985000D01*
X137323333Y-125255000D01*
X135970000Y-125255000D01*
X135970000Y-123985000D01*
G37*
X135970000Y-121445000D02*
X140030000Y-121445000D01*
X140030000Y-122715000D01*
X135970000Y-122715000D01*
X135970000Y-121445000D01*
X135970000Y-123985000D02*
X140030000Y-123985000D01*
X140030000Y-125255000D01*
X135970000Y-125255000D01*
X135970000Y-123985000D01*
%TO.C,C12*%
X99457836Y-137840000D02*
X99242164Y-137840000D01*
X99457836Y-138560000D02*
X99242164Y-138560000D01*
%TO.C,R14*%
X112890000Y-119122936D02*
X112890000Y-120577064D01*
X114710000Y-119122936D02*
X114710000Y-120577064D01*
%TO.C,JP17*%
X115660000Y-161200000D02*
X117660000Y-161200000D01*
X115660000Y-164000000D02*
X115660000Y-161200000D01*
X117660000Y-161200000D02*
X117660000Y-164000000D01*
X117660000Y-164000000D02*
X115660000Y-164000000D01*
%TO.C,R22*%
X140270000Y-117996359D02*
X140270000Y-118303641D01*
X141030000Y-117996359D02*
X141030000Y-118303641D01*
%TO.C,JP8*%
X102850000Y-164850000D02*
X104850000Y-164850000D01*
X102850000Y-167650000D02*
X102850000Y-164850000D01*
X104850000Y-164850000D02*
X104850000Y-167650000D01*
X104850000Y-167650000D02*
X102850000Y-167650000D01*
%TO.C,C1*%
X105807836Y-150640000D02*
X105592164Y-150640000D01*
X105807836Y-151360000D02*
X105592164Y-151360000D01*
%TO.C,J4*%
X128145000Y-152360000D02*
X128145000Y-131820000D01*
X130795000Y-149710000D02*
X130795000Y-152360000D01*
X130795000Y-152360000D02*
X128145000Y-152360000D01*
X133445000Y-131820000D02*
X128145000Y-131820000D01*
X133445000Y-149710000D02*
X130795000Y-149710000D01*
X133445000Y-149710000D02*
X133445000Y-131820000D01*
X133445000Y-150980000D02*
X133445000Y-152360000D01*
X133445000Y-152360000D02*
X132065000Y-152360000D01*
%TO.C,TP1*%
X104800000Y-122950000D02*
G75*
G02*
X102900000Y-122950000I-950000J0D01*
G01*
X102900000Y-122950000D02*
G75*
G02*
X104800000Y-122950000I950000J0D01*
G01*
%TO.C,R8*%
X107570000Y-133346359D02*
X107570000Y-133653641D01*
X108330000Y-133346359D02*
X108330000Y-133653641D01*
%TO.C,C35*%
X123932164Y-129350000D02*
X124147836Y-129350000D01*
X123932164Y-130070000D02*
X124147836Y-130070000D01*
%TO.C,TP10*%
X127225000Y-128375000D02*
G75*
G02*
X125325000Y-128375000I-950000J0D01*
G01*
X125325000Y-128375000D02*
G75*
G02*
X127225000Y-128375000I950000J0D01*
G01*
%TO.C,JP11*%
X107356081Y-161170810D02*
X109356081Y-161170810D01*
X107356081Y-163970810D02*
X107356081Y-161170810D01*
X109356081Y-161170810D02*
X109356081Y-163970810D01*
X109356081Y-163970810D02*
X107356081Y-163970810D01*
%TO.C,TP11*%
X121850000Y-136900000D02*
G75*
G02*
X119950000Y-136900000I-950000J0D01*
G01*
X119950000Y-136900000D02*
G75*
G02*
X121850000Y-136900000I950000J0D01*
G01*
%TO.C,JP20*%
X120450000Y-164900000D02*
X122450000Y-164900000D01*
X120450000Y-167700000D02*
X120450000Y-164900000D01*
X122450000Y-164900000D02*
X122450000Y-167700000D01*
X122450000Y-167700000D02*
X120450000Y-167700000D01*
%TO.C,JP16*%
X114520000Y-164900000D02*
X116520000Y-164900000D01*
X114520000Y-167700000D02*
X114520000Y-164900000D01*
X116520000Y-164900000D02*
X116520000Y-167700000D01*
X116520000Y-167700000D02*
X114520000Y-167700000D01*
%TO.C,D2*%
X117965000Y-110750000D02*
X117965000Y-113035000D01*
X117965000Y-113035000D02*
X119435000Y-113035000D01*
X119435000Y-113035000D02*
X119435000Y-110750000D01*
%TO.C,R40*%
X104195000Y-181003641D02*
X104195000Y-180696359D01*
X104955000Y-181003641D02*
X104955000Y-180696359D01*
%TO.C,C6*%
X99457836Y-139940000D02*
X99242164Y-139940000D01*
X99457836Y-140660000D02*
X99242164Y-140660000D01*
%TO.C,JP19*%
X119050000Y-161200000D02*
X121050000Y-161200000D01*
X119050000Y-164000000D02*
X119050000Y-161200000D01*
X121050000Y-161200000D02*
X121050000Y-164000000D01*
X121050000Y-164000000D02*
X119050000Y-164000000D01*
%TO.C,R44*%
X124453641Y-135895000D02*
X124146359Y-135895000D01*
X124453641Y-136655000D02*
X124146359Y-136655000D01*
%TO.C,L2*%
X125780000Y-121077221D02*
X125780000Y-121402779D01*
X126800000Y-121077221D02*
X126800000Y-121402779D01*
%TO.C,R24*%
X96373641Y-199620000D02*
X96066359Y-199620000D01*
X96373641Y-200380000D02*
X96066359Y-200380000D01*
%TO.C,C11*%
X114427836Y-136740000D02*
X114212164Y-136740000D01*
X114427836Y-137460000D02*
X114212164Y-137460000D01*
%TO.C,C19*%
X117111693Y-119369190D02*
X116959190Y-119521693D01*
X117620810Y-119878307D02*
X117468307Y-120030810D01*
%TO.C,C15*%
X114717164Y-144690000D02*
X114932836Y-144690000D01*
X114717164Y-145410000D02*
X114932836Y-145410000D01*
%TO.C,R11*%
X107389940Y-118272659D02*
X107172659Y-118489940D01*
X107927341Y-118810060D02*
X107710060Y-119027341D01*
%TO.C,R20*%
X119856359Y-127820000D02*
X120163641Y-127820000D01*
X119856359Y-128580000D02*
X120163641Y-128580000D01*
%TO.C,C10*%
X105540000Y-133607836D02*
X105540000Y-133392164D01*
X106260000Y-133607836D02*
X106260000Y-133392164D01*
%TO.C,MK1*%
D10*
X122350000Y-129225000D02*
G75*
G02*
X122200000Y-129225000I-75000J0D01*
G01*
X122200000Y-129225000D02*
G75*
G02*
X122350000Y-129225000I75000J0D01*
G01*
%TO.C,R10*%
D13*
X118320000Y-114403641D02*
X118320000Y-114096359D01*
X119080000Y-114403641D02*
X119080000Y-114096359D01*
%TO.C,JP13*%
X109896081Y-161170810D02*
X111896081Y-161170810D01*
X109896081Y-163970810D02*
X109896081Y-161170810D01*
X111896081Y-161170810D02*
X111896081Y-163970810D01*
X111896081Y-163970810D02*
X109896081Y-163970810D01*
%TO.C,C22*%
X119240000Y-117357836D02*
X119240000Y-117142164D01*
X119960000Y-117357836D02*
X119960000Y-117142164D01*
%TO.C,C13*%
X105665000Y-148817164D02*
X105665000Y-149032836D01*
X106385000Y-148817164D02*
X106385000Y-149032836D01*
%TO.C,TP3*%
X117290000Y-131590000D02*
G75*
G02*
X115390000Y-131590000I-950000J0D01*
G01*
X115390000Y-131590000D02*
G75*
G02*
X117290000Y-131590000I950000J0D01*
G01*
%TO.C,TP4*%
X112100000Y-122750000D02*
G75*
G02*
X110200000Y-122750000I-950000J0D01*
G01*
X110200000Y-122750000D02*
G75*
G02*
X112100000Y-122750000I950000J0D01*
G01*
%TO.C,R46*%
X120995000Y-134503641D02*
X120995000Y-134196359D01*
X121755000Y-134503641D02*
X121755000Y-134196359D01*
%TO.C,R32*%
X91745000Y-181078641D02*
X91745000Y-180771359D01*
X92505000Y-181078641D02*
X92505000Y-180771359D01*
%TO.C,R26*%
X100973641Y-199570000D02*
X100666359Y-199570000D01*
X100973641Y-200330000D02*
X100666359Y-200330000D01*
%TO.C,C5*%
X109928943Y-133190000D02*
X110144615Y-133190000D01*
X109928943Y-133910000D02*
X110144615Y-133910000D01*
%TO.C,JP4*%
X97770000Y-164850000D02*
X99770000Y-164850000D01*
X97770000Y-167650000D02*
X97770000Y-164850000D01*
X99770000Y-164850000D02*
X99770000Y-167650000D01*
X99770000Y-167650000D02*
X97770000Y-167650000D01*
%TO.C,TP2*%
X130650000Y-119800000D02*
G75*
G02*
X128750000Y-119800000I-950000J0D01*
G01*
X128750000Y-119800000D02*
G75*
G02*
X130650000Y-119800000I950000J0D01*
G01*
%TO.C,U12*%
D10*
X101630000Y-174030000D02*
X111690000Y-174030000D01*
X101630000Y-177070000D02*
X101630000Y-174030000D01*
X111690000Y-174030000D02*
X111690000Y-177070000D01*
X111690000Y-177070000D02*
X101630000Y-177070000D01*
X101690000Y-177300000D02*
G75*
G02*
X101630000Y-177300000I-30000J0D01*
G01*
X101630000Y-177300000D02*
G75*
G02*
X101690000Y-177300000I30000J0D01*
G01*
%TO.C,R17*%
D13*
X121756359Y-127820000D02*
X122063641Y-127820000D01*
X121756359Y-128580000D02*
X122063641Y-128580000D01*
%TO.C,R9*%
X121070000Y-114503641D02*
X121070000Y-114196359D01*
X121830000Y-114503641D02*
X121830000Y-114196359D01*
%TO.C,REF\u002A\u002A*%
D14*
X137900000Y-129150000D02*
X144250000Y-129150000D01*
X137900000Y-206150000D02*
X137900000Y-129150000D01*
X144250000Y-206150000D02*
X137900000Y-206150000D01*
X152550000Y-206150000D02*
X158900000Y-206150000D01*
X158900000Y-129150000D02*
X152550000Y-129150000D01*
X158900000Y-206150000D02*
X158900000Y-129150000D01*
%TD*%
%LPC*%
D15*
X131225000Y-167150000D02*
G75*
G02*
X130075000Y-167150000I-575000J0D01*
G01*
X130075000Y-167150000D02*
G75*
G02*
X131225000Y-167150000I575000J0D01*
G01*
X131275000Y-170400000D02*
G75*
G02*
X130125000Y-170400000I-575000J0D01*
G01*
X130125000Y-170400000D02*
G75*
G02*
X131275000Y-170400000I575000J0D01*
G01*
X131275000Y-173700000D02*
G75*
G02*
X130125000Y-173700000I-575000J0D01*
G01*
X130125000Y-173700000D02*
G75*
G02*
X131275000Y-173700000I575000J0D01*
G01*
%TO.C,REF\u002A\u002A*%
D16*
X124878553Y-148350000D02*
G75*
G02*
X123921447Y-148350000I-478553J0D01*
G01*
X123921447Y-148350000D02*
G75*
G02*
X124878553Y-148350000I478553J0D01*
G01*
D17*
X126400000Y-148350000D02*
G75*
G02*
X122400000Y-148350000I-2000000J0D01*
G01*
X122400000Y-148350000D02*
G75*
G02*
X126400000Y-148350000I2000000J0D01*
G01*
%TO.C,JP5*%
G36*
X99160000Y-162400000D02*
G01*
X100660000Y-162400000D01*
X100660000Y-162700000D01*
X99160000Y-162700000D01*
X99160000Y-162400000D01*
G37*
%TO.C,REF\u002A\u002A*%
D16*
X93278553Y-146200000D02*
G75*
G02*
X92321447Y-146200000I-478553J0D01*
G01*
X92321447Y-146200000D02*
G75*
G02*
X93278553Y-146200000I478553J0D01*
G01*
D17*
X94800000Y-146200000D02*
G75*
G02*
X90800000Y-146200000I-2000000J0D01*
G01*
X90800000Y-146200000D02*
G75*
G02*
X94800000Y-146200000I2000000J0D01*
G01*
%TO.C,JP10*%
G36*
X106466081Y-166120810D02*
G01*
X107966081Y-166120810D01*
X107966081Y-166420810D01*
X106466081Y-166420810D01*
X106466081Y-166120810D01*
G37*
%TO.C,JP7*%
G36*
X101700000Y-162400000D02*
G01*
X103200000Y-162400000D01*
X103200000Y-162700000D01*
X101700000Y-162700000D01*
X101700000Y-162400000D01*
G37*
%TO.C,REF\u002A\u002A*%
D16*
X93978553Y-132300000D02*
G75*
G02*
X93021447Y-132300000I-478553J0D01*
G01*
X93021447Y-132300000D02*
G75*
G02*
X93978553Y-132300000I478553J0D01*
G01*
D17*
X95500000Y-132300000D02*
G75*
G02*
X91500000Y-132300000I-2000000J0D01*
G01*
X91500000Y-132300000D02*
G75*
G02*
X95500000Y-132300000I2000000J0D01*
G01*
%TO.C,JP14*%
G36*
X112230000Y-166150000D02*
G01*
X113730000Y-166150000D01*
X113730000Y-166450000D01*
X112230000Y-166450000D01*
X112230000Y-166150000D01*
G37*
%TO.C,JP9*%
G36*
X104240000Y-162400000D02*
G01*
X105740000Y-162400000D01*
X105740000Y-162700000D01*
X104240000Y-162700000D01*
X104240000Y-162400000D01*
G37*
%TO.C,JP3*%
G36*
X95600000Y-162450000D02*
G01*
X97100000Y-162450000D01*
X97100000Y-162750000D01*
X95600000Y-162750000D01*
X95600000Y-162450000D01*
G37*
%TO.C,JP15*%
G36*
X113370000Y-162450000D02*
G01*
X114870000Y-162450000D01*
X114870000Y-162750000D01*
X113370000Y-162750000D01*
X113370000Y-162450000D01*
G37*
%TO.C,REF\u002A\u002A*%
D16*
X130978553Y-159000000D02*
G75*
G02*
X130021447Y-159000000I-478553J0D01*
G01*
X130021447Y-159000000D02*
G75*
G02*
X130978553Y-159000000I478553J0D01*
G01*
D17*
X132500000Y-159000000D02*
G75*
G02*
X128500000Y-159000000I-2000000J0D01*
G01*
X128500000Y-159000000D02*
G75*
G02*
X132500000Y-159000000I2000000J0D01*
G01*
%TO.C,JP12*%
G36*
X109006081Y-166120810D02*
G01*
X110506081Y-166120810D01*
X110506081Y-166420810D01*
X109006081Y-166420810D01*
X109006081Y-166120810D01*
G37*
%TO.C,JP2*%
G36*
X94460000Y-166150000D02*
G01*
X95960000Y-166150000D01*
X95960000Y-166450000D01*
X94460000Y-166450000D01*
X94460000Y-166150000D01*
G37*
%TO.C,JP6*%
G36*
X100560000Y-166100000D02*
G01*
X102060000Y-166100000D01*
X102060000Y-166400000D01*
X100560000Y-166400000D01*
X100560000Y-166100000D01*
G37*
%TO.C,JP1*%
G36*
X93060000Y-162450000D02*
G01*
X94560000Y-162450000D01*
X94560000Y-162750000D01*
X93060000Y-162750000D01*
X93060000Y-162450000D01*
G37*
%TO.C,JP18*%
G36*
X118160000Y-166150000D02*
G01*
X119660000Y-166150000D01*
X119660000Y-166450000D01*
X118160000Y-166450000D01*
X118160000Y-166150000D01*
G37*
%TO.C,JP21*%
G36*
X121840000Y-162450000D02*
G01*
X123340000Y-162450000D01*
X123340000Y-162750000D01*
X121840000Y-162750000D01*
X121840000Y-162450000D01*
G37*
%TO.C,JP17*%
G36*
X115910000Y-162450000D02*
G01*
X117410000Y-162450000D01*
X117410000Y-162750000D01*
X115910000Y-162750000D01*
X115910000Y-162450000D01*
G37*
%TO.C,JP8*%
G36*
X103100000Y-166100000D02*
G01*
X104600000Y-166100000D01*
X104600000Y-166400000D01*
X103100000Y-166400000D01*
X103100000Y-166100000D01*
G37*
%TO.C,JP11*%
G36*
X107606081Y-162420810D02*
G01*
X109106081Y-162420810D01*
X109106081Y-162720810D01*
X107606081Y-162720810D01*
X107606081Y-162420810D01*
G37*
%TO.C,JP20*%
G36*
X120700000Y-166150000D02*
G01*
X122200000Y-166150000D01*
X122200000Y-166450000D01*
X120700000Y-166450000D01*
X120700000Y-166150000D01*
G37*
%TO.C,JP16*%
G36*
X114770000Y-166150000D02*
G01*
X116270000Y-166150000D01*
X116270000Y-166450000D01*
X114770000Y-166450000D01*
X114770000Y-166150000D01*
G37*
%TO.C,JP19*%
G36*
X119300000Y-162450000D02*
G01*
X120800000Y-162450000D01*
X120800000Y-162750000D01*
X119300000Y-162750000D01*
X119300000Y-162450000D01*
G37*
%TO.C,JP13*%
G36*
X110146081Y-162420810D02*
G01*
X111646081Y-162420810D01*
X111646081Y-162720810D01*
X110146081Y-162720810D01*
X110146081Y-162420810D01*
G37*
%TO.C,JP4*%
G36*
X98020000Y-166100000D02*
G01*
X99520000Y-166100000D01*
X99520000Y-166400000D01*
X98020000Y-166400000D01*
X98020000Y-166100000D01*
G37*
%TD*%
D18*
%TO.C,C14*%
X103830000Y-147450000D03*
X102870000Y-147450000D03*
%TD*%
D19*
%TO.C,TP6*%
X129700000Y-116200000D03*
%TD*%
D20*
%TO.C,R42*%
X118775000Y-141710000D03*
X118775000Y-140690000D03*
%TD*%
D21*
%TO.C,R18*%
X121550000Y-125640000D03*
X121550000Y-126660000D03*
%TD*%
%TO.C,R4*%
X116800000Y-149890000D03*
X116800000Y-150910000D03*
%TD*%
D22*
%TO.C,REF\u002A\u002A2*%
X153920000Y-170000000D03*
%TD*%
D23*
%TO.C,C21*%
X123800000Y-124670000D03*
X123800000Y-125630000D03*
%TD*%
D21*
%TO.C,R3*%
X107150000Y-148390000D03*
X107150000Y-149410000D03*
%TD*%
D24*
%TO.C,C2*%
X108220000Y-151000000D03*
X109180000Y-151000000D03*
%TD*%
D25*
%TO.C,Q5*%
X104900000Y-198500000D03*
X106800000Y-198500000D03*
X105850000Y-196620000D03*
%TD*%
D26*
%TO.C,R28*%
X110530000Y-199950000D03*
X109510000Y-199950000D03*
%TD*%
%TO.C,R21*%
X138460000Y-114100000D03*
X137440000Y-114100000D03*
%TD*%
D20*
%TO.C,R15*%
X119500000Y-126660000D03*
X119500000Y-125640000D03*
%TD*%
D25*
%TO.C,Q6*%
X109550000Y-198500000D03*
X111450000Y-198500000D03*
X110500000Y-196620000D03*
%TD*%
D27*
%TO.C,J5*%
X112845000Y-151295000D03*
D28*
X112845000Y-153835000D03*
X112845000Y-156375000D03*
%TD*%
D29*
%TO.C,R19*%
X117600000Y-128200000D03*
X118620000Y-128200000D03*
%TD*%
D30*
%TO.C,C20*%
X120825000Y-117150000D03*
X122375000Y-117150000D03*
%TD*%
D31*
%TO.C,JP5*%
X99910000Y-161900000D03*
X99910000Y-163200000D03*
%TD*%
D32*
%TO.C,U14*%
X113530000Y-178300000D03*
X114810000Y-178300000D03*
X116070000Y-178300000D03*
X117340000Y-178300000D03*
X118620000Y-178300000D03*
X119890000Y-178300000D03*
X121150000Y-178300000D03*
X122430000Y-178300000D03*
X122430000Y-172820000D03*
X121150000Y-172820000D03*
X119890000Y-172820000D03*
X118620000Y-172820000D03*
X117340000Y-172820000D03*
X116070000Y-172820000D03*
X114810000Y-172820000D03*
X113530000Y-172820000D03*
%TD*%
D33*
%TO.C,REF\u002A\u002A*%
X70000000Y-170000000D03*
%TD*%
D34*
%TO.C,C27*%
X91170000Y-204200000D03*
X91170000Y-208600000D03*
%TD*%
D26*
%TO.C,R27*%
X105980000Y-199950000D03*
X104960000Y-199950000D03*
%TD*%
D35*
%TO.C,U3*%
X118825000Y-121000000D03*
X118825000Y-121500000D03*
X118825000Y-122000000D03*
X118825000Y-122500000D03*
X118825000Y-123000000D03*
X118825000Y-123500000D03*
D36*
X119562500Y-124237500D03*
X120062500Y-124237500D03*
X120562500Y-124237500D03*
X121062500Y-124237500D03*
X121562500Y-124237500D03*
X122062500Y-124237500D03*
D35*
X122800000Y-123500000D03*
X122800000Y-123000000D03*
X122800000Y-122500000D03*
X122800000Y-122000000D03*
X122800000Y-121500000D03*
X122800000Y-121000000D03*
D36*
X122062500Y-120262500D03*
X121562500Y-120262500D03*
X121062500Y-120262500D03*
X120562500Y-120262500D03*
X120062500Y-120262500D03*
X119562500Y-120262500D03*
D37*
X120812500Y-122250000D03*
%TD*%
D22*
%TO.C,REF\u002A\u002A*%
X159000000Y-170000000D03*
%TD*%
D19*
%TO.C,TP9*%
X85570000Y-203200000D03*
%TD*%
D38*
%TO.C,SW2*%
X116750000Y-148112500D03*
X113350000Y-148112500D03*
%TD*%
D39*
%TO.C,D16*%
X97035000Y-192950000D03*
X97035000Y-193550000D03*
D40*
X97985000Y-193550000D03*
D39*
X97985000Y-192950000D03*
%TD*%
D21*
%TO.C,R12*%
X111950000Y-118290000D03*
X111950000Y-119310000D03*
%TD*%
D41*
%TO.C,U22*%
X125350000Y-134950000D03*
X125350000Y-134000000D03*
X125350000Y-133050000D03*
X122750000Y-133050000D03*
X122750000Y-134950000D03*
%TD*%
D31*
%TO.C,JP10*%
X107216081Y-165620810D03*
X107216081Y-166920810D03*
%TD*%
D19*
%TO.C,TP5*%
X110410000Y-128870000D03*
%TD*%
D31*
%TO.C,JP7*%
X102450000Y-161900000D03*
X102450000Y-163200000D03*
%TD*%
D19*
%TO.C,TP7*%
X129600000Y-127100000D03*
%TD*%
D42*
%TO.C,U2*%
X102100000Y-136750000D03*
X102100000Y-137150000D03*
X102100000Y-137550000D03*
X102100000Y-137950000D03*
X102100000Y-138350000D03*
X102100000Y-138750000D03*
X102100000Y-139150000D03*
X102100000Y-139550000D03*
X102100000Y-139950000D03*
X102100000Y-140350000D03*
X102100000Y-140750000D03*
X102100000Y-141150000D03*
X102100000Y-141550000D03*
X102100000Y-141950000D03*
X102100000Y-142350000D03*
X102100000Y-142750000D03*
X102100000Y-143150000D03*
X102100000Y-143550000D03*
X102100000Y-143950000D03*
X102100000Y-144350000D03*
D43*
X103250000Y-145500000D03*
X103650000Y-145500000D03*
X104050000Y-145500000D03*
X104450000Y-145500000D03*
X104850000Y-145500000D03*
X105250000Y-145500000D03*
X105650000Y-145500000D03*
X106050000Y-145500000D03*
X106450000Y-145500000D03*
X106850000Y-145500000D03*
X107250000Y-145500000D03*
X107650000Y-145500000D03*
X108050000Y-145500000D03*
X108450000Y-145500000D03*
X108850000Y-145500000D03*
X109250000Y-145500000D03*
X109650000Y-145500000D03*
X110050000Y-145500000D03*
X110450000Y-145500000D03*
X110850000Y-145500000D03*
D42*
X112000000Y-144350000D03*
X112000000Y-143950000D03*
X112000000Y-143550000D03*
X112000000Y-143150000D03*
X112000000Y-142750000D03*
X112000000Y-142350000D03*
X112000000Y-141950000D03*
X112000000Y-141550000D03*
X112000000Y-141150000D03*
X112000000Y-140750000D03*
X112000000Y-140350000D03*
X112000000Y-139950000D03*
X112000000Y-139550000D03*
X112000000Y-139150000D03*
X112000000Y-138750000D03*
X112000000Y-138350000D03*
X112000000Y-137950000D03*
X112000000Y-137550000D03*
X112000000Y-137150000D03*
X112000000Y-136750000D03*
D43*
X110850000Y-135600000D03*
X110450000Y-135600000D03*
X110050000Y-135600000D03*
X109650000Y-135600000D03*
X109250000Y-135600000D03*
X108850000Y-135600000D03*
X108450000Y-135600000D03*
X108050000Y-135600000D03*
X107650000Y-135600000D03*
X107250000Y-135600000D03*
X106850000Y-135600000D03*
X106450000Y-135600000D03*
X106050000Y-135600000D03*
X105650000Y-135600000D03*
X105250000Y-135600000D03*
X104850000Y-135600000D03*
X104450000Y-135600000D03*
X104050000Y-135600000D03*
X103650000Y-135600000D03*
X103250000Y-135600000D03*
D44*
X107050000Y-140550000D03*
%TD*%
D45*
%TO.C,C25*%
X146910000Y-120060000D03*
X146910000Y-119100000D03*
%TD*%
D25*
%TO.C,Q3*%
X95700000Y-198450000D03*
X97600000Y-198450000D03*
X96650000Y-196570000D03*
%TD*%
D39*
%TO.C,D6*%
X101435000Y-186350000D03*
X101435000Y-186950000D03*
D40*
X102385000Y-186950000D03*
D39*
X102385000Y-186350000D03*
%TD*%
D33*
%TO.C,REF\u002A\u002A3*%
X77620000Y-170000000D03*
%TD*%
D39*
%TO.C,D19*%
X103635000Y-192950000D03*
X103635000Y-193550000D03*
D40*
X104585000Y-193550000D03*
D39*
X104585000Y-192950000D03*
%TD*%
D20*
%TO.C,R36*%
X102225000Y-181360000D03*
X102225000Y-180340000D03*
%TD*%
D46*
%TO.C,D1*%
X121450000Y-112337500D03*
X121450000Y-110762500D03*
%TD*%
D47*
%TO.C,Q2*%
X139100000Y-116520000D03*
X137200000Y-116520000D03*
X138150000Y-118400000D03*
%TD*%
D23*
%TO.C,C7*%
X112550000Y-133540000D03*
X112550000Y-134500000D03*
%TD*%
D45*
%TO.C,C17*%
X104675000Y-134005000D03*
X104675000Y-133045000D03*
%TD*%
D23*
%TO.C,C24*%
X127650000Y-121200000D03*
X127650000Y-122160000D03*
%TD*%
D20*
%TO.C,R33*%
X101075000Y-181360000D03*
X101075000Y-180340000D03*
%TD*%
D45*
%TO.C,C26*%
X155700000Y-115180000D03*
X155700000Y-114220000D03*
%TD*%
D31*
%TO.C,JP14*%
X112980000Y-165650000D03*
X112980000Y-166950000D03*
%TD*%
D20*
%TO.C,R38*%
X103425000Y-181360000D03*
X103425000Y-180340000D03*
%TD*%
D24*
%TO.C,C9*%
X115970000Y-140550000D03*
X116930000Y-140550000D03*
%TD*%
D26*
%TO.C,R23*%
X81770000Y-197050000D03*
X80750000Y-197050000D03*
%TD*%
D31*
%TO.C,JP9*%
X104990000Y-161900000D03*
X104990000Y-163200000D03*
%TD*%
D18*
%TO.C,C38*%
X124755000Y-137300000D03*
X123795000Y-137300000D03*
%TD*%
D31*
%TO.C,JP3*%
X96350000Y-161950000D03*
X96350000Y-163250000D03*
%TD*%
D24*
%TO.C,C39*%
X113820000Y-136150000D03*
X114780000Y-136150000D03*
%TD*%
D22*
%TO.C,REF\u002A\u002A1*%
X156460000Y-170000000D03*
%TD*%
D23*
%TO.C,C36*%
X126000000Y-135945000D03*
X126000000Y-136905000D03*
%TD*%
D21*
%TO.C,R16*%
X120550000Y-125640000D03*
X120550000Y-126660000D03*
%TD*%
D33*
%TO.C,REF\u002A\u002A1*%
X72540000Y-170000000D03*
%TD*%
D48*
%TO.C,L1*%
X109200000Y-131900000D03*
X111200000Y-131900000D03*
%TD*%
D49*
%TO.C,R13*%
X117310624Y-122539376D03*
X116589376Y-123260624D03*
%TD*%
D50*
%TO.C,U4*%
X149300000Y-117350000D03*
D51*
X155600000Y-119650000D03*
D50*
X149300000Y-119650000D03*
X149300000Y-121950000D03*
%TD*%
D39*
%TO.C,D12*%
X97035000Y-190750000D03*
X97035000Y-191350000D03*
D40*
X97985000Y-191350000D03*
D39*
X97985000Y-190750000D03*
%TD*%
D19*
%TO.C,TP8*%
X82020000Y-203200000D03*
%TD*%
D24*
%TO.C,C37*%
X123550000Y-130800000D03*
X124510000Y-130800000D03*
%TD*%
D18*
%TO.C,C16*%
X99830000Y-142500000D03*
X98870000Y-142500000D03*
%TD*%
D21*
%TO.C,R5*%
X112550000Y-131615000D03*
X112550000Y-132635000D03*
%TD*%
D32*
%TO.C,U10*%
X90850000Y-178100000D03*
X92130000Y-178100000D03*
X93390000Y-178100000D03*
X94660000Y-178100000D03*
X95940000Y-178100000D03*
X97210000Y-178100000D03*
X98470000Y-178100000D03*
X99750000Y-178100000D03*
X99750000Y-172620000D03*
X98470000Y-172620000D03*
X97210000Y-172620000D03*
X95940000Y-172620000D03*
X94660000Y-172620000D03*
X93390000Y-172620000D03*
X92130000Y-172620000D03*
X90850000Y-172620000D03*
%TD*%
D27*
%TO.C,J1*%
X103180000Y-114100000D03*
D28*
X103180000Y-116640000D03*
X100640000Y-114100000D03*
X100640000Y-116640000D03*
X98100000Y-114100000D03*
X98100000Y-116640000D03*
X95560000Y-114100000D03*
X95560000Y-116640000D03*
X93020000Y-114100000D03*
X93020000Y-116640000D03*
X90480000Y-114100000D03*
X90480000Y-116640000D03*
X87940000Y-114100000D03*
X87940000Y-116640000D03*
X85400000Y-114100000D03*
X85400000Y-116640000D03*
X82860000Y-114100000D03*
X82860000Y-116640000D03*
X80320000Y-114100000D03*
X80320000Y-116640000D03*
%TD*%
D39*
%TO.C,D9*%
X99235000Y-188550000D03*
X99235000Y-189150000D03*
D40*
X100185000Y-189150000D03*
D39*
X100185000Y-188550000D03*
%TD*%
D31*
%TO.C,JP15*%
X114120000Y-161950000D03*
X114120000Y-163250000D03*
%TD*%
D24*
%TO.C,C4*%
X109561779Y-134475000D03*
X110521779Y-134475000D03*
%TD*%
D20*
%TO.C,R41*%
X125725000Y-131385000D03*
X125725000Y-130365000D03*
%TD*%
D25*
%TO.C,Q1*%
X140700000Y-115440000D03*
X142600000Y-115440000D03*
X141650000Y-113560000D03*
%TD*%
D24*
%TO.C,C18*%
X115220000Y-141475000D03*
X116180000Y-141475000D03*
%TD*%
D52*
%TO.C,SW1*%
X104162500Y-127700000D03*
X104162500Y-131100000D03*
%TD*%
D31*
%TO.C,JP12*%
X109756081Y-165620810D03*
X109756081Y-166920810D03*
%TD*%
%TO.C,JP2*%
X95210000Y-165650000D03*
X95210000Y-166950000D03*
%TD*%
D39*
%TO.C,D15*%
X103635000Y-190750000D03*
X103635000Y-191350000D03*
D40*
X104585000Y-191350000D03*
D39*
X104585000Y-190750000D03*
%TD*%
D31*
%TO.C,JP6*%
X101310000Y-165600000D03*
X101310000Y-166900000D03*
%TD*%
%TO.C,JP1*%
X93810000Y-161950000D03*
X93810000Y-163250000D03*
%TD*%
D39*
%TO.C,D17*%
X99235000Y-192950000D03*
X99235000Y-193550000D03*
D40*
X100185000Y-193550000D03*
D39*
X100185000Y-192950000D03*
%TD*%
D20*
%TO.C,R39*%
X116075000Y-181535000D03*
X116075000Y-180515000D03*
%TD*%
D31*
%TO.C,JP18*%
X118910000Y-165650000D03*
X118910000Y-166950000D03*
%TD*%
D27*
%TO.C,J2*%
X83625000Y-130770000D03*
D28*
X86165000Y-130770000D03*
X83625000Y-133310000D03*
X86165000Y-133310000D03*
X83625000Y-135850000D03*
X86165000Y-135850000D03*
X83625000Y-138390000D03*
X86165000Y-138390000D03*
X83625000Y-140930000D03*
X86165000Y-140930000D03*
X83625000Y-143470000D03*
X86165000Y-143470000D03*
X83625000Y-146010000D03*
X86165000Y-146010000D03*
X83625000Y-148550000D03*
X86165000Y-148550000D03*
X83625000Y-151090000D03*
X86165000Y-151090000D03*
X83625000Y-153630000D03*
X86165000Y-153630000D03*
%TD*%
D20*
%TO.C,R43*%
X127150000Y-136659999D03*
X127150000Y-135640001D03*
%TD*%
D53*
%TO.C,D3*%
X116662500Y-126700000D03*
X118237500Y-126700000D03*
%TD*%
D20*
%TO.C,R29*%
X89600000Y-181445000D03*
X89600000Y-180425000D03*
%TD*%
D54*
%TO.C,Q7*%
X122090000Y-141250000D03*
X120210000Y-141250000D03*
%TD*%
D55*
%TO.C,U6*%
X77850000Y-200797500D03*
X77850000Y-199527500D03*
X77850000Y-198257500D03*
X77850000Y-196987500D03*
X77850000Y-195717500D03*
X77850000Y-194447500D03*
X77850000Y-193177500D03*
X77850000Y-191907500D03*
X72125000Y-191907500D03*
X72125000Y-193177500D03*
X72125000Y-194447500D03*
X72125000Y-195717500D03*
X72125000Y-196987500D03*
X72125000Y-198257500D03*
X72125000Y-199527500D03*
X72125000Y-200797500D03*
%TD*%
D31*
%TO.C,JP21*%
X122590000Y-161950000D03*
X122590000Y-163250000D03*
%TD*%
D20*
%TO.C,R31*%
X112400000Y-181485000D03*
X112400000Y-180465000D03*
%TD*%
D29*
%TO.C,R6*%
X103790000Y-126500000D03*
X104810000Y-126500000D03*
%TD*%
D20*
%TO.C,R37*%
X114800000Y-181510000D03*
X114800000Y-180490000D03*
%TD*%
D22*
%TO.C,REF\u002A\u002A3*%
X151380000Y-170000000D03*
%TD*%
D56*
%TO.C,J3*%
X113150000Y-113950000D03*
X107370000Y-113950000D03*
D57*
X111510000Y-115150000D03*
X110510000Y-115150000D03*
X110010000Y-115150000D03*
X109010000Y-115150000D03*
D58*
X107860000Y-115150000D03*
X107060000Y-115150000D03*
D57*
X108510000Y-115150000D03*
X109510000Y-115150000D03*
X111010000Y-115150000D03*
X112010000Y-115150000D03*
D58*
X112660000Y-115150000D03*
X113460000Y-115150000D03*
D59*
X114590000Y-114470000D03*
D60*
X114590000Y-110270000D03*
D61*
X110260000Y-110650000D03*
D59*
X105930000Y-114470000D03*
D60*
X105930000Y-110270000D03*
%TD*%
D23*
%TO.C,C8*%
X108500000Y-148420000D03*
X108500000Y-149380000D03*
%TD*%
D21*
%TO.C,R7*%
X106950000Y-132990000D03*
X106950000Y-134010000D03*
%TD*%
D29*
%TO.C,R45*%
X123540000Y-131825000D03*
X124560000Y-131825000D03*
%TD*%
D25*
%TO.C,Q4*%
X100300000Y-198450000D03*
X102200000Y-198450000D03*
X101250000Y-196570000D03*
%TD*%
D33*
%TO.C,REF\u002A\u002A4*%
X80160000Y-170000000D03*
%TD*%
D20*
%TO.C,R35*%
X93450000Y-181460000D03*
X93450000Y-180440000D03*
%TD*%
%TO.C,R34*%
X113475000Y-181500000D03*
X113475000Y-180480000D03*
%TD*%
D39*
%TO.C,D7*%
X103635000Y-186350000D03*
X103635000Y-186950000D03*
D40*
X104585000Y-186950000D03*
D39*
X104585000Y-186350000D03*
%TD*%
D62*
%TO.C,Y1*%
X105950000Y-155450000D03*
X108150000Y-155450000D03*
X108150000Y-153750000D03*
X105950000Y-153750000D03*
%TD*%
D20*
%TO.C,R25*%
X87420000Y-205310000D03*
X87420000Y-204290000D03*
%TD*%
%TO.C,R30*%
X90900000Y-181435000D03*
X90900000Y-180415000D03*
%TD*%
D23*
%TO.C,C23*%
X124700000Y-121240000D03*
X124700000Y-122200000D03*
%TD*%
D39*
%TO.C,D11*%
X103635000Y-188550000D03*
X103635000Y-189150000D03*
D40*
X104585000Y-189150000D03*
D39*
X104585000Y-188550000D03*
%TD*%
D63*
%TO.C,SW3*%
X133695000Y-122080000D03*
X133695000Y-124620000D03*
X142305000Y-124620000D03*
X142305000Y-122080000D03*
%TD*%
D18*
%TO.C,C12*%
X99830000Y-138200000D03*
X98870000Y-138200000D03*
%TD*%
D39*
%TO.C,D4*%
X97035000Y-186350000D03*
X97035000Y-186950000D03*
D40*
X97985000Y-186950000D03*
D39*
X97985000Y-186350000D03*
%TD*%
D64*
%TO.C,R14*%
X113800000Y-118387500D03*
X113800000Y-121312500D03*
%TD*%
D31*
%TO.C,JP17*%
X116660000Y-161950000D03*
X116660000Y-163250000D03*
%TD*%
D21*
%TO.C,R22*%
X140650000Y-117640000D03*
X140650000Y-118660000D03*
%TD*%
D31*
%TO.C,JP8*%
X103850000Y-165600000D03*
X103850000Y-166900000D03*
%TD*%
D18*
%TO.C,C1*%
X106180000Y-151000000D03*
X105220000Y-151000000D03*
%TD*%
D27*
%TO.C,J4*%
X132065000Y-150980000D03*
D28*
X129525000Y-150980000D03*
X132065000Y-148440000D03*
X129525000Y-148440000D03*
X132065000Y-145900000D03*
X129525000Y-145900000D03*
X132065000Y-143360000D03*
X129525000Y-143360000D03*
X132065000Y-140820000D03*
X129525000Y-140820000D03*
X132065000Y-138280000D03*
X129525000Y-138280000D03*
X132065000Y-135740000D03*
X129525000Y-135740000D03*
X132065000Y-133200000D03*
X129525000Y-133200000D03*
%TD*%
D19*
%TO.C,TP1*%
X103850000Y-122950000D03*
%TD*%
D21*
%TO.C,R8*%
X107950000Y-132990000D03*
X107950000Y-134010000D03*
%TD*%
D24*
%TO.C,C35*%
X123560000Y-129710000D03*
X124520000Y-129710000D03*
%TD*%
D19*
%TO.C,TP10*%
X126275000Y-128375000D03*
%TD*%
D31*
%TO.C,JP11*%
X108356081Y-161920810D03*
X108356081Y-163220810D03*
%TD*%
D19*
%TO.C,TP11*%
X120900000Y-136900000D03*
%TD*%
D31*
%TO.C,JP20*%
X121450000Y-165650000D03*
X121450000Y-166950000D03*
%TD*%
D39*
%TO.C,D14*%
X101435000Y-190750000D03*
X101435000Y-191350000D03*
D40*
X102385000Y-191350000D03*
D39*
X102385000Y-190750000D03*
%TD*%
D31*
%TO.C,JP16*%
X115520000Y-165650000D03*
X115520000Y-166950000D03*
%TD*%
D46*
%TO.C,D2*%
X118700000Y-112337500D03*
X118700000Y-110762500D03*
%TD*%
D20*
%TO.C,R40*%
X104575000Y-181360000D03*
X104575000Y-180340000D03*
%TD*%
D18*
%TO.C,C6*%
X99830000Y-140300000D03*
X98870000Y-140300000D03*
%TD*%
D31*
%TO.C,JP19*%
X120050000Y-161950000D03*
X120050000Y-163250000D03*
%TD*%
D33*
%TO.C,REF\u002A\u002A2*%
X75080000Y-170000000D03*
%TD*%
D26*
%TO.C,R44*%
X124810000Y-136275000D03*
X123790000Y-136275000D03*
%TD*%
D39*
%TO.C,D10*%
X101435000Y-188550000D03*
X101435000Y-189150000D03*
D40*
X102385000Y-189150000D03*
D39*
X102385000Y-188550000D03*
%TD*%
D65*
%TO.C,L2*%
X126290000Y-120452500D03*
X126290000Y-122027500D03*
%TD*%
D26*
%TO.C,R24*%
X96730000Y-200000000D03*
X95710000Y-200000000D03*
%TD*%
D39*
%TO.C,D5*%
X99235000Y-186350000D03*
X99235000Y-186950000D03*
D40*
X100185000Y-186950000D03*
D39*
X100185000Y-186350000D03*
%TD*%
D18*
%TO.C,C11*%
X114800000Y-137100000D03*
X113840000Y-137100000D03*
%TD*%
D66*
%TO.C,C19*%
X117629411Y-119360589D03*
X116950589Y-120039411D03*
%TD*%
D24*
%TO.C,C15*%
X114345000Y-145050000D03*
X115305000Y-145050000D03*
%TD*%
D49*
%TO.C,R11*%
X107910624Y-118289376D03*
X107189376Y-119010624D03*
%TD*%
D29*
%TO.C,R20*%
X119500000Y-128200000D03*
X120520000Y-128200000D03*
%TD*%
D45*
%TO.C,C10*%
X105900000Y-133980000D03*
X105900000Y-133020000D03*
%TD*%
D67*
%TO.C,MK1*%
X121780000Y-129760000D03*
X121780000Y-131690000D03*
X120770000Y-131690000D03*
X120770000Y-129760000D03*
%TD*%
D20*
%TO.C,R10*%
X118700000Y-114760000D03*
X118700000Y-113740000D03*
%TD*%
D39*
%TO.C,D13*%
X99235000Y-190750000D03*
X99235000Y-191350000D03*
D40*
X100185000Y-191350000D03*
D39*
X100185000Y-190750000D03*
%TD*%
D31*
%TO.C,JP13*%
X110896081Y-161920810D03*
X110896081Y-163220810D03*
%TD*%
D45*
%TO.C,C22*%
X119600000Y-117730000D03*
X119600000Y-116770000D03*
%TD*%
D68*
%TO.C,R1*%
X116850000Y-135580000D03*
X116850000Y-137220000D03*
%TD*%
D22*
%TO.C,REF\u002A\u002A4*%
X148840000Y-170000000D03*
%TD*%
D23*
%TO.C,C13*%
X106025000Y-148445000D03*
X106025000Y-149405000D03*
%TD*%
D19*
%TO.C,TP3*%
X116340000Y-131590000D03*
%TD*%
%TO.C,TP4*%
X111150000Y-122750000D03*
%TD*%
D20*
%TO.C,R46*%
X121375000Y-134860000D03*
X121375000Y-133840000D03*
%TD*%
%TO.C,R32*%
X92125000Y-181435000D03*
X92125000Y-180415000D03*
%TD*%
D26*
%TO.C,R26*%
X101330000Y-199950000D03*
X100310000Y-199950000D03*
%TD*%
D39*
%TO.C,D18*%
X101435000Y-192950000D03*
X101435000Y-193550000D03*
D40*
X102385000Y-193550000D03*
D39*
X102385000Y-192950000D03*
%TD*%
D24*
%TO.C,C5*%
X109556779Y-133550000D03*
X110516779Y-133550000D03*
%TD*%
D31*
%TO.C,JP4*%
X98770000Y-165600000D03*
X98770000Y-166900000D03*
%TD*%
D19*
%TO.C,TP2*%
X129700000Y-119800000D03*
%TD*%
D32*
%TO.C,U12*%
X102210000Y-178290000D03*
X103490000Y-178290000D03*
X104750000Y-178290000D03*
X106020000Y-178290000D03*
X107300000Y-178290000D03*
X108570000Y-178290000D03*
X109830000Y-178290000D03*
X111110000Y-178290000D03*
X111110000Y-172810000D03*
X109830000Y-172810000D03*
X108570000Y-172810000D03*
X107300000Y-172810000D03*
X106020000Y-172810000D03*
X104750000Y-172810000D03*
X103490000Y-172810000D03*
X102210000Y-172810000D03*
%TD*%
D29*
%TO.C,R17*%
X121400000Y-128200000D03*
X122420000Y-128200000D03*
%TD*%
D39*
%TO.C,D8*%
X97035000Y-188550000D03*
X97035000Y-189150000D03*
D40*
X97985000Y-189150000D03*
D39*
X97985000Y-188550000D03*
%TD*%
D20*
%TO.C,R9*%
X121450000Y-114860000D03*
X121450000Y-113840000D03*
%TD*%
D69*
%TO.C,REF\u002A\u002A*%
X148400000Y-127000000D03*
X148400000Y-208300000D03*
%TD*%
%LPD*%
M02*
