%TF.GenerationSoftware,KiCad,Pcbnew,10.0.1-1.fc44*%
%TF.CreationDate,2026-05-05T04:36:18+02:00*%
%TF.ProjectId,poc-one,706f632d-6f6e-4652-9e6b-696361645f70,rev?*%
%TF.SameCoordinates,Original*%
%TF.FileFunction,Legend,Bot*%
%TF.FilePolarity,Positive*%
%FSLAX46Y46*%
G04 Gerber Fmt 4.6, Leading zero omitted, Abs format (unit mm)*
G04 Created by KiCad (PCBNEW 10.0.1-1.fc44) date 2026-05-05 04:36:18*
%MOMM*%
%LPD*%
G01*
G04 APERTURE LIST*
G04 Aperture macros list*
%AMRoundRect*
0 Rectangle with rounded corners*
0 $1 Rounding radius*
0 $2 $3 $4 $5 $6 $7 $8 $9 X,Y pos of 4 corners*
0 Add a 4 corners polygon primitive as box body*
4,1,4,$2,$3,$4,$5,$6,$7,$8,$9,$2,$3,0*
0 Add four circle primitives for the rounded corners*
1,1,$1+$1,$2,$3*
1,1,$1+$1,$4,$5*
1,1,$1+$1,$6,$7*
1,1,$1+$1,$8,$9*
0 Add four rect primitives between the rounded corners*
20,1,$1+$1,$2,$3,$4,$5,0*
20,1,$1+$1,$4,$5,$6,$7,0*
20,1,$1+$1,$6,$7,$8,$9,0*
20,1,$1+$1,$8,$9,$2,$3,0*%
G04 Aperture macros list end*
%ADD10C,0.150000*%
%ADD11C,1.150000*%
%ADD12C,2.500000*%
%ADD13R,1.700000X1.700000*%
%ADD14C,1.700000*%
%ADD15C,0.600000*%
%ADD16O,1.300000X2.300000*%
%ADD17O,1.300000X2.100000*%
%ADD18RoundRect,0.250000X0.250000X0.750000X-0.250000X0.750000X-0.250000X-0.750000X0.250000X-0.750000X0*%
%ADD19RoundRect,0.250000X-0.250000X-0.750000X0.250000X-0.750000X0.250000X0.750000X-0.250000X0.750000X0*%
G04 APERTURE END LIST*
D10*
X150649524Y-168454819D02*
X150982857Y-167978628D01*
X151220952Y-168454819D02*
X151220952Y-167454819D01*
X151220952Y-167454819D02*
X150840000Y-167454819D01*
X150840000Y-167454819D02*
X150744762Y-167502438D01*
X150744762Y-167502438D02*
X150697143Y-167550057D01*
X150697143Y-167550057D02*
X150649524Y-167645295D01*
X150649524Y-167645295D02*
X150649524Y-167788152D01*
X150649524Y-167788152D02*
X150697143Y-167883390D01*
X150697143Y-167883390D02*
X150744762Y-167931009D01*
X150744762Y-167931009D02*
X150840000Y-167978628D01*
X150840000Y-167978628D02*
X151220952Y-167978628D01*
X150220952Y-167931009D02*
X149887619Y-167931009D01*
X149744762Y-168454819D02*
X150220952Y-168454819D01*
X150220952Y-168454819D02*
X150220952Y-167454819D01*
X150220952Y-167454819D02*
X149744762Y-167454819D01*
X148982857Y-167931009D02*
X149316190Y-167931009D01*
X149316190Y-168454819D02*
X149316190Y-167454819D01*
X149316190Y-167454819D02*
X148840000Y-167454819D01*
X148316190Y-167454819D02*
X148316190Y-167692914D01*
X148554285Y-167597676D02*
X148316190Y-167692914D01*
X148316190Y-167692914D02*
X148078095Y-167597676D01*
X148459047Y-167883390D02*
X148316190Y-167692914D01*
X148316190Y-167692914D02*
X148173333Y-167883390D01*
X147554285Y-167454819D02*
X147554285Y-167692914D01*
X147792380Y-167597676D02*
X147554285Y-167692914D01*
X147554285Y-167692914D02*
X147316190Y-167597676D01*
X147697142Y-167883390D02*
X147554285Y-167692914D01*
X147554285Y-167692914D02*
X147411428Y-167883390D01*
X146506666Y-167788152D02*
X146506666Y-168454819D01*
X146744761Y-167407200D02*
X146982856Y-168121485D01*
X146982856Y-168121485D02*
X146363809Y-168121485D01*
X158269524Y-168454819D02*
X158602857Y-167978628D01*
X158840952Y-168454819D02*
X158840952Y-167454819D01*
X158840952Y-167454819D02*
X158460000Y-167454819D01*
X158460000Y-167454819D02*
X158364762Y-167502438D01*
X158364762Y-167502438D02*
X158317143Y-167550057D01*
X158317143Y-167550057D02*
X158269524Y-167645295D01*
X158269524Y-167645295D02*
X158269524Y-167788152D01*
X158269524Y-167788152D02*
X158317143Y-167883390D01*
X158317143Y-167883390D02*
X158364762Y-167931009D01*
X158364762Y-167931009D02*
X158460000Y-167978628D01*
X158460000Y-167978628D02*
X158840952Y-167978628D01*
X157840952Y-167931009D02*
X157507619Y-167931009D01*
X157364762Y-168454819D02*
X157840952Y-168454819D01*
X157840952Y-168454819D02*
X157840952Y-167454819D01*
X157840952Y-167454819D02*
X157364762Y-167454819D01*
X156602857Y-167931009D02*
X156936190Y-167931009D01*
X156936190Y-168454819D02*
X156936190Y-167454819D01*
X156936190Y-167454819D02*
X156460000Y-167454819D01*
X155936190Y-167454819D02*
X155936190Y-167692914D01*
X156174285Y-167597676D02*
X155936190Y-167692914D01*
X155936190Y-167692914D02*
X155698095Y-167597676D01*
X156079047Y-167883390D02*
X155936190Y-167692914D01*
X155936190Y-167692914D02*
X155793333Y-167883390D01*
X155174285Y-167454819D02*
X155174285Y-167692914D01*
X155412380Y-167597676D02*
X155174285Y-167692914D01*
X155174285Y-167692914D02*
X154936190Y-167597676D01*
X155317142Y-167883390D02*
X155174285Y-167692914D01*
X155174285Y-167692914D02*
X155031428Y-167883390D01*
X154031428Y-168454819D02*
X154602856Y-168454819D01*
X154317142Y-168454819D02*
X154317142Y-167454819D01*
X154317142Y-167454819D02*
X154412380Y-167597676D01*
X154412380Y-167597676D02*
X154507618Y-167692914D01*
X154507618Y-167692914D02*
X154602856Y-167740533D01*
X74349524Y-172454819D02*
X74682857Y-171978628D01*
X74920952Y-172454819D02*
X74920952Y-171454819D01*
X74920952Y-171454819D02*
X74540000Y-171454819D01*
X74540000Y-171454819D02*
X74444762Y-171502438D01*
X74444762Y-171502438D02*
X74397143Y-171550057D01*
X74397143Y-171550057D02*
X74349524Y-171645295D01*
X74349524Y-171645295D02*
X74349524Y-171788152D01*
X74349524Y-171788152D02*
X74397143Y-171883390D01*
X74397143Y-171883390D02*
X74444762Y-171931009D01*
X74444762Y-171931009D02*
X74540000Y-171978628D01*
X74540000Y-171978628D02*
X74920952Y-171978628D01*
X73920952Y-171931009D02*
X73587619Y-171931009D01*
X73444762Y-172454819D02*
X73920952Y-172454819D01*
X73920952Y-172454819D02*
X73920952Y-171454819D01*
X73920952Y-171454819D02*
X73444762Y-171454819D01*
X72682857Y-171931009D02*
X73016190Y-171931009D01*
X73016190Y-172454819D02*
X73016190Y-171454819D01*
X73016190Y-171454819D02*
X72540000Y-171454819D01*
X72016190Y-171454819D02*
X72016190Y-171692914D01*
X72254285Y-171597676D02*
X72016190Y-171692914D01*
X72016190Y-171692914D02*
X71778095Y-171597676D01*
X72159047Y-171883390D02*
X72016190Y-171692914D01*
X72016190Y-171692914D02*
X71873333Y-171883390D01*
X71254285Y-171454819D02*
X71254285Y-171692914D01*
X71492380Y-171597676D02*
X71254285Y-171692914D01*
X71254285Y-171692914D02*
X71016190Y-171597676D01*
X71397142Y-171883390D02*
X71254285Y-171692914D01*
X71254285Y-171692914D02*
X71111428Y-171883390D01*
X70111428Y-172454819D02*
X70682856Y-172454819D01*
X70397142Y-172454819D02*
X70397142Y-171454819D01*
X70397142Y-171454819D02*
X70492380Y-171597676D01*
X70492380Y-171597676D02*
X70587618Y-171692914D01*
X70587618Y-171692914D02*
X70682856Y-171740533D01*
X71333333Y-172454819D02*
X71666666Y-171978628D01*
X71904761Y-172454819D02*
X71904761Y-171454819D01*
X71904761Y-171454819D02*
X71523809Y-171454819D01*
X71523809Y-171454819D02*
X71428571Y-171502438D01*
X71428571Y-171502438D02*
X71380952Y-171550057D01*
X71380952Y-171550057D02*
X71333333Y-171645295D01*
X71333333Y-171645295D02*
X71333333Y-171788152D01*
X71333333Y-171788152D02*
X71380952Y-171883390D01*
X71380952Y-171883390D02*
X71428571Y-171931009D01*
X71428571Y-171931009D02*
X71523809Y-171978628D01*
X71523809Y-171978628D02*
X71904761Y-171978628D01*
X70904761Y-171931009D02*
X70571428Y-171931009D01*
X70428571Y-172454819D02*
X70904761Y-172454819D01*
X70904761Y-172454819D02*
X70904761Y-171454819D01*
X70904761Y-171454819D02*
X70428571Y-171454819D01*
X69666666Y-171931009D02*
X69999999Y-171931009D01*
X69999999Y-172454819D02*
X69999999Y-171454819D01*
X69999999Y-171454819D02*
X69523809Y-171454819D01*
X68999999Y-171454819D02*
X68999999Y-171692914D01*
X69238094Y-171597676D02*
X68999999Y-171692914D01*
X68999999Y-171692914D02*
X68761904Y-171597676D01*
X69142856Y-171883390D02*
X68999999Y-171692914D01*
X68999999Y-171692914D02*
X68857142Y-171883390D01*
X68238094Y-171454819D02*
X68238094Y-171692914D01*
X68476189Y-171597676D02*
X68238094Y-171692914D01*
X68238094Y-171692914D02*
X67999999Y-171597676D01*
X68380951Y-171883390D02*
X68238094Y-171692914D01*
X68238094Y-171692914D02*
X68095237Y-171883390D01*
X153189524Y-168454819D02*
X153522857Y-167978628D01*
X153760952Y-168454819D02*
X153760952Y-167454819D01*
X153760952Y-167454819D02*
X153380000Y-167454819D01*
X153380000Y-167454819D02*
X153284762Y-167502438D01*
X153284762Y-167502438D02*
X153237143Y-167550057D01*
X153237143Y-167550057D02*
X153189524Y-167645295D01*
X153189524Y-167645295D02*
X153189524Y-167788152D01*
X153189524Y-167788152D02*
X153237143Y-167883390D01*
X153237143Y-167883390D02*
X153284762Y-167931009D01*
X153284762Y-167931009D02*
X153380000Y-167978628D01*
X153380000Y-167978628D02*
X153760952Y-167978628D01*
X152760952Y-167931009D02*
X152427619Y-167931009D01*
X152284762Y-168454819D02*
X152760952Y-168454819D01*
X152760952Y-168454819D02*
X152760952Y-167454819D01*
X152760952Y-167454819D02*
X152284762Y-167454819D01*
X151522857Y-167931009D02*
X151856190Y-167931009D01*
X151856190Y-168454819D02*
X151856190Y-167454819D01*
X151856190Y-167454819D02*
X151380000Y-167454819D01*
X150856190Y-167454819D02*
X150856190Y-167692914D01*
X151094285Y-167597676D02*
X150856190Y-167692914D01*
X150856190Y-167692914D02*
X150618095Y-167597676D01*
X150999047Y-167883390D02*
X150856190Y-167692914D01*
X150856190Y-167692914D02*
X150713333Y-167883390D01*
X150094285Y-167454819D02*
X150094285Y-167692914D01*
X150332380Y-167597676D02*
X150094285Y-167692914D01*
X150094285Y-167692914D02*
X149856190Y-167597676D01*
X150237142Y-167883390D02*
X150094285Y-167692914D01*
X150094285Y-167692914D02*
X149951428Y-167883390D01*
X149570475Y-167454819D02*
X148951428Y-167454819D01*
X148951428Y-167454819D02*
X149284761Y-167835771D01*
X149284761Y-167835771D02*
X149141904Y-167835771D01*
X149141904Y-167835771D02*
X149046666Y-167883390D01*
X149046666Y-167883390D02*
X148999047Y-167931009D01*
X148999047Y-167931009D02*
X148951428Y-168026247D01*
X148951428Y-168026247D02*
X148951428Y-168264342D01*
X148951428Y-168264342D02*
X148999047Y-168359580D01*
X148999047Y-168359580D02*
X149046666Y-168407200D01*
X149046666Y-168407200D02*
X149141904Y-168454819D01*
X149141904Y-168454819D02*
X149427618Y-168454819D01*
X149427618Y-168454819D02*
X149522856Y-168407200D01*
X149522856Y-168407200D02*
X149570475Y-168359580D01*
X79429524Y-172454819D02*
X79762857Y-171978628D01*
X80000952Y-172454819D02*
X80000952Y-171454819D01*
X80000952Y-171454819D02*
X79620000Y-171454819D01*
X79620000Y-171454819D02*
X79524762Y-171502438D01*
X79524762Y-171502438D02*
X79477143Y-171550057D01*
X79477143Y-171550057D02*
X79429524Y-171645295D01*
X79429524Y-171645295D02*
X79429524Y-171788152D01*
X79429524Y-171788152D02*
X79477143Y-171883390D01*
X79477143Y-171883390D02*
X79524762Y-171931009D01*
X79524762Y-171931009D02*
X79620000Y-171978628D01*
X79620000Y-171978628D02*
X80000952Y-171978628D01*
X79000952Y-171931009D02*
X78667619Y-171931009D01*
X78524762Y-172454819D02*
X79000952Y-172454819D01*
X79000952Y-172454819D02*
X79000952Y-171454819D01*
X79000952Y-171454819D02*
X78524762Y-171454819D01*
X77762857Y-171931009D02*
X78096190Y-171931009D01*
X78096190Y-172454819D02*
X78096190Y-171454819D01*
X78096190Y-171454819D02*
X77620000Y-171454819D01*
X77096190Y-171454819D02*
X77096190Y-171692914D01*
X77334285Y-171597676D02*
X77096190Y-171692914D01*
X77096190Y-171692914D02*
X76858095Y-171597676D01*
X77239047Y-171883390D02*
X77096190Y-171692914D01*
X77096190Y-171692914D02*
X76953333Y-171883390D01*
X76334285Y-171454819D02*
X76334285Y-171692914D01*
X76572380Y-171597676D02*
X76334285Y-171692914D01*
X76334285Y-171692914D02*
X76096190Y-171597676D01*
X76477142Y-171883390D02*
X76334285Y-171692914D01*
X76334285Y-171692914D02*
X76191428Y-171883390D01*
X75810475Y-171454819D02*
X75191428Y-171454819D01*
X75191428Y-171454819D02*
X75524761Y-171835771D01*
X75524761Y-171835771D02*
X75381904Y-171835771D01*
X75381904Y-171835771D02*
X75286666Y-171883390D01*
X75286666Y-171883390D02*
X75239047Y-171931009D01*
X75239047Y-171931009D02*
X75191428Y-172026247D01*
X75191428Y-172026247D02*
X75191428Y-172264342D01*
X75191428Y-172264342D02*
X75239047Y-172359580D01*
X75239047Y-172359580D02*
X75286666Y-172407200D01*
X75286666Y-172407200D02*
X75381904Y-172454819D01*
X75381904Y-172454819D02*
X75667618Y-172454819D01*
X75667618Y-172454819D02*
X75762856Y-172407200D01*
X75762856Y-172407200D02*
X75810475Y-172359580D01*
X155729524Y-168454819D02*
X156062857Y-167978628D01*
X156300952Y-168454819D02*
X156300952Y-167454819D01*
X156300952Y-167454819D02*
X155920000Y-167454819D01*
X155920000Y-167454819D02*
X155824762Y-167502438D01*
X155824762Y-167502438D02*
X155777143Y-167550057D01*
X155777143Y-167550057D02*
X155729524Y-167645295D01*
X155729524Y-167645295D02*
X155729524Y-167788152D01*
X155729524Y-167788152D02*
X155777143Y-167883390D01*
X155777143Y-167883390D02*
X155824762Y-167931009D01*
X155824762Y-167931009D02*
X155920000Y-167978628D01*
X155920000Y-167978628D02*
X156300952Y-167978628D01*
X155300952Y-167931009D02*
X154967619Y-167931009D01*
X154824762Y-168454819D02*
X155300952Y-168454819D01*
X155300952Y-168454819D02*
X155300952Y-167454819D01*
X155300952Y-167454819D02*
X154824762Y-167454819D01*
X154062857Y-167931009D02*
X154396190Y-167931009D01*
X154396190Y-168454819D02*
X154396190Y-167454819D01*
X154396190Y-167454819D02*
X153920000Y-167454819D01*
X153396190Y-167454819D02*
X153396190Y-167692914D01*
X153634285Y-167597676D02*
X153396190Y-167692914D01*
X153396190Y-167692914D02*
X153158095Y-167597676D01*
X153539047Y-167883390D02*
X153396190Y-167692914D01*
X153396190Y-167692914D02*
X153253333Y-167883390D01*
X152634285Y-167454819D02*
X152634285Y-167692914D01*
X152872380Y-167597676D02*
X152634285Y-167692914D01*
X152634285Y-167692914D02*
X152396190Y-167597676D01*
X152777142Y-167883390D02*
X152634285Y-167692914D01*
X152634285Y-167692914D02*
X152491428Y-167883390D01*
X152062856Y-167550057D02*
X152015237Y-167502438D01*
X152015237Y-167502438D02*
X151919999Y-167454819D01*
X151919999Y-167454819D02*
X151681904Y-167454819D01*
X151681904Y-167454819D02*
X151586666Y-167502438D01*
X151586666Y-167502438D02*
X151539047Y-167550057D01*
X151539047Y-167550057D02*
X151491428Y-167645295D01*
X151491428Y-167645295D02*
X151491428Y-167740533D01*
X151491428Y-167740533D02*
X151539047Y-167883390D01*
X151539047Y-167883390D02*
X152110475Y-168454819D01*
X152110475Y-168454819D02*
X151491428Y-168454819D01*
X160333333Y-168454819D02*
X160666666Y-167978628D01*
X160904761Y-168454819D02*
X160904761Y-167454819D01*
X160904761Y-167454819D02*
X160523809Y-167454819D01*
X160523809Y-167454819D02*
X160428571Y-167502438D01*
X160428571Y-167502438D02*
X160380952Y-167550057D01*
X160380952Y-167550057D02*
X160333333Y-167645295D01*
X160333333Y-167645295D02*
X160333333Y-167788152D01*
X160333333Y-167788152D02*
X160380952Y-167883390D01*
X160380952Y-167883390D02*
X160428571Y-167931009D01*
X160428571Y-167931009D02*
X160523809Y-167978628D01*
X160523809Y-167978628D02*
X160904761Y-167978628D01*
X159904761Y-167931009D02*
X159571428Y-167931009D01*
X159428571Y-168454819D02*
X159904761Y-168454819D01*
X159904761Y-168454819D02*
X159904761Y-167454819D01*
X159904761Y-167454819D02*
X159428571Y-167454819D01*
X158666666Y-167931009D02*
X158999999Y-167931009D01*
X158999999Y-168454819D02*
X158999999Y-167454819D01*
X158999999Y-167454819D02*
X158523809Y-167454819D01*
X157999999Y-167454819D02*
X157999999Y-167692914D01*
X158238094Y-167597676D02*
X157999999Y-167692914D01*
X157999999Y-167692914D02*
X157761904Y-167597676D01*
X158142856Y-167883390D02*
X157999999Y-167692914D01*
X157999999Y-167692914D02*
X157857142Y-167883390D01*
X157238094Y-167454819D02*
X157238094Y-167692914D01*
X157476189Y-167597676D02*
X157238094Y-167692914D01*
X157238094Y-167692914D02*
X156999999Y-167597676D01*
X157380951Y-167883390D02*
X157238094Y-167692914D01*
X157238094Y-167692914D02*
X157095237Y-167883390D01*
X81969524Y-172454819D02*
X82302857Y-171978628D01*
X82540952Y-172454819D02*
X82540952Y-171454819D01*
X82540952Y-171454819D02*
X82160000Y-171454819D01*
X82160000Y-171454819D02*
X82064762Y-171502438D01*
X82064762Y-171502438D02*
X82017143Y-171550057D01*
X82017143Y-171550057D02*
X81969524Y-171645295D01*
X81969524Y-171645295D02*
X81969524Y-171788152D01*
X81969524Y-171788152D02*
X82017143Y-171883390D01*
X82017143Y-171883390D02*
X82064762Y-171931009D01*
X82064762Y-171931009D02*
X82160000Y-171978628D01*
X82160000Y-171978628D02*
X82540952Y-171978628D01*
X81540952Y-171931009D02*
X81207619Y-171931009D01*
X81064762Y-172454819D02*
X81540952Y-172454819D01*
X81540952Y-172454819D02*
X81540952Y-171454819D01*
X81540952Y-171454819D02*
X81064762Y-171454819D01*
X80302857Y-171931009D02*
X80636190Y-171931009D01*
X80636190Y-172454819D02*
X80636190Y-171454819D01*
X80636190Y-171454819D02*
X80160000Y-171454819D01*
X79636190Y-171454819D02*
X79636190Y-171692914D01*
X79874285Y-171597676D02*
X79636190Y-171692914D01*
X79636190Y-171692914D02*
X79398095Y-171597676D01*
X79779047Y-171883390D02*
X79636190Y-171692914D01*
X79636190Y-171692914D02*
X79493333Y-171883390D01*
X78874285Y-171454819D02*
X78874285Y-171692914D01*
X79112380Y-171597676D02*
X78874285Y-171692914D01*
X78874285Y-171692914D02*
X78636190Y-171597676D01*
X79017142Y-171883390D02*
X78874285Y-171692914D01*
X78874285Y-171692914D02*
X78731428Y-171883390D01*
X77826666Y-171788152D02*
X77826666Y-172454819D01*
X78064761Y-171407200D02*
X78302856Y-172121485D01*
X78302856Y-172121485D02*
X77683809Y-172121485D01*
X76889524Y-172454819D02*
X77222857Y-171978628D01*
X77460952Y-172454819D02*
X77460952Y-171454819D01*
X77460952Y-171454819D02*
X77080000Y-171454819D01*
X77080000Y-171454819D02*
X76984762Y-171502438D01*
X76984762Y-171502438D02*
X76937143Y-171550057D01*
X76937143Y-171550057D02*
X76889524Y-171645295D01*
X76889524Y-171645295D02*
X76889524Y-171788152D01*
X76889524Y-171788152D02*
X76937143Y-171883390D01*
X76937143Y-171883390D02*
X76984762Y-171931009D01*
X76984762Y-171931009D02*
X77080000Y-171978628D01*
X77080000Y-171978628D02*
X77460952Y-171978628D01*
X76460952Y-171931009D02*
X76127619Y-171931009D01*
X75984762Y-172454819D02*
X76460952Y-172454819D01*
X76460952Y-172454819D02*
X76460952Y-171454819D01*
X76460952Y-171454819D02*
X75984762Y-171454819D01*
X75222857Y-171931009D02*
X75556190Y-171931009D01*
X75556190Y-172454819D02*
X75556190Y-171454819D01*
X75556190Y-171454819D02*
X75080000Y-171454819D01*
X74556190Y-171454819D02*
X74556190Y-171692914D01*
X74794285Y-171597676D02*
X74556190Y-171692914D01*
X74556190Y-171692914D02*
X74318095Y-171597676D01*
X74699047Y-171883390D02*
X74556190Y-171692914D01*
X74556190Y-171692914D02*
X74413333Y-171883390D01*
X73794285Y-171454819D02*
X73794285Y-171692914D01*
X74032380Y-171597676D02*
X73794285Y-171692914D01*
X73794285Y-171692914D02*
X73556190Y-171597676D01*
X73937142Y-171883390D02*
X73794285Y-171692914D01*
X73794285Y-171692914D02*
X73651428Y-171883390D01*
X73222856Y-171550057D02*
X73175237Y-171502438D01*
X73175237Y-171502438D02*
X73079999Y-171454819D01*
X73079999Y-171454819D02*
X72841904Y-171454819D01*
X72841904Y-171454819D02*
X72746666Y-171502438D01*
X72746666Y-171502438D02*
X72699047Y-171550057D01*
X72699047Y-171550057D02*
X72651428Y-171645295D01*
X72651428Y-171645295D02*
X72651428Y-171740533D01*
X72651428Y-171740533D02*
X72699047Y-171883390D01*
X72699047Y-171883390D02*
X73270475Y-172454819D01*
X73270475Y-172454819D02*
X72651428Y-172454819D01*
%LPC*%
D11*
X131225000Y-167150000D02*
G75*
G02*
X130075000Y-167150000I-575000J0D01*
G01*
X130075000Y-167150000D02*
G75*
G02*
X131225000Y-167150000I575000J0D01*
G01*
X131275000Y-170400000D02*
G75*
G02*
X130125000Y-170400000I-575000J0D01*
G01*
X130125000Y-170400000D02*
G75*
G02*
X131275000Y-170400000I575000J0D01*
G01*
X131275000Y-173700000D02*
G75*
G02*
X130125000Y-173700000I-575000J0D01*
G01*
X130125000Y-173700000D02*
G75*
G02*
X131275000Y-173700000I575000J0D01*
G01*
%TO.C,REF\u002A\u002A*%
D12*
X125650000Y-148350000D02*
G75*
G02*
X123150000Y-148350000I-1250000J0D01*
G01*
X123150000Y-148350000D02*
G75*
G02*
X125650000Y-148350000I1250000J0D01*
G01*
X94050000Y-146200000D02*
G75*
G02*
X91550000Y-146200000I-1250000J0D01*
G01*
X91550000Y-146200000D02*
G75*
G02*
X94050000Y-146200000I1250000J0D01*
G01*
X94750000Y-132300000D02*
G75*
G02*
X92250000Y-132300000I-1250000J0D01*
G01*
X92250000Y-132300000D02*
G75*
G02*
X94750000Y-132300000I1250000J0D01*
G01*
X131750000Y-159000000D02*
G75*
G02*
X129250000Y-159000000I-1250000J0D01*
G01*
X129250000Y-159000000D02*
G75*
G02*
X131750000Y-159000000I1250000J0D01*
G01*
%TD*%
D13*
%TO.C,J5*%
X112845000Y-151295000D03*
D14*
X112845000Y-153835000D03*
X112845000Y-156375000D03*
%TD*%
D13*
%TO.C,J1*%
X103180000Y-114100000D03*
D14*
X103180000Y-116640000D03*
X100640000Y-114100000D03*
X100640000Y-116640000D03*
X98100000Y-114100000D03*
X98100000Y-116640000D03*
X95560000Y-114100000D03*
X95560000Y-116640000D03*
X93020000Y-114100000D03*
X93020000Y-116640000D03*
X90480000Y-114100000D03*
X90480000Y-116640000D03*
X87940000Y-114100000D03*
X87940000Y-116640000D03*
X85400000Y-114100000D03*
X85400000Y-116640000D03*
X82860000Y-114100000D03*
X82860000Y-116640000D03*
X80320000Y-114100000D03*
X80320000Y-116640000D03*
%TD*%
D13*
%TO.C,J2*%
X83625000Y-130770000D03*
D14*
X86165000Y-130770000D03*
X83625000Y-133310000D03*
X86165000Y-133310000D03*
X83625000Y-135850000D03*
X86165000Y-135850000D03*
X83625000Y-138390000D03*
X86165000Y-138390000D03*
X83625000Y-140930000D03*
X86165000Y-140930000D03*
X83625000Y-143470000D03*
X86165000Y-143470000D03*
X83625000Y-146010000D03*
X86165000Y-146010000D03*
X83625000Y-148550000D03*
X86165000Y-148550000D03*
X83625000Y-151090000D03*
X86165000Y-151090000D03*
X83625000Y-153630000D03*
X86165000Y-153630000D03*
%TD*%
D15*
%TO.C,J3*%
X113150000Y-113950000D03*
X107370000Y-113950000D03*
D16*
X114590000Y-114470000D03*
D17*
X114590000Y-110270000D03*
D16*
X105930000Y-114470000D03*
D17*
X105930000Y-110270000D03*
%TD*%
D13*
%TO.C,J4*%
X132065000Y-150980000D03*
D14*
X129525000Y-150980000D03*
X132065000Y-148440000D03*
X129525000Y-148440000D03*
X132065000Y-145900000D03*
X129525000Y-145900000D03*
X132065000Y-143360000D03*
X129525000Y-143360000D03*
X132065000Y-140820000D03*
X129525000Y-140820000D03*
X132065000Y-138280000D03*
X129525000Y-138280000D03*
X132065000Y-135740000D03*
X129525000Y-135740000D03*
X132065000Y-133200000D03*
X129525000Y-133200000D03*
%TD*%
D18*
%TO.C,REF\u002A\u002A4*%
X148840000Y-170000000D03*
%TD*%
%TO.C,REF\u002A\u002A1*%
X156460000Y-170000000D03*
%TD*%
D19*
%TO.C,REF\u002A\u002A1*%
X72540000Y-170000000D03*
%TD*%
%TO.C,REF\u002A\u002A*%
X70000000Y-170000000D03*
%TD*%
D18*
%TO.C,REF\u002A\u002A3*%
X151380000Y-170000000D03*
%TD*%
D19*
%TO.C,REF\u002A\u002A3*%
X77620000Y-170000000D03*
%TD*%
D18*
%TO.C,REF\u002A\u002A2*%
X153920000Y-170000000D03*
%TD*%
%TO.C,REF\u002A\u002A*%
X159000000Y-170000000D03*
%TD*%
D19*
%TO.C,REF\u002A\u002A4*%
X80160000Y-170000000D03*
%TD*%
%TO.C,REF\u002A\u002A2*%
X75080000Y-170000000D03*
%TD*%
%LPD*%
M02*
