%TF.GenerationSoftware,KiCad,Pcbnew,10.0.1-1.fc44*%
%TF.CreationDate,2026-05-05T04:36:18+02:00*%
%TF.ProjectId,poc-one,706f632d-6f6e-4652-9e6b-696361645f70,rev?*%
%TF.SameCoordinates,Original*%
%TF.FileFunction,Soldermask,Top*%
%TF.FilePolarity,Negative*%
%FSLAX46Y46*%
G04 Gerber Fmt 4.6, Leading zero omitted, Abs format (unit mm)*
G04 Created by KiCad (PCBNEW 10.0.1-1.fc44) date 2026-05-05 04:36:18*
%MOMM*%
%LPD*%
G01*
G04 APERTURE LIST*
G04 Aperture macros list*
%AMRoundRect*
0 Rectangle with rounded corners*
0 $1 Rounding radius*
0 $2 $3 $4 $5 $6 $7 $8 $9 X,Y pos of 4 corners*
0 Add a 4 corners polygon primitive as box body*
4,1,4,$2,$3,$4,$5,$6,$7,$8,$9,$2,$3,0*
0 Add four circle primitives for the rounded corners*
1,1,$1+$1,$2,$3*
1,1,$1+$1,$4,$5*
1,1,$1+$1,$6,$7*
1,1,$1+$1,$8,$9*
0 Add four rect primitives between the rounded corners*
20,1,$1+$1,$2,$3,$4,$5,0*
20,1,$1+$1,$4,$5,$6,$7,0*
20,1,$1+$1,$6,$7,$8,$9,0*
20,1,$1+$1,$8,$9,$2,$3,0*%
G04 Aperture macros list end*
%ADD10C,1.150000*%
%ADD11C,0.957107*%
%ADD12C,1.000000*%
%ADD13RoundRect,0.140000X0.140000X0.170000X-0.140000X0.170000X-0.140000X-0.170000X0.140000X-0.170000X0*%
%ADD14C,1.500000*%
%ADD15RoundRect,0.135000X0.185000X-0.135000X0.185000X0.135000X-0.185000X0.135000X-0.185000X-0.135000X0*%
%ADD16RoundRect,0.135000X-0.185000X0.135000X-0.185000X-0.135000X0.185000X-0.135000X0.185000X0.135000X0*%
%ADD17RoundRect,0.250000X-0.250000X-0.750000X0.250000X-0.750000X0.250000X0.750000X-0.250000X0.750000X0*%
%ADD18RoundRect,0.140000X-0.170000X0.140000X-0.170000X-0.140000X0.170000X-0.140000X0.170000X0.140000X0*%
%ADD19RoundRect,0.140000X-0.140000X-0.170000X0.140000X-0.170000X0.140000X0.170000X-0.140000X0.170000X0*%
%ADD20RoundRect,0.150000X0.150000X-0.590000X0.150000X0.590000X-0.150000X0.590000X-0.150000X-0.590000X0*%
%ADD21RoundRect,0.135000X0.135000X0.185000X-0.135000X0.185000X-0.135000X-0.185000X0.135000X-0.185000X0*%
%ADD22R,1.700000X1.700000*%
%ADD23C,1.700000*%
%ADD24RoundRect,0.135000X-0.135000X-0.185000X0.135000X-0.185000X0.135000X0.185000X-0.135000X0.185000X0*%
%ADD25RoundRect,0.225000X-0.225000X-0.250000X0.225000X-0.250000X0.225000X0.250000X-0.225000X0.250000X0*%
%ADD26R,1.500000X1.000000*%
%ADD27O,0.600000X1.970000*%
%ADD28RoundRect,0.250000X0.250000X0.750000X-0.250000X0.750000X-0.250000X-0.750000X0.250000X-0.750000X0*%
%ADD29RoundRect,0.250000X-0.550000X1.250000X-0.550000X-1.250000X0.550000X-1.250000X0.550000X1.250000X0*%
%ADD30RoundRect,0.062500X-0.325000X-0.062500X0.325000X-0.062500X0.325000X0.062500X-0.325000X0.062500X0*%
%ADD31RoundRect,0.062500X-0.062500X-0.325000X0.062500X-0.325000X0.062500X0.325000X-0.062500X0.325000X0*%
%ADD32R,2.450000X2.450000*%
%ADD33RoundRect,0.200000X-0.200000X-0.650000X0.200000X-0.650000X0.200000X0.650000X-0.200000X0.650000X0*%
%ADD34RoundRect,0.052500X0.222500X0.122500X-0.222500X0.122500X-0.222500X-0.122500X0.222500X-0.122500X0*%
%ADD35RoundRect,0.087500X0.187500X0.087500X-0.187500X0.087500X-0.187500X-0.087500X0.187500X-0.087500X0*%
%ADD36RoundRect,0.150000X-0.400000X-0.150000X0.400000X-0.150000X0.400000X0.150000X-0.400000X0.150000X0*%
%ADD37RoundRect,0.050000X-0.350000X-0.050000X0.350000X-0.050000X0.350000X0.050000X-0.350000X0.050000X0*%
%ADD38RoundRect,0.050000X-0.050000X-0.350000X0.050000X-0.350000X0.050000X0.350000X-0.050000X0.350000X0*%
%ADD39R,3.400000X3.400000*%
%ADD40RoundRect,0.140000X0.170000X-0.140000X0.170000X0.140000X-0.170000X0.140000X-0.170000X-0.140000X0*%
%ADD41RoundRect,0.218750X0.256250X-0.218750X0.256250X0.218750X-0.256250X0.218750X-0.256250X-0.218750X0*%
%ADD42RoundRect,0.150000X-0.150000X0.590000X-0.150000X-0.590000X0.150000X-0.590000X0.150000X0.590000X0*%
%ADD43RoundRect,0.250000X0.250000X0.550000X-0.250000X0.550000X-0.250000X-0.550000X0.250000X-0.550000X0*%
%ADD44RoundRect,0.135000X-0.035355X0.226274X-0.226274X0.035355X0.035355X-0.226274X0.226274X-0.035355X0*%
%ADD45RoundRect,0.375000X-0.625000X-0.375000X0.625000X-0.375000X0.625000X0.375000X-0.625000X0.375000X0*%
%ADD46RoundRect,0.500000X-0.500000X-1.400000X0.500000X-1.400000X0.500000X1.400000X-0.500000X1.400000X0*%
%ADD47RoundRect,0.200000X0.650000X-0.200000X0.650000X0.200000X-0.650000X0.200000X-0.650000X-0.200000X0*%
%ADD48RoundRect,0.218750X-0.218750X-0.256250X0.218750X-0.256250X0.218750X0.256250X-0.218750X0.256250X0*%
%ADD49RoundRect,0.261500X0.261500X0.476500X-0.261500X0.476500X-0.261500X-0.476500X0.261500X-0.476500X0*%
%ADD50RoundRect,0.162500X0.575000X0.162500X-0.575000X0.162500X-0.575000X-0.162500X0.575000X-0.162500X0*%
%ADD51C,0.600000*%
%ADD52R,0.300000X1.400000*%
%ADD53R,0.500000X1.400000*%
%ADD54O,1.300000X2.300000*%
%ADD55O,1.300000X2.100000*%
%ADD56RoundRect,0.500000X2.000000X1.000000X-2.000000X1.000000X-2.000000X-1.000000X2.000000X-1.000000X0*%
%ADD57RoundRect,0.250000X-0.450000X-0.350000X0.450000X-0.350000X0.450000X0.350000X-0.450000X0.350000X0*%
%ADD58RoundRect,0.250000X-0.970000X-0.310000X0.970000X-0.310000X0.970000X0.310000X-0.970000X0.310000X0*%
%ADD59RoundRect,0.250000X-0.625000X0.312500X-0.625000X-0.312500X0.625000X-0.312500X0.625000X0.312500X0*%
%ADD60RoundRect,0.218750X-0.256250X0.218750X-0.256250X-0.218750X0.256250X-0.218750X0.256250X0.218750X0*%
%ADD61RoundRect,0.140000X-0.021213X0.219203X-0.219203X0.021213X0.021213X-0.219203X0.219203X-0.021213X0*%
%ADD62RoundRect,0.135000X-0.145000X0.135000X-0.145000X-0.135000X0.145000X-0.135000X0.145000X0.135000X0*%
%ADD63RoundRect,0.219000X-0.294000X0.219000X-0.294000X-0.219000X0.294000X-0.219000X0.294000X0.219000X0*%
%ADD64RoundRect,0.250000X3.500000X-2.400000X3.500000X2.400000X-3.500000X2.400000X-3.500000X-2.400000X0*%
G04 APERTURE END LIST*
D10*
X131225000Y-167150000D02*
G75*
G02*
X130075000Y-167150000I-575000J0D01*
G01*
X130075000Y-167150000D02*
G75*
G02*
X131225000Y-167150000I575000J0D01*
G01*
X131275000Y-170400000D02*
G75*
G02*
X130125000Y-170400000I-575000J0D01*
G01*
X130125000Y-170400000D02*
G75*
G02*
X131275000Y-170400000I575000J0D01*
G01*
X131275000Y-173700000D02*
G75*
G02*
X130125000Y-173700000I-575000J0D01*
G01*
X130125000Y-173700000D02*
G75*
G02*
X131275000Y-173700000I575000J0D01*
G01*
%TO.C,REF\u002A\u002A*%
D11*
X124878553Y-148350000D02*
G75*
G02*
X123921447Y-148350000I-478553J0D01*
G01*
X123921447Y-148350000D02*
G75*
G02*
X124878553Y-148350000I478553J0D01*
G01*
D12*
X126400000Y-148350000D02*
G75*
G02*
X122400000Y-148350000I-2000000J0D01*
G01*
X122400000Y-148350000D02*
G75*
G02*
X126400000Y-148350000I2000000J0D01*
G01*
%TO.C,JP5*%
G36*
X99160000Y-162400000D02*
G01*
X100660000Y-162400000D01*
X100660000Y-162700000D01*
X99160000Y-162700000D01*
X99160000Y-162400000D01*
G37*
%TO.C,REF\u002A\u002A*%
D11*
X93278553Y-146200000D02*
G75*
G02*
X92321447Y-146200000I-478553J0D01*
G01*
X92321447Y-146200000D02*
G75*
G02*
X93278553Y-146200000I478553J0D01*
G01*
D12*
X94800000Y-146200000D02*
G75*
G02*
X90800000Y-146200000I-2000000J0D01*
G01*
X90800000Y-146200000D02*
G75*
G02*
X94800000Y-146200000I2000000J0D01*
G01*
%TO.C,JP10*%
G36*
X106466081Y-166120810D02*
G01*
X107966081Y-166120810D01*
X107966081Y-166420810D01*
X106466081Y-166420810D01*
X106466081Y-166120810D01*
G37*
%TO.C,JP7*%
G36*
X101700000Y-162400000D02*
G01*
X103200000Y-162400000D01*
X103200000Y-162700000D01*
X101700000Y-162700000D01*
X101700000Y-162400000D01*
G37*
%TO.C,REF\u002A\u002A*%
D11*
X93978553Y-132300000D02*
G75*
G02*
X93021447Y-132300000I-478553J0D01*
G01*
X93021447Y-132300000D02*
G75*
G02*
X93978553Y-132300000I478553J0D01*
G01*
D12*
X95500000Y-132300000D02*
G75*
G02*
X91500000Y-132300000I-2000000J0D01*
G01*
X91500000Y-132300000D02*
G75*
G02*
X95500000Y-132300000I2000000J0D01*
G01*
%TO.C,JP14*%
G36*
X112230000Y-166150000D02*
G01*
X113730000Y-166150000D01*
X113730000Y-166450000D01*
X112230000Y-166450000D01*
X112230000Y-166150000D01*
G37*
%TO.C,JP9*%
G36*
X104240000Y-162400000D02*
G01*
X105740000Y-162400000D01*
X105740000Y-162700000D01*
X104240000Y-162700000D01*
X104240000Y-162400000D01*
G37*
%TO.C,JP3*%
G36*
X95600000Y-162450000D02*
G01*
X97100000Y-162450000D01*
X97100000Y-162750000D01*
X95600000Y-162750000D01*
X95600000Y-162450000D01*
G37*
%TO.C,JP15*%
G36*
X113370000Y-162450000D02*
G01*
X114870000Y-162450000D01*
X114870000Y-162750000D01*
X113370000Y-162750000D01*
X113370000Y-162450000D01*
G37*
%TO.C,REF\u002A\u002A*%
D11*
X130978553Y-159000000D02*
G75*
G02*
X130021447Y-159000000I-478553J0D01*
G01*
X130021447Y-159000000D02*
G75*
G02*
X130978553Y-159000000I478553J0D01*
G01*
D12*
X132500000Y-159000000D02*
G75*
G02*
X128500000Y-159000000I-2000000J0D01*
G01*
X128500000Y-159000000D02*
G75*
G02*
X132500000Y-159000000I2000000J0D01*
G01*
%TO.C,JP12*%
G36*
X109006081Y-166120810D02*
G01*
X110506081Y-166120810D01*
X110506081Y-166420810D01*
X109006081Y-166420810D01*
X109006081Y-166120810D01*
G37*
%TO.C,JP2*%
G36*
X94460000Y-166150000D02*
G01*
X95960000Y-166150000D01*
X95960000Y-166450000D01*
X94460000Y-166450000D01*
X94460000Y-166150000D01*
G37*
%TO.C,JP6*%
G36*
X100560000Y-166100000D02*
G01*
X102060000Y-166100000D01*
X102060000Y-166400000D01*
X100560000Y-166400000D01*
X100560000Y-166100000D01*
G37*
%TO.C,JP1*%
G36*
X93060000Y-162450000D02*
G01*
X94560000Y-162450000D01*
X94560000Y-162750000D01*
X93060000Y-162750000D01*
X93060000Y-162450000D01*
G37*
%TO.C,JP18*%
G36*
X118160000Y-166150000D02*
G01*
X119660000Y-166150000D01*
X119660000Y-166450000D01*
X118160000Y-166450000D01*
X118160000Y-166150000D01*
G37*
%TO.C,JP21*%
G36*
X121840000Y-162450000D02*
G01*
X123340000Y-162450000D01*
X123340000Y-162750000D01*
X121840000Y-162750000D01*
X121840000Y-162450000D01*
G37*
%TO.C,JP17*%
G36*
X115910000Y-162450000D02*
G01*
X117410000Y-162450000D01*
X117410000Y-162750000D01*
X115910000Y-162750000D01*
X115910000Y-162450000D01*
G37*
%TO.C,JP8*%
G36*
X103100000Y-166100000D02*
G01*
X104600000Y-166100000D01*
X104600000Y-166400000D01*
X103100000Y-166400000D01*
X103100000Y-166100000D01*
G37*
%TO.C,JP11*%
G36*
X107606081Y-162420810D02*
G01*
X109106081Y-162420810D01*
X109106081Y-162720810D01*
X107606081Y-162720810D01*
X107606081Y-162420810D01*
G37*
%TO.C,JP20*%
G36*
X120700000Y-166150000D02*
G01*
X122200000Y-166150000D01*
X122200000Y-166450000D01*
X120700000Y-166450000D01*
X120700000Y-166150000D01*
G37*
%TO.C,JP16*%
G36*
X114770000Y-166150000D02*
G01*
X116270000Y-166150000D01*
X116270000Y-166450000D01*
X114770000Y-166450000D01*
X114770000Y-166150000D01*
G37*
%TO.C,JP19*%
G36*
X119300000Y-162450000D02*
G01*
X120800000Y-162450000D01*
X120800000Y-162750000D01*
X119300000Y-162750000D01*
X119300000Y-162450000D01*
G37*
%TO.C,JP13*%
G36*
X110146081Y-162420810D02*
G01*
X111646081Y-162420810D01*
X111646081Y-162720810D01*
X110146081Y-162720810D01*
X110146081Y-162420810D01*
G37*
%TO.C,JP4*%
G36*
X98020000Y-166100000D02*
G01*
X99520000Y-166100000D01*
X99520000Y-166400000D01*
X98020000Y-166400000D01*
X98020000Y-166100000D01*
G37*
%TD*%
D13*
%TO.C,C14*%
X103830000Y-147450000D03*
X102870000Y-147450000D03*
%TD*%
D14*
%TO.C,TP6*%
X129700000Y-116200000D03*
%TD*%
D15*
%TO.C,R42*%
X118775000Y-141710000D03*
X118775000Y-140690000D03*
%TD*%
D16*
%TO.C,R18*%
X121550000Y-125640000D03*
X121550000Y-126660000D03*
%TD*%
%TO.C,R4*%
X116800000Y-149890000D03*
X116800000Y-150910000D03*
%TD*%
D17*
%TO.C,REF\u002A\u002A2*%
X153920000Y-170000000D03*
%TD*%
D18*
%TO.C,C21*%
X123800000Y-124670000D03*
X123800000Y-125630000D03*
%TD*%
D16*
%TO.C,R3*%
X107150000Y-148390000D03*
X107150000Y-149410000D03*
%TD*%
D19*
%TO.C,C2*%
X108220000Y-151000000D03*
X109180000Y-151000000D03*
%TD*%
D20*
%TO.C,Q5*%
X104900000Y-198500000D03*
X106800000Y-198500000D03*
X105850000Y-196620000D03*
%TD*%
D21*
%TO.C,R28*%
X110530000Y-199950000D03*
X109510000Y-199950000D03*
%TD*%
%TO.C,R21*%
X138460000Y-114100000D03*
X137440000Y-114100000D03*
%TD*%
D15*
%TO.C,R15*%
X119500000Y-126660000D03*
X119500000Y-125640000D03*
%TD*%
D20*
%TO.C,Q6*%
X109550000Y-198500000D03*
X111450000Y-198500000D03*
X110500000Y-196620000D03*
%TD*%
D22*
%TO.C,J5*%
X112845000Y-151295000D03*
D23*
X112845000Y-153835000D03*
X112845000Y-156375000D03*
%TD*%
D24*
%TO.C,R19*%
X117600000Y-128200000D03*
X118620000Y-128200000D03*
%TD*%
D25*
%TO.C,C20*%
X120825000Y-117150000D03*
X122375000Y-117150000D03*
%TD*%
D26*
%TO.C,JP5*%
X99910000Y-161900000D03*
X99910000Y-163200000D03*
%TD*%
D27*
%TO.C,U14*%
X113530000Y-178300000D03*
X114810000Y-178300000D03*
X116070000Y-178300000D03*
X117340000Y-178300000D03*
X118620000Y-178300000D03*
X119890000Y-178300000D03*
X121150000Y-178300000D03*
X122430000Y-178300000D03*
X122430000Y-172820000D03*
X121150000Y-172820000D03*
X119890000Y-172820000D03*
X118620000Y-172820000D03*
X117340000Y-172820000D03*
X116070000Y-172820000D03*
X114810000Y-172820000D03*
X113530000Y-172820000D03*
%TD*%
D28*
%TO.C,REF\u002A\u002A*%
X70000000Y-170000000D03*
%TD*%
D29*
%TO.C,C27*%
X91170000Y-204200000D03*
X91170000Y-208600000D03*
%TD*%
D21*
%TO.C,R27*%
X105980000Y-199950000D03*
X104960000Y-199950000D03*
%TD*%
D30*
%TO.C,U3*%
X118825000Y-121000000D03*
X118825000Y-121500000D03*
X118825000Y-122000000D03*
X118825000Y-122500000D03*
X118825000Y-123000000D03*
X118825000Y-123500000D03*
D31*
X119562500Y-124237500D03*
X120062500Y-124237500D03*
X120562500Y-124237500D03*
X121062500Y-124237500D03*
X121562500Y-124237500D03*
X122062500Y-124237500D03*
D30*
X122800000Y-123500000D03*
X122800000Y-123000000D03*
X122800000Y-122500000D03*
X122800000Y-122000000D03*
X122800000Y-121500000D03*
X122800000Y-121000000D03*
D31*
X122062500Y-120262500D03*
X121562500Y-120262500D03*
X121062500Y-120262500D03*
X120562500Y-120262500D03*
X120062500Y-120262500D03*
X119562500Y-120262500D03*
D32*
X120812500Y-122250000D03*
%TD*%
D17*
%TO.C,REF\u002A\u002A*%
X159000000Y-170000000D03*
%TD*%
D14*
%TO.C,TP9*%
X85570000Y-203200000D03*
%TD*%
D33*
%TO.C,SW2*%
X116750000Y-148112500D03*
X113350000Y-148112500D03*
%TD*%
D34*
%TO.C,D16*%
X97035000Y-192950000D03*
X97035000Y-193550000D03*
D35*
X97985000Y-193550000D03*
D34*
X97985000Y-192950000D03*
%TD*%
D16*
%TO.C,R12*%
X111950000Y-118290000D03*
X111950000Y-119310000D03*
%TD*%
D36*
%TO.C,U22*%
X125350000Y-134950000D03*
X125350000Y-134000000D03*
X125350000Y-133050000D03*
X122750000Y-133050000D03*
X122750000Y-134950000D03*
%TD*%
D26*
%TO.C,JP10*%
X107216081Y-165620810D03*
X107216081Y-166920810D03*
%TD*%
D14*
%TO.C,TP5*%
X110410000Y-128870000D03*
%TD*%
D26*
%TO.C,JP7*%
X102450000Y-161900000D03*
X102450000Y-163200000D03*
%TD*%
D14*
%TO.C,TP7*%
X129600000Y-127100000D03*
%TD*%
D37*
%TO.C,U2*%
X102100000Y-136750000D03*
X102100000Y-137150000D03*
X102100000Y-137550000D03*
X102100000Y-137950000D03*
X102100000Y-138350000D03*
X102100000Y-138750000D03*
X102100000Y-139150000D03*
X102100000Y-139550000D03*
X102100000Y-139950000D03*
X102100000Y-140350000D03*
X102100000Y-140750000D03*
X102100000Y-141150000D03*
X102100000Y-141550000D03*
X102100000Y-141950000D03*
X102100000Y-142350000D03*
X102100000Y-142750000D03*
X102100000Y-143150000D03*
X102100000Y-143550000D03*
X102100000Y-143950000D03*
X102100000Y-144350000D03*
D38*
X103250000Y-145500000D03*
X103650000Y-145500000D03*
X104050000Y-145500000D03*
X104450000Y-145500000D03*
X104850000Y-145500000D03*
X105250000Y-145500000D03*
X105650000Y-145500000D03*
X106050000Y-145500000D03*
X106450000Y-145500000D03*
X106850000Y-145500000D03*
X107250000Y-145500000D03*
X107650000Y-145500000D03*
X108050000Y-145500000D03*
X108450000Y-145500000D03*
X108850000Y-145500000D03*
X109250000Y-145500000D03*
X109650000Y-145500000D03*
X110050000Y-145500000D03*
X110450000Y-145500000D03*
X110850000Y-145500000D03*
D37*
X112000000Y-144350000D03*
X112000000Y-143950000D03*
X112000000Y-143550000D03*
X112000000Y-143150000D03*
X112000000Y-142750000D03*
X112000000Y-142350000D03*
X112000000Y-141950000D03*
X112000000Y-141550000D03*
X112000000Y-141150000D03*
X112000000Y-140750000D03*
X112000000Y-140350000D03*
X112000000Y-139950000D03*
X112000000Y-139550000D03*
X112000000Y-139150000D03*
X112000000Y-138750000D03*
X112000000Y-138350000D03*
X112000000Y-137950000D03*
X112000000Y-137550000D03*
X112000000Y-137150000D03*
X112000000Y-136750000D03*
D38*
X110850000Y-135600000D03*
X110450000Y-135600000D03*
X110050000Y-135600000D03*
X109650000Y-135600000D03*
X109250000Y-135600000D03*
X108850000Y-135600000D03*
X108450000Y-135600000D03*
X108050000Y-135600000D03*
X107650000Y-135600000D03*
X107250000Y-135600000D03*
X106850000Y-135600000D03*
X106450000Y-135600000D03*
X106050000Y-135600000D03*
X105650000Y-135600000D03*
X105250000Y-135600000D03*
X104850000Y-135600000D03*
X104450000Y-135600000D03*
X104050000Y-135600000D03*
X103650000Y-135600000D03*
X103250000Y-135600000D03*
D39*
X107050000Y-140550000D03*
%TD*%
D40*
%TO.C,C25*%
X146910000Y-120060000D03*
X146910000Y-119100000D03*
%TD*%
D20*
%TO.C,Q3*%
X95700000Y-198450000D03*
X97600000Y-198450000D03*
X96650000Y-196570000D03*
%TD*%
D34*
%TO.C,D6*%
X101435000Y-186350000D03*
X101435000Y-186950000D03*
D35*
X102385000Y-186950000D03*
D34*
X102385000Y-186350000D03*
%TD*%
D28*
%TO.C,REF\u002A\u002A3*%
X77620000Y-170000000D03*
%TD*%
D34*
%TO.C,D19*%
X103635000Y-192950000D03*
X103635000Y-193550000D03*
D35*
X104585000Y-193550000D03*
D34*
X104585000Y-192950000D03*
%TD*%
D15*
%TO.C,R36*%
X102225000Y-181360000D03*
X102225000Y-180340000D03*
%TD*%
D41*
%TO.C,D1*%
X121450000Y-112337500D03*
X121450000Y-110762500D03*
%TD*%
D42*
%TO.C,Q2*%
X139100000Y-116520000D03*
X137200000Y-116520000D03*
X138150000Y-118400000D03*
%TD*%
D18*
%TO.C,C7*%
X112550000Y-133540000D03*
X112550000Y-134500000D03*
%TD*%
D40*
%TO.C,C17*%
X104675000Y-134005000D03*
X104675000Y-133045000D03*
%TD*%
D18*
%TO.C,C24*%
X127650000Y-121200000D03*
X127650000Y-122160000D03*
%TD*%
D15*
%TO.C,R33*%
X101075000Y-181360000D03*
X101075000Y-180340000D03*
%TD*%
D40*
%TO.C,C26*%
X155700000Y-115180000D03*
X155700000Y-114220000D03*
%TD*%
D26*
%TO.C,JP14*%
X112980000Y-165650000D03*
X112980000Y-166950000D03*
%TD*%
D15*
%TO.C,R38*%
X103425000Y-181360000D03*
X103425000Y-180340000D03*
%TD*%
D19*
%TO.C,C9*%
X115970000Y-140550000D03*
X116930000Y-140550000D03*
%TD*%
D21*
%TO.C,R23*%
X81770000Y-197050000D03*
X80750000Y-197050000D03*
%TD*%
D26*
%TO.C,JP9*%
X104990000Y-161900000D03*
X104990000Y-163200000D03*
%TD*%
D13*
%TO.C,C38*%
X124755000Y-137300000D03*
X123795000Y-137300000D03*
%TD*%
D26*
%TO.C,JP3*%
X96350000Y-161950000D03*
X96350000Y-163250000D03*
%TD*%
D19*
%TO.C,C39*%
X113820000Y-136150000D03*
X114780000Y-136150000D03*
%TD*%
D17*
%TO.C,REF\u002A\u002A1*%
X156460000Y-170000000D03*
%TD*%
D18*
%TO.C,C36*%
X126000000Y-135945000D03*
X126000000Y-136905000D03*
%TD*%
D16*
%TO.C,R16*%
X120550000Y-125640000D03*
X120550000Y-126660000D03*
%TD*%
D28*
%TO.C,REF\u002A\u002A1*%
X72540000Y-170000000D03*
%TD*%
D43*
%TO.C,L1*%
X109200000Y-131900000D03*
X111200000Y-131900000D03*
%TD*%
D44*
%TO.C,R13*%
X117310624Y-122539376D03*
X116589376Y-123260624D03*
%TD*%
D45*
%TO.C,U4*%
X149300000Y-117350000D03*
D46*
X155600000Y-119650000D03*
D45*
X149300000Y-119650000D03*
X149300000Y-121950000D03*
%TD*%
D34*
%TO.C,D12*%
X97035000Y-190750000D03*
X97035000Y-191350000D03*
D35*
X97985000Y-191350000D03*
D34*
X97985000Y-190750000D03*
%TD*%
D14*
%TO.C,TP8*%
X82020000Y-203200000D03*
%TD*%
D19*
%TO.C,C37*%
X123550000Y-130800000D03*
X124510000Y-130800000D03*
%TD*%
D13*
%TO.C,C16*%
X99830000Y-142500000D03*
X98870000Y-142500000D03*
%TD*%
D16*
%TO.C,R5*%
X112550000Y-131615000D03*
X112550000Y-132635000D03*
%TD*%
D27*
%TO.C,U10*%
X90850000Y-178100000D03*
X92130000Y-178100000D03*
X93390000Y-178100000D03*
X94660000Y-178100000D03*
X95940000Y-178100000D03*
X97210000Y-178100000D03*
X98470000Y-178100000D03*
X99750000Y-178100000D03*
X99750000Y-172620000D03*
X98470000Y-172620000D03*
X97210000Y-172620000D03*
X95940000Y-172620000D03*
X94660000Y-172620000D03*
X93390000Y-172620000D03*
X92130000Y-172620000D03*
X90850000Y-172620000D03*
%TD*%
D22*
%TO.C,J1*%
X103180000Y-114100000D03*
D23*
X103180000Y-116640000D03*
X100640000Y-114100000D03*
X100640000Y-116640000D03*
X98100000Y-114100000D03*
X98100000Y-116640000D03*
X95560000Y-114100000D03*
X95560000Y-116640000D03*
X93020000Y-114100000D03*
X93020000Y-116640000D03*
X90480000Y-114100000D03*
X90480000Y-116640000D03*
X87940000Y-114100000D03*
X87940000Y-116640000D03*
X85400000Y-114100000D03*
X85400000Y-116640000D03*
X82860000Y-114100000D03*
X82860000Y-116640000D03*
X80320000Y-114100000D03*
X80320000Y-116640000D03*
%TD*%
D34*
%TO.C,D9*%
X99235000Y-188550000D03*
X99235000Y-189150000D03*
D35*
X100185000Y-189150000D03*
D34*
X100185000Y-188550000D03*
%TD*%
D26*
%TO.C,JP15*%
X114120000Y-161950000D03*
X114120000Y-163250000D03*
%TD*%
D19*
%TO.C,C4*%
X109561779Y-134475000D03*
X110521779Y-134475000D03*
%TD*%
D15*
%TO.C,R41*%
X125725000Y-131385000D03*
X125725000Y-130365000D03*
%TD*%
D20*
%TO.C,Q1*%
X140700000Y-115440000D03*
X142600000Y-115440000D03*
X141650000Y-113560000D03*
%TD*%
D19*
%TO.C,C18*%
X115220000Y-141475000D03*
X116180000Y-141475000D03*
%TD*%
D47*
%TO.C,SW1*%
X104162500Y-127700000D03*
X104162500Y-131100000D03*
%TD*%
D26*
%TO.C,JP12*%
X109756081Y-165620810D03*
X109756081Y-166920810D03*
%TD*%
%TO.C,JP2*%
X95210000Y-165650000D03*
X95210000Y-166950000D03*
%TD*%
D34*
%TO.C,D15*%
X103635000Y-190750000D03*
X103635000Y-191350000D03*
D35*
X104585000Y-191350000D03*
D34*
X104585000Y-190750000D03*
%TD*%
D26*
%TO.C,JP6*%
X101310000Y-165600000D03*
X101310000Y-166900000D03*
%TD*%
%TO.C,JP1*%
X93810000Y-161950000D03*
X93810000Y-163250000D03*
%TD*%
D34*
%TO.C,D17*%
X99235000Y-192950000D03*
X99235000Y-193550000D03*
D35*
X100185000Y-193550000D03*
D34*
X100185000Y-192950000D03*
%TD*%
D15*
%TO.C,R39*%
X116075000Y-181535000D03*
X116075000Y-180515000D03*
%TD*%
D26*
%TO.C,JP18*%
X118910000Y-165650000D03*
X118910000Y-166950000D03*
%TD*%
D22*
%TO.C,J2*%
X83625000Y-130770000D03*
D23*
X86165000Y-130770000D03*
X83625000Y-133310000D03*
X86165000Y-133310000D03*
X83625000Y-135850000D03*
X86165000Y-135850000D03*
X83625000Y-138390000D03*
X86165000Y-138390000D03*
X83625000Y-140930000D03*
X86165000Y-140930000D03*
X83625000Y-143470000D03*
X86165000Y-143470000D03*
X83625000Y-146010000D03*
X86165000Y-146010000D03*
X83625000Y-148550000D03*
X86165000Y-148550000D03*
X83625000Y-151090000D03*
X86165000Y-151090000D03*
X83625000Y-153630000D03*
X86165000Y-153630000D03*
%TD*%
D15*
%TO.C,R43*%
X127150000Y-136659999D03*
X127150000Y-135640001D03*
%TD*%
D48*
%TO.C,D3*%
X116662500Y-126700000D03*
X118237500Y-126700000D03*
%TD*%
D15*
%TO.C,R29*%
X89600000Y-181445000D03*
X89600000Y-180425000D03*
%TD*%
D49*
%TO.C,Q7*%
X122090000Y-141250000D03*
X120210000Y-141250000D03*
%TD*%
D50*
%TO.C,U6*%
X77850000Y-200797500D03*
X77850000Y-199527500D03*
X77850000Y-198257500D03*
X77850000Y-196987500D03*
X77850000Y-195717500D03*
X77850000Y-194447500D03*
X77850000Y-193177500D03*
X77850000Y-191907500D03*
X72125000Y-191907500D03*
X72125000Y-193177500D03*
X72125000Y-194447500D03*
X72125000Y-195717500D03*
X72125000Y-196987500D03*
X72125000Y-198257500D03*
X72125000Y-199527500D03*
X72125000Y-200797500D03*
%TD*%
D26*
%TO.C,JP21*%
X122590000Y-161950000D03*
X122590000Y-163250000D03*
%TD*%
D15*
%TO.C,R31*%
X112400000Y-181485000D03*
X112400000Y-180465000D03*
%TD*%
D24*
%TO.C,R6*%
X103790000Y-126500000D03*
X104810000Y-126500000D03*
%TD*%
D15*
%TO.C,R37*%
X114800000Y-181510000D03*
X114800000Y-180490000D03*
%TD*%
D17*
%TO.C,REF\u002A\u002A3*%
X151380000Y-170000000D03*
%TD*%
D51*
%TO.C,J3*%
X113150000Y-113950000D03*
X107370000Y-113950000D03*
D52*
X111510000Y-115150000D03*
X110510000Y-115150000D03*
X110010000Y-115150000D03*
X109010000Y-115150000D03*
D53*
X107860000Y-115150000D03*
X107060000Y-115150000D03*
D52*
X108510000Y-115150000D03*
X109510000Y-115150000D03*
X111010000Y-115150000D03*
X112010000Y-115150000D03*
D53*
X112660000Y-115150000D03*
X113460000Y-115150000D03*
D54*
X114590000Y-114470000D03*
D55*
X114590000Y-110270000D03*
D56*
X110260000Y-110650000D03*
D54*
X105930000Y-114470000D03*
D55*
X105930000Y-110270000D03*
%TD*%
D18*
%TO.C,C8*%
X108500000Y-148420000D03*
X108500000Y-149380000D03*
%TD*%
D16*
%TO.C,R7*%
X106950000Y-132990000D03*
X106950000Y-134010000D03*
%TD*%
D24*
%TO.C,R45*%
X123540000Y-131825000D03*
X124560000Y-131825000D03*
%TD*%
D20*
%TO.C,Q4*%
X100300000Y-198450000D03*
X102200000Y-198450000D03*
X101250000Y-196570000D03*
%TD*%
D28*
%TO.C,REF\u002A\u002A4*%
X80160000Y-170000000D03*
%TD*%
D15*
%TO.C,R35*%
X93450000Y-181460000D03*
X93450000Y-180440000D03*
%TD*%
%TO.C,R34*%
X113475000Y-181500000D03*
X113475000Y-180480000D03*
%TD*%
D34*
%TO.C,D7*%
X103635000Y-186350000D03*
X103635000Y-186950000D03*
D35*
X104585000Y-186950000D03*
D34*
X104585000Y-186350000D03*
%TD*%
D57*
%TO.C,Y1*%
X105950000Y-155450000D03*
X108150000Y-155450000D03*
X108150000Y-153750000D03*
X105950000Y-153750000D03*
%TD*%
D15*
%TO.C,R25*%
X87420000Y-205310000D03*
X87420000Y-204290000D03*
%TD*%
%TO.C,R30*%
X90900000Y-181435000D03*
X90900000Y-180415000D03*
%TD*%
D18*
%TO.C,C23*%
X124700000Y-121240000D03*
X124700000Y-122200000D03*
%TD*%
D34*
%TO.C,D11*%
X103635000Y-188550000D03*
X103635000Y-189150000D03*
D35*
X104585000Y-189150000D03*
D34*
X104585000Y-188550000D03*
%TD*%
D58*
%TO.C,SW3*%
X133695000Y-122080000D03*
X133695000Y-124620000D03*
X142305000Y-124620000D03*
X142305000Y-122080000D03*
%TD*%
D13*
%TO.C,C12*%
X99830000Y-138200000D03*
X98870000Y-138200000D03*
%TD*%
D34*
%TO.C,D4*%
X97035000Y-186350000D03*
X97035000Y-186950000D03*
D35*
X97985000Y-186950000D03*
D34*
X97985000Y-186350000D03*
%TD*%
D59*
%TO.C,R14*%
X113800000Y-118387500D03*
X113800000Y-121312500D03*
%TD*%
D26*
%TO.C,JP17*%
X116660000Y-161950000D03*
X116660000Y-163250000D03*
%TD*%
D16*
%TO.C,R22*%
X140650000Y-117640000D03*
X140650000Y-118660000D03*
%TD*%
D26*
%TO.C,JP8*%
X103850000Y-165600000D03*
X103850000Y-166900000D03*
%TD*%
D13*
%TO.C,C1*%
X106180000Y-151000000D03*
X105220000Y-151000000D03*
%TD*%
D22*
%TO.C,J4*%
X132065000Y-150980000D03*
D23*
X129525000Y-150980000D03*
X132065000Y-148440000D03*
X129525000Y-148440000D03*
X132065000Y-145900000D03*
X129525000Y-145900000D03*
X132065000Y-143360000D03*
X129525000Y-143360000D03*
X132065000Y-140820000D03*
X129525000Y-140820000D03*
X132065000Y-138280000D03*
X129525000Y-138280000D03*
X132065000Y-135740000D03*
X129525000Y-135740000D03*
X132065000Y-133200000D03*
X129525000Y-133200000D03*
%TD*%
D14*
%TO.C,TP1*%
X103850000Y-122950000D03*
%TD*%
D16*
%TO.C,R8*%
X107950000Y-132990000D03*
X107950000Y-134010000D03*
%TD*%
D19*
%TO.C,C35*%
X123560000Y-129710000D03*
X124520000Y-129710000D03*
%TD*%
D14*
%TO.C,TP10*%
X126275000Y-128375000D03*
%TD*%
D26*
%TO.C,JP11*%
X108356081Y-161920810D03*
X108356081Y-163220810D03*
%TD*%
D14*
%TO.C,TP11*%
X120900000Y-136900000D03*
%TD*%
D26*
%TO.C,JP20*%
X121450000Y-165650000D03*
X121450000Y-166950000D03*
%TD*%
D34*
%TO.C,D14*%
X101435000Y-190750000D03*
X101435000Y-191350000D03*
D35*
X102385000Y-191350000D03*
D34*
X102385000Y-190750000D03*
%TD*%
D26*
%TO.C,JP16*%
X115520000Y-165650000D03*
X115520000Y-166950000D03*
%TD*%
D41*
%TO.C,D2*%
X118700000Y-112337500D03*
X118700000Y-110762500D03*
%TD*%
D15*
%TO.C,R40*%
X104575000Y-181360000D03*
X104575000Y-180340000D03*
%TD*%
D13*
%TO.C,C6*%
X99830000Y-140300000D03*
X98870000Y-140300000D03*
%TD*%
D26*
%TO.C,JP19*%
X120050000Y-161950000D03*
X120050000Y-163250000D03*
%TD*%
D28*
%TO.C,REF\u002A\u002A2*%
X75080000Y-170000000D03*
%TD*%
D21*
%TO.C,R44*%
X124810000Y-136275000D03*
X123790000Y-136275000D03*
%TD*%
D34*
%TO.C,D10*%
X101435000Y-188550000D03*
X101435000Y-189150000D03*
D35*
X102385000Y-189150000D03*
D34*
X102385000Y-188550000D03*
%TD*%
D60*
%TO.C,L2*%
X126290000Y-120452500D03*
X126290000Y-122027500D03*
%TD*%
D21*
%TO.C,R24*%
X96730000Y-200000000D03*
X95710000Y-200000000D03*
%TD*%
D34*
%TO.C,D5*%
X99235000Y-186350000D03*
X99235000Y-186950000D03*
D35*
X100185000Y-186950000D03*
D34*
X100185000Y-186350000D03*
%TD*%
D13*
%TO.C,C11*%
X114800000Y-137100000D03*
X113840000Y-137100000D03*
%TD*%
D61*
%TO.C,C19*%
X117629411Y-119360589D03*
X116950589Y-120039411D03*
%TD*%
D19*
%TO.C,C15*%
X114345000Y-145050000D03*
X115305000Y-145050000D03*
%TD*%
D44*
%TO.C,R11*%
X107910624Y-118289376D03*
X107189376Y-119010624D03*
%TD*%
D24*
%TO.C,R20*%
X119500000Y-128200000D03*
X120520000Y-128200000D03*
%TD*%
D40*
%TO.C,C10*%
X105900000Y-133980000D03*
X105900000Y-133020000D03*
%TD*%
D62*
%TO.C,MK1*%
X121780000Y-129760000D03*
X121780000Y-131690000D03*
X120770000Y-131690000D03*
X120770000Y-129760000D03*
%TD*%
D15*
%TO.C,R10*%
X118700000Y-114760000D03*
X118700000Y-113740000D03*
%TD*%
D34*
%TO.C,D13*%
X99235000Y-190750000D03*
X99235000Y-191350000D03*
D35*
X100185000Y-191350000D03*
D34*
X100185000Y-190750000D03*
%TD*%
D26*
%TO.C,JP13*%
X110896081Y-161920810D03*
X110896081Y-163220810D03*
%TD*%
D40*
%TO.C,C22*%
X119600000Y-117730000D03*
X119600000Y-116770000D03*
%TD*%
D63*
%TO.C,R1*%
X116850000Y-135580000D03*
X116850000Y-137220000D03*
%TD*%
D17*
%TO.C,REF\u002A\u002A4*%
X148840000Y-170000000D03*
%TD*%
D18*
%TO.C,C13*%
X106025000Y-148445000D03*
X106025000Y-149405000D03*
%TD*%
D14*
%TO.C,TP3*%
X116340000Y-131590000D03*
%TD*%
%TO.C,TP4*%
X111150000Y-122750000D03*
%TD*%
D15*
%TO.C,R46*%
X121375000Y-134860000D03*
X121375000Y-133840000D03*
%TD*%
%TO.C,R32*%
X92125000Y-181435000D03*
X92125000Y-180415000D03*
%TD*%
D21*
%TO.C,R26*%
X101330000Y-199950000D03*
X100310000Y-199950000D03*
%TD*%
D34*
%TO.C,D18*%
X101435000Y-192950000D03*
X101435000Y-193550000D03*
D35*
X102385000Y-193550000D03*
D34*
X102385000Y-192950000D03*
%TD*%
D19*
%TO.C,C5*%
X109556779Y-133550000D03*
X110516779Y-133550000D03*
%TD*%
D26*
%TO.C,JP4*%
X98770000Y-165600000D03*
X98770000Y-166900000D03*
%TD*%
D14*
%TO.C,TP2*%
X129700000Y-119800000D03*
%TD*%
D27*
%TO.C,U12*%
X102210000Y-178290000D03*
X103490000Y-178290000D03*
X104750000Y-178290000D03*
X106020000Y-178290000D03*
X107300000Y-178290000D03*
X108570000Y-178290000D03*
X109830000Y-178290000D03*
X111110000Y-178290000D03*
X111110000Y-172810000D03*
X109830000Y-172810000D03*
X108570000Y-172810000D03*
X107300000Y-172810000D03*
X106020000Y-172810000D03*
X104750000Y-172810000D03*
X103490000Y-172810000D03*
X102210000Y-172810000D03*
%TD*%
D24*
%TO.C,R17*%
X121400000Y-128200000D03*
X122420000Y-128200000D03*
%TD*%
D34*
%TO.C,D8*%
X97035000Y-188550000D03*
X97035000Y-189150000D03*
D35*
X97985000Y-189150000D03*
D34*
X97985000Y-188550000D03*
%TD*%
D15*
%TO.C,R9*%
X121450000Y-114860000D03*
X121450000Y-113840000D03*
%TD*%
D64*
%TO.C,REF\u002A\u002A*%
X148400000Y-127000000D03*
X148400000Y-208300000D03*
%TD*%
M02*
