%TF.GenerationSoftware,KiCad,Pcbnew,10.0.1-1.fc44*%
%TF.CreationDate,2026-05-05T04:36:18+02:00*%
%TF.ProjectId,poc-one,706f632d-6f6e-4652-9e6b-696361645f70,rev?*%
%TF.SameCoordinates,Original*%
%TF.FileFunction,Soldermask,Bot*%
%TF.FilePolarity,Negative*%
%FSLAX46Y46*%
G04 Gerber Fmt 4.6, Leading zero omitted, Abs format (unit mm)*
G04 Created by KiCad (PCBNEW 10.0.1-1.fc44) date 2026-05-05 04:36:18*
%MOMM*%
%LPD*%
G01*
G04 APERTURE LIST*
G04 Aperture macros list*
%AMRoundRect*
0 Rectangle with rounded corners*
0 $1 Rounding radius*
0 $2 $3 $4 $5 $6 $7 $8 $9 X,Y pos of 4 corners*
0 Add a 4 corners polygon primitive as box body*
4,1,4,$2,$3,$4,$5,$6,$7,$8,$9,$2,$3,0*
0 Add four circle primitives for the rounded corners*
1,1,$1+$1,$2,$3*
1,1,$1+$1,$4,$5*
1,1,$1+$1,$6,$7*
1,1,$1+$1,$8,$9*
0 Add four rect primitives between the rounded corners*
20,1,$1+$1,$2,$3,$4,$5,0*
20,1,$1+$1,$4,$5,$6,$7,0*
20,1,$1+$1,$6,$7,$8,$9,0*
20,1,$1+$1,$8,$9,$2,$3,0*%
G04 Aperture macros list end*
%ADD10C,1.150000*%
%ADD11C,2.500000*%
%ADD12R,1.700000X1.700000*%
%ADD13C,1.700000*%
%ADD14C,0.600000*%
%ADD15O,1.300000X2.300000*%
%ADD16O,1.300000X2.100000*%
%ADD17RoundRect,0.250000X0.250000X0.750000X-0.250000X0.750000X-0.250000X-0.750000X0.250000X-0.750000X0*%
%ADD18RoundRect,0.250000X-0.250000X-0.750000X0.250000X-0.750000X0.250000X0.750000X-0.250000X0.750000X0*%
G04 APERTURE END LIST*
D10*
X131225000Y-167150000D02*
G75*
G02*
X130075000Y-167150000I-575000J0D01*
G01*
X130075000Y-167150000D02*
G75*
G02*
X131225000Y-167150000I575000J0D01*
G01*
X131275000Y-170400000D02*
G75*
G02*
X130125000Y-170400000I-575000J0D01*
G01*
X130125000Y-170400000D02*
G75*
G02*
X131275000Y-170400000I575000J0D01*
G01*
X131275000Y-173700000D02*
G75*
G02*
X130125000Y-173700000I-575000J0D01*
G01*
X130125000Y-173700000D02*
G75*
G02*
X131275000Y-173700000I575000J0D01*
G01*
%TO.C,REF\u002A\u002A*%
D11*
X125650000Y-148350000D02*
G75*
G02*
X123150000Y-148350000I-1250000J0D01*
G01*
X123150000Y-148350000D02*
G75*
G02*
X125650000Y-148350000I1250000J0D01*
G01*
X94050000Y-146200000D02*
G75*
G02*
X91550000Y-146200000I-1250000J0D01*
G01*
X91550000Y-146200000D02*
G75*
G02*
X94050000Y-146200000I1250000J0D01*
G01*
X94750000Y-132300000D02*
G75*
G02*
X92250000Y-132300000I-1250000J0D01*
G01*
X92250000Y-132300000D02*
G75*
G02*
X94750000Y-132300000I1250000J0D01*
G01*
X131750000Y-159000000D02*
G75*
G02*
X129250000Y-159000000I-1250000J0D01*
G01*
X129250000Y-159000000D02*
G75*
G02*
X131750000Y-159000000I1250000J0D01*
G01*
%TD*%
D12*
%TO.C,J5*%
X112845000Y-151295000D03*
D13*
X112845000Y-153835000D03*
X112845000Y-156375000D03*
%TD*%
D12*
%TO.C,J1*%
X103180000Y-114100000D03*
D13*
X103180000Y-116640000D03*
X100640000Y-114100000D03*
X100640000Y-116640000D03*
X98100000Y-114100000D03*
X98100000Y-116640000D03*
X95560000Y-114100000D03*
X95560000Y-116640000D03*
X93020000Y-114100000D03*
X93020000Y-116640000D03*
X90480000Y-114100000D03*
X90480000Y-116640000D03*
X87940000Y-114100000D03*
X87940000Y-116640000D03*
X85400000Y-114100000D03*
X85400000Y-116640000D03*
X82860000Y-114100000D03*
X82860000Y-116640000D03*
X80320000Y-114100000D03*
X80320000Y-116640000D03*
%TD*%
D12*
%TO.C,J2*%
X83625000Y-130770000D03*
D13*
X86165000Y-130770000D03*
X83625000Y-133310000D03*
X86165000Y-133310000D03*
X83625000Y-135850000D03*
X86165000Y-135850000D03*
X83625000Y-138390000D03*
X86165000Y-138390000D03*
X83625000Y-140930000D03*
X86165000Y-140930000D03*
X83625000Y-143470000D03*
X86165000Y-143470000D03*
X83625000Y-146010000D03*
X86165000Y-146010000D03*
X83625000Y-148550000D03*
X86165000Y-148550000D03*
X83625000Y-151090000D03*
X86165000Y-151090000D03*
X83625000Y-153630000D03*
X86165000Y-153630000D03*
%TD*%
D14*
%TO.C,J3*%
X113150000Y-113950000D03*
X107370000Y-113950000D03*
D15*
X114590000Y-114470000D03*
D16*
X114590000Y-110270000D03*
D15*
X105930000Y-114470000D03*
D16*
X105930000Y-110270000D03*
%TD*%
D12*
%TO.C,J4*%
X132065000Y-150980000D03*
D13*
X129525000Y-150980000D03*
X132065000Y-148440000D03*
X129525000Y-148440000D03*
X132065000Y-145900000D03*
X129525000Y-145900000D03*
X132065000Y-143360000D03*
X129525000Y-143360000D03*
X132065000Y-140820000D03*
X129525000Y-140820000D03*
X132065000Y-138280000D03*
X129525000Y-138280000D03*
X132065000Y-135740000D03*
X129525000Y-135740000D03*
X132065000Y-133200000D03*
X129525000Y-133200000D03*
%TD*%
D17*
%TO.C,REF\u002A\u002A4*%
X148840000Y-170000000D03*
%TD*%
%TO.C,REF\u002A\u002A1*%
X156460000Y-170000000D03*
%TD*%
D18*
%TO.C,REF\u002A\u002A1*%
X72540000Y-170000000D03*
%TD*%
%TO.C,REF\u002A\u002A*%
X70000000Y-170000000D03*
%TD*%
D17*
%TO.C,REF\u002A\u002A3*%
X151380000Y-170000000D03*
%TD*%
D18*
%TO.C,REF\u002A\u002A3*%
X77620000Y-170000000D03*
%TD*%
D17*
%TO.C,REF\u002A\u002A2*%
X153920000Y-170000000D03*
%TD*%
%TO.C,REF\u002A\u002A*%
X159000000Y-170000000D03*
%TD*%
D18*
%TO.C,REF\u002A\u002A4*%
X80160000Y-170000000D03*
%TD*%
%TO.C,REF\u002A\u002A2*%
X75080000Y-170000000D03*
%TD*%
M02*
